<svg width="1280" height="118" viewBox="0 0 1280 118" fill="none" xmlns="http://www.w3.org/2000/svg">
<path opacity="0.25" d="M0 0V49.376C50.976 73.056 110.496 83.6907 168.533 79.2427C243.584 73.5147 313.952 43.712 389.12 39.2427C467.883 34.592 546.496 57.248 621.867 76.8533C695.755 96.0533 769.387 103.392 845.227 90.8053C883.787 84.4053 919.733 71.776 956.64 59.5093C1055.46 26.6667 1187.2 -15.2427 1280 55.968V0H0Z" fill="#5933CC"/>
<path opacity="0.5" d="M0 0V16.864C13.8667 39.3813 29.4827 60.6507 50.8693 76.8533C106.037 118.688 176 118.4 239.552 97.6853C272.779 86.8587 303.648 69.8773 335.2 55.232C378.848 34.9653 425.579 6.16533 474.752 2.25067C513.429 -0.789333 550.379 12.2987 579.925 35.9147C613.813 62.9973 646.4 102.048 690.464 113.781C733.6 125.291 777.237 106.645 817.536 87.8827C857.835 69.12 897.707 46.2827 942.251 41.9627C1005.96 35.7227 1063.08 66.368 1122.41 83.392C1154.62 92.6293 1185.34 89.9733 1215.31 75.392C1239.23 63.776 1266.51 46.6667 1280 22.8693V0H0Z" fill="#5933CC"/>
<path d="M0 0V6.00533C159.925 62.9333 335.029 76.0747 507.552 45.408C553.419 37.2587 597.397 23.9467 643.669 17.184C706.603 7.97867 763.648 30.24 820.267 54.944C883.125 82.368 945.067 101.589 1014.61 96C1106.91 88.5333 1198.57 47.2427 1280 5.536V0H0Z" fill="#5933CC"/>
</svg>
