 <svg width="375" height="96" class="" viewBox="0 0 375 96" fill="none" xmlns="http://www.w3.org/2000/svg">
    <path d="M294.346 38.6585C343.915 34.6627 375 50.1585 375 50.1585V95.8972C375 95.8972 266.374 96.1285 193.714 95.8972C118.958 95.6592 -3.05176e-05 95.8972 -3.05176e-05 95.8972C-3.05176e-05 95.8972 63.632 66.175 131.375 70.5449C199.117 74.9148 244.777 42.6543 294.346 38.6585Z" fill="url(#paint0_radial_936_1150)"/>
    <rect x="279" y="2" width="68" height="68" rx="10" fill="url(#paint1_radial_936_1150)" stroke="white" stroke-width="4"/>
    <path d="M312.477 42.838C311.276 43.0017 310.207 42.0682 310.207 40.8563V32.6264C310.207 31.8678 310.074 31.2156 309.808 30.6699C309.555 30.1109 309.17 29.685 308.651 29.3922C308.145 29.0994 307.527 28.953 306.796 28.953C305.984 28.953 305.293 29.0861 304.721 29.3523C304.149 29.6052 303.703 29.9512 303.384 30.3904C302.9 31.0646 302.222 31.7799 301.394 31.7234L299.522 31.5957C298.473 31.5241 297.613 30.6284 297.945 29.6307C298.039 29.3488 298.157 29.0764 298.297 28.8133C298.736 28.0014 299.354 27.296 300.152 26.6971C300.963 26.0982 301.934 25.6324 303.065 25.2996C304.195 24.9669 305.452 24.8005 306.835 24.8005C308.551 24.8005 310.041 25.0933 311.304 25.6789C312.581 26.2646 313.572 27.143 314.277 28.3142C314.982 29.4721 315.334 30.9228 315.334 32.6663V40.7027C315.334 41.7029 314.595 42.5493 313.604 42.6844L312.477 42.838ZM309.338 33.9041C310.293 33.9041 311.069 34.6756 311.075 35.631C311.08 36.5941 310.301 37.3778 309.338 37.3778H306.716C305.745 37.3778 304.927 37.5309 304.262 37.837C303.61 38.1298 303.118 38.5224 302.786 39.0148C302.453 39.5073 302.287 40.0397 302.287 40.612C302.287 41.1443 302.413 41.6168 302.666 42.0294C302.919 42.442 303.304 42.7681 303.823 43.0076C304.342 43.2339 305 43.347 305.798 43.347C306.397 43.347 307.008 43.2405 307.633 43.0276C308.259 42.8013 308.83 42.5152 309.349 42.1691C309.881 41.8231 310.307 41.4504 310.626 41.0512C310.9 40.708 311.642 40.55 311.925 40.8865L313.12 42.3097C313.433 42.6833 313.496 43.2162 313.205 43.6076C312.886 44.0369 312.478 44.4692 311.983 44.9042C311.224 45.5564 310.247 46.102 309.05 46.5412C307.866 46.9804 306.45 47.2 304.8 47.2C303.125 47.2 301.702 46.9272 300.531 46.3815C299.374 45.8358 298.496 45.0639 297.898 44.0657C297.299 43.0542 297 41.8763 297 40.5321C297 39.4807 297.206 38.549 297.618 37.7372C298.031 36.912 298.643 36.2199 299.454 35.6609C300.265 35.0886 301.276 34.6561 302.486 34.3633C303.697 34.0571 305.093 33.9041 306.676 33.9041H309.338ZM320.541 47.2C318.879 47.2 317.409 46.9472 316.132 46.4414C314.869 45.9357 313.798 45.217 312.92 44.2853C312.056 43.3404 311.397 42.2357 310.945 40.9713C310.506 39.6936 310.287 38.2961 310.287 36.7789V35.5411C310.287 33.9573 310.506 32.5133 310.945 31.209C311.384 29.8913 312.022 28.7534 312.86 27.7951C313.698 26.8369 314.716 26.0982 315.913 25.5791C317.123 25.0468 318.486 24.7872 320.002 24.8005C321.426 24.8005 322.689 25.0268 323.793 25.4793C324.91 25.9318 325.855 26.584 326.626 27.4358C327.397 28.2743 327.983 29.2991 328.382 30.5102C328.794 31.7081 329 33.0523 329 34.5429V35.5176C329 36.6221 328.105 37.5175 327 37.5175H314.358C313.377 37.5175 312.581 36.7221 312.581 35.7408C312.581 34.7595 313.377 33.964 314.358 33.964H323.214C323.534 33.964 323.793 33.7048 323.793 33.385C323.793 32.5332 323.66 31.7746 323.394 31.1091C323.128 30.4437 322.716 29.918 322.157 29.532C321.612 29.146 320.894 28.953 320.002 28.953C319.191 28.953 318.493 29.1194 317.908 29.4521C317.323 29.7849 316.844 30.2507 316.471 30.8496C316.099 31.4485 315.82 32.1473 315.633 32.9458C315.461 33.7444 315.374 34.6095 315.374 35.5411V36.7789C315.374 37.6706 315.48 38.4958 315.693 39.2544C315.906 39.9997 316.239 40.6585 316.691 41.2308C317.143 41.8031 317.728 42.249 318.446 42.5684C319.165 42.8878 320.022 43.0476 321.02 43.0476C322.456 43.0476 323.62 42.8679 324.511 42.5085C324.681 42.4387 324.848 42.3681 325.011 42.2968C326.09 41.828 327.387 42.2705 327.849 43.3519C328.208 44.1929 327.944 45.1704 327.139 45.6051C326.995 45.6828 326.844 45.7619 326.686 45.8425C325.941 46.2152 325.043 46.5346 323.993 46.8008C322.955 47.067 321.805 47.2 320.541 47.2Z" fill="white"/>
    <defs>
    <radialGradient id="paint0_radial_936_1150" cx="0" cy="0" r="1" gradientUnits="userSpaceOnUse" gradientTransform="translate(324.478 50.7849) rotate(171.483) scale(304.602 92.0142)">
    <stop offset="0.144537" stop-color="#0894FF"/>
    <stop offset="0.472624" stop-color="#6E53FF"/>
    <stop offset="0.719121" stop-color="#B038EA"/>
    <stop offset="0.879706" stop-color="#F95088"/>
    <stop offset="1" stop-color="#FF6F62"/>
    </radialGradient>
    <radialGradient id="paint1_radial_936_1150" cx="0" cy="0" r="1" gradientUnits="userSpaceOnUse" gradientTransform="translate(330.5 14) rotate(132.112) scale(71.6042)">
    <stop stop-color="#0894FF"/>
    <stop offset="0.290475" stop-color="#6E53FF"/>
    <stop offset="0.609151" stop-color="#B038EA"/>
    <stop offset="0.850793" stop-color="#F95088"/>
    <stop offset="1" stop-color="#FF6F62"/>
    </radialGradient>
    </defs>
</svg>