<svg width="375" height="96" viewBox="0 0 375 96" fill="none" xmlns="http://www.w3.org/2000/svg">
<path d="M294.346 38.6585C343.915 34.6627 375 50.1585 375 50.1585V95.8972C375 95.8972 266.374 96.1285 193.714 95.8972C118.958 95.6592 -3.05176e-05 95.8972 -3.05176e-05 95.8972C-3.05176e-05 95.8972 63.632 66.175 131.375 70.5449C199.117 74.9148 244.777 42.6543 294.346 38.6585Z" fill="url(#paint0_radial_1_14)"/>
<rect x="279" y="2" width="68" height="68" rx="10" fill="url(#paint1_radial_1_14)" stroke="white" stroke-width="4"/>
<path d="M312.477 42.8378C311.276 43.0014 310.207 42.068 310.207 40.8561V32.6261C310.207 31.8675 310.074 31.2154 309.808 30.6697C309.555 30.1107 309.17 29.6848 308.651 29.392C308.145 29.0992 307.527 28.9528 306.796 28.9528C305.984 28.9528 305.293 29.0859 304.721 29.3521C304.149 29.6049 303.703 29.951 303.384 30.3902V30.3902C302.9 31.0644 302.222 31.7796 301.394 31.7231L299.522 31.5954C298.473 31.5238 297.613 30.6281 297.945 29.6304C298.039 29.3486 298.157 29.0761 298.297 28.813C298.736 28.0012 299.354 27.2958 300.152 26.6969C300.963 26.0979 301.934 25.6321 303.065 25.2994C304.195 24.9667 305.452 24.8003 306.835 24.8003C308.551 24.8003 310.041 25.0931 311.304 25.6787C312.581 26.2643 313.572 27.1427 314.277 28.3139C314.982 29.4718 315.334 30.9226 315.334 32.6661V40.7025C315.334 41.7027 314.595 42.5491 313.604 42.6841L312.477 42.8378ZM309.338 33.9038C310.293 33.9038 311.069 34.6754 311.075 35.6307V35.6307C311.08 36.5938 310.301 37.3776 309.338 37.3776H306.716C305.745 37.3776 304.927 37.5306 304.262 37.8367C303.61 38.1295 303.118 38.5222 302.786 39.0146C302.453 39.507 302.287 40.0394 302.287 40.6117C302.287 41.1441 302.413 41.6166 302.666 42.0292C302.919 42.4417 303.304 42.7678 303.823 43.0074C304.342 43.2336 305 43.3468 305.798 43.3468C306.397 43.3468 307.008 43.2403 307.633 43.0273C308.259 42.8011 308.83 42.5149 309.349 42.1689C309.881 41.8229 310.307 41.4502 310.626 41.0509V41.0509C310.9 40.7077 311.642 40.5498 311.925 40.8863L313.12 42.3094C313.433 42.683 313.496 43.216 313.205 43.6073C312.886 44.0367 312.478 44.4689 311.983 44.904C311.224 45.5561 310.247 46.1018 309.05 46.541C307.866 46.9802 306.45 47.1998 304.8 47.1998C303.125 47.1998 301.702 46.927 300.531 46.3813C299.374 45.8356 298.496 45.0637 297.898 44.0655C297.299 43.054 297 41.8761 297 40.5319C297 39.4804 297.206 38.5488 297.618 37.7369C298.031 36.9117 298.643 36.2197 299.454 35.6607C300.265 35.0884 301.276 34.6558 302.486 34.363C303.697 34.0569 305.093 33.9038 306.676 33.9038H309.338ZM320.541 47.1998C318.879 47.1998 317.409 46.9469 316.132 46.4412C314.869 45.9354 313.798 45.2167 312.92 44.2851C312.056 43.3401 311.397 42.2354 310.945 40.9711C310.506 39.6934 310.287 38.2959 310.287 36.7786V35.5409C310.287 33.9571 310.506 32.513 310.945 31.2087C311.384 29.8911 312.022 28.7531 312.86 27.7949C313.698 26.8366 314.716 26.0979 315.913 25.5789C317.123 25.0465 318.486 24.787 320.002 24.8003C321.426 24.8003 322.689 25.0265 323.793 25.4791C324.91 25.9316 325.855 26.5837 326.626 27.4355C327.397 28.274 327.983 29.2988 328.382 30.51C328.794 31.7078 329 33.052 329 34.5427V35.5173C329 36.6219 328.105 37.5173 327 37.5173H314.358C313.377 37.5173 312.581 36.7218 312.581 35.7405V35.7405C312.581 34.7592 313.377 33.9637 314.358 33.9637H323.214C323.534 33.9637 323.793 33.7045 323.793 33.3848V33.3848C323.793 32.533 323.66 31.7744 323.394 31.1089C323.128 30.4434 322.716 29.9177 322.157 29.5317C321.612 29.1458 320.894 28.9528 320.002 28.9528C319.191 28.9528 318.493 29.1192 317.908 29.4519C317.323 29.7846 316.844 30.2504 316.471 30.8494C316.099 31.4483 315.82 32.147 315.633 32.9456C315.461 33.7441 315.374 34.6092 315.374 35.5409V36.7786C315.374 37.6704 315.48 38.4955 315.693 39.2542C315.906 39.9995 316.239 40.6583 316.691 41.2306C317.143 41.8029 317.728 42.2488 318.446 42.5682C319.165 42.8876 320.022 43.0473 321.02 43.0473C322.456 43.0473 323.62 42.8676 324.511 42.5083C324.681 42.4384 324.848 42.3678 325.011 42.2966C326.09 41.8277 327.387 42.2703 327.849 43.3517V43.3517C328.208 44.1926 327.944 45.1701 327.139 45.6048C326.995 45.6825 326.844 45.7617 326.686 45.8423C325.941 46.2149 325.043 46.5343 323.993 46.8005C322.955 47.0667 321.805 47.1998 320.541 47.1998Z" fill="white"/>
<defs>
<radialGradient id="paint0_radial_1_14" cx="0" cy="0" r="1" gradientUnits="userSpaceOnUse" gradientTransform="translate(324.478 50.7849) rotate(171.483) scale(304.602 92.0142)">
<stop offset="0.144537" stop-color="#0894FF"/>
<stop offset="0.472624" stop-color="#6E53FF"/>
<stop offset="0.719121" stop-color="#B038EA"/>
<stop offset="0.879706" stop-color="#F95088"/>
<stop offset="1" stop-color="#FF6F62"/>
</radialGradient>
<radialGradient id="paint1_radial_1_14" cx="0" cy="0" r="1" gradientUnits="userSpaceOnUse" gradientTransform="translate(330.5 14) rotate(132.112) scale(71.6042)">
<stop stop-color="#0894FF"/>
<stop offset="0.290475" stop-color="#6E53FF"/>
<stop offset="0.609151" stop-color="#B038EA"/>
<stop offset="0.850793" stop-color="#F95088"/>
<stop offset="1" stop-color="#FF6F62"/>
</radialGradient>
</defs>
</svg>
