<svg width="694" height="128" viewBox="0 0 694 128" fill="none" xmlns="http://www.w3.org/2000/svg">
<path d="M149.264 18.8822C57.5277 11.2648 0 40.8053 0 40.8053V127.999C0 127.999 201.031 128.44 335.5 128C473.849 127.546 694 127.999 694 127.999C694 127.999 576.238 71.3384 450.869 79.669C325.5 87.9996 241 26.4996 149.264 18.8822Z" fill="url(#paint0_radial_1463_164)"/>
<rect x="58" y="2" width="68" height="68" rx="10" fill="url(#paint1_radial_1463_164)" stroke="white" stroke-width="4"/>
<path d="M91.477 42.8378C90.2762 43.0014 89.207 42.068 89.207 40.8561V32.6261C89.207 31.8675 89.074 31.2154 88.808 30.6697C88.5553 30.1107 88.1696 29.6848 87.6509 29.392C87.1455 29.0992 86.527 28.9528 85.7955 28.9528C84.9842 28.9528 84.2926 29.0859 83.7207 29.3521C83.1488 29.6049 82.7032 29.951 82.384 30.3902C81.8998 31.0644 81.2224 31.7796 80.3942 31.7231L78.5222 31.5954C77.4729 31.5238 76.6126 30.6281 76.9454 29.6304C77.0394 29.3486 77.1565 29.0761 77.2968 28.813C77.7357 28.0012 78.3541 27.2958 79.1521 26.6969C79.9634 26.0979 80.9343 25.6321 82.0648 25.2994C83.1953 24.9667 84.4522 24.8003 85.8354 24.8003C87.5511 24.8003 89.0407 25.0931 90.3042 25.6787C91.581 26.2643 92.5719 27.1427 93.2768 28.3139C93.9817 29.4718 94.3342 30.9226 94.3342 32.6661V40.7025C94.3342 41.7027 93.5953 42.5491 92.6042 42.6841L91.477 42.8378ZM88.3379 33.9038C89.2933 33.9038 90.0693 34.6754 90.0748 35.6307C90.0803 36.5938 89.3011 37.3776 88.3379 37.3776H85.7157C84.7448 37.3776 83.9268 37.5306 83.2618 37.8367C82.6101 38.1295 82.118 38.5222 81.7855 39.0146C81.453 39.507 81.2868 40.0394 81.2868 40.6117C81.2868 41.1441 81.4131 41.6166 81.6658 42.0292C81.9185 42.4417 82.3042 42.7678 82.8229 43.0074C83.3416 43.2336 84 43.3468 84.798 43.3468C85.3965 43.3468 86.0083 43.2403 86.6334 43.0273C87.2585 42.8011 87.8304 42.5149 88.3491 42.1689C88.8811 41.8229 89.3067 41.4502 89.6259 41.0509C89.9003 40.7077 90.6425 40.5498 90.925 40.8863L92.1196 42.3094C92.4332 42.683 92.4962 43.216 92.2051 43.6073C91.8857 44.0367 91.4782 44.4689 90.9825 44.904C90.2244 45.5561 89.2469 46.1018 88.0499 46.541C86.8662 46.9802 85.4497 47.1998 83.8005 47.1998C82.1247 47.1998 80.7016 46.927 79.5312 46.3813C78.3741 45.8356 77.4963 45.0637 76.8978 44.0655C76.2993 43.054 76 41.8761 76 40.5319C76 39.4804 76.2062 38.5488 76.6185 37.7369C77.0308 36.9117 77.6426 36.2197 78.4539 35.6607C79.2652 35.0884 80.276 34.6558 81.4863 34.363C82.6966 34.0569 84.0931 33.9038 85.6758 33.9038H88.3379ZM99.5411 47.1998C97.8786 47.1998 96.409 46.9469 95.1322 46.4412C93.8687 45.9354 92.798 45.2167 91.9202 44.2851C91.0557 43.3401 90.3973 42.2354 89.9451 40.9711C89.5062 39.6934 89.2868 38.2959 89.2868 36.7786V35.5409C89.2868 33.9571 89.5062 32.513 89.9451 31.2087C90.384 29.8911 91.0224 28.7531 91.8603 27.7949C92.6983 26.8366 93.7157 26.0979 94.9127 25.5789C96.123 25.0465 97.4863 24.787 99.0025 24.8003C100.426 24.8003 101.689 25.0265 102.793 25.4791C103.91 25.9316 104.855 26.5837 105.626 27.4355C106.397 28.274 106.983 29.2988 107.382 30.51C107.794 31.7078 108 33.052 108 34.5427V35.5173C108 36.6219 107.105 37.5173 106 37.5173H93.3578C92.3765 37.5173 91.581 36.7218 91.581 35.7405C91.581 34.7592 92.3765 33.9637 93.3578 33.9637H102.214C102.534 33.9637 102.793 33.7045 102.793 33.3848C102.793 32.533 102.66 31.7744 102.394 31.1089C102.128 30.4434 101.716 29.9177 101.157 29.5317C100.612 29.1458 99.8936 28.9528 99.0025 28.9528C98.1912 28.9528 97.4929 29.1192 96.9077 29.4519C96.3225 29.7846 95.8437 30.2504 95.4713 30.8494C95.0989 31.4483 94.8196 32.147 94.6334 32.9456C94.4605 33.7441 94.3741 34.6092 94.3741 35.5409V36.7786C94.3741 37.6704 94.4805 38.4955 94.6933 39.2542C94.9061 39.9995 95.2386 40.6583 95.6908 41.2306C96.143 41.8029 96.7282 42.2488 97.4464 42.5682C98.1646 42.8876 99.0224 43.0473 100.02 43.0473C101.456 43.0473 102.62 42.8676 103.511 42.5083C103.681 42.4384 103.848 42.3678 104.011 42.2966C105.09 41.8277 106.387 42.2703 106.849 43.3517C107.208 44.1926 106.944 45.1701 106.139 45.6048C105.995 45.6825 105.844 45.7617 105.686 45.8423C104.941 46.2149 104.043 46.5343 102.993 46.8005C101.955 47.0667 100.805 47.1998 99.5411 47.1998Z" fill="white"/>
<defs>
<radialGradient id="paint0_radial_1463_164" cx="0" cy="0" r="1" gradientUnits="userSpaceOnUse" gradientTransform="translate(93.5 41.9995) rotate(8.76933) scale(564.094 175.294)">
<stop offset="0.144537" stop-color="#0894FF"/>
<stop offset="0.472624" stop-color="#6E53FF"/>
<stop offset="0.719121" stop-color="#B038EA"/>
<stop offset="0.879706" stop-color="#F95088"/>
<stop offset="1" stop-color="#FF6F62"/>
</radialGradient>
<radialGradient id="paint1_radial_1463_164" cx="0" cy="0" r="1" gradientUnits="userSpaceOnUse" gradientTransform="translate(109.5 14) rotate(132.112) scale(71.6042)">
<stop stop-color="#0894FF"/>
<stop offset="0.290475" stop-color="#6E53FF"/>
<stop offset="0.609151" stop-color="#B038EA"/>
<stop offset="0.850793" stop-color="#F95088"/>
<stop offset="1" stop-color="#FF6F62"/>
</radialGradient>
</defs>
</svg>
