<svg width="92" height="206" viewBox="0 0 92 206" fill="none" xmlns="http://www.w3.org/2000/svg">
<g clip-path="url(#clip0_348_269)">
<path d="M32 206C16.9151 206 9.37258 206 4.68629 201.314C-4.09689e-07 196.627 -7.39381e-07 189.085 -1.39876e-06 174L-9.00455e-06 0L92 -4.02145e-06L92 174C92 189.085 92 196.627 87.3137 201.314C82.6274 206 75.0849 206 60 206L32 206Z" fill="white"/>
<path d="M60 176.089L32 179.769L32 174.529L56.32 171.809L56.32 171.089L32 167.569L32 158.449L56.32 154.929L56.32 154.209L32 151.489L32 146.249L60 149.929L60 159.049L35.12 162.649L35.12 163.369L60 166.969L60 176.089ZM60 142.391L32 142.391L32 124.391L36.8 124.391L36.8 137.111L43.48 137.111L43.48 125.511L48.28 125.511L48.28 137.111L55.2 137.111L55.2 124.151L60 124.151L60 142.391ZM60 121.043L55.36 121.043L55.36 117.363L36.64 117.363L36.64 121.043L32 121.043L32 106.643C32 104.936 32.2933 103.456 32.88 102.203C33.44 100.923 34.2533 99.9361 35.32 99.2428C36.36 98.5228 37.6133 98.1628 39.08 98.1628L39.48 98.1628C40.76 98.1628 41.8133 98.4028 42.64 98.8828C43.44 99.3628 44.0667 99.9361 44.52 100.603C44.9467 101.243 45.2533 101.856 45.44 102.443L46.16 102.443C46.32 101.856 46.6267 101.216 47.08 100.523C47.5067 99.8295 48.1333 99.2428 48.96 98.7628C49.7867 98.2561 50.8667 98.0028 52.2 98.0028L52.6 98.0028C54.1467 98.0028 55.48 98.3628 56.6 99.0828C57.6933 99.8028 58.5333 100.803 59.12 102.083C59.7067 103.336 60 104.803 60 106.483L60 121.043ZM55.2 112.083L55.2 107.123C55.2 105.976 54.92 105.056 54.36 104.363C53.8 103.643 53 103.283 51.96 103.283L51.56 103.283C50.52 103.283 49.72 103.629 49.16 104.323C48.6 105.016 48.32 105.949 48.32 107.123L48.32 112.083L55.2 112.083ZM43.52 112.083L43.52 107.203C43.52 106.109 43.24 105.216 42.68 104.523C42.12 103.803 41.3467 103.443 40.36 103.443L39.96 103.443C38.9467 103.443 38.1733 103.789 37.64 104.483C37.08 105.176 36.8 106.083 36.8 107.203L36.8 112.083L43.52 112.083ZM60 84.4841L56.64 84.4841C54.6933 84.4841 53.08 84.1641 51.8 83.5241C50.4933 82.8841 49.4267 81.9641 48.6 80.7641C47.7467 79.5374 47.0533 78.0441 46.52 76.2841L45.68 73.6041C45.36 72.6174 44.9733 71.7907 44.52 71.1241C44.04 70.4574 43.4667 69.9507 42.8 69.6041C42.1333 69.2307 41.3733 69.0441 40.52 69.0441L40.36 69.0441C39.0267 69.0441 37.9733 69.4974 37.2 70.4041C36.4 71.3107 36 72.5507 36 74.1241C36 75.6707 36.4267 76.9241 37.28 77.8841C38.1067 78.8174 39.3067 79.2841 40.88 79.2841L41.6 79.2841L41.6 84.4041L40.96 84.4041C38.9333 84.4041 37.2133 83.9507 35.8 83.0441C34.3867 82.1374 33.3067 80.9107 32.56 79.3641C31.8133 77.7907 31.44 76.0441 31.44 74.1241C31.44 72.2041 31.8133 70.4707 32.56 68.9241C33.28 67.3774 34.3067 66.1641 35.64 65.2841C36.9467 64.3774 38.4933 63.9241 40.28 63.9241L40.68 63.9241C42.4667 63.9241 43.9867 64.2974 45.24 65.0441C46.4667 65.7641 47.48 66.7507 48.28 68.0041C49.0533 69.2574 49.6933 70.6841 50.2 72.2841L51 74.8441C51.3467 75.9907 51.7333 76.8841 52.16 77.5241C52.56 78.1641 53.0133 78.6174 53.52 78.8841C54 79.1241 54.5867 79.2441 55.28 79.2441L55.44 79.2441L55.44 64.1641L60 64.1641L60 84.4841ZM60.56 56.4541C60.56 57.5207 60.2133 58.4274 59.52 59.1741C58.8 59.8941 57.88 60.2541 56.76 60.2541C55.64 60.2541 54.7333 59.8941 54.04 59.1741C53.32 58.4274 52.96 57.5207 52.96 56.4541C52.96 55.3607 53.32 54.4541 54.04 53.7341C54.7333 53.0141 55.64 52.6541 56.76 52.6541C57.88 52.6541 58.8 53.0141 59.52 53.7341C60.2133 54.4541 60.56 55.3607 60.56 56.4541ZM60.56 38.0087C60.56 41.3154 59.6533 43.9687 57.84 45.9687C56 47.9687 53.2267 48.9687 49.52 48.9687L42.48 48.9687C38.88 48.9687 36.1467 47.9687 34.28 45.9687C32.3867 43.9687 31.44 41.3154 31.44 38.0087C31.44 34.6754 32.3867 32.0221 34.28 30.0487C36.1467 28.0487 38.88 27.0487 42.48 27.0487L49.52 27.0487C53.2267 27.0487 56 28.0487 57.84 30.0487C59.6533 32.0221 60.56 34.6754 60.56 38.0087ZM56 38.0087C56 36.0087 55.4533 34.5421 54.36 33.6087C53.2667 32.6487 51.7067 32.1687 49.68 32.1687L42.24 32.1687C40.1867 32.1687 38.64 32.7021 37.6 33.7687C36.5333 34.8087 36 36.2221 36 38.0087C36 39.8487 36.5467 41.2887 37.64 42.3287C38.7333 43.3421 40.2667 43.8487 42.24 43.8487L49.68 43.8487C51.7867 43.8487 53.3733 43.3687 54.44 42.4087C55.48 41.4221 56 39.9554 56 38.0087Z" fill="black"/>
</g>
<defs>
<clipPath id="clip0_348_269">
<path d="M32 206C16.9151 206 9.37258 206 4.68629 201.314C-4.09689e-07 196.627 -7.39381e-07 189.085 -1.39876e-06 174L-9.00455e-06 0L92 -4.02145e-06L92 174C92 189.085 92 196.627 87.3137 201.314C82.6274 206 75.0849 206 60 206L32 206Z" fill="white"/>
</clipPath>
</defs>
</svg>
