<svg width="1280" height="260" viewBox="0 0 1280 260" fill="none" xmlns="http://www.w3.org/2000/svg">
<path d="M1280 188.73H1253.17V172.9H1246.18V166.13H1236.85V172.34H1229.85V146.35H1222.27V75.1701H1210.61V87.0301H1200.7V79.1201H1189.62V87.0301H1177.66V131.94L1174.46 135.05V187.59H1166.88V70.0801H1156.38V29.4001H1149.97V33.3601H1141.8V23.1901H1138.89V35.0501H1127.23V92.6801H1121.4V188.16H1107.4V135.62H1099.82V87.0301H1065.42V159.91H1050.85V179.12H1043.27V187.02H1040.4V184.86H1032.77V175.73H1027.52V167.82H1016.44V161.6H993.7V146.91H988.64V124.05H963.4V148.61H960.46V177.99H934.81V161.04H921.4V167.82H909.16V163.3H907.74V128.44H892.86V163.3H877.33V142.23H868.34V140.7H859.21V119.03H830.44V96.6401H826.36V79.1201H818.77V74.0401H814.11V80.2501H791.37V130.32H784.79V144.6H781.46V116.98H770.38V101.72H753.47V111.25L744.67 102.73L738.45 110.76H735.98V101.15H729.56V79.6901H724.9V102.85H721.4V111.89H719.07V132.82H709.72V140.98H702.16V129.97H695.16V100.02H686.42V94.3701H677.67V87.6001H673V93.8101H667.76V74.0401H659.01V93.2501H649.68V116.98H644.44V143.48H622.36V133.45H608.13V144.65H605.95V137.31H601.66V53.8201H568.65V142.96H558.72V125.45H557.65V102.73L548.59 90.1901V74.5101H545.36V89.5601L537.59 103.35V125.45H531.9V137.84H527.24V129.69H502.65V157.27H490.36V137.21H483.88V130.32H469V137.84H462.52V131.57H456.7V139.09H450.88V145.37H423.05V171.07H410.76V156.02H405.58V133.45H379.7V145.99H371.93V133.45H349.93V171.07H327.27V158.53H322.1V137.84H314.34V121.54H261.93V152.26H246.39V116.52H235.39V106.8H195.27V130.94H186.86V106.8H139.62V130.94H131.21V142.23H119.56V134.08H108.55V125.3H90.43V133.45H83.48V107.9L79.44 103.99V88.9301H61.32V104.61H55.49V148.5H47.73V142.23H27.02V154.77H17.31V100.85H11.48V63.2301H6.31V34.3801H2.42999V19.3401H-2.11V0.530121H-7.92999V19.9601H-11.81V38.1401H-15.69V61.9701H-20.87V98.9701H-28.63V146.93H-40.28V120.28H-45.46V88.9301H-51.28V80.7801H-65.52V88.9301H-71.35V124.67H-84.28V140.98H-96.58V124.67H-118.58V139.09H-154.17V156.02H-160V257.92L1280 260V188.73Z" fill="#8066CC"/>
</svg>
