<svg width="375" height="276" viewBox="0 0 375 276" fill="none" xmlns="http://www.w3.org/2000/svg">
<g clip-path="url(#clip0_2644_32817)">
<mask id="mask0_2644_32817" style="mask-type:luminance" maskUnits="userSpaceOnUse" x="0" y="0" width="375" height="276">
<path d="M375 0H0V276H375V0Z" fill="white"/>
</mask>
<g mask="url(#mask0_2644_32817)">
<path d="M-232 227.5H-243V276H860V211H831H800.5L766 194H647.5V211H631.5L568 200.5H548.5V187H526.5L466 135H457.5L451.5 137H412V96H398.5V94H408L410.5 91.5L408 89H398.5L397 26L395 89H385.5L383 91.5L385.5 94H395V96H381.5V176.5L376 171V128.5H350.5V121H341.5V139H335V181.5H323L232.5 173.5H222V186.5H216V196H208.5V178.5H187.5V176.5H169.5V196H163V207.5H158V219.5H154.5V201.5L150.5 197.5L146.5 201.5V215.5H142.5L110 176.5H68.5V194H66.5V210L62.5 214L24 190.5L19 195.5V201.5H15.5V143H-1V207.5L-10 198.5V147.5H-15V143H-28V113H-39.5V174H-50.5V122.5H-65V201.5H-68V197H-74V190.5H-74.5V186H-79.5V182H-83L-100 179.5H-105L-119.5 174H-128V184H-130L-132.5 186.5V189L-135 191.5V215H-139V140L-140.5 138.5V130L-143.5 127V108.5L-148 104V98.5L-149 97.5V93L-150.5 91.5V85H-152V79L-153 78V74L-154 73V70L-155.5 67L-156 42L-156.5 67H-157.5V72L-160 77V81.5L-163 84.5V90.5H-164.5V96.5L-166 98V103L-167 104V109.5H-168V128H-170.5V132.5H-174V211.5H-177.5V207.5H-181.5L-211 217.5H-221V225L-222 226V202H-232V227.5Z" fill="#5933CC"/>
<path d="M65 276.5V88H62V67.5H59.5V59H56V55H53V50.5L50 51V48.5H48.5V23.5C48.5 23.5 47.8773 21.7257 47 21C46.0484 20.2129 44 20 44 20L43.5 9L43 20C43 20 40.2225 19.9521 39 21C38.1355 21.741 37.5 23.5 37.5 23.5V48.5H36V51L33 50.5V55H30V59H26.5V67.5H24V88H22V94V276.5H65Z" fill="#886ED7"/>
<path d="M226 276.5V166.642V162H240.135H245V159.5H268V153V144.5H299.5V156.423H324V166.642V207.519V276.5H226Z" fill="#8F6AFF"/>
<path d="M143 276.5V166.642V162H134.49H131.561V159.5H117.714V153V144.5H98.75V156.423H84V166.642V207.519V276.5H143Z" fill="#8E73DF"/>
<path d="M29.5 69H26.5V74H29.5V69Z" fill="#FBE3C1"/>
<path d="M34.5 69H31.5V74H34.5V69Z" fill="#FBE3C1"/>
<path d="M39.5 69H36.5V74H39.5V69Z" fill="#FBE3C1"/>
<path d="M44.5 69H41.5V74H44.5V69Z" fill="#FBE3C1"/>
<path d="M49.5 69H46.5V74H49.5V69Z" fill="#FBE3C1"/>
<path d="M54.5 69H51.5V74H54.5V69Z" fill="#FBE3C1"/>
<path d="M59.5 69H56.5V74H59.5V69Z" fill="#FBE3C1"/>
<path d="M29.5 76H26.5V81H29.5V76Z" fill="#FBE3C1"/>
<path d="M34.5 76H31.5V81H34.5V76Z" fill="#FBE3C1"/>
<path d="M39.5 76H36.5V81H39.5V76Z" fill="#FBE3C1"/>
<path d="M44.5 76H41.5V81H44.5V76Z" fill="#FBE3C1"/>
<path d="M49.5 76H46.5V81H49.5V76Z" fill="#FBE3C1"/>
<path d="M54.5 76H51.5V81H54.5V76Z" fill="#FBE3C1"/>
<path d="M59.5 76H56.5V81H59.5V76Z" fill="#FBE3C1"/>
<path d="M29.5 83H26.5V88H29.5V83Z" fill="#FBE3C1"/>
<path d="M34.5 83H31.5V88H34.5V83Z" fill="#FBE3C1"/>
<path d="M39.5 83H36.5V88H39.5V83Z" fill="#FBE3C1"/>
<path d="M44.5 83H41.5V88H44.5V83Z" fill="#FBE3C1"/>
<path d="M49.5 83H46.5V88H49.5V83Z" fill="#FBE3C1"/>
<path d="M54.5 83H51.5V88H54.5V83Z" fill="#FBE3C1"/>
<path d="M59.5 83H56.5V88H59.5V83Z" fill="#FBE3C1"/>
<path d="M27.5 90H24.5V95H27.5V90Z" fill="#FBE3C1"/>
<path d="M32.5 90H29.5V95H32.5V90Z" fill="#FBE3C1"/>
<path d="M37.5 90H34.5V95H37.5V90Z" fill="#FBE3C1"/>
<path d="M42.5 90H39.5V95H42.5V90Z" fill="#FBE3C1"/>
<path d="M47.5 90H44.5V95H47.5V90Z" fill="#FBE3C1"/>
<path d="M52.5 90H49.5V95H52.5V90Z" fill="#FBE3C1"/>
<path d="M57.5 90H54.5V95H57.5V90Z" fill="#7558CF"/>
<path d="M62.5 90H59.5V95H62.5V90Z" fill="#FBE3C1"/>
<path d="M27.5 97H24.5V102H27.5V97Z" fill="#FBE3C1"/>
<path d="M32.5 97H29.5V102H32.5V97Z" fill="#FBE3C1"/>
<path d="M37.5 97H34.5V102H37.5V97Z" fill="#FBE3C1"/>
<path d="M42.5 97H39.5V102H42.5V97Z" fill="#FBE3C1"/>
<path d="M47.5 97H44.5V102H47.5V97Z" fill="#FBE3C1"/>
<path d="M52.5 97H49.5V102H52.5V97Z" fill="#FBE3C1"/>
<path d="M57.5 97H54.5V102H57.5V97Z" fill="#FBE3C1"/>
<path d="M62.5 97H59.5V102H62.5V97Z" fill="#FBE3C1"/>
<path d="M27.5 104H24.5V109H27.5V104Z" fill="#FBE3C1"/>
<path d="M32.5 104H29.5V109H32.5V104Z" fill="#FBE3C1"/>
<path d="M37.5 104H34.5V109H37.5V104Z" fill="#7558CF"/>
<path d="M42.5 104H39.5V109H42.5V104Z" fill="#FBE3C1"/>
<path d="M47.5 104H44.5V109H47.5V104Z" fill="#FBE3C1"/>
<path d="M52.5 104H49.5V109H52.5V104Z" fill="#FBE3C1"/>
<path d="M57.5 104H54.5V109H57.5V104Z" fill="#FBE3C1"/>
<path d="M62.5 104H59.5V109H62.5V104Z" fill="#FBE3C1"/>
<path d="M27.5 111H24.5V116H27.5V111Z" fill="#FBE3C1"/>
<path d="M32.5 111H29.5V116H32.5V111Z" fill="#FBE3C1"/>
<path d="M37.5 111H34.5V116H37.5V111Z" fill="#FBE3C1"/>
<path d="M42.5 111H39.5V116H42.5V111Z" fill="#FBE3C1"/>
<path d="M47.5 111H44.5V116H47.5V111Z" fill="#FBE3C1"/>
<path d="M52.5 111H49.5V116H52.5V111Z" fill="#FBE3C1"/>
<path d="M57.5 111H54.5V116H57.5V111Z" fill="#FBE3C1"/>
<path d="M62.5 111H59.5V116H62.5V111Z" fill="#FBE3C1"/>
<path d="M27.5 118H24.5V123H27.5V118Z" fill="#FBE3C1"/>
<path d="M32.5 118H29.5V123H32.5V118Z" fill="#FBE3C1"/>
<path d="M37.5 118H34.5V123H37.5V118Z" fill="#FBE3C1"/>
<path d="M42.5 118H39.5V123H42.5V118Z" fill="#FBE3C1"/>
<path d="M47.5 118H44.5V123H47.5V118Z" fill="#FBE3C1"/>
<path d="M52.5 118H49.5V123H52.5V118Z" fill="#FBE3C1"/>
<path d="M57.5 118H54.5V123H57.5V118Z" fill="#7558CF"/>
<path d="M62.5 118H59.5V123H62.5V118Z" fill="#FBE3C1"/>
<path d="M27.5 125H24.5V130H27.5V125Z" fill="#FBE3C1"/>
<path d="M32.5 125H29.5V130H32.5V125Z" fill="#FBE3C1"/>
<path d="M37.5 125H34.5V130H37.5V125Z" fill="#7558CF"/>
<path d="M42.5 125H39.5V130H42.5V125Z" fill="#FBE3C1"/>
<path d="M47.5 125H44.5V130H47.5V125Z" fill="#FBE3C1"/>
<path d="M52.5 125H49.5V130H52.5V125Z" fill="#FBE3C1"/>
<path d="M57.5 125H54.5V130H57.5V125Z" fill="#FBE3C1"/>
<path d="M62.5 125H59.5V130H62.5V125Z" fill="#FBE3C1"/>
<path d="M27.5 132H24.5V137H27.5V132Z" fill="#FBE3C1"/>
<path d="M32.5 132H29.5V137H32.5V132Z" fill="#7558CF"/>
<path d="M37.5 132H34.5V137H37.5V132Z" fill="#FBE3C1"/>
<path d="M42.5 132H39.5V137H42.5V132Z" fill="#FBE3C1"/>
<path d="M47.5 132H44.5V137H47.5V132Z" fill="#FBE3C1"/>
<path d="M52.5 132H49.5V137H52.5V132Z" fill="#FBE3C1"/>
<path d="M57.5 132H54.5V137H57.5V132Z" fill="#FBE3C1"/>
<path d="M62.5 132H59.5V137H62.5V132Z" fill="#FBE3C1"/>
<path d="M27.5 139H24.5V144H27.5V139Z" fill="#FBE3C1"/>
<path d="M32.5 139H29.5V144H32.5V139Z" fill="#FBE3C1"/>
<path d="M37.5 139H34.5V144H37.5V139Z" fill="#FBE3C1"/>
<path d="M42.5 139H39.5V144H42.5V139Z" fill="#FBE3C1"/>
<path d="M47.5 139H44.5V144H47.5V139Z" fill="#FBE3C1"/>
<path d="M52.5 139H49.5V144H52.5V139Z" fill="#FBE3C1"/>
<path d="M57.5 139H54.5V144H57.5V139Z" fill="#FBE3C1"/>
<path d="M62.5 139H59.5V144H62.5V139Z" fill="#FBE3C1"/>
<path d="M27.5 146H24.5V151H27.5V146Z" fill="#FBE3C1"/>
<path d="M32.5 146H29.5V151H32.5V146Z" fill="#FBE3C1"/>
<path d="M37.5 146H34.5V151H37.5V146Z" fill="#FBE3C1"/>
<path d="M42.5 146H39.5V151H42.5V146Z" fill="#FBE3C1"/>
<path d="M47.5 146H44.5V151H47.5V146Z" fill="#FBE3C1"/>
<path d="M52.5 146H49.5V151H52.5V146Z" fill="#7558CF"/>
<path d="M57.5 146H54.5V151H57.5V146Z" fill="#FBE3C1"/>
<path d="M62.5 146H59.5V151H62.5V146Z" fill="#FBE3C1"/>
<path d="M27.5 153H24.5V158H27.5V153Z" fill="#FBE3C1"/>
<path d="M32.5 153H29.5V158H32.5V153Z" fill="#FBE3C1"/>
<path d="M37.5 153H34.5V158H37.5V153Z" fill="#FBE3C1"/>
<path d="M42.5 153H39.5V158H42.5V153Z" fill="#FBE3C1"/>
<path d="M47.5 153H44.5V158H47.5V153Z" fill="#FBE3C1"/>
<path d="M52.5 153H49.5V158H52.5V153Z" fill="#FBE3C1"/>
<path d="M57.5 153H54.5V158H57.5V153Z" fill="#7558CF"/>
<path d="M62.5 153H59.5V158H62.5V153Z" fill="#FBE3C1"/>
<path d="M27.5 160H24.5V165H27.5V160Z" fill="#FBE3C1"/>
<path d="M32.5 160H29.5V165H32.5V160Z" fill="#FBE3C1"/>
<path d="M37.5 160H34.5V165H37.5V160Z" fill="#FBE3C1"/>
<path d="M42.5 160H39.5V165H42.5V160Z" fill="#FBE3C1"/>
<path d="M47.5 160H44.5V165H47.5V160Z" fill="#FBE3C1"/>
<path d="M52.5 160H49.5V165H52.5V160Z" fill="#FBE3C1"/>
<path d="M57.5 160H54.5V165H57.5V160Z" fill="#FBE3C1"/>
<path d="M62.5 160H59.5V165H62.5V160Z" fill="#FBE3C1"/>
<path d="M27.5 167H24.5V172H27.5V167Z" fill="#FBE3C1"/>
<path d="M32.5 167H29.5V172H32.5V167Z" fill="#FBE3C1"/>
<path d="M37.5 167H34.5V172H37.5V167Z" fill="#7558CF"/>
<path d="M42.5 167H39.5V172H42.5V167Z" fill="#FBE3C1"/>
<path d="M47.5 167H44.5V172H47.5V167Z" fill="#7558CF"/>
<path d="M52.5 167H49.5V172H52.5V167Z" fill="#FBE3C1"/>
<path d="M57.5 167H54.5V172H57.5V167Z" fill="#FBE3C1"/>
<path d="M62.5 167H59.5V172H62.5V167Z" fill="#FBE3C1"/>
<path d="M27.5 174H24.5V179H27.5V174Z" fill="#FBE3C1"/>
<path d="M32.5 174H29.5V179H32.5V174Z" fill="#FBE3C1"/>
<path d="M37.5 174H34.5V179H37.5V174Z" fill="#FBE3C1"/>
<path d="M42.5 174H39.5V179H42.5V174Z" fill="#FBE3C1"/>
<path d="M47.5 174H44.5V179H47.5V174Z" fill="#FBE3C1"/>
<path d="M52.5 174H49.5V179H52.5V174Z" fill="#FBE3C1"/>
<path d="M57.5 174H54.5V179H57.5V174Z" fill="#FBE3C1"/>
<path d="M62.5 174H59.5V179H62.5V174Z" fill="#FBE3C1"/>
<path d="M27.5 181H24.5V186H27.5V181Z" fill="#7558CF"/>
<path d="M32.5 181H29.5V186H32.5V181Z" fill="#FBE3C1"/>
<path d="M37.5 181H34.5V186H37.5V181Z" fill="#FBE3C1"/>
<path d="M42.5 181H39.5V186H42.5V181Z" fill="#FBE3C1"/>
<path d="M47.5 181H44.5V186H47.5V181Z" fill="#7558CF"/>
<path d="M52.5 181H49.5V186H52.5V181Z" fill="#FBE3C1"/>
<path d="M57.5 181H54.5V186H57.5V181Z" fill="#FBE3C1"/>
<path d="M62.5 181H59.5V186H62.5V181Z" fill="#FBE3C1"/>
<path d="M27.5 188H24.5V193H27.5V188Z" fill="#7558CF"/>
<path d="M32.5 188H29.5V193H32.5V188Z" fill="#FBE3C1"/>
<path d="M37.5 188H34.5V193H37.5V188Z" fill="#FBE3C1"/>
<path d="M42.5 188H39.5V193H42.5V188Z" fill="#FBE3C1"/>
<path d="M47.5 188H44.5V193H47.5V188Z" fill="#FBE3C1"/>
<path d="M52.5 188H49.5V193H52.5V188Z" fill="#FBE3C1"/>
<path d="M57.5 188H54.5V193H57.5V188Z" fill="#FBE3C1"/>
<path d="M62.5 188H59.5V193H62.5V188Z" fill="#FBE3C1"/>
<path d="M27.5 195H24.5V200H27.5V195Z" fill="#FBE3C1"/>
<path d="M32.5 195H29.5V200H32.5V195Z" fill="#FBE3C1"/>
<path d="M37.5 195H34.5V200H37.5V195Z" fill="#FBE3C1"/>
<path d="M42.5 195H39.5V200H42.5V195Z" fill="#FBE3C1"/>
<path d="M47.5 195H44.5V200H47.5V195Z" fill="#FBE3C1"/>
<path d="M52.5 195H49.5V200H52.5V195Z" fill="#7558CF"/>
<path d="M57.5 195H54.5V200H57.5V195Z" fill="#FBE3C1"/>
<path d="M62.5 195H59.5V200H62.5V195Z" fill="#FBE3C1"/>
<path d="M27.5 202H24.5V207H27.5V202Z" fill="#FBE3C1"/>
<path d="M32.5 202H29.5V207H32.5V202Z" fill="#FBE3C1"/>
<path d="M37.5 202H34.5V207H37.5V202Z" fill="#FBE3C1"/>
<path d="M42.5 202H39.5V207H42.5V202Z" fill="#7558CF"/>
<path d="M47.5 202H44.5V207H47.5V202Z" fill="#FBE3C1"/>
<path d="M52.5 202H49.5V207H52.5V202Z" fill="#FBE3C1"/>
<path d="M57.5 202H54.5V207H57.5V202Z" fill="#FBE3C1"/>
<path d="M62.5 202H59.5V207H62.5V202Z" fill="#7558CF"/>
<path d="M27.5 209H24.5V214H27.5V209Z" fill="#FBE3C1"/>
<path d="M32.5 209H29.5V214H32.5V209Z" fill="#FBE3C1"/>
<path d="M37.5 209H34.5V214H37.5V209Z" fill="#FBE3C1"/>
<path d="M42.5 209H39.5V214H42.5V209Z" fill="#FBE3C1"/>
<path d="M47.5 209H44.5V214H47.5V209Z" fill="#FBE3C1"/>
<path d="M52.5 209H49.5V214H52.5V209Z" fill="#FBE3C1"/>
<path d="M57.5 209H54.5V214H57.5V209Z" fill="#7558CF"/>
<path d="M62.5 209H59.5V214H62.5V209Z" fill="#FBE3C1"/>
<path d="M27.5 216H24.5V221H27.5V216Z" fill="#7558CF"/>
<path d="M32.5 216H29.5V221H32.5V216Z" fill="#FBE3C1"/>
<path d="M37.5 216H34.5V221H37.5V216Z" fill="#7558CF"/>
<path d="M42.5 216H39.5V221H42.5V216Z" fill="#FBE3C1"/>
<path d="M47.5 216H44.5V221H47.5V216Z" fill="#FBE3C1"/>
<path d="M52.5 216H49.5V221H52.5V216Z" fill="#FBE3C1"/>
<path d="M57.5 216H54.5V221H57.5V216Z" fill="#FBE3C1"/>
<path d="M62.5 216H59.5V221H62.5V216Z" fill="#FBE3C1"/>
<path d="M27.5 223H24.5V228H27.5V223Z" fill="#FBE3C1"/>
<path d="M32.5 223H29.5V228H32.5V223Z" fill="#FBE3C1"/>
<path d="M37.5 223H34.5V228H37.5V223Z" fill="#FBE3C1"/>
<path d="M42.5 223H39.5V228H42.5V223Z" fill="#FBE3C1"/>
<path d="M47.5 223H44.5V228H47.5V223Z" fill="#FBE3C1"/>
<path d="M52.5 223H49.5V228H52.5V223Z" fill="#7558CF"/>
<path d="M57.5 223H54.5V228H57.5V223Z" fill="#FBE3C1"/>
<path d="M62.5 223H59.5V228H62.5V223Z" fill="#FBE3C1"/>
<path d="M27.5 230H24.5V235H27.5V230Z" fill="#FBE3C1"/>
<path d="M32.5 230H29.5V235H32.5V230Z" fill="#FBE3C1"/>
<path d="M37.5 230H34.5V235H37.5V230Z" fill="#FBE3C1"/>
<path d="M42.5 230H39.5V235H42.5V230Z" fill="#FBE3C1"/>
<path d="M47.5 230H44.5V235H47.5V230Z" fill="#FBE3C1"/>
<path d="M52.5 230H49.5V235H52.5V230Z" fill="#FBE3C1"/>
<path d="M57.5 230H54.5V235H57.5V230Z" fill="#FBE3C1"/>
<path d="M62.5 230H59.5V235H62.5V230Z" fill="#7558CF"/>
<path d="M27.5 237H24.5V242H27.5V237Z" fill="#FBE3C1"/>
<path d="M32.5 237H29.5V242H32.5V237Z" fill="#FBE3C1"/>
<path d="M37.5 237H34.5V242H37.5V237Z" fill="#FBE3C1"/>
<path d="M42.5 237H39.5V242H42.5V237Z" fill="#FBE3C1"/>
<path d="M47.5 237H44.5V242H47.5V237Z" fill="#7558CF"/>
<path d="M52.5 237H49.5V242H52.5V237Z" fill="#FBE3C1"/>
<path d="M57.5 237H54.5V242H57.5V237Z" fill="#FBE3C1"/>
<path d="M62.5 237H59.5V242H62.5V237Z" fill="#FBE3C1"/>
<path d="M27.5 244H24.5V249H27.5V244Z" fill="#FBE3C1"/>
<path d="M32.5 244H29.5V249H32.5V244Z" fill="#FBE3C1"/>
<path d="M37.5 244H34.5V249H37.5V244Z" fill="#FBE3C1"/>
<path d="M42.5 244H39.5V249H42.5V244Z" fill="#FBE3C1"/>
<path d="M47.5 244H44.5V249H47.5V244Z" fill="#FBE3C1"/>
<path d="M52.5 244H49.5V249H52.5V244Z" fill="#FBE3C1"/>
<path d="M57.5 244H54.5V249H57.5V244Z" fill="#FBE3C1"/>
<path d="M62.5 244H59.5V249H62.5V244Z" fill="#FBE3C1"/>
<path d="M27.5 251H24.5V256H27.5V251Z" fill="#FBE3C1"/>
<path d="M32.5 251H29.5V256H32.5V251Z" fill="#FBE3C1"/>
<path d="M37.5 251H34.5V256H37.5V251Z" fill="#FBE3C1"/>
<path d="M42.5 251H39.5V256H42.5V251Z" fill="#FBE3C1"/>
<path d="M47.5 251H44.5V256H47.5V251Z" fill="#FBE3C1"/>
<path d="M52.5 251H49.5V256H52.5V251Z" fill="#FBE3C1"/>
<path d="M57.5 251H54.5V256H57.5V251Z" fill="#FBE3C1"/>
<path d="M62.5 251H59.5V256H62.5V251Z" fill="#FBE3C1"/>
<path d="M27.5 258H24.5V263H27.5V258Z" fill="#FBE3C1"/>
<path d="M32.5 258H29.5V263H32.5V258Z" fill="#FBE3C1"/>
<path d="M37.5 258H34.5V263H37.5V258Z" fill="#FBE3C1"/>
<path d="M42.5 258H39.5V263H42.5V258Z" fill="#FBE3C1"/>
<path d="M47.5 258H44.5V263H47.5V258Z" fill="#FBE3C1"/>
<path d="M52.5 258H49.5V263H52.5V258Z" fill="#FBE3C1"/>
<path d="M57.5 258H54.5V263H57.5V258Z" fill="#FBE3C1"/>
<path d="M62.5 258H59.5V263H62.5V258Z" fill="#FBE3C1"/>
<path d="M236.263 165H229V176.842H236.263V165Z" fill="#FBE3C1"/>
<path d="M248.368 165H241.105V176.842H248.368V165Z" fill="#FBE3C1"/>
<path d="M260.474 165H253.211V176.842H260.474V165Z" fill="#FBE3C1"/>
<path d="M272.579 165H265.316V176.842H272.579V165Z" fill="#7852E9"/>
<path d="M284.683 165H277.42V176.842H284.683V165Z" fill="#FBE3C1"/>
<path d="M296.79 165H289.527V176.842H296.79V165Z" fill="#FBE3C1"/>
<path d="M308.894 165H301.631V176.842H308.894V165Z" fill="#7852E9"/>
<path d="M320.999 165H313.736V176.842H320.999V165Z" fill="#7852E9"/>
<path d="M236.263 181.579H229V193.421H236.263V181.579Z" fill="#FBE3C1"/>
<path d="M248.368 181.579H241.105V193.421H248.368V181.579Z" fill="#7852E9"/>
<path d="M260.474 181.579H253.211V193.421H260.474V181.579Z" fill="#FBE3C1"/>
<path d="M272.579 181.579H265.316V193.421H272.579V181.579Z" fill="#FBE3C1"/>
<path d="M284.683 181.579H277.42V193.421H284.683V181.579Z" fill="#7852E9"/>
<path d="M296.79 181.579H289.527V193.421H296.79V181.579Z" fill="#FBE3C1"/>
<path d="M308.894 181.579H301.631V193.421H308.894V181.579Z" fill="#7852E9"/>
<path d="M320.999 181.579H313.736V193.421H320.999V181.579Z" fill="#7852E9"/>
<path d="M236.263 198.158H229V210H236.263V198.158Z" fill="#7852E9"/>
<path d="M248.368 198.158H241.105V210H248.368V198.158Z" fill="#7852E9"/>
<path d="M260.474 198.158H253.211V210H260.474V198.158Z" fill="#FBE3C1"/>
<path d="M272.579 198.158H265.316V210H272.579V198.158Z" fill="#7852E9"/>
<path d="M284.683 198.158H277.42V210H284.683V198.158Z" fill="#7852E9"/>
<path d="M296.79 198.158H289.527V210H296.79V198.158Z" fill="#7852E9"/>
<path d="M308.894 198.158H301.631V210H308.894V198.158Z" fill="#FBE3C1"/>
<path d="M320.999 198.158H313.736V210H320.999V198.158Z" fill="#7852E9"/>
<path d="M236.263 214.737H229V226.579H236.263V214.737Z" fill="#FBE3C1"/>
<path d="M248.368 214.737H241.105V226.579H248.368V214.737Z" fill="#7852E9"/>
<path d="M260.474 214.737H253.211V226.579H260.474V214.737Z" fill="#7852E9"/>
<path d="M272.579 214.737H265.316V226.579H272.579V214.737Z" fill="#FBE3C1"/>
<path d="M284.683 214.737H277.42V226.579H284.683V214.737Z" fill="#FBE3C1"/>
<path d="M296.79 214.737H289.527V226.579H296.79V214.737Z" fill="#7852E9"/>
<path d="M308.894 214.737H301.631V226.579H308.894V214.737Z" fill="#7852E9"/>
<path d="M320.999 214.737H313.736V226.579H320.999V214.737Z" fill="#FBE3C1"/>
<path d="M236.263 231.315H229V243.157H236.263V231.315Z" fill="#7852E9"/>
<path d="M248.368 231.315H241.105V243.157H248.368V231.315Z" fill="#FBE3C1"/>
<path d="M260.474 231.315H253.211V243.157H260.474V231.315Z" fill="#FBE3C1"/>
<path d="M272.579 231.315H265.316V243.157H272.579V231.315Z" fill="#7852E9"/>
<path d="M284.683 231.315H277.42V243.157H284.683V231.315Z" fill="#FBE3C1"/>
<path d="M296.79 231.315H289.527V243.157H296.79V231.315Z" fill="#7852E9"/>
<path d="M308.894 231.315H301.631V243.157H308.894V231.315Z" fill="#FBE3C1"/>
<path d="M320.999 231.315H313.736V243.157H320.999V231.315Z" fill="#FBE3C1"/>
<path d="M236.263 247.895H229V259.737H236.263V247.895Z" fill="#FBE3C1"/>
<path d="M248.368 247.895H241.105V259.737H248.368V247.895Z" fill="#7852E9"/>
<path d="M260.474 247.895H253.211V259.737H260.474V247.895Z" fill="#FBE3C1"/>
<path d="M272.579 247.895H265.316V259.737H272.579V247.895Z" fill="#FBE3C1"/>
<path d="M284.683 247.895H277.42V259.737H284.683V247.895Z" fill="#FBE3C1"/>
<path d="M296.79 247.895H289.527V259.737H296.79V247.895Z" fill="#FBE3C1"/>
<path d="M308.894 247.895H301.631V259.737H308.894V247.895Z" fill="#FBE3C1"/>
<path d="M320.999 247.895H313.736V259.737H320.999V247.895Z" fill="#7852E9"/>
<path d="M236.263 264.474H229V276.316H236.263V264.474Z" fill="#FBE3C1"/>
<path d="M248.368 264.474H241.105V276.316H248.368V264.474Z" fill="#FBE3C1"/>
<path d="M260.474 264.474H253.211V276.316H260.474V264.474Z" fill="#FBE3C1"/>
<path d="M272.579 264.474H265.316V276.316H272.579V264.474Z" fill="#FBE3C1"/>
<path d="M284.683 264.474H277.42V276.316H284.683V264.474Z" fill="#FBE3C1"/>
<path d="M296.79 264.474H289.527V276.316H296.79V264.474Z" fill="#FBE3C1"/>
<path d="M308.894 264.474H301.631V276.316H308.894V264.474Z" fill="#FBE3C1"/>
<path d="M320.999 264.474H313.736V276.316H320.999V264.474Z" fill="#FBE3C1"/>
<path d="M93.625 156H92.625V169H93.625V156Z" fill="#5933CC"/>
<path d="M121.625 159H120.625V168H121.625V159Z" fill="#5933CC"/>
<path d="M121.75 168H92.5C91.6716 168 91 168.672 91 169.5V238.5C91 239.328 91.6716 240 92.5 240H121.75C122.578 240 123.25 239.328 123.25 238.5V169.5C123.25 168.672 122.578 168 121.75 168Z" fill="#5933CC"/>
<path d="M121.75 169.5H92.5V238.5H121.75V169.5Z" fill="#B7A2F7"/>
<path d="M110.419 231.488V230.279L104.573 232.266V233.498L110.419 235.5V234.365L109.165 233.957V231.888L110.419 231.488ZM105.925 232.912L108.18 232.2V233.638L105.925 232.912Z" fill="#5933CC"/>
<path d="M110.419 227.739C110.419 226.085 109.165 225.025 107.463 225.025C105.762 225.025 104.573 226.048 104.573 227.739V229.63H110.419V227.739ZM105.64 228.503V227.798C105.64 226.738 106.299 226.182 107.463 226.182C108.676 226.182 109.352 226.738 109.352 227.798V228.503H105.64Z" fill="#5933CC"/>
<path d="M104.573 219.948V221.075L108.978 222.455L104.573 223.805V225.021L110.419 223.108V221.876L104.573 219.948Z" fill="#5933CC"/>
<path d="M109.344 215.756V218.211H107.944V216.031H106.877V218.211H105.648V215.808H104.573V219.339H110.419V215.756H109.344Z" fill="#5933CC"/>
<path d="M110.419 213.757H108.351V213.053L110.419 211.851V210.509L108.163 211.881C107.887 211.124 107.26 210.679 106.47 210.679C105.257 210.679 104.573 211.458 104.573 212.8V214.884H110.419V213.757ZM105.599 213.757V212.852C105.599 212.17 105.892 211.807 106.47 211.807C107.04 211.807 107.333 212.17 107.333 212.852V213.757H105.599Z" fill="#5933CC"/>
<path d="M110.419 207.514H105.689V205.83H104.573V210.317H105.689V208.641H110.419V207.514Z" fill="#5933CC"/>
<path d="M110.419 204.03H104.573V205.158H110.419V204.03Z" fill="#5933CC"/>
<path d="M108.603 198.855C107.74 198.855 107.268 199.359 107.064 200.294L106.861 201.206C106.78 201.592 106.609 201.925 106.21 201.925C105.803 201.925 105.461 201.614 105.461 201.065C105.461 200.501 105.876 200.116 106.486 200.079V198.937C105.265 199.011 104.5 199.886 104.5 201.08C104.5 202.229 105.249 203.068 106.291 203.068C107.26 203.068 107.74 202.445 107.911 201.636L108.098 200.761C108.196 200.309 108.416 200.049 108.782 200.049C109.254 200.049 109.531 200.457 109.531 201.028C109.531 201.718 109.116 202.096 108.473 202.126V203.268C109.71 203.186 110.5 202.348 110.5 201.006C110.5 199.671 109.718 198.855 108.603 198.855Z" fill="#5933CC"/>
<path d="M109.344 194.442V196.896H107.944V194.716H106.877V196.896H105.648V194.494H104.573V198.024H110.419V194.442H109.344Z" fill="#5933CC"/>
<path d="M110.419 191.152V190.21L106.503 188.801H110.419V187.777H104.573V189.127L108.904 190.677L104.573 192.22V193.57H110.419V192.546H106.535L110.419 191.152Z" fill="#5933CC"/>
<path d="M109.344 183.107V185.562H107.944V183.382H106.877V185.562H105.648V183.159H104.573V186.689H110.419V183.107H109.344Z" fill="#5933CC"/>
<path d="M110.419 178.764V177.659H104.573V178.697H108.448L104.573 181.019V182.235H110.419V181.204H106.34L110.419 178.764Z" fill="#5933CC"/>
<path d="M110.419 174.184H105.689V172.5H104.573V176.987H105.689V175.311H110.419V174.184Z" fill="#5933CC"/>
<path d="M-290 245H-199.5V255H-33V265.5H193H257V245H317.5V259.5H434.5V234H505.5V268.5H608V260.5H718.5L779.5 273V245H873V273H941.5V254.5H995V270H1105V260.5H1150V276.5H-290V245Z" fill="#5933CC"/>
</g>
</g>
<defs>
<clipPath id="clip0_2644_32817">
<rect width="375" height="276" fill="white"/>
</clipPath>
</defs>
</svg>
