<svg width="1280" height="252" viewBox="0 0 1280 252" fill="none" xmlns="http://www.w3.org/2000/svg">
<path d="M663 111.16V119.25H645V93.49H640.8V70.73H636V60.55H623.42V70.73H619.83V91.1H614.44V108.47H593.44V75.52H588.65V66.52H584.46V56.73H578.46V33H573.67V56.75H569.47V64.14H565.28V74.91H558.69V107.91H542.56V119.29H533.56V89.91H513.21V64.14H507.21V56.75H493.44V63.54H489.25V69.54H484.46V111.97H477.27V102.49H465.89V64.74H438.34V91.1H427.55V66.54H409.55V104.91H400V68.34H383.23V75.52H378.43V89.3H373V104.3H363.42V62.34H346.09V56.75H340.09V69.53H335.9V98.91H328.71V80.91H307.15V72.53H291.58V83.31H276.58V126.12H274.3V118.77H266V81.91H249.47V73.44H245.33V81.91H235.54V119.19H230.83V138.01H224.24V142.16H217.32V102.39H213.89V79.39H209V77.13H204.86V70.13H195.64V74.64H189.42V71.64H175.29V76.35H172.65V79.74H169.08V101.39H162.3V138.67H158.3V81.68H153.22V77.16H132.55V82.06H126.9V113.91H112.41V121.44H109.77V79.23H106.19V74.71H87.55V79.23H84.35V83.75H79.46V81.91H55.73V67.41H51.21V58.56H46.51V55.56H41.42V51.42H34.83V55.91H30.31V59.48H27.12V67.91H22V76.75H15.44V82.75H13V88.96H7.91V40.07H-22.4V63.61H-36.34V79.61H-38.41V88.46H-43.3V84.31H-45.56V76.97H-64.77V87.33H-67V92.79H-73.43V89.02H-80V251.91L663.34 251.45V111.91L663 111.16Z" fill="#9583CC"/>
<path d="M617 111.16V119.25H635V93.49H639.2V70.73H644V60.55H656.58V70.73H660.17V91.1H665.56V108.47H686.56V75.52H691.35V66.52H695.54V56.73H701.54V33H706.33V56.75H710.53V64.14H714.72V74.91H721.31V107.91H737.48V119.29H746.48V89.91H766.84V64.14H772.84V56.75H786.62V63.54H790.81V69.54H795.6V111.97H802.79V102.49H814.17V64.74H841.72V91.1H852.51V66.54H870.51V104.91H880V68.34H896.77V75.52H901.57V89.3H907V104.3H916.58V62.34H933.95V56.75H939.95V69.53H944.14V98.91H951.33V80.91H972.9V72.53H988.47V83.31H1003.47V126.12H1005.75V118.77H1014V81.91H1030.57V73.44H1034.71V81.91H1044.5V119.19H1049.21V138.01H1055.8V142.16H1062.72V102.39H1066.15V79.39H1071.05V77.13H1075.19V70.13H1084.41V74.64H1090.63V71.64H1104.75V76.35H1107.39V79.74H1110.96V101.39H1117.74V138.67H1121.74V81.68H1126.82V77.16H1147.53V82.06H1153.18V113.91H1167.67V121.44H1170.31V79.23H1173.89V74.71H1192.53V79.23H1195.73V83.75H1200.62V81.91H1224.35V67.41H1228.87V58.56H1233.57V55.56H1238.66V51.42H1245.25V55.91H1249.77V59.48H1252.96V67.91H1258V76.75H1264.59V82.75H1267V88.96H1272.08V40.07H1302.39V63.61H1316.33V79.61H1318.4V88.46H1323.29V84.31H1325.55V76.97H1344.76V87.33H1347V92.79H1353.41V89.02H1360V251.91L616.66 252V111.91L617 111.16Z" fill="#9583CC"/>
<path d="M821.371 30H823.519V78H821.371V30Z" fill="#9583CC"/>
<path d="M860.578 30H862.727V78H860.578V30Z" fill="#9583CC"/>
<path d="M816 34.0089C816 32.9639 816.962 32.1168 818.148 32.1168H865.949C867.136 32.1168 868.098 32.9639 868.098 34.0089V58.133C868.098 59.178 867.136 60.0251 865.949 60.0251H818.148C816.962 60.0251 816 59.178 816 58.133V34.0089Z" fill="#9583CC"/>
</svg>
