<svg width="375" height="276" viewBox="0 0 375 276" fill="none" xmlns="http://www.w3.org/2000/svg">
<g clip-path="url(#clip0_2644_33121)">
<mask id="mask0_2644_33121" style="mask-type:luminance" maskUnits="userSpaceOnUse" x="0" y="0" width="375" height="276">
<path d="M375 0H0V276H375V0Z" fill="white"/>
</mask>
<g mask="url(#mask0_2644_33121)">
<path d="M1031 204.581H1004.17V188.718H997.18V181.934H987.85V188.157H980.85V162.114H973.27V90.7885H961.61V102.673H951.7V94.7466H940.62V102.673H928.66V147.675L925.46 150.791V203.438H917.88V85.6881H907.38V44.9251H900.97V48.8931H892.8V38.7024H889.89V50.5866H878.23V108.334H872.4V204.009H858.4V151.362H850.82V102.673H816.42V175.702H801.85V194.951H794.27V202.867H791.4V200.703H783.77V191.554H778.52V183.628H767.44V177.395H744.7V162.675H739.64V139.768H714.4V164.379H711.46V193.819H685.81V176.834H672.4V183.628H660.16V179.099H658.74V144.167H643.86V179.099H628.33V157.986H619.34V156.452H610.21V134.738H581.44V112.302H577.36V94.7466H569.77V89.6563H565.11V95.8789H542.37V146.051H535.79V160.36H532.46V132.684H521.38V117.393H504.47V126.942L495.67 118.405L489.45 126.451H486.98V116.822H480.56V95.3178H475.9V118.525H472.4V127.584H470.07V148.556H460.72V156.733H453.16V145.701H446.16V115.689H437.42V110.028H428.67V103.244H424V109.467H418.76V89.6563H410.01V108.905H400.68V132.684H395.44V159.238H373.36V149.188H359.13V160.41H356.95V153.055H352.66V69.395H319.65V158.717H309.72V141.171H308.65V118.405L299.59 105.839V90.1272H296.36V105.208L288.59 119.026V141.171H282.9V153.587H278.24V145.42H253.65V173.056H241.36V152.955H234.88V146.051H220V153.587H213.52V147.304H207.7V154.839H201.88V161.132H174.05V186.884H161.76V171.804H156.58V149.188H130.7V161.753H122.93V149.188H100.93V186.884H78.27V174.319H73.1V153.587H65.34V137.253H12.93V168.036H-2.60999V132.223H-13.61V122.483H-53.73V146.672H-62.14V122.483H-109.38V146.672H-117.79V157.986H-129.44V149.819H-140.45V141.021H-158.57V149.188H-165.52V123.585L-169.56 119.667V104.577H-187.68V120.289H-193.51V164.268H-201.27V157.986H-221.98V170.551H-231.69V116.521H-237.52V78.8242H-242.69V49.9152H-246.57V34.8445H-251.11V15.9961H-256.93V35.4658H-260.81V53.6829H-264.69V77.5616H-269.87V114.637H-277.63V162.695H-289.28V135.991H-294.46V104.577H-300.28V96.41H-314.52V104.577H-320.35V140.39H-333.28V156.733H-345.58V140.39H-367.58V154.839H-403.17V171.804H-409V275.996H1031V204.581Z" fill="#8066CC"/>
<path d="M199.471 2.60229C201.892 2.56343 204.313 2.79807 206.681 3.30121C208.094 3.57609 209.239 3.88053 210.03 4.10857L225.183 12.0004L229.633 14.6138C230.098 15.2883 230.412 16.0445 230.555 16.8352C230.742 17.7725 230.658 18.7374 230.31 19.6279C230.029 20.3198 229.588 20.9426 229.019 21.4515L225.968 21.1846L225.813 22.9638C225.778 23.3621 225.577 23.7293 225.253 23.9847C224.93 24.2402 224.511 24.3629 224.088 24.3259L216.004 23.6186C215.581 23.5816 215.19 23.388 214.916 23.0803C214.642 22.7726 214.507 22.376 214.542 21.9778L214.712 20.0334L197.484 18.5261L197.287 20.7783C197.252 21.1765 197.051 21.5437 196.727 21.7991C196.404 22.0546 195.985 22.1773 195.562 22.1403L187.207 21.4093C186.784 21.3724 186.393 21.1787 186.119 20.871C185.845 20.5633 185.71 20.1667 185.745 19.7685L186.05 16.2852L173.867 12.6095C172.867 12.3216 172.018 11.6842 171.494 10.8285C171.135 10.1616 171.2 9.33512 171.328 7.68964C171.455 6.23324 171.52 5.49003 172.009 4.9503C172.546 4.4312 173.267 4.11531 174.037 4.06111L199.471 2.60229Z" fill="#7F66CC"/>
<path d="M229.722 14.8064C229.661 14.7135 229.577 14.6373 229.482 14.58L225.18 12.0084L210.068 4.12055C210.022 4.09605 209.972 4.07625 209.921 4.0616C209.141 3.83683 208.017 3.54243 206.649 3.27636C204.281 2.77322 201.86 2.53857 199.439 2.57743L190.71 3.12704C190.108 3.16493 189.766 3.82826 190.109 4.32423C191.277 6.01227 192.663 7.55992 194.236 8.93046C195.946 10.4827 197.911 11.7636 200.052 12.7224C202.742 13.9033 204.386 13.9185 211.62 14.4455C216.391 14.7951 220.195 15.4419 228.339 16.1336C228.383 16.1374 228.428 16.1375 228.472 16.1339L229.27 16.069C229.798 16.0261 230.138 15.4878 229.866 15.0332C229.82 14.9566 229.772 14.881 229.722 14.8064Z" fill="#9583CC"/>
<path d="M171.426 6.64746C171.403 6.90263 171.379 7.18781 171.35 7.51052C185.935 8.69071 193.234 9.20575 193.247 9.05565C193.26 8.90555 185.986 8.10283 171.426 6.64746Z" fill="#9583CC"/>
</g>
</g>
<defs>
<clipPath id="clip0_2644_33121">
<rect width="375" height="276" fill="white"/>
</clipPath>
</defs>
</svg>
