<svg width="1" height="2" viewBox="0 0 33 58" fill="none" xmlns="http://www.w3.org/2000/svg">
<path d="M1.44971 56.3C0.699707 55.55 0.324707 54.662 0.324707 53.636C0.324707 52.612 0.699707 51.725 1.44971 50.975L23.4247 29L1.37471 6.95C0.674707 6.25 0.324707 5.375 0.324707 4.325C0.324707 3.275 0.699707 2.375 1.44971 1.625C2.19971 0.875 3.08771 0.5 4.11371 0.5C5.13771 0.5 6.02471 0.875 6.77471 1.625L31.9747 26.9C32.2747 27.2 32.4877 27.525 32.6137 27.875C32.7377 28.225 32.7997 28.6 32.7997 29C32.7997 29.4 32.7377 29.775 32.6137 30.125C32.4877 30.475 32.2747 30.8 31.9747 31.1L6.69971 56.375C5.99971 57.075 5.13771 57.425 4.11371 57.425C3.08771 57.425 2.19971 57.05 1.44971 56.3Z" fill="white"/>
</svg>
