<svg width="494" height="343" viewBox="0 0 494 343" fill="none" xmlns="http://www.w3.org/2000/svg">
<g clip-path="url(#clip0_2417_20154)">
<path d="M248.641 268.24C156.338 273.858 79.1281 239.264 76.1891 190.974C73.25 142.683 145.694 98.9813 237.998 93.3636C330.302 87.7458 407.511 122.339 410.451 170.63C413.39 218.921 340.945 262.622 248.641 268.24Z" stroke="#3F00F9" stroke-width="1.14" stroke-miterlimit="10"/>
<path d="M253.662 292.79C142.19 299.575 48.8328 255.908 45.1415 195.258C41.4502 134.608 128.823 79.9411 240.294 73.1567C351.766 66.3724 445.123 110.039 448.815 170.689C452.506 231.34 365.133 286.006 253.662 292.79Z" stroke="#3F00F9" stroke-width="1.07" stroke-miterlimit="10"/>
<path d="M256.539 327.399C126.066 335.34 16.4131 277.975 11.6231 199.271C6.83297 120.567 108.719 50.3277 239.193 42.3868C369.666 34.4459 479.319 91.8109 484.109 170.515C488.899 249.219 387.012 319.459 256.539 327.399Z" stroke="#3F00F9" stroke-miterlimit="10"/>
<path d="M95.5365 189.931L95.5363 189.931C91.8628 185.73 88.4017 180.215 86.3842 174.354C84.366 168.491 83.8062 162.325 85.8664 156.785L85.8666 156.785C87.045 153.604 89.1666 151.763 91.4797 150.043C91.7975 149.806 92.1203 149.572 92.4451 149.335C94.4625 147.868 96.5587 146.343 98.059 144.014C98.9369 142.652 99.5166 141.088 99.9906 139.487C100.228 138.685 100.441 137.866 100.65 137.055L100.682 136.931C100.882 136.159 101.079 135.394 101.296 134.643C102.212 131.47 103.435 128.693 106.315 127.15C108.337 126.07 110.599 126.062 112.929 126.634C115.264 127.207 117.618 128.35 119.783 129.508L120.018 129.067L119.783 129.508C167.987 155.273 217.072 179.158 267.038 201.162M95.5365 189.931L240.081 242.493C241.482 243.16 243.088 243.786 244.742 244.431C248.104 245.742 251.665 247.129 254.108 249.103L254.422 248.713C254.422 248.713 254.422 248.713 254.422 248.714C255.878 249.888 256.625 251.928 257.18 253.969C257.364 254.645 257.532 255.345 257.697 256.029C257.783 256.386 257.868 256.739 257.953 257.082C258.206 258.096 258.468 259.04 258.794 259.85L258.794 259.85C261.891 267.557 266.932 274.331 273.424 279.512C277.592 282.79 282.408 285.382 287.607 286.044L287.608 286.045C290.15 286.373 292.732 286.176 295.194 285.466L295.198 285.465C297.756 284.749 300.076 283.363 301.921 281.452C302.402 280.936 302.868 280.369 303.348 279.785L303.475 279.63C303.996 278.996 304.536 278.347 305.111 277.761C306.259 276.59 307.605 275.609 309.354 275.475L309.367 275.474L309.379 275.474C310.338 275.447 311.295 275.57 312.216 275.837C312.731 275.96 313.241 276.082 313.748 276.204C321.854 278.148 329.019 279.867 337.409 279.198C346.315 278.456 355.104 276.686 363.603 273.923L363.604 273.922C380.97 268.334 397.01 259.12 411.785 248.361C418.741 243.288 425.637 237.52 428.481 229.538C430.155 224.771 430.3 219.583 429.926 214.423L429.926 214.423L429.926 214.418C429.855 213.257 429.786 212.128 429.63 211.008L429.628 211L429.627 210.991C428.575 200.826 426.742 190.758 424.147 180.874C422.847 175.937 421.357 171.051 419.677 166.217C419.488 165.674 419.119 164.882 418.665 163.929C418.606 163.806 418.546 163.68 418.484 163.552C418.08 162.705 417.631 161.767 417.22 160.825C416.757 159.767 416.333 158.687 416.063 157.705C407.502 183.413 383.718 202.437 357.596 209.772L357.596 209.772C342.432 214.027 326.503 214.773 310.917 213.148L310.915 213.148C295.743 211.522 280.93 207.475 267.038 201.162M95.5365 189.931C101.779 197.08 111.411 201.769 120.635 200.004C126.324 198.914 131.309 195.522 135.462 191.475L135.463 191.473C135.537 191.402 135.647 191.273 135.805 191.085L135.813 191.076C135.96 190.902 136.135 190.693 136.319 190.497C136.504 190.3 136.713 190.096 136.93 189.942C137.122 189.806 137.402 189.649 137.72 189.664C138.041 189.659 138.255 189.833 138.37 189.944C138.421 189.994 138.486 190.066 138.508 190.089C138.525 190.107 138.537 190.118 138.546 190.127C138.551 190.131 138.554 190.134 138.556 190.136C138.887 190.342 139.231 190.528 139.585 190.691L139.601 190.699L139.616 190.707L141.914 191.968L141.917 191.97L146.533 194.462L146.534 194.462L155.79 199.437C155.79 199.437 155.791 199.438 155.792 199.438C162.001 202.726 168.209 205.987 174.415 209.221L95.5365 189.931ZM267.038 201.162C267.039 201.162 267.04 201.162 267.041 201.163L267.242 200.705L267.035 201.16C267.036 201.161 267.037 201.161 267.038 201.162ZM287.544 286.54C282.223 285.862 277.323 283.215 273.114 279.905C266.553 274.67 261.46 267.825 258.33 260.036L287.544 286.54ZM287.544 286.54C290.154 286.878 292.805 286.676 295.333 285.946L287.544 286.54Z" fill="url(#paint0_linear_2417_20154)" stroke="#3F00F9"/>
<path d="M420.259 194.999C420.259 194.999 412.175 191.063 408.404 201.862L370.65 225.99C370.65 225.99 344.757 231.994 343.567 240.592C343.597 240.59 395.848 236.048 420.259 194.999Z" fill="#602CCC"/>
<path d="M336.913 242.7C336.913 242.7 331.351 246.626 335.086 252.029C335.086 252.029 323.608 248.289 323.8 254.248C323.8 254.248 313.661 241.731 313.264 238.008C313.264 238.008 330.219 244.821 336.913 242.7Z" fill="#602CCC"/>
<path d="M102.671 121.076L155.556 199.879L138.278 190.561L137.713 190.165L136.919 190.624L133.953 193.569L129.624 196.838L123.444 199.669L118.056 200.848L113.895 200.801C113.895 200.801 108.124 199.8 104.89 197.863C102.232 196.163 99.6743 194.312 97.2291 192.318L90.9374 184.416L89.0122 181.096L88.206 179.372L87.3322 177.362L86.4627 175.09L85.4974 172.564L83.0023 164.491C83.0023 164.491 77.9019 164.31 73.4137 157.891C68.9254 151.472 68.9479 145.75 68.9479 145.75L68.5545 141.426L68.4793 100.355C68.4793 100.355 68.7035 94.8208 69.9896 92.2479C70.034 92.155 68.8942 107.172 102.671 121.076Z" fill="url(#paint1_linear_2417_20154)"/>
<path d="M87.4145 164.72C87.4054 161.807 88.1237 159.096 90.7753 157.054C92.2155 155.865 93.9604 154.993 95.8598 154.513C97.7593 154.033 99.7564 153.959 101.68 154.298C104.885 154.827 107.977 155.758 110.859 157.064C113.657 158.456 116.258 159.384 118.562 161.308C120.458 162.964 122.249 164.709 123.927 166.535C128.879 171.887 130.333 180.229 129.09 187.099C128.766 189.469 127.674 191.722 125.942 193.593C124.792 194.66 123.409 195.517 121.876 196.111C120.343 196.705 118.693 197.024 117.025 197.049C113.697 197.086 110.418 196.448 107.449 195.184C103.546 193.635 100.031 191.45 97.0888 188.746C91.0095 183.188 88.2886 175.453 87.626 167.849C87.5447 166.859 87.4799 165.794 87.4145 164.72Z" fill="url(#paint2_radial_2417_20154)"/>
<path d="M102.672 121.076L155.557 199.879L254.098 249.083C254.098 249.083 255.042 241.722 258.523 239.497L197.145 209.941C183.711 202.89 172.626 192.076 165.245 178.821L140.33 140.143L102.672 121.076Z" fill="#8954F6"/>
<path d="M295.291 285.919C297.936 285.178 300.336 283.746 302.242 281.769C304.396 279.464 306.21 276.187 309.351 275.946C310.263 275.921 311.172 276.038 312.048 276.293C320.78 278.376 328.396 280.387 337.409 279.668C346.353 278.923 355.181 277.145 363.716 274.371C381.148 268.761 397.236 259.517 412.038 248.738C418.993 243.666 426.011 237.819 428.912 229.677C430.619 224.815 430.759 219.546 430.384 214.36C430.135 215.216 423.554 237.297 391.027 252.321C391.027 252.321 362.143 272.563 330.563 267.592L302.782 261.839C308.135 282.292 295.468 285.698 295.468 285.698" fill="#602CCC"/>
<path d="M420.719 167.821C420.719 167.821 422.586 176.614 414.692 186.982" stroke="white" stroke-miterlimit="10"/>
<path d="M425.458 184.624C425.458 184.624 420.487 218.178 361.22 238.626C361.22 238.626 326.829 248.053 313.003 233.716C313.003 233.716 304.192 226.238 318.42 227.586C332.648 228.934 349.056 226.583 349.056 226.583" stroke="white" stroke-miterlimit="10"/>
<path d="M428.503 198.765C428.503 198.765 423.014 209.328 422.742 217.53C422.47 225.731 412.541 234.781 412.541 234.781C412.541 234.781 383.355 255.483 379.798 256.47C376.242 257.458 356.941 267.58 349.188 262.171C341.435 256.762 332.369 251.342 332.369 251.342C332.369 251.342 318.794 248.712 326.115 258.375C326.115 258.375 339.922 269.096 347.006 268.124C354.09 267.152 409.935 255.177 430.325 214.383L428.503 198.765Z" fill="#A4CAFF"/>
<path d="M342.95 109.968L391.817 133.944C396.65 136.325 401.535 138.722 405.775 142.041C410.014 145.36 413.617 149.739 415.104 154.918C417.347 162.796 414.36 171.344 409.309 177.732C404.258 184.121 397.326 188.741 390.537 193.241C380.695 199.761 370.795 206.315 360.076 211.275C348.878 216.323 336.782 219.079 324.503 219.381C313.124 219.743 299.531 218.957 289.122 214.181C284.135 211.92 279.195 209.596 274.297 207.149C225.158 182.648 176.26 158.334 127.293 133.533L91.828 115.594C86.5552 112.91 81.1925 110.231 76.942 106.071C72.6915 101.912 69.6568 96.1653 70.2602 90.2778C70.794 85.0557 74.0263 80.551 77.1552 76.3232" fill="url(#paint3_linear_2417_20154)"/>
<path d="M309.212 80.0628C317.744 88.5602 326.97 96.2939 336.157 104.03C342.493 109.365 348.394 116.45 348.959 125.071C349.436 132.897 345.357 140.449 339.707 145.892C333.271 152.084 324.943 155.486 317.979 160.91C310.539 166.708 302.379 171.518 293.704 175.221C277.533 182.116 255.403 187.079 238.01 181.956C228.461 179.141 219.002 173.846 209.89 169.812C200.562 165.671 191.288 161.444 182.069 157.129C164.671 149.024 147.424 140.606 130.329 131.876C121.685 127.466 113.087 122.98 104.534 118.418C96.8509 114.327 88.9156 111.353 82.5227 105.08C77.4296 100.08 73.0665 92.2611 74.4109 84.8858C75.7554 77.5105 81.5457 70.4256 86.7388 65.3808C92.6105 59.6335 99.484 55.0375 106.32 50.4838" fill="url(#paint4_linear_2417_20154)"/>
<path d="M298.087 71.2824C302.032 73.2263 306.416 75.4541 308.738 79.3702C311.484 83.992 311.163 89.5818 308.99 94.3826C307.227 98.3271 304.325 101.68 301.383 104.864C299.074 107.447 296.559 109.838 293.864 112.014C291.196 114.11 288.237 115.693 285.542 117.68C279.402 122.219 272.663 125.886 265.517 128.577C249.033 134.77 226.511 137.222 210.331 129L174.148 110.624C162.703 104.799 151.192 99.6987 139.61 94.2622C130.68 90.077 121.703 85.8044 112.986 81.1754C106.225 77.5795 100.847 69.3711 101.599 61.4808C102.476 52.3507 110.606 45.8548 118.263 40.8003C129.965 33.0751 142.288 25.9934 155.703 21.8909C162.086 19.907 168.692 18.7308 175.367 18.3898C178.172 18.2556 180.982 18.302 183.781 18.529C185.17 18.6348 186.563 18.8005 187.948 19.0067C189.171 19.1827 190.365 19.2203 191.599 19.4156C193.014 19.7438 194.369 20.29 195.615 21.0347L200.425 23.3568L209.968 28.0457L229.062 37.413L248.156 46.7804L267.254 56.1976L286.346 65.525L298.087 71.2824Z" fill="#7941EC"/>
<path d="M299.223 276.953C298.812 278.312 298.064 279.525 297.057 280.463C296.05 281.402 294.823 282.031 293.503 282.285C289.504 283.196 285.32 282.557 281.701 280.482C278.718 278.85 275.913 276.868 273.338 274.574C270.955 272.295 268.675 270.511 266.91 267.959C265.538 265.845 264.277 263.652 263.134 261.39C259.803 254.871 260.913 247.111 264.272 241.696C265.471 239.647 267.29 238.097 269.432 237.301C272.331 236.251 276.076 236.573 279.449 237.731C282.735 238.942 285.804 240.747 288.522 243.066C291.804 245.718 294.649 248.934 296.939 252.582C298.882 255.756 300.162 259.335 300.693 263.074C301.224 266.813 300.992 270.623 300.015 274.246C299.817 275.072 299.58 276.019 299.223 276.953Z" fill="url(#paint5_radial_2417_20154)"/>
<path d="M149.372 98.7575L208.496 183.943L320.769 238.854" stroke="white" stroke-miterlimit="10"/>
<path d="M114.101 81.5484C110.27 79.6654 107.052 76.7347 104.82 73.0966C102.512 69.5652 101.474 65.3528 101.879 61.1532C102.122 59.094 102.733 57.0952 103.684 55.2527C104.637 53.4273 105.816 51.7297 107.194 50.2001C109.956 47.193 113.074 44.5338 116.48 42.2814C123.049 37.7762 129.873 33.6546 136.918 29.937C143.672 26.3801 150.773 23.5241 158.109 21.4139C165.093 19.4178 172.325 18.4211 179.589 18.4535C183.066 18.5723 186.535 18.8695 189.982 19.3438C190.823 19.392 191.657 19.5259 192.471 19.7433C193.269 19.9993 194.041 20.3314 194.776 20.7351L199.279 22.9557L232.448 39.2207L280.464 62.7171L293.525 69.0855L296.932 70.7316C297.696 71.1058 298.097 71.2818 298.097 71.2818L296.95 70.7004L293.561 69.0231L280.526 62.5831L232.563 38.9732L199.383 22.6889L194.88 20.4683C194.128 20.0614 193.343 19.7204 192.533 19.449C191.695 19.2312 190.838 19.0954 189.974 19.0437C186.52 18.5651 183.044 18.2617 179.559 18.1347C172.261 18.0721 164.99 19.0476 157.966 21.0319C150.604 23.1377 143.479 25.9987 136.705 29.5692C129.646 33.2888 122.809 37.4147 116.228 41.926C112.794 44.2044 109.651 46.892 106.867 49.9295C105.471 51.4876 104.274 53.2128 103.302 55.0655C102.335 56.9484 101.71 58.9877 101.455 61.0889C101.049 65.3741 102.105 69.6705 104.451 73.2794C106.725 76.9784 109.997 79.9603 113.891 81.8818C129.193 89.8469 144.569 96.7255 159.222 103.568C162.894 105.298 166.525 107.021 170.099 108.787L180.665 114.155L201.094 124.543C204.431 126.213 207.691 127.929 210.964 129.513C214.223 131.071 217.658 132.234 221.193 132.978C227.933 134.38 234.846 134.763 241.7 134.114C248.082 133.542 254.387 132.302 260.51 130.414C268.826 127.888 276.688 124.058 283.804 119.068C284.91 118.31 285.951 117.485 287.03 116.768C288.108 116.051 289.197 115.344 290.267 114.648C294.3 112.039 297.952 108.883 301.117 105.271C304.074 102.315 306.595 98.9535 308.605 95.2878C310.256 92.1555 310.963 88.6114 310.639 85.0854C310.35 82.2682 309.198 79.609 307.34 77.4717C305.944 75.9622 304.325 74.6755 302.54 73.6563C301.106 72.8118 299.959 72.2504 299.204 71.8556L298.038 71.2954L299.186 71.8868C299.941 72.2816 301.068 72.8542 302.491 73.6893C304.264 74.7157 305.87 76.0065 307.253 77.5171C309.087 79.6411 310.217 82.2815 310.488 85.0745C310.808 88.5815 310.1 92.1056 308.45 95.217C306.431 98.857 303.909 102.194 300.959 105.13C297.797 108.721 294.154 111.859 290.135 114.455C289.075 115.151 287.975 115.829 286.897 116.566C285.82 117.303 284.757 118.109 283.651 118.867C281.399 120.443 279.066 121.903 276.664 123.24C271.514 126.116 266.069 128.429 260.423 130.139C254.298 132.019 247.993 133.252 241.612 133.819C234.79 134.453 227.911 134.065 221.204 132.666C217.707 131.92 214.31 130.762 211.086 129.215C207.823 127.63 204.553 125.915 201.225 124.235L180.884 113.801L170.318 108.433C166.743 106.647 163.092 104.935 159.44 103.204C144.756 96.3335 129.312 89.499 114.101 81.5484Z" fill="#3F00F9"/>
<path d="M216.166 172.516C202.35 166.084 188.742 160.109 175.756 153.997C162.771 147.884 150.318 141.8 138.536 135.864C135.594 134.38 132.689 132.907 129.821 131.446L121.389 127.05L105.259 118.654C100.08 115.874 94.8737 113.616 90.2237 110.793C87.9409 109.424 85.7863 107.852 83.7864 106.095C81.8862 104.402 80.1956 102.486 78.7505 100.391C77.3555 98.4045 76.2361 96.2382 75.4232 93.951C74.633 91.7888 74.2523 89.4983 74.3008 87.1967C74.4784 82.7077 76.4223 78.7623 78.5043 75.4397C80.5078 72.3573 82.8167 69.4846 85.3961 66.8652C87.5481 64.6389 89.8367 62.5489 92.2487 60.6073C96.584 57.1075 100.193 54.6837 102.606 53.0141L105.368 51.1428L106.33 50.4932C106.33 50.4932 105.028 51.3238 102.583 52.9554C100.137 54.5869 96.5374 57.0001 92.1715 60.4918C89.749 62.426 87.4499 64.51 85.2878 66.7315C82.697 69.3522 80.3748 72.2254 78.3561 75.3084C76.2641 78.6317 74.2796 82.5695 74.0688 87.1708C74.013 89.502 74.3921 91.8232 75.1867 94.0155C76.0075 96.3252 77.1348 98.5143 78.5383 100.524C79.9912 102.638 81.693 104.569 83.6071 106.277C85.6195 108.043 87.7846 109.628 90.0768 111.012C94.7486 113.864 99.966 116.131 105.124 118.903L121.245 127.319L129.656 131.696L138.375 136.175C150.157 142.11 162.6 148.195 175.546 154.33C188.493 160.465 202.16 166.426 215.956 172.849C222.827 176.118 229.585 179.504 236.676 181.767C243.708 183.88 251.068 184.682 258.39 184.132C265.438 183.655 272.415 182.435 279.207 180.491C282.537 179.567 285.798 178.507 288.961 177.303C292.124 176.098 295.212 174.818 298.19 173.375C304.009 170.581 309.571 167.279 314.811 163.507C316.078 162.598 317.312 161.641 318.537 160.705C319.763 159.769 321.014 158.922 322.275 158.083C324.809 156.426 327.382 154.917 329.873 153.373C332.349 151.879 334.732 150.235 337.007 148.451C339.2 146.72 341.188 144.744 342.93 142.56C346.32 138.5 348.455 133.542 349.075 128.29C349.436 123.492 348.26 118.704 345.718 114.619C343.468 111.014 340.676 107.778 337.44 105.024C331.387 99.8923 326.142 95.5229 321.96 91.8301C317.778 88.1374 314.544 85.2084 312.417 83.1939L310.012 80.8757C309.469 80.3477 309.183 80.0846 309.183 80.0846C309.183 80.0846 313.462 84.5529 321.826 91.9385C326.002 95.6917 331.236 100.042 337.269 105.185C340.471 107.944 343.229 111.178 345.447 114.776C347.951 118.821 349.106 123.557 348.745 128.3C348.128 133.491 346.018 138.391 342.67 142.405C340.936 144.566 338.961 146.521 336.784 148.234C334.514 150.003 332.141 151.636 329.678 153.124C327.186 154.659 324.613 156.168 322.069 157.825C320.798 158.664 319.527 159.523 318.303 160.469C317.078 161.415 315.852 162.341 314.585 163.25C309.373 167.004 303.84 170.291 298.051 173.073C295.079 174.496 292.012 175.798 288.851 176.979C285.698 178.172 282.446 179.232 279.126 180.145C272.36 182.08 265.408 183.293 258.387 183.762C251.109 184.309 243.793 183.511 236.804 181.409C229.783 179.131 223.025 175.755 216.166 172.516Z" fill="#3F00F9"/>
<path d="M276.596 208.051L113.528 126.446L98.6741 118.935C94.0002 116.544 89.5225 114.412 85.4872 112.143C81.6888 110.119 78.2642 107.461 75.361 104.284C72.9561 101.573 71.2868 98.2909 70.5129 94.7508C69.9623 91.9051 70.2133 88.9624 71.2379 86.2511C71.9911 84.2743 72.9616 82.3873 74.1315 80.6249C75.0458 79.1867 75.8328 78.1269 76.3505 77.4142L77.1282 76.365C77.1282 76.365 76.8394 76.7232 76.3206 77.416C75.8017 78.1088 75.0152 79.1785 74.071 80.6186C72.8857 82.3791 71.9017 84.2671 71.1375 86.2472C70.088 88.9738 69.8242 91.9402 70.3762 94.8092C71.1368 98.38 72.805 101.694 75.2198 104.433C78.145 107.632 81.5944 110.308 85.4194 112.348C89.4653 114.626 93.9337 116.769 98.5982 119.17L113.441 126.672C123.832 131.97 135.252 137.707 147.547 143.842L186.704 163.499L276.458 208.41L288.446 214.102C292.433 215.931 296.633 217.253 300.948 218.04C309.378 219.516 317.951 220.003 326.494 219.49C334.745 219.088 342.909 217.618 350.783 215.117C358.27 212.571 365.456 209.214 372.214 205.106C378.89 201.214 385.148 197.036 391.234 193.009C397.321 188.981 403.235 184.915 407.84 179.755C412.445 174.596 415.542 168.366 415.973 161.938C416.096 160.357 416.03 158.767 415.774 157.202C415.533 155.662 415.105 154.157 414.5 152.721C413.307 149.957 411.622 147.432 409.528 145.269C405.471 140.998 400.533 138.222 395.929 135.828C391.325 133.433 386.759 131.327 382.607 129.275C374.275 125.214 367.118 121.702 361.243 118.834L347.748 112.251L344.228 110.552L343.021 109.974L344.21 110.583L347.712 112.324L361.141 118.97L382.468 129.474C386.601 131.527 391.08 133.688 395.772 136.048C400.464 138.407 405.334 141.216 409.369 145.459C411.432 147.6 413.091 150.095 414.266 152.825C414.868 154.238 415.295 155.719 415.536 157.236C415.785 158.782 415.851 160.352 415.731 161.913C415.295 168.261 412.229 174.499 407.646 179.537C403.064 184.574 397.184 188.699 391.097 192.726C385.01 196.754 378.752 200.922 372.086 204.804C365.325 208.894 358.137 212.234 350.651 214.764C342.808 217.262 334.672 218.724 326.451 219.112C317.938 219.624 309.394 219.135 300.995 217.656C296.712 216.872 292.543 215.557 288.584 213.743L276.596 208.051Z" fill="#3F00F9"/>
<path d="M304.718 279.163C303.499 280.819 302.07 282.309 300.467 283.597C300.46 283.603 300.452 283.609 300.445 283.615C300.415 283.639 300.385 283.663 300.355 283.687C296.826 286.131 292.54 287.233 288.27 286.795L304.718 279.163ZM304.718 279.163C304.747 279.127 304.777 279.091 304.806 279.055M304.718 279.163L304.806 279.055M304.806 279.055L304.506 278.806M304.806 279.055L300.115 283.34C300.146 283.318 300.178 283.297 300.21 283.275C301.788 282.012 303.199 280.554 304.409 278.936C304.412 278.932 304.416 278.928 304.419 278.923C304.448 278.884 304.477 278.845 304.506 278.806M304.506 278.806C305.154 278.026 305.893 277.327 306.707 276.724C306.71 276.722 306.712 276.72 306.715 276.718C306.74 276.7 306.765 276.681 306.79 276.663L307.012 276.97C306.985 276.988 306.959 277.006 306.932 277.025C306.15 277.609 305.441 278.285 304.821 279.038L304.506 278.806ZM345.459 278.437L345.522 278.839C345.506 278.842 345.49 278.844 345.474 278.847L333.714 279.523C337.632 279.442 341.54 279.082 345.408 278.446C345.409 278.445 345.41 278.445 345.411 278.445C345.427 278.442 345.443 278.44 345.459 278.437ZM345.459 278.437C352.977 277.262 360.367 275.375 367.528 272.801L345.526 278.839L345.459 278.437ZM259.561 263.357C259.563 263.36 259.564 263.364 259.566 263.367L259.915 263.186L259.561 263.357ZM307.013 276.969C307.813 276.425 308.753 276.124 309.722 276.104C309.736 276.105 309.751 276.106 309.766 276.107L307.013 276.969ZM321.679 278.662C321.685 278.663 321.69 278.665 321.696 278.666L321.784 278.245L321.679 278.662ZM224.134 234.813L224.134 234.814L224.296 234.487L224.134 234.813ZM203.718 224.349L203.57 224.647L203.717 224.348L203.718 224.349ZM234.719 240.053L234.883 239.723L234.72 240.053L234.719 240.053ZM240.095 242.722L240.254 242.395L240.257 242.396L240.095 242.722ZM245.838 244.674C245.837 244.674 245.835 244.673 245.834 244.673L245.705 245.015L245.838 244.674ZM253.832 249.159L254.074 248.864L253.832 249.159Z" fill="#3F00F9" stroke="#3F00F9"/>
<path d="M68.2527 131.205C68.2544 136.665 68.1323 141.902 68.89 146.615C69.2228 148.848 69.803 151.037 70.6197 153.142C71.3451 154.971 72.3126 156.695 73.4964 158.267C75.1774 160.581 77.4251 162.425 80.0236 163.62C80.9688 164.062 81.9724 164.365 83.0038 164.521L82.8094 164.452L82.2289 164.297C81.4942 164.084 80.7776 163.813 80.0856 163.486C77.5571 162.247 75.3781 160.396 73.7468 158.101C72.5934 156.539 71.6507 154.831 70.9431 153.022C70.1537 150.935 69.5919 148.77 69.2675 146.562C68.5422 141.888 68.6655 136.67 68.6738 131.21C68.6997 120.278 68.7178 110.369 68.5429 103.216C68.5076 100.396 68.7831 97.5805 69.3644 94.8207C69.5832 93.8055 69.7902 93.0916 69.95 92.591L70.1356 92.0186L70.1834 91.8154C69.7766 92.7733 69.4548 93.765 69.2216 94.7792C68.5809 97.5443 68.2623 100.374 68.2722 103.213C68.3478 110.381 68.2787 120.274 68.2527 131.205Z" fill="#3F00F9"/>
<path d="M295.312 285.607C292.771 286.484 290.046 286.688 287.403 286.198C284.813 285.8 282.299 285.011 279.947 283.857C275.533 281.591 271.554 278.563 268.192 274.915C266.625 273.228 265.177 271.435 263.858 269.548C262.531 267.818 261.301 266.017 260.173 264.152C259.117 262.421 258.392 260.508 258.037 258.511C257.618 256.671 257.08 254.859 256.424 253.089C255.83 251.495 255.41 249.841 255.172 248.156C254.973 246.655 255.156 245.127 255.704 243.716C256.674 241.479 258.223 239.541 260.191 238.103C261.413 237.16 262.754 236.382 264.178 235.786L265.281 235.318L265.651 235.135L265.269 235.279L264.143 235.718C262.702 236.285 261.343 237.041 260.103 237.968C258.089 239.409 256.499 241.363 255.498 243.628C254.931 245.071 254.737 246.633 254.933 248.171C255.16 249.876 255.575 251.55 256.169 253.165C256.815 254.925 257.339 256.727 257.739 258.559C258.102 260.591 258.832 262.539 259.892 264.309C261.026 266.183 262.26 267.994 263.589 269.735C264.909 271.634 266.357 273.441 267.925 275.141C269.596 276.928 271.401 278.583 273.326 280.092C275.327 281.679 277.489 283.052 279.777 284.188C282.163 285.355 284.711 286.155 287.335 286.563C290.045 287.064 292.839 286.853 295.443 285.949C297.997 284.878 300.156 283.042 301.625 280.694C303.026 278.421 303.871 275.851 304.094 273.19C304.596 267.95 303.312 262.989 302.063 258.426C300.946 254.035 299.083 249.868 296.554 246.108C294.22 242.918 291.246 240.25 287.822 238.274C285.027 236.609 282.013 235.342 278.867 234.511C277.578 234.17 276.267 233.915 274.944 233.748C274.348 233.674 273.786 233.498 273.23 233.412C272.696 233.319 272.15 233.325 271.618 233.43C269.641 233.871 268.131 234.243 267.119 234.565C266.603 234.717 266.096 234.895 265.598 235.099C265.732 235.068 265.863 235.03 265.992 234.984L267.143 234.634C268.127 234.344 269.689 233.988 271.647 233.578C272.16 233.483 272.686 233.482 273.2 233.574C273.747 233.671 274.299 233.848 274.925 233.93C276.238 234.1 277.538 234.355 278.818 234.695C281.936 235.533 284.92 236.805 287.684 238.473C291.063 240.446 293.994 243.099 296.293 246.265C298.789 250.001 300.623 254.139 301.717 258.498C302.995 263.048 304.217 267.973 303.719 273.123C303.504 275.727 302.676 278.242 301.3 280.464C299.885 282.757 297.793 284.555 295.312 285.607Z" fill="#3F00F9"/>
<path d="M133.366 189.037C133.158 190.366 132.768 191.661 132.208 192.884C131.677 194.093 130.929 195.194 130.001 196.134C129.063 197.036 127.96 197.75 126.753 198.235C126.157 198.482 125.527 198.671 124.909 198.888C124.291 199.106 123.696 199.373 123.097 199.57C120.712 200.384 118.203 200.774 115.684 200.722C113.259 200.663 110.862 200.203 108.588 199.361C104.393 197.788 100.56 195.384 97.3175 192.292C96.5427 191.578 95.8828 190.777 95.1767 190.038C94.4705 189.3 93.8236 188.548 93.2066 187.794C92.8993 187.427 92.6179 187.039 92.3645 186.633C92.1306 186.246 91.9424 185.787 91.6679 185.393C91.1584 184.592 90.575 183.897 90.1559 183.101L88.9233 180.791C88.5516 180.051 88.2179 179.292 87.9234 178.518C87.322 177.032 86.6568 175.649 86.2042 174.304C85.4161 172.002 84.862 169.626 84.5503 167.212C84.3612 165.688 84.2845 164.152 84.3208 162.617C84.2886 162.088 84.3541 161.683 84.3777 161.412C84.4012 161.14 84.3534 161.012 84.3534 161.012C84.2732 161.543 84.2221 162.078 84.2004 162.615C84.1337 164.156 84.1874 165.7 84.3612 167.233C84.6498 169.66 85.1848 172.051 85.9577 174.369C86.4015 175.735 87.0567 177.118 87.6594 178.624C87.9844 179.356 88.2438 180.161 88.6599 180.907L89.8837 183.237C90.2941 184.054 90.8986 184.769 91.387 185.55C91.6509 185.935 91.8267 186.355 92.0836 186.79C92.3408 187.206 92.6261 187.604 92.9375 187.981C93.5651 188.744 94.2119 189.496 94.9087 190.245C95.6055 190.994 96.266 191.805 97.0508 192.519C100.315 195.658 104.182 198.101 108.418 199.702C110.716 200.554 113.137 201.026 115.586 201.099C118.15 201.154 120.703 200.758 123.129 199.929C123.748 199.731 124.343 199.454 124.941 199.247C125.54 199.04 126.179 198.851 126.805 198.593C128.06 198.08 129.205 197.33 130.177 196.384C131.134 195.407 131.909 194.268 132.467 193.019C133.034 191.759 133.435 190.432 133.659 189.069C134.033 186.364 133.947 183.615 133.404 180.939C132.899 178.349 132.128 175.817 131.101 173.385C129.184 168.773 126.435 164.552 122.99 160.935C119.865 157.67 116.204 154.965 112.164 152.938C108.662 151.143 104.898 149.911 101.012 149.289C97.791 148.74 94.4824 149.048 91.4185 150.183C89.1303 151.139 87.232 152.839 86.0318 155.009C85.3066 156.378 84.8013 157.852 84.5344 159.378C84.4358 159.908 84.3747 160.444 84.3515 160.982L84.417 160.578C84.447 160.302 84.5132 159.907 84.6155 159.393C84.9085 157.885 85.4316 156.431 86.1664 155.081C87.3607 152.957 89.242 151.302 91.5011 150.388C94.5321 149.284 97.8001 148.995 100.978 149.551C104.827 150.191 108.553 151.427 112.021 153.217C116.016 155.247 119.639 157.94 122.734 161.181C126.147 164.77 128.868 168.959 130.76 173.536C131.769 175.944 132.529 178.449 133.028 181.012C133.597 183.648 133.712 186.362 133.366 189.037Z" fill="#3F00F9"/>
</g>
<defs>
<linearGradient id="paint0_linear_2417_20154" x1="428.358" y1="188.335" x2="87.9609" y2="215.023" gradientUnits="userSpaceOnUse">
<stop stop-color="#8954F6"/>
<stop offset="1" stop-color="#A384FF"/>
</linearGradient>
<linearGradient id="paint1_linear_2417_20154" x1="85.9704" y1="116.302" x2="227.695" y2="173.297" gradientUnits="userSpaceOnUse">
<stop stop-color="#8954F6"/>
<stop offset="1" stop-color="#C2DBFF"/>
</linearGradient>
<radialGradient id="paint2_radial_2417_20154" cx="0" cy="0" r="1" gradientUnits="userSpaceOnUse" gradientTransform="translate(56.3589 181.129) rotate(-3.78845) scale(69.8526 105.489)">
<stop stop-color="#0894FF"/>
<stop offset="0.290475" stop-color="#6E53FF"/>
<stop offset="0.609151" stop-color="#B038EA"/>
<stop offset="0.850793" stop-color="#F95088"/>
<stop offset="1" stop-color="#FF6F62"/>
</radialGradient>
<linearGradient id="paint3_linear_2417_20154" x1="101" y1="86.9999" x2="419" y2="159.5" gradientUnits="userSpaceOnUse">
<stop stop-color="#9266ED"/>
<stop offset="1" stop-color="#753BEB"/>
</linearGradient>
<linearGradient id="paint4_linear_2417_20154" x1="223.243" y1="-23.2956" x2="282.593" y2="169.956" gradientUnits="userSpaceOnUse">
<stop stop-color="#8954F6"/>
<stop offset="1" stop-color="#D1C2FF"/>
</linearGradient>
<radialGradient id="paint5_radial_2417_20154" cx="0" cy="0" r="1" gradientUnits="userSpaceOnUse" gradientTransform="translate(231.357 265.318) rotate(-3.82603) scale(66.4454 112.681)">
<stop stop-color="#0894FF"/>
<stop offset="0.290475" stop-color="#6E53FF"/>
<stop offset="0.609151" stop-color="#B038EA"/>
<stop offset="0.850793" stop-color="#F95088"/>
<stop offset="1" stop-color="#FF6F62"/>
</radialGradient>
<clipPath id="clip0_2417_20154">
<rect width="475.11" height="314.07" fill="white" transform="matrix(-0.998153 0.0607496 0.0607496 0.998153 474.232 0)"/>
</clipPath>
</defs>
</svg>
