<svg width="290" height="200" viewBox="0 0 290 200" fill="none" xmlns="http://www.w3.org/2000/svg">
<path d="M92.237 133.539L93.4409 137.32L91.9538 152.85V158.756H95.6007V162.878H92.2866L87.6412 167.524V199.497H156.544L153.711 185.284H156.657C157.244 185.171 157.787 184.894 158.222 184.484C158.638 184.085 158.939 183.581 159.093 183.025C160.037 179.994 160.97 176.966 161.89 173.94C161.977 173.465 161.959 172.978 161.836 172.512C161.714 172.046 161.491 171.612 161.182 171.241C160.805 170.848 160.338 170.55 159.822 170.374C159.306 170.198 158.755 170.148 158.215 170.229H150.836L149.271 162.751H141.404V158.884H149.094V150.131H141.63V141.562H145.334C143.938 139.569 142.819 137.397 142.006 135.104C140.894 131.866 140.334 128.464 140.349 125.041C140.349 123.787 140.398 123.681 140.434 120.218C140.434 117.492 140.434 115.481 140.434 114.645C140.434 112.074 140.398 108.017 140.434 101.48L144.484 97.989C147.376 94.8516 149.173 90.861 149.604 86.6159C149.755 84.8364 149.643 83.0444 149.271 81.2976C148.771 78.3186 148.27 75.3348 147.77 72.3464C149.356 69.1677 150.205 65.6725 150.256 62.1205C150.256 57.2129 150.326 50.8536 150.355 45.9531C150.411 37.9792 150.473 30.0077 150.539 22.0385H156.912V11.4797L147.296 12.0392C146.389 10.7645 139.796 1.80623 127.68 0.814801C114.643 -0.254525 106.336 8.80996 105.444 9.82972C98.5662 8.7274 91.5242 10.2216 85.6867 14.022C76.0984 20.3955 74.1014 30.4019 73.7827 32.1652C72.8055 32.4414 65.2 34.7146 61.8221 42.6531C58.5646 50.2871 61.8221 57.0996 62.2966 58.0627C60.0952 60.5591 58.4104 63.4669 57.3395 66.6182C56.2686 69.7696 55.8329 73.1019 56.0574 76.4226C56.2819 79.7433 57.1623 82.9867 58.6477 85.9651C60.1331 88.9436 62.194 91.5982 64.7114 93.7754V95.128H95.4025V98.4351L92.237 133.539Z" fill="#D1C2FF"/>
<path d="M147.607 85.334C147.609 86.5289 147.457 87.7191 147.154 88.8748C146.389 88.627 145.334 88.2941 144.066 87.9188C140.95 87.0053 140.398 86.9982 139.817 87.2106C139.218 87.4879 138.704 87.9217 138.33 88.4663C137.956 89.0109 137.736 89.6462 137.693 90.3053C137.587 92.0261 138.883 93.2583 139.343 93.6974C139.803 94.1365 140.051 94.1931 140.993 94.9863C141.569 95.4699 142.115 95.9878 142.629 96.5371C140.922 98.1391 138.84 99.286 136.574 99.8726C136.482 99.2565 136.34 98.3359 136.156 97.2241C136.081 96.5587 135.953 95.9004 135.774 95.2554C135.391 94.2285 134.258 92.5502 132.545 92.4227C130.718 92.3236 129.28 94.0657 128.834 95.3403C128.674 95.9815 128.553 96.6319 128.473 97.2878C128.282 98.3642 128.126 99.2494 128.012 99.8372C126.764 99.4707 125.572 98.932 124.472 98.2367C123.594 97.683 122.782 97.0321 122.05 96.2964C122.517 95.8502 123.24 95.1846 124.174 94.4127C124.778 93.9984 125.338 93.5238 125.846 92.9963C126.554 92.104 127.262 90.3549 126.504 88.9031C125.647 87.246 123.346 86.9132 122.007 87.1681C121.809 87.2035 121.228 87.4089 120.06 87.8196C119.104 88.1596 118.311 88.4499 117.773 88.6553C117.254 86.4643 117.254 84.1824 117.773 81.9915C118.36 82.2252 119.231 82.5651 120.279 82.9546C122.135 83.6627 122.404 83.6627 122.694 83.7052C122.829 83.7052 125.159 83.8114 126.235 82.0835C127.17 80.5893 126.589 78.6773 125.81 77.6787C125.428 77.1901 125.201 77.183 124.004 76.1774C123.133 75.4693 122.468 74.7611 122.043 74.3433C122.902 73.483 123.871 72.7401 124.925 72.1338C125.891 71.5845 126.921 71.1564 127.991 70.8591C128.126 71.4115 128.324 72.2755 128.536 73.2456C129.004 75.4268 128.947 75.703 129.245 76.2978C129.747 77.2397 130.972 78.5781 132.608 78.5356C133.216 78.4701 133.8 78.2638 134.314 77.9331C134.827 77.6024 135.257 77.1564 135.568 76.6307C136.003 75.7868 136.265 74.8648 136.34 73.9184C136.506 72.9341 136.615 71.941 136.666 70.9441C137.881 71.2587 139.048 71.7351 140.136 72.3604C141.067 72.8998 141.932 73.5463 142.714 74.2866C142.31 74.669 141.63 75.2993 140.766 76.0712C138.84 77.7779 138.309 78.0966 137.99 78.9818C137.667 79.9097 137.723 80.9275 138.146 81.8144C138.439 82.3331 138.846 82.7781 139.337 83.1156C139.828 83.453 140.389 83.6741 140.979 83.7619C141.722 83.8681 142.161 83.684 144.144 83.0537C145.511 82.6217 146.608 82.296 147.239 82.1118C147.484 83.1683 147.608 84.2494 147.607 85.334Z" fill="#8157FF"/>
<path d="M156.799 11.4798L157.132 28.759C159.348 29.4672 162.471 30.5648 166.246 31.9103C170.126 33.2842 171.911 33.964 173.497 35.7486C174.577 37.0199 175.367 38.5108 175.813 40.1179C177.144 44.0907 176.351 46.0878 176.174 55.6055C176.103 59.5075 176.174 62.5667 176.174 62.5667C176.216 65.6472 176.294 66.8157 176.266 69.4713C176.223 72.8351 176.195 74.5418 175.784 75.8873C175.494 76.8362 174.453 80.2283 171.443 82.367C170.119 83.3088 169.51 83.2309 168.009 84.4915C166.81 85.4334 165.821 86.6153 165.105 87.9615C163.378 91.5589 165.205 95.638 165.75 96.8418C167.06 99.7595 168.271 99.8728 170.742 103.555C172.144 105.729 173.305 108.049 174.205 110.474C176.075 115.006 177.222 119.609 178.744 128.178C180.033 135.465 181.449 142.731 182.745 150.011C183.173 153.043 184.17 155.967 185.684 158.629C187.306 161.372 189.476 163.751 192.057 165.619C193.339 166.235 194.662 166.763 196.016 167.198C197.947 167.909 199.973 168.327 202.028 168.437C205.075 168.382 208.017 167.316 210.391 165.406C216.368 160.506 215.065 152.022 215.001 151.668C215.728 150.285 216.576 148.969 217.537 147.738C219.045 145.79 219.874 145.301 220.73 143.489C221.235 142.414 221.547 141.258 221.651 140.075C221.756 138.767 221.58 137.451 221.134 136.216C221.944 135.733 222.628 135.065 223.13 134.266C223.631 133.468 223.937 132.562 224.02 131.623C224.104 130.683 223.964 129.738 223.611 128.863C223.258 127.988 222.703 127.21 221.991 126.592C221.899 125.714 221.375 119.822 224.498 116.6C225.769 115.326 227.24 114.268 228.853 113.47C229.603 113.168 230.336 112.825 231.048 112.443C232.648 111.522 233.987 110.75 234.213 109.49C234.405 108.442 233.746 107.493 232.634 105.885C232.187 105.243 231.687 104.639 231.14 104.079L210.377 78.9607C211.365 76.6616 211.986 74.2219 212.218 71.7304C212.552 67.9427 211.991 64.1297 210.583 60.598C210.583 55.4497 209.874 44.6431 202.843 34.2402C199.155 28.9143 194.429 24.3883 188.949 20.9338C183.348 17.2583 177.144 14.5953 170.622 13.0661C166.094 11.9876 161.453 11.4551 156.799 11.4798Z" fill="#E8E0FF"/>
<path d="M79.8372 44.2464V52.716H86.6141L88.7244 57.3899L83.7107 62.4037L89.9353 68.6285L95.0057 63.5509L99.6936 65.4913V72.665H108.404V65.8525L113.014 63.6217L118.198 68.8055L124.401 62.602L119.26 57.4678L121.243 52.7727H128.112V44.1897H121.002L119.189 39.3317L124.146 34.3746L118.105 28.334L113.198 33.2486L108.432 31.2303V24.0283H99.729L99.6653 31.3295L96.9318 32.1651L94.857 33.1565L89.8787 28.1782L83.6895 34.3675L88.859 39.5371L86.8195 44.0977L79.8372 44.2464Z" fill="#A97FFF"/>
<path d="M66.064 73.8759V77.5371H68.9957L69.9021 79.5554L67.7352 81.7224L70.4262 84.4063L72.6214 82.211L74.6467 83.0537V86.1555H78.407V83.2095L80.3969 82.2464L82.6346 84.4842L85.3185 81.8074L83.0949 79.5908L83.9518 77.5584H86.9189V73.8547H83.8455L83.0666 71.7585L85.2052 69.6128L82.5992 67.0068L80.4748 69.1242L78.4211 68.2531V65.1443H74.6538L74.6325 68.3027L73.4499 68.6568L72.5506 69.0888L70.4049 66.9359L67.7281 69.6057L69.9659 71.8435L69.0807 73.8122L66.064 73.8759Z" fill="#A97FFF"/>
<path d="M156.976 21.9961L150.532 22.0386L150.291 62.0569C150.259 65.6508 149.399 69.1889 147.777 72.3961C148.581 72.6219 149.32 73.0338 149.935 73.5985C150.55 74.1632 151.024 74.8648 151.318 75.6466C151.618 76.6867 151.581 77.7954 151.212 78.8133C150.843 79.8313 150.161 80.706 149.264 81.3119C149.845 83.9406 149.804 86.6687 149.144 89.2787C149.722 89.647 150.222 90.1263 150.615 90.689C151.007 91.2516 151.284 91.8865 151.429 92.5569C151.575 93.2272 151.586 93.9198 151.462 94.5945C151.339 95.2692 151.083 95.9127 150.709 96.4878C149.997 97.4113 148.992 98.0647 147.859 98.3402C146.726 98.6157 145.533 98.4969 144.477 98.0033C143.988 98.5202 143.429 99.0584 142.791 99.6108C142.035 100.258 141.238 100.856 140.405 101.402V125.77C140.456 128.191 140.806 130.595 141.446 132.93C142.353 136.497 143.99 139.837 146.254 142.739C148.517 145.641 151.358 148.043 154.596 149.791C156.996 151.238 159.562 152.391 162.237 153.226L178.071 159.798L191.526 165.371C189.97 164.062 188.567 162.582 187.341 160.959C182.887 155.06 182.66 149.685 179.247 130.671C179.105 129.871 178.475 126.422 177.484 121.861C176.174 115.87 175.026 111.642 172.874 107.486C172.456 106.678 172.003 105.8 171.28 104.653C169.942 102.528 169.099 101.757 166.847 98.5627C166.103 97.649 165.513 96.6206 165.098 95.5176C164.743 94.3997 164.601 93.225 164.68 92.0547C164.66 89.9243 165.263 87.8345 166.415 86.0424C167.711 84.2153 168.462 84.7323 171.117 82.3387C172.778 80.9863 174.132 79.2966 175.09 77.3816C175.989 75.3847 176.353 73.1882 176.145 71.0081C176.188 61.4904 176.228 51.9774 176.266 42.4691C176.206 40.5233 175.6 38.6336 174.516 37.0162C173.362 35.345 171.811 34.2898 167.017 32.314C163.736 30.9672 160.389 29.7855 156.99 28.7732L156.976 21.9961Z" fill="#D1C2FF"/>
<path d="M111.81 137.214H95.1686C90.7101 137.214 87.0957 140.828 87.0957 145.287V145.337C87.0957 149.795 90.7101 153.41 95.1686 153.41H111.81C116.269 153.41 119.883 149.795 119.883 145.337V145.287C119.883 140.828 116.269 137.214 111.81 137.214Z" fill="#A97FFF"/>
<path d="M105.005 110.984L93.901 123.143C93.186 123.926 92.3237 124.561 91.3633 125.011C90.403 125.461 89.3634 125.717 88.3039 125.765C87.2445 125.813 86.186 125.652 85.1889 125.291C84.1918 124.929 83.2756 124.375 82.4927 123.66C81.7094 122.945 81.0747 122.083 80.6248 121.122C80.1749 120.162 79.9186 119.122 79.8706 118.063C79.8226 117.003 79.9838 115.945 80.345 114.948C80.7062 113.95 81.2603 113.034 81.9758 112.251L93.0512 100.064C94.5225 98.5734 96.5138 97.7106 98.6074 97.6565C100.701 97.6024 102.734 98.3613 104.28 99.7738C105.827 101.186 106.766 103.143 106.901 105.233C107.036 107.323 106.356 109.384 105.005 110.984Z" fill="#A97FFF"/>
<path d="M110.182 133.702H93.8942C91.7512 133.702 89.6961 132.85 88.1808 131.335C86.6655 129.82 85.8142 127.764 85.8142 125.621V125.579C87.7583 126.06 89.8086 125.857 91.621 125.005C92.2371 124.694 92.9807 124.205 96.1248 120.756C97.3429 119.418 98.3272 118.292 98.9999 117.506H110.21C112.341 117.554 114.377 118.398 115.918 119.871C116.839 120.798 117.527 121.932 117.922 123.178C118.167 123.955 118.291 124.765 118.29 125.579V125.621C118.29 126.685 118.08 127.738 117.672 128.72C117.264 129.702 116.667 130.594 115.913 131.345C115.16 132.096 114.266 132.69 113.282 133.095C112.299 133.499 111.245 133.705 110.182 133.702Z" fill="#A97FFF"/>
<path d="M78.6051 73.5714C78.9444 73.9001 79.2029 74.303 79.3601 74.7486C79.5173 75.1941 79.5689 75.67 79.5108 76.1389C79.4528 76.6078 79.2867 77.0568 79.0256 77.4506C78.7646 77.8443 78.4157 78.1721 78.0064 78.4081C77.5971 78.6441 77.1386 78.7819 76.667 78.8105C76.1954 78.8392 75.7236 78.758 75.2888 78.5734C74.8539 78.3887 74.4678 78.1056 74.161 77.7464C73.8541 77.3871 73.6349 76.9616 73.5205 76.5032C73.3342 75.8543 73.3704 75.1617 73.6234 74.5357C73.8764 73.9098 74.3316 73.3865 74.9165 73.0493C75.5013 72.712 76.1822 72.5803 76.8507 72.6749C77.5192 72.7695 78.1368 73.0851 78.6051 73.5714Z" fill="#8157FF"/>
<path d="M99.1839 43.432C101.974 40.7268 107.023 40.7551 109.594 44.0197C110.183 44.7857 110.608 45.6653 110.84 46.6033C111.073 47.5412 111.109 48.5172 110.946 49.4698C110.784 50.4224 110.426 51.331 109.895 52.1385C109.364 52.9459 108.671 53.6347 107.861 54.1616C107.051 54.6885 106.141 55.042 105.187 55.1999C104.234 55.3578 103.258 55.3167 102.321 55.0791C101.384 54.8415 100.507 54.4127 99.744 53.8196C98.9811 53.2264 98.3491 52.4818 97.888 51.6325C97.2013 50.3061 96.9567 48.7948 97.1899 47.3195C97.423 45.8442 98.1217 44.482 99.1839 43.432Z" fill="#8157FF"/>
<path d="M102.859 98.6687H107.682C109.684 98.9762 111.522 99.9551 112.894 101.445C114.08 102.735 114.824 104.37 115.018 106.111C115.184 107.646 114.901 109.196 114.204 110.573C112.079 114.638 106.818 114.879 106.584 114.886H101.627L105.168 110.757C105.857 109.828 106.346 108.765 106.603 107.637C106.86 106.508 106.88 105.339 106.662 104.203C106.444 103.066 105.992 101.987 105.335 101.035C104.677 100.082 103.83 99.2765 102.845 98.6687H102.859Z" fill="#C2DBFF"/>
<path d="M132.347 80.3911C131.353 80.3897 130.382 80.683 129.555 81.2338C128.729 81.7847 128.084 82.5683 127.703 83.4857C127.322 84.403 127.221 85.4127 127.414 86.3872C127.607 87.3616 128.085 88.2569 128.787 88.9598C129.489 89.6627 130.383 90.1416 131.357 90.3359C132.332 90.5302 133.341 90.4312 134.259 90.0514C135.177 89.6715 135.962 89.028 136.514 88.2022C137.066 87.3763 137.36 86.4053 137.36 85.412C137.358 84.0822 136.83 82.8072 135.89 81.8663C134.951 80.9253 133.676 80.3949 132.347 80.3911ZM132.424 87.586C131.972 87.6281 131.517 87.5336 131.119 87.3146C130.72 87.0956 130.397 86.7622 130.19 86.3575C129.983 85.9528 129.902 85.4954 129.958 85.0442C130.014 84.5931 130.203 84.1691 130.502 83.8268C130.801 83.4845 131.196 83.2398 131.636 83.1242C132.075 83.0086 132.54 83.0274 132.968 83.1782C133.397 83.329 133.771 83.605 134.041 83.9703C134.312 84.3357 134.466 84.7737 134.485 85.2279C134.517 85.8119 134.319 86.3852 133.934 86.8257C133.549 87.2661 133.007 87.5389 132.424 87.586Z" fill="#E8E0FF"/>
<path d="M127.899 69.7049C127.636 68.3599 127.865 66.965 128.544 65.7746C129.002 65.1494 129.606 64.6454 130.303 64.3061C131.001 63.9667 131.77 63.8024 132.545 63.8271C133.484 63.8307 134.401 64.1061 135.187 64.6201C135.972 65.1342 136.592 65.8647 136.971 66.7235C137.136 67.2721 137.212 67.8434 137.197 68.416C137.199 69.3719 137.078 70.3239 136.836 71.2487C136.305 73.8831 136.688 73.7202 136.319 74.7895C136.249 74.9949 135.016 78.3657 132.609 78.5003C131.68 78.4934 130.789 78.1281 130.123 77.4805C128.99 76.4466 128.707 74.8957 128.515 73.6848C128.437 73.2174 128.473 73.2174 128.324 72.1906C128.112 70.7176 127.97 70.2785 127.899 69.7049Z" fill="#E8E0FF"/>
<path d="M127.772 101.126C127.509 102.471 127.738 103.866 128.416 105.057C128.874 105.68 129.477 106.183 130.173 106.521C130.869 106.859 131.637 107.023 132.41 106.997C133.35 106.996 134.268 106.723 135.055 106.21C135.842 105.697 136.463 104.967 136.843 104.108C137.008 103.556 137.084 102.983 137.07 102.408C137.074 101.44 136.953 100.476 136.709 99.5399C136.178 96.9056 136.56 97.0684 136.185 95.9991C136.121 95.8008 134.889 92.4583 132.481 92.2954C131.553 92.3004 130.663 92.6631 129.995 93.3081C128.862 94.342 128.579 95.8929 128.388 97.1109C128.31 97.5783 128.345 97.5712 128.197 98.5981C127.984 100.106 127.843 100.56 127.772 101.126Z" fill="#E8E0FF"/>
<path d="M143.372 73.8123C144.384 72.8887 145.693 72.3586 147.062 72.3181C147.834 72.3857 148.578 72.6394 149.23 73.0576C149.883 73.4757 150.424 74.0457 150.808 74.7188C151.292 75.5232 151.534 76.4504 151.504 77.3889C151.474 78.3274 151.173 79.2372 150.638 80.0088C150.253 80.4352 149.804 80.7984 149.307 81.0852C148.482 81.5945 147.594 81.9921 146.665 82.2678C144.144 83.1884 144.477 83.4221 143.386 83.6841C143.181 83.7337 139.662 84.4348 138.295 82.4449C137.811 81.6519 137.659 80.7007 137.87 79.7963C138.16 78.2879 139.35 77.254 140.278 76.4538C140.632 76.1422 140.646 76.1705 141.453 75.5119C142.615 74.5205 142.919 74.1735 143.372 73.8123Z" fill="#E8E0FF"/>
<path d="M143.373 97.0896C144.384 98.0132 145.693 98.5434 147.062 98.5839C147.835 98.5167 148.58 98.2624 149.233 97.8429C149.885 97.4234 150.426 96.8513 150.808 96.1761C151.293 95.3731 151.535 94.447 151.505 93.5095C151.474 92.5721 151.174 91.6634 150.638 90.8932C150.256 90.4648 149.806 90.1012 149.307 89.8168C148.483 89.3075 147.594 88.9098 146.665 88.6342C144.144 87.7135 144.477 87.4799 143.387 87.2178C143.181 87.1683 139.662 86.4601 138.295 88.45C137.81 89.2449 137.657 90.199 137.87 91.1056C138.16 92.614 139.35 93.6409 140.278 94.4482C140.632 94.7598 140.646 94.7244 141.453 95.39C142.615 96.3815 142.919 96.7285 143.373 97.0896Z" fill="#E8E0FF"/>
<path d="M116.328 89.0803C115.042 89.5621 113.972 90.4894 113.311 91.6934C113.022 92.4122 112.912 93.1905 112.989 93.9614C113.067 94.7323 113.331 95.4729 113.758 96.1195C114.251 96.9173 114.965 97.5549 115.814 97.9546C116.662 98.3544 117.608 98.4992 118.538 98.3714C119.094 98.221 119.623 97.9819 120.103 97.6633C120.928 97.1582 121.685 96.5489 122.355 95.8504C124.323 94.0162 124.38 94.434 125.088 93.563C125.223 93.393 127.453 90.5816 126.299 88.4642C125.813 87.6714 125.035 87.1016 124.132 86.8779C122.659 86.453 121.2 87.0408 120.06 87.5011C119.621 87.6781 119.642 87.7065 118.686 88.1172C117.298 88.7333 116.845 88.8395 116.328 89.0803Z" fill="#E8E0FF"/>
<path d="M116.328 81.5595C115.044 81.0749 113.974 80.1484 113.311 78.9463C113.022 78.2276 112.912 77.4493 112.989 76.6783C113.067 75.9074 113.331 75.1669 113.758 74.5203C114.251 73.7224 114.965 73.0845 115.813 72.6836C116.662 72.2827 117.608 72.136 118.538 72.2613C119.093 72.4151 119.621 72.654 120.103 72.9694C120.93 73.4722 121.687 74.0818 122.355 74.7823C124.323 76.6094 124.38 76.1987 125.088 77.0697C125.223 77.2326 127.453 80.044 126.299 82.1685C125.813 82.9613 125.035 83.5311 124.132 83.7548C122.659 84.1797 121.2 83.5919 120.06 83.1316C119.621 82.9545 119.642 82.9262 118.686 82.5155C117.298 81.9065 116.845 81.7931 116.328 81.5595Z" fill="#E8E0FF"/>
<path d="M187.957 83.3654C188.65 82.4266 189.498 81.6124 190.464 80.9577C192.008 79.9805 193.759 79.3767 195.577 79.1943C196.7 79.062 197.832 79.01 198.962 79.0385C200.733 78.9394 203.211 78.3304 206.221 75.8872C205.915 76.9086 205.489 77.8904 204.953 78.8119C203.905 80.6036 203.048 81.078 202.9 82.4731C202.845 83.2327 202.951 83.9952 203.211 84.7109C203.526 85.5437 203.905 86.351 204.344 87.1258C205.052 88.7545 205.442 89.5972 205.137 90.4541C204.912 90.9278 204.569 91.3359 204.141 91.6396C203.714 91.9432 203.216 92.1324 202.694 92.1891C201.009 92.437 199.564 91.2473 198.962 90.7728C195.444 88.087 191.77 85.6134 187.957 83.3654Z" fill="#A97FFF"/>
<path d="M224.724 116.451H216.552C217.391 115.338 218.34 114.313 219.385 113.392C222.125 110.998 224.866 109.914 227.685 108.824C229.555 108.108 231.471 107.519 233.421 107.061C233.992 107.725 234.277 108.588 234.214 109.461C233.98 111.04 232.146 111.982 230.708 112.712C228.655 113.767 227.67 113.59 226.169 114.836C225.612 115.302 225.125 115.846 224.724 116.451Z" fill="#A97FFF"/>
<path d="M224.087 130.883L208.812 135.968L221.453 135.847C222.125 135.45 222.702 134.911 223.145 134.268C223.818 133.271 224.148 132.084 224.087 130.883Z" fill="#A97FFF"/>
<path d="M150.51 25.8555L150.284 62.8074C150.095 66.1135 149.25 69.349 147.798 72.3252C148.538 72.619 149.212 73.0579 149.78 73.6162C150.348 74.1744 150.799 74.8406 151.105 75.5756C151.569 76.7684 151.621 78.0818 151.254 79.3077H158.01C159.161 79.4572 160.332 79.3403 161.431 78.9661C162.53 78.5919 163.528 77.9704 164.349 77.1494C165.171 76.3284 165.792 75.3298 166.166 74.2306C166.54 73.1315 166.657 71.9611 166.508 70.8097V40.9748C166.168 39.5018 165.261 36.4708 162.882 34.6013C162.128 34.0382 161.325 33.5452 160.481 33.1283C158.881 32.3352 158.413 32.4201 157.068 31.8182C155.665 31.1403 154.389 30.2278 153.293 29.1201C152.242 28.1438 151.308 27.0482 150.51 25.8555Z" fill="#A97FFF"/>
<path d="M149.505 83.5638C149.784 85.6013 149.578 87.676 148.903 89.6186C149.891 90.1878 150.657 91.0761 151.074 92.1378C151.491 93.1994 151.534 94.3713 151.197 95.4609C150.305 97.9324 147.147 99.3417 144.321 98.0811L140.433 101.431V109.022H159.752C161.572 108.739 163.137 107.705 163.597 106.289C164.305 104.164 162.542 101.084 159.072 100.326C157.146 99.1243 155.725 97.2621 155.073 95.0879C154.421 92.9138 154.584 90.5766 155.531 88.5139C156.239 87.2675 156.466 86.9346 156.466 86.9346C156.835 86.5381 157.127 86.0772 157.33 85.575C157.421 85.3491 157.465 85.1068 157.459 84.8631C157.453 84.6195 157.397 84.3797 157.294 84.1586C157.08 83.8759 156.787 83.6626 156.452 83.5455C156.117 83.4284 155.755 83.4126 155.411 83.5001L149.505 83.5638Z" fill="#A97FFF"/>
<path d="M140.363 113.307H161.649C162.328 113.284 163.004 113.401 163.635 113.65C164.267 113.9 164.84 114.276 165.32 114.756C165.8 115.236 166.177 115.809 166.426 116.441C166.675 117.072 166.792 117.748 166.769 118.427C167.747 123.186 168.476 127.123 168.972 129.934C170.069 136.117 170.161 137.441 171.025 140.968C171.898 144.635 173.046 148.231 174.46 151.725C175.638 154.581 177.018 157.349 178.588 160.01L161.713 152.872C156.747 151.582 152.216 148.989 148.588 145.361C144.96 141.733 142.368 137.202 141.078 132.236C140.699 130.295 140.474 128.327 140.405 126.351C140.363 125.093 140.387 123.833 140.476 122.577L140.363 113.307Z" fill="#A97FFF"/>
<path d="M149.618 68.4869C150.193 66.593 150.51 64.6302 150.56 62.6517C150.56 60.7184 150.56 58.8771 150.56 57.043C150.595 44.7705 150.624 34.4738 150.652 26.3583C150.525 26.16 150.411 25.9759 150.305 25.7988C150.227 34.0348 150.128 44.5227 150.008 57.0572C150.008 58.8701 149.972 60.7609 150.008 62.6375C149.948 64.559 149.634 66.4641 149.073 68.3028C148.669 69.594 148.147 70.8456 147.515 72.0419C147.73 72.0659 147.942 72.1037 148.152 72.1552C148.749 70.9786 149.24 69.751 149.618 68.4869Z" fill="#3F00F9"/>
<path d="M150.312 25.1118C150.411 25.2676 150.532 25.4305 150.652 25.6004C150.652 24.3966 150.652 23.2423 150.652 22.1375H156.608V21.8826L150.34 21.8401C150.333 22.8669 150.319 23.9717 150.312 25.1118Z" fill="#3F00F9"/>
<path d="M149.2 83.2025H149.866C149.816 82.6501 149.738 82.1119 149.639 81.5737C149.438 81.6926 149.23 81.799 149.016 81.8924C149.094 82.3102 149.158 82.7564 149.2 83.2025Z" fill="#3F00F9"/>
<path d="M149.271 86.1131C149.206 87.0668 149.066 88.0139 148.853 88.9457H148.896C149.102 89.031 149.303 89.128 149.498 89.2361C149.732 88.2233 149.884 87.193 149.951 86.1556C149.985 85.3577 149.973 84.5585 149.916 83.762H149.207C149.277 84.5436 149.299 85.3288 149.271 86.1131Z" fill="#3F00F9"/>
<path d="M93.4762 135.84C93.2708 135.274 93.0938 134.7 92.9238 134.112C92.5363 134.081 92.1523 134.014 91.7766 133.914C91.982 134.686 92.2157 135.451 92.4848 136.201C92.5839 136.485 92.7043 136.768 92.8176 137.051C93.1545 136.949 93.4974 136.869 93.8444 136.81C93.7311 136.492 93.5966 136.166 93.4762 135.84Z" fill="#3F00F9"/>
<path d="M140.016 109.355C140.016 110.608 140.016 111.876 140.016 113.144H140.795C140.795 111.89 140.795 110.651 140.795 109.419H140.334L140.016 109.355Z" fill="#3F00F9"/>
<path d="M140.78 108.895C140.78 107.252 140.78 105.623 140.78 104.023C140.78 103.407 140.78 102.79 140.78 102.174V101.608C140.78 101.608 140.78 101.551 140.78 101.544L141.042 101.374L141.425 101.112C142.439 100.412 143.388 99.6201 144.258 98.7468C144.413 98.591 144.562 98.4281 144.711 98.2723C144.494 98.1456 144.288 98.0011 144.095 97.8403L143.741 98.2298C142.905 99.0684 141.995 99.8293 141.021 100.503L140.653 100.751L140.143 101.07C140.143 101.112 140.001 101.112 140.016 101.183V104.016C140.016 105.63 140.016 107.264 140.016 108.916H140.313L140.78 108.895Z" fill="#3F00F9"/>
<path d="M96.0184 94.5969H65.3627V94.0941V93.8392C65.3591 93.6756 65.3449 93.5123 65.3202 93.3506L64.782 92.8548C64.2934 92.3945 63.8331 91.9059 63.3657 91.4385C62.4657 90.4229 61.6308 89.3515 60.866 88.2305C59.3418 85.9642 58.1673 83.4814 57.3819 80.8656C55.8351 75.5295 56.2935 69.8119 58.6707 64.7903C59.2597 63.5318 59.9513 62.3238 60.7385 61.1787C61.1351 60.6051 61.5529 60.0456 61.999 59.5074L62.3318 59.1038L62.7567 58.6222L63.0754 58.2681L63.1533 58.1761C63.1887 58.1761 63.1533 58.1053 63.1533 58.0699L63.0329 57.8291L62.7142 57.1776C61.5538 54.6396 60.9778 51.8735 61.0288 49.0833C61.0646 47.6875 61.2691 46.3013 61.6378 44.9547L61.9494 43.9562C62.0556 43.6233 62.2114 43.3117 62.3389 42.986C62.6042 42.3386 62.9117 41.7093 63.2595 41.1022C63.9736 39.8951 64.8294 38.7777 65.8088 37.7739C66.8055 36.7704 67.9098 35.8798 69.1017 35.1183C70.2976 34.3556 71.5697 33.7196 72.8974 33.2204L73.4002 33.0434C73.5772 32.9796 73.6622 32.9513 74.1083 32.8238L74.3703 32.753C74.3703 32.753 74.4199 32.753 74.4341 32.753V32.6964V32.5689L74.5261 32.0732L74.6394 31.5066C74.7881 30.7985 74.9581 30.0903 75.1705 29.4246C75.5898 28.0459 76.1081 26.6992 76.7214 25.3952C77.3356 24.0955 78.0457 22.8433 78.8458 21.649C82.1302 16.7763 86.9518 13.1438 92.5414 11.3311C95.3418 10.4454 98.2651 10.0103 101.202 10.0422C101.91 10.0422 102.668 10.0847 103.404 10.1484C103.766 10.1484 104.113 10.2192 104.495 10.2688L105.076 10.3538L105.628 10.4459C105.75 10.3366 105.864 10.2183 105.968 10.0918L106.23 9.80143L106.414 9.59607L106.796 9.19949C107.051 8.93747 107.32 8.68962 107.59 8.43468C108.128 7.93424 108.687 7.46214 109.268 7.01835C113.9 3.22643 119.711 1.17018 125.697 1.20433C130.649 1.26678 135.472 2.78918 139.562 5.58078C141.602 6.94332 143.471 8.54579 145.128 10.3538C145.546 10.7999 145.943 11.2673 146.318 11.7701L146.63 12.1738L146.899 12.5349L146.97 12.627C146.97 12.627 147.04 12.627 147.076 12.627H147.31L148.407 12.4925C149.632 12.3579 150.857 12.2588 152.09 12.1809C153.584 12.0959 155.078 12.0676 156.572 12.0817V10.9062C155.057 10.9062 153.539 10.9369 152.019 10.9982C150.772 11.0761 149.519 11.1753 148.273 11.3169L147.515 11.409L147.246 11.062C146.849 10.5592 146.431 10.0776 146.007 9.64564C144.28 7.76862 142.335 6.10446 140.214 4.6885C135.946 1.73314 130.901 0.102404 125.711 0.000452131C119.453 -0.0358106 113.378 2.11026 108.531 6.06941C107.929 6.55096 107.342 7.05376 106.782 7.5778C106.506 7.83982 106.223 8.10184 105.954 8.37803L105.55 8.79584L105.238 9.13576L105.196 9.18533L104.658 9.10743C104.275 9.05786 103.9 9.01537 103.511 8.97996C102.746 8.91623 101.981 8.86666 101.216 8.86666C98.1539 8.83627 95.1063 9.29284 92.1873 10.2192C86.3569 12.0821 81.3152 15.8379 77.8615 20.8913C76.1577 23.3877 74.8554 26.1357 74.0021 29.0352C73.7826 29.7433 73.5985 30.4515 73.4427 31.2092L73.3223 31.7899L72.9682 31.9032L72.4371 32.0944C71.0299 32.6228 69.6818 33.2968 68.4148 34.1056C67.1488 34.9193 65.9757 35.8692 64.9166 36.9383C63.8705 38.0045 62.9575 39.1934 62.1973 40.4791C61.8217 41.1263 61.4905 41.7982 61.2059 42.4903C61.0713 42.8373 60.9084 43.1984 60.7951 43.5313L60.4623 44.6006C60.0657 46.039 59.8469 47.5207 59.8108 49.0124C59.7573 51.9769 60.3721 54.9153 61.6095 57.6096L61.7511 57.9211C61.7511 57.9211 61.7511 57.9565 61.7016 57.9849L61.4254 58.3035L61.0784 58.7284C60.611 59.2879 60.1791 59.8757 59.7612 60.4705C58.9502 61.6704 58.2397 62.9353 57.6368 64.2521C55.1444 69.5275 54.6683 75.5325 56.2984 81.1347C57.1132 83.8629 58.3382 86.4513 59.9312 88.8112C60.7251 89.9753 61.5932 91.0871 62.5301 92.1396C63.0046 92.6636 63.4861 93.1735 64.0031 93.6621L64.2226 93.8675V94.1508L64.3146 95.7087H94.9491C94.9491 96.4806 94.9491 97.2454 94.9845 98.0103V98.1165C95.3371 97.9425 95.7015 97.7934 96.075 97.6703L96.0184 94.5969Z" fill="#3F00F9"/>
<path d="M141.51 141.484C141.51 143.821 141.51 146.76 141.46 150.259L148.931 150.294C148.931 152.857 148.919 155.638 148.896 158.636H141.163C141.163 160.052 141.163 161.469 141.163 162.984H149.087C149.559 165.411 150.057 167.93 150.581 170.54H157.719C158.291 170.517 158.864 170.533 159.433 170.59C159.968 170.672 160.463 170.919 160.849 171.298C161.217 171.692 161.463 172.184 161.557 172.714C161.611 172.992 161.632 173.275 161.621 173.557C161.621 173.628 161.621 173.706 161.621 173.762C161.621 173.819 161.621 173.762 161.621 173.819L161.586 173.925L161.451 174.371L159.192 181.609L158.619 183.45C158.391 183.977 157.981 184.405 157.464 184.654C157.219 184.788 156.943 184.856 156.664 184.852H155.673L153.222 184.81C154.167 189.413 155.163 194.188 156.211 199.136L88.1579 199.051C88.1579 188.917 88.1579 178.401 88.1579 167.559L92.3643 163.367H96.0892V158.275L92.4422 158.183C92.4422 156.597 92.4186 154.998 92.3714 153.389C92.024 153.266 91.6835 153.124 91.3517 152.964C91.3871 155.053 91.4154 157.142 91.4508 159.203L95.0836 159.288C95.0836 160.336 95.0836 161.377 95.0836 162.396H91.9394L87.1665 167.184C87.1665 178.486 87.1665 189.425 87.1665 200L157.068 199.915C156.02 194.958 155.005 190.171 154.023 185.553H155.595H156.593C156.678 185.553 156.742 185.553 156.891 185.553L157.209 185.539C157.387 185.487 157.559 185.42 157.726 185.341C158.401 185.012 158.932 184.448 159.221 183.755C159.412 183.124 159.61 182.494 159.801 181.878C160.557 179.404 161.298 176.987 162.025 174.626L162.159 174.187L162.195 174.074C162.214 174.019 162.226 173.962 162.23 173.904C162.23 173.812 162.23 173.734 162.23 173.649C162.243 173.319 162.217 172.989 162.152 172.665C162.03 172.003 161.715 171.392 161.246 170.909C160.773 170.437 160.163 170.124 159.504 170.016C159.19 169.967 158.872 169.948 158.555 169.96H157.67H151.013L149.491 162.446H141.623C141.623 161.299 141.623 160.173 141.623 159.082H149.314C149.314 155.806 149.314 152.758 149.314 149.94L141.779 149.975C141.779 146.668 141.736 143.906 141.729 141.697L144.98 141.661C144.98 141.619 144.916 141.576 144.888 141.527L141.51 141.484Z" fill="#3F00F9"/>
<path d="M234.433 107.797C234.183 107.153 233.855 106.542 233.456 105.977C233.073 105.426 232.652 104.903 232.195 104.412C232.082 104.285 231.94 104.157 231.884 104.079L231.579 103.704L230.963 102.953C224.462 95.0361 217.853 86.9748 211.135 78.7695L211.411 78.0614C211.539 77.7002 211.659 77.3532 211.772 76.9779C211.992 76.2697 212.183 75.5191 212.346 74.7755C212.665 73.256 212.846 71.7105 212.884 70.1583C212.922 68.5504 212.806 66.9426 212.537 65.3569C212.402 64.5335 212.222 63.7179 211.999 62.9138C211.893 62.503 211.765 62.0923 211.631 61.6887L211.425 61.0726L211.234 60.5627V59.812V58.941C211.234 58.3674 211.199 57.7867 211.156 57.206C211.092 56.0517 210.972 54.8974 210.816 53.7431C210.512 51.4242 210.039 49.1307 209.4 46.881C206.714 37.6302 201.163 29.4702 193.545 23.5753C191.633 22.0813 189.632 20.705 187.554 19.4538C185.478 18.1627 183.315 17.0174 181.081 16.0263C176.568 14.0307 171.825 12.6034 166.961 11.7773C163.683 11.2324 160.369 10.9318 157.047 10.8779C157.047 11.1683 157.047 11.4657 157.047 11.7702V12.0393C160.288 12.0935 163.522 12.387 166.72 12.9174C171.493 13.7215 176.149 15.1155 180.578 17.0673C189.218 21.0896 197.192 26.9107 202.375 34.7005C204.964 38.5362 206.942 42.7503 208.239 47.1925C208.878 49.3846 209.351 51.6216 209.655 53.8847C209.811 55.0107 209.924 56.1437 209.988 57.2697C210.03 57.8362 210.044 58.4028 210.066 58.9622V59.812V60.768L210.321 61.4762L210.526 62.0569C210.653 62.4464 210.774 62.8359 210.873 63.2254C211.089 63.994 211.262 64.7742 211.39 65.5623C211.652 67.063 211.769 68.5856 211.737 70.1087C211.701 71.5871 211.53 73.0591 211.227 74.5064C211.078 75.2146 210.894 75.9227 210.682 76.6309C210.576 76.9779 210.462 77.3391 210.335 77.6648L210.151 78.1676L209.825 78.9891L230.149 103.654L230.765 104.405L231.069 104.78C231.218 104.965 231.324 105.042 231.423 105.163C231.845 105.606 232.233 106.079 232.585 106.579C232.933 107.069 233.221 107.599 233.442 108.158C233.655 108.651 233.714 109.196 233.612 109.723C233.435 110.644 232.195 111.225 231.091 111.848C230.531 112.159 229.986 112.457 229.433 112.712C228.881 112.967 228.293 113.151 227.663 113.455C226.469 114.055 225.386 114.855 224.462 115.821C223.531 116.774 222.782 117.89 222.253 119.114C221.986 119.741 221.815 120.404 221.743 121.082C221.686 121.734 221.686 122.35 221.658 122.98L221.587 124.871L221.481 126.995L221.757 127.201L221.977 127.371C222.055 127.435 222.14 127.505 222.217 127.583C222.373 127.73 222.519 127.886 222.657 128.051C222.928 128.383 223.155 128.749 223.329 129.141C223.668 129.923 223.784 130.783 223.662 131.627C223.525 132.477 223.187 133.283 222.678 133.978C222.425 134.324 222.13 134.638 221.8 134.913C221.345 135.291 220.84 135.603 220.298 135.84L220.695 136.874C220.759 137.066 220.822 137.264 220.879 137.462C220.996 137.857 221.086 138.259 221.148 138.666C221.286 139.463 221.286 140.277 221.148 141.074C221.012 141.856 220.71 142.599 220.263 143.255C219.81 143.921 219.236 144.579 218.705 145.259C217.629 146.612 216.616 148 215.653 149.416L214.945 150.485L214.598 151.023L214.435 151.278L214.357 151.399C214.354 151.448 214.354 151.498 214.357 151.548L214.449 151.987C214.593 152.791 214.674 153.606 214.69 154.423C214.834 157.679 213.767 160.873 211.694 163.388C210.666 164.63 209.406 165.659 207.984 166.419C205.163 167.887 201.915 168.308 198.813 167.609C198.051 167.437 197.304 167.2 196.583 166.9L194.359 165.994L192.419 165.187L192.737 165.442C194.292 166.548 195.952 167.497 197.694 168.274C197.999 168.359 198.303 168.451 198.608 168.515C200.251 168.878 201.944 168.959 203.614 168.756C205.302 168.541 206.938 168.033 208.451 167.255C211.549 165.641 213.889 162.873 214.966 159.55C215.484 157.889 215.723 156.154 215.674 154.416C215.656 153.542 215.571 152.67 215.419 151.81L215.384 151.632C215.384 151.632 215.384 151.632 215.384 151.59L215.724 151.066L216.432 150.011C217.388 148.594 218.386 147.249 219.449 145.918C219.973 145.252 220.539 144.608 221.056 143.857C221.584 143.082 221.942 142.203 222.104 141.279C222.26 140.367 222.26 139.436 222.104 138.524C222.034 138.072 221.934 137.625 221.807 137.186C221.743 136.966 221.672 136.754 221.601 136.534L221.531 136.343H221.566L221.778 136.209C221.993 136.068 222.199 135.914 222.394 135.748C223.591 134.75 224.383 133.35 224.625 131.811C224.781 130.768 224.638 129.703 224.214 128.738C224.006 128.258 223.732 127.81 223.4 127.406C223.232 127.205 223.052 127.013 222.862 126.833L222.572 126.571L222.494 126.514L222.572 124.921L222.642 123.058C222.642 122.442 222.642 121.798 222.727 121.203C222.791 120.627 222.939 120.064 223.166 119.531C224.16 117.325 225.883 115.527 228.046 114.44C228.562 114.192 229.193 113.994 229.795 113.732C230.397 113.47 230.977 113.144 231.53 112.832C232.114 112.526 232.682 112.188 233.229 111.82C233.533 111.621 233.809 111.382 234.051 111.111C234.312 110.803 234.497 110.436 234.589 110.042C234.769 109.296 234.715 108.512 234.433 107.797Z" fill="#3F00F9"/>
<path d="M145.929 141.527H144.874C144.874 141.576 144.937 141.619 144.966 141.661H146.007L145.929 141.527Z" fill="#3F00F9"/>
<path d="M168.476 155.265L164.291 153.544L162.223 152.687L161.706 152.475C161.668 152.457 161.627 152.442 161.586 152.433H161.522L161.388 152.397L161.126 152.319L160.085 152.001C157.35 151.085 154.765 149.771 152.415 148.099C149.929 146.323 147.756 144.145 145.985 141.654H144.944C146.822 144.432 149.179 146.854 151.905 148.807C154.321 150.539 156.982 151.9 159.801 152.843C160.155 152.971 160.509 153.077 160.878 153.183L161.366 153.325L161.876 153.537L163.937 154.394L168.101 156.122L178.454 160.406C178.206 159.996 177.944 159.542 177.668 159.061L168.476 155.265Z" fill="#3F00F9"/>
<path d="M189.728 164.061L185.535 162.333L178.454 159.415C178.695 159.89 178.921 160.322 179.127 160.718L185.146 163.218L192.419 166.249L192.199 166.107C191.338 165.471 190.513 164.788 189.728 164.061Z" fill="#3F00F9"/>
<path d="M140.823 127.18C140.731 125.869 140.731 124.553 140.823 123.242C140.866 121.826 140.823 120.579 140.823 119.262C140.823 117.341 140.823 115.441 140.823 113.562H140.044C140.044 115.459 140.044 117.364 140.044 119.291C140.044 120.587 140.044 121.946 140.044 123.207C139.949 124.558 139.949 125.914 140.044 127.264C140.226 130.021 140.793 132.739 141.73 135.338C142.532 137.528 143.6 139.611 144.909 141.541H145.964C144.534 139.534 143.377 137.345 142.523 135.033C141.592 132.507 141.02 129.864 140.823 127.18Z" fill="#3F00F9"/>
<path d="M156.607 21.7695V21.8615H157.273V21.7482C157.181 17.9808 157.103 14.7162 157.039 12.0181H156.572C156.579 14.7233 156.593 17.9879 156.607 21.7695Z" fill="#3F00F9"/>
<path d="M187.327 160.145L186.739 159.337L186.194 158.502C185.823 157.942 185.501 157.352 185.231 156.738C184.685 155.456 184.249 154.129 183.928 152.773C182.589 147.178 181.463 141.095 180.387 134.686C179.311 128.277 178.263 121.479 176.23 114.645C175.282 111.114 173.852 107.73 171.981 104.589C170.994 103.006 169.915 101.481 168.752 100.022C168.171 99.2709 167.47 98.6052 167.01 97.897C166.513 97.1578 166.102 96.3643 165.785 95.5318C165.153 93.8782 164.982 92.0842 165.289 90.3409C165.538 88.621 166.276 87.0086 167.414 85.6954C167.699 85.3932 168.009 85.116 168.341 84.8668C168.692 84.6294 169.062 84.421 169.446 84.2436C170.305 83.8351 171.105 83.3135 171.826 82.6928C173.286 81.5432 174.478 80.088 175.318 78.4292C176.157 76.7704 176.623 74.9481 176.683 73.0901C176.683 71.348 176.683 69.613 176.683 67.8992C176.683 64.5 176.683 61.1646 176.719 57.9141C176.754 54.6637 176.719 51.4982 176.719 48.4176C176.719 46.8739 176.719 45.3725 176.719 43.8571C176.767 42.3295 176.559 40.8047 176.103 39.3461C175.635 37.9146 174.829 36.6172 173.752 35.5645C172.718 34.5918 171.538 33.7888 170.253 33.1851C167.902 32.0943 165.496 31.1252 163.044 30.2816C161.883 29.8614 160.738 29.479 159.61 29.1344L157.939 28.6386L157.344 28.4758C157.28 28.4758 157.344 28.3908 157.344 28.3483V28.0013C157.294 25.9193 157.259 23.9506 157.216 22.0952H156.551C156.551 23.9506 156.551 25.9193 156.551 28.0084V29.0352C156.551 29.106 156.643 29.0848 156.685 29.106L157.719 29.4035L159.362 29.9133C160.472 30.2769 161.6 30.6687 162.747 31.0889C165.034 31.9741 167.477 32.831 169.829 34.0207C171.02 34.5923 172.115 35.3474 173.072 36.2585C174.03 37.2123 174.744 38.3832 175.154 39.6718C175.565 41.0321 175.747 42.4513 175.692 43.8712C175.65 45.3371 175.692 46.8739 175.635 48.4106C175.635 51.4982 175.609 54.6707 175.557 57.9283C175.506 61.1858 175.527 64.5166 175.621 67.9205C175.621 69.613 175.621 71.3267 175.579 73.0476C175.503 74.7272 175.084 76.3734 174.347 77.8843C173.553 79.3992 172.456 80.7346 171.124 81.8076C170.481 82.3707 169.767 82.8469 169 83.2239C168.558 83.4238 168.134 83.6607 167.732 83.9321C167.331 84.2237 166.959 84.5534 166.621 84.9164C165.32 86.3942 164.474 88.2165 164.185 90.1639C163.841 92.1145 164.034 94.1217 164.744 95.9708C165.091 96.8905 165.543 97.7673 166.09 98.584C166.684 99.4408 167.35 100.05 167.902 100.772C169.031 102.196 170.081 103.68 171.047 105.219C172.87 108.266 174.264 111.55 175.189 114.978C177.215 121.727 178.27 128.433 179.389 134.877C180.507 141.322 181.633 147.376 183.021 153.028C183.376 154.437 183.849 155.813 184.438 157.142C184.735 157.789 185.083 158.412 185.479 159.004L186.052 159.876C186.258 160.152 186.47 160.428 186.668 160.704C187.61 161.916 188.657 163.042 189.798 164.068L192.489 165.18C190.539 163.754 188.8 162.059 187.327 160.145Z" fill="#3F00F9"/>
<path d="M156.572 12.0391H157.039V11.7487C157.039 11.4442 157.039 11.1468 157.039 10.8564H156.607V12.0391H156.572Z" fill="#3F00F9"/>
<path d="M157.28 22.1094V21.8687H156.615V22.1236L157.28 22.1094Z" fill="#3F00F9"/>
<path d="M192.419 165.173L189.728 164.061C190.529 164.789 191.371 165.473 192.249 166.107L192.468 166.249L193.984 166.879L196.214 167.8C196.696 167.984 197.192 168.147 197.687 168.296C195.945 167.518 194.284 166.569 192.73 165.463L192.419 165.173Z" fill="#3F00F9"/>
<path d="M118.148 69.5845L125.116 62.602L119.841 57.4324L119.961 57.1917L120.28 56.5685C120.478 56.1507 120.697 55.7612 120.867 55.3575C121.037 54.9539 121.193 54.5502 121.335 54.1466L121.54 53.5375L121.604 53.3393H128.848C128.848 50.0062 128.848 46.7415 128.848 43.5454H121.448L121.384 43.2975L121.186 42.6743C121.051 42.2565 120.896 41.8458 120.726 41.4492C120.556 41.0526 120.372 40.656 120.173 40.2736L119.869 39.7142L119.741 39.4947L124.798 34.2472L118.113 27.6188L112.929 32.76L112.632 32.5759L112.058 32.2501C111.669 32.0448 111.279 31.8607 110.89 31.6907C110.5 31.5207 110.096 31.3791 109.7 31.2516L109.098 31.0746L108.893 31.018H108.779C108.779 28.3977 108.765 25.9782 108.737 23.7593L99.453 23.8584C99.453 25.1119 99.4884 26.2308 99.5025 27.1939C99.5167 28.157 99.545 28.8651 99.5592 29.4812C99.5733 30.0973 99.6017 30.5647 99.6088 30.8976C99.6036 31.0577 99.6227 31.2176 99.6654 31.372C99.7081 31.2176 99.7272 31.0577 99.7221 30.8976C99.7221 30.5789 99.7221 30.1115 99.7716 29.4812L99.8778 24.2762L108.128 24.3683C108.128 26.5683 108.104 28.9737 108.057 31.5845L108.524 31.6978L108.9 31.804L109.466 31.9811C109.841 32.1085 110.217 32.2502 110.592 32.413C110.967 32.5759 111.3 32.76 111.69 32.9583L112.235 33.2699L112.575 33.4894L113.035 33.7869L118.106 28.8297L123.459 34.2401L118.467 39.3389L118.771 39.8275L118.977 40.1887L119.267 40.7198C119.451 41.0786 119.621 41.4468 119.777 41.8245C119.933 42.2022 120.074 42.5846 120.202 42.9717L120.379 43.5595L120.485 43.9773L120.627 44.558H127.758C127.758 47.046 127.758 49.586 127.758 52.1779H120.775L120.485 53.1622L120.287 53.7287C120.15 54.1112 120.001 54.4936 119.841 54.876C119.678 55.2655 119.465 55.6337 119.274 56.0232L118.46 57.6236L123.487 62.5808L118.169 67.892L113.156 62.8782L112.27 63.3881L111.753 63.6572C111.404 63.8366 111.043 64.0066 110.67 64.1671C110.295 64.3229 109.898 64.4433 109.509 64.5849L108.014 65.0948L107.752 65.1868C107.752 67.5096 107.752 69.8111 107.788 72.0914H100.289C100.289 69.679 100.289 67.2948 100.289 64.939L99.6512 64.8611L99.3467 64.8186H99.1768C98.9785 64.8186 98.7802 64.7336 98.589 64.684C98.1999 64.5854 97.8188 64.4576 97.4489 64.3016C97.0823 64.1455 96.7273 63.9632 96.3867 63.7563C96.2167 63.6572 96.0468 63.551 95.8839 63.4377L95.5015 63.1473L95.0058 62.7508L89.8717 67.8424L84.5252 62.5241C86.2153 60.8245 87.8677 59.158 89.4822 57.5245C88.9582 56.6676 88.8591 56.4693 88.6537 56.0728C88.4484 55.6762 88.2855 55.315 88.1297 54.9326C87.9739 54.5502 87.8252 54.1607 87.6977 53.7712L87.5136 53.1835L87.4003 52.7727L87.2587 52.1991H80.2338C80.2338 49.5577 80.2338 47.0012 80.1984 44.551L87.2445 44.5085L87.4074 43.8003L87.5207 43.3683C87.5915 43.1134 87.6765 42.8584 87.7614 42.6035C87.9253 42.1018 88.1289 41.614 88.3705 41.1447L89.2131 39.5584L89.291 39.4097C89.291 39.3672 89.2273 39.3318 89.199 39.2964L88.9653 39.0627L88.6183 38.7157L88.066 38.1704L84.1428 34.3038L89.808 28.5181L94.765 33.3761C95.2891 33.0645 95.5794 32.9087 95.9193 32.7388C96.2592 32.5688 96.5566 32.4272 96.847 32.2997C97.4347 32.0448 97.9446 31.8607 98.3553 31.719C98.7823 31.6013 99.2031 31.4619 99.6158 31.3012C99.1703 31.3222 98.7296 31.4032 98.3058 31.542C97.8809 31.6553 97.3568 31.8182 96.7478 32.0448C96.4433 32.1652 96.1247 32.2997 95.7777 32.4555C95.4307 32.6113 95.0695 32.8167 94.8288 32.93L89.7797 27.7533L83.1231 34.3038L87.4711 38.7157C87.7969 39.0627 88.335 39.5372 88.2642 39.5726L87.5986 40.7906C87.3394 41.2883 87.1169 41.8043 86.9329 42.3344C86.8409 42.5964 86.7559 42.8655 86.6709 43.1417L86.5293 43.6516H79.2424C79.2424 46.7061 79.2306 49.8834 79.207 53.1835H86.4089L86.4726 53.4242L86.6638 54.0545C86.7984 54.4723 86.9471 54.8831 87.117 55.2938C87.287 55.7045 87.4711 56.1082 87.6694 56.5047C87.8677 56.9013 88.0659 57.2554 88.1084 57.3262L82.9177 62.4887L89.8009 69.3933C91.5075 67.7008 93.2567 65.9871 95.02 64.2379L95.1545 64.337C95.3386 64.4645 95.5298 64.592 95.721 64.7053C96.1081 64.9436 96.513 65.152 96.932 65.3285C97.3501 65.5064 97.7809 65.6532 98.2208 65.7675C98.4403 65.8242 98.6669 65.8808 98.8935 65.9162L99.0635 65.9517C99.0635 68.3547 99.0635 70.7884 99.0635 73.2528H108.893C108.893 70.8592 108.893 68.4444 108.893 66.0083L109.856 65.6755C110.266 65.5268 110.691 65.3993 111.088 65.2293C111.484 65.0594 111.874 64.8823 112.242 64.6911L112.908 64.337L118.148 69.5845Z" fill="#3F00F9"/>
<path d="M94.5667 41.1165C93.3184 42.6829 92.4967 44.5457 92.1815 46.5238C91.8663 48.5018 92.0683 50.5278 92.768 52.4046C93.6111 54.6269 95.0702 56.5626 96.9744 57.985C99.0175 59.5193 101.501 60.3537 104.056 60.3644C105.351 60.3566 106.637 60.1438 107.866 59.7341C109.05 59.3175 110.164 58.7255 111.173 57.9779C112.147 57.2615 113.004 56.3992 113.715 55.4214C114.412 54.4965 114.961 53.4693 115.344 52.3763C116.029 50.4909 116.218 48.4608 115.891 46.4815C115.565 44.502 114.735 42.6399 113.481 41.074C112.533 39.8898 111.367 38.8972 110.047 38.1493C109.06 37.5811 107.989 37.1724 106.874 36.9383C106.474 36.8417 106.067 36.7801 105.656 36.7542C105.359 36.7089 105.057 36.6971 104.757 36.7188C104.268 36.7188 104.049 36.7542 104.049 36.7967C104.049 36.8392 105.069 36.8959 106.789 37.3845C107.83 37.6842 108.822 38.1326 109.735 38.7158C110.941 39.4731 111.995 40.4481 112.844 41.591C113.95 43.0542 114.668 44.7727 114.933 46.5875C115.198 48.4022 115.001 50.2545 114.359 51.9727C113.997 52.9602 113.486 53.8867 112.844 54.7203C112.192 55.6039 111.406 56.3804 110.514 57.0219C109.6 57.6929 108.59 58.2228 107.519 58.594C106.413 58.9608 105.256 59.152 104.091 59.1605C101.779 59.1546 99.5284 58.4102 97.6684 57.036C95.9272 55.7559 94.5822 54.0108 93.7877 52.001C93.0864 50.1745 92.8955 48.1916 93.2354 46.2649C93.5376 44.577 94.2312 42.9835 95.2607 41.6122C96.7684 39.5913 98.8902 38.113 101.308 37.3987C103.029 36.9029 104.056 36.9242 104.049 36.8038C104.042 36.6834 103.794 36.7401 103.341 36.7259C103.038 36.7078 102.734 36.7196 102.434 36.7613L101.861 36.818L101.216 36.9525C100.103 37.1875 99.0344 37.5987 98.0508 38.1705C96.711 38.9197 95.5281 39.9199 94.5667 41.1165Z" fill="#3F00F9"/>
<path d="M99.1414 43.4391C99.2122 43.517 99.6654 43.085 100.629 42.5893C101.968 41.8954 103.494 41.6473 104.984 41.8811C105.992 42.0315 106.95 42.4173 107.781 43.0071C108.728 43.6733 109.477 44.5837 109.948 45.6415C110.469 46.8043 110.639 48.0941 110.437 49.3523C110.234 50.6997 109.604 51.9467 108.641 52.9102C107.677 53.8738 106.43 54.5031 105.083 54.706C103.822 54.9033 102.531 54.7413 101.358 54.2386C100.305 53.7773 99.3929 53.0441 98.7165 52.1141C98.1246 51.271 97.7389 50.3008 97.5905 49.2814C97.3601 47.789 97.608 46.262 98.2987 44.9191C98.7944 43.9631 99.2264 43.5028 99.1485 43.432C99.0706 43.3612 98.5607 43.7365 97.9021 44.6855C96.9857 46.0721 96.5824 47.7353 96.762 49.3877C96.8889 50.6374 97.3389 51.8326 98.0677 52.8557C98.7966 53.8789 99.7792 54.6947 100.919 55.2229C102.278 55.8366 103.784 56.0503 105.26 55.839C106.421 55.6621 107.524 55.2162 108.481 54.5369C109.439 53.8577 110.224 52.9638 110.775 51.9268C111.325 50.8899 111.625 49.7385 111.652 48.5648C111.678 47.391 111.429 46.2275 110.925 45.167C110.349 43.9474 109.444 42.9125 108.312 42.1786C107.131 41.4085 105.752 40.9985 104.343 40.9985C102.933 40.9985 101.554 41.4085 100.374 42.1786C99.4601 42.8513 99.1414 43.4037 99.1414 43.4391Z" fill="#3F00F9"/>
<path d="M83.7675 78.911C83.8543 78.7425 83.9209 78.5642 83.9658 78.3799L84.0508 78.1179V78.0117C84.0508 77.9196 84.1287 77.9338 84.1995 77.9338H85.1201H87.2445C87.2091 76.2413 87.1808 74.7966 87.1525 73.6211L85.5875 73.6706L84.5961 73.7273C84.3227 73.713 84.0491 73.749 83.7888 73.8335C84.0501 73.9136 84.3229 73.9495 84.5961 73.9397L86.7205 74.0389C86.7205 74.2372 86.7205 74.4355 86.7205 74.6479C86.7205 74.8604 86.7205 75.2428 86.7205 75.5614C86.7205 75.8801 86.7205 76.2059 86.7205 76.5529V77.3248C86.5718 77.3248 85.8141 77.3248 85.198 77.2823H84.1428H83.5622V77.3814L83.4913 77.5726L83.2789 78.1887C83.233 78.3512 83.1689 78.508 83.0877 78.6561C83.0027 78.8119 82.9107 78.9748 82.8115 79.1377C82.7124 79.4068 82.3441 79.6971 82.7195 79.9025L83.2293 80.4336L84.0295 81.2692L84.4473 81.7012L84.5677 81.8287L82.5637 83.7761L82.4929 83.7053L82.1954 83.4008L81.4873 82.6926L80.5525 81.772C80.4534 81.5808 80.2976 81.772 80.156 81.772L79.724 81.9916L79.292 82.2111C79.1442 82.2801 78.99 82.3346 78.8317 82.374L78.1236 82.6077L77.8828 82.6856C77.8262 82.6856 77.8403 82.7422 77.8403 82.7847V83.9957C77.8403 84.3639 77.8403 84.7038 77.8403 85.1004V85.6811H75.1564V85.2137C75.1564 84.8738 75.1564 84.5055 75.1564 84.1798V83.2379C75.1564 83.0821 75.1919 82.8768 75.1564 82.7493L73.8393 82.2677C73.686 82.207 73.5369 82.1361 73.3932 82.0553L72.6496 81.68C72.5788 81.68 72.4867 81.5596 72.423 81.595L72.2389 81.7862L71.8706 82.1615L71.4812 82.551L70.7234 83.3229L70.3764 83.6699L68.5494 81.8358L69.9657 80.4194L70.3623 80.0229L70.596 79.7892C70.6668 79.7538 70.596 79.6971 70.596 79.6475L70.5252 79.4988L70.1073 78.6561C70.0013 78.4768 69.9203 78.2838 69.8666 78.0825L69.5267 77.1123L69.4913 76.999H66.5949V74.4355H69.6471L69.7108 73.8689C69.73 73.728 69.7584 73.5884 69.7958 73.4511C69.8336 73.2987 69.8833 73.1496 69.9445 73.005C70.0053 72.8609 70.0763 72.7212 70.1569 72.5872C70.2306 72.4631 70.3134 72.3447 70.4048 72.2331L70.7518 71.8011L68.5636 69.5987L70.4118 67.7221L72.5363 69.797L73.4781 69.3084C73.6591 69.202 73.8515 69.1164 74.0517 69.0534L74.8732 68.7843L75.1706 68.6852C75.2343 68.6285 75.1706 68.4869 75.1706 68.3948V67.8212C75.1706 67.3822 75.1706 66.9431 75.1706 66.5111V65.7109H77.9465C77.9465 66.7377 77.9465 67.7362 77.9819 68.6852L78.591 68.8339L78.8034 68.8905L78.9663 68.9472C79.1761 69.012 79.3798 69.0949 79.5753 69.1951L80.4038 69.627L80.4605 69.6624L80.51 69.6129L80.6092 69.5137L80.8075 69.3154L81.112 69.0038L82.0113 68.0762L82.4504 67.6229L82.6274 67.4317L84.9147 69.6129C84.4048 70.1652 83.9445 70.6468 83.548 71.0717L83.2081 71.4399L83.0098 71.6453L82.9107 71.7515L82.9744 71.8719C83.116 72.1481 83.2506 72.396 83.3709 72.5801C83.5209 73.0155 83.7081 73.4373 83.9304 73.8406C83.9084 73.3709 83.8054 72.9085 83.6259 72.4738L83.3639 71.8577V71.7869L83.4205 71.7374L83.5338 71.6311L83.8666 71.3266L84.6385 70.6185L85.7008 69.5987L82.6486 66.4474L80.5879 68.4515L80.418 68.6144C80.418 68.6144 80.3613 68.6852 80.333 68.671L80.2339 68.6144L79.9435 68.4515C79.7148 68.3358 79.4781 68.2364 79.2354 68.1541L78.9238 68.0478H78.8246C78.8246 67.0139 78.8246 65.9233 78.8246 64.8115H74.165C74.165 65.8171 74.165 66.851 74.165 67.8991V67.9912H74.0801L73.7331 68.0974C73.5011 68.1692 73.2778 68.2666 73.0674 68.3878L72.7841 68.5223L70.4827 66.1924L67.0481 69.6129L69.3071 71.9073L69.2434 72.0065C69.1364 72.1863 69.0417 72.3732 68.9602 72.5659C68.8771 72.7588 68.8084 72.9577 68.7548 73.1608V73.2882H65.5256V78.2454H68.7548L68.861 78.5499C68.931 78.7803 69.0235 79.0033 69.1372 79.2156L69.3001 79.5342V79.5767L69.2363 79.6405L66.9773 81.8995L70.4756 85.3907L72.4018 83.415L72.77 83.0396L72.9753 83.1459C73.1391 83.2367 73.3095 83.3148 73.4852 83.3796L74.0092 83.5708L74.1367 83.6203V84.2364C74.1367 85.1146 74.1367 85.9856 74.1367 86.8425H78.9946C78.9946 85.9077 78.9946 84.9942 78.9946 84.0877V83.5849V83.5283L79.2849 83.4291C79.4674 83.3755 79.645 83.3068 79.8161 83.2238L80.3188 82.9617C80.3188 82.9617 80.3613 82.9193 80.3897 82.9617L80.9278 83.4787C81.5368 84.0523 82.1246 84.6259 82.7124 85.1783L85.9132 81.9207L83.9375 79.952L83.6542 79.6759C83.5763 79.6405 83.6542 79.5767 83.6542 79.5272L83.7675 78.911Z" fill="#3F00F9"/>
<path d="M81.4379 75.6747C81.3458 75.6747 81.3104 76.1137 81.0625 76.829C80.7176 77.8207 80.0745 78.6814 79.2213 79.2934C78.5533 79.7774 77.7649 80.0681 76.9426 80.1335C76.1203 80.1988 75.2959 80.0364 74.5599 79.664C73.8238 79.2916 73.2046 78.7236 72.7702 78.0223C72.3357 77.3211 72.1029 76.5137 72.0972 75.6888C72.1118 74.7885 72.3926 73.9125 72.9043 73.1715C73.4159 72.4305 74.1355 71.8575 74.9723 71.5248C75.6685 71.2512 76.4222 71.1565 77.1645 71.2493C77.9067 71.3421 78.6139 71.6194 79.2213 72.056C80.0768 72.6656 80.7205 73.5272 81.0625 74.5204C81.3104 75.2285 81.3529 75.6747 81.4449 75.6747C81.537 75.6747 81.6361 75.2285 81.5087 74.4071C81.3013 73.2213 80.6695 72.1515 79.7312 71.3974C79.0828 70.8551 78.3124 70.4784 77.4863 70.2997C76.5228 70.0984 75.5223 70.1695 74.597 70.5051C73.5728 70.8797 72.6797 71.544 72.0264 72.4171C71.3102 73.3588 70.9224 74.5093 70.9224 75.6924C70.9224 76.8755 71.3102 78.026 72.0264 78.9676C72.68 79.8449 73.5797 80.508 74.6112 80.8726C75.4733 81.1747 76.3987 81.2494 77.2981 81.0893C78.1975 80.9293 79.0404 80.54 79.7453 79.9591C80.6751 79.1957 81.3027 78.1263 81.5158 76.9423C81.6432 76.1208 81.5228 75.6676 81.4379 75.6747Z" fill="#3F00F9"/>
<path d="M78.6052 73.5716C78.5415 73.6353 78.6902 73.8619 78.8602 74.2797C79.097 74.8457 79.161 75.4691 79.0443 76.0714C78.9619 76.5254 78.7568 76.9482 78.4513 77.294C78.1458 77.6398 77.7514 77.8954 77.311 78.0331C76.8706 78.1707 76.4009 78.1852 75.9528 78.075C75.5047 77.9648 75.0954 77.734 74.7691 77.4077C74.4428 77.0814 74.212 76.6721 74.1018 76.224C73.9916 75.7759 74.0061 75.3062 74.1437 74.8658C74.2814 74.4254 74.537 74.031 74.8828 73.7255C75.2286 73.42 75.6514 73.2149 76.1054 73.1325C76.7079 73.0195 77.3302 73.0835 77.8971 73.3166C78.3078 73.4866 78.5415 73.6353 78.6052 73.5716C78.669 73.5078 78.5344 73.2529 78.1308 72.9201C77.5224 72.4606 76.7661 72.2413 76.0063 72.304C75.417 72.3496 74.8501 72.5497 74.3628 72.8842C73.8755 73.2186 73.4848 73.6755 73.2303 74.2089C72.8956 74.8745 72.7793 75.6287 72.8981 76.3642C73.0168 77.0997 73.3645 77.7789 73.8917 78.3053C74.4189 78.8317 75.0987 79.1784 75.8344 79.2961C76.57 79.4138 77.324 79.2964 77.9891 78.9607C78.5204 78.7031 78.9748 78.3104 79.3066 77.8219C79.6384 77.3335 79.8361 76.7665 79.8799 76.1776C79.9474 75.4173 79.7276 74.6594 79.2638 74.0531C78.9097 73.6495 78.6406 73.522 78.6052 73.5716Z" fill="#3F00F9"/>
<path d="M150.751 26.5141C151.454 27.5834 152.252 28.5861 153.138 29.5097C153.692 30.1018 154.302 30.64 154.958 31.1172C155.709 31.6382 156.517 32.0729 157.365 32.4131C159.115 33.1213 161.112 33.617 162.648 35.005C164.262 36.5502 165.347 38.5648 165.75 40.7624L165.793 40.9819C165.793 41.0952 165.793 40.9819 165.793 41.1023V44.4165C165.793 45.7053 165.793 47.0225 165.793 48.3539C165.793 51.0307 165.793 53.8067 165.793 56.6465C165.793 62.3118 165.835 67.6726 165.856 72.566C165.768 73.6495 165.427 74.6972 164.86 75.6247C164.293 76.5521 163.516 77.3334 162.592 77.9055C161.737 78.4125 160.787 78.7401 159.802 78.8686C159.333 78.9385 158.859 78.9622 158.385 78.9395C157.847 78.897 157.408 78.9395 156.933 78.9395C155.007 78.9395 153.272 78.982 151.757 79.0103C151.675 79.235 151.576 79.4529 151.459 79.6618C153.046 79.6972 154.873 79.7397 156.933 79.7751C157.387 79.7751 157.897 79.7751 158.35 79.8247C158.874 79.8599 159.4 79.8456 159.922 79.7822C161.038 79.6618 162.117 79.3148 163.094 78.7624C164.148 78.1464 165.043 77.2928 165.708 76.2697C166.405 75.1898 166.835 73.9588 166.961 72.6793C167.002 72.3505 167.019 72.0191 167.011 71.6879C167.011 71.3479 167.011 71.0647 167.011 70.7389V68.834C167.011 67.5451 167.011 66.235 167.011 64.8966C167.011 62.2197 167.011 59.4579 167.011 56.6181C167.011 53.7784 167.011 51.0166 166.975 48.3468C166.975 47.0084 166.975 45.6983 166.975 44.4094C166.975 43.765 166.975 43.1276 166.975 42.5045C166.975 42.1858 166.975 41.8742 166.975 41.5626V40.9323C166.975 40.8544 166.975 40.7907 166.975 40.7624L166.926 40.5287C166.444 38.1176 165.203 35.924 163.385 34.2685C162.54 33.5616 161.582 33.0015 160.552 32.6114C159.582 32.2361 158.647 31.967 157.805 31.6341C156.999 31.3418 156.229 30.9593 155.51 30.494C154.875 30.0649 154.28 29.579 153.733 29.0423C152.834 28.1767 152.005 27.2414 151.254 26.245L150.78 25.6006V26.3583L150.751 26.5141Z" fill="#3F00F9"/>
<path d="M150.305 25.7987C150.411 25.9758 150.524 26.1599 150.652 26.3582V25.6004C150.532 25.4305 150.411 25.2676 150.312 25.1118C150.305 25.3384 150.305 25.565 150.305 25.7987Z" fill="#3F00F9"/>
<path d="M171.733 141.329C170.855 136.633 169.885 131.478 168.901 126.068C168.398 123.362 167.902 120.721 167.428 118.172C167.371 117.853 167.3 117.541 167.258 117.216C167.201 116.863 167.111 116.517 166.989 116.182C166.748 115.511 166.37 114.898 165.877 114.383C164.91 113.41 163.62 112.825 162.251 112.74L155.418 112.811L149.505 112.896C145.893 112.96 142.968 113.03 140.95 113.108H140.83V113.554H140.922C142.947 113.618 145.879 113.675 149.483 113.717L162.124 113.816C163.222 113.888 164.256 114.362 165.027 115.148C165.412 115.553 165.704 116.036 165.884 116.564C165.978 116.831 166.047 117.106 166.089 117.386C166.132 117.704 166.203 118.023 166.252 118.342C166.727 120.905 167.208 123.561 167.704 126.273C168.738 131.698 169.708 136.86 170.664 141.555C171.645 145.701 173.05 149.735 174.856 153.594C175.848 155.718 176.804 157.545 177.646 159.033L178.503 159.387C177.675 157.758 176.669 155.704 175.621 153.261C173.952 149.415 172.65 145.42 171.733 141.329Z" fill="#3F00F9"/>
<path d="M177.647 159.061C177.923 159.543 178.185 159.996 178.433 160.407L179.141 160.718C178.936 160.322 178.709 159.89 178.468 159.415L177.647 159.061Z" fill="#3F00F9"/>
<path d="M140.023 113.533H140.802V113.087H140.023V113.533Z" fill="#3F00F9"/>
<path d="M155.234 83.8965H155.793C155.934 83.9048 156.073 83.9359 156.204 83.9885C156.474 84.0983 156.694 84.3055 156.82 84.5692C156.961 84.8213 156.997 85.1194 156.919 85.3978C156.721 85.7174 156.483 86.0102 156.211 86.2688C154.977 87.818 154.262 89.7155 154.164 91.6934C154.029 93.8751 154.554 96.047 155.673 97.9252C156.29 98.9283 157.134 99.7724 158.137 100.39C159.135 101.034 160.261 101.395 161.175 101.877C161.609 102.095 161.996 102.395 162.315 102.762C162.458 102.945 162.58 103.145 162.676 103.357C162.782 103.565 162.861 103.787 162.91 104.015C163.153 104.94 163.06 105.922 162.648 106.784C162.43 107.175 162.135 107.518 161.781 107.792C161.426 108.066 161.02 108.265 160.587 108.378C160.143 108.506 159.682 108.565 159.22 108.555H157.733L147.316 108.689C144.618 108.739 142.359 108.796 140.759 108.866V109.362C142.395 109.426 144.618 109.482 147.324 109.525L157.755 109.645H159.249C159.806 109.662 160.363 109.593 160.899 109.44C161.481 109.292 162.027 109.028 162.505 108.662C162.982 108.297 163.38 107.839 163.675 107.315C164.225 106.207 164.361 104.939 164.057 103.739C163.913 103.11 163.632 102.52 163.236 102.011C162.824 101.514 162.312 101.109 161.734 100.822C160.651 100.255 159.61 99.9293 158.753 99.4053C157.886 98.8765 157.157 98.1481 156.629 97.2808C155.622 95.6119 155.129 93.6832 155.212 91.7358C155.27 89.9765 155.868 88.2777 156.926 86.8708C157.267 86.5237 157.547 86.1215 157.755 85.6811C157.829 85.4207 157.85 85.148 157.818 84.8792C157.785 84.6103 157.698 84.3508 157.563 84.116C157.324 83.6651 156.925 83.3194 156.445 83.1458C156.218 83.06 155.978 83.0168 155.736 83.0184H155.17C153.045 83.0538 151.275 83.0962 149.802 83.1387C149.802 83.3299 149.837 83.5282 149.852 83.7194C151.374 83.8115 153.159 83.854 155.234 83.8965Z" fill="#3F00F9"/>
<path d="M140.313 108.909H140.016V109.341H140.32H140.78V108.845L140.313 108.909Z" fill="#3F00F9"/>
<path d="M149.236 83.7409H149.944C149.944 83.5497 149.944 83.3514 149.894 83.1602H149.229C149.215 83.3797 149.229 83.5638 149.236 83.7409Z" fill="#3F00F9"/>
<path d="M88.5192 148.609C88.0483 147.62 87.7995 146.54 87.7902 145.444C87.781 144.349 88.0115 143.265 88.4656 142.268C88.9198 141.272 89.5865 140.387 90.4191 139.675C91.2517 138.963 92.2299 138.442 93.2852 138.149V138.114L93.009 137.483C92.9523 137.342 92.9028 137.193 92.8461 137.051C91.6446 137.405 90.5348 138.017 89.5942 138.844C88.6536 139.671 87.905 140.694 87.4005 141.84C86.8961 142.986 86.648 144.229 86.6737 145.481C86.6993 146.734 86.9981 147.965 87.549 149.09C88.3591 150.762 89.6949 152.123 91.3519 152.964V151.788C90.1213 151.023 89.1377 149.919 88.5192 148.609Z" fill="#3F00F9"/>
<path d="M94.9703 153.884C95.5439 153.884 96.0467 153.884 96.5707 153.884L99.545 153.842C103.334 153.792 106.4 153.729 108.517 153.658C109.62 153.686 110.723 153.608 111.81 153.424C110.722 153.25 109.62 153.174 108.517 153.197C106.393 153.127 103.334 153.063 99.545 153.006L96.5707 152.971C95.5347 153.013 94.4974 152.925 93.4832 152.709C93.1003 152.606 92.7262 152.474 92.3643 152.312C92.3643 152.681 92.3643 153.02 92.3643 153.41C93.2004 153.694 94.0736 153.854 94.9561 153.884H94.9703Z" fill="#3F00F9"/>
<path d="M111.598 137.816C112.644 137.785 113.685 137.97 114.657 138.359C115.628 138.747 116.509 139.332 117.245 140.076C117.981 140.82 118.556 141.707 118.935 142.683C119.313 143.659 119.486 144.702 119.444 145.748C119.385 147.383 118.813 148.959 117.808 150.252C117.03 151.226 116.043 152.012 114.919 152.553C113.917 152.955 112.875 153.247 111.81 153.424C111.81 153.467 112.101 153.495 112.674 153.502C113.506 153.453 114.325 153.276 115.103 152.978C116.341 152.472 117.443 151.681 118.318 150.669C119.483 149.298 120.171 147.586 120.28 145.79C120.428 143.584 119.706 141.408 118.268 139.728C117.444 138.771 116.419 138.005 115.266 137.487C114.114 136.968 112.862 136.708 111.598 136.726L95.3103 136.683C94.8354 136.684 94.3615 136.727 93.894 136.811L94.0003 137.08L94.2623 137.682L94.3756 137.929C94.6925 137.887 95.0118 137.866 95.3316 137.866L111.598 137.816Z" fill="#3F00F9"/>
<path d="M92.3645 152.312C92.0066 152.162 91.661 151.985 91.3306 151.781V152.957C91.6642 153.127 92.007 153.278 92.3574 153.41C92.3786 153.049 92.3716 152.681 92.3645 152.312Z" fill="#3F00F9"/>
<path d="M93.2709 138.092V138.128C93.6171 138.03 93.9696 137.957 94.326 137.908L94.2127 137.66L93.9507 137.058L93.8445 136.789C93.4974 136.848 93.1545 136.928 92.8176 137.03C92.8743 137.172 92.9238 137.32 92.9805 137.462L93.2709 138.092Z" fill="#3F00F9"/>
<path d="M95.0838 134.176L98.0368 134.134C101.804 134.084 104.849 134.02 106.96 133.95C108.053 133.978 109.146 133.9 110.224 133.716C109.145 133.542 108.053 133.466 106.96 133.489C104.835 133.419 101.804 133.355 98.0368 133.298L95.0838 133.263C94.2735 133.279 93.4633 133.227 92.6619 133.107L92.7044 133.305C92.7752 133.574 92.8531 133.843 92.931 134.113C93.6468 134.175 94.3655 134.196 95.0838 134.176Z" fill="#3F00F9"/>
<path d="M110.175 118.108C111.281 118.1 112.375 118.332 113.384 118.786C114.392 119.241 115.29 119.908 116.017 120.742C117.301 122.227 117.961 124.15 117.858 126.11C117.818 126.961 117.644 127.8 117.341 128.596C117.048 129.301 116.665 129.965 116.201 130.572C115.421 131.541 114.431 132.321 113.305 132.852C112.307 133.25 111.269 133.539 110.21 133.716C110.21 133.758 110.507 133.787 111.067 133.794C111.896 133.749 112.713 133.574 113.489 133.277C114.724 132.781 115.823 132 116.697 130.996C117.232 130.351 117.677 129.637 118.021 128.872C118.632 127.433 118.837 125.855 118.614 124.308C118.39 122.761 117.747 121.305 116.753 120.098C115.945 119.134 114.937 118.358 113.798 117.823C112.66 117.289 111.418 117.009 110.16 117.003H100.012L99.0068 118.157L110.175 118.108Z" fill="#3F00F9"/>
<path d="M91.5077 132.795C90.6669 132.497 89.8836 132.056 89.192 131.492C88.319 130.765 87.6218 129.85 87.1525 128.815C86.7762 128.019 86.5505 127.159 86.4868 126.28C86.111 126.22 85.7396 126.134 85.375 126.025C85.412 127.155 85.6845 128.264 86.1752 129.283C86.709 130.424 87.4897 131.432 88.4609 132.234C89.4322 133.036 90.5696 133.613 91.791 133.921C91.791 133.808 91.7272 133.687 91.6918 133.567C91.621 133.312 91.5714 133.05 91.5077 132.795Z" fill="#3F00F9"/>
<path d="M92.7044 133.305L92.6619 133.107C92.4466 133.073 92.2338 133.026 92.0245 132.965L91.5076 132.795C91.5713 133.05 91.6209 133.312 91.6846 133.56C91.72 133.68 91.7554 133.801 91.7838 133.914C92.1594 134.014 92.5434 134.081 92.931 134.112C92.8531 133.843 92.7681 133.574 92.7044 133.305Z" fill="#3F00F9"/>
<path d="M89.2274 126.301C89.8031 126.204 90.3677 126.05 90.9129 125.841C90.9129 125.473 90.9483 125.097 90.9766 124.722C90.3674 124.984 89.7273 125.168 89.0716 125.267C88.2186 125.387 87.3513 125.359 86.5081 125.182C86.4833 125.548 86.4833 125.915 86.5081 126.28C87.4079 126.429 88.3254 126.436 89.2274 126.301Z" fill="#3F00F9"/>
<path d="M102.803 113.767C103.547 112.968 104.218 112.103 104.807 111.182C103.944 111.859 103.15 112.618 102.434 113.448L101.457 114.461H102.165L102.803 113.767Z" fill="#3F00F9"/>
<path d="M96.3088 119.935L94.2976 122.095C93.6468 122.874 92.8941 123.563 92.0598 124.141C92.0173 124.545 91.9749 124.942 91.9536 125.345C92.1661 125.232 92.3714 125.112 92.5626 124.984C93.4702 124.343 94.2831 123.578 94.9775 122.711L96.9391 120.494L99.0069 118.143H97.9872L96.3088 119.935Z" fill="#3F00F9"/>
<path d="M100.353 98.3217C100.976 98.2792 101.769 98.2368 102.782 98.2013C101.76 97.6499 100.635 97.3166 99.4786 97.2228C98.3217 97.1289 97.1579 97.2764 96.061 97.6561V97.996C96.061 98.2438 96.061 98.4988 96.061 98.7466C97.0271 98.353 98.0632 98.1603 99.1061 98.1801C99.5249 98.1906 99.942 98.238 100.353 98.3217Z" fill="#3F00F9"/>
<path d="M99.0918 116.989H100.027L101.606 115.169L100.848 115.134L99.0918 116.989Z" fill="#3F00F9"/>
<path d="M105.465 110.601C105.987 109.963 106.405 109.246 106.704 108.477C107.168 107.232 107.329 105.894 107.172 104.575C107.047 103.746 106.809 102.938 106.464 102.174C106.073 101.318 105.542 100.532 104.891 99.8515C104.579 99.5182 104.237 99.2126 103.872 98.938L102.009 98.853C102.859 99.2363 103.632 99.7715 104.29 100.432C104.895 101.035 105.399 101.731 105.784 102.493C106.112 103.184 106.35 103.915 106.492 104.667C106.681 105.891 106.597 107.141 106.244 108.328C105.871 109.332 105.397 110.296 104.828 111.203C104.828 111.203 105.076 111.019 105.465 110.601Z" fill="#3F00F9"/>
<path d="M85.3822 124.871C84.2251 124.449 83.1895 123.749 82.3665 122.833C81.5435 121.917 80.9583 120.813 80.6624 119.617C80.3666 118.422 80.3691 117.172 80.6697 115.978C80.9704 114.783 81.56 113.681 82.3866 112.768L93.2357 100.73C93.745 100.17 94.3374 99.6925 94.9919 99.3133C94.9919 98.9096 94.9919 98.513 94.9919 98.1165C94.0323 98.586 93.1698 99.2323 92.4496 100.021L81.5297 111.989C80.5464 113.062 79.8508 114.367 79.5077 115.781C79.1647 117.195 79.1854 118.674 79.5679 120.078C79.9504 121.482 80.6823 122.766 81.6952 123.811C82.7082 124.856 83.9693 125.628 85.3609 126.053C85.3416 125.659 85.3488 125.264 85.3822 124.871Z" fill="#3F00F9"/>
<path d="M96.0752 98.7468C96.0752 98.499 96.0752 98.244 96.0752 97.9962V97.6562C95.7017 97.7793 95.3373 97.9284 94.9846 98.1024C94.9846 98.499 94.9846 98.8955 94.9846 99.2992C95.3315 99.084 95.6964 98.8992 96.0752 98.7468Z" fill="#3F00F9"/>
<path d="M92.0598 124.163C91.7113 124.377 91.3467 124.564 90.9693 124.722C90.9693 125.097 90.9197 125.473 90.9055 125.841C91.2745 125.699 91.634 125.533 91.9819 125.345C91.9819 124.942 92.0457 124.545 92.0881 124.141L92.0598 124.163Z" fill="#3F00F9"/>
<path d="M98.0012 118.143H99.021L100.027 116.989H99.0918C98.7448 117.357 98.3836 117.747 98.0012 118.143Z" fill="#3F00F9"/>
<path d="M86.4868 126.28C86.462 125.915 86.462 125.548 86.4868 125.182C86.2185 125.133 85.9536 125.067 85.6937 124.984C85.5875 124.984 85.4883 124.906 85.3821 124.871C85.3573 125.253 85.3573 125.636 85.3821 126.018C85.7442 126.129 86.1133 126.217 86.4868 126.28Z" fill="#3F00F9"/>
<path d="M105.26 98.9733L106.782 99.0158H107.59C107.639 99.0158 107.809 99.0583 107.93 99.0796L108.319 99.1504C109.429 99.4286 110.472 99.9272 111.385 100.616C112.381 101.387 113.182 102.382 113.722 103.52C114.295 104.733 114.523 106.081 114.381 107.415C114.231 108.705 113.765 109.937 113.023 111.004C112.282 112.07 111.289 112.936 110.132 113.526C109.612 113.798 109.063 114.012 108.496 114.163L107.724 114.326H106.867L103.695 114.383L102.278 114.418L101.662 115.127L103.716 115.204L106.896 115.297H107.781C107.879 115.291 107.976 115.276 108.071 115.254H108.305C108.461 115.254 108.617 115.204 108.772 115.162C109.421 115.012 110.051 114.789 110.649 114.496C111.996 113.849 113.156 112.871 114.023 111.653C114.89 110.436 115.435 109.019 115.606 107.535C115.772 105.983 115.5 104.415 114.82 103.01C114.189 101.715 113.253 100.593 112.094 99.7382C111.036 98.9764 109.83 98.4478 108.553 98.1873L108.107 98.1165C107.945 98.086 107.782 98.0671 107.618 98.0598H106.811L105.281 98.0952C104.368 98.0952 103.539 98.1377 102.802 98.159C103.196 98.3644 103.573 98.6012 103.928 98.8671L105.26 98.9733Z" fill="#3F00F9"/>
<path d="M101.485 114.468L100.848 115.134L101.606 115.169L102.222 114.461L101.485 114.468Z" fill="#3F00F9"/>
<path d="M102.045 98.8388L103.907 98.9237C103.552 98.6578 103.175 98.421 102.781 98.2156C101.79 98.251 100.975 98.2935 100.352 98.336C100.934 98.4359 101.503 98.6047 102.045 98.8388Z" fill="#3F00F9"/>
<path d="M133.338 82.7707C132.912 82.6284 132.456 82.5993 132.015 82.6862C131.575 82.7731 131.164 82.973 130.824 83.2664C130.386 83.6442 130.111 84.1774 130.059 84.7536C130.059 85.1431 130.137 85.3484 130.215 85.3413C130.293 85.3343 130.364 85.1501 130.505 84.8669C130.688 84.4836 130.975 84.1596 131.334 83.9321C131.577 83.7831 131.851 83.6933 132.136 83.6699C132.42 83.6466 132.705 83.6903 132.97 83.7975C133.274 83.9256 133.534 84.1407 133.717 84.416C133.9 84.6912 133.998 85.0144 133.998 85.3449C133.998 85.6754 133.9 85.9985 133.717 86.2738C133.534 86.5491 133.274 86.7642 132.97 86.8922C132.705 86.9984 132.419 87.041 132.135 87.0164C131.851 86.9918 131.576 86.9007 131.334 86.7506C130.974 86.5274 130.686 86.2053 130.505 85.8229C130.364 85.5396 130.3 85.3413 130.215 85.3413C130.13 85.3413 130.038 85.5396 130.059 85.9362C130.11 86.5107 130.385 87.0421 130.824 87.4163C131.163 87.7109 131.574 87.9121 132.014 88.0003C132.455 88.0884 132.911 88.0604 133.338 87.9191C133.879 87.7395 134.349 87.3943 134.683 86.9322C135.016 86.4701 135.196 85.9147 135.196 85.3449C135.196 84.775 135.016 84.2197 134.683 83.7576C134.349 83.2955 133.879 82.9502 133.338 82.7707Z" fill="#3F00F9"/>
<path d="M137.382 85.3412C137.282 85.3412 137.247 85.7873 136.999 86.5025C136.661 87.4959 136.016 88.3563 135.158 88.9599C134.547 89.3895 133.841 89.6631 133.1 89.7569C132.36 89.8507 131.607 89.7619 130.909 89.4981C130.066 89.1776 129.34 88.6083 128.828 87.8659C128.316 87.1235 128.042 86.243 128.042 85.3412C128.042 84.4393 128.316 83.5588 128.828 82.8164C129.34 82.074 130.066 81.5047 130.909 81.1842C131.608 80.9217 132.36 80.8334 133.1 80.9272C133.841 81.021 134.547 81.294 135.158 81.7224C136.017 82.3279 136.662 83.1909 136.999 84.1869C137.247 84.895 137.282 85.3482 137.382 85.3412C137.481 85.3341 137.566 84.895 137.445 84.0735C137.24 82.8852 136.608 81.8127 135.668 81.0568C135.015 80.5211 134.243 80.1517 133.416 79.9804C132.454 79.7748 131.454 79.8386 130.527 80.1645C129.491 80.5209 128.587 81.1826 127.935 82.0624C127.227 83.0104 126.845 84.1617 126.845 85.3447C126.845 86.5277 127.227 87.6789 127.935 88.627C128.555 89.4607 129.4 90.0998 130.371 90.4687C131.342 90.8376 132.399 90.921 133.416 90.709C134.242 90.5321 135.014 90.1607 135.668 89.6255C136.606 88.8714 137.238 87.8016 137.445 86.6158C137.566 85.7873 137.445 85.3412 137.382 85.3412Z" fill="#3F00F9"/>
<path d="M147.232 83.2238C147.232 83.2238 147.232 83.2663 147.232 83.2875H147.579C147.579 83.2875 147.579 83.2309 147.579 83.1955C147.579 82.9689 147.529 82.721 147.494 82.4873L147.104 82.6289C147.154 82.806 147.189 83.0255 147.232 83.2238Z" fill="#3F00F9"/>
<path d="M147.345 83.847L147.401 84.371C147.406 84.6968 147.463 85.0197 147.571 85.327C147.648 85.0097 147.672 84.6819 147.642 84.3568V83.8186C147.646 83.7715 147.646 83.7241 147.642 83.677H147.324C147.295 83.7195 147.338 83.7903 147.345 83.847Z" fill="#3F00F9"/>
<path d="M147.345 86.8072C147.345 87.0055 147.274 87.2109 147.232 87.4375C147.189 87.6641 147.126 87.9757 147.062 88.2731L147.458 88.4147C147.515 88.0819 147.543 87.7703 147.579 87.487C147.614 87.2038 147.635 87.0338 147.642 86.8426V86.3044C147.673 85.977 147.649 85.6468 147.572 85.3271C147.463 85.6369 147.406 85.9621 147.402 86.2903L147.345 86.8072Z" fill="#3F00F9"/>
<path d="M127.467 99.0441C126.817 98.8059 126.183 98.5244 125.569 98.2014C124.949 97.8584 124.352 97.4727 123.785 97.0471C123.373 96.7513 122.983 96.4271 122.616 96.0769C122.241 96.3531 121.908 96.5868 121.667 96.7851C122.11 97.2177 122.583 97.6176 123.084 97.9819C124.293 98.8903 125.636 99.6069 127.064 100.106C127.29 100.191 127.51 100.255 127.736 100.326C127.736 100.021 127.8 99.6177 127.85 99.2212C127.722 99.1433 127.581 99.1008 127.467 99.0441Z" fill="#3F00F9"/>
<path d="M117.865 85.3271C117.878 84.4505 117.963 83.5766 118.12 82.714L117.001 82.3032C116.576 84.2967 116.576 86.3574 117.001 88.3509L118.12 87.9402C117.963 87.0776 117.878 86.2036 117.865 85.3271Z" fill="#3F00F9"/>
<path d="M123.764 73.6494C124.328 73.219 124.924 72.833 125.548 72.4951C126.161 72.1699 126.795 71.886 127.446 71.6453L127.977 71.4683C127.928 71.0221 127.885 70.6468 127.871 70.3635C127.602 70.4414 127.34 70.5264 127.071 70.6255C126.368 70.8716 125.684 71.1674 125.024 71.5107C124.351 71.8745 123.705 72.2863 123.091 72.743C122.591 73.1047 122.117 73.5023 121.675 73.9327C121.929 74.1097 122.248 74.3363 122.623 74.6408C122.978 74.2824 123.359 73.951 123.764 73.6494Z" fill="#3F00F9"/>
<path d="M141.333 73.6494C141.68 73.9043 141.999 74.1663 142.31 74.4425C142.579 74.2442 142.799 74.0955 142.983 73.968C142.629 73.6281 142.275 73.3024 141.843 72.9837C140.526 71.9619 139.056 71.1541 137.488 70.5901C137.438 70.9017 137.381 71.2204 137.332 71.5319C138.764 72.0345 140.112 72.7482 141.333 73.6494Z" fill="#3F00F9"/>
<path d="M141.333 97.0187C140.06 97.9582 138.648 98.6918 137.147 99.1928C137.204 99.5114 137.254 99.823 137.31 100.142C138.944 99.5737 140.475 98.7438 141.843 97.6844C142.197 97.4011 142.551 97.1108 142.848 96.8204L142.175 96.3389C141.906 96.5938 141.63 96.8204 141.333 97.0187Z" fill="#3F00F9"/>
<path d="M147.295 83.6559H147.614C147.614 83.5213 147.614 83.3938 147.572 83.2451H147.225C147.295 83.4151 147.295 83.5638 147.295 83.6559Z" fill="#3F00F9"/>
<path d="M130.052 78.0543C130.544 78.4449 131.12 78.716 131.734 78.8462C132.348 78.9765 132.985 78.9624 133.593 78.8049C134.271 78.6172 134.892 78.264 135.4 77.777C135.908 77.29 136.287 76.6845 136.503 76.0147C136.614 75.6628 136.683 75.2992 136.709 74.9313C136.758 74.6338 136.815 74.3364 136.865 74.039L137.204 72.0844C137.24 71.8861 137.268 71.702 137.304 71.5037C136.928 71.3763 136.553 71.2559 136.163 71.1567L136.036 71.8649L135.399 75.6465C135.244 76.1469 134.97 76.6019 134.6 76.9722C134.23 77.3424 133.774 77.6166 133.274 77.771C132.821 77.901 132.344 77.9251 131.88 77.8416C131.416 77.7582 130.977 77.5692 130.597 77.2894C129.907 76.7875 129.432 76.0442 129.266 75.2074C128.933 73.5645 128.636 72.2402 128.395 71.2913C128.239 71.3338 128.083 71.3975 127.927 71.4471C128.034 72.4102 128.218 73.7345 128.437 75.3349C128.601 76.4169 129.181 77.3923 130.052 78.0543Z" fill="#3F00F9"/>
<path d="M127.899 69.6484C127.85 69.6484 127.835 69.8962 127.899 70.3565L128.189 70.2645C128.041 69.8467 127.949 69.6413 127.899 69.6484Z" fill="#3F00F9"/>
<path d="M128.558 66.5678C128.919 65.932 129.439 65.4002 130.066 65.0241C130.81 64.5551 131.673 64.3093 132.552 64.3159C133.541 64.3667 134.489 64.7258 135.264 65.3427C135.673 65.6806 136.005 66.1016 136.238 66.5778C136.471 67.0541 136.6 67.5745 136.617 68.1046C136.623 68.701 136.554 69.2958 136.411 69.875L136.355 70.1795C136.744 70.2786 137.12 70.4061 137.488 70.5336L137.566 70.1016L137.736 69.1172C137.785 68.7631 137.799 68.4049 137.778 68.0479C137.743 67.3609 137.562 66.6892 137.245 66.0784C136.929 65.4676 136.485 64.9317 135.944 64.5071C134.972 63.7569 133.78 63.3486 132.552 63.3457C131.497 63.3713 130.472 63.7062 129.606 64.3088C128.899 64.8029 128.335 65.4746 127.97 66.2563C127.701 66.8358 127.559 67.4658 127.552 68.1046C127.552 69.1385 127.836 69.6554 127.899 69.6342C127.963 69.613 127.899 69.0747 128.013 68.14C128.095 67.5866 128.28 67.0535 128.558 66.5678Z" fill="#3F00F9"/>
<path d="M128.444 71.2771C128.338 70.8522 128.239 70.4981 128.161 70.2361L127.871 70.3281C127.871 70.6114 127.927 70.9867 127.977 71.4329C128.133 71.3833 128.289 71.3196 128.444 71.2771Z" fill="#3F00F9"/>
<path d="M136.192 71.1567C136.581 71.2558 136.956 71.3762 137.332 71.5037C137.381 71.1921 137.438 70.8734 137.488 70.5618C137.119 70.4344 136.744 70.3069 136.355 70.2078C136.305 70.5194 136.248 70.8168 136.192 71.1567Z" fill="#3F00F9"/>
<path d="M136.256 101.006C136.396 101.585 136.467 102.18 136.468 102.776C136.448 103.302 136.317 103.819 136.084 104.291C135.851 104.763 135.521 105.181 135.115 105.517C134.339 106.135 133.388 106.494 132.396 106.544C131.519 106.549 130.659 106.304 129.918 105.835C129.294 105.454 128.776 104.924 128.409 104.292C128.13 103.802 127.945 103.264 127.864 102.705C127.736 101.771 127.864 101.225 127.751 101.204C127.637 101.183 127.411 101.7 127.404 102.741C127.407 103.379 127.547 104.009 127.814 104.589C128.18 105.368 128.744 106.038 129.45 106.529C130.316 107.134 131.341 107.469 132.396 107.493C133.625 107.493 134.82 107.087 135.795 106.338C136.336 105.913 136.779 105.377 137.095 104.766C137.412 104.156 137.594 103.484 137.629 102.797C137.651 102.44 137.636 102.082 137.587 101.728L137.417 100.744L137.311 100.121C136.935 100.248 136.56 100.361 136.171 100.461L136.256 101.006Z" fill="#3F00F9"/>
<path d="M128.09 100.404L127.743 100.291C127.687 100.907 127.687 101.254 127.743 101.261C127.8 101.268 127.928 100.97 128.09 100.404Z" fill="#3F00F9"/>
<path d="M136.744 96.8772C136.687 96.5798 136.638 96.2824 136.588 95.985C136.563 95.6169 136.494 95.2532 136.383 94.9015C136.162 94.2323 135.781 93.6275 135.272 93.1399C134.764 92.6523 134.143 92.2967 133.465 92.1042C132.857 91.9483 132.22 91.9356 131.606 92.0671C130.992 92.1985 130.416 92.4706 129.925 92.862C129.069 93.5353 128.51 94.5161 128.367 95.5955C128.161 97.0118 127.998 98.2511 127.885 99.1859L128.388 99.3558C128.622 98.4352 128.891 97.2313 129.195 95.7229C129.358 94.8868 129.831 94.1431 130.519 93.6409C130.898 93.3602 131.337 93.1707 131.801 93.0871C132.266 93.0036 132.743 93.0283 133.196 93.1594C133.698 93.3115 134.154 93.585 134.525 93.9555C134.895 94.3261 135.169 94.7824 135.321 95.2839C135.526 96.509 135.739 97.7766 135.958 99.0725L136.05 99.5753C136.44 99.4833 136.815 99.37 137.19 99.2425L137.127 98.8601C136.964 98.1732 136.85 97.5146 136.744 96.8772Z" fill="#3F00F9"/>
<path d="M136.008 99.5469C136.057 99.8656 136.114 100.184 136.17 100.503C136.56 100.404 136.935 100.291 137.311 100.163C137.254 99.8444 137.204 99.5328 137.148 99.2141C136.772 99.3416 136.397 99.4549 136.008 99.5469Z" fill="#3F00F9"/>
<path d="M128.36 99.3558L127.857 99.1858C127.807 99.6178 127.765 99.986 127.743 100.291L128.09 100.404C128.175 100.121 128.26 99.7665 128.36 99.3558Z" fill="#3F00F9"/>
<path d="M147.954 88.5987L147.458 88.4146C147.423 88.6341 147.38 88.8536 147.324 89.0802C147.267 89.3068 147.239 89.4131 147.203 89.5759L147.572 89.7176C147.94 89.8521 148.28 89.9583 148.563 90.0787C148.669 89.6963 148.768 89.3139 148.853 88.9315L147.954 88.5987Z" fill="#3F00F9"/>
<path d="M143.556 97.2171C143.521 97.2525 143.677 97.5074 144.08 97.8403L144.314 97.5924C143.847 97.3516 143.606 97.1675 143.556 97.2171Z" fill="#3F00F9"/>
<path d="M142.848 96.8419C143.266 97.1251 143.521 97.2667 143.556 97.2172C143.592 97.1676 143.422 96.9622 143.089 96.6152L142.848 96.8419Z" fill="#3F00F9"/>
<path d="M146.524 98.8459C147.382 98.9179 148.245 98.7615 149.023 98.3926C149.98 97.9459 150.782 97.2233 151.325 96.3177C151.945 95.248 152.194 94.003 152.033 92.7769C151.934 92.0946 151.689 91.4417 151.315 90.8625C150.941 90.2832 150.447 89.7913 149.866 89.4202C149.755 89.345 149.639 89.2764 149.519 89.2148C149.434 89.6043 149.328 89.9938 149.215 90.3762C149.667 90.6556 150.054 91.0281 150.351 91.4689C150.647 91.9098 150.847 92.4088 150.935 92.9327C151.079 93.9018 150.918 94.8916 150.475 95.7654C150.052 96.5337 149.418 97.1652 148.648 97.5853C147.996 97.9397 147.266 98.1248 146.524 98.1235C146.001 98.1215 145.483 98.0256 144.994 97.8403L144.661 98.2085C145.227 98.5561 145.863 98.7738 146.524 98.8459Z" fill="#3F00F9"/>
<path d="M138.316 91.049C138.26 90.5801 138.313 90.1046 138.471 89.6597C138.63 89.2149 138.889 88.8129 139.23 88.4854C139.605 88.1386 140.058 87.8864 140.551 87.7497C141.044 87.613 141.562 87.5957 142.062 87.6993L145.667 89.0307L146.708 89.4131C146.75 89.2644 146.8 89.1157 146.835 88.974C146.913 88.742 146.977 88.5055 147.027 88.2659L146.056 87.9118L144.194 87.2036L143.344 86.892C143.013 86.7308 142.663 86.6096 142.303 86.5309C141.613 86.3879 140.899 86.4171 140.224 86.616C139.548 86.8149 138.932 87.1772 138.429 87.671C137.984 88.1217 137.651 88.6701 137.455 89.2726C137.26 89.8751 137.208 90.5149 137.303 91.141C137.462 92.2177 138.034 93.1903 138.897 93.8533C140.242 94.9014 141.347 95.7441 142.14 96.3248L142.494 96.0132C141.786 95.305 140.745 94.3632 139.421 93.1805C138.805 92.6289 138.412 91.8706 138.316 91.049Z" fill="#3F00F9"/>
<path d="M145.029 97.9041L144.916 97.8687C144.682 97.7767 144.484 97.6775 144.314 97.5925L144.08 97.8404C144.273 98.0011 144.479 98.1456 144.696 98.2724L145.029 97.9041Z" fill="#3F00F9"/>
<path d="M149.498 89.2291C149.303 89.121 149.102 89.024 148.896 88.9387H148.853C148.768 89.3211 148.669 89.7035 148.563 90.086C148.782 90.1736 148.993 90.2802 149.193 90.4046C149.307 90.0151 149.42 89.6256 149.498 89.2291Z" fill="#3F00F9"/>
<path d="M143.089 96.6151C142.94 96.4522 142.756 96.2681 142.53 96.0486L142.176 96.3602L142.848 96.8417L143.089 96.6151Z" fill="#3F00F9"/>
<path d="M147.458 88.4146L147.062 88.2729C147.012 88.5126 146.948 88.7491 146.87 88.9811C146.87 89.1227 146.785 89.2715 146.743 89.4202L147.203 89.5831C147.239 89.4202 147.288 89.2502 147.324 89.0873C147.359 88.9245 147.423 88.6341 147.458 88.4146Z" fill="#3F00F9"/>
<path d="M149.37 80.3485C149.476 80.7451 149.568 81.1417 149.639 81.5524L149.845 81.432C150.533 80.9872 151.098 80.3758 151.488 79.6545H150.163C149.93 79.9189 149.663 80.1522 149.37 80.3485Z" fill="#3F00F9"/>
<path d="M143.195 74.1452C143.45 73.869 143.585 73.6849 143.556 73.6495C143.528 73.6141 143.316 73.7203 142.983 73.9399L143.195 74.1452Z" fill="#3F00F9"/>
<path d="M151.325 74.5489C150.779 73.6452 149.978 72.9232 149.023 72.4739C148.734 72.3418 148.433 72.2375 148.124 72.1624C148.003 72.396 147.89 72.6368 147.763 72.8705C148.07 72.9572 148.367 73.0784 148.648 73.2317C149.418 73.649 150.052 74.2781 150.475 75.0446C150.917 75.9186 151.078 76.9081 150.935 77.8772C150.875 78.272 150.745 78.6531 150.553 79.0032H151.785C151.898 78.7043 151.974 78.3928 152.012 78.0755C152.175 76.8565 151.933 75.6177 151.325 74.5489Z" fill="#3F00F9"/>
<path d="M137.339 79.6972C137.244 80.3233 137.296 80.963 137.492 81.5654C137.687 82.1677 138.02 82.7162 138.465 83.1672C139.102 83.7904 139.918 84.1996 140.799 84.338C141.68 84.4763 142.582 84.3369 143.38 83.9391L144.229 83.6346L146.092 82.9264L147.104 82.5511C147.046 82.2488 146.968 81.9508 146.871 81.6588C146.871 81.5809 146.821 81.4889 146.8 81.411L145.702 81.8075L142.098 83.1389C141.598 83.2434 141.08 83.2273 140.587 83.0919C140.095 82.9564 139.641 82.7055 139.265 82.3599C138.925 82.0321 138.666 81.6301 138.508 81.1853C138.349 80.7406 138.296 80.2652 138.352 79.7964C138.443 78.9495 138.85 78.1681 139.492 77.6081C140.908 76.3759 141.97 75.3774 142.678 74.6834L142.346 74.386C141.545 74.9667 140.391 75.8448 138.968 76.9566C138.085 77.62 137.5 78.6048 137.339 79.6972Z" fill="#3F00F9"/>
<path d="M144.916 73.0049C145.438 72.7938 145.996 72.6856 146.559 72.6862C146.746 72.6868 146.933 72.701 147.118 72.7287C147.246 72.5021 147.366 72.2755 147.487 72.0205C147.166 71.9893 146.844 71.9893 146.524 72.0205C145.888 72.0789 145.273 72.272 144.718 72.587C143.818 73.1111 143.507 73.6068 143.556 73.6493C143.606 73.6918 144.038 73.3519 144.916 73.0049Z" fill="#3F00F9"/>
<path d="M147.246 81.2763C147.246 81.3754 147.303 81.4816 147.324 81.5737C147.402 81.8782 147.451 82.1685 147.494 82.4376L147.954 82.2677L148.896 81.9278L149.016 81.8711C148.953 81.4745 148.875 81.085 148.783 80.6956C148.421 80.8655 148.025 80.9859 147.572 81.1559L147.246 81.2763Z" fill="#3F00F9"/>
<path d="M147.763 72.8635C147.89 72.6369 148.004 72.3961 148.124 72.1553C147.914 72.1038 147.701 72.066 147.487 72.042C147.366 72.2686 147.246 72.4952 147.118 72.7502C147.336 72.7717 147.551 72.8096 147.763 72.8635Z" fill="#3F00F9"/>
<path d="M149.214 80.4549C149.078 80.5487 148.934 80.6294 148.782 80.6956C148.875 81.0851 148.952 81.4746 149.016 81.8712C149.23 81.7778 149.438 81.6714 149.639 81.5525C149.569 81.1418 149.476 80.7452 149.37 80.3486L149.214 80.4549Z" fill="#3F00F9"/>
<path d="M150.553 79.0315C150.44 79.2385 150.31 79.4351 150.163 79.6193H151.488C151.604 79.4104 151.703 79.1925 151.785 78.9678L150.553 79.0315Z" fill="#3F00F9"/>
<path d="M146.871 81.6871C146.968 81.979 147.046 82.2771 147.104 82.5794L147.494 82.4378C147.451 82.1687 147.402 81.8783 147.324 81.5738C147.324 81.4817 147.267 81.3755 147.246 81.2764L146.8 81.4392C146.821 81.5171 146.856 81.6092 146.871 81.6871Z" fill="#3F00F9"/>
<path d="M142.643 74.7116L143.195 74.1451L142.983 73.9397C142.799 74.0672 142.579 74.2159 142.31 74.4142L142.643 74.7116Z" fill="#3F00F9"/>
<path d="M120.265 83.5L121.115 83.8045C121.446 83.9668 121.796 84.0881 122.156 84.1657C122.845 84.3083 123.559 84.2796 124.234 84.082C124.91 83.8845 125.526 83.5241 126.03 83.0326C126.474 82.5816 126.808 82.0331 127.003 81.4308C127.199 80.8284 127.251 80.1887 127.156 79.5626C126.991 78.488 126.421 77.5173 125.562 76.8503C124.359 75.9156 123.36 75.1508 122.595 74.5842L122.213 74.9312C122.921 75.5969 123.856 76.4609 125.045 77.5019C125.693 78.0584 126.103 78.8411 126.193 79.6901C126.249 80.1589 126.195 80.6343 126.037 81.079C125.878 81.5238 125.619 81.9258 125.279 82.2536C124.903 82.5992 124.45 82.8501 123.957 82.9856C123.464 83.1211 122.947 83.1372 122.447 83.0326L118.842 81.7013L118.431 81.5526C118.332 81.935 118.24 82.3245 118.169 82.7139L118.452 82.8202L120.265 83.5Z" fill="#3F00F9"/>
<path d="M116.916 81.0215C116.345 80.8502 115.796 80.6125 115.28 80.3134C114.828 80.0354 114.441 79.6642 114.144 79.2246C113.848 78.7849 113.648 78.2869 113.559 77.764C113.413 76.7948 113.574 75.8043 114.02 74.9313C114.443 74.1649 115.077 73.5357 115.847 73.1184C116.487 72.7664 117.205 72.5813 117.936 72.5802C118.498 72.5818 119.055 72.6874 119.579 72.8918C120.45 73.2459 120.875 73.6 120.938 73.5433C121.002 73.4867 120.669 73.0051 119.777 72.4811C119.222 72.1661 118.607 71.9729 117.971 71.9145C117.112 71.8426 116.25 71.9989 115.471 72.3678C114.515 72.8184 113.712 73.5399 113.163 74.4427C112.543 75.5126 112.294 76.7574 112.455 77.9835C112.553 78.6669 112.798 79.3211 113.172 79.9015C113.545 80.4819 114.04 80.975 114.622 81.3473C114.922 81.5417 115.239 81.7076 115.57 81.843L116.512 82.1829L116.973 82.3529C117.051 81.9634 117.136 81.581 117.242 81.1986L116.916 81.0215Z" fill="#3F00F9"/>
<path d="M121.646 73.8973C121.229 73.6069 120.974 73.4653 120.938 73.5149C120.903 73.5644 121.073 73.7769 121.406 74.1239L121.646 73.8973Z" fill="#3F00F9"/>
<path d="M122.213 74.9311L122.595 74.5841C122.22 74.3009 121.887 74.0743 121.646 73.876L121.406 74.1026C121.613 74.3292 121.882 74.6054 122.213 74.9311Z" fill="#3F00F9"/>
<path d="M118.382 81.5526L117.27 81.1489C117.164 81.5313 117.079 81.9137 117.001 82.3032L118.12 82.714C118.19 82.3245 118.261 81.935 118.382 81.5526Z" fill="#3F00F9"/>
<path d="M127.156 91.0985C127.251 90.4724 127.199 89.8326 127.004 89.2301C126.808 88.6277 126.475 88.0792 126.03 87.6286C125.529 87.1333 124.912 86.7705 124.236 86.5727C123.56 86.3749 122.845 86.3484 122.156 86.4955C121.795 86.5702 121.445 86.6916 121.115 86.8566L120.265 87.1612L118.403 87.8693L118.12 87.9685C118.198 88.365 118.283 88.7545 118.382 89.1369L118.792 88.9882L122.397 87.6569C122.897 87.5523 123.415 87.5684 123.907 87.7039C124.4 87.8394 124.853 88.0903 125.23 88.4359C125.569 88.7637 125.829 89.1657 125.987 89.6105C126.146 90.0552 126.199 90.5306 126.143 90.9994C126.052 91.8479 125.642 92.6302 124.996 93.1876C123.82 94.2286 122.871 95.0926 122.163 95.7583L122.539 96.1053C123.31 95.5387 124.302 94.7739 125.506 93.8391C126.392 93.1754 126.984 92.1921 127.156 91.0985Z" fill="#3F00F9"/>
<path d="M120.938 97.1464C120.973 97.1889 121.228 97.0472 121.646 96.7569L121.405 96.5374C121.094 96.8844 120.903 97.1039 120.938 97.1464Z" fill="#3F00F9"/>
<path d="M119.579 97.7906C119.055 97.9976 118.498 98.1057 117.936 98.1093C117.205 98.1083 116.487 97.9232 115.847 97.5711C115.077 97.1538 114.443 96.5247 114.02 95.7582C113.567 94.8749 113.406 93.8708 113.559 92.8902C113.648 92.3672 113.848 91.8692 114.144 91.4295C114.441 90.9899 114.828 90.6187 115.28 90.3408C115.796 90.0416 116.345 89.8039 116.916 89.6326L117.27 89.5051C117.171 89.1227 117.079 88.7403 117.001 88.3438L116.541 88.5208L115.599 88.8607C115.266 88.9932 114.948 89.1593 114.65 89.3564C114.068 89.7265 113.573 90.2181 113.199 90.7975C112.825 91.3769 112.581 92.0304 112.483 92.7131C112.323 93.9391 112.572 95.1836 113.191 96.2539C113.741 97.1568 114.544 97.8783 115.5 98.3289C116.279 98.6945 117.141 98.8507 117.999 98.7821C118.635 98.7237 119.25 98.5306 119.805 98.2156C120.698 97.6915 121.009 97.1958 120.967 97.1533C120.924 97.1108 120.45 97.4366 119.579 97.7906Z" fill="#3F00F9"/>
<path d="M118.382 89.1087C118.283 88.7263 118.198 88.3368 118.12 87.9402L117.001 88.3509C117.079 88.7475 117.171 89.1299 117.27 89.5123L118.382 89.1087Z" fill="#3F00F9"/>
<path d="M122.22 95.73C121.88 96.0487 121.611 96.3248 121.406 96.5373L121.646 96.7568C121.901 96.5869 122.22 96.3532 122.595 96.0487L122.22 95.73Z" fill="#3F00F9"/>
</svg>
