<svg width="463" height="398" viewBox="0 0 463 398" fill="none" xmlns="http://www.w3.org/2000/svg">
<g clip-path="url(#clip0_2085_17632)">
<path d="M280.351 148.94L249.826 170.931L251.828 189.924L262.837 212.415L280.351 223.91L296.364 234.406H307.874L312.377 223.91V194.922L315.38 151.939L307.874 136.945L280.351 148.94Z" fill="#A384FF"/>
<path d="M461.469 319.542L-63.9102 16.6233L-136.99 67.4029L391.941 372.35" fill="#C1A9FF"/>
<path d="M314.018 105.128L307.012 99.8798L297.464 93.8823L287.116 88.4245L242.079 56.1674L141.537 111.685L132.459 115.973L126.975 119.802L124.973 121.591L119.489 129.078L117.067 136.935L116.286 149.75L116.106 162.385V185.815L113.324 273.18L196.742 317.003L197.883 205.647L198.243 180.038C198.243 180.038 198.323 168.412 211.744 161.805C225.165 155.198 259.663 135.086 259.663 135.086L299.326 112.875L314.018 105.128Z" fill="#8954F6"/>
<path d="M140.857 172.441C145.339 173.342 149.576 175.191 153.284 177.865C156.991 180.538 160.082 183.973 162.349 187.939C164.616 191.905 166.006 196.31 166.427 200.858C166.847 205.405 166.288 209.99 164.786 214.304C159.532 229.378 144.199 238.214 134.291 250.729C125.784 261.505 121.361 275.039 119.539 288.644C117.718 302.248 118.338 316.033 118.969 329.747C113.354 328.878 107.699 330.837 102.575 333.276C97.4511 335.715 92.5071 338.684 87.0026 340.043C81.4981 341.403 75.0929 340.883 70.9895 336.984C66.646 332.896 65.9154 326.349 65.6752 320.391C64.4842 290.903 68.9379 260.835 81.5982 234.166C94.2585 207.497 115.496 184.416 142.458 172.331" fill="#D1C2FF"/>
<path d="M303.15 95.3317C324.607 95.6715 345.604 105.418 360.256 121.071C374.908 136.725 383.185 157.996 383.715 179.428C383.875 185.635 383.385 191.953 381.173 197.76C378.961 203.568 374.898 208.846 369.284 211.525C365.22 213.464 360.626 213.954 356.123 214.194C353.351 214.354 350.438 214.394 347.956 213.144C345.224 211.755 343.462 209.006 342.091 206.257C339.57 201.182 337.945 195.711 337.287 190.084C336.597 184.166 336.977 178.088 335.376 172.331C333.775 166.573 329.461 160.985 323.516 160.336" fill="#D1C2FF"/>
<path d="M299.867 17.463C299.482 17.1156 299.025 16.8589 298.527 16.7118C298.03 16.5648 297.506 16.5311 296.995 16.6133C295.053 16.6502 293.153 17.1873 291.48 18.1727C290.652 18.6658 289.935 19.3243 289.374 20.1069C288.812 20.8895 288.419 21.7793 288.217 22.7208C288.066 23.9451 288.15 25.1871 288.468 26.3794C288.798 28.1897 289.541 29.8998 290.639 31.3774C291.797 32.7249 293.359 33.6637 295.094 34.0545C296.828 34.4452 298.642 34.2671 300.267 33.5465C301.858 32.7622 303.182 31.526 304.072 29.9931C304.962 28.4602 305.38 26.6988 305.271 24.93C305.104 23.1569 304.457 21.4627 303.399 20.0292C302.341 18.5957 300.913 17.4771 299.266 16.7932" fill="#C1A9FF"/>
<path d="M142.017 106.097C139.235 105.628 136.193 105.188 133.761 106.597C132.21 107.67 130.929 109.086 130.017 110.735C129.017 112.225 128.016 113.824 128.016 115.613C128.066 116.845 128.465 118.038 129.167 119.052C130.011 120.358 131.132 121.461 132.452 122.284C133.772 123.106 135.258 123.627 136.803 123.81C138.353 123.967 139.918 123.761 141.374 123.207C142.83 122.654 144.137 121.768 145.19 120.621C146.223 119.459 146.954 118.06 147.319 116.549C147.683 115.038 147.671 113.46 147.282 111.955C146.859 110.46 146.059 109.099 144.959 108.001C143.858 106.904 142.494 106.107 140.996 105.687" fill="#C1A9FF"/>
<path d="M197.693 145.482V82.3369C197.693 82.3369 196.542 67.7028 214.056 59.8959C231.57 52.0891 273.635 31.0975 273.635 31.0975C273.635 31.0975 284.313 21.1815 283.253 38.8044L284.113 101.599L209.052 147.581C209.052 147.581 201.736 150.669 197.693 145.482Z" fill="#D1C2FF"/>
<path d="M278.279 28.4385L246.533 8.68648L235.624 2.74887L230.37 1.39941H225.476L215.608 4.928L189.737 19.5721L153.788 41.8132L152.166 43.4325L149.684 47.091L148.033 52.089L146.041 90.6236V107.187L146.682 110.765L148.113 116.343L151.356 121.811L159.222 127.339L192.539 144.152L197.693 146.721L198.434 77.3289L199.905 73.5304L201.557 70.2317L205.53 66.3833L209.873 63.3145L221.223 57.207L258.193 38.7844L278.279 28.4385Z" fill="url(#paint0_radial_2085_17632)"/>
<path d="M321.824 227.169L321.354 120.492L319.813 110.965L314.408 107.437L306.972 108.586L208.422 163.844L203.277 168.612L199.404 174.71L198.093 185.116L196.742 316.993L220.862 299.39V264.044L220.011 211.475L220.181 204.328L224.184 192.333L231.47 185.815L297.955 150.05L301.347 148.53L304.55 150.479L306.532 233.166L321.824 227.169Z" fill="#C2DBFF"/>
<path d="M253.769 175.739L277.058 189.424L278.759 191.213L280.04 194.192L280.471 197.051L243.35 216.113L238.787 214.844L220.181 204.328L222.393 194.752L227.437 189.424L231.471 185.815L239.167 181.677L249.916 175.739L252.798 174.21L253.769 175.739Z" fill="#C1A9FF"/>
<path d="M280.471 197.051L242.05 216.113L242.34 260.095L258.293 250.639L266.149 245.931L270.913 243.072L277.428 239.834L281.282 235.985L281.952 231.697V219.132L281.282 210.635L280.911 201.259L280.471 197.051Z" fill="#8954F6"/>
<path d="M242.05 216.113L242.34 260.095L238.246 259.806L231.411 255.527L225.956 251.279L220.552 247.001L220.182 204.328L224.695 206.497L231.971 210.835L237.716 214.274L242.05 216.113Z" fill="url(#paint1_radial_2085_17632)"/>
<path d="M368.103 248.95L337.337 267.343L331.903 267.972L292.741 245.051L292.971 241.463L299.677 237.395L330.422 221.661L350.188 232.217L358.895 236.975L364.379 240.273L366.501 242.702L367.792 246.221L368.103 248.95Z" fill="#C1A9FF"/>
<path d="M291.76 245.052L291.359 281.967L291.559 284.886L293.641 288.644L297.754 292.542L304.03 296.591L331.902 311.475V267.972L291.76 245.052Z" fill="url(#paint2_radial_2085_17632)"/>
<path d="M368.103 248.95L337.337 267.343L330.772 268.112L331.903 310.535L335.336 310.715L341.091 308.966L344.623 306.677L365.631 293.562L368.993 290.513L369.724 287.474L369.874 275.969L368.473 254.648L368.103 248.95Z" fill="#8954F6"/>
<path d="M383.074 296.591L412.118 279.408L418.834 275.439L423.177 273.18H427.271L462.609 296.591L423.177 320.881L383.074 296.591Z" fill="#C1A9FF"/>
<path d="M461.018 297.58L423.177 320.881L421.936 364.154L442.092 353.668L457.125 344.182L460.387 340.143L461.648 332.656L461.538 314.454L461.018 297.58Z" fill="#8954F6"/>
<path d="M423.177 320.881L424.168 361.745L421.936 364.154L388.609 346.661L385.466 338.294L384.045 324.659L383.074 305.767V296.591L423.177 320.881Z" fill="url(#paint3_radial_2085_17632)"/>
<path d="M418.273 238.394L416.942 245.052L413.359 256.227L408.676 252.858L403.061 249.68L397.647 247.351L398.647 243.602L399.708 237.045L399.268 231.697L396.065 228.578L392.252 227.499L386.758 228.578L382.654 232.197L379.822 239.244L380.322 245.052L381.563 250.629L381.764 254.548V258.806L379.762 261.665L375.759 264.324H370.384L368.883 263.434C368.656 259.216 368.429 254.994 368.203 250.769C368.042 247.59 367.792 244.192 365.811 241.693C364.403 240.152 362.702 238.909 360.807 238.034L359.415 237.275L360.556 231.687L363.529 223.64L369.313 215.643L378.901 208.476L388.609 205.647L397.416 206.167L403.351 208.006L409.777 212.205L415.781 220.201L417.943 229.008L418.273 238.394Z" fill="#C1A9FF"/>
<path d="M89.6045 390.813L87.6029 378.518V368.812L90.6054 358.816L93.858 352.238L98.4718 346.321L106.628 340.163L111.633 337.914L116.116 336.665H121.591L126.304 336.045L132.68 338.194L129.437 334.795L123.512 331.797L116.116 330.207H110.031L102.565 333.296L95.6395 337.184L86.9924 340.063L82.3586 341.013L76.8441 340.163L70.9593 337.005L68.0069 332.866L64.6141 327.728L59.9703 333.956L57.4382 338.284L55.6168 342.043L53.465 347.65L51.7536 353.888L50.8729 358.816V371.811L51.2132 378.308L52.8045 385.055L54.5359 390.053L56.4074 394.202C67.4164 400.179 78.5155 399.18 89.6045 390.813Z" fill="#9046F5"/>
<path d="M138.094 385.045L140.506 379.577L141.767 375.839L143.568 366.513L143.688 360.885V355.587L141.557 349.999L139.125 344.861L137.233 342.062L134.571 338.994L128.626 336.835L123.752 336.395L116.126 336.685L110.041 338.554L104.036 341.743L98.4615 346.341L92.5367 352.258L90.5951 358.836L88.7636 364.903L87.5727 368.902V375.969L88.2032 382.436L89.5943 390.903C96.0696 386.635 100.773 387.264 104.036 391.902L107.279 390.093L109.551 387.814V385.075L108.42 381.077L106.468 375.889L105.567 369.082L106.708 364.084L108.94 359.585L113.344 356.017H118.888L123.252 357.586L124.993 359.336L127.525 363.414L127.695 369.761L127.786 375.039L128.456 377.388L130.047 379.577L132.69 381.027C136.613 380.877 138.935 381.836 138.094 385.045Z" fill="#C1A9FF"/>
<path d="M383.075 194.802L387.709 197.69L391.382 199.53L394.804 202.129L397.857 204.028L398.527 206.527L392.232 205.667L383.745 206.527L376.82 209.646L371.195 214.274L366.461 218.532L363.529 223.59L361.617 228.578L360.606 231.697L358.895 236.975L330.422 221.661L321.945 225.999L321.795 221.661L322.365 219.012L322.645 214.844L324.717 209.816L329.551 204.588L334.525 200.119L337.287 198.37L338.148 199.23L342.812 207.606L347.296 212.095L352.8 214.064L359.465 214.844L365.771 212.934L370.925 210.635L374.888 206.527L378.181 201.989L380.252 197.69V195.161L381.594 193.822L383.075 194.802Z" fill="#9046F5"/>
<path d="M73.6823 143.442L82.6897 137.945L91.1966 141.943L96.7011 144.942L103.707 148.44L114.716 154.438V157.437V167.433L91.1966 182.926L76.6848 173.93L66.6766 168.432L60.1713 165.434L51.1639 158.936L54.6668 155.937L61.1721 151.939L68.1778 146.941L73.6823 143.442Z" fill="white"/>
<path d="M386.537 274.1C377.129 268.692 369.273 264.714 368.993 265.203C368.713 265.693 376.109 270.471 385.516 275.869C394.924 281.267 402.78 285.255 403.061 284.766C403.341 284.276 395.945 279.508 386.537 274.1Z" fill="#3F00F9"/>
<path d="M295.322 224.48C303.449 229.148 310.335 232.397 310.725 231.747C311.115 231.097 304.81 226.749 296.714 222.121C288.617 217.493 281.701 214.194 281.311 214.844C280.921 215.493 287.186 219.812 295.322 224.48Z" fill="#3F00F9"/>
<path d="M28.8054 71.4413C80.3875 101.059 122.502 124.55 122.882 123.89C123.262 123.23 81.7386 98.7003 30.1665 69.0822C-21.4057 39.4642 -63.5401 15.9736 -63.9104 16.6233C-64.2807 17.2731 -22.7768 41.8232 28.8054 71.4413Z" fill="#3F00F9"/>
<path d="M306.502 321.821C283.033 308.336 261.705 296.271 246.202 287.654C238.456 283.346 232.191 279.898 227.777 277.568C223.364 275.239 220.922 274.03 220.832 274.19C220.742 274.35 223.024 275.879 227.247 278.488C231.47 281.097 237.615 284.796 245.262 289.324C260.524 298.37 281.691 310.705 305.161 324.18C328.63 337.654 349.957 349.729 365.46 358.346C373.216 362.654 379.471 366.103 383.895 368.432C388.319 370.761 390.741 371.97 390.841 371.801C390.941 371.631 388.639 370.121 384.425 367.512C380.212 364.903 374.057 361.195 366.411 356.677C351.148 347.59 329.971 335.295 306.502 321.821Z" fill="#3F00F9"/>
<path d="M-11.2274 139.374C-42.1026 121.681 -70.1255 105.688 -90.4821 94.3221C-100.66 88.6244 -108.927 84.0462 -114.662 80.9375C-117.534 79.3881 -119.766 78.1986 -121.307 77.4189C-122.057 76.9569 -122.864 76.5972 -123.709 76.3493C-123.075 76.9632 -122.357 77.4848 -121.578 77.8987C-120.136 78.8283 -117.975 80.1678 -115.192 81.8971C-109.618 85.2857 -101.501 90.1138 -91.4429 96.0314C-71.3365 107.867 -43.4637 124.02 -12.5885 141.773C18.2867 159.526 46.3196 175.419 66.6762 186.825C76.8545 192.533 85.1113 197.101 90.8459 200.21C93.7183 201.759 95.9601 202.948 97.4913 203.728C98.2381 204.199 99.051 204.556 99.9033 204.788C99.2615 204.181 98.5412 203.663 97.7616 203.248C96.3204 202.319 94.1686 200.989 91.3764 199.25C85.8018 195.861 77.6852 191.033 67.627 185.116C47.5205 173.28 19.6478 157.107 -11.2274 139.374Z" fill="#3F00F9"/>
<path d="M299.977 338.964C278.369 326.559 258.733 315.463 244.452 307.536C237.306 303.538 231.501 300.419 227.438 298.29C223.374 296.161 221.123 295.051 221.032 295.211C220.942 295.371 223.034 296.791 226.917 299.21C230.8 301.629 236.445 305.037 243.471 309.206C257.482 317.552 276.988 328.918 298.596 341.323C320.203 353.728 339.839 364.833 354.121 372.75C361.257 376.749 367.062 379.877 371.135 382.006C375.208 384.136 377.45 385.245 377.55 385.075C377.65 384.905 375.549 383.506 371.665 381.077C367.782 378.648 362.128 375.249 355.112 371.081C341.06 362.744 321.575 351.379 299.977 338.964Z" fill="#3F00F9"/>
<path d="M-23.1577 153.428C-54.4032 135.486 -82.7663 119.372 -103.373 107.827C-113.672 102.049 -122.028 97.4209 -127.833 94.2721C-130.736 92.7028 -133.007 91.5033 -134.559 90.7136C-135.319 90.2468 -136.136 89.8806 -136.991 89.624C-136.348 90.2443 -135.62 90.7695 -134.829 91.1834C-133.368 92.133 -131.186 93.4825 -128.364 95.1818C-122.719 98.6104 -114.512 103.498 -104.344 109.486C-83.9874 121.481 -55.7743 137.835 -24.5288 155.777C6.71675 173.72 35.1099 189.844 55.6968 201.389C65.9952 207.157 74.362 211.785 80.1667 214.934C83.0691 216.513 85.331 217.713 86.8822 218.502C87.6396 218.978 88.4622 219.342 89.3242 219.582C88.6728 218.973 87.9464 218.449 87.1624 218.022C85.7013 217.083 83.5195 215.733 80.6971 214.024C75.0525 210.595 66.8358 205.717 56.6775 199.73C36.3009 187.745 8.08786 171.371 -23.1577 153.428Z" fill="#3F00F9"/>
<path d="M-29.3119 77.8387C-46.1656 88.9543 -59.4965 98.4804 -59.0762 99.1002C-58.6558 99.72 -44.6644 91.2234 -27.8106 80.1078C-10.9569 68.9923 2.36399 59.4661 1.95366 58.8464C1.54332 58.2266 -12.4581 66.7032 -29.3119 77.8387Z" fill="#3F00F9"/>
<path d="M-12.2784 91.8531C-31.0037 102.469 -46.6564 110.256 -46.3062 110.965C-46.146 111.295 -42.0227 109.776 -35.5674 106.847C-29.1121 103.918 -20.335 99.55 -10.9073 94.2221C-1.47958 88.8943 6.77717 83.6364 12.6219 79.618C18.4667 75.5996 21.8895 72.8507 21.6793 72.5508C21.219 71.8911 6.47692 81.2873 -12.2784 91.8531Z" fill="#3F00F9"/>
<path d="M5.51569 103.948C-12.499 114.214 -26.8007 123.061 -26.4304 123.72C-26.0601 124.38 -11.1479 116.583 6.8668 106.317C24.8815 96.0514 39.1932 87.205 38.8129 86.5453C38.4326 85.8855 23.5304 93.6924 5.51569 103.948Z" fill="#3F00F9"/>
<path d="M23.7607 116.353C3.66426 127.529 -12.3288 137.115 -11.9685 137.775C-11.6082 138.434 4.98533 129.908 25.0617 118.732C45.1381 107.557 61.1512 97.9706 60.7909 97.3209C60.4306 96.6711 43.8571 105.178 23.7607 116.353Z" fill="#3F00F9"/>
<path d="M45.3985 125.16C34.6797 131.237 25.3822 137.325 18.7668 142.003C12.1514 146.681 8.36826 149.88 8.56843 150.17C8.76859 150.46 13.022 147.851 19.8376 143.602C26.6532 139.354 36.1009 133.606 46.7396 127.529C57.3783 121.451 67.2263 116.393 74.3722 112.735C81.518 109.076 85.9616 106.817 85.8015 106.457C85.6413 106.097 80.9375 107.777 73.5515 111.005C63.9358 115.25 54.5396 119.974 45.3985 125.16Z" fill="#3F00F9"/>
<path d="M64.6644 135.735C42.0659 147.831 24.0412 158.176 24.4015 158.836C24.7618 159.496 43.357 150.23 65.9554 138.134C88.5539 126.039 106.569 115.684 106.168 115.034C105.768 114.384 87.2528 123.68 64.6644 135.735Z" fill="#3F00F9"/>
<path d="M53.1254 167.203C56.0277 165.394 58.2295 163.664 58.0294 163.344C57.8292 163.024 55.3071 164.234 52.4048 166.053C49.5024 167.873 47.3006 169.582 47.5008 169.902C47.7009 170.222 50.213 169.012 53.1254 167.203Z" fill="#3F00F9"/>
<path d="M105.578 134.546C112.974 129.948 118.809 125.949 118.589 125.63C118.369 125.31 112.234 128.788 104.837 133.396C97.4414 138.005 91.6167 141.983 91.8268 142.303C92.037 142.623 98.162 139.154 105.578 134.546Z" fill="#3F00F9"/>
<path d="M73.081 180.487C76.5038 178.018 79.0859 175.769 78.8757 175.49C78.6656 175.21 75.7031 176.949 72.2803 179.418C68.8575 181.887 66.2754 184.136 66.4956 184.416C66.7158 184.696 69.6682 182.957 73.081 180.487Z" fill="#3F00F9"/>
<path d="M229.579 265.213C233.682 262.215 236.845 259.476 236.635 259.216C236.424 258.956 232.892 261.125 228.768 264.164C224.645 267.203 221.482 269.912 221.712 270.161C221.943 270.411 225.466 268.242 229.579 265.213Z" fill="#3F00F9"/>
<path d="M287.647 229.638C290.649 228.148 292.901 226.639 292.741 226.329C292.581 226.019 290.029 226.929 287.036 228.418C284.044 229.908 281.772 231.417 281.952 231.717C282.132 232.017 284.674 231.097 287.647 229.638Z" fill="#3F00F9"/>
<path d="M266.079 266.213C280.31 258.276 291.579 251.299 291.219 250.629C290.859 249.96 278.999 255.887 264.748 263.824C250.496 271.761 239.247 278.748 239.617 279.398C239.987 280.047 251.827 274.16 266.079 266.213Z" fill="#3F00F9"/>
<path d="M273.305 281.127C283.523 275.729 291.53 270.811 291.179 270.131C290.829 269.452 282.252 273.31 272.024 278.718C261.795 284.126 253.799 289.034 254.159 289.713C254.519 290.393 263.126 286.535 273.305 281.127Z" fill="#3F00F9"/>
<path d="M288.167 294.172C292 292.223 294.973 290.363 294.803 290.023C294.632 289.684 291.38 291.023 287.547 292.962C283.714 294.902 280.741 296.771 280.911 297.101C281.081 297.43 284.314 296.131 288.167 294.172Z" fill="#3F00F9"/>
<path d="M308.744 305.847C312.096 303.908 314.669 302.069 314.478 301.739C314.288 301.409 311.416 302.738 308.063 304.668C304.71 306.597 302.148 308.456 302.338 308.776C302.529 309.096 305.391 307.796 308.744 305.847Z" fill="#3F00F9"/>
<path d="M324.727 319.57C324.523 319.255 336.685 311.024 351.893 301.187C367.101 291.349 379.595 283.63 379.799 283.945C380.003 284.26 367.841 292.49 352.633 302.328C337.425 312.165 324.932 319.885 324.727 319.57Z" fill="#3F00F9"/>
<path d="M362.728 320.901C374.348 312.534 383.505 305.387 383.175 304.907C382.845 304.428 373.167 310.905 361.537 319.222C349.908 327.538 340.76 334.735 341.091 335.215C341.421 335.695 351.109 329.258 362.728 320.901Z" fill="#3F00F9"/>
<path d="M147.472 48.9603C146.847 50.9131 146.411 52.9216 146.171 54.9579C145.911 56.9571 145.741 58.8964 145.601 60.8356C145.314 64.7273 145.107 68.5858 144.98 72.4109C144.72 80.0778 144.69 87.6148 144.71 95.0218C144.71 98.7103 144.66 102.379 144.87 106.077C144.997 109.814 145.71 113.507 146.982 117.023C147.657 118.803 148.602 120.468 149.784 121.961C150.962 123.421 152.348 124.701 153.898 125.759C156.862 127.653 159.979 129.298 163.215 130.677C169.22 133.676 175.225 136.725 180.93 139.624L189.427 143.922L193.58 146.021C194.941 146.721 196.322 147.431 197.763 148.021C199.211 148.667 200.729 149.143 202.287 149.44C203.88 149.737 205.517 149.713 207.101 149.37C210.244 148.66 212.766 146.981 215.108 145.532L228.829 137.025C246.313 126.169 260.435 117.343 270.163 111.195C275.037 108.127 278.8 105.718 281.332 104.058C282.665 103.273 283.937 102.388 285.135 101.409C283.719 102.029 282.354 102.758 281.051 103.588C278.419 105.098 274.566 107.357 269.612 110.296C259.714 116.163 245.432 124.74 227.828 135.376L214.007 143.742C211.615 145.182 209.213 146.691 206.611 147.241C204.008 147.791 201.276 147.131 198.604 145.941C195.932 144.752 193.21 143.222 190.427 141.823L181.961 137.455C176.216 134.516 170.381 131.457 164.236 128.378C161.138 127.049 158.152 125.471 155.309 123.66C152.573 121.814 150.475 119.167 149.304 116.083C148.149 112.813 147.508 109.384 147.402 105.917C147.212 102.379 147.292 98.7003 147.272 95.0018C147.272 87.6148 147.322 80.1078 147.592 72.5009C147.719 68.6891 147.926 64.864 148.213 61.0255C148.353 59.1063 148.523 57.197 148.773 55.3178C148.993 53.4587 149.388 51.6246 149.954 49.84C150.505 48.123 151.359 46.5184 152.476 45.1019C153.655 43.6869 154.999 42.4183 156.48 41.3234C159.482 39.0843 162.815 37.1751 166.068 35.1659C172.6 31.2075 179.058 27.3557 185.443 23.6105C191.829 19.8654 198.134 16.2368 204.359 12.7249L213.546 7.53699C216.419 5.80612 219.473 4.39493 222.654 3.32869C225.676 2.38474 228.894 2.25712 231.981 2.95883C235.045 3.71967 237.981 4.92179 240.698 6.5274C243.451 8.05679 246.063 9.84607 248.705 11.5254C251.347 13.2047 254.049 14.7541 256.712 16.2335C259.374 17.7129 262.016 19.1123 264.648 20.4118C267.28 21.7113 269.922 22.9008 272.354 24.1603C274.734 25.2965 276.89 26.8506 278.72 28.7485C280.343 30.6098 281.411 32.8885 281.802 35.3258C282.23 37.7417 282.451 40.1895 282.463 42.6429C282.463 45.0919 282.553 47.4709 282.593 49.78C282.693 54.4082 282.773 58.7764 282.853 62.8547C283.043 71.0215 283.203 78.0586 283.333 83.8463C283.463 89.634 283.624 94.0522 283.754 97.081C283.734 98.6236 283.845 100.165 284.084 101.689C284.272 100.157 284.345 98.6137 284.304 97.071C284.304 94.0722 284.384 89.584 284.394 83.8363C284.404 78.0887 284.394 71.0515 284.394 62.8448C284.394 58.7531 284.394 54.3915 284.394 49.76C284.394 47.441 284.394 45.0586 284.394 42.6129C284.417 40.048 284.216 37.4861 283.794 34.956C283.547 33.6058 283.158 32.2856 282.633 31.0176C282.069 29.6968 281.291 28.4777 280.331 27.409C278.355 25.3097 276.02 23.5798 273.435 22.3011C270.893 20.9616 268.311 19.8021 265.729 18.4726C263.147 17.1431 260.535 15.7537 257.923 14.2643C255.31 12.7749 252.678 11.2155 250.056 9.55618C247.434 7.89685 244.812 6.07757 241.949 4.45822C239.035 2.71932 235.883 1.41286 232.592 0.579794C229.095 -0.230688 225.447 -0.106569 222.013 0.93965C218.65 2.04377 215.419 3.5119 212.375 5.31788C209.333 7.0172 206.257 8.73984 203.148 10.4858C196.936 13.9844 190.628 17.6029 184.222 21.3414C177.817 25.0799 171.342 28.9284 164.796 32.8868C161.544 34.886 158.181 36.7852 154.958 39.1943C153.305 40.4263 151.809 41.8564 150.505 43.4526C149.175 45.0947 148.149 46.9596 147.472 48.9603Z" fill="#3F00F9"/>
<path d="M204.999 64.824C202.626 66.6417 200.634 68.9069 199.134 71.4913C197.765 74.0576 196.94 76.8787 196.712 79.778C196.442 82.5568 196.492 85.2158 196.492 87.7747C196.492 90.3337 196.492 92.8627 196.492 95.3117C196.492 105.138 196.622 113.984 196.732 121.421C196.842 128.858 196.983 134.866 197.133 139.014C197.283 143.162 197.463 145.472 197.653 145.472C197.843 145.472 198.023 143.172 198.194 139.024C198.364 134.876 198.524 128.848 198.664 121.421C198.804 113.994 198.914 105.148 199.004 95.3217C199.004 92.8627 199.004 90.3237 199.064 87.7747C199.024 85.1962 199.114 82.6173 199.335 80.0479C199.535 77.5109 200.261 75.0432 201.466 72.8008C202.794 70.5312 204.556 68.5443 206.651 66.9531C210.924 63.5845 215.998 61.3354 220.762 58.8964L234.543 51.8992C243.31 47.451 251.197 43.4126 257.802 39.984C264.408 36.5553 269.722 33.7465 273.375 31.7473C277.028 29.7481 279 28.5586 278.92 28.3886C278.839 28.2187 276.698 29.0883 272.915 30.7977C269.132 32.507 263.667 35.0559 256.962 38.2647C250.256 41.4734 242.27 45.3318 233.442 49.6601L219.591 56.4673C214.877 58.9163 209.683 61.1554 204.999 64.824Z" fill="#3F00F9"/>
<path d="M174.561 61.1257C163.237 55.4151 154.332 50.2425 154.671 49.5722C155.01 48.902 164.464 52.988 175.788 58.6986C187.111 64.4092 196.016 69.5818 195.678 70.252C195.339 70.9223 185.884 66.8363 174.561 61.1257Z" fill="#3F00F9"/>
<path d="M245.372 141.423L210.173 161.195C207.219 162.815 204.52 164.863 202.167 167.273C201.003 168.536 200.023 169.956 199.254 171.491C198.534 173.012 197.996 174.612 197.653 176.259C197.088 179.383 196.797 182.551 196.782 185.725C196.682 188.791 196.582 191.82 196.482 194.812C195.742 218.742 195.481 240.303 195.481 258.406C195.481 276.509 195.722 291.163 196.002 301.289C196.142 306.347 196.282 310.285 196.412 312.944C196.406 314.304 196.52 315.662 196.752 317.003C196.944 315.656 197.015 314.294 196.963 312.934C196.963 310.265 197.023 306.337 197.063 301.279C197.113 291.153 197.163 276.509 197.413 258.426C197.663 240.343 198.134 218.792 199.004 194.892C199.124 191.9 199.241 188.877 199.354 185.825C199.385 182.807 199.677 179.797 200.225 176.829C200.521 175.391 200.991 173.995 201.626 172.671C202.291 171.36 203.137 170.149 204.138 169.072C206.321 166.872 208.813 164.999 211.534 163.514C222.904 157.157 234.663 150.52 246.713 143.812L281.902 124.07L298.616 114.684L302.689 112.395C304.05 111.635 305.381 110.856 306.692 110.196C309.294 108.866 312.077 107.987 314.458 108.836C316.84 109.686 318.462 111.835 319.312 114.434C320.118 117.068 320.529 119.807 320.533 122.561C320.533 128.232 320.563 133.723 320.624 139.034C320.694 149.68 320.754 159.586 320.814 168.632C320.954 186.735 321.104 201.379 321.274 211.505C321.364 216.563 321.454 220.501 321.544 223.16C321.511 224.519 321.605 225.878 321.825 227.219C322.03 225.876 322.121 224.518 322.095 223.16C322.175 220.491 322.265 216.563 322.335 211.505C322.495 201.379 322.635 186.735 322.745 168.632C322.745 159.586 322.835 149.64 322.885 139.034C322.885 133.703 322.902 128.199 322.935 122.521C322.944 119.518 322.509 116.53 321.644 113.654C321.162 112.11 320.406 110.664 319.413 109.386C318.337 108.024 316.887 107.006 315.239 106.457C313.589 105.91 311.819 105.827 310.125 106.217C308.532 106.586 306.992 107.153 305.541 107.907C304.11 108.616 302.779 109.396 301.428 110.146L297.345 112.425L280.591 121.681L245.372 141.423Z" fill="#3F00F9"/>
<path d="M251.286 176.539L277.188 162.665L289.478 156.047L295.483 152.839L298.325 151.269C299.142 150.778 300.035 150.423 300.967 150.22C301.291 150.14 301.63 150.149 301.948 150.246C302.267 150.342 302.554 150.523 302.778 150.769C303.257 151.446 303.537 152.242 303.589 153.068C303.589 153.538 303.669 154.068 303.689 154.528V156.107C303.689 157.107 303.689 158.186 303.769 159.216C303.869 163.344 303.979 167.343 304.07 171.211C304.28 178.948 304.48 186.205 304.66 192.743C305.04 205.907 305.401 216.553 305.661 223.91C305.821 227.588 305.961 230.447 306.091 232.387C306.074 233.38 306.185 234.371 306.421 235.335C306.61 234.348 306.681 233.341 306.632 232.337C306.692 230.397 306.722 227.529 306.722 223.85C306.722 216.483 306.722 205.857 306.552 192.663C306.471 186.085 306.381 178.868 306.291 171.131C306.291 167.263 306.181 163.254 306.121 159.136C306.121 158.136 306.121 157.067 306.121 156.017V154.438C306.122 153.87 306.088 153.303 306.021 152.739C305.936 151.421 305.463 150.159 304.66 149.11C304.156 148.526 303.502 148.091 302.768 147.851C302.067 147.629 301.322 147.578 300.597 147.701C299.376 147.935 298.202 148.371 297.124 148.99L294.191 150.549L288.187 153.728L275.866 160.276L249.965 174.1C245.532 176.489 241.168 178.778 236.835 181.167C232.501 183.556 228.288 186.305 224.945 190.044C223.275 191.903 221.923 194.024 220.942 196.321C220.047 198.565 219.458 200.918 219.19 203.318C218.822 207.817 218.735 212.334 218.93 216.843C219.22 234.256 219.48 249.93 219.701 263.094C219.921 276.259 220.211 286.915 220.451 294.272C220.571 297.95 220.691 300.809 220.802 302.748C220.775 303.757 220.876 304.764 221.102 305.747C221.307 304.761 221.388 303.754 221.342 302.748C221.412 300.809 221.472 297.95 221.512 294.272C221.602 286.905 221.642 276.279 221.622 263.084C221.602 249.89 221.512 234.236 221.442 216.833C221.287 212.435 221.397 208.032 221.772 203.648C222.018 201.475 222.56 199.347 223.384 197.321C224.26 195.298 225.46 193.431 226.937 191.793C229.939 188.444 233.942 185.855 238.156 183.506C242.369 181.157 246.903 178.918 251.286 176.539Z" fill="#3F00F9"/>
<path d="M114.936 151.119C114.825 171.691 115.346 188.374 116.106 188.374C116.867 188.374 117.548 171.711 117.658 151.139C117.537 146.38 117.774 141.619 118.368 136.895C118.904 133.13 120.227 129.52 122.251 126.299C123.682 124.128 125.343 122.117 127.206 120.302C128.527 118.992 129.287 118.302 129.207 118.103C129.127 117.903 128.126 118.392 126.545 119.492C124.312 121.08 122.34 123.005 120.7 125.2C118.268 128.537 116.635 132.388 115.926 136.455C115.148 141.303 114.817 146.211 114.936 151.119Z" fill="#3F00F9"/>
<path d="M156.039 169.082C174.314 178.248 189.396 185.126 189.736 184.456C190.077 183.786 175.535 175.809 157.21 166.663C138.885 157.517 123.843 150.619 123.502 151.289C123.162 151.959 137.754 159.916 156.039 169.082Z" fill="#3F00F9"/>
<path d="M258.292 154.028C242.69 162.974 228.818 171.521 218.93 177.938C213.986 181.137 210.023 183.796 207.331 185.695C204.638 187.595 203.197 188.694 203.327 188.884C203.538 189.214 209.843 185.555 219.981 179.578C230.119 173.6 244.101 165.324 259.683 156.387C275.266 147.451 289.458 139.564 299.716 133.846C309.974 128.128 316.34 124.53 316.17 124.18C316.079 124.01 314.378 124.69 311.376 126.059C308.373 127.429 304.08 129.498 298.815 132.147C288.267 137.435 273.875 145.082 258.292 154.028Z" fill="#3F00F9"/>
<path d="M92.2871 212.565C89.8185 216.123 87.5399 219.768 85.4515 223.5C84.4507 225.379 83.4499 227.249 82.4491 229.158C81.4483 231.067 80.6476 232.976 79.7469 234.886C76.4272 242.472 73.6839 250.298 71.5402 258.296C67.5825 273.414 65.2672 288.914 64.6346 304.528C64.5445 306.387 64.4644 308.236 64.4244 310.075C64.3844 311.915 64.3143 313.734 64.3143 315.563C64.2361 319.221 64.5719 322.876 65.3151 326.459C66.0633 330.044 67.6512 333.401 69.9489 336.255C72.2035 339.127 75.3877 341.127 78.9563 341.913C82.3579 342.517 85.8587 342.228 89.1145 341.073C92.1364 340.025 95.0492 338.686 97.8116 337.074C100.377 335.586 103.019 334.234 105.728 333.026C108.263 331.925 110.974 331.282 113.735 331.127C116.377 331.041 119.016 331.379 121.551 332.126C122.776 332.485 123.976 332.922 125.144 333.436C126.272 333.96 127.369 334.551 128.427 335.205C130.468 336.448 132.351 337.935 134.031 339.633L134.652 340.243L135.222 340.893C135.593 341.323 135.973 341.743 136.323 342.182C139.523 346.257 141.646 351.069 142.498 356.177C143.109 359.559 143.287 363.005 143.029 366.433C142.631 371.198 141.58 375.887 139.906 380.367C138.745 383.446 137.964 385.005 138.075 385.055C138.351 384.723 138.583 384.357 138.765 383.966C139.185 383.226 139.766 382.086 140.416 380.577C142.334 376.101 143.568 371.364 144.079 366.523C144.446 363.003 144.345 359.45 143.779 355.957C143.136 351.766 141.692 347.738 139.526 344.092C138.916 343.09 138.247 342.126 137.524 341.203C137.164 340.733 136.763 340.293 136.383 339.823L135.803 339.134L135.152 338.484C133.408 336.663 131.445 335.064 129.307 333.726C128.193 333.017 127.036 332.377 125.845 331.807C124.608 331.241 123.334 330.76 122.031 330.367C119.307 329.529 116.464 329.144 113.615 329.228C110.619 329.368 107.673 330.045 104.917 331.227C102.123 332.43 99.3972 333.785 96.7508 335.285C94.0964 336.804 91.3011 338.063 88.404 339.044C85.5136 340.055 82.41 340.299 79.3966 339.753C76.3461 339.049 73.6358 337.307 71.7304 334.825C69.6845 332.241 68.2816 329.21 67.637 325.979C66.9621 322.57 66.6734 319.096 66.7763 315.623C66.7763 313.834 66.8464 312.025 66.9064 310.195C66.9665 308.366 67.0465 306.547 67.1466 304.697C67.8562 289.275 70.2046 273.972 74.1523 259.046C78.3658 243.612 84.801 228.058 94.519 214.164C99.2664 207.276 104.731 200.909 110.822 195.171C113.797 192.365 116.928 189.729 120.2 187.275C123.503 184.796 126.705 182.327 130.018 180.118C133.331 177.908 136.763 175.919 140.316 174.96C143.869 174 147.322 175.08 150.405 177.119C156.403 181.399 161.014 187.342 163.665 194.212C165.933 200.859 166.017 208.055 163.906 214.754C162.901 217.942 161.398 220.951 159.452 223.67C157.498 226.306 155.292 228.746 152.867 230.957C148.093 235.395 142.959 239.264 138.615 243.752C136.509 245.964 134.562 248.322 132.79 250.809C131.131 253.21 129.62 255.711 128.267 258.296C123.689 267.436 120.742 277.303 119.559 287.454C118.651 295.059 118.293 302.719 118.489 310.375C118.619 316.663 118.919 321.521 119.139 324.819C119.249 326.469 119.349 327.728 119.429 328.578C119.437 329.008 119.504 329.436 119.629 329.847C119.717 329.423 119.744 328.989 119.71 328.558C119.71 327.708 119.71 326.449 119.71 324.799C119.659 321.501 119.539 316.623 119.569 310.365C119.554 302.756 120.056 295.155 121.071 287.614C122.385 277.683 125.394 268.051 129.968 259.136C131.312 256.648 132.803 254.241 134.432 251.929C136.166 249.543 138.069 247.285 140.126 245.171C144.35 240.873 149.474 237.075 154.408 232.566C156.957 230.265 159.28 227.724 161.344 224.98C163.454 222.07 165.089 218.844 166.187 215.423C168.505 208.237 168.452 200.497 166.037 193.342C163.23 185.932 158.292 179.516 151.846 174.9C150.116 173.7 148.188 172.813 146.151 172.281L145.36 172.081C145.09 172.031 144.82 172.011 144.54 171.981C143.994 171.892 143.441 171.859 142.888 171.881C142.335 171.88 141.782 171.93 141.237 172.031C140.702 172.098 140.173 172.209 139.656 172.361C135.689 173.6 131.94 175.452 128.547 177.848C125.124 180.108 121.861 182.617 118.589 185.066C115.228 187.572 112.017 190.273 108.971 193.152C102.735 199.012 97.1418 205.52 92.2871 212.565Z" fill="#3F00F9"/>
<path d="M135.612 227.828C136.833 238.294 135.162 246.821 135.963 247.011C136.303 247.091 137.184 245.012 137.864 241.513C138.253 239.447 138.494 237.356 138.585 235.255C138.811 230.09 138.234 224.92 136.873 219.932C136.322 217.887 135.629 215.883 134.802 213.934C133.361 210.655 132.049 208.836 131.739 208.986C130.989 209.386 134.502 217.353 135.612 227.828Z" fill="#3F00F9"/>
<path d="M120.32 245.991C121.441 248.045 122.444 250.161 123.323 252.329C124.113 254.328 124.744 256.177 125.204 257.756C126.135 260.905 126.585 262.944 126.986 262.914C127.386 262.884 127.566 260.755 127.086 257.347C126.791 255.35 126.322 253.384 125.685 251.469C124.884 249.12 123.879 246.846 122.682 244.672C121.462 242.517 120.059 240.47 118.489 238.554C117.194 237.008 115.771 235.574 114.235 234.266C111.593 232.047 109.651 231.117 109.451 231.397C109.251 231.677 110.702 233.176 112.884 235.635C113.985 236.865 115.216 238.374 116.507 240.103C117.885 241.995 119.158 243.96 120.32 245.991Z" fill="#3F00F9"/>
<path d="M111.383 269.422C112.874 270.44 114.289 271.566 115.616 272.79C116.696 273.806 117.715 274.884 118.668 276.019C120.31 278.018 121.231 279.338 121.601 279.168C121.971 278.998 121.601 277.338 120.26 274.929C119.456 273.529 118.5 272.221 117.407 271.031C114.716 268.091 111.356 265.841 107.609 264.474C106.092 263.92 104.518 263.535 102.916 263.324C100.173 262.994 98.482 263.324 98.472 263.694C98.462 264.064 100.063 264.434 102.475 265.203C103.888 265.656 105.275 266.187 106.629 266.793C108.275 267.552 109.864 268.431 111.383 269.422Z" fill="#3F00F9"/>
<path d="M108.35 296.431C114.355 298.62 118.308 302.259 118.888 301.709C119.148 301.469 118.488 300.189 116.887 298.58C114.707 296.527 112.138 294.929 109.332 293.882C106.525 292.835 103.537 292.359 100.543 292.482C98.2614 292.632 96.9203 293.162 96.9604 293.482C97.0104 294.302 102.375 294.142 108.35 296.431Z" fill="#3F00F9"/>
<path d="M49.4025 359.585C48.8696 364.234 48.8428 368.926 49.3224 373.58C49.5464 375.596 49.8806 377.598 50.3232 379.577C50.5434 380.507 50.7135 381.417 50.9637 382.276L51.7344 384.715C52.172 386.113 52.6968 387.482 53.3056 388.814C53.5558 389.403 53.786 389.963 54.0262 390.453L54.7568 391.783C55.6576 393.362 56.218 394.182 56.3882 394.102C56.5583 394.022 56.3081 393.032 55.7276 391.353L55.2272 389.963C55.0571 389.453 54.917 388.884 54.7268 388.284C54.3865 387.074 53.8961 385.735 53.5859 384.176C53.4057 383.416 53.2056 382.616 53.0154 381.777C52.8253 380.937 52.7052 380.047 52.545 379.148C52.1647 377.328 52.0246 375.359 51.7944 373.3C51.099 364.323 52.2328 355.298 55.1271 346.771C55.8477 344.821 56.4682 342.942 57.2689 341.283C57.6592 340.443 57.9795 339.604 58.3698 338.834L59.5107 336.645C60.1913 335.215 60.9919 334.036 61.6224 332.946C61.9427 332.406 62.2229 331.887 62.5132 331.437L63.3339 330.207C64.3347 328.718 64.785 327.828 64.6449 327.708C64.5048 327.588 63.7542 328.238 62.5032 329.558L61.5023 330.667C61.142 331.087 60.7918 331.577 60.3914 332.087C59.4845 333.233 58.6456 334.431 57.8794 335.675L56.5383 337.864C56.0779 338.624 55.6976 339.474 55.2572 340.323C54.3321 342.145 53.5101 344.017 52.7952 345.931C51.1697 350.345 50.032 354.924 49.4025 359.585Z" fill="#3F00F9"/>
<path d="M96.3203 350.979C97.9313 348.767 99.7992 346.754 101.885 344.981C103.842 343.339 105.969 341.912 108.23 340.723C112.076 338.69 116.287 337.437 120.62 337.034C123.559 336.768 126.522 336.947 129.407 337.564C129.871 337.638 130.329 337.742 130.778 337.874C131.169 337.974 131.509 338.064 131.779 338.114C132.33 338.234 132.65 338.254 132.68 338.164C132.71 338.074 132.48 337.894 131.979 337.604L131.039 337.114C130.608 336.885 130.155 336.697 129.688 336.555C126.749 335.49 123.633 335.002 120.51 335.115C115.845 335.257 111.267 336.406 107.089 338.484C101.925 340.997 97.457 344.739 94.0785 349.379C90.8155 354.049 88.5625 359.346 87.4631 364.933C86.9731 367.342 86.6686 369.785 86.5524 372.24C86.4667 374.37 86.5102 376.503 86.6825 378.628C86.9144 381.69 87.4542 384.72 88.2938 387.674C88.9143 389.753 89.4147 390.853 89.5848 390.803C90.0452 390.693 88.7742 386.075 88.584 378.528C88.534 376.649 88.584 374.589 88.7842 372.39C88.9996 370.059 89.3707 367.745 89.8951 365.463C91.0796 360.266 93.2616 355.347 96.3203 350.979Z" fill="#3F00F9"/>
<path d="M113.064 358.706C115.065 357.53 117.434 357.143 119.706 357.622C121.978 358.101 123.989 359.411 125.344 361.295C126.377 363.117 126.847 365.204 126.695 367.292C126.695 369.371 126.495 371.431 126.645 373.37C126.712 375.171 127.228 376.926 128.146 378.478C128.889 379.646 129.961 380.568 131.228 381.127C132.02 381.489 132.9 381.611 133.761 381.477C134.331 381.377 134.591 381.177 134.571 381.107C134.571 380.867 133.33 381.187 131.709 380.187C130.756 379.572 129.983 378.717 129.467 377.708C128.829 376.325 128.52 374.812 128.566 373.29C128.566 371.541 128.836 369.591 128.957 367.352C129.027 366.158 128.98 364.959 128.816 363.774C128.621 362.44 128.162 361.159 127.465 360.005C125.902 357.551 123.443 355.801 120.61 355.127C119.115 354.736 117.558 354.647 116.028 354.865C114.498 355.083 113.028 355.604 111.703 356.397C109.094 357.932 107.022 360.232 105.768 362.984C104.61 365.504 104.115 368.277 104.326 371.041C104.492 373.476 105.081 375.865 106.068 378.098C106.507 379.097 107.012 380.065 107.579 380.997C108.08 381.771 108.537 382.572 108.95 383.396C109.293 384.007 109.473 384.695 109.473 385.395C109.473 386.095 109.293 386.784 108.95 387.394C108.345 388.384 107.545 389.241 106.598 389.913C105.007 391.123 103.986 391.693 104.086 391.912C104.186 392.132 105.297 391.832 107.179 390.833C108.385 390.216 109.433 389.33 110.241 388.244C110.778 387.496 111.122 386.627 111.242 385.715C111.343 384.694 111.192 383.665 110.802 382.716C110.418 381.787 109.977 380.882 109.481 380.007C109.012 379.129 108.594 378.224 108.23 377.298C107.443 375.276 106.993 373.138 106.899 370.971C106.783 368.632 107.247 366.3 108.25 364.184C109.274 361.92 110.95 360.013 113.064 358.706Z" fill="#3F00F9"/>
<path d="M304.711 99.9699C307.503 101.859 310.105 103.728 312.447 105.488C314.53 106.925 316.461 108.569 318.212 110.396C319.347 111.587 320.205 113.013 320.724 114.574C321.064 115.694 321.104 116.403 321.314 116.423C321.524 116.443 321.815 115.754 321.775 114.424C321.605 112.527 320.893 110.72 319.723 109.216C318.07 107.08 316.146 105.168 313.998 103.528C311.706 101.639 309.084 99.66 306.232 97.7408C301.38 94.4376 296.238 91.5804 290.869 89.2042C286.746 87.4149 284.044 86.6752 283.864 87.0051C283.593 87.6948 293.562 92.3929 304.711 99.9699Z" fill="#3F00F9"/>
<path d="M381.993 173.59C382.624 182.117 381.843 190.653 378.691 197.95C377.188 201.514 374.975 204.735 372.185 207.417C370.824 208.674 369.307 209.752 367.672 210.625C366.072 211.488 364.375 212.159 362.618 212.625C360.908 213.086 359.153 213.355 357.383 213.424C355.676 213.469 353.969 213.287 352.309 212.884C349.132 212.136 346.282 210.383 344.183 207.886C342.244 205.468 340.848 202.663 340.089 199.66C339.348 196.824 338.869 193.926 338.658 191.003C338.198 185.365 338.008 180.088 336.827 175.579C336.314 173.467 335.527 171.43 334.485 169.522C333.599 167.922 332.506 166.446 331.232 165.134C329.499 163.277 327.302 161.914 324.867 161.185C324.036 160.893 323.15 160.794 322.275 160.895C323.064 161.208 323.869 161.479 324.687 161.705C326.916 162.606 328.897 164.028 330.461 165.853C332.942 168.745 334.628 172.231 335.355 175.969C336.356 180.307 336.356 185.445 336.746 191.193C336.899 194.247 337.341 197.279 338.068 200.249C338.857 203.567 340.352 206.676 342.451 209.366C344.834 212.263 348.087 214.317 351.729 215.223C353.598 215.703 355.524 215.928 357.453 215.893C359.421 215.844 361.376 215.566 363.278 215.064C365.228 214.564 367.111 213.829 368.883 212.874C370.722 211.922 372.428 210.733 373.957 209.336C377.033 206.422 379.482 202.912 381.153 199.02C384.576 191.163 385.366 182.217 384.716 173.4C383.541 156.675 377.518 140.653 367.382 127.289C362.978 121.496 357.81 116.324 352.019 111.915C346.972 108.103 341.51 104.874 335.736 102.289C330.982 100.149 326.031 98.4752 320.954 97.2909C317.131 96.4195 313.246 95.8512 309.334 95.5915C307.733 95.4416 306.332 95.4316 305.061 95.4216H303.329L301.918 95.4916C301.051 95.4698 300.186 95.5673 299.346 95.7815C299.346 96.0414 302.899 95.9214 309.224 96.6611C313.054 97.1102 316.847 97.8352 320.573 98.8303C325.509 100.12 330.314 101.867 334.925 104.048C340.496 106.672 345.759 109.904 350.618 113.684C356.184 118.05 361.148 123.132 365.38 128.798C375.081 141.841 380.846 157.383 381.993 173.59Z" fill="#3F00F9"/>
<path d="M330.352 144.022C331.751 141.743 332.705 139.219 333.164 136.585C333.484 134.586 333.304 133.286 332.944 133.226C332.163 133.116 331.012 137.745 328.02 142.613C325.027 147.481 321.514 150.679 322.015 151.319C322.235 151.609 323.446 151.179 325.097 149.96C327.204 148.325 328.986 146.311 330.352 144.022Z" fill="#3F00F9"/>
<path d="M345.364 170.661C346.896 170.013 348.336 169.166 349.647 168.142C350.714 167.304 351.669 166.333 352.49 165.254C353.871 163.394 354.241 161.985 353.941 161.815C353.641 161.645 352.66 162.595 351.078 163.944C347.013 167.475 341.918 169.605 336.547 170.022C334.475 170.212 333.114 170.182 333.024 170.571C332.934 170.961 334.205 171.631 336.507 171.951C337.836 172.118 339.181 172.118 340.51 171.951C342.177 171.735 343.809 171.302 345.364 170.661Z" fill="#3F00F9"/>
<path d="M352.159 195.531C354.168 195.449 356.159 195.113 358.084 194.532C358.917 194.271 359.733 193.957 360.526 193.592C361.218 193.288 361.887 192.934 362.528 192.533C364.9 191.063 365.97 189.684 365.76 189.424C365.55 189.164 364.059 189.894 361.677 190.813C361.076 191.033 360.426 191.283 359.675 191.493C358.925 191.703 358.194 191.903 357.383 192.113C355.622 192.496 353.83 192.731 352.029 192.813C350.222 192.864 348.413 192.757 346.625 192.493C345.804 192.343 345.013 192.233 344.303 192.033C343.592 191.833 342.902 191.683 342.301 191.503C339.859 190.753 338.348 190.064 338.128 190.414C337.908 190.763 339.129 191.983 341.571 193.282C342.24 193.641 342.936 193.948 343.652 194.202C344.47 194.505 345.306 194.759 346.154 194.962C348.124 195.402 350.142 195.593 352.159 195.531Z" fill="#3F00F9"/>
<path d="M391.512 201.649C396.826 204.968 401.45 207.147 401.85 206.507C402.251 205.867 398.267 202.659 392.953 199.34C387.639 196.021 383.005 193.852 382.604 194.492C382.204 195.132 386.197 198.35 391.512 201.649Z" fill="#3F00F9"/>
<path d="M387.738 229.638C388.826 229.155 390 228.892 391.19 228.864C392.381 228.837 393.565 229.045 394.674 229.478C395.708 229.849 396.635 230.467 397.376 231.277C398.038 232.053 398.447 233.012 398.547 234.026C398.631 235.145 398.578 236.269 398.387 237.375L397.907 240.853C397.747 241.983 397.576 243.062 397.366 244.102C397.266 244.612 397.156 245.102 397.036 245.611L396.916 246.041L396.716 246.721L396.295 248.04L399.198 249.11C399.828 249.36 400.439 249.6 401.019 249.85C402.19 250.349 403.291 250.849 404.312 251.349C406.314 252.349 408.045 253.348 409.436 254.188C412.198 255.877 413.7 256.957 413.86 256.767C414.02 256.577 412.739 255.217 410.127 253.178C408.532 251.956 406.86 250.838 405.123 249.83C404.122 249.24 403.011 248.65 401.82 248.07C401.229 247.78 400.609 247.501 399.978 247.211L399.488 247.001L399.248 246.901H399.188L398.998 246.801L399.058 246.641V246.571L399.168 246.231C399.318 245.711 399.458 245.171 399.588 244.622C399.848 243.532 400.058 242.413 400.259 241.263L400.839 237.784C401.101 236.469 401.185 235.124 401.089 233.786C400.963 232.249 400.37 230.788 399.388 229.598C398.371 228.431 397.077 227.537 395.625 226.999C394.204 226.452 392.694 226.171 391.171 226.169C389.582 226.136 388.008 226.479 386.577 227.169C383.303 228.796 380.79 231.631 379.572 235.076C378.987 236.654 378.65 238.313 378.571 239.994C378.514 241.583 378.645 243.173 378.961 244.732C379.542 247.681 380.372 250.289 380.793 252.728C381.292 254.877 381.138 257.125 380.352 259.186C379.656 260.828 378.366 262.149 376.739 262.884C375.463 263.471 374.081 263.794 372.676 263.834C370.314 263.924 368.983 263.484 368.923 263.704C368.863 263.924 370.084 264.644 372.656 264.894C374.24 265.042 375.837 264.833 377.33 264.284C379.413 263.53 381.123 262 382.104 260.016C382.658 258.871 382.997 257.634 383.105 256.367C383.22 255.034 383.183 253.693 382.994 252.369C382.644 249.7 381.874 247.011 381.403 244.252C381.153 242.891 381.065 241.505 381.143 240.124C381.248 238.709 381.562 237.318 382.074 235.995C383.092 233.239 385.115 230.968 387.738 229.638Z" fill="#3F00F9"/>
<path d="M402.27 206.137C398.315 204.694 394.099 204.108 389.9 204.418C382.421 204.839 375.36 208.003 370.074 213.304C367.912 215.431 366.04 217.834 364.509 220.451C362.285 224.189 360.709 228.275 359.845 232.537C359.255 235.535 359.255 237.235 359.415 237.255C359.575 237.275 359.975 235.655 360.866 232.806C362.089 228.802 363.864 224.987 366.141 221.471C367.695 219.074 369.54 216.878 371.635 214.934C376.635 210.193 383.174 207.404 390.06 207.077C393.888 206.829 397.726 207.38 401.329 208.696C404.904 209.975 408.093 212.142 410.597 214.994C412.908 217.707 414.633 220.869 415.661 224.28C417.374 230.196 417.662 236.434 416.502 242.483C415.74 246.629 414.69 250.717 413.359 254.718C412.438 257.576 411.948 259.186 412.138 259.256C412.328 259.326 413.139 257.866 414.35 255.087C416.08 251.145 417.42 247.044 418.353 242.842C419.845 236.483 419.728 229.853 418.013 223.55C416.953 219.772 415.101 216.262 412.578 213.254C409.809 210.039 406.26 207.589 402.27 206.137Z" fill="#3F00F9"/>
<path d="M325.537 207.647C324.367 209.498 323.404 211.473 322.665 213.534C322.072 215.217 321.669 216.96 321.464 218.732C321.124 221.731 321.524 223.62 321.864 223.62C322.204 223.62 322.575 221.841 323.345 219.112C325.342 212.012 329.437 205.678 335.095 200.939C337.257 199.1 338.778 198.09 338.598 197.721C338.418 197.351 336.596 197.821 333.974 199.37C332.443 200.289 331.02 201.375 329.731 202.609C328.151 204.128 326.745 205.818 325.537 207.647Z" fill="#3F00F9"/>
<path d="M159.782 299.26C179.358 310.185 195.522 318.502 195.892 317.852C196.262 317.203 180.69 307.806 161.114 296.861C141.538 285.915 125.364 277.608 124.994 278.268C124.624 278.928 140.196 288.334 159.782 299.26Z" fill="#3F00F9"/>
<path d="M248.154 85.0159C248.594 85.4557 249.015 85.8955 249.425 86.3353L250.025 87.005H249.945L249.565 87.195L248.824 87.5948C246.823 88.5944 245.101 89.594 243.64 90.4537C240.728 92.163 239.006 93.3825 239.177 93.7223C239.347 94.0622 241.358 93.4424 244.491 92.183C246.052 91.5532 247.904 90.7635 249.925 89.8439L250.696 89.494L251.787 88.9843C252.267 88.7896 252.666 88.4369 252.918 87.9847C253.03 87.7577 253.094 87.5101 253.106 87.2573C253.118 87.0044 253.078 86.7518 252.988 86.5152C252.878 86.2544 252.73 86.0118 252.547 85.7955C252.386 85.561 252.208 85.3372 252.017 85.1258L251.387 84.3961C250.956 83.9063 250.506 83.3965 250.035 82.9667C249.315 82.2369 248.564 81.5672 247.814 80.9675C247.386 80.573 246.908 80.2369 246.392 79.9679C246.012 79.7759 245.597 79.6636 245.171 79.638C244.737 79.6148 244.304 79.7117 243.92 79.9179C243.511 80.1252 243.165 80.4396 242.92 80.8275C242.818 80.9858 242.731 81.1531 242.659 81.3273L242.499 81.7172L242.059 82.9767L241.278 85.3257C240.798 86.8151 240.388 88.1446 240.087 89.2541C239.477 91.4732 239.247 92.8427 239.537 92.9527C239.827 93.0626 240.538 91.8931 241.599 89.8339C242.119 88.8343 242.709 87.5448 243.34 86.1154C243.66 85.4057 243.991 84.646 244.341 83.8463L244.861 82.6368L244.971 82.3969C244.971 82.3169 245.041 82.2769 245.031 82.2969C245.031 82.2969 245.031 82.2969 245.121 82.3469C245.424 82.5334 245.705 82.7512 245.962 82.9966C246.803 83.6964 247.483 84.3461 248.154 85.0159Z" fill="#3F00F9"/>
<path d="M257.882 93.0726C258.788 92.4047 259.889 92.0534 261.014 92.073C261.652 92.2135 262.234 92.5373 262.689 93.0045C263.145 93.4717 263.453 94.0618 263.577 94.702C263.799 95.9905 263.692 97.314 263.266 98.5504C261.662 104.183 257.995 109.006 252.995 112.063C247.995 115.121 242.026 116.188 236.274 115.054C234.364 114.821 232.594 113.93 231.27 112.535C230.618 111.742 230.295 110.729 230.369 109.706C230.79 107.797 234.072 106.597 235.564 105.708L242.479 101.769L256.321 93.9023L257.882 93.0726Z" fill="#3F00F9"/>
<path d="M264.538 52.9388C267.541 51.3994 270.423 51.1895 270.543 50.4198C270.543 50.0599 269.832 49.6101 268.481 49.4202C266.72 49.317 264.963 49.675 263.383 50.4588C261.803 51.2425 260.456 52.4247 259.474 53.8884C258.773 55.0479 258.673 55.8876 258.974 56.1075C259.574 56.5473 261.496 54.3882 264.538 52.9388Z" fill="#3F00F9"/>
<path d="M218.56 77.6988C217.178 78.332 215.952 79.2601 214.967 80.4177C214.237 81.3273 213.967 82.067 214.267 82.3269C214.827 82.8567 216.969 81.4273 219.721 80.1578C222.474 78.8883 224.916 78.0886 224.875 77.3189C224.875 76.959 224.115 76.6592 222.944 76.6492C221.423 76.6737 219.927 77.032 218.56 77.6988Z" fill="#3F00F9"/>
<path d="M128.557 121.081C129.791 123.116 131.739 124.619 134.021 125.3C135.982 125.854 138.057 125.868 140.025 125.34C141.993 124.812 143.782 123.762 145.2 122.301C146.322 121.101 147.175 119.677 147.702 118.123C148.458 115.946 148.59 113.602 148.083 111.355C147.702 109.796 147.202 109.056 147.082 109.106C146.962 109.156 147.082 110.016 147.082 111.485C147.151 113.524 146.764 115.552 145.951 117.423C145.414 118.663 144.631 119.782 143.649 120.711C142.534 121.737 141.183 122.472 139.716 122.851C138.118 123.274 136.435 123.246 134.852 122.771C133.21 122.249 131.815 121.147 130.929 119.672C130.016 118.172 129.597 116.424 129.728 114.674C129.864 113.043 130.492 111.492 131.529 110.226C132.488 109.04 133.712 108.095 135.102 107.467C136.326 106.919 137.654 106.64 138.995 106.647C141.026 106.671 143.019 107.204 144.79 108.197C146.081 108.896 146.742 109.446 146.892 109.296C147.042 109.146 146.612 108.376 145.391 107.297C143.61 105.803 141.412 104.892 139.095 104.688C137.448 104.541 135.789 104.766 134.241 105.348C132.452 106.027 130.86 107.14 129.608 108.586C128.174 110.213 127.285 112.248 127.066 114.404C126.831 116.732 127.354 119.073 128.557 121.081Z" fill="#3F00F9"/>
<path d="M288.127 32.267C290.129 31.1275 291.38 29.6781 291.009 29.0283C290.639 28.3786 288.728 28.7784 286.756 29.918C284.784 31.0575 283.503 32.507 283.884 33.1567C284.264 33.8064 286.155 33.4166 288.127 32.267Z" fill="#3F00F9"/>
<path d="M302.548 21.7213C303.39 23.0217 303.829 24.5412 303.809 26.0895C303.75 27.5237 303.281 28.911 302.458 30.0879C301.709 31.18 300.697 32.0668 299.516 32.6669C298.473 33.1701 297.321 33.4071 296.163 33.3566C294.394 33.2724 292.692 32.6478 291.289 31.5673C290.288 30.7776 289.818 30.1579 289.638 30.2678C289.458 30.3778 289.638 31.1675 290.549 32.267C291.731 33.6572 293.32 34.6415 295.093 35.0809C296.865 35.5203 298.731 35.3927 300.427 34.7161C302.039 34.0389 303.441 32.9452 304.49 31.5473C305.685 29.9937 306.383 28.1158 306.492 26.1595C306.573 24.6247 306.305 23.0916 305.708 21.6751C305.111 20.2586 304.2 18.9955 303.045 17.9808C301.889 16.966 300.518 16.2259 299.035 15.8159C297.552 15.406 295.995 15.3368 294.482 15.6137C292.742 15.9173 291.126 16.7155 289.828 17.9128C288.49 19.1886 287.642 20.8932 287.434 22.7292C287.225 24.5652 287.669 26.416 288.687 27.9588C289.598 29.1583 290.419 29.4382 290.499 29.3182C290.579 29.1983 290.108 28.5885 289.608 27.429C288.947 25.8101 288.89 24.0082 289.448 22.351C289.801 21.2721 290.453 20.3154 291.329 19.5921C292.354 18.7765 293.583 18.2578 294.882 18.0927C296.323 17.8975 297.79 18.0979 299.126 18.6725C300.545 19.3256 301.737 20.3872 302.548 21.7213Z" fill="#3F00F9"/>
<path d="M159.902 104.688C166.287 100.999 171.151 97.4708 170.771 96.8211C170.391 96.1713 164.916 98.6403 158.531 102.339C152.146 106.037 147.292 109.556 147.672 110.206C148.053 110.855 153.527 108.366 159.902 104.688Z" fill="#3F00F9"/>
<path d="M422.636 275.01C423.783 274.502 425.072 274.411 426.279 274.75C427.567 275.231 428.785 275.879 429.902 276.679L437.088 281.217C441.682 284.096 445.835 286.655 449.348 288.774C456.354 293.002 460.807 295.461 461.018 295.151C461.228 294.842 457.144 291.803 450.389 287.155C447.016 284.836 442.973 282.107 438.449 279.158L431.353 274.48C430.038 273.526 428.596 272.759 427.07 272.201C426.175 271.917 425.233 271.811 424.298 271.891C423.394 271.964 422.507 272.173 421.666 272.511C420.17 273.141 418.73 273.897 417.362 274.77L413.509 277.079L406.233 281.477C401.609 284.296 397.456 286.865 393.993 289.054C387.067 293.442 382.884 296.311 383.074 296.641C383.264 296.971 387.798 294.642 394.984 290.713C398.567 288.714 402.82 286.335 407.514 283.636L414.87 279.378L418.753 277.099C419.99 276.3 421.288 275.601 422.636 275.01Z" fill="#3F00F9"/>
<path d="M384.396 341.253C384.594 342.964 385.201 344.603 386.167 346.031C387.179 347.347 388.471 348.423 389.95 349.18C391.291 349.909 392.522 350.499 393.763 351.129L397.406 352.948C402.13 355.297 406.414 357.386 410.016 359.096C417.232 362.534 421.776 364.484 421.946 364.154C422.116 363.824 417.883 361.255 410.937 357.386C407.444 355.457 403.261 353.188 398.597 350.719L395.004 348.82C393.793 348.17 392.492 347.52 391.321 346.821C390.195 346.234 389.206 345.417 388.419 344.422C387.718 343.331 387.279 342.092 387.138 340.803C386.928 339.414 386.868 337.904 386.747 336.425L386.397 332.097L385.757 323.85C385.316 318.592 384.896 313.854 384.496 309.856C383.705 301.909 383.024 297.011 382.644 297.041C382.264 297.071 382.274 302.039 382.574 310.035C382.724 314.034 382.954 318.772 383.245 324.03L383.735 332.297L384.015 336.665C384.105 338.124 384.155 339.594 384.396 341.253Z" fill="#3F00F9"/>
<path d="M421.81 342.06C421.263 331.165 421.428 322.302 422.179 322.265C422.93 322.227 423.981 331.029 424.528 341.924C425.075 352.819 424.91 361.682 424.159 361.719C423.408 361.757 422.356 352.955 421.81 342.06Z" fill="#3F00F9"/>
<path d="M462.519 337.984C462.983 335.076 463.134 332.127 462.97 329.188L462.84 321.241C462.73 316.173 462.599 311.615 462.459 307.786C462.159 300.129 461.789 295.391 461.408 295.401C461.028 295.411 460.728 300.139 460.528 307.806C460.428 311.635 460.358 316.193 460.328 321.261V329.208C460.45 331.948 460.302 334.693 459.887 337.404C459.639 338.648 459.153 339.833 458.456 340.893C457.708 341.93 456.799 342.841 455.764 343.592C454.763 344.382 453.592 345.111 452.501 345.841L449.258 347.96C445.025 350.689 441.132 353.048 437.849 354.957C431.264 358.836 427.1 361.115 427.271 361.475C427.441 361.835 431.894 360.125 438.77 356.647C442.213 354.907 446.236 352.698 450.59 350.059C451.68 349.4 452.791 348.71 453.922 348C455.053 347.29 456.194 346.561 457.375 345.691C458.635 344.792 459.743 343.699 460.658 342.452C461.567 341.1 462.199 339.581 462.519 337.984Z" fill="#3F00F9"/>
<path d="M402.911 310.275C413.71 316.773 422.787 321.531 423.177 320.881C423.568 320.231 415.171 314.444 404.312 307.936C393.453 301.429 384.396 296.681 384.045 297.32C383.695 297.96 392.102 303.768 402.911 310.275Z" fill="#3F00F9"/>
<path d="M438.1 310.305C428.942 315.583 421.826 320.391 422.207 321.041C422.587 321.691 430.303 317.942 439.461 312.664C448.618 307.386 455.734 302.608 455.354 301.919C454.973 301.229 447.257 305.017 438.1 310.305Z" fill="#3F00F9"/>
<path d="M330.732 308.706C328.731 307.876 326.729 306.707 324.727 305.627L318.722 302.438L306.943 296.211C303.09 294.132 299.176 292.352 296.334 289.674C294.947 288.408 293.898 286.818 293.282 285.045C292.76 283.213 292.513 281.313 292.551 279.408C292.491 271.411 292.441 263.774 292.391 256.647V251.389C292.338 249.765 292.425 248.14 292.651 246.531C292.852 245.086 293.405 243.713 294.262 242.532C295.162 241.411 296.261 240.465 297.505 239.744L322.816 226.219C325.818 224.6 328.11 223.32 329.661 222.431C330.493 222.042 331.268 221.541 331.963 220.941C331.074 221.165 330.216 221.501 329.411 221.941C327.78 222.68 325.408 223.8 322.325 225.279L311.206 230.707L304.281 234.136L300.507 236.015C299.216 236.665 297.865 237.295 296.504 238.104C295.033 238.92 293.73 240.005 292.661 241.303C291.579 242.735 290.864 244.41 290.579 246.181C290.302 247.909 290.178 249.659 290.209 251.409C290.209 253.128 290.209 254.888 290.209 256.667C290.209 263.804 290.149 271.441 290.119 279.468C290.067 281.625 290.34 283.779 290.93 285.855C291.662 288.037 292.928 290.003 294.613 291.573C297.925 294.702 301.979 296.501 305.772 298.57L317.531 304.827L323.536 308.036C325.588 309.086 327.54 310.235 329.811 311.225C331.013 311.738 332.291 312.052 333.595 312.154C334.872 312.202 336.147 312.016 337.358 311.605C339.582 310.769 341.705 309.682 343.683 308.366L355.102 301.509L360.667 298.15C362.508 297.021 364.31 296.021 366.161 294.761C367.113 294.107 367.983 293.342 368.753 292.482C369.534 291.574 370.135 290.526 370.525 289.394C371.146 287.288 371.367 285.084 371.175 282.896L369.844 260.145C369.624 256.587 369.414 253.148 369.214 249.84C369.135 248.151 368.877 246.476 368.443 244.842C367.997 243.175 367.137 241.648 365.941 240.403C364.797 239.323 363.503 238.414 362.098 237.704L358.365 235.705L351.539 232.087L340.53 226.349C337.528 224.79 335.156 223.6 333.524 222.82C332.733 222.358 331.885 221.999 331.002 221.751C331.678 222.373 332.44 222.895 333.264 223.3C334.785 224.24 337.057 225.579 340 227.299L350.749 233.446L357.474 237.245L361.137 239.314C362.37 239.96 363.503 240.781 364.5 241.753C366.411 243.692 366.912 246.751 367.052 249.989C367.192 253.228 367.362 256.737 367.532 260.295C367.862 267.413 368.233 275.029 368.613 283.036C368.768 284.904 368.578 286.785 368.053 288.584C367.392 290.254 366.209 291.667 364.68 292.612C363.059 293.712 361.137 294.771 359.326 295.871L353.741 299.2L342.302 306.027C340.492 307.233 338.555 308.239 336.527 309.026C335.594 309.332 334.615 309.47 333.635 309.436C332.634 309.349 331.654 309.102 330.732 308.706Z" fill="#3F00F9"/>
<path d="M326.529 267.432C327.856 268.161 329.268 268.725 330.732 269.112C332.243 269.501 333.82 269.562 335.356 269.292C338.03 268.63 340.552 267.459 342.782 265.843C346.945 263.184 350.668 260.755 353.791 258.686C360.006 254.538 363.749 251.819 363.549 251.499C363.349 251.179 359.245 253.328 352.77 257.047C349.538 258.916 345.704 261.165 341.481 263.714C339.492 265.102 337.268 266.118 334.916 266.713C332.644 267.123 330.212 266.363 327.82 265.073C325.428 263.784 323.016 262.245 320.704 260.905L314.029 256.997C309.765 254.508 305.902 252.309 302.639 250.499C296.114 246.861 291.981 244.782 291.78 245.101C291.58 245.421 295.373 248.1 301.648 252.149C304.781 254.148 308.544 256.547 312.737 259.146L319.333 263.144C321.635 264.534 323.917 266.003 326.529 267.432Z" fill="#3F00F9"/>
<path d="M330.351 286.615C330.652 295.971 331.042 303.608 331.803 303.608C332.563 303.608 333.374 295.981 333.074 286.535C332.773 277.089 331.482 269.542 330.742 269.542C330.001 269.542 330.101 277.229 330.351 286.615Z" fill="#3F00F9"/>
<path d="M280.15 234.416C279.837 235.381 279.236 236.229 278.429 236.845C277.472 237.554 276.469 238.198 275.426 238.774L269.171 242.543L257.372 249.72C255.49 250.869 253.619 251.869 251.827 252.918L249.165 254.438C248.304 254.948 247.444 255.437 246.533 255.977C244.801 257.087 243.4 258.276 241.919 258.766C240.482 259.248 238.916 259.169 237.535 258.546C236.168 257.904 234.876 257.113 233.682 256.187L230.3 253.648C228.188 252.069 226.356 250.719 224.845 249.65C221.843 247.471 220.101 246.341 219.981 246.481C219.861 246.621 221.362 248.04 224.185 250.479C225.596 251.699 227.337 253.168 229.369 254.868L232.641 257.587C233.898 258.665 235.283 259.585 236.765 260.325C238.573 261.205 240.648 261.366 242.57 260.775C244.571 260.155 246.142 258.846 247.724 257.906C248.484 257.457 249.395 256.997 250.286 256.507L253.008 255.018C254.84 254.018 256.771 253.018 258.663 251.889L270.552 244.892L276.828 241.153C277.97 240.512 279.07 239.797 280.12 239.014C281.319 238.067 282.216 236.793 282.702 235.345C283.119 234 283.315 232.595 283.283 231.187C283.283 229.858 283.203 228.628 283.153 227.389C283.043 224.92 282.922 222.491 282.812 220.102C282.572 215.323 282.342 210.715 282.132 206.317L281.792 199.9C281.769 197.792 281.514 195.694 281.031 193.642C280.739 192.594 280.276 191.601 279.66 190.703C279.053 189.863 278.321 189.121 277.488 188.504C276.015 187.486 274.477 186.565 272.884 185.745C267.06 182.517 262.326 179.958 259.013 178.228C255.7 176.499 253.839 175.639 253.739 175.799C253.639 175.959 255.34 177.149 258.483 179.148C261.625 181.147 266.219 183.976 271.924 187.415C273.403 188.243 274.83 189.161 276.197 190.164C277.531 191.172 278.469 192.615 278.849 194.242C279.23 196.141 279.414 198.073 279.4 200.01L279.62 206.427C279.79 210.825 279.96 215.423 280.14 220.222C280.24 222.614 280.34 225.043 280.44 227.509C280.561 229.938 280.821 232.427 280.15 234.416Z" fill="#3F00F9"/>
<path d="M249.115 214.854C264.728 208.076 276.087 200.13 275.687 199.54C275.287 198.95 263.427 205.677 248.014 212.355C246.289 213.212 244.468 213.863 242.59 214.294C241.824 214.414 241.041 214.345 240.308 214.094C239.508 213.796 238.738 213.425 238.006 212.984L233.533 210.375C232.111 209.566 230.78 208.826 229.529 208.186C224.595 205.607 221.373 204.358 221.203 204.678C221.032 204.998 223.915 206.867 228.559 209.846L236.705 215.144C237.561 215.697 238.47 216.166 239.417 216.543C240.532 216.957 241.731 217.095 242.91 216.943C245.061 216.521 247.148 215.819 249.115 214.854Z" fill="#3F00F9"/>
<path d="M240.98 234.169C240.818 224.211 241.296 216.129 242.048 216.116C242.8 216.104 243.54 224.167 243.702 234.125C243.864 244.083 243.386 252.165 242.634 252.177C241.883 252.189 241.142 244.127 240.98 234.169Z" fill="#3F00F9"/>
<path d="M97.7417 146.211C106.169 150.669 113.174 154.048 113.344 153.668C113.515 153.288 106.819 149.44 98.3823 144.972C89.9454 140.504 82.9697 137.135 82.7895 137.465C82.6094 137.795 89.3048 141.733 97.7417 146.211Z" fill="#3F00F9"/>
<path d="M66.1955 147.761C57.1882 153.758 50.1825 158.836 50.3426 159.156C50.5027 159.476 57.9888 154.878 66.9461 148.9C75.9035 142.923 82.9592 137.815 82.7991 137.505C82.639 137.195 75.1428 141.783 66.1955 147.761Z" fill="#3F00F9"/>
<path d="M70.5391 171.721C81.8783 178.328 91.1259 183.606 91.4261 183.116C91.7264 182.627 82.9392 176.579 71.5699 169.962C60.2006 163.344 50.6028 158.676 50.3426 159.156C50.0824 159.636 59.2098 165.114 70.5391 171.721Z" fill="#3F00F9"/>
<path d="M103.426 175.829C109.731 171.691 114.665 168.072 114.435 167.763C114.204 167.453 108.96 170.551 102.655 174.69C96.3499 178.828 91.4258 182.447 91.646 182.767C91.8662 183.086 97.1605 179.978 103.426 175.829Z" fill="#3F00F9"/>
<path d="M81.0481 157.057C90.1355 152.059 97.7817 148.5 97.6316 148.13C97.5515 147.971 95.5499 148.64 92.3973 149.99C89.2448 151.339 84.9713 153.358 80.3875 155.867C75.8038 158.376 71.8005 160.865 68.9782 162.865C66.1559 164.864 64.5146 166.143 64.6147 166.293C64.8549 166.593 71.9506 162.045 81.0481 157.057Z" fill="#3F00F9"/>
<path d="M84.0005 164.384C87.3832 161.755 89.9453 159.386 89.7151 159.076C89.4849 158.766 86.5525 160.675 83.1698 163.314C79.787 165.953 77.2249 168.312 77.4551 168.622C77.6853 168.932 80.6177 167.023 84.0005 164.384Z" fill="#3F00F9"/>
<path d="M92.8272 171.411C95.7596 169.512 98.2717 168.132 98.1215 167.783C97.9714 167.433 95.1191 168.292 92.1166 170.262C89.1142 172.231 87.1126 174.45 87.3528 174.71C87.593 174.97 89.8848 173.29 92.8272 171.411Z" fill="#3F00F9"/>
<path d="M88.294 167.922C91.2264 166.023 93.7384 164.654 93.5883 164.294C93.4382 163.934 90.5859 164.814 87.5834 166.783C84.581 168.752 82.5794 170.961 82.8196 171.231C83.0597 171.501 85.3516 169.802 88.294 167.922Z" fill="#3F00F9"/>
<path d="M76.1436 149.42C72.6507 156.057 69.6983 161.415 70.0286 161.585C70.3589 161.755 73.8317 156.737 77.3446 150.05C80.8574 143.362 83.1493 137.675 82.789 137.505C82.4287 137.335 79.6764 142.783 76.1436 149.42Z" fill="#3F00F9"/>
<path d="M75.2528 153.028C84.3803 151.709 91.7363 150.35 91.6863 149.98C91.6362 149.61 84.1902 150.37 75.0627 151.679C65.9353 152.988 58.5792 154.348 58.6293 154.728C58.6793 155.108 66.1354 154.338 75.2528 153.028Z" fill="#3F00F9"/>
<path d="M369.834 331.807C361.827 337.185 355.622 341.913 355.942 342.382C356.262 342.852 362.948 338.874 370.954 333.506C378.961 328.138 385.176 323.4 384.866 322.93C384.556 322.46 377.82 326.439 369.834 331.807Z" fill="#3F00F9"/>
<path d="M23.3402 234.576C23.3402 253.878 23.8005 269.562 24.341 269.562C24.8814 269.562 25.3418 253.908 25.3418 234.576C25.3418 215.244 24.8814 199.59 24.341 199.59C23.8005 199.59 23.3402 215.264 23.3402 234.576Z" fill="#3F00F9"/>
<path d="M35.6003 302.209C35.0365 302.209 34.5794 280.382 34.5794 253.458C34.5794 226.534 35.0365 204.708 35.6003 204.708C36.1641 204.708 36.6211 226.534 36.6211 253.458C36.6211 280.382 36.1641 302.209 35.6003 302.209Z" fill="#3F00F9"/>
<path d="M25.6529 215.563C26.4073 216.486 27.3441 217.244 28.4048 217.789C29.4656 218.335 30.6275 218.656 31.818 218.732C33.6295 218.822 34.6503 218.272 34.5903 218.022C34.5302 217.773 33.5094 217.723 32.0382 217.313C30.1717 216.817 28.4978 215.773 27.2343 214.314C26.0369 212.784 25.3382 210.925 25.2326 208.986C25.1325 207.467 25.3427 206.467 25.0525 206.357C24.7622 206.247 24.0516 207.127 23.7814 208.916C23.62 210.093 23.7029 211.291 24.0248 212.434C24.3468 213.578 24.901 214.643 25.6529 215.563Z" fill="#3F00F9"/>
<path d="M27.9948 237.295C29.8324 238.095 31.9129 238.135 33.7796 237.405C35.1707 236.825 35.7812 236.055 35.601 235.845C35.4209 235.635 34.6002 235.845 33.3993 236.005C31.8437 236.255 30.249 236.053 28.8048 235.424C27.3607 234.795 26.1277 233.765 25.2526 232.457C24.512 231.457 24.1717 230.677 23.8715 230.737C23.5712 230.797 23.4511 231.737 23.9715 233.136C24.7114 234.998 26.1574 236.492 27.9948 237.295Z" fill="#3F00F9"/>
<path d="M29.5452 258.756C30.6332 258.943 31.743 258.966 32.8379 258.826C33.7277 258.697 34.5921 258.43 35.4 258.036C36.7712 257.337 37.3416 256.547 37.1915 256.347C37.0414 256.147 36.1907 256.407 34.9196 256.677C33.2717 257.022 31.5725 257.046 29.9155 256.747C29.0177 256.566 28.1395 256.298 27.2934 255.947C26.5959 255.646 25.9261 255.285 25.2918 254.868C24.1909 254.158 23.5403 253.568 23.2901 253.738C23.0399 253.908 23.2901 254.818 24.341 255.967C24.9533 256.623 25.662 257.183 26.4427 257.626C27.4133 258.158 28.4595 258.539 29.5452 258.756Z" fill="#3F00F9"/>
<path d="M26.9141 282.616C27.5593 283.205 28.3006 283.678 29.1059 284.016C29.768 284.267 30.4694 284.399 31.1776 284.406C32.3986 284.406 33.0591 283.966 33.0091 283.716C32.959 283.466 32.2985 283.296 31.3978 282.976C30.2392 282.583 29.1735 281.958 28.2664 281.138C27.3592 280.318 26.6299 279.321 26.1234 278.208C25.7231 277.349 25.533 276.689 25.2327 276.679C24.9325 276.669 24.6222 277.349 24.7223 278.568C24.8039 279.264 25.0072 279.941 25.3228 280.567C25.7321 281.336 26.2703 282.029 26.9141 282.616Z" fill="#3F00F9"/>
<path d="M222.263 316.073L218.66 317.512C217.616 317.954 216.529 318.288 215.417 318.512C213.584 318.79 211.711 318.388 210.153 317.382C209.009 316.675 207.912 315.894 206.871 315.043C206.1 314.454 205.64 314.154 205.529 314.254C205.419 314.354 205.7 314.833 206.31 315.613C207.175 316.74 208.184 317.748 209.313 318.612C210.14 319.229 211.058 319.715 212.035 320.051C213.197 320.438 214.432 320.558 215.648 320.401C216.913 320.209 218.152 319.874 219.341 319.402L222.974 317.992C232.882 314.104 240.748 310.525 240.548 309.995C240.348 309.466 232.171 312.185 222.263 316.073Z" fill="#3F00F9"/>
<path d="M212.425 369.072C211.862 369.072 211.405 358.214 211.405 344.821C211.405 331.428 211.862 320.571 212.425 320.571C212.989 320.571 213.446 331.428 213.446 344.821C213.446 358.214 212.989 369.072 212.425 369.072Z" fill="#3F00F9"/>
<path d="M280.401 369.062C279.837 369.062 279.38 363.006 279.38 355.537C279.38 348.068 279.837 342.012 280.401 342.012C280.965 342.012 281.422 348.068 281.422 355.537C281.422 363.006 280.965 369.062 280.401 369.062Z" fill="#3F00F9"/>
<path d="M295.222 389.993C294.659 389.993 294.201 380.51 294.201 368.812C294.201 357.114 294.659 347.63 295.222 347.63C295.786 347.63 296.243 357.114 296.243 368.812C296.243 380.51 295.786 389.993 295.222 389.993Z" fill="#3F00F9"/>
<path d="M284.033 359.106C284.881 359.448 285.782 359.644 286.695 359.685C287.441 359.719 288.186 359.621 288.897 359.396C290.108 358.996 290.649 358.396 290.529 358.156C290.408 357.916 289.688 357.986 288.657 357.976C287.339 357.969 286.035 357.711 284.814 357.216C283.6 356.708 282.494 355.975 281.551 355.057C280.811 354.338 280.38 353.768 280.09 353.868C279.8 353.968 279.81 354.768 280.38 355.867C280.729 356.527 281.19 357.123 281.741 357.626C282.416 358.246 283.191 358.746 284.033 359.106Z" fill="#3F00F9"/>
<path d="M284.124 378.978C284.817 379.573 285.637 380.002 286.522 380.232C287.406 380.462 288.332 380.488 289.228 380.307C290.579 380.007 291.229 379.307 291.059 379.118C290.889 378.928 290.189 378.968 289.118 378.868C287.775 378.805 286.491 378.295 285.473 377.418C284.455 376.54 283.762 375.347 283.503 374.03C283.253 372.98 283.273 372.22 282.983 372.14C282.693 372.06 282.172 372.74 282.062 374.14C282.015 375.049 282.176 375.958 282.534 376.796C282.891 377.635 283.435 378.381 284.124 378.978Z" fill="#3F00F9"/>
<path d="M212.716 311.865C220.022 307.087 225.366 302.398 225.026 301.969C224.685 301.539 218.831 305.427 211.595 310.165C204.359 314.903 198.444 318.712 198.724 319.222C199.004 319.731 205.42 316.663 212.716 311.865Z" fill="#3F00F9"/>
<path d="M133.191 306.547C133.191 317.962 133.641 327.218 134.192 327.218C134.742 327.218 135.192 317.962 135.192 306.547C135.192 295.131 134.732 285.865 134.192 285.865C133.651 285.865 133.191 295.121 133.191 306.547Z" fill="#3F00F9"/>
<path d="M234.883 109.236C238.245 108.188 241.452 106.699 244.421 104.808C245.869 103.601 247.459 102.574 249.155 101.749C250.916 101.079 253.158 101.259 254.309 102.749C254.458 102.926 254.567 103.132 254.629 103.354C254.691 103.577 254.705 103.81 254.669 104.038C254.59 104.318 254.449 104.577 254.259 104.798C252.194 107.437 249.466 109.483 246.353 110.73C243.241 111.976 239.853 112.378 236.534 111.895C235.772 111.848 235.056 111.512 234.533 110.955C234.072 110.346 234.303 109.246 235.063 109.146" fill="#9046F5"/>
<path d="M239.787 92.023L242.91 83.1066C243.15 82.4169 243.48 81.6372 244.181 81.4173C244.548 81.3709 244.92 81.412 245.268 81.5371C245.616 81.6622 245.93 81.8678 246.183 82.137C247.476 83.1791 248.716 84.2868 249.896 85.4557C250.486 86.0555 251.117 86.8851 250.796 87.6648C250.555 88.1178 250.162 88.4716 249.686 88.6644C246.943 90.1438 244.121 91.4933 241.249 92.6628C241.004 92.7945 240.724 92.8469 240.448 92.8127C240.265 92.7507 240.107 92.6318 239.997 92.4735C239.888 92.3151 239.831 92.1257 239.837 91.9331C239.857 91.5448 239.963 91.1657 240.148 90.8235" fill="#9046F5"/>
<path d="M215.508 97.5109C216.319 98.3505 217.79 97.9407 218.781 98.5604C219.27 98.9397 219.676 99.4162 219.972 99.9599C220.522 100.78 221.203 101.509 221.773 102.309C222.387 103.089 222.774 104.023 222.894 105.008C222.95 105.499 222.869 105.995 222.661 106.443C222.452 106.891 222.124 107.273 221.713 107.547C221.348 107.734 220.947 107.839 220.537 107.855C220.127 107.871 219.719 107.796 219.341 107.637C218.596 107.302 217.917 106.835 217.34 106.257C216.043 105.195 215.04 103.818 214.427 102.259C214.138 101.473 214.064 100.623 214.213 99.7992C214.363 98.9749 214.73 98.2056 215.278 97.5708" fill="#9046F5"/>
<path d="M224.805 109.476C227.037 108.476 228.941 106.869 230.3 104.838C231.591 103.092 232.594 101.152 233.272 99.0901C233.903 97.1555 234.044 95.0949 233.682 93.0925C233.362 91.3203 232.546 89.6745 231.33 88.3444C230.31 87.2376 228.964 86.4817 227.487 86.1853C226.41 85.9502 225.291 85.9915 224.235 86.3053C222.493 86.865 221.953 87.8047 222.063 87.8946C222.173 87.9846 222.944 87.5048 224.445 87.3349C225.342 87.2565 226.245 87.3654 227.097 87.6547C228.203 88.0295 229.172 88.7257 229.879 89.6539C230.74 90.7721 231.283 92.1017 231.451 93.5024C231.649 95.1407 231.453 96.8026 230.88 98.3504C230.228 100.125 229.313 101.793 228.168 103.298C227.076 104.888 225.575 106.155 223.824 106.967C223.018 107.297 222.14 107.415 221.274 107.31C220.409 107.205 219.584 106.881 218.88 106.367C217.448 105.351 216.373 103.91 215.808 102.249C215.329 100.774 215.171 99.2138 215.343 97.6728C215.516 96.1319 216.015 94.6453 216.809 93.3124C217.948 91.4566 219.565 89.9409 221.492 88.9242C222.884 88.1845 223.764 87.9246 223.724 87.7247C223.684 87.5248 222.723 87.4548 221.082 87.9446C218.709 88.7091 216.648 90.2206 215.207 92.2529C214.118 93.7975 213.393 95.5689 213.088 97.4336C212.783 99.2983 212.905 101.208 213.446 103.019C214.117 105.246 215.502 107.192 217.389 108.556C218.432 109.316 219.645 109.81 220.922 109.996C222.24 110.158 223.577 109.979 224.805 109.476Z" fill="#3F00F9"/>
<path d="M222.713 93.4624C222.52 94.0497 222.517 94.6833 222.706 95.2723C222.894 95.8612 223.265 96.3754 223.764 96.7411C224.385 97.1909 225.245 97.4308 225.576 98.1205C226.026 99.0702 225.205 100.12 224.445 100.839C223.684 101.559 222.723 102.409 221.643 102.269C221.226 102.18 220.839 101.985 220.52 101.703C220.201 101.421 219.96 101.062 219.821 100.66C219.552 99.8511 219.427 99.002 219.451 98.1505C219.388 97.3723 219.453 96.5892 219.641 95.8315C219.737 95.4518 219.921 95.1001 220.178 94.8048C220.435 94.5096 220.759 94.2791 221.122 94.1321C221.492 94.0028 221.897 94.0199 222.254 94.1798C222.612 94.3397 222.894 94.6302 223.044 94.9918" fill="#3F00F9"/>
<path d="M259.213 73.2806C259.573 73.8803 260.434 73.9103 261.125 73.7704C261.773 73.5472 262.478 73.5472 263.126 73.7704C263.452 73.9657 263.729 74.2323 263.937 74.5501L267.4 79.0682C267.557 79.243 267.665 79.4572 267.71 79.688C267.71 80.1378 267.34 80.4977 266.919 80.6876C266.139 80.9628 265.288 80.9628 264.507 80.6876C263.727 80.427 262.998 80.0311 262.356 79.5181C260.583 78.2846 259.264 76.5042 258.603 74.4501C258.508 74.1885 258.508 73.902 258.603 73.6404C258.628 73.5789 258.668 73.5237 258.717 73.4788C258.767 73.4338 258.825 73.4002 258.889 73.3802C258.953 73.3602 259.02 73.3544 259.087 73.3631C259.153 73.3718 259.217 73.3948 259.273 73.4305" fill="#9046F5"/>
<path d="M264.567 82.8567C265.777 83.1315 267.036 83.1006 268.23 82.7667C269.377 82.4048 270.411 81.7542 271.233 80.8775C271.958 80.1107 272.587 79.258 273.104 78.3385C273.578 77.5116 274.009 76.6608 274.395 75.7895C275.147 74.1498 275.637 72.4027 275.847 70.6116C276.034 68.9889 275.835 67.345 275.266 65.8136C274.858 64.7104 274.206 63.7133 273.358 62.8965C272.511 62.0797 271.49 61.4641 270.372 61.0954C268.761 60.6656 267.87 61.0954 267.9 61.2154C267.93 61.3353 268.771 61.4353 269.992 62.0851C271.674 63.0301 272.915 64.5998 273.445 66.4533C273.784 67.715 273.839 69.0363 273.605 70.3217C273.327 71.8593 272.824 73.3479 272.114 74.74C271.413 76.2928 270.478 77.7289 269.341 78.9983C268.812 79.5418 268.155 79.9439 267.43 80.1678C266.661 80.3583 265.857 80.3583 265.088 80.1678C263.46 79.7876 262.032 78.8145 261.085 77.4389C260.151 76.1099 259.585 74.5582 259.443 72.9407C259.337 71.5348 259.54 70.1227 260.038 68.8035C260.536 67.4842 261.317 66.2897 262.326 65.3038C263.753 63.8772 265.455 62.7549 267.33 62.0051C268.671 61.4353 269.481 61.2054 269.451 61.0055C269.421 60.8056 268.571 60.7056 267.019 61.0055C264.798 61.44 262.728 62.4461 261.015 63.9243C259.796 64.9643 258.796 66.2349 258.072 67.6628C257.663 68.4816 257.357 69.3479 257.161 70.2418C256.971 71.1889 256.897 72.1556 256.941 73.1206C257.047 75.2278 257.741 77.2635 258.943 78.9983C260.255 80.9557 262.267 82.3365 264.567 82.8567Z" fill="#3F00F9"/>
<path d="M266.299 67.5828C266.192 68.2507 266.226 68.9335 266.398 69.5876C266.57 70.2417 266.878 70.8526 267.3 71.3813C267.7 71.8811 268.381 72.3309 268.941 72.021C269.1 71.9017 269.267 71.7947 269.442 71.7012C269.922 71.5212 270.443 72.091 270.373 72.6008C270.267 73.1099 269.996 73.5701 269.602 73.9103L267.77 75.8595C267.432 76.2998 266.968 76.6273 266.439 76.7991C266.165 76.8441 265.884 76.8251 265.619 76.7436C265.353 76.6621 265.11 76.5203 264.908 76.3293C264.495 75.9441 264.156 75.4867 263.907 74.9799C263.353 74.014 262.974 72.9583 262.786 71.8611C262.605 70.7524 262.852 69.6165 263.477 68.6824C263.801 68.229 264.245 67.8747 264.76 67.6593C265.274 67.4439 265.838 67.3759 266.389 67.4629" fill="#3F00F9"/>
<path d="M199.374 383.826C198.998 383.826 198.694 370.458 198.694 353.968C198.694 337.478 198.998 324.11 199.374 324.11C199.75 324.11 200.055 337.478 200.055 353.968C200.055 370.458 199.75 383.826 199.374 383.826Z" fill="#3F00F9"/>
<path d="M126.756 301.209C123.643 303.298 121.281 305.207 121.491 305.567C121.701 305.927 124.404 304.428 127.496 302.338C130.589 300.249 132.971 298.29 132.761 297.98C132.55 297.67 129.878 299.11 126.756 301.209Z" fill="#3F00F9"/>
<path d="M128.006 317.162C126.995 317.99 125.842 318.627 124.603 319.042C123.603 319.362 122.972 319.482 122.972 319.681C122.972 319.881 123.653 320.091 124.804 319.981C126.303 319.783 127.716 319.164 128.878 318.196C130.04 317.228 130.904 315.951 131.369 314.514C131.679 313.404 131.569 312.684 131.369 312.664C131.169 312.644 130.939 313.264 130.438 314.154C129.82 315.298 128.996 316.318 128.006 317.162Z" fill="#3F00F9"/>
<path d="M207.571 335.475C204.799 338.844 201.626 340.613 201.816 340.973C201.886 341.133 202.817 340.893 204.128 340.153C205.837 339.155 207.357 337.866 208.622 336.345C209.894 334.829 210.887 333.099 211.554 331.237C212.045 329.807 212.115 328.868 211.945 328.818C211.564 328.698 210.393 332.147 207.571 335.475Z" fill="#3F00F9"/>
<path d="M208.972 369.222C208.227 370.005 207.394 370.699 206.49 371.291C205.736 371.763 204.934 372.155 204.098 372.46C202.667 372.97 201.676 373.06 201.676 373.28C201.676 373.5 202.677 373.7 204.358 373.39C205.327 373.195 206.261 372.858 207.13 372.39C208.185 371.795 209.143 371.043 209.973 370.161C210.79 369.27 211.465 368.258 211.974 367.162C212.381 366.262 212.648 365.304 212.765 364.324C212.935 362.644 212.595 361.645 212.435 361.665C212.275 361.685 212.205 362.664 211.814 364.144C211.57 365.003 211.234 365.834 210.813 366.623C210.298 367.554 209.68 368.426 208.972 369.222Z" fill="#3F00F9"/>
</g>
<defs>
<radialGradient id="paint0_radial_2085_17632" cx="0" cy="0" r="1" gradientUnits="userSpaceOnUse" gradientTransform="translate(42.847 82.0164) rotate(-0.312949) scale(225.297 348.406)">
<stop stop-color="#0894FF"/>
<stop offset="0.290475" stop-color="#6E53FF"/>
<stop offset="0.609151" stop-color="#B038EA"/>
<stop offset="0.850793" stop-color="#F95088"/>
<stop offset="1" stop-color="#FF6F62"/>
</radialGradient>
<radialGradient id="paint1_radial_2085_17632" cx="0" cy="0" r="1" gradientUnits="userSpaceOnUse" gradientTransform="translate(202.89 235.265) rotate(-0.71669) scale(37.7537 133.694)">
<stop stop-color="#0894FF"/>
<stop offset="0.290475" stop-color="#6E53FF"/>
<stop offset="0.609151" stop-color="#B038EA"/>
<stop offset="0.850793" stop-color="#F95088"/>
<stop offset="1" stop-color="#FF6F62"/>
</radialGradient>
<radialGradient id="paint2_radial_2085_17632" cx="0" cy="0" r="1" gradientUnits="userSpaceOnUse" gradientTransform="translate(259.721 281.9) rotate(-0.46655) scale(69.0755 159.246)">
<stop stop-color="#0894FF"/>
<stop offset="0.290475" stop-color="#6E53FF"/>
<stop offset="0.609151" stop-color="#B038EA"/>
<stop offset="0.850793" stop-color="#F95088"/>
<stop offset="1" stop-color="#FF6F62"/>
</radialGradient>
<radialGradient id="paint3_radial_2085_17632" cx="0" cy="0" r="1" gradientUnits="userSpaceOnUse" gradientTransform="translate(351.006 334.071) rotate(-0.468197) scale(70.0133 161.978)">
<stop stop-color="#0894FF"/>
<stop offset="0.290475" stop-color="#6E53FF"/>
<stop offset="0.609151" stop-color="#B038EA"/>
<stop offset="0.850793" stop-color="#F95088"/>
<stop offset="1" stop-color="#FF6F62"/>
</radialGradient>
<clipPath id="clip0_2085_17632">
<rect width="600" height="398" fill="white" transform="matrix(-1 0 0 1 463 0)"/>
</clipPath>
</defs>
</svg>
