<svg width="290" height="200" viewBox="0 0 290 200" fill="none" xmlns="http://www.w3.org/2000/svg">
<g opacity="0.5" filter="url(#filter0_f_1680_8844)">
<rect x="45" y="41.4473" width="200" height="117.105" rx="58.5526" fill="#C2DBFF"/>
<path d="M216.93 107.017C216.93 143.231 185.161 110.307 148.947 110.307C112.734 110.307 85.7894 143.231 85.7894 107.017C85.7894 70.804 115.146 41.4473 151.36 41.4473C187.573 41.4473 216.93 70.804 216.93 107.017Z" fill="#FFEB99"/>
<rect x="211.667" y="133.553" width="25.8772" height="25" fill="#D1C2FF"/>
<rect x="195.877" y="133.553" width="15.7895" height="25" fill="#D1C2FF"/>
<rect x="127.018" y="110.746" width="52.193" height="47.807" fill="#D1C2FF"/>
<rect x="66.4912" y="118.64" width="43.8596" height="39.9123" fill="#D1C2FF"/>
<rect x="46.3158" y="118.64" width="20.1754" height="39.9123" fill="#D1C2FF"/>
<rect x="179.211" y="118.64" width="16.6667" height="39.9123" fill="#A97FFF"/>
<rect x="110.351" y="118.64" width="16.6667" height="39.9123" fill="#A97FFF"/>
</g>
<path d="M144.784 116.401C140.163 116.401 136.734 119.234 135.24 120.471C134.249 121.292 132.919 122.567 129.109 128.497C126.544 132.496 125.181 134.98 124.073 136.845C119.357 144.767 115.948 150.537 109.785 153.502C106.158 155.244 103.004 155.31 96.6941 155.442C91.2716 155.509 85.8657 154.829 80.628 153.421C75.7295 152.135 71.014 150.231 66.5944 147.756C64.104 146.406 61.7453 144.825 59.5493 143.034C54.2335 138.535 50.1557 132.749 47.7037 126.226C43.6765 115.57 45.3883 106.84 46.289 104.853C46.8414 103.654 47.5062 102.511 48.2742 101.439C48.7329 100.815 49.2323 100.222 49.7691 99.6637C51.4305 97.9236 53.2508 96.3429 55.2062 94.9423C64.0291 88.88 80.7412 84.9471 80.7412 84.9471C90.7808 82.5864 98.4578 81.4675 99.283 81.3494C104.909 80.5468 120.135 78.5449 142.304 78.3561C155.242 78.2286 168.177 78.8102 181.052 80.0983C191.062 81.2398 200.997 82.974 210.802 85.2918C216.412 86.6673 221.876 88.5804 227.118 91.0047C229.83 92.2506 232.419 93.7475 234.852 95.4758C237.615 97.4352 240.115 99.2529 242.086 102.511C243.067 104.116 243.782 105.87 244.203 107.704C244.505 109.119 244.633 110.565 244.585 112.01C244.524 115.71 243.988 119.386 242.991 122.95C242 126.35 240.584 129.612 238.775 132.657C236.914 135.812 234.644 138.706 232.023 141.264C227.373 145.749 222.813 147.954 219.663 149.441C216.328 151.007 212.844 152.236 209.265 153.11C205.348 154.105 201.348 154.737 197.316 154.998C189.144 155.532 185.055 155.796 180.674 153.761C175.732 151.467 172.658 147.482 170.347 144.522C169.164 142.997 168.862 142.383 166.014 137.591C158.021 124.158 156.111 121.798 153.192 119.734C151.159 118.271 148.472 116.42 144.784 116.401Z" fill="#C2DBFF"/>
<path d="M94.6051 140.565C94.3976 140.211 94.1052 139.72 93.7657 139.12C92.7152 137.247 91.7706 135.316 90.9363 133.337C89.6763 130.349 88.6253 127.278 87.791 124.144C86.4121 118.686 85.7307 113.074 85.7633 107.444C85.8227 99.0212 87.4027 90.6781 90.4271 82.8177C107.384 80.1205 124.513 78.6436 141.681 78.3985C153.701 78.2332 168.97 78.0916 188.837 81.1746C197.269 82.4805 205.627 84.2266 213.877 86.4059C215.588 91.3875 216.666 96.5652 217.084 101.817C217.304 104.894 217.313 107.983 217.112 111.061C216.916 114.083 216.527 117.088 215.947 120.06C215.02 124.867 213.612 129.567 211.746 134.092C192.794 140.641 181.014 136.618 177.289 135.098C172.233 133.03 161.553 128.667 155.762 122.019C154.298 120.261 152.459 118.853 150.381 117.898C149.052 117.307 144.911 115.707 140.38 117.218C137.281 118.247 135.574 120.206 132.585 123.644C130.496 126.042 128.683 128.668 127.181 131.472C120.428 135.834 110.676 140.442 98.7973 140.664C97.3496 140.692 95.9585 140.655 94.6051 140.565Z" fill="url(#paint0_radial_1680_8844)"/>
<path d="M46.303 121.382V112.062H49.5285V119.758H51.5138V124.007H55.8097V133.969H59.5303V143.19C52.8673 137.555 48.2203 129.899 46.2936 121.382H46.303Z" fill="#D1C2FF"/>
<path d="M216.933 147.85V119.253L222.521 113.653V128.44H225.741V110.636H227.213V116.628H228.429V107.218H229.844V121.731H231.183V115.121H232.466V122.071H235.012V129.375H237.667V134.569C233.248 141.151 227.01 146.303 219.715 149.394L216.933 147.85Z" fill="#D1C2FF"/>
<path d="M154.588 120.641V111.859H155.87V121.727L154.588 120.641Z" fill="#D1C2FF"/>
<path d="M156.031 122.341L176.336 122.369V111.826H177.642V122.454H178.585V126.944H179.208V116.557H181.009V107.072H194.076V116.613H195.019V112.605H211.717V147.543C210.68 147.775 209.133 148.138 207.28 148.662C205.195 149.252 203.866 149.72 201.913 150.381C196.486 152.227 193.774 153.148 191.148 153.799C189.79 154.134 187.847 154.573 185.409 154.937C183.569 154.725 181.774 154.225 180.09 153.454C178.601 152.76 177.211 151.869 175.959 150.806C171.087 146.684 166.593 138.53 165.924 137.303C163.011 132.07 159.704 127.069 156.031 122.341Z" fill="#D1C2FF"/>
<path d="M179.208 126.916V152.996C180.235 153.497 181.309 153.894 182.414 154.182C183.576 154.489 184.766 154.676 185.965 154.739C187.787 154.513 189.594 154.184 191.379 153.752C193.01 153.355 194.505 152.907 195.854 152.435V116.623H194.067V107.114H181.019V116.557H179.208V126.916Z" fill="#A97FFF"/>
<path d="M66.5566 147.765V128.88H69.1219V121.325H71.8145V114.163H73.1774V120.886H74.5213V105.957H76.0067V115.726H77.2611V109.56H78.7559V127.973H82.0569V112.506L87.8476 118.341V152.099L93.5441 152.472V140.06H98.7784V122.171H99.929V109.985H101.174V122.232H105.088V113.984H106.837V122.175H110.36V116.613H112.407V114.423H124.804V116.68H127.081V131.675C126.714 132.326 126.138 133.308 125.44 134.484C124.78 135.575 124.29 136.33 124.026 136.745C122.521 139.106 121.805 140.523 120.956 141.939C119.513 144.448 117.771 146.772 115.769 148.861C113.947 150.877 111.766 152.536 109.337 153.752C106.356 155.168 103.791 155.249 98.6652 155.437C94.8141 155.594 90.9568 155.386 87.145 154.814C83.7229 154.27 80.3521 153.441 77.0677 152.336C73.436 151.126 69.9185 149.597 66.5566 147.765Z" fill="#D1C2FF"/>
<path d="M110.36 122.18V153.124C111.346 152.635 112.283 152.055 113.161 151.391C114.309 150.513 115.349 149.502 116.259 148.379C118.33 145.858 120.247 143.214 121.998 140.461C123.413 138.19 125.186 135.164 127.072 131.467V116.675H124.808V114.423H112.421V116.613H110.36V122.18Z" fill="#A97FFF"/>
<path d="M70.6686 122.199H70.1263V148.738H70.6686V122.199Z" fill="#8157FF"/>
<path d="M71.692 122.199H71.1497V148.738H71.692V122.199Z" fill="#8157FF"/>
<path d="M72.7153 122.199H72.173V148.738H72.7153V122.199Z" fill="#8157FF"/>
<path d="M73.7385 122.199H73.1962V148.738H73.7385V122.199Z" fill="#8157FF"/>
<path d="M74.7618 122.199H74.2195V148.738H74.7618V122.199Z" fill="#8157FF"/>
<path d="M75.7851 122.199H75.2428V148.738H75.7851V122.199Z" fill="#8157FF"/>
<path d="M76.8084 122.199H76.2661V148.738H76.8084V122.199Z" fill="#8157FF"/>
<path d="M197.712 115.41H196.915V152.336H197.712V115.41Z" fill="#8157FF"/>
<path d="M199.758 115.41H198.962V152.336H199.758V115.41Z" fill="#8157FF"/>
<path d="M201.805 115.41H201.008V152.336H201.805V115.41Z" fill="#8157FF"/>
<path d="M203.852 115.41H203.055V152.336H203.852V115.41Z" fill="#8157FF"/>
<path d="M205.898 115.41H205.101V152.336H205.898V115.41Z" fill="#8157FF"/>
<path d="M207.945 115.41H207.148V152.336H207.945V115.41Z" fill="#8157FF"/>
<path d="M209.991 115.41H209.194V152.336H209.991V115.41Z" fill="#8157FF"/>
<path d="M109.153 125.339H101.179V126.019H109.153V125.339Z" fill="#8157FF"/>
<path d="M109.153 126.798H101.179V127.477H109.153V126.798Z" fill="#8157FF"/>
<path d="M109.153 128.261H101.179V128.941H109.153V128.261Z" fill="#8157FF"/>
<path d="M109.153 129.72H101.179V130.4H109.153V129.72Z" fill="#8157FF"/>
<path d="M109.153 131.184H101.179V131.863H109.153V131.184Z" fill="#8157FF"/>
<path d="M109.153 132.647H101.179V133.327H109.153V132.647Z" fill="#8157FF"/>
<path d="M113.883 120.358H112.727V121.514H113.883V120.358Z" fill="#8157FF"/>
<path d="M115.689 120.358H114.533V121.514H115.689V120.358Z" fill="#8157FF"/>
<path d="M117.495 120.358H116.339V121.514H117.495V120.358Z" fill="#8157FF"/>
<path d="M119.301 120.358H118.145V121.514H119.301V120.358Z" fill="#8157FF"/>
<path d="M121.107 120.358H119.952V121.514H121.107V120.358Z" fill="#8157FF"/>
<path d="M122.913 120.358H121.758V121.514H122.913V120.358Z" fill="#8157FF"/>
<path d="M124.719 120.358H123.564V121.514H124.719V120.358Z" fill="#8157FF"/>
<path d="M113.883 122.619H112.727V123.776H113.883V122.619Z" fill="#8157FF"/>
<path d="M115.689 122.619H114.533V123.776H115.689V122.619Z" fill="#8157FF"/>
<path d="M117.495 122.619H116.339V123.776H117.495V122.619Z" fill="#8157FF"/>
<path d="M119.301 122.619H118.145V123.776H119.301V122.619Z" fill="#8157FF"/>
<path d="M121.107 122.619H119.952V123.776H121.107V122.619Z" fill="#8157FF"/>
<path d="M122.913 122.619H121.758V123.776H122.913V122.619Z" fill="#8157FF"/>
<path d="M124.719 122.619H123.564V123.776H124.719V122.619Z" fill="#8157FF"/>
<path d="M113.883 124.881H112.727V126.037H113.883V124.881Z" fill="#8157FF"/>
<path d="M115.689 124.881H114.533V126.037H115.689V124.881Z" fill="#8157FF"/>
<path d="M117.495 124.881H116.339V126.037H117.495V124.881Z" fill="#8157FF"/>
<path d="M119.301 124.881H118.145V126.037H119.301V124.881Z" fill="#8157FF"/>
<path d="M121.107 124.881H119.952V126.037H121.107V124.881Z" fill="#8157FF"/>
<path d="M122.913 124.881H121.758V126.037H122.913V124.881Z" fill="#8157FF"/>
<path d="M124.719 124.881H123.564V126.037H124.719V124.881Z" fill="#8157FF"/>
<path d="M113.883 127.142H112.727V128.299H113.883V127.142Z" fill="#8157FF"/>
<path d="M115.689 127.142H114.533V128.299H115.689V127.142Z" fill="#8157FF"/>
<path d="M117.495 127.142H116.339V128.299H117.495V127.142Z" fill="#8157FF"/>
<path d="M119.301 127.142H118.145V128.299H119.301V127.142Z" fill="#8157FF"/>
<path d="M121.107 127.142H119.952V128.299H121.107V127.142Z" fill="#8157FF"/>
<path d="M122.913 127.142H121.758V128.299H122.913V127.142Z" fill="#8157FF"/>
<path d="M124.719 127.142H123.564V128.299H124.719V127.142Z" fill="#8157FF"/>
<path d="M113.883 129.399H112.727V130.556H113.883V129.399Z" fill="#8157FF"/>
<path d="M115.689 129.399H114.533V130.556H115.689V129.399Z" fill="#8157FF"/>
<path d="M117.495 129.399H116.339V130.556H117.495V129.399Z" fill="#8157FF"/>
<path d="M119.301 129.399H118.145V130.556H119.301V129.399Z" fill="#8157FF"/>
<path d="M121.107 129.399H119.952V130.556H121.107V129.399Z" fill="#8157FF"/>
<path d="M122.913 129.399H121.758V130.556H122.913V129.399Z" fill="#8157FF"/>
<path d="M124.719 129.399H123.564V130.556H124.719V129.399Z" fill="#8157FF"/>
<path d="M113.883 131.661H112.727V132.817H113.883V131.661Z" fill="#8157FF"/>
<path d="M115.689 131.661H114.533V132.817H115.689V131.661Z" fill="#8157FF"/>
<path d="M117.495 131.661H116.339V132.817H117.495V131.661Z" fill="#8157FF"/>
<path d="M119.301 131.661H118.145V132.817H119.301V131.661Z" fill="#8157FF"/>
<path d="M121.107 131.661H119.952V132.817H121.107V131.661Z" fill="#8157FF"/>
<path d="M122.913 131.661H121.758V132.817H122.913V131.661Z" fill="#8157FF"/>
<path d="M124.719 131.661H123.564V132.817H124.719V131.661Z" fill="#8157FF"/>
<path d="M113.883 133.922H112.727V135.079H113.883V133.922Z" fill="#8157FF"/>
<path d="M115.689 133.922H114.533V135.079H115.689V133.922Z" fill="#8157FF"/>
<path d="M117.495 133.922H116.339V135.079H117.495V133.922Z" fill="#8157FF"/>
<path d="M119.301 133.922H118.145V135.079H119.301V133.922Z" fill="#8157FF"/>
<path d="M121.107 133.922H119.952V135.079H121.107V133.922Z" fill="#8157FF"/>
<path d="M122.913 133.922H121.758V135.079H122.913V133.922Z" fill="#8157FF"/>
<path d="M124.719 133.922H123.564V135.079H124.719V133.922Z" fill="#8157FF"/>
<path d="M113.883 136.179H112.727V137.336H113.883V136.179Z" fill="#8157FF"/>
<path d="M115.689 136.179H114.533V137.336H115.689V136.179Z" fill="#8157FF"/>
<path d="M117.495 136.179H116.339V137.336H117.495V136.179Z" fill="#8157FF"/>
<path d="M119.301 136.179H118.145V137.336H119.301V136.179Z" fill="#8157FF"/>
<path d="M121.107 136.179H119.952V137.336H121.107V136.179Z" fill="#8157FF"/>
<path d="M122.913 136.179H121.758V137.336H122.913V136.179Z" fill="#8157FF"/>
<path d="M163.854 129.111H161.949V131.24H163.854V129.111Z" fill="#8157FF"/>
<path d="M167.127 129.111H165.221V131.24H167.127V129.111Z" fill="#8157FF"/>
<path d="M170.399 129.111H168.494V131.24H170.399V129.111Z" fill="#8157FF"/>
<path d="M173.667 129.111H171.762V131.24H173.667V129.111Z" fill="#8157FF"/>
<path d="M176.94 129.111H175.035V131.24H176.94V129.111Z" fill="#8157FF"/>
<path d="M167.127 133.228H165.221V135.357H167.127V133.228Z" fill="#8157FF"/>
<path d="M170.399 133.228H168.494V135.357H170.399V133.228Z" fill="#8157FF"/>
<path d="M173.667 133.228H171.762V135.357H173.667V133.228Z" fill="#8157FF"/>
<path d="M176.94 133.228H175.035V135.357H176.94V133.228Z" fill="#8157FF"/>
<path d="M166.853 139.475H167.126V137.345H165.768L166.853 139.475Z" fill="#8157FF"/>
<path d="M170.399 137.345H168.494V139.475H170.399V137.345Z" fill="#8157FF"/>
<path d="M173.667 137.345H171.762V139.475H173.667V137.345Z" fill="#8157FF"/>
<path d="M176.94 137.345H175.035V139.475H176.94V137.345Z" fill="#8157FF"/>
<path d="M169.484 143.596H170.399V141.467H168.494L169.484 143.596Z" fill="#8157FF"/>
<path d="M173.667 141.467H171.762V143.596H173.667V141.467Z" fill="#8157FF"/>
<path d="M176.94 141.467H175.035V143.596H176.94V141.467Z" fill="#8157FF"/>
<path d="M172.318 147.713H173.672V145.584H171.762L172.318 147.713Z" fill="#8157FF"/>
<path d="M176.94 145.584H175.035V147.713H176.94V145.584Z" fill="#8157FF"/>
<path d="M192.364 108.521H182.825V109.276H192.364V108.521Z" fill="#8157FF"/>
<path d="M192.364 109.985H182.825V110.74H192.364V109.985Z" fill="#8157FF"/>
<path d="M192.364 111.444H182.825V112.199H192.364V111.444Z" fill="#8157FF"/>
<path d="M192.364 112.907H182.825V113.663H192.364V112.907Z" fill="#8157FF"/>
<path d="M192.364 114.366H182.825V115.121H192.364V114.366Z" fill="#8157FF"/>
<path d="M188.682 117.26H181.245V118.016H188.682V117.26Z" fill="#8157FF"/>
<path d="M193.765 117.26H191.789V118.016H193.765V117.26Z" fill="#8157FF"/>
<path d="M189.634 117.26H188.931V118.016H189.634V117.26Z" fill="#8157FF"/>
<path d="M190.587 117.26H189.884V118.016H190.587V117.26Z" fill="#8157FF"/>
<path d="M191.539 117.26H190.837V118.016H191.539V117.26Z" fill="#8157FF"/>
<path d="M181.905 118.625H181.245V119.38H181.905V118.625Z" fill="#8157FF"/>
<path d="M181.905 119.999H181.245V120.754H181.905V119.999Z" fill="#8157FF"/>
<path d="M186.145 121.212H181.245V121.968H186.145V121.212Z" fill="#8157FF"/>
<path d="M192.93 121.212H188.993V121.968H192.93V121.212Z" fill="#8157FF"/>
<path d="M193.798 121.212H193.176V121.968H193.798V121.212Z" fill="#8157FF"/>
<path d="M187.012 121.212H186.39V121.968H187.012V121.212Z" fill="#8157FF"/>
<path d="M187.88 121.212H187.257V121.968H187.88V121.212Z" fill="#8157FF"/>
<path d="M188.748 121.212H188.125V121.968H188.748V121.212Z" fill="#8157FF"/>
<path d="M186.145 122.506H181.245V123.261H186.145V122.506Z" fill="#8157FF"/>
<path d="M192.93 122.506H188.993V123.261H192.93V122.506Z" fill="#8157FF"/>
<path d="M193.798 122.506H193.176V123.261H193.798V122.506Z" fill="#8157FF"/>
<path d="M187.012 122.506H186.39V123.261H187.012V122.506Z" fill="#8157FF"/>
<path d="M187.88 122.506H187.257V123.261H187.88V122.506Z" fill="#8157FF"/>
<path d="M188.748 122.506H188.125V123.261H188.748V122.506Z" fill="#8157FF"/>
<path d="M186.145 126.382H181.245V127.138H186.145V126.382Z" fill="#8157FF"/>
<path d="M192.93 126.382H188.993V127.138H192.93V126.382Z" fill="#8157FF"/>
<path d="M193.798 126.382H193.176V127.138H193.798V126.382Z" fill="#8157FF"/>
<path d="M187.012 126.382H186.39V127.138H187.012V126.382Z" fill="#8157FF"/>
<path d="M187.88 126.382H187.257V127.138H187.88V126.382Z" fill="#8157FF"/>
<path d="M188.748 126.382H188.125V127.138H188.748V126.382Z" fill="#8157FF"/>
<path d="M184.131 125.018H183.508V125.773H184.131V125.018Z" fill="#8157FF"/>
<path d="M185.065 125.018H184.442V125.773H185.065V125.018Z" fill="#8157FF"/>
<path d="M186.003 125.018H185.381V125.773H186.003V125.018Z" fill="#8157FF"/>
<path d="M183.806 123.667H181.245V124.423H183.806V123.667Z" fill="#8157FF"/>
<path d="M192.874 123.667H188.969V124.423H192.874V123.667Z" fill="#8157FF"/>
<path d="M193.727 125.018H186.314V125.773H193.727V125.018Z" fill="#8157FF"/>
<path d="M193.18 128.45H193.803V127.695H193.18V128.45Z" fill="#8157FF"/>
<path d="M192.242 128.45H192.864V127.695H192.242V128.45Z" fill="#8157FF"/>
<path d="M191.308 128.45H191.931V127.695H191.308V128.45Z" fill="#8157FF"/>
<path d="M183.579 128.45H190.992V127.695H183.579V128.45Z" fill="#8157FF"/>
<path d="M193.798 123.667H193.176V124.423H193.798V123.667Z" fill="#8157FF"/>
<path d="M188.54 123.667H187.918V124.423H188.54V123.667Z" fill="#8157FF"/>
<path d="M185.31 123.667H184.687V124.423H185.31V123.667Z" fill="#8157FF"/>
<path d="M186.111 123.667H185.489V124.423H186.111V123.667Z" fill="#8157FF"/>
<path d="M182.825 119.999H182.165V120.754H182.825V119.999Z" fill="#8157FF"/>
<path d="M183.74 119.999H183.079V120.754H183.74V119.999Z" fill="#8157FF"/>
<path d="M191.511 119.999H184.074V120.754H191.511V119.999Z" fill="#8157FF"/>
<path d="M185.961 118.625H182.16V119.38H185.961V118.625Z" fill="#8157FF"/>
<path d="M186.875 118.625H186.215V119.38H186.875V118.625Z" fill="#8157FF"/>
<path d="M187.79 118.625H187.13V119.38H187.79V118.625Z" fill="#8157FF"/>
<path d="M188.705 118.625H188.045V119.38H188.705V118.625Z" fill="#8157FF"/>
<path d="M193.694 118.625H188.96V119.38H193.694V118.625Z" fill="#8157FF"/>
<path d="M181.905 128.913H181.245V129.668H181.905V128.913Z" fill="#8157FF"/>
<path d="M185.961 128.913H182.16V129.668H185.961V128.913Z" fill="#8157FF"/>
<path d="M186.875 128.913H186.215V129.668H186.875V128.913Z" fill="#8157FF"/>
<path d="M187.79 128.913H187.13V129.668H187.79V128.913Z" fill="#8157FF"/>
<path d="M188.705 128.913H188.045V129.668H188.705V128.913Z" fill="#8157FF"/>
<path d="M193.694 128.913H188.96V129.668H193.694V128.913Z" fill="#8157FF"/>
<path d="M181.905 130.22H181.245V130.976H181.905V130.22Z" fill="#8157FF"/>
<path d="M185.961 130.22H182.16V130.976H185.961V130.22Z" fill="#8157FF"/>
<path d="M186.875 130.22H186.215V130.976H186.875V130.22Z" fill="#8157FF"/>
<path d="M187.79 130.22H187.13V130.976H187.79V130.22Z" fill="#8157FF"/>
<path d="M188.705 130.22H188.045V130.976H188.705V130.22Z" fill="#8157FF"/>
<path d="M189.559 131.406H188.898V132.161H189.559V131.406Z" fill="#8157FF"/>
<path d="M190.473 131.406H189.813V132.161H190.473V131.406Z" fill="#8157FF"/>
<path d="M193.694 130.22H188.96V130.976H193.694V130.22Z" fill="#8157FF"/>
<path d="M181.905 131.406H181.245V132.161H181.905V131.406Z" fill="#8157FF"/>
<path d="M185.961 131.406H182.16V132.161H185.961V131.406Z" fill="#8157FF"/>
<path d="M186.875 131.406H186.215V132.161H186.875V131.406Z" fill="#8157FF"/>
<path d="M193.69 131.406H191.186V132.161H193.69V131.406Z" fill="#8157FF"/>
<path d="M185.414 154.923C186.423 154.753 187.771 154.508 189.313 154.172C190.257 153.969 191.699 153.653 193.397 153.181C195.095 152.709 196.01 152.373 197.839 151.764C203.177 149.928 207.327 148.644 209.086 148.19L211.764 147.496L212.891 147.204C213.285 147.073 213.687 146.967 214.094 146.887C214.529 146.798 214.979 146.808 215.41 146.915C215.774 147.052 216.11 147.255 216.4 147.515C216.57 147.633 217.06 147.931 218.046 148.516C218.494 148.785 219.154 149.168 219.998 149.602C209.043 154.058 197.2 155.887 185.414 154.942V154.923Z" fill="#8157FF"/>
<path d="M51.8486 134.05C49.9148 131.077 48.3875 127.858 47.3075 124.479C46.9443 123.323 46.6426 122.199 46.3973 121.118C46.3973 121.684 46.3973 122.227 46.3973 122.751C46.5577 123.36 46.7227 123.974 46.9161 124.607C47.9705 128.036 49.4838 131.306 51.4147 134.328C53.6067 137.78 56.328 140.865 59.4784 143.469V142.685C56.5186 140.204 53.9467 137.293 51.8486 134.05Z" fill="#3F00F9"/>
<path d="M46.8548 103.705C47.4752 102.586 48.2203 101.54 49.0758 100.589C50.4417 99.0203 51.9562 97.5878 53.5981 96.3115C55.8984 94.6486 58.3504 93.2069 60.9214 92.0056C64.1386 90.4992 67.4459 89.1936 70.8242 88.0963C74.5354 86.8782 78.6286 85.7356 83.0565 84.6922C85.2776 84.1634 87.5741 83.6488 89.9743 83.2333C90.0451 83.2333 90.1252 83.205 90.2007 83.1908C90.2808 82.9736 90.361 82.7611 90.4459 82.544V82.4873C78.1853 84.848 68.0845 88.0538 60.6998 91.6279C58.1188 92.8643 55.6632 94.3474 53.367 96.0566C51.7247 97.3644 50.219 98.8356 48.8731 100.447C48.027 101.423 47.3048 102.5 46.7227 103.653C46.5247 104.045 46.3974 104.347 46.3172 104.55C46.2693 104.651 46.2329 104.758 46.2087 104.867C46.273 104.775 46.3268 104.677 46.3691 104.574C46.5011 104.39 46.6473 104.097 46.8548 103.705Z" fill="#3F00F9"/>
<path d="M45.558 116.141C45.322 114.071 45.2181 111.988 45.2468 109.904C45.2881 108.625 45.4893 107.356 45.8456 106.127C46.1003 105.301 46.2748 104.89 46.2465 104.881C46.1863 104.974 46.1372 105.074 46.1003 105.178C46.006 105.377 45.8881 105.683 45.7419 106.094C45.3355 107.324 45.0945 108.602 45.0251 109.895C44.9569 111.989 45.0277 114.085 45.2373 116.17C45.4315 118.153 45.7624 120.12 46.2276 122.057C46.2276 121.486 46.2276 120.886 46.2276 120.268C45.9117 118.814 45.6995 117.421 45.558 116.141Z" fill="#3F00F9"/>
<path d="M127.039 130.811C126.596 131.538 126.162 132.26 125.728 132.987C124.832 134.489 123.964 136.004 123.134 137.506C122.305 139.007 121.423 140.447 120.531 141.882C118.84 144.706 116.81 147.311 114.486 149.64C112.257 151.86 109.497 153.471 106.469 154.319C103.499 155.098 100.415 155.112 97.4297 155.06C94.4447 155.008 91.4974 154.899 88.6681 154.55C83.2632 153.925 77.9727 152.544 72.9509 150.447C70.7252 149.503 68.5843 148.521 66.5754 147.444V147.543C66.5754 147.794 66.5754 148.016 66.5754 148.181C68.5183 149.219 70.5648 150.164 72.7057 151.084C77.7782 153.239 83.1276 154.669 88.5973 155.334C91.4739 155.697 94.4258 155.782 97.4344 155.881C100.443 155.981 103.588 155.947 106.705 155.145C108.279 154.726 109.786 154.09 111.185 153.256C112.603 152.412 113.919 151.407 115.108 150.263C117.495 147.895 119.58 145.24 121.314 142.359C122.215 140.943 123.12 139.46 123.95 137.95C124.78 136.439 125.653 134.956 126.549 133.459C126.718 133.171 126.898 132.883 127.067 132.595C127.067 132.189 127.067 131.76 127.067 131.292L127.039 130.811Z" fill="#3F00F9"/>
<path d="M154.654 120.15C154.654 120.702 154.654 121.17 154.625 121.524C154.809 121.713 154.988 121.906 155.163 122.1L155.366 122.341H155.776C155.776 122.015 155.776 121.661 155.776 121.259C155.403 120.872 155.036 120.504 154.654 120.15Z" fill="#3F00F9"/>
<path d="M113.661 80.1832C119.379 79.6953 125.374 79.3239 131.646 79.0689C134.777 78.9368 137.975 78.847 141.228 78.7809C142.855 78.7526 144.501 78.7243 146.156 78.7243C147.811 78.7243 149.481 78.7621 151.169 78.7951C157.917 78.9556 164.891 79.2672 172.059 79.8149C173.851 79.966 175.657 80.0935 177.472 80.2871L180.203 80.5467L182.947 80.8536C184.782 81.0378 186.621 81.3258 188.479 81.5477L191.261 81.9632C192.204 82.1048 193.147 82.2464 194.057 82.4353L196.858 82.9405L199.688 83.5165C201.574 83.8989 203.46 84.3144 205.346 84.7346C208.176 85.372 211.048 86.066 213.896 86.8781C213.764 86.4863 213.632 86.0944 213.49 85.6978C210.845 84.966 208.199 84.3239 205.568 83.7431C203.682 83.3229 201.763 82.9074 199.876 82.525L197.047 81.9537L194.218 81.4532C193.274 81.2738 192.331 81.1369 191.388 80.9811L188.639 80.5703C186.753 80.339 184.923 80.0699 183.079 79.8857L180.325 79.5836L177.581 79.3286C175.761 79.1492 173.95 79.0217 172.153 78.8565C164.967 78.3324 157.973 78.0302 151.211 77.9122C149.518 77.8792 147.844 77.8508 146.18 77.8508C144.515 77.8508 142.879 77.8886 141.233 77.9264C137.97 78.0019 134.769 78.1089 131.632 78.2474C125.36 78.5244 119.356 78.921 113.618 79.4372C105.947 80.036 98.3121 81.0447 90.7477 82.4589C90.7194 82.5203 90.6958 82.5817 90.6675 82.6478L90.4695 83.1577C92.7094 82.7327 95.0295 82.3834 97.4109 82.0104C102.529 81.2864 107.946 80.6774 113.661 80.1832Z" fill="#3F00F9"/>
<path d="M155.908 122.34H156.677C156.427 122.038 156.177 121.736 155.922 121.443C155.917 121.769 155.913 122.067 155.908 122.34Z" fill="#3F00F9"/>
<path d="M66.5377 147.425L66.1699 147.232C64.1115 146.107 62.1495 144.813 60.3037 143.365C60.0726 143.181 59.8321 142.992 59.6246 142.803V143.587L59.9264 143.842C61.7904 145.321 63.773 146.645 65.854 147.798L66.5424 148.162C66.5424 147.987 66.5424 147.779 66.5424 147.539L66.5377 147.425Z" fill="#3F00F9"/>
<path d="M218.465 149.375C217.961 149.588 217.456 149.795 216.947 149.994C216.947 150.447 216.947 150.834 216.947 151.155C217.602 150.905 218.253 150.65 218.899 150.371C219.347 150.192 219.79 149.994 220.229 149.791C219.823 149.588 219.418 149.371 219.008 149.153L218.465 149.375Z" fill="#3F00F9"/>
<path d="M206.233 153.1C202.131 154.028 197.946 154.531 193.741 154.602C191.77 154.602 189.771 154.625 187.819 154.564C186.118 154.807 184.405 154.95 182.688 154.994C183.216 155.126 183.749 155.239 184.282 155.324C185.332 155.482 186.39 155.581 187.451 155.622C189.563 155.702 191.643 155.688 193.76 155.674C198.037 155.606 202.296 155.096 206.469 154.153C208.199 153.771 209.939 153.351 211.656 152.869C211.656 152.51 211.656 152.133 211.656 151.745C209.859 152.255 208.053 152.699 206.233 153.1Z" fill="#3F00F9"/>
<path d="M234.145 138.27C232.729 139.898 231.186 141.409 229.528 142.789C227.852 144.151 226.077 145.387 224.218 146.486L223.525 146.901L222.818 147.284L221.403 148.039C220.691 148.37 219.988 148.714 219.272 149.035L220.484 149.673L221.898 149.007L223.355 148.233L224.086 147.845L224.794 147.416C226.7 146.293 228.52 145.031 230.24 143.639C231.945 142.22 233.533 140.667 234.989 138.993C235.935 137.933 236.812 136.813 237.615 135.641C237.615 135.013 237.615 134.366 237.615 133.7C236.589 135.319 235.428 136.847 234.145 138.27Z" fill="#3F00F9"/>
<path d="M244.873 108.837C244.788 107.753 244.59 106.68 244.283 105.636C243.955 104.594 243.495 103.598 242.916 102.671C242.339 101.763 241.674 100.914 240.93 100.136C240.204 99.3663 239.492 98.6203 238.709 97.898C235.58 95.159 232.09 92.8649 228.335 91.0803C226.491 90.1785 224.596 89.4231 222.719 88.7196C220.842 88.0161 218.946 87.3315 217.027 86.7319C215.933 86.3872 214.839 86.0709 213.726 85.7876C213.863 86.1795 213.995 86.5761 214.122 86.9727C214.98 87.2182 215.839 87.4747 216.697 87.7423C218.583 88.3434 220.458 89.0029 222.323 89.7205C224.209 90.4429 226.057 91.1841 227.859 92.0812C231.516 93.8264 234.916 96.0664 237.964 98.7384C238.7 99.4183 239.426 100.155 240.124 100.915C240.818 101.64 241.44 102.431 241.982 103.276C242.512 104.125 242.932 105.039 243.232 105.995C243.518 106.968 243.701 107.968 243.779 108.979C243.87 110.014 243.91 111.052 243.897 112.09C243.897 113.139 243.868 114.182 243.798 115.225C243.659 117.321 243.344 119.401 242.854 121.444C241.849 125.58 240.194 129.531 237.95 133.148C237.879 133.266 237.799 133.379 237.724 133.497C237.724 134.177 237.724 134.833 237.724 135.471C238.12 134.89 238.507 134.309 238.879 133.714C241.185 129.984 242.885 125.911 243.915 121.647C244.424 119.546 244.753 117.406 244.901 115.249C244.972 114.177 245 113.101 245 112.039C245 110.976 244.976 109.909 244.873 108.837Z" fill="#3F00F9"/>
<path d="M181.537 153.53C179.65 152.847 177.895 151.842 176.35 150.56C174.82 149.269 173.441 147.809 172.238 146.207C169.805 143.02 167.815 139.517 165.782 136.103C163.75 132.69 161.755 129.257 159.497 126.056C158.61 124.8 157.69 123.587 156.714 122.407H155.884C155.884 122.614 155.884 122.808 155.884 122.983C156.851 124.158 157.771 125.386 158.671 126.651C160.902 129.815 162.915 133.181 164.901 136.632C166.886 140.084 168.918 143.577 171.413 146.854C172.665 148.519 174.1 150.037 175.69 151.382C177.321 152.741 179.175 153.808 181.169 154.536C181.462 154.64 181.754 154.734 182.051 154.819C183.428 154.791 184.937 154.696 186.541 154.507C184.835 154.418 183.151 154.089 181.537 153.53Z" fill="#3F00F9"/>
<path d="M155.408 122.397L155.785 122.841C155.785 122.704 155.785 122.558 155.785 122.402L155.408 122.397Z" fill="#3F00F9"/>
<path d="M151.301 117.78C149.582 116.833 147.686 116.254 145.732 116.08C144.054 115.949 142.366 116.143 140.761 116.651V116.798C140.761 117.112 140.761 117.41 140.761 117.69C142.336 117.146 144.006 116.934 145.666 117.067C147.488 117.228 149.256 117.774 150.853 118.667C152.217 119.393 153.462 120.323 154.545 121.424C154.545 121.051 154.545 120.579 154.517 120.008C153.54 119.137 152.46 118.389 151.301 117.78Z" fill="#3F00F9"/>
<path d="M137.465 118.148C136.652 118.642 135.894 119.223 135.206 119.881C133.916 121.188 132.71 122.576 131.594 124.035C130.484 125.458 129.45 126.938 128.496 128.469C128.025 129.212 127.562 129.953 127.11 130.693V131.297C127.11 131.727 127.11 132.128 127.11 132.506C127.822 131.325 128.524 130.145 129.293 128.974C130.231 127.472 131.25 126.022 132.344 124.63C133.434 123.209 134.612 121.857 135.871 120.584C136.51 119.973 137.215 119.436 137.975 118.984C138.581 118.627 139.212 118.311 139.861 118.039C139.861 117.718 139.861 117.369 139.861 116.996C139.033 117.315 138.231 117.7 137.465 118.148Z" fill="#3F00F9"/>
<path d="M140.54 116.731L140.101 116.887C140.101 117.26 140.101 117.614 140.101 117.945L140.412 117.817L140.568 117.761C140.568 117.446 140.568 117.131 140.568 116.816L140.54 116.731Z" fill="#3F00F9"/>
<path d="M211.769 151.717C211.769 152.104 211.769 152.482 211.769 152.841C213.495 152.369 215.207 151.807 216.895 151.169C216.895 150.853 216.895 150.471 216.895 150.017C215.202 150.669 213.49 151.226 211.769 151.717Z" fill="#3F00F9"/>
<path d="M55.9417 133.851C55.9417 130.759 55.9417 127.402 55.9417 123.866H51.6505V119.616H49.6605C49.6605 116.949 49.6605 114.376 49.6605 111.939H46.1898C46.1898 115.004 46.2134 117.803 46.2228 120.263C46.2794 120.537 46.336 120.811 46.402 121.09C46.402 118.507 46.402 115.499 46.435 112.18H49.4059C49.4059 114.621 49.4059 117.199 49.4059 119.871H51.3911V124.121H55.6965C55.6965 127.652 55.6965 131 55.6965 134.083H59.4313C59.4313 137.388 59.4313 140.315 59.469 142.68L59.6152 142.803C59.6152 140.362 59.6152 137.331 59.6529 133.856L55.9417 133.851Z" fill="#3F00F9"/>
<path d="M46.2277 120.268C46.2277 120.886 46.2277 121.486 46.2277 122.057C46.2795 122.279 46.3361 122.501 46.3927 122.728C46.3927 122.204 46.3927 121.661 46.3927 121.094C46.3314 120.816 46.2748 120.542 46.2277 120.268Z" fill="#3F00F9"/>
<path d="M59.4785 142.685V143.469L59.6247 143.592V142.808L59.4785 142.685Z" fill="#3F00F9"/>
<path d="M87.7249 118.342V123.403C87.8145 123.766 87.9041 124.121 87.9937 124.475V118.247L86.4847 116.736C86.4847 116.883 86.5272 117.029 86.546 117.175L87.7249 118.342Z" fill="#3F00F9"/>
<path d="M93.412 139.866V152.335H91.4079C90.6969 152.36 89.9851 152.32 89.2811 152.217C88.9275 152.17 88.5785 152.109 88.2248 152.038L87.9796 151.986V125.008C87.89 124.673 87.8004 124.338 87.7108 123.993V152.118C87.6731 152.241 87.8193 152.213 87.89 152.246L88.173 152.302C88.5266 152.373 88.885 152.439 89.2434 152.487C89.9585 152.589 90.6812 152.629 91.4032 152.605H93.6808C93.6808 148.393 93.6808 144.24 93.6808 140.145H94.3268C94.2797 140.069 94.2278 139.984 94.1712 139.88L93.412 139.866Z" fill="#3F00F9"/>
<path d="M124.879 116.604V114.357H112.336C112.336 115.079 112.336 115.811 112.336 116.552H110.266C110.266 118.356 110.266 120.21 110.266 122.114H106.932C106.932 119.456 106.932 116.703 106.932 113.87H104.989C104.989 116.555 104.989 119.314 104.989 122.147H101.263C101.263 118.181 101.263 114.078 101.263 109.871H99.8158C99.8158 113.831 99.8158 117.895 99.8158 122.062H98.6699C98.6699 127.847 98.6699 133.791 98.6699 139.895H94.1995L94.3504 140.159H98.9339C98.9339 134.059 98.9339 128.11 98.9339 122.312H100.075C100.075 118.153 100.075 114.078 100.075 110.112H101.018C101.018 114.324 101.018 118.415 101.018 122.388H105.201C105.201 119.555 105.201 116.788 105.201 114.102H106.71C106.71 116.935 106.71 119.678 106.71 122.331H110.44C110.44 120.443 110.44 118.554 110.44 116.755H112.496V114.517H124.719C124.719 115.282 124.719 116.033 124.719 116.76H126.992C126.992 122.742 126.992 127.492 127.02 130.83L127.091 130.712C127.091 127.35 127.091 122.591 127.124 116.628L124.879 116.604Z" fill="#3F00F9"/>
<path d="M66.6227 128.936H69.1927C69.1927 126.585 69.1927 124.067 69.1927 121.382H71.8853C71.8853 119.103 71.8853 116.721 71.8853 114.234H73.1066C73.1066 116.406 73.1066 118.65 73.1066 120.967H74.6298C74.6298 116.245 74.6298 111.272 74.6298 106.047H75.8935C75.8935 109.22 75.8935 112.478 75.8935 115.82H77.3507C77.3507 113.784 77.3507 111.722 77.3507 109.635H78.5956C78.5956 115.561 78.5956 121.708 78.5956 128.049H82.1842C82.1842 123.238 82.1842 118.318 82.1842 112.794L86.3528 116.968C86.3528 116.821 86.315 116.675 86.2962 116.529L81.9201 112.152V127.794H78.8502C78.8502 121.458 78.8502 115.32 78.8502 109.38H77.1243C77.1243 111.47 77.1243 113.534 77.1243 115.57H76.1105C76.1105 112.234 76.1105 108.981 76.1105 105.811H74.4034C74.4034 111.052 74.4034 116.031 74.4034 120.75H73.2764C73.2764 118.436 73.2764 116.195 73.2764 114.026H71.7202C71.7202 116.519 71.7202 118.907 71.7202 121.189H69.0323C69.0323 123.87 69.0323 126.382 69.0323 128.743H66.5048C66.5048 135.145 66.5331 140.169 66.5378 143.592C66.5378 145.225 66.5378 146.486 66.5378 147.369H66.5755C66.5755 146.491 66.5755 145.22 66.5755 143.592C66.5991 140.263 66.6085 135.282 66.6227 128.936Z" fill="#3F00F9"/>
<path d="M127.11 130.693L127.039 130.811V131.283C127.039 131.755 127.039 132.18 127.039 132.586L127.1 132.491C127.1 132.114 127.1 131.712 127.1 131.283L127.11 130.693Z" fill="#3F00F9"/>
<path d="M66.5754 147.444H66.5377V147.562C66.5377 147.803 66.5377 148.011 66.5377 148.186C66.5377 148.006 66.5377 147.798 66.5377 147.548L66.5754 147.444Z" fill="#3F00F9"/>
<path d="M140.035 116.925L139.837 117.005C139.837 117.378 139.837 117.728 139.837 118.049L140.045 117.968C140.045 117.638 140.045 117.284 140.045 116.911L140.035 116.925Z" fill="#3F00F9"/>
<path d="M140.761 116.651L140.516 116.732V116.798C140.516 117.138 140.516 117.452 140.516 117.742L140.733 117.671C140.733 117.388 140.733 117.09 140.733 116.779L140.761 116.651Z" fill="#3F00F9"/>
<path d="M154.687 116.014C154.687 114.796 154.687 113.446 154.687 112.015H155.682V112.072C155.682 115.377 155.682 118.361 155.719 120.523V121.255L155.88 121.425C155.88 121.137 155.88 120.839 155.88 120.513C155.903 118.351 155.917 115.362 155.917 112.062V111.732H154.385C154.385 113.261 154.385 114.697 154.385 115.981C154.385 117.265 154.408 118.37 154.413 119.31C154.413 119.546 154.413 119.782 154.413 119.98L154.569 120.117C154.569 119.868 154.569 119.599 154.569 119.31C154.687 118.403 154.687 117.275 154.687 116.014Z" fill="#3F00F9"/>
<path d="M155.922 121.439L155.762 121.269C155.762 121.67 155.762 122.024 155.762 122.35H155.894C155.913 122.067 155.917 121.769 155.922 121.439Z" fill="#3F00F9"/>
<path d="M155.776 122.402C155.776 122.558 155.776 122.704 155.776 122.841C155.809 122.888 155.847 122.931 155.884 122.978C155.884 122.803 155.884 122.61 155.884 122.402H155.776Z" fill="#3F00F9"/>
<path d="M154.654 120.15L154.498 120.013C154.498 120.58 154.498 121.052 154.526 121.429L154.625 121.529C154.635 121.174 154.64 120.702 154.654 120.15Z" fill="#3F00F9"/>
<path d="M211.642 145.801C211.642 146.349 211.642 146.882 211.642 147.397L211.779 147.364C211.779 146.859 211.779 146.339 211.779 145.801C211.779 142.42 211.779 138.445 211.779 133.974C211.713 134.12 211.656 134.257 211.599 134.394C211.632 138.695 211.637 142.529 211.642 145.801Z" fill="#3F00F9"/>
<path d="M176.473 122.463C176.473 119.225 176.473 115.698 176.473 111.921H177.539C177.539 115.292 177.539 118.852 177.539 122.577H178.482V127.062H179.335C179.335 123.707 179.335 120.244 179.335 116.675H181.16C181.16 113.658 181.16 110.537 181.16 107.232H193.892C193.892 110.455 193.892 113.623 193.892 116.736H195.147C195.147 115.391 195.147 114.055 195.147 112.733H211.571C211.571 120.731 211.595 127.992 211.604 134.262L211.783 133.828C211.783 127.591 211.783 120.4 211.812 112.487H194.887C194.887 113.806 194.887 115.141 194.887 116.491H194.166C194.166 113.378 194.166 110.207 194.166 106.977H180.901V116.444H179.076C179.076 120.007 179.076 123.469 179.076 126.831H178.736C178.736 125.315 178.736 123.819 178.736 122.35H177.793C177.793 118.63 177.793 115.074 177.793 111.713H176.289C176.289 115.49 176.289 119.036 176.289 122.284L159.714 122.327H156.681L156.738 122.397H159.714L176.473 122.463Z" fill="#3F00F9"/>
<path d="M155.908 122.34V122.402H156.738L156.681 122.331L155.908 122.34Z" fill="#3F00F9"/>
<path d="M155.776 122.341H155.366L155.408 122.397H155.776V122.341Z" fill="#3F00F9"/>
<path d="M211.665 151.745C211.665 152.133 211.665 152.51 211.665 152.869L211.76 152.841C211.76 152.482 211.76 152.104 211.76 151.717L211.665 151.745Z" fill="#3F00F9"/>
<path d="M155.776 122.341V122.402H155.903V122.341H155.776Z" fill="#3F00F9"/>
<path d="M213.099 147.298C213.571 147.189 214.075 147.034 214.514 146.972C214.969 146.912 215.432 147.014 215.82 147.26C216.164 147.496 216.513 147.732 216.857 147.931V147.638C216.556 147.449 216.254 147.255 215.957 147.052C215.52 146.773 215 146.655 214.485 146.717C213.971 146.788 213.542 146.939 213.024 147.048L211.769 147.364V147.614L213.099 147.298Z" fill="#3F00F9"/>
<path d="M216.956 147.982C217.635 148.407 218.319 148.79 218.993 149.153L219.262 149.035C218.503 148.624 217.73 148.181 216.956 147.694V147.982Z" fill="#3F00F9"/>
<path d="M197.858 151.911L200.871 150.91C201.381 150.74 201.895 150.565 202.409 150.376C202.923 150.187 203.427 149.998 203.951 149.828C206.044 149.153 208.124 148.582 210.133 148.053L211.651 147.666V147.397L210.071 147.798C208.058 148.322 205.978 148.889 203.87 149.569C203.347 149.744 202.824 149.923 202.319 150.121C201.814 150.32 201.296 150.48 200.791 150.655L197.783 151.656C195.802 152.288 193.902 152.949 192.067 153.455C190.256 153.931 188.414 154.281 186.555 154.503L187.498 154.555H187.823C189.275 154.344 190.713 154.054 192.133 153.686C193.982 153.19 195.873 152.539 197.858 151.911Z" fill="#3F00F9"/>
<path d="M218.993 149.153C219.404 149.37 219.809 149.588 220.215 149.791L220.474 149.673L219.262 149.031L218.993 149.153Z" fill="#3F00F9"/>
<path d="M187.493 154.555L186.55 154.503C184.947 154.692 183.438 154.786 182.061 154.814L182.688 154.994C184.405 154.95 186.118 154.807 187.819 154.564L187.493 154.555Z" fill="#3F00F9"/>
<path d="M211.651 147.666L211.783 147.633V147.364L211.646 147.397L211.651 147.666Z" fill="#3F00F9"/>
<path d="M235.107 129.276C235.107 126.986 235.107 124.555 235.107 121.963H232.541C232.541 119.739 232.541 117.416 232.541 115.013H231.023C231.023 117.141 231.023 119.333 231.023 121.59H229.915C229.915 116.968 229.915 112.105 229.915 107.067H228.255C228.255 110.145 228.255 113.293 228.255 116.51H227.312V110.514H225.605C225.605 116.779 225.605 122.742 225.605 128.341H222.591C222.591 123.091 222.591 118.072 222.591 113.346L216.791 119.163C216.791 129.206 216.829 137.496 216.838 143.271C216.838 144.956 216.838 146.424 216.862 147.661L216.947 147.718C216.947 146.459 216.947 144.977 216.947 143.271C216.947 137.515 216.975 129.257 216.994 119.253L222.332 113.922C222.332 118.545 222.332 123.46 222.332 128.601H225.892C225.892 123.006 225.892 117.048 225.892 110.787H227.057V116.784H228.561C228.561 113.579 228.561 110.432 228.561 107.341H229.665C229.665 112.374 229.665 117.256 229.665 121.85H231.268C231.268 119.593 231.268 117.393 231.268 115.263H232.32C232.32 117.662 232.32 119.972 232.32 122.194H234.894C234.894 124.763 234.894 127.199 234.894 129.484H237.549C237.549 130.97 237.549 132.386 237.549 133.733L237.705 133.497C237.705 132.178 237.705 130.787 237.705 129.324L235.107 129.276Z" fill="#3F00F9"/>
<path d="M237.582 133.691C237.582 134.357 237.582 135.003 237.582 135.631L237.724 135.428C237.724 134.791 237.724 134.135 237.724 133.455L237.582 133.691Z" fill="#3F00F9"/>
<path d="M216.881 150.017C216.881 150.489 216.881 150.853 216.881 151.169H216.923C216.923 150.855 216.923 150.467 216.923 150.008L216.881 150.017Z" fill="#3F00F9"/>
<path d="M216.956 147.982V147.694L216.871 147.638V147.93L216.956 147.982Z" fill="#3F00F9"/>
<path d="M216.579 98.3369C217.336 103.828 217.374 109.394 216.692 114.895C216.434 117.152 216.061 119.394 215.575 121.613C215.15 123.667 214.631 125.513 214.16 127.161C213.934 127.992 213.651 128.757 213.42 129.484C213.188 130.211 212.948 130.9 212.717 131.505C212.392 132.373 212.085 133.143 211.812 133.813V133.974C212.109 133.275 212.439 132.458 212.788 131.533C213.023 130.91 213.259 130.239 213.509 129.512C213.759 128.785 214.028 128.025 214.264 127.194C214.735 125.542 215.273 123.696 215.707 121.642C216.14 119.588 216.555 117.345 216.848 114.914C217.546 109.401 217.521 103.82 216.772 98.3133C216.239 94.4486 215.364 90.6391 214.155 86.93L213.91 86.8545C215.14 90.5945 216.034 94.4373 216.579 98.3369Z" fill="#3F00F9"/>
<path d="M86.1076 102.161C86.6468 95.6491 88.1157 89.2479 90.4695 83.1531L90.2149 83.205C87.886 89.2813 86.4378 95.66 85.9143 102.147C85.522 106.948 85.6484 111.778 86.2915 116.552L86.4707 116.736C85.8209 111.906 85.6991 107.018 86.1076 102.161Z" fill="#3F00F9"/>
<path d="M88.0834 125.424C88.654 127.444 89.2717 129.262 89.8848 130.872C90.8332 133.345 91.9357 135.756 93.1857 138.091C93.6101 138.889 93.9496 139.507 94.1854 139.89H94.2137C93.9921 139.484 93.6526 138.879 93.2376 138.077C92.016 135.733 90.9358 133.317 90.0027 130.844C89.3991 129.234 88.786 127.416 88.2296 125.4C88.1494 125.112 88.074 124.814 87.9985 124.522V125.041C88.0174 125.136 88.0504 125.272 88.0834 125.424Z" fill="#3F00F9"/>
<path d="M90.2148 83.2048L90.4695 83.1529L90.6675 82.643C90.6958 82.5769 90.7194 82.5155 90.7477 82.4541L90.4836 82.5013V82.558C90.3752 82.7752 90.295 82.9876 90.2148 83.2048Z" fill="#3F00F9"/>
<path d="M213.905 86.8544L214.151 86.93C214.023 86.5334 213.891 86.1368 213.754 85.7449L213.5 85.6741C213.632 86.0707 213.773 86.4625 213.905 86.8544Z" fill="#3F00F9"/>
<path d="M94.3269 140.131H94.3505L94.1996 139.866H94.1713C94.2279 139.97 94.2797 140.06 94.3269 140.131Z" fill="#3F00F9"/>
<path d="M86.532 117.175C86.532 117.029 86.4896 116.882 86.4707 116.736L86.2915 116.552C86.2915 116.698 86.3245 116.845 86.3481 116.991L86.532 117.175Z" fill="#3F00F9"/>
<path d="M87.725 124.007C87.8146 124.352 87.9042 124.687 87.9938 125.022V124.479C87.9042 124.125 87.8146 123.771 87.725 123.408V124.007Z" fill="#3F00F9"/>
<path d="M211.628 134.394C211.684 134.257 211.741 134.12 211.807 133.974V133.813L211.628 134.248V134.394Z" fill="#3F00F9"/>
<defs>
<filter id="filter0_f_1680_8844" x="9.91228" y="6.35955" width="270.175" height="187.281" filterUnits="userSpaceOnUse" color-interpolation-filters="sRGB">
<feFlood flood-opacity="0" result="BackgroundImageFix"/>
<feBlend mode="normal" in="SourceGraphic" in2="BackgroundImageFix" result="shape"/>
<feGaussianBlur stdDeviation="17.5439" result="effect1_foregroundBlur_1680_8844"/>
</filter>
<radialGradient id="paint0_radial_1680_8844" cx="0" cy="0" r="1" gradientUnits="userSpaceOnUse" gradientTransform="translate(151.579 107.017) rotate(-3.12213) scale(84.5553 82.792)">
<stop offset="0.685965" stop-color="#FFEB99"/>
<stop offset="0.871069" stop-color="#E5CA5C"/>
</radialGradient>
</defs>
</svg>
