<svg width="342" height="338" viewBox="0 0 342 338" fill="none" xmlns="http://www.w3.org/2000/svg">
<path d="M245.754 67.6365C246.472 81.4156 247.149 95.2397 247.787 109.108C249.501 145.913 250.972 182.443 252.197 218.699L302.562 264.58C309.708 227.048 316.844 189.527 323.97 152.015C328.265 129.478 332.551 106.936 336.826 84.3897L245.754 67.6365Z" fill="#C4E5FF"/>
<path d="M248.071 62.077C248.083 61.8323 248.146 61.5927 248.254 61.373C248.363 61.1533 248.515 60.9582 248.702 60.7996C248.889 60.6411 249.106 60.5225 249.34 60.4512C249.575 60.3798 249.821 60.3573 250.065 60.3849C250.308 60.4125 250.544 60.4897 250.756 60.6117C250.969 60.7338 251.154 60.898 251.3 61.0944C251.447 61.2907 251.552 61.515 251.608 61.7534C251.665 61.9918 251.672 62.2393 251.629 62.4805L249.297 74.5559C249.144 74.979 248.86 75.342 248.486 75.5921C248.112 75.8422 247.668 75.9661 247.219 75.9458C246.822 75.8778 246.462 75.6713 246.202 75.363L245.978 71.552C246.681 68.3986 247.383 65.2303 248.071 62.077Z" fill="#4B4B4C"/>
<path d="M259.209 64.1545C259.242 63.8934 259.329 63.6421 259.465 63.4165C259.601 63.191 259.782 62.9961 259.997 62.8443C260.212 62.6926 260.456 62.5871 260.714 62.5348C260.972 62.4825 261.239 62.4844 261.496 62.5404C261.947 62.6886 262.324 63.0027 262.552 63.4191C262.78 63.8354 262.84 64.3227 262.722 64.7821L260.494 76.738C260.334 77.1872 260.012 77.5604 259.591 77.7846C259.17 78.0087 258.681 78.0677 258.219 77.9498C257.757 77.832 257.355 77.5459 257.093 77.1476C256.831 76.7492 256.727 76.2674 256.802 75.7965C257.564 71.9108 258.356 68.0551 259.209 64.1545Z" fill="#4B4B4C"/>
<path d="M269.793 65.4845C269.824 65.224 269.91 64.9729 270.044 64.7474C270.178 64.522 270.358 64.327 270.572 64.175C270.786 64.023 271.029 63.9174 271.286 63.865C271.543 63.8125 271.809 63.8144 272.065 63.8704C272.519 64.0156 272.9 64.3285 273.131 64.7451C273.361 65.1618 273.424 65.6508 273.306 66.1121L271.078 78.068C270.918 78.5172 270.596 78.8904 270.175 79.1146C269.755 79.3387 269.265 79.3977 268.803 79.2798C268.341 79.162 267.939 78.8759 267.677 78.4775C267.415 78.0792 267.311 77.5974 267.386 77.1265C268.178 73.2409 268.986 69.3552 269.793 65.4845Z" fill="#4B4B4C"/>
<path d="M281.14 67.7561C281.17 67.5151 281.25 67.2828 281.373 67.0734C281.496 66.864 281.661 66.6818 281.856 66.5379C282.052 66.394 282.275 66.2914 282.512 66.2363C282.749 66.1811 282.994 66.1747 283.233 66.2172C283.473 66.2598 283.701 66.3505 283.904 66.4839C284.107 66.6173 284.281 66.7905 284.415 66.9931C284.549 67.1957 284.641 67.4235 284.684 67.6625C284.728 67.9016 284.722 68.1469 284.668 68.3838L282.425 80.3397C282.265 80.7888 281.943 81.162 281.522 81.3862C281.101 81.6104 280.612 81.6693 280.15 81.5514C279.687 81.4336 279.286 81.1475 279.024 80.7492C278.762 80.3508 278.658 79.869 278.733 79.3981C279.54 75.5274 280.347 71.6268 281.14 67.7561Z" fill="#4B4B4C"/>
<path d="M292.262 70.1771C292.272 69.9188 292.337 69.6657 292.453 69.4347C292.569 69.2038 292.733 69.0004 292.935 68.8383C293.136 68.6761 293.37 68.559 293.62 68.4948C293.87 68.4306 294.132 68.4208 294.386 68.4661C294.641 68.5114 294.883 68.6107 295.096 68.7573C295.308 68.904 295.487 69.0945 295.62 69.3161C295.753 69.5377 295.837 69.7853 295.867 70.0421C295.896 70.2989 295.87 70.5589 295.79 70.8047L293.547 82.7606C293.387 83.2098 293.065 83.583 292.644 83.8072C292.224 84.0313 291.734 84.0903 291.272 83.9724C290.81 83.8546 290.408 83.5685 290.146 83.1702C289.884 82.7718 289.78 82.29 289.855 81.8191C290.602 77.9335 291.469 74.0328 292.262 70.1771Z" fill="#4B4B4C"/>
<path d="M303.504 72.3739C303.535 72.1329 303.614 71.9007 303.737 71.6913C303.86 71.4819 304.025 71.2997 304.221 71.1558C304.417 71.0119 304.64 70.9093 304.876 70.8541C305.113 70.799 305.358 70.7925 305.598 70.8351C305.837 70.8777 306.065 70.9684 306.268 71.1018C306.471 71.2351 306.645 71.4084 306.779 71.611C306.913 71.8136 307.005 72.0413 307.048 72.2804C307.092 72.5194 307.086 72.7648 307.032 73.0016L304.789 84.9575C304.632 85.4014 304.316 85.7711 303.902 85.9948C303.487 86.2185 303.004 86.2802 302.547 86.168C302.074 86.0604 301.659 85.78 301.382 85.3818C301.105 84.9837 300.988 84.4965 301.052 84.016C301.889 80.1403 302.707 76.2596 303.504 72.3739Z" fill="#4B4B4C"/>
<path d="M325.719 76.7378C325.737 76.4874 325.808 76.2437 325.927 76.0224C326.046 75.8011 326.209 75.6072 326.408 75.4532C326.606 75.2993 326.835 75.1887 327.079 75.1286C327.322 75.0685 327.576 75.0603 327.823 75.1045C328.071 75.1486 328.306 75.2442 328.514 75.385C328.722 75.5258 328.898 75.7087 329.031 75.9219C329.163 76.135 329.25 76.3736 329.285 76.6223C329.319 76.871 329.301 77.1242 329.232 77.3655L327.004 89.3214C326.844 89.7706 326.522 90.1438 326.101 90.368C325.681 90.5921 325.191 90.6511 324.729 90.5332C324.267 90.4154 323.865 90.1293 323.603 89.7309C323.341 89.3326 323.237 88.8508 323.312 88.3799C324.109 84.5042 324.912 80.6235 325.719 76.7378Z" fill="#4B4B4C"/>
<path d="M314.402 74.9595C314.42 74.7091 314.491 74.4653 314.61 74.2441C314.729 74.0228 314.893 73.8289 315.091 73.6749C315.289 73.5209 315.518 73.4103 315.762 73.3502C316.006 73.2901 316.259 73.2819 316.507 73.3261C316.754 73.3703 316.989 73.4659 317.197 73.6067C317.405 73.7475 317.581 73.9304 317.714 74.1435C317.847 74.3567 317.933 74.5953 317.968 74.844C318.002 75.0927 317.985 75.3459 317.915 75.5872L315.688 87.5431C315.522 87.9841 315.202 88.3501 314.787 88.5728C314.371 88.7954 313.889 88.8597 313.43 88.7536C312.954 88.6524 312.534 88.3735 312.256 87.9736C311.979 87.5738 311.864 87.0831 311.935 86.6016C312.763 82.7059 313.585 78.8252 314.402 74.9595Z" fill="#4B4B4C"/>
<path d="M253.394 258.811L254.096 277.657L280.706 283.097L253.394 258.811Z" fill="#C4E5FF"/>
<path d="M336.946 84.1805C337.326 84.1805 337.701 84.2728 338.037 84.4495C338.392 84.6422 338.706 84.9009 338.964 85.2117C339.33 85.6035 339.665 86.0232 339.966 86.4671C340.519 87.304 341.117 88.2156 341.76 89.2169C330.368 149.206 318.967 209.199 307.555 269.198L302.562 264.58L336.946 84.1805Z" fill="#8FCEFF"/>
<path d="M254.096 277.657L280.706 283.097L289.601 290.973L254.35 284.786L254.096 277.657Z" fill="#8FCEFF"/>
<path d="M231.911 230.954L215.467 215.815C208.99 221.571 201.538 226.125 193.461 229.265C187.798 231.468 181.874 232.93 175.836 233.614C164.977 234.819 153.987 233.368 143.814 229.385C138.465 227.242 133.407 224.436 128.76 221.03C122.593 216.697 117.097 211.48 112.45 205.547C103.921 194.288 98.8708 180.782 97.919 166.691C97.3671 156.474 99.1036 146.262 103.002 136.801C105.292 131.394 108.239 126.289 111.777 121.602C120.577 109.903 132.708 101.136 146.58 96.4499C161.375 91.2737 177.515 91.4323 192.205 96.8982C196.967 98.6227 201.532 100.847 205.824 103.534C218.015 111.132 227.64 122.217 233.451 135.351C235.091 139.07 236.402 142.926 237.368 146.874C238.123 150.163 238.697 153.49 239.087 156.842C239.191 157.694 239.236 158.262 239.251 158.337C239.341 159.532 239.341 160.399 239.341 163.029V165.166C239.274 167.87 239.029 170.565 238.608 173.237C238.015 177.101 237.105 180.909 235.888 184.625C234.732 188.225 233.282 191.724 231.552 195.086C230.67 196.775 229.878 198.075 229.594 198.583C228.457 200.489 227.214 202.33 225.872 204.098L233.511 210.569L243.063 218.699L247.189 214.126L252.227 218.609C250.423 166.033 248.131 112.889 245.351 59.1774C244.354 39.5996 243.288 20.0965 242.151 0.668213C166.029 5.11182 89.8812 9.12203 13.7087 12.6988L0 13.3415L16.9377 337.421C60.4606 336.275 105.483 334.133 152.006 330.995C187.426 328.564 221.9 325.625 255.427 322.177L253.513 258.856L227.725 235.826L231.911 230.954Z" fill="#ECCFFA"/>
<path d="M223.554 163.344C223.589 174.169 220.416 184.762 214.436 193.787C208.455 202.812 199.935 209.864 189.95 214.053C179.965 218.243 168.963 219.382 158.331 217.327C147.698 215.273 137.913 210.116 130.21 202.508C122.506 194.901 117.228 185.182 115.043 174.579C112.858 163.977 113.863 152.964 117.931 142.932C121.999 132.899 128.949 124.296 137.902 118.207C146.856 112.119 157.413 108.817 168.241 108.72C182.812 108.664 196.812 114.38 207.178 124.617C217.544 134.853 223.432 148.778 223.554 163.344Z" fill="#ECCFFA"/>
<path d="M310.71 271.918L247.249 214.171C245.829 215.665 244.424 217.16 243.004 218.654L225.931 204.053C228.537 200.39 230.832 196.516 232.793 192.471C234.184 189.557 235.021 187.285 235.29 186.583C236.058 184.456 236.716 182.291 237.263 180.097C238.276 175.772 238.95 171.375 239.281 166.945C239.281 166.616 239.281 166.243 239.356 165.749C239.356 164.091 239.356 163.074 239.356 159.921C239.356 158.89 239.356 158.531 239.356 158.322C239.072 148.593 234.617 137.758 234.617 137.758C233.436 134.899 232.073 132.118 230.536 129.433C228.956 126.652 227.234 123.954 225.378 121.348C213.015 104.371 192.489 96.9582 192.489 96.9582C185.67 94.4913 178.509 93.0949 171.261 92.8185C166.683 92.6887 162.102 92.9989 157.582 93.7451C149.742 95.0315 142.167 97.5963 135.158 101.337C126.253 106.189 118.494 112.896 112.405 121.005C108.907 125.667 96.1252 143.9 98.1883 168.828C98.9592 177.123 101.186 185.217 104.766 192.74C110.074 203.851 118.119 213.432 128.147 220.582C139.177 228.508 152.23 233.141 165.79 233.943C174.262 234.219 182.714 232.963 190.74 230.237C199.884 227.141 208.312 222.242 215.527 215.83L231.881 230.954L227.636 235.721L293.413 294.26C296.41 296.058 299.962 296.694 303.396 296.046C306.83 295.399 309.906 293.514 312.042 290.748C314.177 287.983 315.223 284.53 314.98 281.045C314.737 277.56 313.223 274.286 310.725 271.843L310.71 271.918ZM169.677 218.027C158.836 218.184 148.193 215.112 139.105 209.201C130.017 203.291 122.894 194.81 118.644 184.838C114.395 174.867 113.21 163.857 115.241 153.21C117.273 142.563 122.428 132.762 130.051 125.054C137.674 117.347 147.419 112.082 158.046 109.931C168.672 107.78 179.699 108.84 189.72 112.975C199.742 117.11 208.306 124.134 214.321 133.152C220.336 142.17 223.529 152.774 223.495 163.612C223.335 177.889 217.633 191.545 207.592 201.698C197.55 211.851 183.955 217.706 169.677 218.027Z" fill="#A97FFF"/>
<path d="M246.173 67.8307L245.41 67.6962L245.634 71.8959C245.844 70.9394 246.053 70.0277 246.232 69.1758C246.217 68.7274 246.188 68.2791 246.173 67.8307Z" fill="#3F00F9"/>
<path d="M4.39534 13.2072L17.2668 12.6692L66.2263 10.5321L101.268 9.03757L142.603 6.63144L241.853 0.967347C242.471 12.2358 243.103 23.7981 243.751 35.6544C244.289 46.0461 244.838 56.647 245.396 67.4571L246.143 67.5916C245.575 56.7217 245.017 46.061 244.469 35.6095C243.801 23.5341 243.143 11.7476 242.496 0.25L142.603 6.07849L101.253 8.49955L66.2263 10.1435L17.2668 12.4749L4.41028 13.1026L1.12141 13.2819L0.0151367 13.3566H1.12141L4.39534 13.2072Z" fill="#3F00F9"/>
<path d="M246.397 72.3142H246.307L246.233 72.7028C246.076 73.1844 246.02 73.6932 246.068 74.1974C246.124 74.5249 246.287 74.8247 246.532 75.0493L246.397 72.3441V72.3142Z" fill="#3F00F9"/>
<path d="M253.647 277.746C253.722 280.003 253.797 282.305 253.857 284.577L254.694 284.711C254.619 282.454 254.559 280.227 254.485 277.926L253.647 277.746Z" fill="#3F00F9"/>
<path d="M253.932 259.603L253.08 258.841C253.269 265.008 253.458 271.201 253.648 277.418L254.485 277.582C254.291 271.559 254.111 265.581 253.932 259.603Z" fill="#3F00F9"/>
<path d="M250.03 150.476C248.954 125.289 247.827 100.939 246.651 77.4254C246.383 77.3586 246.126 77.2528 245.889 77.1115C247.055 100.714 248.171 125.179 249.238 150.506C250.234 172.475 251.086 195.007 251.794 218.101L252.631 218.864C251.869 195.535 251.017 172.669 250.03 150.476Z" fill="#3F00F9"/>
<path d="M246.366 75.9903C246.137 75.8729 245.93 75.7162 245.754 75.5273V76.0799C245.989 76.2755 246.25 76.4365 246.531 76.5578V76.1247L246.366 75.9903Z" fill="#3F00F9"/>
<path d="M254.993 321.744L192.43 327.259C182.084 328.141 171.844 329.157 161.678 329.889C151.513 330.621 141.437 331.309 131.451 331.937C111.518 333.192 91.9691 334.233 72.8039 335.06L44.4896 336.166L17.2965 337.003C12.2287 241.356 7.95312 160.519 4.93333 103.534C3.43838 75.0043 2.18263 52.4525 1.36041 37.0294C0.926872 29.3179 0.597979 23.3997 0.373737 19.3945C0.254141 17.4068 0.164432 15.8824 0.104634 14.911C0.0448365 13.9396 0 13.4165 0 13.4165C0 13.4165 0 13.9396 0 14.911C0 15.8824 0.119595 17.4516 0.209292 19.3945C0.403635 23.3847 0.687677 29.3179 1.07636 37.0294C1.85374 52.4525 2.98989 75.0043 4.43999 103.549C7.42989 160.713 11.5858 241.849 16.5341 337.75L44.4747 336.928L72.789 335.822C91.9043 335.005 111.458 333.974 131.451 332.729C141.417 332.121 151.498 331.443 161.693 330.696C171.859 329.964 182.099 328.948 192.444 328.066L255.8 322.491V321.684C255.412 309.33 255.038 297.075 254.679 284.92L253.842 284.756C254.221 297.01 254.604 309.34 254.993 321.744Z" fill="#3F00F9"/>
<path d="M265.472 71.4773L268.089 71.9555L268.193 71.5072L265.547 71.0289L262.019 70.4161C262.001 70.547 261.976 70.6767 261.944 70.8047L265.472 71.4773Z" fill="#3F00F9"/>
<path d="M257.714 69.9978L257.789 69.6391L250.957 68.4285V68.7125L257.714 69.9978Z" fill="#3F00F9"/>
<path d="M290.707 76.1401L290.827 75.6021L283.816 74.3317L283.726 74.8548L290.707 76.1401Z" fill="#3F00F9"/>
<path d="M324.254 82.3572L324.374 81.7743V81.6697L317.377 80.4143C317.377 80.6235 317.302 80.8327 317.258 81.0569L324.254 82.3572Z" fill="#3F00F9"/>
<path d="M313.027 80.2649V79.9062C313.027 79.8165 313.027 79.7269 313.027 79.6372L306.33 78.4266C306.33 78.6209 306.33 78.8301 306.21 79.0244L313.027 80.2649Z" fill="#3F00F9"/>
<path d="M336.184 84.4945C336.269 84.3621 336.381 84.2487 336.512 84.1613C336.643 84.0739 336.791 84.0143 336.946 83.9863H337.26L328.649 82.4918C328.649 82.7309 328.559 82.9551 328.53 83.1942L336.184 84.4945Z" fill="#3F00F9"/>
<path d="M246.517 67.9051V67.6662L246.098 67.5915V67.8304L246.517 67.9051Z" fill="#3F00F9"/>
<path d="M336.318 85.107C331.729 109.228 326.542 136.488 321.04 165.346C314.163 201.767 307.765 235.587 302.413 263.907L302.981 264.416C308.408 236.02 314.941 202.051 321.862 165.496C327.379 136.308 332.596 108.705 337.215 84.3747H337.021C336.677 84.4046 336.468 84.7334 336.318 85.107Z" fill="#3F00F9"/>
<path d="M302.009 78.2325C302.009 78.0382 302.099 77.8439 302.129 77.6496L295.117 76.3792L295.087 77.0219L302.009 78.2325Z" fill="#3F00F9"/>
<path d="M255.845 277.851L254.485 277.582V277.926L255.785 278.195L280.422 283.261L279.69 282.604L255.845 277.851Z" fill="#3F00F9"/>
<path d="M279.391 74.033L279.51 73.5397L272.514 72.2843C272.506 72.4386 272.506 72.5933 272.514 72.7476L279.391 74.033Z" fill="#3F00F9"/>
<path d="M245.41 67.6961L246.172 67.8305V67.5916L245.425 67.4572L245.41 67.6961Z" fill="#3F00F9"/>
<path d="M254.484 277.582L253.647 277.418V277.746L254.484 277.925V277.582Z" fill="#3F00F9"/>
<path d="M341.834 88.8583C341.505 88.3352 341.177 87.8121 340.833 87.3638C340.19 86.3896 339.432 85.4965 338.575 84.7036C338.217 84.3709 337.771 84.1478 337.29 84.061L337.215 84.4196C337.626 84.5078 338.004 84.7097 338.306 85.0025C339.136 85.7799 339.864 86.6586 340.474 87.6178C340.803 88.106 341.132 88.6042 341.461 89.1123C341.58 89.1123 341.461 89.5457 341.461 89.8446L341.281 90.7862C340.295 95.8525 339.173 101.606 337.948 107.973C333.074 133.454 326.347 168.634 318.902 207.506C314.791 229.325 310.889 249.979 307.406 268.376L308.019 268.944C311.562 250.412 315.493 229.624 319.724 207.67C327.064 168.813 333.717 133.573 338.531 108.077C339.712 101.711 340.788 95.9421 341.73 90.8758L341.909 89.9343L341.999 89.471V89.1721C342.014 89.0526 341.864 88.9778 341.834 88.8583Z" fill="#3F00F9"/>
<path d="M262.797 286.071L254.724 284.755V285.01L262.752 286.504L289.377 291.287L288.569 290.584L262.797 286.071Z" fill="#3F00F9"/>
<path d="M253.857 284.576V284.755L254.693 284.92V284.755L253.857 284.576Z" fill="#3F00F9"/>
<path d="M336.213 84.4939H336.452L336.348 85.0016C336.497 84.6283 336.706 84.2997 337.05 84.2549H337.244L337.319 83.8965H337.005C336.837 83.9307 336.678 84.0021 336.541 84.1055C336.404 84.2088 336.292 84.3415 336.213 84.4939Z" fill="#3F00F9"/>
<path d="M260.704 77.9785C260.391 78.3626 259.978 78.6519 259.51 78.8139C259.042 78.9759 258.538 79.0042 258.055 78.8954C257.572 78.7867 257.129 78.5454 256.775 78.1985C256.422 77.8517 256.172 77.4132 256.055 76.9323C255.99 76.6214 256 76.2997 256.083 75.9932C256.166 75.6868 256.32 75.4043 256.533 75.1687L256.638 74.6755L256.742 74.2421L256.533 74.3467C256.082 74.6319 255.724 75.0427 255.504 75.5287C255.283 76.0147 255.21 76.5545 255.292 77.0817C255.424 77.7209 255.739 78.3081 256.198 78.7723C256.657 79.2364 257.241 79.5577 257.878 79.6973C258.514 79.8378 259.176 79.7944 259.788 79.572C260.4 79.3496 260.935 78.9576 261.332 78.4418C261.637 78.0068 261.808 77.4919 261.824 76.9607C261.84 76.4295 261.7 75.9052 261.422 75.4527L261.197 75.1687C261.197 75.4826 261.093 75.7815 261.033 76.0953C261.134 76.4125 261.157 76.7494 261.1 77.0773C261.043 77.4053 260.907 77.7144 260.704 77.9785Z" fill="#3F00F9"/>
<path d="M250.314 76.2449C250.619 75.8099 250.791 75.295 250.807 74.7638C250.822 74.2326 250.682 73.7083 250.404 73.2558C250.306 73.1157 250.201 72.981 250.09 72.8523C250.09 73.1213 249.985 73.3903 249.925 73.6743C250.085 74.0158 250.146 74.3946 250.104 74.7691C250.062 75.1435 249.917 75.4991 249.686 75.7966C249.371 76.1765 248.958 76.4626 248.491 76.6234C248.024 76.7842 247.522 76.8135 247.04 76.7082C246.891 76.6666 246.746 76.6116 246.606 76.5438V77.4406H246.816C247.452 77.6007 248.121 77.573 248.742 77.3608C249.363 77.1486 249.909 76.761 250.314 76.2449Z" fill="#3F00F9"/>
<path d="M246.382 71.9406L246.307 72.3587H246.397L246.382 71.9406Z" fill="#3F00F9"/>
<path d="M246.606 76.5284C246.325 76.407 246.064 76.2461 245.829 76.0505V77.1108C246.066 77.252 246.323 77.3577 246.591 77.4244L246.606 76.5284Z" fill="#3F00F9"/>
<path d="M325.898 92.1612C326.69 92.0123 327.398 91.5758 327.887 90.9357C328.192 90.5007 328.363 89.9857 328.379 89.4545C328.395 88.9233 328.255 88.399 327.976 87.9465C327.902 87.8269 327.812 87.7373 327.737 87.6327C327.737 87.9316 327.633 88.2305 327.573 88.5294C327.693 88.8544 327.728 89.2045 327.676 89.5469C327.624 89.8893 327.485 90.2129 327.274 90.4873C326.955 90.8672 326.539 91.1529 326.07 91.3136C325.601 91.4743 325.097 91.5038 324.613 91.399C324.132 91.2907 323.691 91.0521 323.338 90.7093C322.984 90.3665 322.732 89.9328 322.61 89.456C322.548 89.1496 322.556 88.8332 322.634 88.5305C322.712 88.2277 322.857 87.9463 323.058 87.7074L323.148 87.2889L323.267 86.7658L323.103 86.8555C322.649 87.1378 322.289 87.5483 322.068 88.0351C321.847 88.5218 321.776 89.0631 321.862 89.5906C321.99 90.2293 322.301 90.817 322.758 91.2816C323.214 91.7462 323.797 92.0675 324.433 92.2061C324.852 92.2971 325.285 92.2971 325.704 92.2061H325.495C325.628 92.178 325.763 92.163 325.898 92.1612Z" fill="#3F00F9"/>
<path d="M325.495 92.1909H325.704H325.898C325.764 92.1778 325.629 92.1778 325.495 92.1909Z" fill="#3F00F9"/>
<path d="M316.017 88.3801C315.696 88.7574 315.28 89.0412 314.812 89.2017C314.343 89.3622 313.84 89.3933 313.356 89.2918C312.874 89.1808 312.432 88.9394 312.079 88.594C311.726 88.2486 311.474 87.8127 311.352 87.3339C311.291 87.0275 311.299 86.7111 311.377 86.4083C311.454 86.1056 311.599 85.8242 311.801 85.5852V85.4059L311.965 84.6586C311.906 84.6794 311.851 84.7097 311.801 84.7483C311.344 85.0277 310.982 85.4377 310.76 85.9253C310.539 86.4129 310.469 86.9557 310.56 87.4833C310.69 88.1213 311.001 88.7081 311.458 89.1724C311.914 89.6366 312.496 89.9585 313.131 90.0988C313.768 90.2396 314.432 90.1947 315.044 89.9696C315.656 89.7444 316.191 89.3483 316.585 88.8285C316.894 88.395 317.067 87.8796 317.083 87.3475C317.099 86.8154 316.957 86.2905 316.674 85.8393C316.602 85.7293 316.522 85.6245 316.435 85.5255C316.435 85.8244 316.316 86.1083 316.271 86.4222C316.393 86.7442 316.434 87.0914 316.389 87.433C316.345 87.7745 316.217 88.0999 316.017 88.3801Z" fill="#3F00F9"/>
<path d="M305.029 86.0936C304.714 86.4725 304.3 86.7569 303.834 86.9156C303.367 87.0743 302.865 87.1009 302.384 86.9927C301.904 86.8845 301.462 86.6456 301.108 86.3023C300.754 85.9591 300.502 85.5248 300.38 85.0474C300.317 84.7272 300.33 84.3967 300.418 84.0825C300.506 83.7683 300.667 83.4793 300.888 83.239L300.963 82.8803L301.083 82.3422L300.873 82.4469C300.419 82.73 300.059 83.1401 299.835 83.6262C299.612 84.1123 299.536 84.6532 299.618 85.1819C299.757 85.8087 300.072 86.383 300.525 86.838C300.978 87.2931 301.551 87.6103 302.177 87.7528C302.803 87.8952 303.457 87.857 304.063 87.6427C304.668 87.4284 305.2 87.0467 305.597 86.542C305.903 86.107 306.074 85.5921 306.09 85.0608C306.106 84.5296 305.966 84.0054 305.687 83.5528C305.622 83.4645 305.552 83.3797 305.478 83.2988C305.478 83.6126 305.373 83.9115 305.313 84.2254C305.416 84.5373 305.444 84.8688 305.394 85.1934C305.345 85.5179 305.22 85.8263 305.029 86.0936Z" fill="#3F00F9"/>
<path d="M293.772 83.792C293.458 84.1709 293.045 84.4559 292.579 84.6155C292.113 84.775 291.613 84.8031 291.132 84.6964C290.651 84.5898 290.209 84.3527 289.855 84.0112C289.5 83.6697 289.247 83.237 289.123 82.7607C289.058 82.4406 289.07 82.1097 289.159 81.7953C289.247 81.4809 289.409 81.192 289.631 80.9523V80.5936L289.75 80.0555L289.526 80.1602C289.075 80.4453 288.717 80.8562 288.497 81.3422C288.276 81.8282 288.203 82.368 288.285 82.8952C288.425 83.522 288.74 84.0963 289.193 84.5514C289.646 85.0064 290.219 85.3236 290.845 85.4661C291.471 85.6085 292.125 85.5703 292.731 85.356C293.336 85.1417 293.868 84.76 294.265 84.2553C294.561 83.8129 294.719 83.2928 294.719 82.7607C294.719 82.2287 294.561 81.7085 294.265 81.2661L294.071 81.0121C294.071 81.3259 293.966 81.6248 293.906 81.9387C294.032 82.2363 294.085 82.5594 294.061 82.8815C294.038 83.2036 293.939 83.5156 293.772 83.792Z" fill="#3F00F9"/>
<path d="M282.515 81.5055C282.199 81.8841 281.785 82.1692 281.319 82.3299C280.853 82.4906 280.351 82.5208 279.869 82.4172C279.388 82.3105 278.946 82.0724 278.592 81.7293C278.238 81.3863 277.987 80.9517 277.866 80.4742C277.797 80.1542 277.808 79.8223 277.897 79.5073C277.985 79.1922 278.149 78.9034 278.374 78.6658L278.449 78.3071L278.568 77.7541L278.344 77.8737C277.89 78.156 277.53 78.5664 277.309 79.0532C277.088 79.54 277.017 80.0813 277.103 80.6087C277.243 81.2355 277.558 81.8098 278.011 82.2648C278.464 82.7199 279.037 83.0371 279.663 83.1796C280.289 83.322 280.943 83.2838 281.548 83.0695C282.154 82.8552 282.686 82.4735 283.083 81.9688C283.396 81.5369 283.572 81.021 283.588 80.488C283.604 79.955 283.459 79.4295 283.173 78.9796C283.115 78.8896 283.05 78.8046 282.978 78.7256L282.799 79.6522C282.903 79.9614 282.931 80.2909 282.882 80.6132C282.832 80.9356 282.707 81.2415 282.515 81.5055Z" fill="#3F00F9"/>
<path d="M271.258 79.219C270.944 79.6021 270.529 79.8903 270.06 80.0516C269.592 80.2129 269.087 80.2408 268.604 80.1323C268.12 80.0238 267.676 79.7832 267.321 79.4372C266.966 79.0912 266.715 78.6534 266.594 78.1728C266.533 77.8549 266.547 77.5272 266.636 77.2158C266.724 76.9044 266.884 76.618 267.102 76.3793L267.192 76.0056L267.312 75.4676L267.087 75.5871C266.633 75.8695 266.273 76.2799 266.052 76.7667C265.832 77.2535 265.76 77.7948 265.847 78.3222C265.986 78.949 266.301 79.5233 266.754 79.9783C267.207 80.4334 267.78 80.7506 268.406 80.8931C269.032 81.0355 269.686 80.9973 270.292 80.783C270.897 80.5687 271.429 80.187 271.826 79.6823C272.135 79.2488 272.309 78.7334 272.325 78.2013C272.341 77.6692 272.199 77.1443 271.916 76.6931C271.859 76.6031 271.794 76.5181 271.722 76.4391L271.542 77.3657C271.646 77.6749 271.674 78.0044 271.625 78.3267C271.575 78.6491 271.45 78.955 271.258 79.219Z" fill="#3F00F9"/>
<path d="M314.417 74.8846C313.85 76.428 313.42 78.0184 313.132 79.6374L313.7 79.742C314.067 78.1445 314.307 76.5202 314.417 74.8846Z" fill="#3F00F9"/>
<path d="M316.48 85.5258C316.764 84.0312 317.033 82.4619 317.288 81.042L316.525 80.9075C316.271 82.163 316.017 83.4931 315.763 84.8532C316.035 85.0389 316.277 85.2658 316.48 85.5258Z" fill="#3F00F9"/>
<path d="M315.359 73.7042C315.595 73.5587 315.867 73.4817 316.144 73.4817C316.421 73.4817 316.693 73.5587 316.929 73.7042C317.228 73.9001 317.455 74.1892 317.574 74.5269C317.693 74.8646 317.697 75.232 317.586 75.5724C317.302 76.9325 316.988 78.5616 316.645 80.2504L317.407 80.3849C317.706 78.6662 317.975 77.067 318.199 75.677C318.324 75.2114 318.292 74.7178 318.108 74.2721C317.925 73.8265 317.599 73.4536 317.183 73.211C316.869 73.0374 316.512 72.9578 316.154 72.9816C315.796 73.0055 315.453 73.1318 315.165 73.3455C314.238 74.0928 314.387 74.8401 314.417 74.8401C314.613 74.3771 314.94 73.982 315.359 73.7042Z" fill="#3F00F9"/>
<path d="M312.832 84.3301C313.102 82.8355 313.356 81.5502 313.58 80.3695L312.997 80.2648C312.698 81.5502 312.369 83.0298 312.01 84.6589C312.266 84.5091 312.544 84.3983 312.832 84.3301Z" fill="#3F00F9"/>
<path d="M313.146 88.1259C312.957 88.0048 312.795 87.845 312.671 87.657C312.548 87.469 312.465 87.257 312.429 87.0349C312.395 86.5309 312.451 86.0249 312.593 85.5403L312.728 84.8528C312.536 84.9491 312.351 85.0589 312.175 85.1817C312.036 85.2854 311.91 85.4059 311.801 85.5403L311.666 86.1681C311.606 86.4841 311.606 86.8086 311.666 87.1246C311.713 87.4631 311.834 87.7871 312.02 88.0738C312.206 88.3605 312.453 88.6028 312.743 88.7836C313.066 88.947 313.421 89.0355 313.783 89.0425C314.145 89.0495 314.504 88.9748 314.833 88.8239C315.162 88.6731 315.453 88.4501 315.684 88.1714C315.914 87.8927 316.079 87.5655 316.166 87.2143C316.166 86.9303 316.271 86.6613 316.331 86.3773C316.391 86.0933 316.256 86.1681 316.211 86.0784C316.071 85.803 315.89 85.5509 315.673 85.3311L315.359 87.005C315.311 87.2385 315.211 87.4581 315.066 87.6475C314.921 87.8369 314.736 87.9912 314.523 88.099C314.311 88.2067 314.076 88.2651 313.838 88.2698C313.6 88.2744 313.363 88.2253 313.146 88.1259Z" fill="#3F00F9"/>
<path d="M313.027 80.2645L313.609 80.3691V80.0405C313.616 79.9411 313.616 79.8413 313.609 79.7418L313.042 79.6373C313.042 79.7269 313.042 79.8165 313.042 79.9061L313.027 80.2645Z" fill="#3F00F9"/>
<path d="M316.525 80.9219L317.287 81.0564C317.287 80.8323 317.287 80.6233 317.407 80.4142L316.645 80.2798C316.6 80.4888 316.57 80.6979 316.525 80.9219Z" fill="#3F00F9"/>
<path d="M311.801 85.5843C311.911 85.45 312.036 85.3296 312.175 85.2259C312.351 85.1033 312.535 84.9935 312.727 84.8974L312.832 84.3298C312.543 84.398 312.266 84.5087 312.01 84.6584L311.846 85.4051L311.801 85.5843Z" fill="#3F00F9"/>
<path d="M315.762 84.8677L315.658 85.3755C315.875 85.5951 316.056 85.847 316.196 86.1222C316.196 86.2118 316.27 86.3164 316.315 86.4209C316.315 86.1073 316.42 85.8235 316.479 85.5249C316.275 85.2704 316.034 85.0487 315.762 84.8677Z" fill="#3F00F9"/>
<path d="M324.089 86.4224C324.373 84.9278 324.627 83.6425 324.852 82.4618L324.254 82.3571C323.955 83.6574 323.626 85.137 323.267 86.7512C323.527 86.6085 323.803 86.498 324.089 86.4224Z" fill="#3F00F9"/>
<path d="M326.93 87.4833L326.661 88.9031C326.608 89.132 326.506 89.3464 326.361 89.5308C326.215 89.7152 326.031 89.8651 325.821 89.9695C325.61 90.0739 325.379 90.1303 325.145 90.1345C324.91 90.1388 324.677 90.0909 324.463 89.9942C324.27 89.8715 324.105 89.7097 323.979 89.5191C323.853 89.3286 323.768 89.1136 323.731 88.8882C323.698 88.3842 323.754 87.8785 323.895 87.3936L323.985 86.9453C323.796 87.0383 323.616 87.1483 323.447 87.2741C323.299 87.3788 323.168 87.5047 323.058 87.6477V88.0213C322.99 88.3366 322.99 88.6626 323.058 88.9779C323.132 89.5123 323.394 90.0029 323.796 90.362C324.199 90.7212 324.716 90.9253 325.256 90.9378C325.795 90.9504 326.322 90.7707 326.741 90.4307C327.16 90.0908 327.444 89.6129 327.543 89.0825C327.543 88.8733 327.618 88.679 327.662 88.4697C327.638 88.3645 327.598 88.2637 327.543 88.1708C327.373 87.9132 327.166 87.6816 326.93 87.4833Z" fill="#3F00F9"/>
<path d="M325.719 76.7528C325.136 78.3498 324.696 79.9952 324.403 81.6699L324.971 81.7745C325.355 80.1234 325.605 78.444 325.719 76.7528Z" fill="#3F00F9"/>
<path d="M326.661 75.5274C326.897 75.3819 327.169 75.3048 327.446 75.3048C327.723 75.3048 327.995 75.3819 328.231 75.5274C328.529 75.7246 328.756 76.0131 328.877 76.3497C328.999 76.6864 329.008 77.0533 328.903 77.3956L327.932 82.2529L328.694 82.3874C329.008 80.6089 329.277 78.9499 329.516 77.5151C329.639 77.0473 329.607 76.5522 329.423 76.1046C329.24 75.6569 328.916 75.2812 328.5 75.0341C328.184 74.8627 327.826 74.7856 327.469 74.8121C327.111 74.8386 326.768 74.9676 326.482 75.1836C325.555 75.9309 325.704 76.6782 325.734 76.6782C325.764 76.6782 325.824 76.0953 326.661 75.5274Z" fill="#3F00F9"/>
<path d="M327.737 87.6179C328.036 86.1233 328.305 84.554 328.559 83.1342L327.782 82.9847C327.543 84.2551 327.289 85.5853 327.02 86.9453C327.292 87.1316 327.534 87.3584 327.737 87.6179Z" fill="#3F00F9"/>
<path d="M324.254 82.3566L324.851 82.4611L324.956 81.8936V81.7741L324.388 81.6696V81.7741L324.254 82.3566Z" fill="#3F00F9"/>
<path d="M327.782 82.9993L328.559 83.1486C328.559 82.9097 328.633 82.6856 328.678 82.4467L327.916 82.3123L327.782 82.9993Z" fill="#3F00F9"/>
<path d="M327.453 88.2147C327.508 88.3075 327.548 88.4082 327.572 88.5134C327.572 88.2147 327.677 87.916 327.736 87.6173C327.532 87.3633 327.29 87.1417 327.02 86.9602L326.93 87.4829C327.138 87.7008 327.314 87.9472 327.453 88.2147Z" fill="#3F00F9"/>
<path d="M323.058 87.6915C323.168 87.5486 323.299 87.4228 323.446 87.3181C323.615 87.1925 323.795 87.0825 323.984 86.9896L324.089 86.4221C323.802 86.4977 323.527 86.608 323.267 86.7506L323.148 87.2733L323.058 87.6915Z" fill="#3F00F9"/>
<path d="M302.772 77.5152C303.155 75.818 303.41 74.0944 303.534 72.3589C302.951 73.994 302.501 75.6733 302.188 77.3807V77.6497L302.786 77.7543L302.772 77.5152Z" fill="#3F00F9"/>
<path d="M301.904 82.0286C302.158 80.6834 302.398 79.4579 302.607 78.3519L302.009 78.2323C301.725 79.4579 301.426 80.8478 301.082 82.3424C301.339 82.1978 301.616 82.0921 301.904 82.0286Z" fill="#3F00F9"/>
<path d="M302.278 85.6003C302.081 85.4863 301.913 85.3287 301.786 85.1396C301.659 84.9505 301.577 84.7349 301.546 84.5093C301.512 84.0053 301.567 83.4993 301.71 83.0147L301.8 82.5364C301.451 82.6857 301.14 82.9103 300.888 83.1941L300.798 83.6275C300.731 83.9478 300.731 84.2786 300.798 84.599C300.854 84.9366 300.979 85.2588 301.167 85.5446C301.355 85.8305 301.601 86.0735 301.89 86.2579C302.211 86.4214 302.566 86.51 302.927 86.517C303.288 86.524 303.646 86.4491 303.974 86.2982C304.302 86.1472 304.591 85.9239 304.821 85.6452C305.05 85.3665 305.213 85.0394 305.298 84.6886C305.298 84.5093 305.373 84.3449 305.403 84.1655C305.365 84.0366 305.315 83.9115 305.253 83.7919C305.121 83.5369 304.955 83.3007 304.76 83.0894C304.67 83.5527 304.58 84.0011 304.506 84.4794C304.458 84.7148 304.358 84.9364 304.212 85.1273C304.067 85.3183 303.879 85.4736 303.665 85.5816C303.45 85.6896 303.214 85.7474 302.974 85.7506C302.734 85.7539 302.496 85.7025 302.278 85.6003Z" fill="#3F00F9"/>
<path d="M304.476 71.1784C304.712 71.0329 304.984 70.9558 305.261 70.9558C305.538 70.9558 305.81 71.0329 306.046 71.1784C306.344 71.3797 306.57 71.671 306.691 72.0097C306.812 72.3484 306.821 72.7169 306.718 73.0615C306.404 74.5561 306.06 76.3346 305.672 78.2776L306.449 78.4121C306.778 76.4691 307.077 74.7056 307.331 73.1661C307.456 72.7005 307.424 72.2069 307.24 71.7612C307.056 71.3156 306.731 70.9428 306.315 70.7001C306.002 70.5228 305.644 70.4411 305.285 70.465C304.927 70.4889 304.583 70.6174 304.296 70.8346C303.37 71.5819 303.519 72.3292 303.549 72.3292C303.579 72.3292 303.639 71.7015 304.476 71.1784Z" fill="#3F00F9"/>
<path d="M305.552 83.284C305.836 81.7894 306.09 80.3696 306.329 79.0245L305.567 78.89C305.328 80.0856 305.089 81.3261 304.849 82.6115C305.116 82.7994 305.353 83.0261 305.552 83.284Z" fill="#3F00F9"/>
<path d="M305.552 78.8895L306.314 79.0239C306.314 78.8298 306.388 78.6207 306.433 78.4265L305.657 78.2921C305.627 78.5162 305.552 78.6954 305.552 78.8895Z" fill="#3F00F9"/>
<path d="M302.562 78.3515L302.681 77.7541L302.084 77.6495C302.084 77.8437 302.084 78.0378 301.964 78.232L302.562 78.3515Z" fill="#3F00F9"/>
<path d="M300.888 83.2381C301.14 82.9545 301.451 82.7301 301.799 82.581L301.904 82.0284C301.616 82.0918 301.339 82.1975 301.082 82.342L300.963 82.8796L300.888 83.2381Z" fill="#3F00F9"/>
<path d="M304.835 82.6112L304.73 83.1339C304.925 83.345 305.091 83.581 305.223 83.8358C305.284 83.9553 305.334 84.0803 305.372 84.2092C305.372 83.8955 305.477 83.5968 305.537 83.2832C305.337 83.0255 305.101 82.799 304.835 82.6112Z" fill="#3F00F9"/>
<path d="M291.515 75.2287C291.898 73.5316 292.153 71.8079 292.277 70.0724C291.686 71.7048 291.236 73.3849 290.932 75.0942L290.827 75.6024L291.41 75.707L291.515 75.2287Z" fill="#3F00F9"/>
<path d="M291.006 83.3138C290.818 83.1912 290.657 83.031 290.534 82.8433C290.41 82.6555 290.327 82.4442 290.289 82.2227C290.257 81.7188 290.313 81.2132 290.453 80.7281L290.543 80.2648C290.333 80.3599 290.133 80.475 289.945 80.6086C289.829 80.7017 289.724 80.8069 289.631 80.9224L289.526 81.3559C289.466 81.6769 289.466 82.0063 289.526 82.3274C289.602 82.8613 289.866 83.3508 290.27 83.7084C290.673 84.0659 291.191 84.2682 291.731 84.279C292.27 84.2898 292.796 84.1084 293.213 83.7672C293.631 83.4261 293.914 82.9475 294.011 82.417C294.011 82.2377 294.011 82.0733 294.116 81.8939C294.075 81.7611 294.025 81.6312 293.966 81.5053C293.829 81.2581 293.663 81.0274 293.473 80.8178L293.204 82.1928C293.155 82.4244 293.056 82.642 292.912 82.8299C292.768 83.0178 292.584 83.1711 292.373 83.2786C292.163 83.3861 291.93 83.4451 291.694 83.4512C291.457 83.4573 291.222 83.4103 291.006 83.3138Z" fill="#3F00F9"/>
<path d="M293.219 68.8769C293.455 68.7314 293.727 68.6544 294.004 68.6544C294.281 68.6544 294.553 68.7314 294.789 68.8769C295.087 69.0741 295.314 69.3626 295.436 69.6993C295.557 70.036 295.566 70.4028 295.461 70.7451C295.133 72.3294 294.759 74.1827 294.37 76.2153L295.133 76.3498C295.491 74.3172 295.805 72.4639 296.074 70.8647C296.199 70.3991 296.167 69.9054 295.983 69.4598C295.8 69.0142 295.474 68.6413 295.058 68.3986C294.745 68.2214 294.387 68.1397 294.029 68.1636C293.67 68.1875 293.326 68.316 293.04 68.5332C292.113 69.2805 292.262 70.0277 292.292 70.0277C292.485 69.5635 292.806 69.1641 293.219 68.8769Z" fill="#3F00F9"/>
<path d="M290.603 79.7271C290.842 78.4866 291.066 77.3059 291.261 76.2597L290.663 76.1401C290.394 77.3209 290.095 78.6361 289.781 80.0559C290.04 79.9132 290.317 79.8028 290.603 79.7271Z" fill="#3F00F9"/>
<path d="M294.28 80.9974C294.549 79.5776 294.788 78.2324 295.027 76.9471L294.25 76.7977C294.026 77.9335 293.802 79.0993 293.577 80.3099C293.848 80.4987 294.085 80.7311 294.28 80.9974Z" fill="#3F00F9"/>
<path d="M291.305 76.2591L291.409 75.7065L290.827 75.602L290.707 76.1396L291.305 76.2591Z" fill="#3F00F9"/>
<path d="M294.25 76.7972L295.027 76.9465L295.117 76.379L294.355 76.2446C294.325 76.4238 294.28 76.618 294.25 76.7972Z" fill="#3F00F9"/>
<path d="M289.631 80.9513C289.724 80.8359 289.829 80.7307 289.944 80.6377C290.132 80.5042 290.332 80.3892 290.542 80.2942L290.646 79.7267C290.36 79.8023 290.084 79.9126 289.825 80.0552L289.706 80.5929L289.631 80.9513Z" fill="#3F00F9"/>
<path d="M293.593 80.3097L293.488 80.8473C293.678 81.0568 293.843 81.2873 293.981 81.5343C294.04 81.6601 294.09 81.7899 294.13 81.9226C294.13 81.609 294.235 81.3103 294.295 80.9967C294.1 80.7305 293.863 80.4984 293.593 80.3097Z" fill="#3F00F9"/>
<path d="M280.243 72.9273C280.634 71.2361 280.894 69.5172 281.02 67.7859C280.426 69.4175 279.976 71.0978 279.675 72.8077L279.51 73.555L280.108 73.6746L280.243 72.9273Z" fill="#3F00F9"/>
<path d="M279.749 81.0272C279.561 80.9017 279.4 80.7388 279.276 80.5486C279.153 80.3584 279.07 80.1449 279.032 79.9213C278.992 79.4172 279.047 78.91 279.196 78.4267L279.286 77.9634C279.076 78.0584 278.876 78.1735 278.688 78.3071C278.568 78.3955 278.463 78.5013 278.374 78.621L278.269 79.0544C278.218 79.3712 278.218 79.6942 278.269 80.0109C278.361 80.5318 278.63 81.0048 279.031 81.3496C279.432 81.6944 279.94 81.8896 280.469 81.9019C280.998 81.9142 281.514 81.743 281.931 81.4173C282.348 81.0916 282.639 80.6316 282.754 80.1156L282.844 79.5925C282.815 79.458 282.77 79.3275 282.709 79.2039C282.576 78.9542 282.41 78.7231 282.216 78.5164L281.947 79.8914C281.9 80.1242 281.802 80.3435 281.659 80.5332C281.516 80.7228 281.332 80.8779 281.121 80.987C280.91 81.096 280.677 81.1563 280.44 81.1632C280.202 81.1702 279.966 81.1237 279.749 81.0272Z" fill="#3F00F9"/>
<path d="M283.023 78.7108C283.278 77.3657 283.517 76.0804 283.726 74.8548L282.949 74.7054C282.739 75.7814 282.53 76.8874 282.306 78.0233C282.584 78.208 282.827 78.4409 283.023 78.7108Z" fill="#3F00F9"/>
<path d="M281.962 66.5604C282.189 66.4292 282.447 66.3602 282.709 66.3602C282.972 66.3602 283.229 66.4292 283.457 66.5604C283.755 66.758 283.98 67.0473 284.099 67.3844C284.217 67.7215 284.223 68.0881 284.115 68.4286C283.771 70.0727 283.382 72.0156 282.978 74.1379L283.741 74.2724C284.115 72.1501 284.458 70.2072 284.727 68.5482C284.851 68.0804 284.818 67.5852 284.634 67.1376C284.451 66.69 284.127 66.3142 283.711 66.0672C283.396 65.8957 283.038 65.8187 282.68 65.8452C282.322 65.8717 281.979 66.0006 281.693 66.2167C280.766 66.9639 280.915 67.7112 280.945 67.7112C281.162 67.2351 281.516 66.8344 281.962 66.5604Z" fill="#3F00F9"/>
<path d="M279.391 77.4405L280.019 74.1674L279.391 74.0478C279.152 75.1688 278.868 76.4242 278.569 77.7544C278.828 77.6159 279.105 77.5104 279.391 77.4405Z" fill="#3F00F9"/>
<path d="M280.018 74.1669L280.107 73.674L279.51 73.5546L279.391 74.0474L280.018 74.1669Z" fill="#3F00F9"/>
<path d="M282.949 74.705L283.725 74.8544L283.815 74.3317L283.053 74.1973L282.949 74.705Z" fill="#3F00F9"/>
<path d="M282.306 78.0232L282.216 78.5608C282.41 78.7674 282.575 78.9984 282.709 79.2478C282.769 79.3714 282.814 79.5017 282.843 79.6361L283.022 78.7102C282.826 78.4404 282.584 78.2078 282.306 78.0232Z" fill="#3F00F9"/>
<path d="M278.374 78.6649C278.462 78.5453 278.568 78.4396 278.688 78.3513C278.875 78.2178 279.075 78.1027 279.285 78.0078L279.39 77.4402C279.104 77.5101 278.828 77.6155 278.568 77.7539L278.449 78.3065L278.374 78.6649Z" fill="#3F00F9"/>
<path d="M270.69 64.3038C270.926 64.1583 271.198 64.0813 271.475 64.0813C271.752 64.0813 272.024 64.1583 272.26 64.3038C272.558 64.501 272.785 64.7895 272.906 65.1262C273.028 65.4629 273.037 65.8298 272.932 66.172C272.574 67.8759 272.17 69.9085 271.736 72.1503L272.514 72.2998C272.902 70.0729 273.261 68.0403 273.545 66.3215C273.679 65.8539 273.651 65.355 273.467 64.905C273.282 64.455 272.952 64.08 272.529 63.8405C272.215 63.6653 271.856 63.5861 271.497 63.6127C271.139 63.6393 270.795 63.7704 270.511 63.99C269.599 64.7223 269.748 65.4845 269.763 65.4845C269.778 65.4845 269.868 64.8269 270.69 64.3038Z" fill="#3F00F9"/>
<path d="M268.986 70.6406C269.387 68.9519 269.642 67.2317 269.748 65.4993C269.173 67.1355 268.728 68.8147 268.418 70.521L268.193 71.5075L268.806 71.627C268.866 71.2384 268.926 70.9096 268.986 70.6406Z" fill="#3F00F9"/>
<path d="M271.766 76.4242C272.006 75.1538 272.23 73.9282 272.439 72.7625L271.647 72.613C271.452 73.6293 271.258 74.6606 271.049 75.7367C271.324 75.9253 271.566 76.1575 271.766 76.4242Z" fill="#3F00F9"/>
<path d="M268.179 75.1538L268.762 72.075L268.134 71.9554C267.895 73.0315 267.64 74.2122 267.356 75.4677C267.615 75.3269 267.892 75.2213 268.179 75.1538Z" fill="#3F00F9"/>
<path d="M268.493 78.7257C268.303 78.6046 268.141 78.4448 268.017 78.2568C267.894 78.0688 267.811 77.8568 267.775 77.6347C267.727 77.1305 267.783 76.6218 267.939 76.1401L268.029 75.6768C267.818 75.7685 267.617 75.8838 267.431 76.0206C267.311 76.1134 267.201 76.2186 267.102 76.3344L267.013 76.7679C266.961 77.0846 266.961 77.4076 267.013 77.7244C267.104 78.2452 267.373 78.7183 267.774 79.0631C268.175 79.4078 268.683 79.603 269.212 79.6153C269.741 79.6277 270.258 79.4564 270.674 79.1307C271.091 78.805 271.382 78.345 271.497 77.829L271.587 77.3059C271.558 77.1714 271.513 77.0409 271.453 76.9173C271.315 76.6616 271.144 76.4254 270.944 76.2149C270.87 76.6782 270.78 77.1415 270.69 77.6048C270.642 77.8363 270.542 78.054 270.398 78.2419C270.254 78.4298 270.07 78.5831 269.86 78.6906C269.649 78.7981 269.417 78.8571 269.18 78.8632C268.944 78.8692 268.709 78.8223 268.493 78.7257Z" fill="#3F00F9"/>
<path d="M271.647 72.6127L272.438 72.762C272.43 72.6078 272.43 72.4533 272.438 72.2991L271.662 72.1497L271.647 72.6127Z" fill="#3F00F9"/>
<path d="M268.716 72.0747L268.806 71.6266L268.193 71.5071L268.089 71.9552L268.716 72.0747Z" fill="#3F00F9"/>
<path d="M267.102 76.3784C267.2 76.2626 267.31 76.1575 267.431 76.0648C267.616 75.9281 267.817 75.8129 268.028 75.7213L268.133 75.1537C267.846 75.2212 267.57 75.3267 267.311 75.4674L267.192 76.005L267.102 76.3784Z" fill="#3F00F9"/>
<path d="M271.049 75.7366L270.944 76.2593C271.144 76.4698 271.314 76.7058 271.452 76.9613C271.512 77.0848 271.557 77.2152 271.586 77.3496L271.765 76.4236C271.565 76.1572 271.323 75.9251 271.049 75.7366Z" fill="#3F00F9"/>
<path d="M260.106 62.9737C260.333 62.8426 260.591 62.7735 260.853 62.7735C261.116 62.7735 261.373 62.8426 261.601 62.9737C261.899 63.171 262.126 63.4594 262.248 63.7961C262.369 64.1328 262.378 64.4997 262.273 64.842C261.945 66.3365 261.586 68.2347 261.197 70.2374L261.96 70.3868C262.318 68.3691 262.632 66.5458 262.886 64.9466C263.011 64.481 262.979 63.9873 262.795 63.5417C262.612 63.096 262.286 62.7232 261.87 62.4805C261.557 62.3033 261.199 62.2215 260.841 62.2454C260.482 62.2693 260.138 62.3978 259.852 62.615C258.925 63.3623 259.074 64.1096 259.104 64.1096C259.134 64.1096 259.209 63.5716 260.106 62.9737Z" fill="#3F00F9"/>
<path d="M258.402 69.3105C258.785 67.6134 259.04 65.8897 259.164 64.1543C258.581 65.7893 258.131 67.4687 257.819 69.176L257.714 69.6394L258.312 69.744L258.402 69.3105Z" fill="#3F00F9"/>
<path d="M257.908 77.3957C257.711 77.2816 257.543 77.124 257.416 76.9349C257.289 76.7458 257.207 76.5303 257.176 76.3046C257.142 75.8006 257.197 75.2946 257.34 74.81L257.415 74.4364C257.208 74.5286 257.013 74.6439 256.832 74.7801C256.703 74.8793 256.587 74.9948 256.488 75.1239V75.4228C256.421 75.7431 256.421 76.074 256.488 76.3943C256.564 76.9282 256.827 77.4178 257.231 77.7753C257.635 78.1329 258.153 78.3351 258.692 78.3459C259.232 78.3567 259.757 78.1753 260.175 77.8342C260.593 77.493 260.876 77.0144 260.973 76.484L261.063 76.0356C261.027 75.9128 260.982 75.7929 260.928 75.6769C260.79 75.4167 260.62 75.1756 260.42 74.9595C260.33 75.3929 260.255 75.8263 260.166 76.2747C260.122 76.5158 260.023 76.7433 259.876 76.9392C259.729 77.1351 259.538 77.2938 259.319 77.4028C259.099 77.5117 258.858 77.5678 258.613 77.5666C258.368 77.5653 258.127 77.5068 257.908 77.3957Z" fill="#3F00F9"/>
<path d="M261.152 75.1539C261.436 73.6594 261.705 72.1648 261.945 70.8047L261.182 70.6553C260.943 71.8808 260.689 73.1662 260.45 74.4814C260.716 74.6693 260.953 74.896 261.152 75.1539Z" fill="#3F00F9"/>
<path d="M257.519 73.9135C257.789 72.5385 258.028 71.2532 258.237 70.1173L257.639 69.9977L256.697 74.2423C256.957 74.0996 257.233 73.9892 257.519 73.9135Z" fill="#3F00F9"/>
<path d="M261.182 70.655L261.944 70.8043C261.976 70.6764 262.001 70.5468 262.018 70.416L261.257 70.2667L261.182 70.655Z" fill="#3F00F9"/>
<path d="M258.237 70.1169V69.7436L257.639 69.639L257.564 69.9974L258.237 70.1169Z" fill="#3F00F9"/>
<path d="M256.488 75.1678C256.587 75.0388 256.703 74.9233 256.832 74.8243C257.012 74.6881 257.207 74.5729 257.414 74.4808L257.519 73.9133C257.232 73.9889 256.957 74.0992 256.697 74.2418L256.593 74.6749L256.488 75.1678Z" fill="#3F00F9"/>
<path d="M260.449 74.4812L260.345 75.0039C260.544 75.2198 260.715 75.4608 260.852 75.7207C260.906 75.8367 260.951 75.9565 260.987 76.0792C260.987 75.7655 261.091 75.4668 261.151 75.1532C260.952 74.8955 260.715 74.669 260.449 74.4812Z" fill="#3F00F9"/>
<path d="M247.249 67.2034C247.65 65.5147 247.905 63.7946 248.011 62.0621C247.436 63.6983 246.991 65.3775 246.681 67.0838L246.546 67.6667L247.144 67.7713L247.249 67.2034Z" fill="#3F00F9"/>
<path d="M246.367 71.7764C246.621 70.4163 246.86 69.1608 247.085 68.0399L246.472 67.9203C246.382 68.3239 246.292 68.7573 246.188 69.1907L246.367 71.7764Z" fill="#3F00F9"/>
<path d="M250.089 72.8375C250.344 71.3429 250.598 70.0128 250.837 68.7125L250.06 68.578L249.357 72.2247C249.632 72.3884 249.88 72.5953 250.089 72.8375Z" fill="#3F00F9"/>
<path d="M249.268 72.7027C249.178 73.1959 249.073 73.7041 248.983 74.1973C248.931 74.4261 248.829 74.6405 248.683 74.8249C248.538 75.0094 248.354 75.1592 248.143 75.2636C247.933 75.368 247.702 75.4244 247.467 75.4287C247.233 75.4329 247 75.385 246.786 75.2883C246.69 75.2152 246.605 75.1298 246.532 75.0342C246.532 75.3929 246.532 75.7367 246.532 76.0804C246.85 76.2004 247.19 76.252 247.529 76.232C247.868 76.212 248.2 76.1207 248.501 75.9643C248.803 75.8078 249.069 75.5895 249.28 75.3237C249.492 75.0579 249.646 74.7505 249.731 74.4214L249.865 73.6443C249.872 73.5997 249.872 73.5544 249.865 73.5098C249.708 73.2123 249.506 72.9403 249.268 72.7027Z" fill="#3F00F9"/>
<path d="M248.983 60.8665C249.211 60.7353 249.469 60.6662 249.731 60.6662C249.993 60.6662 250.251 60.7353 250.478 60.8665C250.777 61.0637 251.004 61.3522 251.125 61.6889C251.246 62.0255 251.256 62.3924 251.151 62.7347C250.807 64.3339 250.434 66.217 250.045 68.2646L250.807 68.3991C251.166 66.3515 251.495 64.4684 251.764 62.8543C251.89 62.3865 251.858 61.8904 251.675 61.4422C251.491 60.994 251.165 60.6185 250.748 60.3733C250.432 60.2018 250.074 60.1247 249.716 60.1512C249.359 60.1777 249.016 60.3067 248.729 60.5227C247.817 61.27 247.967 62.0173 247.982 62.0173C247.997 62.0173 248.146 61.4045 248.983 60.8665Z" fill="#3F00F9"/>
<path d="M246.367 75.9908L246.591 76.0955C246.591 75.7517 246.591 75.408 246.591 75.0493C246.346 74.8247 246.183 74.5249 246.128 74.1974C246.08 73.6932 246.136 73.1844 246.292 72.7028L246.367 72.3142L245.919 72.5832L245.739 72.7626L245.754 75.5275C245.93 75.7165 246.137 75.8733 246.367 75.9908Z" fill="#3F00F9"/>
<path d="M246.367 71.7763L246.233 69.1757C246.053 70.0276 245.844 70.9393 245.635 71.8959V72.0901C245.867 71.9596 246.113 71.8544 246.367 71.7763Z" fill="#3F00F9"/>
<path d="M250.06 68.5779L250.836 68.7123V68.4285L250.075 68.2941L250.06 68.5779Z" fill="#3F00F9"/>
<path d="M247.129 68.0546V67.8007L246.532 67.6962V67.9351L247.129 68.0546Z" fill="#3F00F9"/>
<path d="M249.88 73.5238C249.886 73.5684 249.886 73.6136 249.88 73.6582C249.88 73.3744 249.984 73.1056 250.044 72.8368C249.834 72.5948 249.587 72.388 249.312 72.2245L249.222 72.7024C249.483 72.94 249.705 73.2172 249.88 73.5238Z" fill="#3F00F9"/>
<path d="M246.307 72.3585L246.381 71.9404V71.7761C246.127 71.8541 245.882 71.9593 245.65 72.0897V72.3884V72.8066L245.829 72.6273L246.307 72.3585Z" fill="#3F00F9"/>
<path d="M97.919 155.198L43.8468 157.889C41.3801 157.889 39.7955 159.697 39.9599 160.997C40.2425 161.792 40.8052 162.457 41.5427 162.867C42.2802 163.277 43.1419 163.404 43.9664 163.224L97.4705 161.117C97.4705 159.622 97.5901 158.202 97.7247 156.753C97.7546 156.23 97.8592 155.721 97.919 155.198Z" fill="#D68CFA"/>
<path d="M101.432 140.089L43.8317 142.779C41.3651 142.779 39.7954 144.588 39.9449 145.888C40.2159 146.69 40.7722 147.365 41.5081 147.784C42.244 148.202 43.1082 148.336 43.9364 148.16L99.5783 146.097C99.5783 145.933 99.653 145.784 99.6829 145.619C100.206 143.751 100.744 141.898 101.432 140.089Z" fill="#D68CFA"/>
<path d="M44.4152 172.012C41.9485 172.012 40.3638 173.82 40.5283 175.12C40.8022 175.919 41.3604 176.588 42.0966 177.002C42.8327 177.415 43.6952 177.544 44.5198 177.362L98.5621 175.344C98.2033 173.416 97.9342 171.459 97.7399 169.486L44.4152 172.012Z" fill="#D68CFA"/>
<path d="M180.291 255.658L107.517 259.349C103.839 259.14 101.402 260.844 101.343 262.339C101.343 263.474 102.703 264.685 104.467 265.328L182.698 261.89C183.589 261.677 184.372 261.147 184.9 260.399C185.428 259.651 185.666 258.736 185.568 257.825C185.384 257.32 185.098 256.86 184.726 256.472C184.354 256.085 183.905 255.779 183.408 255.575C182.912 255.371 182.378 255.273 181.841 255.287C181.304 255.302 180.776 255.428 180.291 255.658Z" fill="#D68CFA"/>
<path d="M103.316 248.38C129.402 247.23 193.012 243.538 219.084 242.402C219.973 242.184 220.754 241.653 221.284 240.906C221.814 240.16 222.057 239.248 221.97 238.337C221.796 237.822 221.515 237.35 221.146 236.952C220.777 236.553 220.328 236.237 219.829 236.024C219.329 235.811 218.79 235.706 218.247 235.716C217.704 235.725 217.169 235.849 216.677 236.08C192.429 237.321 130.628 241.102 106.38 242.342C102.688 242.118 100.251 243.837 100.206 245.331C100.161 246.467 101.552 247.663 103.316 248.38Z" fill="#D68CFA"/>
<path d="M114.677 208.94L114.109 208.268L104.841 208.761C101.163 208.537 98.7262 210.255 98.6814 211.75C98.6814 212.886 100.027 214.082 101.791 214.739C106.545 214.53 112.569 214.231 119.357 213.887C117.715 212.318 116.153 210.667 114.677 208.94Z" fill="#D68CFA"/>
<path d="M98.1731 194.444C98.1731 195.58 99.5186 196.79 101.283 197.508L106.545 197.269C105.483 195.385 104.512 193.442 103.63 191.47C100.356 191.499 98.2179 193.084 98.1731 194.444Z" fill="#D68CFA"/>
<path fill-rule="evenodd" clip-rule="evenodd" d="M124.634 107.823L122.66 109.527C119.951 111.798 117.404 114.255 115.036 116.88L113.003 119.376L110.192 49.5232L141.108 47.8046L142.977 97.3767C141.93 97.7802 140.869 98.2136 139.837 98.6769L135.352 100.844L130.987 103.429L129.881 104.087L128.834 104.834L126.741 106.329L124.634 107.823ZM107.591 120.676L105.678 74.1224L74.7622 75.8411L76.8551 122.589L107.591 120.676ZM70.7556 122.962L69.6045 90.1583L38.689 91.8769L40.0344 124.875L70.7556 122.962Z" fill="url(#paint0_radial_2679_1840)"/>
<path d="M212.088 144.677L219.892 144.139C219.369 142.809 218.756 141.404 218.053 139.955C216.984 137.734 215.775 135.582 214.435 133.513L212.94 131.346L121.524 135.681C120.587 137.673 119.646 139.75 118.699 141.913C117.578 144.528 116.486 147.173 116.113 148.249L212.088 144.677Z" fill="#D68CFA"/>
<path d="M213.598 178.079L221.432 177.93C221.013 179.319 220.535 180.769 219.937 182.279C219.079 184.58 218.081 186.826 216.947 189.004L215.706 191.275L124.245 194.832C123.139 192.919 122.018 190.932 120.912 188.854C119.551 186.344 118.236 183.803 117.787 182.757L213.598 178.079Z" fill="#D68CFA"/>
<path d="M205.301 203.739C197.866 210.464 188.739 215.037 178.9 216.966L162.351 217.533C152.855 216.291 143.821 212.695 136.07 207.072L205.301 203.739Z" fill="#D68CFA"/>
<path d="M223.42 167.423C223.509 165.929 223.569 164.434 223.554 162.94C223.536 160.512 223.376 158.086 223.076 155.677L114.199 159.981C114.069 161.856 114.039 163.737 114.109 165.615C114.184 167.763 114.394 169.904 114.737 172.026L223.42 167.423Z" fill="#D68CFA"/>
<path d="M146.101 113.966C145.309 114.324 144.322 114.803 143.201 115.46C142.723 115.729 141.048 116.641 139.075 117.971C136.694 119.6 134.449 121.419 132.363 123.411L146.385 122.993C146.295 119.944 146.191 116.955 146.101 113.966Z" fill="#9542F2"/>
<path d="M225.991 204.531L225.603 204.173C222.61 208.281 219.192 212.064 215.407 215.457L215.856 215.83C219.623 212.432 223.02 208.644 225.991 204.531Z" fill="#3F00F9"/>
<path d="M239.251 162.895C239.251 163.627 239.251 164.389 239.251 165.361C239.251 166.332 239.087 167.259 238.997 168.35C238.846 170.822 238.511 173.28 237.996 175.703L237.099 180.037C236.635 181.531 236.142 183.026 235.604 184.685C235.334 185.492 235.11 186.329 234.796 187.15C234.482 187.972 234.094 188.794 233.72 189.646L232.614 192.232C232.419 192.68 232.24 193.128 232.031 193.562L231.313 194.847C229.711 197.969 227.877 200.967 225.827 203.814L226.23 204.143C228.284 201.266 230.118 198.239 231.717 195.086L232.434 193.771C232.644 193.338 232.823 192.889 233.017 192.441L234.124 189.826L235.185 187.315C235.499 186.478 235.723 185.641 235.992 184.819C236.486 183.19 236.964 181.621 237.487 180.126L238.339 175.777C238.829 173.337 239.143 170.865 239.281 168.38C239.281 167.304 239.505 166.302 239.49 165.391C239.475 164.479 239.49 163.657 239.49 162.925C239.49 161.45 239.461 160.329 239.401 159.562C239.401 158.8 239.401 158.426 239.401 158.426C239.401 158.426 239.401 158.815 239.401 159.562C239.401 160.309 239.251 161.415 239.251 162.895Z" fill="#3F00F9"/>
<path d="M104.527 191.455C102.178 186.299 100.456 180.88 99.399 175.314H98.5618C99.603 180.872 101.304 186.285 103.63 191.44C103.869 191.44 104.093 191.44 104.332 191.44L104.527 191.455Z" fill="#3F00F9"/>
<path d="M109.311 125.936C110.342 124.442 111.254 122.947 112.301 121.528L113.048 120.601V119.376L111.703 121.049C110.582 122.454 109.655 124.038 108.608 125.533C105.682 130.121 103.271 135.018 101.417 140.134H102.314C104.121 135.16 106.467 130.399 109.311 125.936Z" fill="#3F00F9"/>
<path d="M98.4571 168.186C98.273 165.839 98.223 163.484 98.3076 161.132H97.4704C97.3933 163.494 97.4432 165.859 97.6199 168.216C97.6199 168.649 97.7096 169.068 97.7395 169.501H98.5767C98.5318 169.008 98.487 168.575 98.4571 168.186Z" fill="#3F00F9"/>
<path d="M107.457 197.223H106.545C108.733 201.109 111.264 204.79 114.109 208.224H115.126C112.238 204.799 109.671 201.117 107.457 197.223Z" fill="#3F00F9"/>
<path d="M176.733 93.7151C178.228 93.9243 179.648 94.0588 181.053 94.298L185.239 95.2544L187.302 95.7177L189.275 96.3753L193.192 97.6755C194.478 98.1388 195.689 98.7515 196.914 99.2597C198.138 99.7571 199.335 100.316 200.502 100.933L203.881 102.817L205.555 103.743L207.05 104.804C214.565 109.742 221.099 116.031 226.32 123.351C228.453 126.361 230.371 129.517 232.061 132.796C233.408 135.585 234.581 138.455 235.574 141.389C236.007 142.719 236.456 143.96 236.815 145.155C237.173 146.351 237.353 147.487 237.592 148.533C237.831 149.579 238.055 150.565 238.265 151.522C238.474 152.478 238.489 153.241 238.579 153.973C238.773 155.467 238.923 156.543 239.027 157.291C239.132 158.038 239.207 158.426 239.207 158.426C239.207 158.426 239.207 158.038 239.117 157.276C239.027 156.513 238.908 155.408 238.743 153.943C238.668 153.211 238.564 152.448 238.459 151.477C238.354 150.506 238.055 149.624 237.831 148.488C237.607 147.352 237.353 146.291 237.084 145.081C236.815 143.87 236.306 142.63 235.888 141.285C234.911 138.325 233.747 135.43 232.405 132.617C230.738 129.305 228.835 126.119 226.709 123.082C221.482 115.666 214.923 109.286 207.364 104.266L205.869 103.19L204.195 102.249L200.786 100.336C199.65 99.6632 198.38 99.2298 197.169 98.6469C195.958 98.0641 194.717 97.4962 193.431 97.0329L189.485 95.7028L187.481 95.0452L185.403 94.567L181.188 93.5806C179.693 93.3415 178.287 93.192 176.822 92.9828C165.378 91.58 153.764 93.0596 143.037 97.2869V98.094C153.724 93.8327 165.311 92.3268 176.733 93.7151Z" fill="#3F00F9"/>
<path d="M99.2495 151.268C99.6531 149.52 100.042 147.786 100.43 146.067H99.5784C99.1897 147.726 98.7861 149.4 98.4422 151.089L97.9041 155.169H98.7562L99.2495 151.268Z" fill="#3F00F9"/>
<path d="M214.854 216.009C206.641 223.206 196.881 228.417 186.33 231.238C183.457 232.038 180.529 232.627 177.57 233.001C176.061 233.242 174.538 233.377 173.01 233.405C171.515 233.405 169.93 233.599 168.376 233.629C161.943 233.589 155.547 232.649 149.375 230.835C138.519 227.613 128.601 221.819 120.463 213.947H119.356C127.696 222.163 137.935 228.194 149.166 231.507C155.406 233.336 161.873 234.277 168.376 234.302C169.945 234.302 171.515 234.137 173.055 234.063C174.598 234.037 176.137 233.897 177.659 233.644C180.649 233.26 183.606 232.66 186.509 231.851C197.146 228.971 206.977 223.683 215.242 216.398L215.467 216.189L215.048 215.77L214.854 216.009Z" fill="#3F00F9"/>
<path d="M98.5468 156.827L98.7711 155.168H97.9189C97.9189 155.692 97.7844 156.2 97.7246 156.663C97.5901 158.158 97.5153 159.563 97.4705 161.027H98.3076C98.3525 159.652 98.4123 158.232 98.5468 156.827Z" fill="#3F00F9"/>
<path d="M100.506 145.769C101.029 143.811 101.642 141.883 102.33 139.985H101.433C100.79 141.793 100.207 143.646 99.6984 145.515C99.6984 145.679 99.6236 145.828 99.5938 145.993H100.446L100.506 145.769Z" fill="#3F00F9"/>
<path d="M98.5767 169.441H97.7395C97.9338 171.414 98.2029 173.372 98.5617 175.3H99.3989C99.0401 173.372 98.771 171.414 98.5767 169.441Z" fill="#3F00F9"/>
<path d="M115.29 208.417L115.126 208.208H114.109L114.677 208.88C116.152 210.627 117.713 212.298 119.357 213.887H120.463C118.644 212.156 116.918 210.33 115.29 208.417Z" fill="#3F00F9"/>
<path d="M104.527 191.455H104.333C104.093 191.455 103.869 191.455 103.63 191.455C104.512 193.428 105.484 195.37 106.545 197.254H107.457C106.396 195.356 105.424 193.428 104.527 191.455Z" fill="#3F00F9"/>
<path d="M115.694 117.373C118.017 114.774 120.514 112.338 123.169 110.08L125.112 108.391L127.19 106.897L129.268 105.402L130.3 104.655L131.391 104.012L135.711 101.427L140.196 99.2896C141.138 98.8562 142.095 98.4676 143.052 98.094V97.287C142.005 97.6905 140.944 98.1239 139.912 98.5872L135.427 100.754L131.062 103.34L129.956 103.997L128.909 104.744L126.816 106.239L124.709 107.733L122.735 109.437C120.047 111.711 117.519 114.167 115.171 116.79L113.138 119.286V120.511L115.694 117.373Z" fill="#3F00F9"/>
<path d="M205.809 202.993H206.676C210.208 199.623 213.274 195.798 215.796 191.619H215.227C212.612 195.815 209.444 199.64 205.809 202.993Z" fill="#3F00F9"/>
<path d="M125.082 131.436C126.72 129.232 128.503 127.14 130.419 125.174C132.352 123.293 134.41 121.546 136.579 119.943L137.625 119.151L136.13 119.241C131.631 122.468 127.688 126.405 124.455 130.898C122.527 133.519 120.817 136.293 119.342 139.192H120.284C121.691 136.493 123.295 133.9 125.082 131.436Z" fill="#3F00F9"/>
<path d="M136.623 206.878C134.461 205.273 132.404 203.53 130.464 201.662C128.879 199.914 127.235 198.195 125.785 196.297H124.813C126.395 198.354 128.092 200.32 129.896 202.185C131.689 203.887 133.57 205.493 135.532 206.998H136.773L136.623 206.878Z" fill="#3F00F9"/>
<path d="M117.309 180.515C116.681 178.606 116.152 176.665 115.724 174.701H114.872C115.311 176.747 115.86 178.768 116.517 180.754C117.642 184.169 119.146 187.448 121.001 190.528H121.928C120 187.383 118.45 184.022 117.309 180.515Z" fill="#3F00F9"/>
<path d="M114.438 163.433C114.438 162.432 114.528 161.43 114.588 160.444H113.721C113.721 161.43 113.616 162.417 113.601 163.433C113.601 165.212 113.736 166.975 113.93 168.724H114.752C114.573 166.945 114.453 165.197 114.438 163.433Z" fill="#3F00F9"/>
<path d="M117.264 146.336L117.578 145.425H116.696C116.696 145.634 116.546 145.828 116.486 146.037C115.587 148.755 114.897 151.539 114.423 154.362H115.29C115.748 151.641 116.407 148.959 117.264 146.336Z" fill="#3F00F9"/>
<path d="M178.87 216.637C176.604 217.059 174.311 217.329 172.008 217.444C170.842 217.444 169.661 217.579 168.465 217.594L164.878 217.399L163.069 217.295L161.26 217.011C160.049 216.802 158.823 216.637 157.612 216.413C155.157 215.851 152.74 215.133 150.377 214.261L148.583 213.603L147.686 213.259L146.819 212.841L146.191 212.542L144.576 212.617L146.49 213.543L147.372 213.977L148.299 214.306L150.122 214.978C152.513 215.862 154.961 216.586 157.448 217.145C158.688 217.37 159.929 217.534 161.155 217.743L162.994 218.027L164.833 218.132L168.465 218.326C169.676 218.326 170.872 218.207 172.053 218.162C174.386 218.029 176.708 217.75 179.005 217.325C185.725 216.012 192.139 213.452 197.916 209.777H196.66C191.19 213.112 185.164 215.436 178.87 216.637Z" fill="#3F00F9"/>
<path d="M150.287 112.531C152.642 111.65 155.055 110.931 157.508 110.379C158.719 110.125 159.944 109.975 161.155 109.766L162.964 109.482C163.562 109.407 164.175 109.407 164.773 109.362L168.361 109.153C169.557 109.153 170.738 109.258 171.904 109.303C174.206 109.413 176.499 109.678 178.766 110.095C186.33 111.554 193.506 114.578 199.834 118.971C206.162 123.364 211.502 129.03 215.512 135.606C218.286 140.077 220.363 144.945 221.671 150.042C221.969 151.025 222.213 152.023 222.403 153.031C222.553 153.988 222.702 154.87 222.837 155.692C222.971 156.514 223.121 157.276 223.196 157.963L223.315 159.876C223.39 161.012 223.45 161.879 223.495 162.462C223.539 163.044 223.584 163.343 223.584 163.343C223.584 163.343 223.584 163.044 223.584 162.462C223.584 161.879 223.584 160.967 223.48 159.861C223.48 159.293 223.48 158.651 223.405 157.948C223.33 157.246 223.196 156.454 223.076 155.662C222.956 154.87 222.822 153.928 222.687 152.987C222.553 152.045 222.224 151.044 221.985 149.998C220.717 144.812 218.649 139.856 215.855 135.307C211.313 127.557 204.919 121.054 197.246 116.381C189.573 111.707 180.861 109.008 171.889 108.526C170.693 108.526 169.497 108.376 168.301 108.376L164.654 108.57C164.056 108.57 163.428 108.57 162.815 108.69L160.991 108.974C159.765 109.168 158.524 109.318 157.283 109.572C154.798 110.138 152.352 110.862 149.958 111.739C147.781 112.505 145.662 113.429 143.62 114.504V115.355C145.772 114.257 148 113.313 150.287 112.531Z" fill="#3F00F9"/>
<path d="M223.33 166.796C223.33 167.363 223.255 168.006 223.211 168.709C223.166 169.411 222.986 170.203 222.852 170.98C222.606 172.884 222.221 174.767 221.701 176.614C220.951 179.707 219.878 182.712 218.501 185.581C218.622 185.652 218.737 185.732 218.845 185.82C220.219 182.906 221.281 179.856 222.015 176.719C222.511 174.854 222.876 172.956 223.106 171.04C223.211 170.218 223.345 169.456 223.42 168.753C223.495 168.051 223.42 167.408 223.495 166.84C223.495 165.69 223.569 164.823 223.584 164.24C223.599 163.657 223.584 163.343 223.584 163.343C223.584 163.343 223.584 163.657 223.495 164.24C223.405 164.823 223.405 165.66 223.33 166.796Z" fill="#3F00F9"/>
<path d="M115.29 154.347H114.423C114.083 156.361 113.849 158.391 113.721 160.429H114.588C114.709 158.39 114.944 156.36 115.29 154.347Z" fill="#3F00F9"/>
<path d="M120.254 139.207H119.312C118.285 141.206 117.41 143.279 116.696 145.41H117.578C118.32 143.281 119.214 141.208 120.254 139.207Z" fill="#3F00F9"/>
<path d="M114.752 168.679H113.93C114.139 170.687 114.453 172.682 114.872 174.657H115.724C115.295 172.683 114.971 170.687 114.752 168.679Z" fill="#3F00F9"/>
<path d="M201.698 206.43C200.074 207.659 198.382 208.797 196.63 209.837H197.886C199.381 208.911 200.741 207.954 202.057 206.968C203.665 205.73 205.207 204.408 206.676 203.007H205.809C204.524 204.173 203.163 205.324 201.698 206.43Z" fill="#3F00F9"/>
<path d="M143.32 211.137C142.169 210.524 141.063 209.792 139.942 209.12C139.374 208.776 138.791 208.462 138.252 208.073L136.757 206.982H135.517C135.726 207.147 135.92 207.311 136.144 207.461L137.759 208.656C138.312 209.06 138.91 209.374 139.463 209.732C140.614 210.405 141.736 211.227 142.902 211.765L144.531 212.557L146.146 212.482L143.32 211.137Z" fill="#3F00F9"/>
<path d="M125.157 195.4C124.006 193.906 122.914 192.202 121.898 190.498H120.971C122.055 192.336 123.232 194.117 124.499 195.834L124.843 196.282H125.815L125.157 195.4Z" fill="#3F00F9"/>
<path d="M215.571 191.051L215.228 191.605H215.796L215.975 191.321C217.024 189.537 217.982 187.701 218.845 185.82C218.737 185.732 218.622 185.652 218.501 185.581C217.664 187.33 216.693 189.109 215.571 191.051Z" fill="#3F00F9"/>
<path d="M139.419 117.014C138.287 117.681 137.203 118.425 136.175 119.241L137.67 119.152C138.378 118.612 139.117 118.113 139.882 117.657C141.018 116.984 142.125 116.252 143.261 115.624L143.769 115.385V114.533L142.932 114.937C141.691 115.609 140.57 116.327 139.419 117.014Z" fill="#3F00F9"/>
<path d="M234.931 212.392C237.846 214.873 240.507 217.1 242.57 218.789L242.989 218.326C241.015 216.547 238.384 214.246 235.514 211.765C231.806 208.596 228.473 205.787 226.305 204.113C226.215 204.248 226.111 204.382 226.021 204.531C228.024 206.4 231.253 209.239 234.931 212.392Z" fill="#3F00F9"/>
<path d="M225.602 204.172L225.991 204.531C226.08 204.382 226.185 204.247 226.274 204.113L225.871 203.784L225.602 204.172Z" fill="#3F00F9"/>
<path d="M223.928 223.078C220.714 220.089 217.813 217.519 215.855 215.83L215.466 216.188C217.29 218.012 220.131 220.672 223.36 223.661C226.589 226.65 229.534 229.265 231.492 230.954L231.836 230.551C230.012 228.772 227.157 226.067 223.928 223.078Z" fill="#3F00F9"/>
<path d="M215.407 215.456L215.048 215.77L215.467 216.188L215.855 215.83L215.407 215.456Z" fill="#3F00F9"/>
<path d="M247.249 214.38L246.98 214.126C246.008 215.098 244.633 216.547 242.959 218.326L243.482 218.789C245.111 216.951 246.412 215.441 247.249 214.38Z" fill="#3F00F9"/>
<path d="M232.076 231.477L231.492 230.984C229.998 232.703 228.607 234.257 227.501 235.542L227.934 235.916C229.101 234.675 230.506 233.181 232.076 231.477Z" fill="#3F00F9"/>
<path d="M243.108 219.237L242.57 218.789C240.686 220.807 238.474 223.273 236.127 225.813C234.632 227.487 233.137 229.101 231.836 230.581L232.39 231.134C233.75 229.639 235.215 228.055 236.74 226.366C239.102 223.751 241.27 221.315 243.108 219.237Z" fill="#3F00F9"/>
<path d="M243.108 219.237L243.511 218.788L242.988 218.326L242.57 218.788L243.108 219.237Z" fill="#3F00F9"/>
<path d="M232.389 231.133L231.836 230.58L231.493 230.984L232.075 231.477L232.389 231.133Z" fill="#3F00F9"/>
<path d="M309.424 271.38C312.204 273.734 313.983 277.058 314.402 280.676C314.62 282.518 314.457 284.386 313.922 286.162C313.387 287.939 312.492 289.586 311.293 291.003C310.074 292.404 308.588 293.55 306.923 294.374C305.257 295.197 303.445 295.682 301.591 295.8C299.776 295.92 297.955 295.697 296.224 295.142L294.968 294.664L293.802 294.096L291.784 292.303L290.887 291.511L289.392 291.227L291.275 292.915L293.353 294.769L294.669 295.411L295.999 295.919C297.83 296.517 299.758 296.76 301.68 296.637C303.645 296.513 305.566 295.998 307.329 295.123C309.093 294.248 310.664 293.03 311.951 291.541C313.226 290.04 314.178 288.293 314.746 286.408C315.315 284.523 315.488 282.541 315.254 280.586C314.812 276.763 312.931 273.253 309.992 270.767L307.974 268.929L307.795 269.856L309.424 271.38Z" fill="#3F00F9"/>
<path d="M280.422 283.261L288.555 290.525L290.05 290.779L281.947 283.59L280.422 283.261Z" fill="#3F00F9"/>
<path d="M302.816 265.327L307.152 269.288L307.331 268.346L302.981 264.401L302.816 265.327Z" fill="#3F00F9"/>
<path d="M249.447 254.866L231.433 239.024L227.935 236.035L227.785 236.185C228.727 237.052 229.863 238.098 231.224 239.323L249.058 255.359L253.08 258.961C253.08 258.677 253.08 258.393 253.08 258.109L249.447 254.866Z" fill="#3F00F9"/>
<path d="M250.045 216.966L251.809 218.58C251.809 218.43 251.809 218.266 251.809 218.102L250.314 216.727L247.473 214.201L247.324 214.38L250.045 216.966Z" fill="#3F00F9"/>
<path d="M279.69 282.603L281.185 282.917L276.057 278.434L253.902 258.751C253.902 259.035 253.902 259.319 253.902 259.603L275.534 278.942L279.69 282.603Z" fill="#3F00F9"/>
<path d="M268.074 232.762L252.631 218.864V219.357L267.655 233.211L293.891 257.227L302.218 264.819C302.218 264.52 302.323 264.206 302.383 263.907L294.4 256.644L268.074 232.762Z" fill="#3F00F9"/>
<path d="M252.66 219.356V218.863L251.824 218.101C251.824 218.266 251.824 218.43 251.824 218.579L252.66 219.356Z" fill="#3F00F9"/>
<path d="M253.901 258.751L253.05 257.989C253.05 258.273 253.05 258.557 253.05 258.84L253.901 259.602C253.916 259.348 253.916 259.035 253.901 258.751Z" fill="#3F00F9"/>
<path d="M302.816 265.326L302.98 264.4L302.412 263.892C302.412 264.191 302.293 264.505 302.248 264.803L302.816 265.326Z" fill="#3F00F9"/>
<path d="M279.69 282.603L280.422 283.261L281.917 283.59L281.155 282.917L279.69 282.603Z" fill="#3F00F9"/>
<path d="M290.065 290.733L288.57 290.479L289.377 291.182L290.872 291.466L290.065 290.733Z" fill="#3F00F9"/>
<path d="M307.152 269.302L307.764 269.855L307.943 268.929L307.331 268.361L307.152 269.302Z" fill="#3F00F9"/>
<path d="M247.428 214.201L247.159 213.962L247.01 214.126L247.279 214.38L247.428 214.201Z" fill="#3F00F9"/>
<path d="M227.501 235.542L227.367 235.691L227.785 236.065L227.934 235.915L227.501 235.542Z" fill="#3F00F9"/>
<defs>
<radialGradient id="paint0_radial_2679_1840" cx="0" cy="0" r="1" gradientUnits="userSpaceOnUse" gradientTransform="translate(143.25 52.75) rotate(147.078) scale(124.195 117.523)">
<stop stop-color="#0894FF"/>
<stop offset="0.290475" stop-color="#6E53FF"/>
<stop offset="0.609151" stop-color="#B038EA"/>
<stop offset="0.850793" stop-color="#F95088"/>
<stop offset="1" stop-color="#FF6F62"/>
</radialGradient>
</defs>
</svg>
