<svg width="465" height="483" viewBox="0 0 465 483" fill="none" xmlns="http://www.w3.org/2000/svg">
<path d="M429.51 253.758H405C399.343 253.758 396.515 253.758 394.757 255.515C393 257.273 393 260.101 393 265.758V291.212C393 296.869 393 299.698 394.757 301.455C396.515 303.212 399.343 303.212 405 303.212H429.51C435.167 303.212 437.995 303.212 439.753 301.455C441.51 299.698 441.51 296.869 441.51 291.212V265.758C441.51 260.101 441.51 257.273 439.753 255.515C437.995 253.758 435.167 253.758 429.51 253.758Z" fill="url(#paint0_radial_1_12)"/>
<path d="M412.752 264.972C413.022 264.987 413.285 265.059 413.525 265.182C413.764 265.305 413.976 265.477 414.145 265.687C414.479 266.101 414.901 266.437 415.38 266.671C415.859 266.905 416.383 267.032 416.917 267.042C417.45 267.052 417.979 266.946 418.466 266.73C418.954 266.515 419.389 266.196 419.739 265.795C419.987 265.42 420.368 265.153 420.806 265.046C421.244 264.94 421.705 265.002 422.099 265.221C423.459 265.752 424.725 266.496 425.851 267.424C426.157 267.652 426.38 267.974 426.484 268.341C426.588 268.708 426.568 269.099 426.426 269.453C426.233 269.958 426.156 270.499 426.2 271.038C426.243 271.576 426.407 272.098 426.678 272.565C426.95 273.033 427.323 273.434 427.769 273.74C428.216 274.046 428.726 274.248 429.261 274.333C429.646 274.377 430.006 274.549 430.281 274.822C430.557 275.095 430.732 275.453 430.778 275.837C431.074 277.403 431.074 279.01 430.778 280.576C430.712 280.941 430.531 281.276 430.261 281.531C429.991 281.787 429.647 281.95 429.277 281.997C428.721 282.065 428.187 282.26 427.718 282.567C427.25 282.875 426.859 283.286 426.576 283.769C426.294 284.252 426.127 284.794 426.089 285.352C426.052 285.91 426.144 286.469 426.359 286.985C426.521 287.342 426.554 287.743 426.454 288.122C426.354 288.5 426.126 288.833 425.809 289.064C424.724 289.949 423.513 290.669 422.215 291.2C421.86 291.37 421.456 291.409 421.074 291.31C420.692 291.212 420.358 290.981 420.131 290.66C419.789 290.197 419.342 289.821 418.825 289.565C418.309 289.308 417.739 289.178 417.162 289.184C416.586 289.191 416.019 289.334 415.508 289.602C414.998 289.87 414.559 290.256 414.228 290.726C414 291.058 413.663 291.301 413.275 291.411C412.886 291.522 412.472 291.495 412.102 291.333C410.709 290.809 409.411 290.062 408.258 289.122C407.911 288.895 407.661 288.546 407.557 288.145C407.454 287.743 407.505 287.318 407.7 286.952C408.043 286.173 408.1 285.299 407.86 284.482C407.621 283.666 407.101 282.96 406.391 282.488C405.94 282.18 405.423 281.981 404.882 281.906C404.435 281.902 404.007 281.728 403.686 281.418C403.365 281.109 403.175 280.688 403.156 280.243C402.916 278.725 402.953 277.176 403.264 275.671C403.333 275.296 403.526 274.954 403.811 274.7C404.096 274.446 404.458 274.293 404.84 274.266C405.396 274.206 405.931 274.019 406.402 273.72C406.874 273.421 407.27 273.017 407.56 272.54C407.849 272.063 408.025 271.525 408.072 270.97C408.119 270.414 408.038 269.855 407.833 269.336C407.676 268.968 407.651 268.556 407.764 268.171C407.876 267.786 408.119 267.452 408.45 267.225C409.557 266.368 410.788 265.684 412.102 265.197C412.314 265.11 412.531 265.035 412.752 264.972ZM421.657 278.207C421.655 277.287 421.38 276.388 420.866 275.623C420.353 274.859 419.623 274.264 418.771 273.912C417.918 273.561 416.98 273.47 416.075 273.649C415.17 273.829 414.339 274.273 413.686 274.923C413.034 275.574 412.589 276.402 412.409 277.305C412.228 278.207 412.32 279.142 412.672 279.993C413.025 280.843 413.622 281.57 414.389 282.082C415.155 282.594 416.057 282.869 416.979 282.87C417.6 282.876 418.215 282.758 418.789 282.524C419.363 282.29 419.884 281.944 420.323 281.507C420.761 281.07 421.108 280.55 421.343 279.977C421.578 279.405 421.696 278.792 421.69 278.173L421.657 278.207Z" fill="white"/>
<path d="M355.51 0.929932H331C325.343 0.929932 322.515 0.929932 320.757 2.68729C319 4.44465 319 7.27308 319 12.9299V38.3843C319 44.0412 319 46.8696 320.757 48.627C322.515 50.3843 325.343 50.3843 331 50.3843H355.51C361.167 50.3843 363.995 50.3843 365.753 48.627C367.51 46.8696 367.51 44.0412 367.51 38.3843V12.9299C367.51 7.27308 367.51 4.44465 365.753 2.68729C363.995 0.929932 361.167 0.929932 355.51 0.929932Z" fill="url(#paint1_radial_1_12)"/>
<path d="M342.816 12.1441C344.662 12.1441 346.434 12.892 347.739 14.2234C349.045 15.5547 349.779 17.3604 349.779 19.2432V22.9384H335.852V19.2432C335.852 18.3109 336.032 17.3878 336.382 16.5265C336.732 15.6652 337.245 14.8826 337.892 14.2234C338.538 13.5642 339.306 13.0412 340.151 12.6845C340.996 12.3277 341.901 12.1441 342.816 12.1441Z" stroke="white" stroke-width="2" stroke-miterlimit="10"/>
<path d="M349.58 21.2666H336C333.791 21.2666 332 23.0575 332 25.2666V35.1085C332 37.3177 333.791 39.1085 336 39.1085H349.58C351.789 39.1085 353.58 37.3177 353.58 35.1085V25.2666C353.58 23.0575 351.789 21.2666 349.58 21.2666Z" fill="white"/>
<path d="M338.61 31.2292C339.108 30.5822 339.743 30.059 340.468 29.6992C341.192 29.3394 341.988 29.1524 342.794 29.1524C343.601 29.1524 344.396 29.3394 345.121 29.6992C345.846 30.059 346.481 30.5822 346.978 31.2292" stroke="#6363F6" stroke-width="1.37" stroke-miterlimit="10"/>
<path d="M335.827 27.834C337.828 26.2772 340.277 25.434 342.794 25.434C345.312 25.434 347.76 26.2772 349.762 27.834" stroke="#6363F6" stroke-width="1.53" stroke-miterlimit="10"/>
<path d="M342.79 35.8762C343.696 35.8762 344.43 35.1276 344.43 34.2043C344.43 33.2809 343.696 32.5324 342.79 32.5324C341.884 32.5324 341.15 33.2809 341.15 34.2043C341.15 35.1276 341.884 35.8762 342.79 35.8762Z" fill="#6363F6"/>
<path d="M47.51 22.3387H23C17.3431 22.3387 14.5147 22.3387 12.7574 24.0961C11 25.8535 11 28.6819 11 34.3388V59.7931C11 65.45 11 68.2784 12.7574 70.0358C14.5147 71.7931 17.3431 71.7931 23 71.7931H47.51C53.1669 71.7931 55.9953 71.7931 57.7526 70.0358C59.51 68.2784 59.51 65.45 59.51 59.7931V34.3387C59.51 28.6819 59.51 25.8535 57.7526 24.0961C55.9953 22.3387 53.1669 22.3387 47.51 22.3387Z" fill="url(#paint2_radial_1_12)"/>
<path d="M28.86 51.5669H41.52C41.9896 51.5674 42.4515 51.6893 42.8624 51.921C43.2733 52.1528 43.62 52.4869 43.87 52.8922L47.46 58.6828C47.5655 58.8549 47.7065 59.0015 47.8732 59.1124C48.04 59.2234 48.2284 59.2959 48.4254 59.325C48.6225 59.3541 48.8234 59.3391 49.0141 59.281C49.2049 59.2229 49.3809 59.1231 49.53 58.9886L51.82 56.9496C52.4035 56.4296 52.8359 55.7564 53.0704 55.0033C53.3049 54.2502 53.3324 53.446 53.15 52.6781L49.47 36.9477C49.312 36.2861 48.9419 35.6972 48.4184 35.2743C47.8949 34.8514 47.2479 34.6187 46.58 34.6131H24.14C23.4734 34.6182 22.8275 34.8494 22.3042 35.2703C21.7809 35.6912 21.41 36.2778 21.25 36.9375L17.37 53.3917C17.1433 54.3583 17.2478 55.3748 17.6662 56.2724C18.0847 57.17 18.7917 57.8947 19.67 58.3259L21.95 59.4474C22.2802 59.6082 22.6596 59.6287 23.0046 59.5045C23.3497 59.3802 23.6322 59.1213 23.79 58.7847L26.34 53.2286C26.562 52.7364 26.9169 52.3187 27.3632 52.0244C27.8094 51.7302 28.3286 51.5715 28.86 51.5669Z" fill="white"/>
<path d="M31 49.8644C32.1046 49.8644 33 48.9515 33 47.8254C33 46.6994 32.1046 45.7865 31 45.7865C29.8954 45.7865 29 46.6994 29 47.8254C29 48.9515 29.8954 49.8644 31 49.8644Z" fill="#6363F6"/>
<path d="M39 49.8644C40.1046 49.8644 41 48.9515 41 47.8254C41 46.6994 40.1046 45.7865 39 45.7865C37.8954 45.7865 37 46.6994 37 47.8254C37 48.9515 37.8954 49.8644 39 49.8644Z" fill="#6363F6"/>
<path d="M25.3401 37.3657V42.3101" stroke="#6363F6" stroke-miterlimit="10"/>
<path d="M27.7699 39.843H22.9199" stroke="#6363F6" stroke-miterlimit="10"/>
<path d="M32.1499 40.7503H39.1699" stroke="#6363F6" stroke-width="2" stroke-miterlimit="10"/>
<path d="M43.3899 39.9756C44.0968 39.9756 44.6699 39.3913 44.6699 38.6706C44.6699 37.95 44.0968 37.3657 43.3899 37.3657C42.6829 37.3657 42.1099 37.95 42.1099 38.6706C42.1099 39.3913 42.6829 39.9756 43.3899 39.9756Z" fill="#6363F6"/>
<path d="M46.9599 42.0553C47.6669 42.0553 48.2399 41.471 48.2399 40.7504C48.2399 40.0297 47.6669 39.4454 46.9599 39.4454C46.253 39.4454 45.6799 40.0297 45.6799 40.7504C45.6799 41.471 46.253 42.0553 46.9599 42.0553Z" fill="#6363F6"/>
<path d="M36.51 272.108H12C6.34315 272.108 3.51472 272.108 1.75736 273.866C0 275.623 0 278.452 0 284.108V309.563C0 315.22 0 318.048 1.75736 319.805C3.51472 321.563 6.34314 321.563 12 321.563H36.51C42.1669 321.563 44.9953 321.563 46.7526 319.805C48.51 318.048 48.51 315.22 48.51 309.563V284.108C48.51 278.452 48.51 275.623 46.7526 273.866C44.9953 272.108 42.1669 272.108 36.51 272.108Z" fill="url(#paint3_radial_1_12)"/>
<path d="M12.0702 282.262H35.8902C35.8902 282.262 44.3301 305.17 24.0701 312.459C24.1001 312.459 6.16018 308.299 12.0702 282.262Z" fill="white"/>
<path d="M24 264L25.5716 268.837H30.6574L26.5429 271.826L28.1145 276.663L24 273.674L19.8855 276.663L21.4571 271.826L17.3426 268.837H22.4284L24 264Z" fill="#6363F6"/>
<path d="M77.5 57.5L152.5 97.5" stroke="black"/>
<path d="M327.5 47.5L277.5 90" stroke="black"/>
<path d="M378.248 247.382L306 218.912" stroke="black"/>
<path d="M60 273L130.5 236.5" stroke="black"/>
<circle cx="328" cy="48" r="6" fill="#8859E9"/>
<circle cx="378" cy="246" r="6" fill="#8859E9"/>
<circle cx="307" cy="218" r="6" fill="#8859E9"/>
<circle cx="131" cy="237" r="6" fill="#8859E9"/>
<circle cx="60" cy="273" r="6" fill="#8859E9"/>
<circle cx="155" cy="98" r="6" fill="#8859E9"/>
<circle cx="78" cy="58" r="6" fill="#8859E9"/>
<circle cx="278" cy="90" r="6" fill="#8859E9"/>
<path d="M221.682 127.741L221.318 199.791L221.709 200.016L291.1 159.04L221.682 127.741Z" fill="#E8E0FF"/>
<path d="M221.775 272.85L221.207 213.848L292.189 172.144L221.775 272.85Z" fill="url(#paint4_radial_1_12)"/>
<path d="M150.457 172.182L221.123 213.746L221.56 270.954L168.652 197.923L150.457 172.182Z" fill="#A4CAFF"/>
<path d="M221.663 40.8873L221.402 127.358L291.184 158.919L221.663 40.8873Z" fill="#D1C2FF"/>
<path d="M221.16 199.735L151.844 158.536L152.393 157.462L221.402 127.358L221.16 199.735Z" fill="#A97FFF"/>
<path d="M221.439 41.3542C209.8 59.1316 198.111 77.8368 186.372 97.4698C174.167 117.956 162.854 137.953 152.431 157.462L221.43 127.358L221.439 41.3542Z" fill="url(#paint5_radial_1_12)"/>
<path d="M221.979 42.0828C223.841 45.4173 226.513 50.106 229.847 55.8596C236.784 67.6562 246.356 83.9547 256.934 101.963C267.513 119.97 277.038 136.288 284.087 148.019C286.35 151.755 288.333 155.061 290.009 157.789L290.987 158.256L291.285 158.088L291.406 158.022C289.777 155.061 287.765 151.437 285.41 147.262C278.696 135.326 269.291 118.924 258.787 100.86C253.582 91.8098 248.414 83.3009 243.712 75.5766L231.151 55.0283C227.556 49.2094 224.632 44.5206 222.528 41.3076L222.332 41.0087C222.221 41.2049 222.09 41.401 221.979 41.5972V42.0828Z" fill="#3F00F9"/>
<path d="M160.811 143.974C167.729 131.935 177.302 115.319 188.159 97.1243C199.016 78.9297 209.017 62.5657 216.345 50.7785C218.152 47.883 219.772 45.2584 221.197 42.9421C221.197 42.1388 221.281 41.429 221.318 40.7658L221.271 40.6724C219.493 43.297 217.407 46.4166 215.06 49.9565C207.369 61.5477 197.126 77.7995 186.259 96.0128C175.393 114.226 166.016 130.992 159.433 143.227C156.285 149.084 153.771 153.884 152.039 157.331L153.417 156.677L160.811 143.974Z" fill="#8157FF"/>
<path d="M221.979 41.597C222.09 41.4009 222.221 41.2048 222.332 41.0086L221.951 40.4203C221.96 40.7938 221.969 41.1487 221.979 41.597Z" fill="#3F00F9"/>
<path d="M221.281 40.5791L221.225 40.6725L221.272 40.7659L221.281 40.5791Z" fill="#3F00F9"/>
<path d="M220.871 198.661L218.785 197.391C211.336 192.88 200.898 186.78 189.342 180.149L180.887 175.329L173.167 170.603L160.019 162.692C157.021 160.918 154.432 159.432 152.477 158.312L151.965 159.162C153.827 160.46 156.304 162.085 159.209 163.981L172.134 172.303L179.807 177.151L188.243 182.008C199.817 188.648 210.368 194.551 218.04 198.726L220.601 200.109L220.918 199.903C220.908 199.52 220.89 199.1 220.871 198.661Z" fill="#3F00F9"/>
<path d="M221.569 199.483L221.886 199.278L221.579 199.091C221.579 199.222 221.569 199.362 221.569 199.483Z" fill="#3F00F9"/>
<path d="M289.74 158.928C281.872 163.411 271.508 169.473 260.139 176.226C247.987 183.343 237.055 189.891 229.187 194.72C226.309 196.494 223.851 198.026 221.886 199.278L222.92 199.903C224.888 198.851 227.231 197.565 229.95 196.046C238.014 191.544 249.076 185.202 261.237 178.085C272.97 171.117 283.529 164.682 291.305 159.834C291.23 159.731 291.174 159.629 291.1 159.517L289.74 158.928Z" fill="#3F00F9"/>
<path d="M221.57 199.483C221.57 199.881 221.551 200.255 221.514 200.604H221.57L222.92 199.875L221.886 199.25L221.57 199.483Z" fill="#3F00F9"/>
<path d="M220.917 199.931L220.601 200.137L220.936 200.324C220.936 200.165 220.926 200.043 220.917 199.931Z" fill="#3F00F9"/>
<path d="M220.591 60.8566C220.396 75.9783 220.34 96.9095 220.284 119.97C220.284 122.168 220.284 124.348 220.284 126.508L221.485 125.967L222.417 126.406C222.417 124.276 222.417 122.137 222.417 119.97C222.482 96.8815 222.296 76.025 222.1 60.8939C221.932 53.3378 222.035 47.22 221.97 42.9889C221.97 42.6713 221.97 42.3724 221.97 42.0549C221.921 41.977 221.877 41.8959 221.839 41.812L221.141 42.9515C220.955 47.1733 220.619 53.2911 220.591 60.8566Z" fill="#3F00F9"/>
<path d="M221.663 196.971C221.793 192.74 221.923 186.622 222.026 179.056C222.221 165.877 222.361 148.318 222.417 128.741L221.486 128.311L220.294 128.834C220.294 148.364 220.378 165.896 220.527 179.056C220.611 186.612 220.713 192.73 220.843 196.961C220.843 197.568 220.843 198.129 220.89 198.661L221.598 199.091C221.607 198.446 221.635 197.746 221.663 196.971Z" fill="#3F00F9"/>
<path d="M221.98 42.0828V41.6345L221.849 41.84C221.887 41.9238 221.931 42.0049 221.98 42.0828Z" fill="#3F00F9"/>
<path d="M221.812 41.7465C221.616 41.401 221.448 41.0835 221.271 40.8126C221.271 41.4757 221.197 42.1854 221.15 42.9886L221.849 41.8492L221.812 41.7465Z" fill="#3F00F9"/>
<path d="M221.849 41.8024L221.979 41.597C221.979 41.1767 221.979 40.7938 221.979 40.4203C221.886 40.2802 221.793 40.1401 221.709 40L221.309 40.579V40.7658C221.486 41.0833 221.653 41.4008 221.849 41.6997V41.8024Z" fill="#3F00F9"/>
<path d="M220.871 198.661C220.871 199.1 220.871 199.52 220.918 199.903L221.569 199.483C221.569 199.362 221.569 199.221 221.569 199.091L220.871 198.661Z" fill="#3F00F9"/>
<path d="M220.936 200.296L221.513 200.604C221.513 200.255 221.532 199.882 221.569 199.483L220.917 199.903C220.927 200.043 220.936 200.165 220.936 200.296Z" fill="#3F00F9"/>
<path d="M290.01 157.751C287.17 156.388 283.911 154.837 280.28 153.081C266.424 146.543 247.233 137.651 225.965 127.956L222.426 126.34C222.426 127.125 222.426 127.919 222.426 128.703L225.089 129.918C246.348 139.622 265.642 148.299 279.656 154.473C283.436 156.148 286.801 157.62 289.75 158.891L290.485 158.47C290.327 158.256 290.169 158.013 290.01 157.751Z" fill="#3F00F9"/>
<path d="M169.815 150.877L180.747 146.319L193.234 140.855L220.238 128.834V126.48L192.47 139.062L180.067 144.666L169.191 149.495C162.589 152.437 157.281 154.847 153.631 156.556L153.38 156.668L152.737 157.779L153.948 157.303C157.728 155.837 163.138 153.642 169.815 150.877Z" fill="#3F00F9"/>
<path d="M220.274 126.48V128.834L221.466 128.311L222.397 128.74C222.397 127.956 222.397 127.162 222.397 126.378L221.466 125.939L220.274 126.48Z" fill="#3F00F9"/>
<path d="M224.409 213.092C245.714 200.595 264.934 189.181 278.789 180.821C283.576 177.935 287.701 175.432 291.072 173.349L292.655 171.248C288.865 173.349 283.911 176.142 278.026 179.505C263.965 187.518 244.625 198.727 223.329 211.261L221.83 212.139C221.83 212.896 221.905 213.699 221.942 214.577L224.409 213.092Z" fill="#3F00F9"/>
<path d="M152.496 173.723C156.164 176.039 161.509 179.327 168.148 183.381C174.788 187.434 182.74 192.198 191.577 197.522L220.582 214.81C220.582 213.876 220.629 213.11 220.657 212.345L192.573 195.831L168.912 182.092C162.17 178.216 156.714 175.115 152.915 173.013C151.909 172.453 151.052 171.976 150.261 171.565L151.332 172.985L152.496 173.723Z" fill="#3F00F9"/>
<path d="M193.308 230.754L169.713 198.063C162.971 188.77 157.477 181.251 153.65 176.105L151.332 173.032L150 172.172C150.81 173.387 151.797 174.844 152.961 176.59C156.583 181.895 161.882 189.536 168.474 198.951L191.698 231.968L220.759 272.925C220.862 273.055 220.955 273.186 221.048 273.326C221.001 272.103 220.955 270.814 220.908 269.413L193.308 230.754Z" fill="#3F00F9"/>
<path d="M288.38 176.927C284.59 182.064 279.161 189.536 272.494 198.811L249.141 231.445L222.565 268.908C222.565 270.253 222.565 271.533 222.5 272.729L250.761 232.566L273.733 199.661C280.251 190.32 285.484 182.671 289.06 177.384L292.263 172.583L291.052 173.321L288.38 176.927Z" fill="#3F00F9"/>
<path d="M222.603 244.764C222.501 232.547 222.249 221.657 221.942 214.53L221.011 215.062L220.564 214.801C220.387 221.937 220.331 232.715 220.433 244.783C220.517 254.123 220.675 262.66 220.89 269.357L221.569 270.291L222.566 268.88C222.668 262.277 222.687 253.899 222.603 244.764Z" fill="#3F00F9"/>
<path d="M221.029 215.071L221.96 214.539C221.96 213.661 221.886 212.858 221.848 212.102L221.048 212.569L220.675 212.344C220.675 213.11 220.619 213.923 220.601 214.81L221.029 215.071Z" fill="#3F00F9"/>
<g clip-path="url(#clip0_1_12)">
<path d="M553.33 394.13C553.33 394.13 483.81 368.19 471.77 370.25C459.73 372.31 416.3 353.13 416.3 353.13C416.3 353.13 396.81 337.92 388.43 340.74C388.43 340.74 327.32 339.67 320.21 343.79C320.21 343.79 303.73 345.98 297.94 352.98C297.94 352.98 294.01 358.06 289.22 370.12C288.631 371.749 287.877 373.314 286.97 374.79C286.251 376.038 285.373 377.187 284.36 378.21C283.841 378.626 283.293 379.004 282.72 379.34C282.131 379.872 281.616 380.481 281.19 381.15C279.8 382.89 277.72 383.9 275.9 385.15C273.06 387.15 270.76 389.97 267.66 391.57C266.139 392.298 264.547 392.867 262.91 393.27L256.69 395.04C254.28 395.72 251.69 396.5 250.15 398.45C249.15 399.64 248.43 401.34 246.91 401.45C245.984 401.405 245.091 401.092 244.34 400.55C242.2 399.39 239.19 399.08 237.63 400.94C237.2 401.46 236.92 402.11 236.51 402.65C235.948 403.376 235.16 403.894 234.27 404.12C234.672 402.339 234.579 400.482 234 398.75C233.463 396.74 232.729 394.787 231.81 392.92C229.28 387.77 225.38 383.33 223.38 377.92C222.12 374.52 221.38 371 219.73 367.72C217.9 364.06 214.8 359.99 210.23 360.32L214.54 360.44C214.54 360.44 216.21 334.67 213 330.01C209.79 325.35 205.38 314.72 198.54 319.63C199.679 322.321 200.193 325.236 200.043 328.155C199.892 331.074 199.081 333.92 197.67 336.48C197.67 336.48 189.22 346.88 188.45 354.25C187.68 361.62 199.74 410.18 199.74 410.18L204.51 425.18C204.51 425.18 200.91 416.18 222.1 430.5C222.1 430.5 252.89 444.26 262.52 450.43C262.52 450.43 266.79 450.62 285.52 462.26C285.52 462.26 297.68 456.87 315.52 460.78C333.36 464.69 375.44 467.52 431.08 446.37C431.08 446.37 432.81 443.62 436.22 445.59C436.22 445.59 438.01 449.8 444.22 453.9C450.43 458 454.22 461.09 473.61 467.67L477.38 470.67C477.38 470.67 479.11 475.32 484.59 472.95C484.59 472.95 502.77 478.04 508.36 481.6C513.95 485.16 555.96 464.31 563.85 446.75C571.74 429.19 583.63 421.82 553.33 394.13Z" fill="#D1C2FF"/>
<path d="M189.14 367.05C189.14 367.05 169.62 344.8 168.57 333.56C167.52 322.32 147.93 291.51 138.57 302.42C138.57 302.42 133.57 306.78 131.31 306.23C129.05 305.68 132.26 308.78 135.72 310.43C139.18 312.08 149.41 318.22 143.83 336.43C143.83 336.43 141.98 349.24 156.48 371.61C156.48 371.61 163.19 386.24 162.09 389.7C160.99 393.16 173.92 408.95 173.92 408.95L179.64 418.84C179.64 418.84 182.12 421.15 183.4 420.6C183.4 420.6 184.25 427.08 212.86 438.44C212.86 438.44 221.86 442.62 223.16 445.91C224.46 449.2 250.96 458.96 250.96 458.96C250.96 458.96 249.57 461.49 250.96 462.67C255.09 466.09 267.5 470.12 285.52 462.34" fill="#D1C2FF"/>
<path d="M307.73 346.51C307.73 346.51 295.73 337.31 278.02 344.65C278.02 344.65 265.46 348.3 238.39 339.89C238.39 339.89 221.15 335.34 214.33 340.53C214.33 340.53 215.45 354.62 214.54 360.45L222.22 374.5C222.22 374.5 223.75 376.42 238.72 377.34L268.9 377.91C268.9 377.91 272.05 377.36 277.9 379.69C283.75 382.02 289.34 371.62 292.73 362.16C296.12 352.7 302.52 348.13 307.73 346.51Z" fill="#D1C2FF"/>
<path d="M162.07 389.66C162.07 389.66 149.07 372.66 128.43 371.16C128.43 371.16 102.66 339.29 80.84 349.47L73.23 353.21C73.23 353.21 76.84 350.37 85.23 360.64C93.62 370.91 96.41 372.04 96.41 372.04L91.41 374.04C104.48 382.375 116.587 392.131 127.51 403.13C138.106 413.895 149.865 423.45 162.57 431.62C162.57 431.62 185.02 434.98 188.5 438.11C191.98 441.24 227.06 456.36 230.91 451.67" fill="#D1C2FF"/>
<path d="M107.84 385.8C107.84 385.8 84.63 386.87 94.37 395.29C104.11 403.71 111.27 410.37 120.59 412.17C129.91 413.97 148.68 426.17 148.68 426.17L160.46 430.34" fill="#D1C2FF"/>
<path d="M190.69 344.81L192.07 319.13C192.07 319.13 192.62 312.96 197.83 318.23C203.04 323.5 200.15 338.86 190.69 344.81Z" fill="#A97FFF"/>
<path d="M144.07 335.04C144.07 335.04 148.38 323.84 141.63 315.25C141.63 315.25 138.42 310.68 134.19 309.42C129.96 308.16 131.3 306.23 131.3 306.23C131.3 306.23 128.45 306.62 131.22 312.33C133.99 318.04 134.72 315.57 138.95 330.21C138.95 330.21 141.28 338.6 144.07 335.04Z" fill="#A97FFF"/>
<path d="M96.12 371.63L79.38 354.82C79.38 354.82 68.38 347.82 72.57 360.49C72.57 360.49 76.5701 369.08 91.4001 374.05L96.4001 372.05L96.12 371.63Z" fill="#A97FFF"/>
<path d="M112.62 408.75C112.62 408.75 114.04 394.58 92.7899 389.75C92.7899 389.75 89.6599 393.14 100.98 401.15C112.3 409.16 112.62 408.75 112.62 408.75Z" fill="#A97FFF"/>
<path d="M381.83 341.04C369.39 340.84 357.23 341.15 345.52 341.89C339.67 342.26 333.92 342.74 328.31 343.3C322.82 343.708 317.37 344.544 312.01 345.8C306.86 347.14 302.01 349.37 298.49 353.02C298.051 353.458 297.644 353.926 297.27 354.42C296.874 354.898 296.507 355.399 296.17 355.92C295.506 356.954 294.915 358.034 294.4 359.15C293.4 361.37 292.52 363.66 291.59 365.89C290.66 368.12 289.59 370.26 288.53 372.31C287.473 374.365 286.159 376.277 284.62 378C283.863 378.872 282.937 379.583 281.9 380.09C281.359 380.359 280.764 380.499 280.16 380.5C279.599 380.469 279.042 380.378 278.5 380.23C276.39 379.71 274.44 378.9 272.5 378.47C271.508 378.311 270.504 378.241 269.5 378.26C268.5 378.26 267.5 378.26 266.57 378.31C264.64 378.38 262.75 378.51 260.9 378.56C257.22 378.67 253.74 378.56 250.5 378.45C244 378.14 238.44 377.56 233.9 377.08C231.63 376.83 229.62 376.65 227.9 376.39C226.412 376.203 224.963 375.777 223.61 375.13C222.776 374.72 222.048 374.125 221.48 373.39C221.284 373.148 221.125 372.879 221.01 372.59C221.01 372.59 221.17 372.86 221.57 373.33C222.157 374.012 222.883 374.561 223.7 374.94C225.045 375.541 226.475 375.929 227.94 376.09C229.67 376.31 231.7 376.47 233.94 376.69C238.49 377.1 244.05 377.63 250.52 377.88C253.75 378 257.22 378.04 260.88 377.88C262.71 377.82 264.6 377.68 266.54 377.59C267.54 377.59 268.54 377.52 269.54 377.52C270.571 377.503 271.601 377.573 272.62 377.73C274.62 378.18 276.62 378.97 278.62 379.47C279.115 379.596 279.62 379.677 280.13 379.71C280.617 379.702 281.096 379.582 281.53 379.36C282.473 378.887 283.313 378.231 284 377.43C285.478 375.746 286.741 373.885 287.76 371.89C288.85 369.89 289.83 367.73 290.76 365.53C291.69 363.33 292.51 361.02 293.57 358.75C294.098 357.595 294.706 356.479 295.39 355.41C295.731 354.86 296.112 354.335 296.53 353.84C296.918 353.318 297.346 352.826 297.81 352.37C301.43 348.55 306.49 346.24 311.73 344.86C317.135 343.581 322.632 342.725 328.17 342.3C333.79 341.72 339.54 341.24 345.42 340.86C357.15 340.1 369.34 339.79 381.81 339.99C384.93 340.06 388.01 340.07 391.12 340.3C394.231 340.479 397.282 341.232 400.12 342.52C402.84 343.877 405.443 345.46 407.9 347.25C409.13 348.1 410.35 348.93 411.62 349.69C412.89 350.45 414.1 351.26 415.37 351.98C420.376 354.787 425.587 357.211 430.96 359.23C436.22 361.23 441.52 362.8 446.71 364.23C457.13 366.97 467.21 368.92 476.62 370.82C486.03 372.72 494.79 374.58 502.67 376.82C510.55 379.06 517.59 381.25 523.73 383.35C529.87 385.45 535.12 387.35 539.4 388.98L549.23 392.72L551.77 393.72L552.42 393.99C552.495 394.015 552.566 394.052 552.63 394.1L552.4 394.04L551.74 393.82L549.16 392.91L539.26 389.35C534.96 387.82 529.7 385.94 523.55 383.89C517.4 381.84 510.36 379.62 502.48 377.52C494.6 375.42 485.87 373.52 476.48 371.7C467.09 369.88 456.97 367.92 446.48 365.19C441.26 363.77 435.93 362.19 430.63 360.19C425.204 358.155 419.939 355.715 414.88 352.89C413.6 352.16 412.36 351.35 411.09 350.57C409.82 349.79 408.57 348.97 407.34 348.12C404.924 346.367 402.369 344.815 399.7 343.48C396.967 342.24 394.027 341.521 391.03 341.36C388.07 341.13 384.94 341.13 381.83 341.04Z" fill="#3F00F9"/>
<path d="M264.28 345.79C258.171 345.031 252.125 343.828 246.19 342.19C241.366 340.905 236.479 339.863 231.55 339.07C228.241 338.575 224.895 338.364 221.55 338.44L218.81 338.64C218.479 338.696 218.141 338.696 217.81 338.64C218.114 338.535 218.43 338.468 218.75 338.44C219.38 338.34 220.3 338.2 221.49 338.04C222.68 337.88 224.16 337.88 225.87 337.92L228.6 338.04C229.6 338.11 230.6 338.24 231.6 338.35C236.572 339.047 241.499 340.025 246.36 341.28C252.273 342.854 258.287 344.021 264.36 344.77C270.413 345.434 276.538 344.856 282.36 343.07C284.957 342.317 287.613 341.788 290.3 341.49C292.669 341.305 295.053 341.501 297.36 342.07C300.653 342.933 303.827 344.199 306.81 345.84C307.87 346.4 308.68 346.84 309.22 347.17C309.512 347.311 309.784 347.489 310.03 347.7C308.865 347.272 307.729 346.768 306.63 346.19C303.618 344.715 300.457 343.569 297.2 342.77C294.961 342.266 292.655 342.121 290.37 342.34C287.743 342.672 285.147 343.221 282.61 343.98C276.69 345.841 270.449 346.457 264.28 345.79Z" fill="#3F00F9"/>
<path d="M373.15 386.86C369.388 389.567 365.464 392.042 361.4 394.27C359.424 395.298 357.363 396.154 355.24 396.83C353.207 397.449 351.136 397.937 349.04 398.29C344.96 398.99 341.04 399.29 337.44 399.73C334.086 400.057 330.765 400.659 327.51 401.53C321.51 403.2 317.26 406.02 314.91 408.53C313.698 409.845 312.632 411.286 311.73 412.83C311.873 412.382 312.06 411.95 312.29 411.54C312.51 411.14 312.82 410.66 313.17 410.08C313.621 409.449 314.106 408.841 314.62 408.26C316.064 406.694 317.728 405.347 319.56 404.26C321.986 402.809 324.587 401.674 327.3 400.88C330.573 399.953 333.918 399.3 337.3 398.93C340.94 398.46 344.83 398.11 348.85 397.4C353.057 396.718 357.129 395.367 360.91 393.4C364.932 391.18 368.819 388.722 372.55 386.04C374.55 384.7 376.48 383.4 378.48 382.21C380.459 381.055 382.499 380.007 384.59 379.07C388.55 377.302 392.677 375.935 396.91 374.99C400.744 374.194 404.637 373.712 408.55 373.55C410.39 373.55 412.17 373.48 413.87 373.61C414.73 373.67 415.56 373.68 416.38 373.76L418.76 374.03C423.666 374.611 428.478 375.814 433.08 377.61C434.333 378.077 435.561 378.607 436.76 379.2C437.19 379.383 437.605 379.6 438 379.85C437.54 379.751 437.093 379.597 436.67 379.39C435.82 379.07 434.59 378.5 432.94 377.98C428.33 376.347 423.544 375.263 418.68 374.75L416.32 374.52C415.51 374.44 414.68 374.44 413.84 374.4C412.16 374.29 410.4 374.4 408.59 374.4C404.729 374.596 400.89 375.101 397.11 375.91C392.949 376.865 388.893 378.228 385 379.98C382.945 380.907 380.942 381.945 379 383.09C377.07 384.24 375.07 385.53 373.15 386.86Z" fill="#3F00F9"/>
<path d="M301.67 409.47C296.37 407.9 291.8 408.14 291.8 407.82C291.8 407.69 292.92 407.46 294.8 407.45C297.228 407.449 299.644 407.786 301.98 408.45C304.317 409.133 306.545 410.143 308.6 411.45C310.16 412.45 310.99 413.26 310.92 413.36C310.72 413.65 307 410.99 301.67 409.47Z" fill="#3F00F9"/>
<path d="M267.73 408.74C267.209 408.984 266.772 409.375 266.473 409.866C266.175 410.357 266.027 410.926 266.05 411.5C266.059 412.518 266.346 413.514 266.88 414.38C267.81 415.92 268.59 416.81 268.46 416.92C268.33 417.03 267.46 416.31 266.27 414.76C265.564 413.815 265.16 412.679 265.11 411.5C265.098 410.771 265.262 410.051 265.59 409.4C265.962 408.673 266.583 408.105 267.34 407.8C268.689 407.421 270.098 407.309 271.49 407.47C272.7 407.47 273.8 407.47 274.71 407.37C275.7 407.198 276.706 407.131 277.71 407.17C277.71 407.3 276.66 407.75 274.8 408.09C273.706 408.276 272.6 408.383 271.49 408.41C270.227 408.312 268.957 408.424 267.73 408.74Z" fill="#3F00F9"/>
<path d="M258.75 407.13C255.44 405.26 252.64 403.95 252.75 403.68C252.86 403.41 255.88 404.33 259.26 406.24C262.64 408.15 265 410.24 264.83 410.45C264.66 410.66 262.07 408.96 258.75 407.13Z" fill="#3F00F9"/>
<path d="M240.34 399.85C238.807 400.182 237.456 401.083 236.56 402.37C235.75 403.37 235.26 403.98 235.13 403.9C235 403.82 235.28 403.07 235.97 401.9C236.382 401.223 236.89 400.609 237.48 400.08C238.236 399.393 239.179 398.947 240.19 398.8C241.205 398.67 242.237 398.797 243.19 399.17C243.925 399.441 244.627 399.797 245.28 400.23C246.38 400.95 246.96 401.52 246.88 401.63C246.8 401.74 246.08 401.4 244.88 400.86C243.49 400.108 241.918 399.758 240.34 399.85Z" fill="#3F00F9"/>
<path d="M224.23 380.71C222.45 377.44 221.59 374 220.57 371.06C219.802 368.422 218.487 365.976 216.71 363.88C215.505 362.487 213.958 361.432 212.22 360.82C210.98 360.42 210.22 360.43 210.22 360.33C210.918 360.19 211.639 360.224 212.32 360.43C214.208 360.944 215.911 361.984 217.23 363.43C218.16 364.388 218.96 365.464 219.61 366.63C220.336 367.964 220.951 369.356 221.45 370.79C222.54 373.79 223.4 377.12 225.12 380.28C226.84 383.44 228.79 386.28 230.42 389.03C231.931 391.42 233.144 393.985 234.03 396.67C234.628 398.493 234.922 400.402 234.9 402.32C234.932 403.022 234.834 403.724 234.61 404.39C234.597 401.841 234.168 399.311 233.34 396.9C232.378 394.308 231.127 391.832 229.61 389.52C227.97 386.81 225.95 383.98 224.23 380.71Z" fill="#3F00F9"/>
<path d="M213.9 336.24C213.493 332.941 212.554 329.729 211.12 326.73C209.934 324.304 208.226 322.17 206.12 320.48C205.307 319.843 204.425 319.3 203.49 318.86C202.799 318.525 202.047 318.331 201.28 318.29C200.622 318.289 199.974 318.458 199.4 318.78C199.4 318.78 199.48 318.59 199.77 318.38C200.217 318.086 200.735 317.917 201.27 317.89C202.105 317.863 202.937 318.013 203.71 318.33C204.716 318.738 205.669 319.265 206.55 319.9C208.828 321.583 210.686 323.77 211.98 326.29C213.53 329.366 214.544 332.683 214.98 336.1C215.778 342.217 215.946 348.399 215.48 354.55C215.3 356.9 215.05 358.8 214.84 360.1C214.785 360.784 214.637 361.457 214.4 362.1C214.24 362.1 214.57 359.18 214.76 354.5C214.986 348.4 214.698 342.292 213.9 336.24Z" fill="#3F00F9"/>
<path d="M188.97 354.13C188.974 356.595 189.198 359.055 189.64 361.48C189.98 363.91 190.36 366.29 190.74 368.64C191.51 373.33 192.35 377.84 193.22 382.12C194.95 390.68 196.84 398.32 198.54 404.7C200.24 411.08 201.8 416.21 202.89 419.7C203.43 421.47 203.89 422.84 204.13 423.78C204.298 424.248 204.425 424.73 204.51 425.22C204.281 424.777 204.091 424.315 203.94 423.84C203.6 422.93 203.1 421.58 202.51 419.84C201.31 416.34 199.65 411.24 197.85 404.84C196.05 398.44 194.09 390.84 192.3 382.25C191.41 377.96 190.54 373.44 189.75 368.74C189.37 366.39 188.98 364 188.63 361.56C188.183 359.078 187.955 356.562 187.95 354.04C187.982 352.738 188.187 351.447 188.56 350.2C188.943 348.987 189.453 347.817 190.08 346.71C191.342 344.624 192.735 342.62 194.25 340.71C195.684 338.907 196.915 336.952 197.92 334.88C198.818 332.886 199.36 330.751 199.52 328.57C199.679 326.491 199.501 324.401 198.99 322.38C198.737 321.41 198.403 320.463 197.99 319.55C197.646 318.682 197.121 317.898 196.45 317.25C196.176 316.938 195.835 316.692 195.452 316.531C195.069 316.37 194.655 316.298 194.24 316.32C193.86 316.407 193.512 316.6 193.236 316.876C192.96 317.152 192.768 317.5 192.68 317.88C192.458 318.702 192.337 319.548 192.32 320.4C192.26 321.27 192.2 322.11 192.14 322.94C191.66 329.53 191.26 334.87 190.99 338.56C190.83 340.41 190.71 341.84 190.63 342.81C190.611 343.305 190.544 343.798 190.43 344.28C190.386 343.788 190.386 343.292 190.43 342.8C190.43 341.8 190.53 340.39 190.61 338.54C190.8 334.84 191.08 329.54 191.43 322.89C191.43 322.07 191.53 321.22 191.58 320.36C191.587 319.442 191.708 318.528 191.94 317.64C192.085 317.144 192.337 316.686 192.68 316.3C193.059 315.891 193.561 315.617 194.11 315.52C194.651 315.468 195.196 315.542 195.704 315.734C196.212 315.927 196.669 316.233 197.04 316.63C197.803 317.351 198.403 318.228 198.8 319.2C199.216 320.153 199.551 321.14 199.8 322.15C200.349 324.267 200.552 326.458 200.4 328.64C200.246 330.933 199.688 333.181 198.75 335.28C197.725 337.412 196.468 339.424 195 341.28C193.515 343.163 192.149 345.136 190.91 347.19C190.32 348.237 189.84 349.343 189.48 350.49C189.149 351.675 188.977 352.899 188.97 354.13Z" fill="#3F00F9"/>
<path d="M274.2 455.95C271.5 454.35 269.43 452.87 269.58 452.62C269.73 452.37 272.02 453.47 274.72 455.07C277.42 456.67 279.48 458.14 279.34 458.39C279.2 458.64 276.9 457.54 274.2 455.95Z" fill="#3F00F9"/>
<path d="M233.72 436.94C229.833 435.402 226.085 433.532 222.52 431.35C219.25 429.29 216.52 427.13 214.1 425.65C212.205 424.421 210.135 423.487 207.96 422.88C206.4 422.49 205.5 422.45 205.51 422.36C205.52 422.27 205.73 422.3 206.16 422.31C206.791 422.312 207.42 422.372 208.04 422.49C210.312 422.964 212.487 423.823 214.47 425.03C217.03 426.46 219.78 428.58 223.02 430.55C226.568 432.652 230.276 434.471 234.11 435.99C238.18 437.67 242.11 439.12 245.69 440.58C248.855 441.841 251.938 443.301 254.92 444.95C256.2 445.64 257.29 446.39 258.27 447C259.25 447.61 260.03 448.25 260.66 448.76C261.338 449.263 261.962 449.836 262.52 450.47C262.39 450.64 259.71 448.22 254.52 445.59C251.521 444.042 248.44 442.66 245.29 441.45C241.79 440.05 237.82 438.63 233.72 436.94Z" fill="#3F00F9"/>
<path d="M165.07 325.71C162.566 319.91 159.25 314.496 155.22 309.63C153.471 307.504 151.58 305.5 149.56 303.63C147.66 301.95 145.56 300.63 143.4 300.72C142.397 300.755 141.416 301.03 140.54 301.52C139.728 301.958 138.953 302.46 138.22 303.02C137.038 303.978 135.773 304.828 134.44 305.56C133.566 306.03 132.561 306.202 131.58 306.05C131.331 306.011 131.089 305.937 130.86 305.83C130.7 305.77 130.63 305.73 130.63 305.71C130.966 305.734 131.3 305.778 131.63 305.84C132.557 305.899 133.48 305.68 134.28 305.21C135.552 304.428 136.759 303.545 137.89 302.57C138.632 301.967 139.421 301.425 140.25 300.95C141.204 300.366 142.285 300.023 143.4 299.95C144.627 299.931 145.84 300.216 146.93 300.78C148.087 301.36 149.163 302.09 150.13 302.95C152.211 304.812 154.159 306.817 155.96 308.95C160.097 313.853 163.49 319.339 166.03 325.23C167.39 328.36 168.42 331.51 169.49 334.51C170.47 337.396 171.623 340.221 172.94 342.97C175.264 347.587 177.974 351.999 181.04 356.16C183.64 359.73 185.87 362.54 187.39 364.5C188.14 365.5 188.73 366.25 189.13 366.77C189.353 367.018 189.538 367.298 189.68 367.6C189.68 367.6 189.41 367.38 188.97 366.9C188.53 366.42 187.89 365.69 187.08 364.75C185.47 362.87 183.15 360.13 180.46 356.59C177.279 352.449 174.481 348.027 172.1 343.38C170.735 340.616 169.55 337.766 168.55 334.85C167.44 331.92 166.4 328.79 165.07 325.71Z" fill="#3F00F9"/>
<path d="M130.94 306.6V306.67C130.88 306.75 130.83 306.85 130.77 306.95C130.681 307.159 130.614 307.377 130.57 307.6C130.491 308.077 130.491 308.563 130.57 309.04C130.791 310.035 131.126 311.002 131.57 311.92C132.541 313.655 133.624 315.325 134.81 316.92C136.81 320.35 137.51 323.84 138.27 326.62C138.787 328.84 139.476 331.017 140.33 333.13C140.722 333.875 141.076 334.639 141.39 335.42C141.39 335.42 141.21 335.27 140.96 334.91C140.589 334.398 140.255 333.86 139.96 333.3C138.943 331.222 138.136 329.048 137.55 326.81C136.71 324.04 135.94 320.62 133.99 317.41C132.755 315.803 131.639 314.109 130.65 312.34C130.153 311.351 129.783 310.302 129.55 309.22C129.439 308.625 129.439 308.015 129.55 307.42C129.598 307.1 129.696 306.789 129.84 306.5C129.905 306.37 129.982 306.246 130.07 306.13C130.195 305.916 130.379 305.742 130.6 305.63C130.714 305.574 130.838 305.544 130.965 305.544C131.092 305.544 131.217 305.574 131.33 305.63C131.541 305.762 131.717 305.944 131.84 306.16C132.005 306.422 132.142 306.7 132.25 306.99C132.364 307.446 132.603 307.862 132.94 308.19C133.747 308.796 134.641 309.278 135.59 309.62C137.496 310.457 139.2 311.691 140.59 313.24C141.854 314.633 142.869 316.233 143.59 317.97C144.138 319.479 144.598 321.018 144.97 322.58C145.587 324.832 145.763 327.181 145.49 329.5C145.412 330.354 145.182 331.187 144.81 331.96C144.72 331.96 144.96 331.06 145.09 329.46C145.209 327.196 144.932 324.928 144.27 322.76C143.861 321.249 143.374 319.76 142.81 318.3C142.104 316.676 141.131 315.182 139.93 313.88C138.608 312.444 136.996 311.306 135.2 310.54C134.147 310.16 133.159 309.621 132.27 308.94C131.821 308.506 131.493 307.961 131.32 307.36C131.238 307.135 131.13 306.921 131 306.72L130.94 306.6Z" fill="#3F00F9"/>
<path d="M159.58 377.54C160.651 380.798 161.509 384.121 162.15 387.49C162.503 389.052 162.961 390.589 163.52 392.09C164.083 393.511 164.752 394.888 165.52 396.21C167.004 398.653 168.619 401.013 170.36 403.28C171.97 405.44 173.47 407.48 174.69 409.46C175.769 411.236 176.724 413.083 177.55 414.99C178.166 416.4 178.989 417.711 179.99 418.88C180.619 419.607 181.452 420.13 182.38 420.38C183.02 420.54 183.38 420.5 183.38 420.56C183.38 420.62 183.29 420.56 183.12 420.61C182.858 420.642 182.592 420.642 182.33 420.61C181.321 420.429 180.397 419.932 179.69 419.19C178.601 418.032 177.703 416.709 177.03 415.27C176.146 413.408 175.144 411.604 174.03 409.87C172.8 407.96 171.29 405.96 169.65 403.87C167.849 401.601 166.18 399.23 164.65 396.77C163.847 395.407 163.145 393.986 162.55 392.52C161.968 390.984 161.491 389.41 161.12 387.81C160.474 384.48 159.619 381.193 158.56 377.97C156.19 371.43 152.64 365.74 149.84 360.34C147.18 355.581 145.236 350.456 144.07 345.13C143.273 341.539 143.219 337.823 143.91 334.21C144.021 333.646 144.162 333.089 144.33 332.54C144.442 332.135 144.579 331.738 144.74 331.35C144.843 331.02 144.988 330.704 145.17 330.41C145.27 330.41 144.72 331.77 144.3 334.28C143.776 337.844 143.935 341.475 144.77 344.98C146.052 350.173 148.054 355.162 150.72 359.8C153.56 365.13 157.16 370.86 159.58 377.54Z" fill="#3F00F9"/>
<path d="M215.26 439.03C216.797 439.795 218.275 440.674 219.68 441.66C220.966 442.612 222.182 443.655 223.32 444.78C225.222 446.634 227.251 448.355 229.39 449.93C233.05 452.61 235.57 453.93 235.49 454.04C234.842 453.881 234.222 453.625 233.65 453.28C232.034 452.458 230.471 451.536 228.97 450.52C226.742 449.007 224.639 447.318 222.68 445.47C221.556 444.39 220.36 443.388 219.1 442.47C217.728 441.522 216.287 440.676 214.79 439.94C208.57 436.85 202.91 434.04 198.86 431.94C196.86 430.94 195.2 430.04 194.08 429.42C193.472 429.147 192.904 428.794 192.39 428.37C193.037 428.521 193.661 428.753 194.25 429.06C195.43 429.57 197.11 430.33 199.18 431.3C203.32 433.23 209 435.93 215.26 439.03Z" fill="#3F00F9"/>
<path d="M149.26 378.72C147.163 377.38 144.99 376.165 142.75 375.08C140.67 374.08 138.75 373.32 137.11 372.75C133.83 371.59 131.71 371.1 131.75 370.94C132.265 370.896 132.784 370.947 133.28 371.09C133.869 371.18 134.453 371.301 135.03 371.45C135.71 371.62 136.49 371.79 137.33 372.06C139.313 372.652 141.254 373.377 143.14 374.23C147.777 376.307 152.065 379.09 155.85 382.48C157.398 383.85 158.848 385.327 160.19 386.9C160.79 387.55 161.26 388.2 161.69 388.75C162.048 389.219 162.382 389.706 162.69 390.21C163.23 391.03 163.51 391.5 163.45 391.54C163.39 391.58 162 389.91 159.61 387.39C158.207 385.914 156.729 384.512 155.18 383.19C153.298 381.583 151.321 380.09 149.26 378.72Z" fill="#3F00F9"/>
<path d="M103.17 351.13C101.259 350.131 99.248 349.337 97.1702 348.76C95.2371 348.273 93.2396 348.09 91.2502 348.22C89.4255 348.333 87.609 348.553 85.8102 348.88C84.1002 349.17 82.5102 349.44 81.1002 349.78C78.8419 350.212 76.7115 351.153 74.8702 352.53C73.6102 353.53 73.1702 354.38 73.0802 354.32C72.9902 354.26 73.1502 354.1 73.3702 353.72C73.7172 353.172 74.134 352.671 74.6102 352.23C76.4243 350.68 78.5909 349.598 80.9202 349.08C82.3502 348.69 83.9202 348.37 85.6602 348.08C87.4887 347.706 89.3391 347.449 91.2002 347.31C93.2875 347.152 95.3866 347.324 97.4202 347.82C99.5707 348.402 101.653 349.214 103.63 350.24C110.555 353.729 116.87 358.315 122.33 363.82C123.975 365.484 125.524 367.241 126.97 369.08C127.542 369.722 128.036 370.431 128.44 371.19C127.791 370.629 127.198 370.006 126.67 369.33C125.57 368.11 123.94 366.33 121.82 364.33C116.291 359.031 110.006 354.583 103.17 351.13Z" fill="#3F00F9"/>
<path d="M71.0701 355.64C71.1568 354.977 71.4132 354.349 71.8144 353.814C72.2156 353.28 72.748 352.858 73.36 352.59C73.9489 352.354 74.5809 352.244 75.215 352.268C75.849 352.292 76.4708 352.45 77.04 352.73C78.9904 353.756 80.7226 355.152 82.1401 356.84C84.9601 359.84 87.5101 362.43 89.6501 364.66C91.7901 366.89 93.4801 368.72 94.6501 369.99C95.2936 370.614 95.8731 371.301 96.3801 372.04C95.6548 371.52 94.9846 370.927 94.3801 370.27C93.1301 369.08 91.3801 367.33 89.1501 365.16L81.48 357.5C80.76 356.78 80.0501 356.02 79.2601 355.35C78.4894 354.653 77.6157 354.08 76.67 353.65C76.226 353.427 75.7401 353.301 75.2439 353.278C74.7477 353.256 74.2523 353.338 73.79 353.52C73.3337 353.719 72.9376 354.035 72.6411 354.435C72.3446 354.835 72.1581 355.305 72.1001 355.8C71.9797 357.965 72.6554 360.099 74.0001 361.8C75.2492 363.484 76.6887 365.017 78.29 366.37C81.0785 368.614 84.1271 370.515 87.37 372.03C88.5688 372.68 89.8198 373.228 91.11 373.67C92.096 373.836 93.1091 373.648 93.9701 373.14C94.7333 372.67 95.5488 372.291 96.4001 372.01C96.4001 372.01 96.2201 372.18 95.8401 372.43C95.4601 372.68 94.9101 373.06 94.1501 373.49C93.7245 373.739 93.2757 373.947 92.81 374.11C92.2243 374.308 91.5968 374.35 90.99 374.23C90.3306 374.082 89.6899 373.861 89.0801 373.57L87.0801 372.68C83.714 371.25 80.5502 369.384 77.67 367.13C75.9878 365.748 74.4771 364.171 73.17 362.43C72.4712 361.481 71.9122 360.437 71.5101 359.33C71.0686 358.153 70.9177 356.887 71.0701 355.64Z" fill="#3F00F9"/>
<path d="M110.23 408.27C105.41 405.517 100.946 402.182 96.94 398.34C96 397.46 95.08 396.69 94.2 395.78C93.3384 394.898 92.6588 393.854 92.2 392.71C91.9714 392.135 91.8756 391.517 91.92 390.9C91.9734 390.277 92.238 389.691 92.67 389.24C93.0593 388.815 93.552 388.498 94.1 388.32C94.6 388.13 95.1 388.02 95.55 387.89C98.4871 387.089 101.473 386.481 104.49 386.07C105.55 385.93 106.39 385.85 106.95 385.81C107.239 385.768 107.531 385.768 107.82 385.81C106.744 386.096 105.652 386.316 104.55 386.47C102.45 386.88 99.41 387.47 95.74 388.59C94.8178 388.748 93.9566 389.156 93.25 389.77C92.9561 390.142 92.7752 390.59 92.7291 391.062C92.683 391.533 92.7736 392.008 92.99 392.43C93.4301 393.451 94.0576 394.38 94.84 395.17C95.63 395.98 96.62 396.8 97.55 397.64C101.528 401.394 105.939 404.66 110.69 407.37C113.212 408.664 115.807 409.812 118.46 410.81C121.02 411.81 123.51 412.81 125.84 413.81C130.51 415.81 134.62 417.87 138.01 419.7C141.4 421.53 144.08 423.11 145.9 424.25C146.81 424.82 147.51 425.25 147.98 425.6C148.45 425.95 148.68 426.1 148.66 426.13C147.623 425.692 146.62 425.177 145.66 424.59C143.78 423.59 141.06 422.06 137.66 420.34C134.26 418.62 130.12 416.65 125.45 414.68C123.12 413.68 120.65 412.68 118.07 411.68C115.394 410.693 112.777 409.554 110.23 408.27Z" fill="#3F00F9"/>
<path d="M106.56 395.49C107.828 396.711 108.952 398.073 109.91 399.55C110.688 400.758 111.329 402.049 111.82 403.4C112.355 404.612 112.625 405.925 112.61 407.25C112.43 407.25 112.11 405.82 111.15 403.67C110.588 402.415 109.919 401.21 109.15 400.07C108.185 398.685 107.087 397.399 105.87 396.23C104.639 395.101 103.299 394.096 101.87 393.23C100.688 392.521 99.4463 391.916 98.16 391.42C95.95 390.58 94.47 390.34 94.5 390.17C95.8225 390.08 97.149 390.274 98.39 390.74C99.7809 391.147 101.122 391.707 102.39 392.41C103.89 393.279 105.288 394.312 106.56 395.49Z" fill="#3F00F9"/>
<path d="M471.21 467.13C468.57 466.13 465.83 465.3 463.29 464.33C460.75 463.36 458.29 462.39 456 461.33C451.929 459.517 448.077 457.245 444.52 454.56C442.114 452.755 439.946 450.651 438.07 448.3C437.551 447.662 437.07 446.994 436.63 446.3C436.32 445.83 436.18 445.58 436.21 445.56C436.24 445.54 436.44 445.75 436.8 446.18C437.16 446.61 437.64 447.26 438.37 448.02C440.339 450.235 442.545 452.227 444.95 453.96C448.523 456.524 452.358 458.703 456.39 460.46C458.66 461.46 461.09 462.46 463.63 463.36C466.17 464.26 468.85 465.09 471.63 466.15C472.993 466.664 474.292 467.335 475.5 468.15C476.678 468.983 477.694 470.023 478.5 471.22C478.831 471.732 479.263 472.171 479.77 472.51C480.273 472.777 480.842 472.895 481.41 472.85C482.61 472.85 483.89 472.37 485.25 472.42C486.517 472.5 487.763 472.784 488.94 473.26C490.06 473.69 491.11 474.14 492.14 474.56L497.85 476.92C501.34 478.37 504.16 479.56 506.09 480.41C507.124 480.8 508.127 481.268 509.09 481.81C508.023 481.568 506.979 481.234 505.97 480.81C503.97 480.08 501.12 478.99 497.6 477.62L491.84 475.38C489.77 474.63 487.59 473.47 485.24 473.38C484.09 473.38 482.88 473.77 481.47 473.85C480.714 473.903 479.957 473.74 479.29 473.38C478.665 472.978 478.128 472.454 477.71 471.84C476.973 470.731 476.037 469.769 474.95 469C473.78 468.233 472.525 467.606 471.21 467.13Z" fill="#3F00F9"/>
<path d="M340.84 463.84C334.62 463.646 328.415 463.125 322.25 462.28C316.25 461.46 310.58 460.46 305.1 460.17C299.916 459.828 294.71 460.318 289.68 461.62C284.94 462.79 280.59 464.24 276.52 465.26C272.866 466.253 269.105 466.797 265.32 466.88C262.45 466.936 259.589 466.545 256.84 465.72C255.109 465.194 253.464 464.415 251.96 463.41C251.566 463.154 251.189 462.873 250.83 462.57C250.701 462.478 250.584 462.37 250.48 462.25C250.48 462.25 251.03 462.6 252.07 463.25C253.598 464.17 255.243 464.88 256.96 465.36C259.677 466.112 262.492 466.449 265.31 466.36C269.033 466.219 272.727 465.631 276.31 464.61C280.31 463.56 284.66 462.06 289.45 460.85C291.924 460.196 294.445 459.731 296.99 459.46C299.691 459.188 302.409 459.128 305.12 459.28C310.68 459.55 316.42 460.54 322.36 461.34C328.49 462.165 334.658 462.675 340.84 462.87C352.788 463.258 364.746 462.502 376.55 460.61C381.99 459.74 387.11 458.61 391.87 457.48C396.63 456.35 401.02 455.04 405.03 453.88L424.03 448.36L429.21 446.9L430.57 446.55C430.723 446.505 430.881 446.475 431.04 446.46C430.902 446.542 430.754 446.606 430.6 446.65L429.27 447.1L424.15 448.74L405.24 454.57C401.24 455.78 396.85 457.08 392.08 458.3C387.31 459.52 382.16 460.64 376.7 461.54C364.85 463.475 352.84 464.245 340.84 463.84Z" fill="#3F00F9"/>
<path d="M239.42 455.13C233.14 452.55 228.29 449.94 228.42 449.69C228.55 449.44 233.57 451.62 239.82 454.19C246.07 456.76 251.18 458.77 251.08 459.04C250.98 459.31 245.7 457.74 239.42 455.13Z" fill="#3F00F9"/>
<path d="M295.47 454.97C292.803 455.358 290.206 456.13 287.76 457.26C285.88 458.14 284.76 458.85 284.69 458.71C284.62 458.57 285.57 457.71 287.43 456.62C288.52 455.996 289.665 455.474 290.85 455.06C292.302 454.552 293.799 454.183 295.32 453.96C296.847 453.746 298.391 453.682 299.93 453.77C301.181 453.837 302.423 454.021 303.64 454.32C305.72 454.83 306.9 455.45 306.86 455.56C306.82 455.67 305.55 455.34 303.5 455.03C300.841 454.617 298.135 454.597 295.47 454.97Z" fill="#3F00F9"/>
<path d="M425.07 443.05C421.19 445.56 417.64 447.79 415.07 449.36C413.713 450.293 412.266 451.087 410.75 451.73C410.67 451.61 412.18 450.48 414.67 448.73C417.16 446.98 420.67 444.67 424.54 442.16L430.06 438.67C430.93 438.14 431.68 437.67 432.52 437.18C432.975 436.922 433.503 436.824 434.02 436.9C434.45 436.994 434.859 437.163 435.23 437.4C437.86 438.93 439.45 439.93 439.38 440.06C439.31 440.19 437.6 439.4 434.89 438.06C434.58 437.884 434.241 437.762 433.89 437.7C433.538 437.667 433.185 437.755 432.89 437.95C432.19 438.37 431.36 438.95 430.54 439.49L425.07 443.05Z" fill="#3F00F9"/>
<path d="M466.63 455.65C464.51 454.086 462.589 452.27 460.91 450.24C459.62 448.71 458.91 447.69 459.02 447.6C459.13 447.51 460.02 448.36 461.44 449.75C463.232 451.588 465.164 453.283 467.22 454.82C469.255 456.33 471.591 457.383 474.07 457.91C474.779 458.135 475.535 458.166 476.26 458C476.74 457.85 476.91 457.57 476.98 457.62C477.05 457.67 476.98 458.03 476.43 458.36C475.656 458.71 474.791 458.804 473.96 458.63C471.301 458.282 468.777 457.256 466.63 455.65Z" fill="#3F00F9"/>
<path d="M507.86 391.8L488.07 384.68C481.99 382.47 476.49 380.57 471.78 379.28C468.072 378.237 464.301 377.432 460.49 376.87C457.78 376.5 456.27 376.39 456.28 376.3C456.646 376.258 457.015 376.258 457.38 376.3C458.1 376.3 459.17 376.38 460.54 376.49C464.398 376.904 468.219 377.609 471.97 378.6C476.73 379.81 482.29 381.65 488.39 383.81L508.24 390.81L528.06 397.94L536.7 401.08C539.173 402.048 541.696 402.88 544.26 403.57C546.356 404.124 548.535 404.29 550.69 404.06C552.313 403.86 553.878 403.333 555.29 402.51C556.478 401.767 557.519 400.811 558.36 399.69C558.36 399.69 558.36 399.79 558.25 399.95C558.133 400.201 557.989 400.439 557.82 400.66C557.189 401.527 556.402 402.269 555.5 402.85C554.065 403.765 552.454 404.368 550.77 404.62C548.542 404.927 546.275 404.809 544.09 404.27C541.486 403.621 538.921 402.819 536.41 401.87L527.74 398.87L507.86 391.8Z" fill="#3F00F9"/>
<path d="M432.24 371.59C426.93 371.22 422.66 372.2 422.59 371.89C422.52 371.58 426.81 370.19 432.31 370.57C437.81 370.95 441.9 372.93 441.77 373.15C441.64 373.37 437.56 371.92 432.24 371.59Z" fill="#3F00F9"/>
<path d="M273.21 388.13C272.297 388.99 271.335 389.798 270.33 390.55C269.484 391.158 268.567 391.661 267.6 392.05C265.92 392.69 264.78 392.61 264.78 392.5C264.78 392.39 265.78 392.15 267.3 391.39C268.17 390.937 268.994 390.402 269.76 389.79C270.64 389.1 271.56 388.27 272.52 387.38C274.12 385.766 275.89 384.331 277.8 383.1C279.33 382.2 280.42 381.98 280.46 382.1C280.5 382.22 279.55 382.71 278.19 383.71C276.449 385.089 274.786 386.564 273.21 388.13Z" fill="#3F00F9"/>
<path d="M258.29 398.13C257.769 397.596 257.147 397.17 256.461 396.876C255.774 396.583 255.037 396.428 254.29 396.42C253.12 396.42 252.39 396.67 252.29 396.52C252.19 396.37 252.89 395.87 254.22 395.7C255.097 395.589 255.988 395.689 256.819 395.992C257.649 396.295 258.396 396.792 258.995 397.441C259.595 398.091 260.031 398.874 260.266 399.726C260.502 400.578 260.531 401.475 260.35 402.34C260.07 403.65 259.46 404.26 259.35 404.19C259.24 404.12 259.55 403.41 259.61 402.24C259.728 400.75 259.254 399.273 258.29 398.13Z" fill="#3F00F9"/>
<path d="M154.31 313.55C155.65 315.55 156.55 317.33 156.31 317.49C156.07 317.65 154.8 316.13 153.46 314.11C152.12 312.09 151.22 310.32 151.46 310.17C151.7 310.02 152.97 311.52 154.31 313.55Z" fill="#3F00F9"/>
<path d="M123.74 399.24C128.14 403.12 132.47 406.67 136.42 409.9L146.9 418.48C149.9 420.93 152.27 422.93 153.9 424.33C154.79 425.011 155.62 425.767 156.38 426.59C155.422 426.01 154.51 425.358 153.65 424.64C151.93 423.34 149.47 421.42 146.43 419.04L135.82 410.63C131.82 407.44 127.48 403.9 123.05 400C118.62 396.1 114.64 392.13 110.98 388.6C107.788 385.432 104.373 382.498 100.76 379.82C98.3142 378.037 95.6981 376.499 92.9501 375.23C91.9501 374.77 91.2001 374.48 90.6701 374.23C90.3938 374.14 90.1314 374.012 89.8901 373.85C89.8901 373.85 90.1901 373.85 90.7401 374.04C91.5441 374.252 92.3327 374.52 93.1002 374.84C95.9511 375.973 98.6595 377.437 101.17 379.2C104.877 381.82 108.375 384.726 111.63 387.89C115.36 391.43 119.31 395.38 123.74 399.24Z" fill="#3F00F9"/>
<path d="M194.97 440.13C199.86 442.18 204.45 444.26 208.66 446.04C212.87 447.82 216.71 449.34 219.98 450.43C222.535 451.341 225.218 451.838 227.93 451.9C229.85 451.9 230.93 451.61 230.93 451.71C230.699 451.837 230.449 451.925 230.19 451.97C229.459 452.15 228.712 452.261 227.96 452.3C225.185 452.389 222.416 451.99 219.78 451.12C216.44 450.12 212.57 448.66 208.32 446.91C204.07 445.16 199.46 443.12 194.6 441.07C189.74 439.02 185.03 437.24 180.67 435.91C179.58 435.57 178.5 435.3 177.46 435C176.42 434.7 175.4 434.5 174.46 434.26C172.46 433.84 170.63 433.51 168.91 433.26C167.353 433.001 165.819 432.624 164.32 432.13C163.18 431.743 162.105 431.187 161.13 430.48C160.516 430.035 159.973 429.498 159.52 428.89C159.24 428.45 159.11 428.22 159.14 428.2C159.811 428.939 160.555 429.609 161.36 430.2C162.338 430.815 163.394 431.296 164.5 431.63C165.985 432.055 167.499 432.372 169.03 432.58C170.73 432.83 172.62 433.12 174.64 433.51C175.64 433.74 176.64 433.95 177.74 434.21C178.84 434.47 179.88 434.75 180.99 435.09C185.739 436.511 190.406 438.194 194.97 440.13Z" fill="#3F00F9"/>
</g>
<defs>
<radialGradient id="paint0_radial_1_12" cx="0" cy="0" r="1" gradientUnits="userSpaceOnUse" gradientTransform="translate(479.366 281.193) rotate(-179.71) scale(82.6474 118.566)">
<stop stop-color="#0894FF"/>
<stop offset="0.290475" stop-color="#6E53FF"/>
<stop offset="0.609151" stop-color="#B038EA"/>
<stop offset="0.850793" stop-color="#F95088"/>
<stop offset="1" stop-color="#FF6F62"/>
</radialGradient>
<radialGradient id="paint1_radial_1_12" cx="0" cy="0" r="1" gradientUnits="userSpaceOnUse" gradientTransform="translate(405.366 28.3647) rotate(-179.71) scale(82.6474 118.566)">
<stop stop-color="#0894FF"/>
<stop offset="0.290475" stop-color="#6E53FF"/>
<stop offset="0.609151" stop-color="#B038EA"/>
<stop offset="0.850793" stop-color="#F95088"/>
<stop offset="1" stop-color="#FF6F62"/>
</radialGradient>
<radialGradient id="paint2_radial_1_12" cx="0" cy="0" r="1" gradientUnits="userSpaceOnUse" gradientTransform="translate(97.3656 49.7735) rotate(-179.71) scale(82.6474 118.566)">
<stop stop-color="#0894FF"/>
<stop offset="0.290475" stop-color="#6E53FF"/>
<stop offset="0.609151" stop-color="#B038EA"/>
<stop offset="0.850793" stop-color="#F95088"/>
<stop offset="1" stop-color="#FF6F62"/>
</radialGradient>
<radialGradient id="paint3_radial_1_12" cx="0" cy="0" r="1" gradientUnits="userSpaceOnUse" gradientTransform="translate(86.3656 299.543) rotate(-179.71) scale(82.6474 118.566)">
<stop stop-color="#0894FF"/>
<stop offset="0.290475" stop-color="#6E53FF"/>
<stop offset="0.609151" stop-color="#B038EA"/>
<stop offset="0.850793" stop-color="#F95088"/>
<stop offset="1" stop-color="#FF6F62"/>
</radialGradient>
<radialGradient id="paint4_radial_1_12" cx="0" cy="0" r="1" gradientUnits="userSpaceOnUse" gradientTransform="translate(347.582 228.011) rotate(-179.596) scale(120.936 241.438)">
<stop stop-color="#0894FF"/>
<stop offset="0.290475" stop-color="#6E53FF"/>
<stop offset="0.609151" stop-color="#B038EA"/>
<stop offset="0.850793" stop-color="#F95088"/>
<stop offset="1" stop-color="#FF6F62"/>
</radialGradient>
<radialGradient id="paint5_radial_1_12" cx="0" cy="0" r="1" gradientUnits="userSpaceOnUse" gradientTransform="translate(275.291 105.765) rotate(-179.521) scale(117.574 278.36)">
<stop stop-color="#0894FF"/>
<stop offset="0.290475" stop-color="#6E53FF"/>
<stop offset="0.609151" stop-color="#B038EA"/>
<stop offset="0.850793" stop-color="#F95088"/>
<stop offset="1" stop-color="#FF6F62"/>
</radialGradient>
<clipPath id="clip0_1_12">
<rect width="502.29" height="182.05" fill="white" transform="translate(71 300)"/>
</clipPath>
</defs>
</svg>
