<svg width="290" height="200" viewBox="0 0 290 200" fill="none" xmlns="http://www.w3.org/2000/svg">
<g opacity="0.5">
<line x1="58.5603" y1="101.522" x2="91.7543" y2="137.175" stroke="#2929CC" stroke-width="0.877193" stroke-linecap="round" stroke-dasharray="7.02 7.02"/>
<line x1="57.906" y1="101.506" x2="89.2356" y2="66.491" stroke="#2929CC" stroke-width="0.877193" stroke-linecap="round" stroke-dasharray="7.02 7.02"/>
<line x1="0.438596" y1="-0.438596" x2="69.6651" y2="-0.438596" transform="matrix(0.017851 0.999841 -0.999841 0.0178576 89.8517 66.4534)" stroke="#2929CC" stroke-width="0.877193" stroke-linecap="round" stroke-dasharray="7.02 7.02"/>
<line x1="0.438596" y1="-0.438596" x2="131.706" y2="-0.438596" transform="matrix(0.9991 0.0424225 -0.0424068 0.9991 91.1031 137.172)" stroke="#2929CC" stroke-width="0.877193" stroke-linecap="round" stroke-dasharray="7.02 7.02"/>
<line x1="0.438596" y1="-0.438596" x2="44.9715" y2="-0.438596" transform="matrix(0.124012 0.992281 -0.992275 0.124057 217.497 97.7449)" stroke="#2929CC" stroke-width="0.877193" stroke-linecap="round" stroke-dasharray="7.02 7.02"/>
<line x1="0.438596" y1="-0.438596" x2="57.1369" y2="-0.438596" transform="matrix(-0.608589 -0.793486 0.793377 -0.60873 218.122 97.7449)" stroke="#2929CC" stroke-width="0.877193" stroke-linecap="round" stroke-dasharray="7.02 7.02"/>
<line x1="0.438596" y1="-0.438596" x2="93.8969" y2="-0.438596" transform="matrix(0.988291 -0.152583 0.152528 0.988299 89.8517 66.4534)" stroke="#2929CC" stroke-width="0.877193" stroke-linecap="round" stroke-dasharray="7.02 7.02"/>
<line x1="0.438596" y1="-0.438596" x2="99.0037" y2="-0.438596" transform="matrix(0.408993 0.912538 -0.912481 0.409119 182.457 51.4336)" stroke="#2929CC" stroke-width="0.877193" stroke-linecap="round" stroke-dasharray="7.02 7.02"/>
<line x1="0.438596" y1="-0.438596" x2="123.994" y2="-0.438596" transform="matrix(-0.734162 0.678974 -0.678839 -0.734287 182.457 51.4336)" stroke="#2929CC" stroke-width="0.877193" stroke-linecap="round" stroke-dasharray="7.02 7.02"/>
<line x1="0.438596" y1="-0.438596" x2="152.848" y2="-0.438596" transform="matrix(0.869457 0.494008 -0.49387 0.869536 89.8517 65.8276)" stroke="#2929CC" stroke-width="0.877193" stroke-linecap="round" stroke-dasharray="7.02 7.02"/>
</g>
<path d="M77.3003 118.442H104.434C105.214 118.426 105.988 118.577 106.703 118.887C107.419 119.196 108.06 119.656 108.582 120.235C109.426 121.239 109.868 122.52 109.822 123.831V149.807C109.784 151.002 109.335 152.149 108.553 153.054C108.079 153.581 107.505 154.008 106.865 154.311C106.224 154.614 105.53 154.786 104.822 154.818H77.7364C77.0177 154.855 76.299 154.741 75.6271 154.483C74.9551 154.225 74.3449 153.829 73.836 153.32C73.3271 152.811 72.9308 152.201 72.6728 151.529C72.4149 150.857 72.301 150.138 72.3387 149.419V123.065C72.4361 121.877 72.9526 120.763 73.7959 119.922C74.6392 119.08 75.7543 118.566 76.9418 118.471L77.3003 118.442Z" fill="#8585FF"/>
<path d="M104.657 118.441L76.5543 118.587C76.6125 119.866 76.942 122.609 78.8316 124.402C79.8907 125.328 81.0873 126.083 82.3785 126.641C82.6789 126.777 83.0956 126.942 83.7933 127.262C84.1519 127.426 85.3244 127.969 86.1288 128.425C87.803 129.375 89.2046 130.74 90.1989 132.389C90.6079 133.047 90.9334 133.754 91.1679 134.492C91.3847 135.332 91.5018 136.194 91.5168 137.061C91.6234 138.708 91.449 138.999 91.6234 140.056C91.7522 140.774 91.9602 141.477 92.2436 142.149C93.329 144.64 95.9552 145.939 96.8467 146.356C97.7383 146.773 97.6026 146.559 103.766 148.12C105.1 148.403 106.375 148.915 107.536 149.632C108.282 150.113 108.963 150.69 109.561 151.348C109.727 150.863 109.822 150.357 109.842 149.845V123.869C109.887 122.558 109.446 121.277 108.602 120.273C108.106 119.712 107.5 119.26 106.821 118.945C106.142 118.63 105.406 118.458 104.657 118.441Z" fill="#6363F6"/>
<path d="M98.6976 124.732C99.8878 124.714 101.037 125.167 101.894 125.994C102.751 126.82 103.246 127.952 103.272 129.142C103.272 134.311 103.272 139.481 103.272 144.65C103.241 145.64 102.873 146.59 102.227 147.341C101.582 148.093 100.699 148.6 99.7248 148.779L83.0276 148.857C82.4113 148.86 81.8017 148.729 81.241 148.473C80.6804 148.217 80.1823 147.842 79.7812 147.374C79.1865 146.629 78.8711 145.7 78.8897 144.747C78.8897 139.339 78.8897 133.937 78.8897 128.541C78.9745 127.593 79.3897 126.705 80.0628 126.031C80.7359 125.358 81.6241 124.943 82.5722 124.858L98.6976 124.732Z" fill="#ADADFF"/>
<path d="M98.6973 124.732L82.5235 124.897C81.8039 124.965 81.1152 125.223 80.5272 125.643C81.0909 126.008 81.6803 126.332 82.2909 126.612C82.5913 126.738 83.008 126.913 83.7058 127.233C84.0643 127.397 85.2369 127.93 86.0316 128.396C87.7093 129.345 89.1144 130.71 90.1114 132.36C90.5221 133.017 90.8478 133.724 91.0804 134.463C91.2966 135.3 91.4137 136.158 91.4293 137.022C91.5262 138.67 91.3615 138.961 91.5359 140.027C91.6653 140.742 91.8733 141.441 92.1561 142.111C93.2318 144.611 95.8677 145.9 96.7592 146.327C97.6507 146.753 97.5635 146.579 101.983 147.664L102.147 147.509C102.837 146.743 103.235 145.758 103.271 144.728C103.271 139.558 103.271 134.389 103.271 129.22C103.246 128.029 102.751 126.897 101.894 126.071C101.037 125.245 99.8876 124.791 98.6973 124.809V124.732Z" fill="#8585FF"/>
<path d="M112.765 78.9074C112.87 85.5829 112.901 92.3231 112.859 99.1279C112.859 100.88 112.828 102.62 112.809 104.36C112.78 107.455 113.367 110.525 114.536 113.39C115.242 115.089 116.129 116.707 117.183 118.216C118.317 119.894 119.571 121.488 120.937 122.984C121.356 123.454 123.14 125.488 125.793 127.953C128.07 130.075 129.91 131.514 130.366 131.871C131.505 132.76 132.869 133.667 135.529 135.482C138.188 137.297 139.245 137.935 140.847 138.398C141.627 138.628 142.428 138.783 143.237 138.862C144.143 138.865 145.046 138.762 145.928 138.555C146.847 138.32 147.736 137.984 148.581 137.554C149.894 136.852 151.136 136.027 152.291 135.088C154.012 133.836 154.876 133.173 155.339 132.81C158.206 130.526 160.884 128.014 163.348 125.3C164.812 123.733 166.178 122.078 167.44 120.343C169.276 117.963 170.763 115.333 171.857 112.533C172.547 110.688 173.029 108.771 173.296 106.819C173.363 103.064 173.405 99.2635 173.422 95.4167C173.422 91.036 173.407 86.7094 173.378 82.4371C173.482 81.6931 173.518 80.941 173.484 80.1904C173.329 77.6554 172.444 75.2193 170.938 73.1749C169.627 71.6692 168.135 70.3322 166.495 69.1946C164.322 67.7197 161.938 66.5825 159.424 65.8214C153.749 63.9439 149.056 63.7687 144.407 63.5747C140.344 63.3827 136.271 63.5775 132.244 64.1567C130.837 64.3646 129.444 64.653 128.07 65.0204C125.838 65.5811 123.676 66.3914 121.625 67.436C119.691 68.4272 117.873 69.6321 116.207 71.0283C114.135 73.1515 112.917 75.9626 112.784 78.9262L112.765 78.9074Z" fill="#D1C2FF"/>
<path d="M123.358 77.0424C123.06 77.5464 122.823 78.0843 122.651 78.6445C122.499 79.1246 122.398 79.6198 122.351 80.1215L122.539 105.78C122.601 106.212 122.701 106.8 122.858 107.483C123.152 108.839 123.571 110.165 124.109 111.444C124.528 112.397 125.017 113.318 125.573 114.198C126.049 114.967 127.125 116.595 130.435 119.937C131.687 121.188 132.769 122.29 134.39 123.691C137.252 126.174 140.364 128.353 143.675 130.194C144.213 130.488 144.664 130.726 144.958 130.876C145.784 130.363 147.004 129.581 148.443 128.579C152.728 125.732 156.611 122.322 159.988 118.441C161.808 116.288 163.629 114.11 165.075 110.681C165.692 109.222 166.172 107.71 166.507 106.162C166.414 102.726 166.382 99.8287 166.364 97.6571C166.364 93.5579 166.364 90.3349 166.414 86.7803C166.445 84.0642 166.482 81.7736 166.514 80.1402C166.299 78.8668 165.756 77.6715 164.937 76.6732C163.404 74.8332 161.183 74.1699 160.106 73.8194C159.825 73.7318 159.919 73.7756 158.11 73.2812L155.314 72.4989C155.314 72.4989 153.186 71.9106 150.521 71.4788C147.43 71.0298 144.299 70.9269 141.185 71.1721C138.281 71.3832 135.395 71.8015 132.55 72.4238C132.325 72.4676 130.948 72.7743 129.184 73.3438C128.12 73.6612 127.089 74.0803 126.105 74.5954C125.303 74.9834 124.584 75.5257 123.99 76.1913C123.756 76.4566 123.545 76.7413 123.358 77.0424Z" fill="#A97FFF"/>
<path d="M137.099 94.4844L142.424 102.501L150.464 87.2687C151.011 86.4328 151.815 85.7979 152.755 85.46C153.156 85.2859 153.59 85.196 154.028 85.196C154.466 85.196 154.899 85.2859 155.301 85.46C155.632 85.6201 155.923 85.8521 156.152 86.1391C156.382 86.426 156.544 86.7606 156.628 87.1185C156.721 87.6499 156.63 88.1972 156.371 88.6705L145.108 108.76C144.868 109.141 144.543 109.463 144.159 109.699C143.774 109.935 143.341 110.08 142.892 110.122C142.442 110.165 141.99 110.103 141.568 109.943C141.146 109.783 140.767 109.528 140.459 109.198L133.12 97.7888C132.79 97.2653 132.646 96.6455 132.713 96.0302C132.752 95.6905 132.857 95.3619 133.023 95.0631C133.19 94.7643 133.413 94.5012 133.681 94.289C133.949 94.0768 134.256 93.9195 134.585 93.8264C134.914 93.7332 135.258 93.7058 135.598 93.7459C136.165 93.8214 136.693 94.0808 137.099 94.4844Z" fill="white"/>
<path d="M122.633 79.1578C122.815 78.3003 123.174 77.4901 123.687 76.779C124.2 76.0678 124.855 75.4713 125.611 75.0274C126.453 74.5195 127.352 74.1121 128.289 73.8133C129.246 73.4691 130.254 73.1874 131.292 72.8871C135.833 71.7452 140.502 71.1961 145.183 71.2536C147.603 71.2536 150.016 71.5011 152.385 71.9921C154.681 72.4677 156.859 73.1061 158.949 73.6631C161.039 74.2201 162.966 74.9773 164.355 76.279C165.026 76.8972 165.555 77.6529 165.907 78.4944C166.069 78.9002 166.196 79.3189 166.288 79.7461L166.401 80.1842C166.401 79.8525 166.401 79.5271 166.401 79.2142C166.328 78.9406 166.24 78.6711 166.138 78.4068C165.775 77.5281 165.229 76.7367 164.536 76.085C163.097 74.727 161.095 73.9447 159.018 73.3689C156.94 72.7932 154.75 72.1611 152.435 71.6729C150.045 71.177 147.611 70.9275 145.171 70.9282C140.475 70.8615 135.792 71.4171 131.242 72.5804C130.197 72.8558 129.184 73.1687 128.214 73.5254C127.258 73.8338 126.343 74.254 125.486 74.777C124.678 75.2732 123.979 75.9291 123.433 76.7046C122.988 77.3485 122.668 78.0703 122.489 78.8324C122.489 79.2496 122.489 79.7002 122.489 80.1842C122.526 79.8525 122.583 79.5145 122.633 79.1578Z" fill="#3F00F9"/>
<path d="M166.401 80.1653C166.401 80.9601 166.37 81.8049 166.351 82.7061C166.313 85.6913 166.263 89.2585 166.207 93.2325C166.163 95.2227 166.207 97.3129 166.207 99.4908C166.207 101.669 166.257 103.872 166.282 106.212C166.145 106.913 165.957 107.683 165.738 108.409C165.041 110.674 163.984 112.812 162.609 114.742C161.351 116.559 159.958 118.279 158.442 119.886C155.855 122.599 153.042 125.087 150.032 127.321C148.08 128.779 146.341 129.931 144.945 130.807L145.114 130.895C146.516 130.05 148.243 128.936 150.176 127.522C153.224 125.308 156.068 122.826 158.674 120.106C160.211 118.494 161.621 116.766 162.891 114.936C164.286 112.978 165.357 110.808 166.063 108.509C166.287 107.764 166.473 107.008 166.62 106.243C166.589 103.922 166.557 101.662 166.532 99.4845C166.507 97.3067 166.464 95.2289 166.501 93.2263C166.501 89.2523 166.551 85.7164 166.576 82.7061V80.9351C166.532 80.691 166.464 80.4281 166.401 80.1653Z" fill="#3F00F9"/>
<path d="M166.539 79.6398C166.501 79.4833 166.457 79.3269 166.42 79.1704C166.42 79.4833 166.42 79.7962 166.42 80.1404C166.42 80.4846 166.551 80.6661 166.614 80.9165C166.614 80.566 166.614 80.2281 166.614 79.8964L166.539 79.6398Z" fill="#3F00F9"/>
<path d="M139.671 127.578C136.5 125.417 133.555 122.943 130.88 120.193C129.277 118.597 127.778 116.9 126.393 115.112C125.004 113.129 123.958 110.927 123.302 108.597C123.127 107.971 122.983 107.401 122.858 106.801C122.789 106.512 122.741 106.22 122.714 105.924C122.714 105.618 122.714 105.299 122.714 105.004C122.714 103.784 122.714 102.582 122.714 101.406C122.714 99.0403 122.695 96.7706 122.658 94.5969C122.614 90.26 122.576 86.3486 122.545 83.0692C122.545 82.0429 122.545 81.0916 122.508 80.1904C122.439 80.616 122.37 81.0353 122.301 81.4421V83.0755C122.301 86.3611 122.301 90.2662 122.339 94.6032C122.339 96.7748 122.339 99.0528 122.37 101.412C122.37 102.595 122.37 103.797 122.37 105.011C122.37 105.317 122.37 105.637 122.37 105.931C122.393 106.249 122.441 106.565 122.514 106.876C122.639 107.501 122.789 108.127 122.964 108.697C123.628 111.064 124.686 113.302 126.093 115.318C127.492 117.116 129.005 118.822 130.623 120.425C133.322 123.177 136.297 125.643 139.502 127.785C141.201 128.924 142.962 129.969 144.777 130.914L144.939 130.813C143.129 129.826 141.37 128.746 139.671 127.578Z" fill="#3F00F9"/>
<path d="M122.482 78.8386C122.482 78.9262 122.432 79.0201 122.414 79.1077C122.376 79.4019 122.338 79.6772 122.295 79.9588V81.4358C122.364 81.0353 122.432 80.616 122.501 80.1841C122.57 79.7523 122.482 79.2704 122.482 78.8386Z" fill="#3F00F9"/>
<path d="M144.802 130.901L144.97 130.989L145.133 130.889L144.964 130.801L144.802 130.901Z" fill="#3F00F9"/>
<path d="M116.432 70.9657L116.695 70.7467C118.288 69.4726 120.012 68.3712 121.838 67.4611C123.947 66.4379 126.16 65.6448 128.439 65.0955C130.955 64.4769 133.516 64.0584 136.098 63.8438C138.879 63.674 141.667 63.649 144.451 63.7687C147.234 63.7762 150.014 63.9853 152.767 64.3945C154.072 64.6119 155.365 64.898 156.64 65.2519C157.891 65.6024 159.143 65.9528 160.282 66.3596C162.499 67.1149 164.604 68.1675 166.539 69.4888C168.061 70.5387 169.455 71.7632 170.693 73.1373C170.431 72.7201 170.162 72.3133 169.886 71.917C168.904 70.9376 167.838 70.0456 166.701 69.2509C164.75 67.9089 162.624 66.8413 160.382 66.078C159.199 65.6587 157.973 65.302 156.721 64.9515C155.436 64.5907 154.133 64.2983 152.817 64.0754C150.047 63.6639 147.251 63.4548 144.451 63.4495C141.657 63.3351 138.858 63.3622 136.067 63.5309C133.466 63.7624 130.889 64.1998 128.358 64.8389C126.06 65.4026 123.83 66.2126 121.706 67.2546C120.463 67.8876 119.267 68.6092 118.127 69.4137C117.531 69.8955 116.964 70.4138 116.432 70.9657Z" fill="#3F00F9"/>
<path d="M143.218 138.73L142.505 138.655L142.023 138.58L141.785 138.53H141.66H141.604H141.554V138.63V138.524C140.865 138.363 140.192 138.136 139.545 137.848C134.258 134.862 129.367 131.225 124.985 127.021C122.437 124.595 120.109 121.948 118.027 119.111C115.919 116.163 114.067 112.796 113.416 108.997C113.052 107.01 112.913 104.989 113.003 102.971C113.04 100.962 113.034 98.9903 113.003 97.0503C113.003 93.1701 112.934 89.4339 112.903 85.8667C112.903 84.0894 112.903 82.3496 112.903 80.6599C112.903 79.8087 112.846 78.9889 112.94 78.1878C113.023 77.3967 113.189 76.6164 113.435 75.8598C114.063 74.0315 115.082 72.3617 116.419 70.9658C115.973 71.3288 115.556 71.6918 115.168 72.0548C114.3 73.1728 113.623 74.4268 113.165 75.7659C112.908 76.5417 112.736 77.3434 112.652 78.1566C112.592 78.9896 112.575 79.8251 112.602 80.6599C112.602 82.3433 112.602 84.0831 112.602 85.8667C112.602 89.4277 112.652 93.1701 112.684 97.044C112.684 98.9841 112.684 100.955 112.684 102.958C112.588 104.999 112.727 107.044 113.097 109.054C113.754 112.915 115.643 116.338 117.771 119.305C119.867 122.154 122.213 124.811 124.779 127.246C129.194 131.45 134.127 135.073 139.458 138.029C139.758 138.161 140.084 138.273 140.353 138.374C140.622 138.474 140.978 138.505 141.322 138.555C141.95 138.652 142.583 138.71 143.218 138.73Z" fill="#3F00F9"/>
<path d="M118.134 69.3574C117.577 69.7517 117.032 70.1522 116.538 70.5527L116.113 70.9157C115.787 71.2724 115.487 71.6542 115.174 72.0547C115.566 71.6918 115.983 71.3288 116.425 70.9658C116.96 70.3942 117.531 69.857 118.134 69.3574Z" fill="#3F00F9"/>
<path d="M153.28 134.537C156.122 132.452 158.8 130.15 161.289 127.653C164.085 124.903 166.6 121.882 168.798 118.635C169.954 116.899 170.951 115.062 171.776 113.146C172.593 111.137 173.162 109.035 173.472 106.888C173.509 104.541 173.547 102.157 173.584 99.7474C173.63 96.151 173.63 92.6255 173.584 89.1709C173.584 87.4499 173.54 85.7477 173.515 84.0642C173.515 83.2256 173.515 82.3932 173.547 81.5609C173.632 80.7287 173.632 79.8898 173.547 79.0576C173.434 78.1736 173.224 77.3047 172.921 76.4667C172.66 75.8074 172.353 75.1675 172.001 74.5516C171.707 74.1699 171.375 73.7881 171.063 73.4064C170.944 73.2624 170.806 73.1247 170.675 72.9871C170.956 73.4189 171.232 73.8632 171.494 74.3138C171.93 75.0367 172.304 75.7944 172.614 76.5793C172.76 76.9885 172.879 77.4066 172.971 77.831C173.015 78.0437 173.059 78.2503 173.096 78.4568L173.153 78.776V78.9387V79.02V79.0764H173.296H173.146C173.228 79.8858 173.228 80.7014 173.146 81.5108C173.102 82.3432 173.109 83.1818 173.115 84.0141C173.115 85.6913 173.159 87.3936 173.178 89.1146C173.178 92.5629 173.178 96.0926 173.178 99.6848C173.14 102.088 173.096 104.46 173.059 106.8C172.754 108.907 172.195 110.968 171.394 112.94C170.582 114.839 169.598 116.659 168.453 118.378C166.282 121.609 163.796 124.617 161.032 127.359C158.582 129.875 155.944 132.201 153.142 134.318C151.828 135.294 150.502 136.195 149.238 137.015C148.028 137.806 146.67 138.341 145.246 138.586C144.585 138.699 143.914 138.747 143.244 138.73H143.506C144.115 138.786 144.729 138.751 145.327 138.624C146.22 138.446 147.104 138.222 147.974 137.954C148.459 137.741 148.927 137.492 149.375 137.209C150.639 136.39 151.953 135.52 153.28 134.537Z" fill="#3F00F9"/>
<path d="M171.088 73.5066C171.426 73.8884 171.714 74.2701 172.027 74.6519L171.801 74.2513C171.582 73.8758 171.344 73.5254 171.113 73.1624C170.729 72.7452 170.312 72.3134 169.861 71.8669C170.137 72.2842 170.406 72.6909 170.669 73.0873C170.831 73.225 170.969 73.3814 171.088 73.5066Z" fill="#3F00F9"/>
<path d="M143.481 138.755H143.219C142.577 138.738 141.938 138.682 141.304 138.586C140.966 138.536 140.678 138.467 140.334 138.405C140.718 138.537 141.108 138.65 141.504 138.743C141.98 138.843 142.43 138.905 142.874 138.955C143.675 139.008 144.479 138.97 145.271 138.843C146.202 138.687 147.107 138.405 147.961 138.004C147.091 138.272 146.208 138.496 145.315 138.674C144.711 138.793 144.093 138.821 143.481 138.755Z" fill="#3F00F9"/>
<path d="M154.669 85.1221C154.069 85.0016 153.449 85.0281 152.862 85.1992C152.275 85.3703 151.738 85.6809 151.296 86.1046C151.071 86.2958 150.862 86.5051 150.671 86.7305C150.574 86.848 150.484 86.9713 150.402 87.0997L150.201 87.4752C149.939 87.9758 149.67 88.4765 149.413 88.9709L147.867 91.8873L142.411 102.22L138.544 96.5497L137.681 95.298C137.618 95.2041 137.531 95.0915 137.487 95.0101C137.43 94.8994 137.365 94.7928 137.293 94.691C137.154 94.4955 136.989 94.3188 136.805 94.1653C136.47 93.8914 136.066 93.7159 135.637 93.6584C135.208 93.6009 134.772 93.6638 134.377 93.8398C133.74 94.105 133.219 94.5888 132.907 95.2041C132.731 95.5697 132.644 95.9717 132.652 96.3773C132.661 96.7829 132.765 97.1808 132.957 97.5385C133.001 97.6314 133.058 97.7177 133.126 97.7951C132.933 97.4418 132.807 97.0555 132.757 96.6561C132.706 96.1758 132.795 95.6912 133.013 95.2605C133.325 94.6898 133.828 94.2469 134.433 94.0088C134.801 93.8505 135.206 93.7971 135.603 93.8546C135.999 93.912 136.372 94.078 136.68 94.3342C136.852 94.4775 137.004 94.6439 137.13 94.8286C137.196 94.9222 137.255 95.0205 137.305 95.1228C137.374 95.2479 137.443 95.3293 137.512 95.4357C137.781 95.8425 138.063 96.268 138.357 96.6873L142.443 102.77C144.163 99.5536 146.084 95.9426 148.162 92.05C148.668 91.0987 149.188 90.1287 149.707 89.1399C149.97 88.6455 150.239 88.1511 150.502 87.6504L150.702 87.2749C150.765 87.1936 150.852 87.0559 150.94 86.9557C151.111 86.7306 151.301 86.5212 151.509 86.3299C151.909 85.942 152.397 85.6573 152.931 85.5002C153.465 85.3432 154.029 85.3187 154.575 85.4287C155.127 85.5345 155.634 85.8025 156.033 86.1985C156.219 86.4009 156.355 86.6433 156.433 86.907C156.51 87.1708 156.525 87.4487 156.477 87.7193C156.424 88.0649 156.302 88.3967 156.121 88.6955L155.582 89.6531L154.519 91.5305L152.46 95.2855L148.531 102.314C147.279 104.554 146.097 106.694 144.983 108.678C144.708 109.126 144.312 109.486 143.839 109.715C143.367 109.945 142.839 110.034 142.317 109.974C141.825 109.906 141.359 109.709 140.966 109.404C140.773 109.265 140.605 109.096 140.465 108.903L140.065 108.278L135.059 100.586L133.676 98.5022C133.514 98.2707 133.389 98.0892 133.307 97.964C133.25 97.8997 133.188 97.8411 133.119 97.7888C133.147 97.8594 133.183 97.9266 133.226 97.9891L133.564 98.5398L134.89 100.661C136.06 102.489 137.75 105.136 139.833 108.409L140.228 109.035C140.376 109.255 140.563 109.448 140.778 109.604C141.208 109.938 141.717 110.153 142.255 110.23C142.833 110.301 143.419 110.204 143.944 109.951C144.469 109.698 144.91 109.3 145.214 108.803L148.787 102.457L152.729 95.4357C153.418 94.2216 154.114 92.9845 154.819 91.7245L155.883 89.8471L156.421 88.8895C156.623 88.5539 156.757 88.1818 156.815 87.7944C156.871 87.4723 156.852 87.1417 156.76 86.8281C156.668 86.5145 156.504 86.2263 156.283 85.9857C155.841 85.5457 155.28 85.2454 154.669 85.1221Z" fill="#3F00F9"/>
<path d="M81.1713 55.1895H98.6912C99.1945 55.1791 99.6941 55.2771 100.156 55.4769C100.618 55.6767 101.032 55.9735 101.369 56.3472C101.914 56.9955 102.2 57.8227 102.17 58.6691V75.4412C102.145 76.2133 101.856 76.9534 101.35 77.5377C101.045 77.8779 100.674 78.1539 100.26 78.3494C99.8469 78.545 99.3985 78.6562 98.9415 78.6767H81.4529C80.9888 78.701 80.5248 78.6275 80.0909 78.4609C79.6571 78.2944 79.2631 78.0384 78.9344 77.7098C78.6058 77.3811 78.35 76.987 78.1834 76.5531C78.0169 76.1192 77.9434 75.6551 77.9677 75.1909V58.1747C78.0306 57.4079 78.3641 56.6885 78.9086 56.145C79.453 55.6016 80.173 55.2695 80.9398 55.2082L81.1713 55.1895Z" fill="#8585FF"/>
<path d="M98.8351 55.1895L80.6895 55.2833C80.727 56.1094 80.9397 57.8805 82.1599 59.0383C82.8437 59.636 83.6163 60.1237 84.45 60.484C84.6439 60.5716 84.913 60.678 85.3635 60.8845C85.595 60.9909 86.3521 61.3413 86.8715 61.6355C87.9525 62.2491 88.8575 63.1306 89.4995 64.1951C89.7635 64.6201 89.9737 65.0763 90.1252 65.5531C90.2651 66.0952 90.3407 66.6518 90.3504 67.2116C90.4193 68.2755 90.3066 68.4632 90.4193 69.1454C90.5024 69.6094 90.6367 70.0628 90.8197 70.4972C91.5205 72.1055 93.2162 72.9442 93.7918 73.2133C94.3675 73.4824 94.2799 73.3447 98.2594 74.3523C99.1209 74.5351 99.9443 74.8654 100.693 75.3286C101.176 75.6393 101.615 76.0117 102.001 76.4363C102.108 76.1234 102.169 75.7967 102.183 75.4662V58.6941C102.212 57.8477 101.927 57.0205 101.382 56.3723C101.062 56.0101 100.67 55.7181 100.232 55.5146C99.7938 55.311 99.3181 55.2003 98.8351 55.1895Z" fill="#6363F6"/>
<path d="M94.987 59.2511C95.7555 59.2393 96.4975 59.5322 97.0508 60.0657C97.6041 60.5992 97.924 61.33 97.9404 62.0986C97.9404 65.4363 97.9404 68.7741 97.9404 72.1118C97.9209 72.7511 97.683 73.3643 97.2662 73.8494C96.8495 74.3346 96.2792 74.6622 95.6503 74.7778L84.8693 74.8279C84.4714 74.8301 84.0777 74.7455 83.7157 74.5802C83.3537 74.4148 83.0321 74.1726 82.7732 73.8704C82.3892 73.3896 82.1855 72.7896 82.1975 72.1744C82.1975 68.6823 82.1975 65.1943 82.1975 61.7106C82.2523 61.0983 82.5204 60.5247 82.955 60.09C83.3896 59.6553 83.9631 59.3872 84.5752 59.3324L94.987 59.2511Z" fill="#ADADFF"/>
<path d="M94.9871 59.251L84.544 59.3574C84.0793 59.4015 83.6347 59.5678 83.255 59.8393C83.6189 60.0752 83.9995 60.2843 84.3938 60.4651C84.5878 60.5464 84.8568 60.6591 85.3073 60.8656C85.5388 60.972 86.296 61.3162 86.809 61.6166C87.8923 62.2294 88.7996 63.1109 89.4433 64.1762C89.7085 64.6006 89.9188 65.0569 90.069 65.5343C90.2086 66.0743 90.2842 66.6288 90.2942 67.1864C90.3568 68.2504 90.2504 68.4381 90.3631 69.1265C90.4466 69.5884 90.5809 70.0396 90.7635 70.472C91.4581 72.0867 93.16 72.919 93.7357 73.1944C94.3113 73.4697 94.255 73.3571 97.1082 74.058L97.2146 73.9579C97.6599 73.463 97.9169 72.8272 97.9404 72.1618C97.9404 68.824 97.9404 65.4863 97.9404 62.1486C97.924 61.38 97.6042 60.6492 97.0508 60.1157C96.4975 59.5821 95.7556 59.2893 94.9871 59.301V59.251Z" fill="#8585FF"/>
<path d="M178.04 45.176H188.093C188.382 45.17 188.668 45.2263 188.933 45.3409C189.199 45.4555 189.436 45.6258 189.629 45.8403C189.942 46.2122 190.106 46.6868 190.089 47.1725V56.7958C190.075 57.2388 189.909 57.6635 189.619 57.9987C189.443 58.1939 189.231 58.3522 188.993 58.4644C188.756 58.5766 188.499 58.6405 188.236 58.6523H178.202C177.936 58.6662 177.669 58.624 177.421 58.5284C177.172 58.4329 176.946 58.286 176.757 58.0974C176.568 57.9089 176.422 57.6828 176.326 57.4338C176.231 57.1848 176.188 56.9185 176.202 56.6522V46.8888C176.238 46.4488 176.43 46.0361 176.742 45.7242C177.055 45.4124 177.468 45.2219 177.908 45.1867L178.04 45.176Z" fill="#8585FF"/>
<path d="M188.175 45.1758L177.764 45.2297C177.786 45.7036 177.908 46.7198 178.608 47.3841C179 47.7271 179.443 48.0069 179.922 48.2136C180.033 48.2639 180.187 48.3249 180.446 48.4434C180.579 48.5045 181.013 48.7055 181.311 48.8743C181.931 49.2264 182.451 49.7322 182.819 50.343C182.97 50.5868 183.091 50.8485 183.178 51.1222C183.258 51.4332 183.302 51.7526 183.307 52.0737C183.347 52.6842 183.282 52.7919 183.347 53.1833C183.394 53.4495 183.471 53.7096 183.576 53.9589C183.979 54.8817 184.952 55.3629 185.282 55.5173C185.612 55.6717 185.562 55.5927 187.845 56.1708C188.339 56.2757 188.812 56.4652 189.242 56.731C189.518 56.9093 189.771 57.123 189.992 57.3666C190.054 57.1871 190.089 56.9996 190.096 56.81V47.1866C190.113 46.701 189.949 46.2264 189.637 45.8544C189.453 45.6467 189.228 45.4791 188.977 45.3623C188.726 45.2455 188.453 45.182 188.175 45.1758Z" fill="#6363F6"/>
<path d="M185.968 47.5063C186.409 47.4996 186.834 47.6676 187.152 47.9737C187.469 48.2798 187.653 48.6991 187.662 49.1401C187.662 51.0552 187.662 52.9703 187.662 54.8854C187.651 55.2522 187.514 55.6041 187.275 55.8824C187.036 56.1608 186.709 56.3488 186.348 56.4151L180.162 56.4438C179.934 56.4451 179.708 56.3966 179.5 56.3017C179.293 56.2068 179.108 56.0678 178.96 55.8944C178.739 55.6186 178.622 55.2743 178.629 54.9213C178.629 52.9176 178.629 50.9164 178.629 48.9175C178.661 48.5662 178.815 48.2371 179.064 47.9877C179.313 47.7383 179.642 47.5844 179.994 47.553L185.968 47.5063Z" fill="#ADADFF"/>
<path d="M185.967 47.5063L179.976 47.5674C179.709 47.5927 179.454 47.6881 179.236 47.8439C179.445 47.9792 179.663 48.0993 179.889 48.203C180.001 48.2496 180.155 48.3143 180.414 48.4328C180.546 48.4938 180.981 48.6913 181.275 48.8637C181.897 49.2153 182.417 49.7211 182.787 50.3323C182.939 50.5758 183.059 50.8376 183.146 51.1115C183.226 51.4213 183.269 51.7395 183.275 52.0595C183.311 52.6699 183.25 52.7776 183.314 53.1726C183.362 53.4377 183.439 53.6966 183.544 53.9447C183.943 54.8711 184.919 55.3487 185.249 55.5067C185.58 55.6647 185.547 55.6 187.185 56.0022L187.246 55.9447C187.501 55.6608 187.649 55.296 187.662 54.9142C187.662 52.9991 187.662 51.084 187.662 49.1689C187.653 48.7279 187.469 48.3086 187.152 48.0025C186.834 47.6964 186.408 47.5283 185.967 47.5351V47.5063Z" fill="#8585FF"/>
<path d="M206.979 79.3871H233.682C234.449 79.3713 235.211 79.5207 235.915 79.8252C236.619 80.1297 237.25 80.5821 237.764 81.1517C238.594 82.1397 239.029 83.4005 238.984 84.6905V110.253C238.946 111.43 238.505 112.558 237.735 113.449C237.269 113.967 236.704 114.388 236.074 114.686C235.443 114.984 234.76 115.154 234.063 115.185H207.409C206.701 115.222 205.994 115.11 205.333 114.856C204.671 114.602 204.071 114.212 203.57 113.711C203.069 113.21 202.679 112.609 202.425 111.948C202.172 111.287 202.06 110.579 202.097 109.872V83.937C202.193 82.7683 202.701 81.6718 203.531 80.8435C204.361 80.0152 205.458 79.5091 206.627 79.4157L206.979 79.3871Z" fill="#8585FF"/>
<path d="M233.902 79.3872L206.245 79.5303C206.302 80.7894 206.627 83.4888 208.486 85.2534C209.529 86.1643 210.706 86.9077 211.977 87.4567C212.272 87.5903 212.682 87.7524 213.369 88.0672C213.722 88.2293 214.876 88.7635 215.667 89.2118C217.315 90.1471 218.694 91.4905 219.673 93.113C220.075 93.7607 220.396 94.456 220.627 95.1828C220.84 96.009 220.955 96.8574 220.97 97.7105C221.075 99.3321 220.903 99.6182 221.075 100.658C221.201 101.365 221.406 102.056 221.685 102.718C222.753 105.17 225.338 106.448 226.215 106.858C227.092 107.268 226.959 107.058 233.024 108.594C234.337 108.872 235.592 109.376 236.734 110.082C237.469 110.556 238.139 111.123 238.727 111.77C238.89 111.293 238.984 110.795 239.004 110.292V84.7287C239.048 83.4387 238.614 82.1779 237.783 81.19C237.295 80.6381 236.699 80.193 236.031 79.8827C235.363 79.5725 234.638 79.4038 233.902 79.3872Z" fill="#6363F6"/>
<path d="M228.037 85.5777C229.208 85.5598 230.339 86.0061 231.182 86.8193C232.025 87.6324 232.513 88.7463 232.538 89.9176C232.538 95.0048 232.538 100.092 232.538 105.179C232.508 106.153 232.145 107.088 231.51 107.828C230.875 108.567 230.006 109.066 229.047 109.242L212.616 109.319C212.009 109.322 211.409 109.193 210.858 108.941C210.306 108.689 209.816 108.32 209.421 107.859C208.836 107.127 208.525 106.212 208.544 105.274C208.544 99.9521 208.544 94.636 208.544 89.3263C208.627 88.3931 209.036 87.5188 209.698 86.8563C210.36 86.1938 211.235 85.7852 212.168 85.7017L228.037 85.5777Z" fill="#ADADFF"/>
<path d="M228.036 85.5774L212.119 85.7395C211.411 85.8068 210.734 86.0602 210.155 86.474C210.71 86.8336 211.29 87.1524 211.891 87.4278C212.186 87.5518 212.596 87.7235 213.283 88.0383C213.636 88.2004 214.79 88.7251 215.572 89.1829C217.223 90.1169 218.606 91.4604 219.587 93.0841C219.991 93.7309 220.311 94.4264 220.54 95.1539C220.753 95.977 220.868 96.8222 220.884 97.6721C220.979 99.2936 220.817 99.5798 220.989 100.629C221.116 101.333 221.321 102.021 221.599 102.68C222.657 105.141 225.251 106.409 226.129 106.829C227.006 107.249 226.92 107.077 231.269 108.145L231.431 107.993C232.11 107.238 232.502 106.269 232.537 105.255C232.537 100.168 232.537 95.0808 232.537 89.9937C232.512 88.8223 232.025 87.7084 231.182 86.8953C230.338 86.0821 229.207 85.6358 228.036 85.6537V85.5774Z" fill="#8585FF"/>
<path d="M214.448 130.914H231.967C232.471 130.904 232.97 131.002 233.432 131.202C233.894 131.402 234.308 131.698 234.645 132.072C235.19 132.72 235.476 133.548 235.446 134.394V151.166C235.421 151.938 235.132 152.678 234.627 153.263C234.321 153.603 233.95 153.879 233.537 154.074C233.123 154.27 232.675 154.381 232.218 154.402H214.729C214.265 154.426 213.801 154.352 213.367 154.186C212.933 154.019 212.539 153.763 212.211 153.435C211.882 153.106 211.626 152.712 211.46 152.278C211.293 151.844 211.22 151.38 211.244 150.916V133.9C211.307 133.133 211.64 132.413 212.185 131.87C212.729 131.326 213.449 130.994 214.216 130.933L214.448 130.914Z" fill="#8585FF"/>
<path d="M232.111 130.914L213.966 131.008C214.003 131.834 214.216 133.605 215.436 134.763C216.12 135.361 216.893 135.849 217.726 136.209C217.92 136.296 218.189 136.403 218.64 136.609C218.871 136.716 219.629 137.066 220.148 137.36C221.229 137.974 222.134 138.855 222.776 139.92C223.04 140.345 223.25 140.801 223.402 141.278C223.541 141.82 223.617 142.377 223.627 142.936C223.696 144 223.583 144.188 223.696 144.87C223.779 145.334 223.913 145.788 224.096 146.222C224.797 147.83 226.493 148.669 227.068 148.938C227.644 149.207 227.556 149.07 231.536 150.077C232.397 150.26 233.221 150.59 233.97 151.053C234.452 151.364 234.892 151.737 235.278 152.161C235.385 151.848 235.446 151.522 235.459 151.191V134.419C235.488 133.573 235.203 132.745 234.658 132.097C234.338 131.735 233.947 131.443 233.508 131.239C233.07 131.036 232.595 130.925 232.111 130.914Z" fill="#6363F6"/>
<path d="M228.263 134.976C229.032 134.964 229.774 135.257 230.327 135.791C230.881 136.324 231.2 137.055 231.217 137.823C231.217 141.161 231.217 144.499 231.217 147.837C231.197 148.476 230.959 149.089 230.543 149.574C230.126 150.059 229.556 150.387 228.927 150.503L218.146 150.553C217.748 150.555 217.354 150.47 216.992 150.305C216.63 150.14 216.308 149.897 216.05 149.595C215.666 149.114 215.462 148.514 215.474 147.899C215.474 144.407 215.474 140.919 215.474 137.435C215.529 136.823 215.797 136.25 216.231 135.815C216.666 135.38 217.239 135.112 217.852 135.057L228.263 134.976Z" fill="#ADADFF"/>
<path d="M228.263 134.976L217.82 135.082C217.356 135.126 216.911 135.293 216.531 135.564C216.895 135.8 217.276 136.009 217.67 136.19C217.864 136.271 218.133 136.384 218.584 136.59C218.815 136.697 219.572 137.041 220.085 137.341C221.169 137.954 222.076 138.836 222.72 139.901C222.985 140.325 223.195 140.782 223.345 141.259C223.485 141.799 223.56 142.354 223.57 142.911C223.633 143.975 223.527 144.163 223.639 144.851C223.723 145.313 223.857 145.764 224.04 146.197C224.734 147.812 226.436 148.644 227.012 148.919C227.588 149.195 227.531 149.082 230.384 149.783L230.491 149.683C230.936 149.188 231.193 148.552 231.217 147.887C231.217 144.549 231.217 141.211 231.217 137.873C231.2 137.105 230.88 136.374 230.327 135.841C229.774 135.307 229.032 135.014 228.263 135.026V134.976Z" fill="#8585FF"/>
<path d="M52.6267 96.4916H61.5474C61.8037 96.4863 62.0581 96.5362 62.2934 96.6379C62.5286 96.7397 62.7393 96.8908 62.911 97.0811C63.1885 97.4112 63.3338 97.8324 63.3188 98.2633V106.803C63.306 107.196 63.1587 107.573 62.9015 107.871C62.7457 108.044 62.557 108.185 62.3465 108.284C62.1359 108.384 61.9076 108.44 61.6749 108.451H52.7701C52.5338 108.463 52.2975 108.426 52.0766 108.341C51.8557 108.256 51.6551 108.126 51.4877 107.958C51.3204 107.791 51.1901 107.59 51.1053 107.369C51.0205 107.149 50.9831 106.912 50.9955 106.676V98.0116C51.0275 97.6212 51.1973 97.2549 51.4745 96.9781C51.7518 96.7014 52.1184 96.5324 52.5088 96.5011L52.6267 96.4916Z" fill="#8585FF"/>
<path d="M61.6208 96.4915L52.3815 96.5393C52.4006 96.9599 52.5089 97.8617 53.1302 98.4512C53.4784 98.7555 53.8718 99.0039 54.2962 99.1873C54.395 99.2319 54.532 99.2861 54.7614 99.3912C54.8793 99.4454 55.2648 99.6239 55.5292 99.7736C56.0796 100.086 56.5404 100.535 56.8673 101.077C57.0018 101.293 57.1088 101.526 57.1859 101.768C57.2572 102.044 57.2957 102.328 57.3006 102.613C57.3357 103.155 57.2783 103.25 57.3357 103.598C57.378 103.834 57.4464 104.065 57.5396 104.286C57.8964 105.105 58.7598 105.532 59.0529 105.669C59.346 105.806 59.3014 105.736 61.3277 106.249C61.7664 106.342 62.1856 106.51 62.567 106.746C62.8126 106.904 63.0364 107.094 63.2329 107.31C63.2875 107.151 63.3186 106.984 63.3253 106.816V98.2759C63.3403 97.845 63.195 97.4238 62.9175 97.0937C62.7546 96.9093 62.5553 96.7606 62.3321 96.657C62.109 96.5534 61.8668 96.497 61.6208 96.4915Z" fill="#6363F6"/>
<path d="M59.6614 98.5597C60.0527 98.5538 60.4305 98.7029 60.7123 98.9745C60.994 99.2462 61.1569 99.6183 61.1652 100.01C61.1652 101.709 61.1652 103.409 61.1652 105.108C61.1553 105.434 61.0341 105.746 60.822 105.993C60.6098 106.24 60.3194 106.407 59.9992 106.466L54.5097 106.491C54.3071 106.492 54.1067 106.449 53.9223 106.365C53.738 106.281 53.5743 106.157 53.4424 106.004C53.2469 105.759 53.1432 105.453 53.1493 105.14C53.1493 103.362 53.1493 101.586 53.1493 99.8121C53.1772 99.5003 53.3137 99.2082 53.535 98.9869C53.7563 98.7656 54.0483 98.6291 54.36 98.6012L59.6614 98.5597Z" fill="#ADADFF"/>
<path d="M59.6613 98.5596L54.3439 98.6137C54.1074 98.6362 53.8809 98.7209 53.6876 98.8591C53.8729 98.9792 54.0667 99.0857 54.2675 99.1778C54.3662 99.2192 54.5032 99.2765 54.7326 99.3817C54.8505 99.4359 55.236 99.6111 55.4973 99.7641C56.0488 100.076 56.5108 100.525 56.8386 101.067C56.9736 101.283 57.0807 101.516 57.1572 101.759C57.2282 102.034 57.2667 102.316 57.2718 102.6C57.3037 103.142 57.2495 103.237 57.3069 103.588C57.3494 103.823 57.4178 104.053 57.5108 104.273C57.8644 105.095 58.731 105.519 59.0241 105.659C59.3172 105.799 59.2886 105.742 60.7414 106.099L60.7955 106.048C61.0223 105.796 61.1531 105.472 61.1651 105.133C61.1651 103.434 61.1651 101.734 61.1651 100.035C61.1567 99.6436 60.9939 99.2715 60.7122 98.9998C60.4304 98.7282 60.0526 98.5791 59.6613 98.5851V98.5596Z" fill="#8585FF"/>
</svg>
