<svg width="290" height="200" viewBox="0 0 290 200" fill="none" xmlns="http://www.w3.org/2000/svg">
<path d="M243.937 86.6965V73.794C243.937 73.6775 243.894 73.5767 243.809 73.4916C243.724 73.4064 243.623 73.3639 243.507 73.3639H221.993C221.877 73.3639 221.776 73.4064 221.691 73.4916C221.605 73.5767 221.563 73.6775 221.563 73.794V86.6965C221.563 86.8129 221.605 86.9137 221.691 86.9989C221.776 87.084 221.877 87.1265 221.993 87.1265H243.507C243.623 87.1265 243.724 87.084 243.809 86.9989C243.894 86.9137 243.937 86.8129 243.937 86.6965ZM245.658 73.794V86.6965C245.658 87.2878 245.447 87.7941 245.026 88.2152C244.605 88.6363 244.098 88.8469 243.507 88.8469H233.61V90.5672H238.343C238.469 90.5672 238.572 90.6075 238.653 90.6882C238.733 90.7688 238.774 90.8719 238.774 90.9973V91.8575C238.774 91.9829 238.733 92.0859 238.653 92.1666C238.572 92.2472 238.469 92.2875 238.343 92.2875H227.156C227.031 92.2875 226.928 92.2472 226.847 92.1666C226.766 92.0859 226.726 91.9829 226.726 91.8575V90.9973C226.726 90.8719 226.766 90.7688 226.847 90.6882C226.928 90.6075 227.031 90.5672 227.156 90.5672H231.889V88.8469H221.993C221.402 88.8469 220.895 88.6363 220.474 88.2152C220.052 87.7941 219.842 87.2878 219.842 86.6965V73.794C219.842 73.2026 220.052 72.6964 220.474 72.2752C220.895 71.8541 221.402 71.6436 221.993 71.6436H243.507C244.098 71.6436 244.605 71.8541 245.026 72.2752C245.447 72.6964 245.658 73.2026 245.658 73.794Z" fill="#3F00F9"/>
<path d="M185.627 48.8492C185.627 50.4371 185.627 51.231 185.15 51.7376C185.126 51.7636 185.101 51.7888 185.075 51.8133C184.568 52.2899 183.774 52.2899 182.185 52.2899C181.711 52.2899 181.306 52.1216 180.969 51.785C180.632 51.4478 180.464 51.0426 180.464 50.5695V44.5484C180.464 43.4732 180.668 42.4659 181.076 41.5266C181.485 40.5879 182.038 39.7707 182.734 39.0751C183.429 38.3801 184.247 37.8282 185.186 37.4193C186.125 37.011 187.133 36.8069 188.208 36.8069C189.284 36.8069 190.292 37.011 191.232 37.4193C192.171 37.8282 192.988 38.3801 193.684 39.0751C194.379 39.7707 194.932 40.5879 195.341 41.5266C195.749 42.4659 195.953 43.4732 195.953 44.5484V50.5695C195.953 51.0426 195.785 51.4478 195.448 51.785C195.111 52.1216 194.706 52.2899 194.232 52.2899C192.643 52.2899 191.849 52.2899 191.342 51.8133C191.316 51.7888 191.291 51.7636 191.267 51.7376C190.79 51.231 190.79 50.4371 190.79 48.8492V47.1296C190.79 46.1791 191.561 45.4085 192.511 45.4085H193.372C193.847 45.4085 194.232 45.0234 194.232 44.5484C194.232 42.8711 193.648 41.4481 192.478 40.2794C191.31 39.1113 189.887 38.5272 188.208 38.5272C186.53 38.5272 185.107 39.1113 183.938 40.2794C182.769 41.4481 182.185 42.8711 182.185 44.5484C182.185 45.0234 182.57 45.4085 183.045 45.4085H183.906C184.856 45.4085 185.627 46.1791 185.627 47.1296V48.8492Z" fill="#3F00F9"/>
<path d="M66.2763 72.1842V63.9266C66.2763 63.749 66.207 63.5787 66.0836 63.4532C65.9602 63.3276 65.7928 63.2571 65.6183 63.2571H45.0001C44.8255 63.2571 44.6582 63.3276 44.5348 63.4532C44.4114 63.5787 44.342 63.749 44.342 63.9266V72.1842M66.2763 72.1842H44.342M66.2763 72.1842L65.4099 75.0677C65.2727 75.5248 64.995 75.925 64.6175 76.2095C64.24 76.4939 63.7827 76.6476 63.313 76.6478H61.8894M44.342 72.1842L45.2084 75.0677C45.3456 75.5248 45.6234 75.925 46.0009 76.2095C46.3784 76.4939 46.8356 76.6476 47.3054 76.6478H48.7289M61.8894 67.7206H62.9862M52.5674 76.0898C52.5674 76.0898 52.5674 83.9011 48.7289 83.9011M58.051 76.0898C58.051 76.0898 58.051 83.9011 61.8894 83.9011M55.3092 76.0898V83.9011" stroke="#3F00F9" stroke-width="1.67456" stroke-linecap="round" stroke-linejoin="round"/>
<path d="M87.8767 19.3518C89.5083 19.3518 91.0731 19.9997 92.2267 21.1529C93.3804 22.3061 94.0286 23.8701 94.0286 25.501C94.0286 27.2328 93.3098 28.7984 92.157 29.9175C91.4927 30.5624 91.1605 30.8848 91.0566 31.1306C90.9527 31.3763 90.9527 31.6992 90.9527 32.3451V32.675C90.9527 32.9468 90.8446 33.2075 90.6524 33.3997C90.4601 33.5919 90.1993 33.6999 89.9274 33.6999H85.8261C85.5542 33.6999 85.2934 33.5919 85.1011 33.3997C84.9089 33.2075 84.8008 32.9468 84.8008 32.675V32.3451C84.8008 31.6992 84.8008 31.3763 84.6969 31.1306C84.593 30.8848 84.2608 30.5624 83.5965 29.9175C82.4437 28.7984 81.7249 27.2328 81.7249 25.501C81.7249 23.8701 82.3731 22.3061 83.5267 21.1529C84.6804 19.9997 86.2452 19.3518 87.8767 19.3518ZM88.9025 34.7247C89.4685 34.7247 89.9274 35.1836 89.9274 35.7496C89.9274 36.0214 89.8193 36.2821 89.627 36.4743C89.4348 36.6665 89.174 36.7744 88.902 36.7744H86.8514C86.5795 36.7744 86.3187 36.6665 86.1264 36.4743C85.9342 36.2821 85.8261 36.0214 85.8261 35.7496C85.8261 35.1836 86.285 34.7247 86.851 34.7247H88.9025ZM96.0792 25.501C96.0792 24.935 96.538 24.4761 97.104 24.4761H98.1302C98.6963 24.4761 99.1551 24.935 99.1551 25.501C99.1551 26.067 98.6963 26.5258 98.1302 26.5258H97.104C96.538 26.5258 96.0792 26.067 96.0792 25.501ZM76.5984 25.501C76.5984 24.935 77.0572 24.4761 77.6232 24.4761H78.6494C79.2155 24.4761 79.6743 24.935 79.6743 25.501C79.6743 26.067 79.2155 26.5258 78.6494 26.5258H77.6232C77.0572 26.5258 76.5984 26.067 76.5984 25.501ZM87.8767 14.2275C88.443 14.2275 88.902 14.6866 88.902 15.2528V16.2768C88.902 16.8431 88.443 17.3021 87.8767 17.3021C87.3105 17.3021 86.8514 16.8431 86.8514 16.2768V15.2528C86.8514 14.6866 87.3105 14.2275 87.8767 14.2275ZM79.8874 17.5247C80.29 17.1194 80.9455 17.119 81.3486 17.5239L82.0749 18.2532C82.476 18.656 82.4741 19.3078 82.0706 19.7083C81.6694 20.1065 81.022 20.1061 80.6213 19.7074L79.8917 18.9815C79.4884 18.5803 79.4865 17.9283 79.8874 17.5247ZM93.6803 19.7006C93.2778 19.2983 93.2771 18.6462 93.6786 18.243L94.3946 17.5239C94.7981 17.1186 95.454 17.1178 95.8584 17.5221C96.2631 17.9267 96.2624 18.583 95.8567 18.9866L95.1373 19.7023C94.7342 20.1034 94.0825 20.1026 93.6803 19.7006Z" fill="#3F00F9"/>
<path d="M128.202 26.0283V17.4391H122.831C122.473 17.4391 122.187 17.2959 121.972 17.0096C121.757 16.7233 121.703 16.4012 121.811 16.0433L123.905 9.27925C124.049 8.83189 124.308 8.46935 124.684 8.19163C125.06 7.91463 125.481 7.77612 125.946 7.77612H132.606C133.071 7.77612 133.492 7.91463 133.868 8.19163C134.244 8.46935 134.503 8.83189 134.647 9.27925L136.741 16.0433C136.849 16.4012 136.795 16.7233 136.58 17.0096C136.365 17.2959 136.079 17.4391 135.721 17.4391H130.35V26.0283H128.202ZM124.979 29.2493V27.102H133.572V29.2493H124.979Z" fill="#3F00F9"/>
<path d="M184.193 146.439C184.058 146.439 183.935 145.046 183.819 142.569C183.761 141.317 183.709 139.782 183.658 138.008C183.606 136.234 183.568 134.389 183.516 132.26L179.181 128.06L179.071 116.383C179.071 112.196 179.039 107.751 179.026 103.145L180.374 101.79L187.554 94.6424C187.554 89.6621 187.612 84.9978 187.638 80.8045C187.677 76.4951 187.735 72.6695 187.806 69.489C187.948 63.1152 188.135 59.3025 188.361 59.3025C188.587 59.3025 188.793 63.1152 188.967 69.4826C189.058 72.6695 189.135 76.4951 189.199 80.798C189.232 82.9528 189.264 85.23 189.296 87.6041C189.296 90.1029 189.318 92.6984 189.361 95.3908L181.684 103.132L181.142 103.674L180.877 103.945C180.877 108.287 180.845 112.467 180.832 116.415L180.723 127.453L184.864 131.737C184.864 132.95 184.819 134.105 184.8 135.195L184.722 138.04C184.677 139.814 184.619 141.349 184.561 142.601C184.451 145.046 184.322 146.439 184.193 146.439Z" fill="#3F00F9"/>
<path d="M185.935 59.425C185.934 58.9453 186.075 58.4759 186.34 58.0763C186.606 57.6767 186.984 57.3648 187.427 57.18C187.869 56.9953 188.357 56.9459 188.828 57.0383C189.298 57.1306 189.731 57.3605 190.071 57.6988C190.412 58.0372 190.644 58.4688 190.739 58.939C190.833 59.4093 190.787 59.8972 190.604 60.3409C190.422 60.7846 190.112 61.1643 189.714 61.4319C189.316 61.6995 188.847 61.843 188.367 61.8443C188.048 61.846 187.732 61.7846 187.437 61.6638C187.142 61.543 186.874 61.3651 186.648 61.1403C186.422 60.9154 186.243 60.6482 186.12 60.3538C185.998 60.0595 185.935 59.7438 185.935 59.425Z" fill="white"/>
<path d="M185.612 59.4249C185.614 59.9687 185.776 60.4999 186.08 60.9513C186.383 61.4027 186.813 61.7539 187.316 61.9605C187.82 62.1671 188.373 62.2199 188.906 62.1121C189.439 62.0043 189.928 61.7407 190.311 61.3548C190.694 60.9689 190.954 60.478 191.058 59.9443C191.162 59.4105 191.106 58.8578 190.895 58.3563C190.685 57.8547 190.331 57.4268 189.877 57.1266C189.424 56.8265 188.892 56.6676 188.348 56.6702C187.62 56.6736 186.923 56.9655 186.411 57.482C185.898 57.9984 185.611 58.6971 185.612 59.4249C185.612 60.9409 185.606 57.9088 185.612 59.4249ZM190.464 59.4249C190.465 59.8408 190.343 60.2478 190.113 60.5944C189.883 60.9409 189.555 61.2115 189.172 61.3719C188.788 61.5322 188.365 61.5752 187.957 61.4953C187.549 61.4154 187.173 61.2162 186.878 60.923C186.583 60.6298 186.382 60.2557 186.299 59.8479C186.217 59.4402 186.257 59.0172 186.415 58.6325C186.573 58.2477 186.842 57.9184 187.187 57.6862C187.532 57.4541 187.938 57.3295 188.354 57.3282C188.911 57.3299 189.445 57.5509 189.84 57.9434C190.234 58.3359 190.459 58.8682 190.464 59.4249C190.464 60.5668 190.457 58.2508 190.464 59.412V59.4249Z" fill="#3F00F9"/>
<path d="M163.259 169.838C163.175 169.838 163.091 168.928 163.007 167.225C162.923 165.522 162.859 163.025 162.788 159.851C162.717 156.677 162.672 152.832 162.601 148.42C162.556 144.11 162.51 139.253 162.452 133.963L147.486 119.125C147.486 114.086 147.486 108.854 147.486 103.487C147.486 98.1194 147.486 92.752 147.486 87.6555C147.486 82.6881 147.531 77.9077 147.55 73.3918L136.583 62.2763C136.622 59.1475 136.654 56.2315 136.686 53.5607C136.731 51.0511 136.77 48.7739 136.809 46.7546L133.738 43.529L131.396 41.0066C130.106 39.626 129.461 38.8518 129.545 38.7873C129.628 38.7228 130.383 39.3744 131.764 40.6453L134.286 42.9935L137.802 46.3482C137.86 50.4899 137.938 55.6767 138.028 61.6828C141.415 65.0246 145.176 68.7211 149.214 72.6951C149.214 82.0558 149.266 92.4875 149.298 103.487C149.298 108.596 149.298 113.577 149.298 118.376L164.059 133.285C164.007 138.82 163.956 143.904 163.917 148.407C163.878 152.91 163.781 156.671 163.73 159.839C163.678 163.006 163.581 165.509 163.504 167.212C163.427 168.915 163.323 169.838 163.259 169.838Z" fill="#3F00F9"/>
<path d="M127.932 40.613C127.594 40.2745 127.364 39.8434 127.272 39.3743C127.179 38.9052 127.227 38.4191 127.41 37.9774C127.594 37.5357 127.904 37.1582 128.301 36.8926C128.699 36.6271 129.167 36.4854 129.645 36.4854C130.123 36.4854 130.591 36.6271 130.988 36.8926C131.386 37.1582 131.696 37.5357 131.879 37.9774C132.063 38.4191 132.111 38.9052 132.018 39.3743C131.925 39.8434 131.695 40.2745 131.358 40.613C131.133 40.8383 130.866 41.0171 130.572 41.139C130.278 41.261 129.963 41.3238 129.645 41.3238C129.327 41.3238 129.012 41.261 128.718 41.139C128.424 41.0171 128.157 40.8383 127.932 40.613Z" fill="white"/>
<path d="M127.7 40.8455C128.083 41.2321 128.573 41.496 129.107 41.6039C129.64 41.7117 130.194 41.6586 130.697 41.4513C131.201 41.2439 131.631 40.8917 131.934 40.4393C132.237 39.9868 132.399 39.4546 132.399 38.9101C132.399 38.3656 132.237 37.8334 131.934 37.3809C131.631 36.9285 131.201 36.5763 130.697 36.3689C130.194 36.1616 129.64 36.1085 129.107 36.2163C128.573 36.3242 128.083 36.5881 127.7 36.9747C127.191 37.4903 126.905 38.1856 126.905 38.9101C126.905 39.6346 127.191 40.3299 127.7 40.8455ZM131.132 37.4134C131.426 37.7075 131.626 38.0823 131.707 38.4902C131.789 38.8982 131.747 39.3211 131.588 39.7054C131.429 40.0897 131.159 40.4182 130.813 40.6493C130.467 40.8804 130.061 41.0037 129.645 41.0037C129.229 41.0037 128.822 40.8804 128.476 40.6493C128.13 40.4182 127.861 40.0897 127.702 39.7054C127.543 39.3211 127.501 38.8982 127.582 38.4902C127.663 38.0823 127.864 37.7075 128.158 37.4134C128.553 37.0206 129.088 36.8002 129.645 36.8002C130.202 36.8002 130.737 37.0206 131.132 37.4134Z" fill="#3F00F9"/>
<path d="M121.926 157.69C121.765 157.69 121.616 154.903 121.487 149.981C121.436 147.517 121.378 144.523 121.307 141.085C121.236 137.646 121.216 133.943 121.158 129.802L113.075 121.841C110.056 118.854 106.888 115.706 103.598 112.441C103.598 108.319 103.598 104.055 103.598 99.7001C103.598 94.3133 103.598 89.0813 103.598 84.0751C103.598 79.1916 103.649 74.5273 103.675 70.1598L95.0564 61.3668L87.7278 53.8188C87.7729 51.7867 87.8181 49.9481 87.8504 48.374C87.8826 46.7998 87.9471 45.5419 87.9858 44.5032C88.0762 42.3807 88.1729 41.2324 88.2761 41.2324C88.3794 41.2324 88.4761 42.3807 88.5664 44.5032C88.5987 45.5612 88.6439 46.8644 88.6955 48.374C88.7471 49.8835 88.7729 51.5028 88.818 53.3672L96.0564 60.3604L105.327 69.4631C105.327 74.0435 105.378 78.94 105.404 84.0623C105.404 89.0684 105.404 94.3004 105.404 99.6872C105.404 103.79 105.404 107.796 105.404 111.674L122.674 129.156C122.623 133.53 122.571 137.543 122.526 141.072C122.455 144.51 122.397 147.523 122.345 149.968C122.229 154.903 122.081 157.69 121.926 157.69Z" fill="#3F00F9"/>
<path d="M85.844 41.3551C85.844 40.8754 85.9863 40.4064 86.2528 40.0075C86.5193 39.6086 86.8982 39.2977 87.3414 39.1141C87.7846 38.9305 88.2724 38.8825 88.7429 38.9761C89.2134 39.0696 89.6456 39.3007 89.9849 39.6399C90.3241 39.9791 90.5551 40.4114 90.6487 40.8819C90.7423 41.3524 90.6943 41.8401 90.5107 42.2834C90.3271 42.7266 90.0162 43.1054 89.6173 43.372C89.2184 43.6385 88.7494 43.7808 88.2697 43.7808C87.6263 43.7808 87.0094 43.5252 86.5545 43.0703C86.0996 42.6154 85.844 41.9984 85.844 41.3551Z" fill="white"/>
<path d="M85.5342 41.3549C85.5342 41.8985 85.6954 42.4298 85.9973 42.8818C86.2993 43.3337 86.7285 43.6859 87.2307 43.894C87.7329 44.102 88.2855 44.1564 88.8186 44.0503C89.3517 43.9443 89.8414 43.6826 90.2257 43.2982C90.6101 42.9139 90.8718 42.4242 90.9778 41.8911C91.0839 41.358 91.0295 40.8054 90.8214 40.3032C90.6134 39.801 90.2612 39.3718 89.8092 39.0699C89.3573 38.7679 88.826 38.6067 88.2824 38.6067C87.5541 38.6084 86.856 38.8985 86.341 39.4135C85.826 39.9285 85.5359 40.6266 85.5342 41.3549ZM90.3855 41.3549C90.3855 41.7709 90.2622 42.1775 90.0311 42.5233C89.8 42.8692 89.4715 43.1388 89.0872 43.2979C88.7029 43.4571 88.2801 43.4988 87.8721 43.4176C87.4642 43.3365 87.0894 43.1362 86.7953 42.842C86.5012 42.5479 86.3009 42.1732 86.2197 41.7652C86.1386 41.3573 86.1802 40.9344 86.3394 40.5501C86.4986 40.1658 86.7681 39.8373 87.114 39.6063C87.4598 39.3752 87.8665 39.2518 88.2824 39.2518C88.8352 39.2603 89.3625 39.4854 89.751 39.8787C90.1395 40.272 90.3581 40.8021 90.3597 41.3549H90.3855Z" fill="#3F00F9"/>
<path d="M101.527 168.999C101.437 168.999 101.353 168.354 101.269 167.154C101.23 166.554 101.192 165.812 101.153 164.948L101.043 162.161L100.837 161.974L100.482 161.645L99.7464 160.942L98.1594 159.432L94.579 155.994L90.5082 152.039L85.7601 147.388C85.7601 145.543 85.7601 143.633 85.7214 141.672L75.7155 131.724V131.324C75.7155 128.06 75.7155 124.873 75.7155 121.783C75.7155 118.886 75.7542 116.08 75.7671 113.396L67.5289 104.964C64.9935 102.345 62.7743 100.029 60.9486 98.1001C57.2908 94.2294 55.2199 91.9134 55.3618 91.7715C55.5038 91.6295 57.8198 93.7069 61.6841 97.3583C63.6194 99.184 65.9354 101.41 68.5546 103.945L77.4896 112.686C77.4896 118.318 77.5283 124.486 77.5541 130.943C81.012 134.414 84.3409 137.769 87.4762 140.924C87.4762 142.898 87.4762 144.794 87.4375 146.678L95.5467 155L98.9852 158.581L101.998 161.748V162.761L101.972 163.58L101.921 164.98C101.882 165.845 101.843 166.587 101.798 167.187C101.701 168.361 101.617 168.999 101.527 168.999Z" fill="#3F00F9"/>
<path d="M53.7556 93.5971C53.4157 93.2582 53.184 92.826 53.0898 92.3552C52.9957 91.8845 53.0433 91.3965 53.2267 90.9528C53.4101 90.5092 53.721 90.13 54.1201 89.8631C54.5191 89.5963 54.9884 89.4539 55.4684 89.4539C55.9484 89.4539 56.4177 89.5963 56.8167 89.8631C57.2158 90.13 57.5267 90.5092 57.7101 90.9528C57.8935 91.3965 57.9411 91.8845 57.847 92.3552C57.7528 92.826 57.5211 93.2582 57.1812 93.5971C56.7265 94.0506 56.1105 94.3052 55.4684 94.3052C54.8262 94.3052 54.2103 94.0506 53.7556 93.5971Z" fill="white"/>
<path d="M53.5232 93.8294C53.9066 94.2159 54.3963 94.4799 54.93 94.5878C55.4637 94.6956 56.0174 94.6425 56.5209 94.4352C57.0244 94.2278 57.4549 93.8756 57.7579 93.4231C58.0609 92.9707 58.2226 92.4385 58.2226 91.894C58.2226 91.3495 58.0609 90.8173 57.7579 90.3648C57.4549 89.9124 57.0244 89.5602 56.5209 89.3528C56.0174 89.1455 55.4637 89.0924 54.93 89.2002C54.3963 89.3081 53.9066 89.572 53.5232 89.9586C53.0142 90.4742 52.7288 91.1695 52.7288 91.894C52.7288 92.6185 53.0142 93.3138 53.5232 93.8294ZM56.9553 90.3973C57.2494 90.6914 57.4497 91.0661 57.5309 91.4741C57.6121 91.8821 57.5705 92.305 57.4113 92.6893C57.2521 93.0736 56.9826 93.4021 56.6367 93.6332C56.2908 93.8643 55.8842 93.9876 55.4682 93.9876C55.0523 93.9876 54.6456 93.8643 54.2998 93.6332C53.9539 93.4021 53.6844 93.0736 53.5252 92.6893C53.366 92.305 53.3244 91.8821 53.4056 91.4741C53.4867 91.0661 53.6871 90.6914 53.9812 90.3973C54.3765 90.0045 54.911 89.7841 55.4682 89.7841C56.0254 89.7841 56.56 90.0045 56.9553 90.3973Z" fill="#3F00F9"/>
<path d="M230.597 98.1388C230.713 98.2549 229.52 99.6742 227.32 102.061C226.223 103.255 224.875 104.687 223.32 106.325L218.282 111.57C218.282 114.538 218.346 117.783 218.385 121.247C218.385 124.815 218.385 128.589 218.424 132.498V134.614L210.682 142.311L204.231 148.639C204.179 151.22 204.128 153.632 204.082 155.736C204.031 157.948 203.966 159.871 203.902 161.451C203.766 164.619 203.618 166.419 203.45 166.419C203.282 166.419 203.141 164.619 203.005 161.451C202.941 159.871 202.876 157.948 202.824 155.736C202.824 154.632 202.773 153.452 202.741 152.213C202.741 150.871 202.719 149.461 202.676 147.981L209.456 141.053L216.611 133.84V132.485C216.611 128.576 216.611 124.802 216.649 121.234C216.682 117.557 216.72 114.086 216.753 110.912L219.856 107.906L222.436 105.416C224.075 103.855 225.507 102.506 226.7 101.41C229.062 99.2226 230.481 98.0227 230.597 98.1388Z" fill="#3F00F9"/>
<path d="M232.216 99.9516C232.555 99.6122 232.786 99.18 232.88 98.7096C232.973 98.2391 232.925 97.7515 232.741 97.3084C232.558 96.8653 232.247 96.4866 231.848 96.2202C231.449 95.9537 230.98 95.8115 230.5 95.8115C230.021 95.8115 229.552 95.9537 229.153 96.2202C228.754 96.4866 228.443 96.8653 228.26 97.3084C228.076 97.7515 228.028 98.2391 228.121 98.7096C228.215 99.18 228.445 99.6122 228.784 99.9516C229.009 100.178 229.277 100.357 229.571 100.48C229.866 100.602 230.181 100.666 230.5 100.666C230.819 100.666 231.135 100.602 231.43 100.48C231.724 100.357 231.992 100.178 232.216 99.9516Z" fill="white"/>
<path d="M232.442 100.184C232.059 100.57 231.569 100.834 231.035 100.942C230.502 101.05 229.948 100.997 229.444 100.79C228.941 100.582 228.51 100.23 228.207 99.7776C227.904 99.3252 227.743 98.793 227.743 98.2485C227.743 97.704 227.904 97.1717 228.207 96.7193C228.51 96.2669 228.941 95.9147 229.444 95.7073C229.948 95.5 230.502 95.4468 231.035 95.5547C231.569 95.6626 232.059 95.9265 232.442 96.3131C232.953 96.8278 233.239 97.5235 233.239 98.2485C233.239 98.9735 232.953 99.6691 232.442 100.184ZM229.016 96.7518C228.722 97.0459 228.522 97.4206 228.441 97.8286C228.36 98.2366 228.401 98.6595 228.56 99.0438C228.72 99.4281 228.989 99.7566 229.335 99.9877C229.681 100.219 230.088 100.342 230.503 100.342C230.919 100.342 231.326 100.219 231.672 99.9877C232.018 99.7566 232.287 99.4281 232.447 99.0438C232.606 98.6595 232.647 98.2366 232.566 97.8286C232.485 97.4206 232.285 97.0459 231.991 96.7518C231.595 96.359 231.061 96.1386 230.503 96.1386C229.946 96.1386 229.412 96.359 229.016 96.7518Z" fill="#3F00F9"/>
<path d="M127.132 191.747C124.307 192.083 121.453 192.107 118.623 191.818C113.462 191.276 101.121 189.985 94.818 179.831C90.3021 172.496 90.115 162.568 94.5986 154.575C96.8549 150.599 100.131 147.297 104.088 145.01C108.046 142.723 112.542 141.533 117.114 141.562C118.117 136.762 120.483 132.353 123.927 128.863C127.372 125.372 131.749 122.948 136.535 121.881C141.322 120.814 146.314 121.148 150.915 122.845C155.516 124.541 159.531 127.528 162.479 131.447C163.563 131.04 172.968 127.725 181.955 133.382C190.006 138.453 191.632 146.93 191.864 148.265C204.844 150.91 213.089 162.323 211.766 172.915C210.508 182.96 200.967 189.689 192.877 191.502C189.797 192.167 186.616 192.218 183.516 191.65L127.132 191.747Z" fill="#C2DBFF"/>
<path d="M127.132 191.747H127.777H129.661L136.944 191.701L164.001 191.605L182.897 191.547C183.122 191.547 183.303 191.547 183.542 191.547L184.187 191.65C184.613 191.714 185.039 191.766 185.477 191.811C186.335 191.894 187.196 191.933 188.058 191.927C189.844 191.918 191.623 191.69 193.354 191.25C196.992 190.32 200.402 188.656 203.373 186.36C204.913 185.164 206.308 183.791 207.528 182.27C208.791 180.72 209.798 178.978 210.508 177.109C211.243 175.2 211.647 173.179 211.702 171.135C211.718 169.042 211.42 166.959 210.818 164.955C210.159 162.919 209.226 160.983 208.044 159.2C206.825 157.393 205.374 155.753 203.728 154.323C202.047 152.871 200.187 151.642 198.193 150.665L196.664 149.975C196.154 149.742 195.606 149.588 195.077 149.394L194.277 149.117C194.012 149.026 193.735 148.975 193.457 148.897L191.69 148.452L191.587 147.91L191.49 147.478C191.425 147.194 191.361 146.91 191.277 146.627C191.122 146.059 190.954 145.498 190.748 144.943C190.356 143.831 189.877 142.753 189.316 141.717C188.196 139.595 186.729 137.676 184.974 136.04C181.369 132.676 176.698 130.685 171.775 130.415C168.78 130.239 165.779 130.622 162.924 131.544L162.659 131.634L162.414 131.724C162.343 131.685 162.291 131.589 162.227 131.524L161.872 131.092L161.169 130.227C160.659 129.698 160.175 129.131 159.633 128.634C159.092 128.137 158.563 127.621 157.969 127.176C157.685 126.95 157.401 126.718 157.105 126.499L156.201 125.854C153.799 124.22 151.132 123.015 148.318 122.292C146.931 121.937 145.518 121.695 144.092 121.57C142.68 121.457 141.26 121.457 139.847 121.57C134.308 122.049 129.086 124.362 125.01 128.144C123.047 129.95 121.378 132.05 120.061 134.369C119.72 134.93 119.455 135.53 119.158 136.111C118.862 136.692 118.649 137.304 118.391 137.904C118.133 138.504 117.984 139.13 117.778 139.737C117.571 140.343 117.436 141.066 117.268 141.73L115.9 141.769C115.491 141.774 115.081 141.802 114.675 141.853C113.862 141.911 113.055 142.046 112.262 142.182C110.687 142.464 109.142 142.896 107.649 143.472C101.945 145.684 97.2371 149.89 94.3984 155.31C93.0973 157.791 92.2248 160.473 91.8179 163.245C91.0061 168.303 91.7885 173.489 94.0565 178.083C96.0458 181.971 99.1442 185.182 102.959 187.308C103.804 187.824 104.682 188.211 105.54 188.598C106.398 188.985 107.243 189.308 108.082 189.572C109.645 190.113 111.245 190.544 112.868 190.863C114.378 191.179 115.797 191.379 117.094 191.508C118.391 191.637 119.578 191.792 120.649 191.85C122.273 191.938 123.902 191.928 125.526 191.818L126.777 191.714H127.203C127.203 191.714 126.635 191.811 125.532 191.901C123.906 192.041 122.272 192.069 120.642 191.985C119.571 191.94 118.384 191.818 117.081 191.669C115.778 191.521 114.359 191.327 112.836 191.024C111.207 190.716 109.601 190.296 108.03 189.766C107.178 189.502 106.34 189.121 105.449 188.798C104.568 188.412 103.707 187.981 102.869 187.508C99.0022 185.378 95.8579 182.143 93.8372 178.218C91.5312 173.581 90.7284 168.34 91.5405 163.226C91.7513 161.846 92.0684 160.485 92.4889 159.155C92.9336 157.791 93.4903 156.466 94.1533 155.194C96.2454 151.149 99.393 147.745 103.262 145.343C104.607 144.495 106.031 143.78 107.514 143.207C109.022 142.61 110.584 142.158 112.178 141.859C112.989 141.705 113.807 141.593 114.63 141.524C115.04 141.471 115.454 141.44 115.868 141.433H116.984L117.436 139.672C117.642 139.059 117.836 138.433 118.081 137.814C118.326 137.195 118.571 136.595 118.855 135.995C119.139 135.395 119.429 134.801 119.765 134.227C121.103 131.88 122.793 129.752 124.777 127.918C127.37 125.531 130.427 123.705 133.756 122.551C137.086 121.398 140.618 120.943 144.131 121.215C145.576 121.343 147.009 121.586 148.415 121.944C151.272 122.663 153.983 123.872 156.427 125.518L157.343 126.163C157.646 126.383 157.93 126.621 158.221 126.853C158.809 127.316 159.374 127.809 159.911 128.331C160.459 128.834 160.95 129.408 161.466 129.95L162.182 130.821L162.537 131.26L162.801 131.169C165.703 130.23 168.755 129.839 171.801 130.015C176.808 130.294 181.559 132.322 185.226 135.743C187.011 137.418 188.502 139.381 189.638 141.549C190.209 142.609 190.697 143.711 191.096 144.846C191.296 145.407 191.477 145.981 191.632 146.556C191.716 146.846 191.78 147.136 191.851 147.426L191.941 147.865L192.006 148.188L193.554 148.575C193.832 148.652 194.115 148.704 194.386 148.794L195.193 149.078C195.728 149.278 196.283 149.433 196.799 149.665L198.354 150.368C200.373 151.36 202.257 152.607 203.96 154.078C205.632 155.529 207.105 157.195 208.34 159.032C209.537 160.844 210.481 162.81 211.147 164.877C211.76 166.917 212.062 169.037 212.043 171.167C211.984 173.251 211.572 175.311 210.824 177.257C210.098 179.158 209.072 180.931 207.786 182.508C206.543 184.046 205.13 185.438 203.573 186.657C200.562 188.973 197.108 190.649 193.425 191.579C191.669 192.012 189.866 192.229 188.058 192.224C187.177 192.228 186.296 192.188 185.419 192.101C184.987 192.056 184.555 192.005 184.129 191.934L183.484 191.83H182.839H163.943H136.886H129.603H127.719C127.351 191.759 127.132 191.747 127.132 191.747Z" fill="#3F00F9"/>
<path d="M91.272 163.597C89.7369 187.281 112.763 191.448 112.763 191.448C112.763 191.448 157.688 190.708 186.447 191.667C199.605 192.105 212.105 183.553 212.105 171.711C204.868 163.377 198.947 169.956 198.947 169.956C198.947 169.956 198.947 165.132 193.465 163.158C187.982 161.184 184.474 163.597 184.474 163.597C184.474 163.597 180.746 155.483 170.877 154.825C161.009 154.167 155.965 162.5 155.965 162.5C155.965 162.5 152.675 144.079 132.719 154.825C132.719 140.351 147.193 148.026 147.193 148.026C147.193 148.026 137.105 129.167 117.368 141.228C104.249 144.065 92.1401 150.202 91.272 163.597Z" fill="#A4CAFF"/>
<path d="M183.516 191.714C183.516 191.605 185.387 191.488 188.864 191.379L191.767 191.301C192.021 191.28 192.273 191.241 192.522 191.185L193.348 191.037C193.929 190.928 194.504 190.788 195.07 190.618C197.774 189.849 200.313 188.59 202.56 186.902C205.299 184.798 207.509 182.083 209.011 178.973C210.765 175.339 211.4 171.266 210.837 167.27C210.149 162.763 208.033 158.595 204.799 155.381C203.073 153.66 201.074 152.236 198.883 151.168C197.753 150.616 196.576 150.165 195.367 149.82C194.722 149.678 194.135 149.491 193.509 149.375L190.851 148.968L190.657 147.949L190.561 147.478L190.496 147.22C190.419 146.872 190.315 146.53 190.219 146.188C190.006 145.498 189.774 144.814 189.49 144.136C188.933 142.784 188.249 141.487 187.445 140.266C186.61 139.03 185.655 137.881 184.593 136.833C183.494 135.792 182.285 134.872 180.987 134.092C180.662 133.889 180.326 133.704 179.981 133.537C179.639 133.369 179.335 133.163 178.955 133.021C178.25 132.71 177.529 132.438 176.794 132.208C176.053 131.969 175.299 131.773 174.536 131.621C172.193 131.196 169.797 131.148 167.439 131.479C166.642 131.589 165.851 131.744 165.072 131.943C164.678 132.034 164.291 132.15 163.904 132.266L163.62 132.356L163.478 132.401L163.188 132.511L162.02 132.956L160.827 131.485C160.595 131.221 160.395 130.924 160.143 130.679L159.414 129.905L159.053 129.518L158.659 129.156C158.143 128.665 157.603 128.2 157.04 127.763C156.756 127.544 156.485 127.311 156.195 127.118L155.305 126.511C152.888 124.903 150.203 123.741 147.376 123.079C145.303 122.593 143.176 122.376 141.047 122.434C138.95 122.5 136.87 122.841 134.86 123.447C130.913 124.646 127.334 126.828 124.461 129.789C121.698 132.667 119.653 136.157 118.494 139.975L117.984 141.911C118.023 142.556 117.339 142.369 116.887 142.433H116.242H115.881C114.922 142.501 113.968 142.622 113.023 142.794C111.166 143.136 109.349 143.672 107.604 144.394C104.335 145.768 101.383 147.797 98.9294 150.357C96.476 152.917 94.5738 155.953 93.3402 159.277C92.2631 162.309 91.8517 165.537 92.1339 168.741C92.2719 170.248 92.5528 171.739 92.9725 173.193C93.3902 174.584 93.9254 175.937 94.5724 177.238C95.7985 179.661 97.3914 181.881 99.2948 183.818C102.548 187.032 106.584 189.34 111.004 190.514C111.909 190.753 112.826 190.942 113.752 191.082L114.397 191.172L114.72 191.211H114.855H115.004H116.294C119.571 191.263 122.1 191.321 123.848 191.385C125.597 191.45 126.487 191.521 126.487 191.598C125.619 191.775 124.734 191.855 123.848 191.837C122.126 191.914 119.577 191.998 116.294 192.076H115.004H114.829H114.636H114.3L113.617 192.005C112.649 191.895 111.688 191.731 110.739 191.514C106.076 190.412 101.789 188.092 98.3142 184.792C96.2579 182.786 94.5294 180.47 93.1919 177.928C92.4762 176.552 91.8805 175.116 91.4113 173.638C90.9354 172.083 90.6091 170.487 90.4372 168.87C90.0909 165.419 90.4914 161.934 91.6113 158.652C92.8972 155.055 94.9121 151.762 97.5297 148.98C100.147 146.198 103.311 143.987 106.823 142.485C108.7 141.689 110.658 141.099 112.662 140.724C113.681 140.529 114.711 140.393 115.745 140.317L116.223 140.285L116.274 140.085L116.474 139.317C117.717 135.162 119.928 131.361 122.926 128.228C126.04 124.987 129.931 122.596 134.228 121.28C136.422 120.609 138.696 120.234 140.989 120.163C143.313 120.106 145.635 120.346 147.898 120.88C150.979 121.604 153.905 122.876 156.537 124.634L157.504 125.279C157.82 125.505 158.117 125.757 158.427 125.995C159.037 126.473 159.623 126.981 160.182 127.518L160.607 127.911L161.007 128.331L161.801 129.176C162.072 129.447 162.291 129.763 162.536 130.06L162.717 130.279L163.24 130.111C163.665 129.982 164.091 129.853 164.53 129.75C165.38 129.537 166.242 129.372 167.11 129.253C169.705 128.894 172.341 128.958 174.916 129.44C175.76 129.609 176.593 129.824 177.413 130.085C178.228 130.346 179.027 130.654 179.806 131.008C180.2 131.169 180.568 131.389 180.948 131.582C181.329 131.776 181.709 131.956 182.051 132.227C183.481 133.103 184.813 134.128 186.025 135.285C187.19 136.445 188.234 137.72 189.141 139.091C190.015 140.437 190.754 141.865 191.348 143.356C191.651 144.091 191.896 144.839 192.128 145.594C192.225 145.975 192.341 146.349 192.425 146.736L192.509 147.11V147.188H192.554L192.806 147.226L193.844 147.394C194.528 147.53 195.199 147.73 195.87 147.897C197.186 148.285 198.464 148.79 199.689 149.407C202.059 150.59 204.216 152.16 206.069 154.052C209.536 157.571 211.77 162.118 212.437 167.012C213.021 171.324 212.295 175.712 210.353 179.605C208.68 182.884 206.247 185.716 203.257 187.863C200.854 189.571 198.151 190.81 195.289 191.514C194.693 191.672 194.088 191.792 193.477 191.876L192.619 191.998C192.331 192.047 192.04 192.075 191.748 192.082L188.845 192.017C185.387 191.921 183.516 191.824 183.516 191.714Z" fill="#3F00F9"/>
</svg>
