<svg width="444" height="400" viewBox="0 0 444 400" fill="none" xmlns="http://www.w3.org/2000/svg">
<path d="M411 221.5C474.5 301.5 358.398 358.185 265.692 358.185C42.9421 352.892 42.9713 168.843 265.692 163.56" stroke="#3F00F9" stroke-opacity="0.34" stroke-width="3.06" stroke-miterlimit="10" stroke-dasharray="15.1 12.08"/>
<path d="M421.228 67.9671C421.228 98.7085 344.961 123.63 250.881 123.63C24.9155 120.7 24.9253 15.234 250.881 12.3044C344.951 12.3044 421.218 37.2257 421.218 67.9671H421.228Z" stroke="#3F00F9" stroke-opacity="0.34" stroke-width="2.33" stroke-miterlimit="10" stroke-dasharray="11.65 9.32"/>
<path d="M256.27 260.003C259.403 260.532 262.622 260.177 265.566 258.978C268.433 257.723 271.174 256.196 273.751 254.418L288.913 244.73L302.613 235.941L308.83 231.986C309.795 231.435 310.664 230.729 311.402 229.897C311.726 229.54 311.943 229.098 312.028 228.623C312.112 228.148 312.061 227.658 311.88 227.211C311.406 226.349 310.696 225.641 309.833 225.17C308.986 224.643 308.079 224.194 307.241 223.686L302.437 220.981L294.759 216.684L289.887 213.901C289.311 213.598 288.76 213.249 288.24 212.856C288.848 213.086 289.434 213.367 289.994 213.696L294.925 216.294L302.72 220.483L307.592 223.1C308.44 223.578 309.327 224.028 310.233 224.575C311.24 225.114 312.069 225.935 312.62 226.938C312.872 227.518 312.954 228.158 312.854 228.783C312.732 229.406 312.461 229.989 312.065 230.483C311.279 231.398 310.347 232.177 309.307 232.787L303.12 236.801L289.478 245.638L274.384 255.404C271.753 257.235 268.949 258.805 266.014 260.091C262.882 261.366 259.458 261.745 256.124 261.185C252.857 260.596 249.687 259.561 246.701 258.109C243.778 256.761 240.942 255.336 238.136 253.968C232.543 251.224 227.174 248.5 222.146 245.746C217.118 242.992 212.402 240.18 208.192 237.338C206.059 235.922 204.061 234.506 202.141 233.061C201.135 232.341 200.327 231.376 199.793 230.258C199.565 229.678 199.482 229.051 199.552 228.431C199.621 227.811 199.841 227.218 200.193 226.703C200.844 225.796 201.677 225.034 202.638 224.467C203.503 223.938 204.394 223.452 205.308 223.012L210.18 220.493C213.25 218.94 215.89 217.563 218.044 216.489C220.197 215.415 221.893 214.536 223.033 213.999C223.603 213.684 224.2 213.419 224.816 213.208C224.28 213.571 223.72 213.898 223.14 214.184L218.268 216.87L210.473 221.049L205.601 223.637C204.743 224.106 203.847 224.545 203.009 225.092C202.154 225.614 201.414 226.305 200.836 227.123C200.556 227.528 200.382 227.997 200.331 228.487C200.28 228.977 200.353 229.472 200.543 229.926C201.028 230.899 201.753 231.733 202.648 232.348C204.529 233.734 206.546 235.141 208.67 236.527C212.918 239.32 217.586 242.074 222.614 244.799C227.642 247.523 233.001 250.209 238.594 252.943C241.391 254.3 244.236 255.726 247.13 257.054C250.031 258.444 253.105 259.436 256.27 260.003Z" fill="#1C1CFF"/>
<path d="M258.287 288.303C255.017 288.54 251.75 287.817 248.884 286.223C246.058 284.817 243.515 283.108 240.845 281.809C235.466 279.114 230.292 276.458 225.469 273.734C220.645 271.009 216.153 268.245 212.1 265.433C208.046 262.621 204.305 259.759 202.044 256.048C200.994 254.3 200.262 252.379 199.881 250.375C199.535 248.609 199.362 246.813 199.364 245.014C199.364 241.664 199.647 238.803 199.764 236.469C199.879 234.681 199.902 232.888 199.832 231.098C199.769 230.475 199.743 229.849 199.754 229.223C199.817 229.372 199.856 229.53 199.871 229.692C199.929 230.004 199.998 230.473 200.066 231.088C200.23 232.883 200.276 234.687 200.202 236.488C200.202 238.842 199.92 241.703 199.998 245.004C200.076 248.304 200.543 252.132 202.726 255.619C204.909 259.105 208.572 261.908 212.636 264.652C216.699 267.396 221.162 270.14 225.985 272.816C230.809 275.491 235.963 278.128 241.342 280.804C244.09 282.132 246.652 283.85 249.391 285.208C252.062 286.7 255.11 287.379 258.16 287.161C261.2 286.819 264.007 285.286 266.667 283.782L274.667 279.3L289.809 270.823L303.529 263.187L309.746 259.73C310.72 259.249 311.633 258.652 312.464 257.953C313.193 257.273 313.69 256.382 313.887 255.404C314.253 253.474 314.348 251.501 314.169 249.545C314.062 247.67 313.848 245.912 313.741 244.232C313.594 240.902 313.4 238.061 313.205 235.727C313.01 233.393 312.805 231.586 312.679 230.365C312.584 229.745 312.535 229.118 312.532 228.49C312.714 229.093 312.841 229.711 312.912 230.336C313.107 231.547 313.37 233.354 313.643 235.678C313.916 238.002 314.169 240.883 314.374 244.193C314.51 245.834 314.754 247.601 314.89 249.496C315.102 251.517 315.03 253.559 314.676 255.56L314.442 256.361C314.345 256.625 314.228 256.888 314.111 257.152C313.832 257.67 313.47 258.139 313.039 258.539C312.17 259.303 311.211 259.959 310.184 260.492L303.997 264.007L290.355 271.741L275.251 280.267L267.261 284.768C264.552 286.282 261.629 287.913 258.287 288.303Z" fill="#1C1CFF"/>
<path d="M246.107 211.46C251.163 213.382 256.579 214.166 261.97 213.755C266.979 213.384 271.756 211.498 275.671 208.345C277.479 206.885 279.051 205.152 280.328 203.208C281.529 201.379 282.409 199.358 282.93 197.232C283.793 193.362 283.453 189.32 281.956 185.65C280.761 182.591 279.006 179.782 276.781 177.369C275.1 175.537 273.243 173.876 271.237 172.408C269.581 171.197 268.226 170.347 267.339 169.771C266.852 169.505 266.386 169.202 265.946 168.863C266.47 169.044 266.973 169.279 267.447 169.566C268.849 170.316 270.209 171.144 271.52 172.047C273.602 173.471 275.532 175.107 277.278 176.929C279.616 179.361 281.468 182.218 282.735 185.347C284.015 188.306 284.541 191.536 284.268 194.749C283.994 197.962 282.928 201.057 281.166 203.755C279.828 205.797 278.185 207.622 276.294 209.165C272.223 212.473 267.245 214.462 262.019 214.868C256.465 215.312 250.881 214.518 245.668 212.544C240.348 210.591 235.33 207.661 232.027 203.247C230.408 201.098 229.266 198.628 228.675 196.001C228.092 193.502 227.967 190.918 228.304 188.374C228.91 183.653 230.983 179.242 234.229 175.767C237.029 172.778 240.453 170.444 244.256 168.931C247.367 167.702 250.659 166.989 254 166.822C256.521 166.693 259.049 166.831 261.542 167.232C263.111 167.478 264.66 167.834 266.18 168.297C266.719 168.427 267.242 168.617 267.739 168.863C267.192 168.789 266.651 168.675 266.121 168.521C264.589 168.154 263.037 167.87 261.473 167.672C259.012 167.351 256.524 167.282 254.048 167.467C250.773 167.686 247.555 168.434 244.519 169.683C240.857 171.206 237.571 173.512 234.892 176.441C231.817 179.792 229.865 184.023 229.308 188.54C228.631 193.518 229.913 198.565 232.884 202.612C236.09 206.694 240.913 209.575 246.107 211.46Z" fill="#1C1CFF"/>
<path d="M261.347 74.7638C262.985 77.5337 263.872 80.6847 263.919 83.9042C263.919 86.3553 263.461 87.8103 263.335 87.8103C263.208 87.8103 263.335 86.3065 263.12 83.9726C262.867 80.9356 261.927 77.9964 260.372 75.3773C258.817 72.7583 256.688 70.5281 254.146 68.8557C252.197 67.5472 250.823 67.0003 250.882 66.8245C250.94 66.6487 252.421 66.9808 254.565 68.1624C257.36 69.7339 259.698 72.0094 261.347 74.7638Z" fill="#1C1CFF"/>
<path d="M401.496 101.287C401.672 103.343 401.672 105.411 401.496 107.468C401.381 108.527 401.067 109.554 400.571 110.495C400.048 111.464 399.237 112.246 398.251 112.732C397.295 113.161 396.244 113.337 395.2 113.243C394.156 113.148 393.153 112.788 392.288 112.195C390.687 111.037 389.591 109.306 389.228 107.361C389.037 106.456 388.975 105.529 389.043 104.607C389.134 103.819 389.081 103.022 388.887 102.253C388.808 101.94 388.644 101.654 388.414 101.427C388.183 101.2 387.896 101.04 387.582 100.964C386.864 100.998 386.163 101.199 385.535 101.55L377.467 105.017C372.527 107.117 368.532 108.806 365.774 109.948C364.381 110.515 363.299 110.925 362.559 111.238C362.194 111.414 361.808 111.539 361.409 111.609C361.741 111.376 362.097 111.179 362.471 111.023C363.182 110.671 364.235 110.173 365.589 109.538C368.318 108.269 372.274 106.472 377.165 104.275L385.175 100.681C385.95 100.238 386.826 100.002 387.718 99.9976C388.221 100.091 388.689 100.323 389.068 100.668C389.446 101.013 389.721 101.457 389.862 101.951C390.107 102.837 390.183 103.761 390.086 104.675C390.035 105.51 390.097 106.348 390.271 107.165C390.6 108.835 391.547 110.317 392.921 111.316C393.63 111.796 394.45 112.088 395.302 112.163C396.154 112.238 397.012 112.094 397.794 111.745C398.57 111.364 399.205 110.745 399.606 109.978C400.032 109.16 400.3 108.269 400.395 107.351C400.561 105.369 400.561 103.376 400.395 101.394C400.142 97.3511 399.557 93.3571 397.735 90.0759C396.868 88.4669 395.665 87.0645 394.208 85.9647C392.792 84.9232 391.201 84.1459 389.511 83.6698C386.333 82.801 382.998 82.684 379.767 83.328C376.919 83.8798 374.125 84.6804 371.416 85.7206C368.902 86.6483 366.642 87.5467 364.595 88.2498C362.871 88.8724 361.115 89.4005 359.334 89.8318C358.208 90.1078 357.066 90.3068 355.913 90.4275C355.515 90.4997 355.108 90.5162 354.705 90.4763C354.705 90.3689 356.352 90.2126 359.226 89.4021C360.659 88.992 362.393 88.4256 364.381 87.6443L371.104 84.9686C373.844 83.8555 376.678 82.9927 379.572 82.3906C382.947 81.6813 386.44 81.7716 389.774 82.6542C391.592 83.1541 393.305 83.9778 394.831 85.0858C396.433 86.2702 397.762 87.7855 398.729 89.5291C400.649 93.0251 401.243 97.1851 401.496 101.287Z" fill="#1C1CFF"/>
<path d="M389.453 89.4997C390.724 92.064 391.068 94.9906 390.427 97.7808C389.911 99.8901 389.073 100.974 388.965 100.906C388.858 100.837 389.355 99.646 389.628 97.6343C390.037 95.0314 389.62 92.3656 388.436 90.0127C387.253 87.6598 385.362 85.7384 383.031 84.5194C381.248 83.5429 379.972 83.2987 380.011 83.1132C380.05 82.9276 381.385 82.9569 383.382 83.7968C386.005 84.9338 388.151 86.9501 389.453 89.4997Z" fill="#1C1CFF"/>
<path d="M396.176 119.089C400.048 125.732 401.92 133.356 401.565 141.042C401.474 142.869 401.272 144.688 400.96 146.491C400.794 147.271 400.827 148.08 401.058 148.844C401.207 149.181 401.421 149.486 401.689 149.739C401.957 149.992 402.272 150.189 402.617 150.319C404.125 150.877 405.793 150.814 407.255 150.143C408.722 149.495 410.002 148.488 410.977 147.213C411.926 145.934 412.615 144.481 413.004 142.936C413.414 141.412 413.675 139.852 413.784 138.278C414.008 135.143 414.115 132.048 414.076 129.098C414.058 126.252 413.731 123.417 413.102 120.642C412.502 118.101 411.477 115.681 410.071 113.484C408.818 111.485 407.158 109.775 405.199 108.464C403.415 107.332 401.43 106.556 399.353 106.179C395.995 105.594 392.546 105.842 389.307 106.902C387.246 107.562 385.261 108.435 383.382 109.509C382.096 110.241 381.433 110.671 381.433 110.632C381.433 110.593 381.57 110.495 381.882 110.261C382.193 110.027 382.651 109.704 383.285 109.284C385.14 108.12 387.121 107.17 389.19 106.453C392.494 105.299 396.033 104.984 399.489 105.535C401.654 105.898 403.729 106.677 405.599 107.829C407.673 109.174 409.443 110.941 410.792 113.015C412.264 115.283 413.348 117.781 413.998 120.407C414.672 123.24 415.035 126.138 415.08 129.05C415.148 132.067 415.08 135.133 414.846 138.336C414.74 139.986 414.475 141.621 414.057 143.219C413.635 144.894 412.89 146.47 411.864 147.858C410.791 149.296 409.369 150.435 407.733 151.168C406.878 151.56 405.954 151.78 405.014 151.813C404.074 151.847 403.137 151.694 402.256 151.364C401.774 151.182 401.333 150.904 400.962 150.546C400.59 150.189 400.294 149.759 400.093 149.284C399.782 148.339 399.725 147.328 399.928 146.354C400.227 144.59 400.419 142.809 400.502 141.022C400.83 133.566 399.01 126.172 395.26 119.724C393.424 116.475 390.62 113.883 387.241 112.312C385.6 111.605 383.823 111.271 382.037 111.335C380.321 111.352 378.669 111.994 377.389 113.142C376.251 114.404 375.547 115.999 375.382 117.692C375.142 119.428 374.989 121.175 374.924 122.927C374.846 124.665 374.827 126.393 374.856 128.102C374.824 129.746 375.004 131.387 375.392 132.985C375.596 133.726 375.925 134.426 376.366 135.055C376.795 135.649 377.364 136.125 378.023 136.442C378.359 136.574 378.704 136.681 379.056 136.764C379.143 136.764 379.056 136.891 379.251 136.383C379.389 136.024 379.499 135.656 379.582 135.28C379.658 134.913 379.703 134.541 379.718 134.167C379.767 132.625 379.718 131.083 379.572 129.548C379.523 128.776 379.475 128.005 379.494 127.214C379.514 126.423 379.572 125.681 379.66 124.919C379.782 123.364 380.332 121.873 381.248 120.612C382.228 119.428 383.622 118.663 385.146 118.474C386.573 118.287 388.023 118.475 389.355 119.021C389.982 119.28 390.577 119.611 391.129 120.007C391.648 120.427 392.128 120.894 392.561 121.403C394.156 123.352 395.139 125.731 395.387 128.239C395.552 130.563 395.562 132.702 395.572 134.723C395.582 136.745 395.572 138.629 395.572 140.338C395.526 141.898 395.601 143.458 395.796 145.006C395.95 146.216 396.425 147.362 397.17 148.326C397.744 149.015 398.495 149.532 399.343 149.821C400.064 150.02 400.825 150.02 401.545 149.821L401.418 149.899C401.284 149.96 401.144 150.006 400.999 150.035C400.437 150.183 399.847 150.183 399.284 150.035C398.368 149.771 397.544 149.253 396.907 148.541C396.073 147.547 395.53 146.34 395.338 145.055C395.106 143.487 394.995 141.904 395.007 140.319C395.007 138.59 394.958 136.715 394.929 134.704C394.9 132.692 394.851 130.524 394.666 128.288C394.395 125.955 393.45 123.752 391.947 121.95C391.162 120.998 390.159 120.251 389.024 119.773C387.835 119.293 386.541 119.135 385.272 119.314C383.972 119.481 382.782 120.133 381.94 121.14C381.145 122.277 380.677 123.611 380.586 124.997C380.128 127.927 380.849 130.856 380.702 134.196C380.682 134.615 380.633 135.033 380.556 135.446C380.468 135.857 380.351 136.262 380.206 136.657L380.108 136.96C380.051 137.114 379.976 137.262 379.884 137.399C379.77 137.542 379.618 137.649 379.446 137.71C379.273 137.77 379.088 137.781 378.91 137.741C378.466 137.652 378.032 137.521 377.614 137.35C376.806 136.942 376.095 136.365 375.53 135.657C374.965 134.949 374.559 134.128 374.34 133.249C373.92 131.553 373.721 129.81 373.745 128.063C373.745 126.335 373.745 124.587 373.745 122.819C373.808 121.026 373.961 119.236 374.203 117.458C374.397 115.529 375.207 113.713 376.512 112.282C377.988 110.94 379.899 110.18 381.891 110.144C383.857 110.068 385.815 110.435 387.621 111.218C391.226 112.878 394.219 115.631 396.176 119.089Z" fill="#1C1CFF"/>
<path d="M384.405 142.467C384.405 144.088 384.405 145.729 384.405 147.213C384.399 147.889 384.55 148.558 384.843 149.166C385.172 149.701 385.645 150.131 386.208 150.406C388.644 151.51 391.158 152.408 393.116 152.203C393.998 152.133 394.823 151.74 395.435 151.1C395.9 150.606 396.214 149.989 396.341 149.322C396.413 148.726 396.429 148.125 396.39 147.526C396.39 147.526 396.877 148.112 396.78 149.391C396.71 150.172 396.408 150.913 395.913 151.52C395.24 152.342 394.277 152.874 393.223 153.004C392.008 153.156 390.774 153.056 389.598 152.711C388.975 152.555 388.341 152.35 387.698 152.135C387.033 151.912 386.382 151.648 385.75 151.344C385.005 150.981 384.378 150.416 383.937 149.713C383.547 148.962 383.34 148.128 383.333 147.282C383.333 145.68 383.333 144.127 383.333 142.487C383.333 135.944 383.411 130.065 383.625 125.729C383.7 124.721 383.937 123.732 384.327 122.8C384.636 122.099 385.091 121.473 385.662 120.964C386.636 120.124 387.387 120.104 387.377 120.163C386.871 120.487 386.398 120.86 385.964 121.276C385.505 121.797 385.148 122.4 384.912 123.054C384.62 123.93 384.459 124.845 384.434 125.768C384.327 129.967 384.405 135.924 384.405 142.467Z" fill="#1C1CFF"/>
<path d="M392.2 162.896C389.446 162.457 386.741 161.751 384.122 160.787C381.621 159.927 379.318 158.572 377.35 156.803C375.564 155.158 374.274 153.043 373.628 150.699C373.053 148.653 373.094 146.482 373.745 144.459C374.314 142.798 375.366 141.346 376.766 140.289C377.801 139.493 379.01 138.954 380.293 138.717C381.094 138.574 381.912 138.554 382.719 138.659C383.275 138.737 383.548 138.825 383.538 138.864C382.482 138.873 381.43 138.971 380.39 139.157C379.204 139.448 378.1 140.01 377.165 140.797C375.919 141.811 374.997 143.169 374.515 144.703C373.414 148.072 374.515 152.848 378.062 156.022C379.946 157.666 382.135 158.923 384.502 159.723C387.058 160.643 389.694 161.323 392.376 161.754C397.557 162.641 402.882 162.114 407.791 160.23C412.254 158.482 415.586 155.348 416.96 151.998C417.596 150.513 417.841 148.889 417.671 147.281C417.533 146.068 417.112 144.904 416.444 143.883C415.821 143.028 415.072 142.274 414.222 141.647C414.501 141.705 414.766 141.818 415.002 141.979C415.7 142.411 416.312 142.971 416.804 143.629C417.595 144.672 418.111 145.898 418.305 147.194C418.552 148.919 418.347 150.679 417.71 152.301C416.385 155.943 412.838 159.332 408.181 161.207C403.108 163.225 397.581 163.809 392.2 162.896Z" fill="#1C1CFF"/>
<path d="M370.705 280.833C373.617 284.148 377.497 286.461 381.794 287.444C385.774 288.483 389.95 288.513 393.945 287.532C395.779 287.057 397.523 286.285 399.109 285.247C400.598 284.254 401.915 283.024 403.007 281.604C404.955 279.025 406.246 276.008 406.768 272.816C407.178 270.157 407.122 267.447 406.602 264.808C406.213 262.799 405.619 260.836 404.829 258.949C403.504 255.853 402.432 254.291 402.529 254.232C402.844 254.565 403.115 254.935 403.338 255.336C404.054 256.432 404.686 257.581 405.228 258.773C406.111 260.645 406.781 262.61 407.226 264.632C407.831 267.344 407.947 270.142 407.567 272.894C407.083 276.255 405.774 279.442 403.757 282.171C402.618 283.688 401.239 285.008 399.674 286.077C398.002 287.191 396.158 288.022 394.218 288.538C390.061 289.599 385.706 289.599 381.55 288.538C377.018 287.51 372.925 285.073 369.857 281.575C366.854 277.999 365.083 273.546 364.81 268.88C364.668 266.68 364.875 264.472 365.424 262.337C365.966 260.297 366.82 258.353 367.957 256.576C370.048 253.288 372.952 250.597 376.386 248.763C379.386 247.163 382.731 246.325 386.13 246.322C388.901 246.314 391.65 246.82 394.237 247.816C396.182 248.567 398.015 249.582 399.684 250.834C400.746 251.614 401.725 252.5 402.607 253.48C402.923 253.809 403.2 254.173 403.435 254.564C402.187 253.349 400.855 252.224 399.45 251.195C397.777 250.037 395.958 249.104 394.042 248.422C391.519 247.512 388.85 247.075 386.169 247.133C382.926 247.193 379.746 248.041 376.902 249.603C373.64 251.391 370.889 253.986 368.912 257.142C366.707 260.614 365.682 264.708 365.989 268.812C366.24 273.221 367.893 277.433 370.705 280.833Z" fill="#1C1CFF"/>
<path d="M114.786 107.654C107.965 111.833 101.534 115.622 95.6385 119.147L87.278 124.108C85.9528 124.86 84.7446 125.681 83.3804 126.286C82.7034 126.593 81.9777 126.778 81.2367 126.833C80.5161 126.879 79.7943 126.765 79.1222 126.501C77.9245 126.006 76.8549 125.245 75.9943 124.274C75.2208 123.458 74.5409 122.557 73.9676 121.589C72.9722 120.047 72.4911 118.227 72.5936 116.394C72.6799 115.242 73.096 114.14 73.7922 113.22C74.2891 112.614 74.6497 112.409 74.6691 112.429C74.6886 112.448 74.3963 112.732 73.9773 113.357C73.3833 114.272 73.0467 115.332 73.0029 116.423C72.9745 118.143 73.482 119.829 74.4548 121.247C75.0316 122.154 75.701 122.998 76.4523 123.767C77.2677 124.63 78.2669 125.297 79.3756 125.72C79.9672 125.927 80.595 126.01 81.2201 125.965C81.8451 125.919 82.4543 125.746 83.0101 125.456C84.2281 124.899 85.4656 124.05 86.7713 123.278L95.083 118.22L114.113 106.697C114.867 106.215 115.479 105.541 115.887 104.744C116.233 103.945 116.347 103.065 116.218 102.205C115.942 100.413 115.196 98.728 114.055 97.3218C113.034 95.9449 111.548 94.987 109.875 94.6266C108.232 94.4619 106.581 94.8354 105.168 95.691C103.707 96.482 102.333 97.4488 100.949 98.3081L96.9539 100.896C94.362 102.497 91.9259 103.962 89.6848 105.271C85.2025 107.888 81.529 109.909 78.9663 111.257C77.6898 111.931 76.6862 112.439 76.0431 112.771C75.7042 112.971 75.3406 113.125 74.9615 113.23C75.2602 112.975 75.5871 112.755 75.9359 112.575L78.8006 110.866C81.2951 109.402 84.9102 107.283 89.334 104.578C91.5362 103.23 93.943 101.726 96.5154 100.095L100.472 97.5367C101.845 96.6675 103.19 95.691 104.739 94.8414C106.348 93.8576 108.235 93.432 110.108 93.6305C112.051 94.0163 113.785 95.104 114.981 96.6871C116.259 98.2457 117.094 100.122 117.397 102.117C117.56 103.186 117.418 104.279 116.988 105.271C116.479 106.248 115.719 107.071 114.786 107.654Z" fill="#1C1CFF"/>
<path d="M83.4874 116.745C84.2268 118.605 84.5367 120.608 84.3936 122.604C84.3156 124.098 84.1013 124.997 83.9454 124.987C83.7895 124.977 83.7115 124.059 83.5946 122.624C83.4842 120.778 83.0932 118.961 82.435 117.233C81.7484 115.562 80.5643 114.143 79.0441 113.171C77.865 112.448 76.9588 112.321 76.9783 112.194C76.9978 112.068 77.9527 111.882 79.4144 112.507C81.2489 113.365 82.7002 114.876 83.4874 116.745Z" fill="#1C1CFF"/>
<path d="M178.347 25.4876C180.599 27.5158 183.412 28.8129 186.415 29.2083C189.205 29.5809 192.041 29.0433 194.502 27.6751C195.653 27.0472 196.717 26.2725 197.669 25.3704C198.554 24.5069 199.345 23.551 200.027 22.519C201.238 20.6395 201.996 18.5029 202.239 16.2789C202.43 14.4364 202.238 12.5743 201.674 10.8103C201.264 9.46984 200.642 8.20388 199.832 7.06035C199.097 6.10415 198.289 5.20632 197.416 4.37486C197.714 4.49054 197.991 4.65559 198.234 4.86313C198.962 5.43131 199.616 6.0873 200.183 6.81621C201.091 7.96331 201.802 9.25365 202.288 10.6345C202.941 12.4736 203.197 14.4309 203.038 16.3765C202.845 18.744 202.09 21.0309 200.836 23.0463C200.125 24.1593 199.299 25.1937 198.371 26.1321C197.362 27.1062 196.232 27.9464 195.009 28.6321C192.349 30.142 189.271 30.7452 186.239 30.3508C183.007 29.938 179.977 28.5521 177.548 26.3763C175.081 24.2136 173.419 21.2774 172.831 18.0464C172.325 15.0557 172.683 11.9823 173.864 9.18921C174.392 7.88837 175.101 6.66869 175.969 5.56624C176.776 4.51787 177.731 3.59339 178.805 2.82217C180.728 1.42877 182.963 0.530081 185.314 0.205055C188.695 -0.278213 192.142 0.35236 195.136 2.00188C195.927 2.45653 196.668 2.99332 197.348 3.60341C197.806 4.04285 198.02 4.27722 198 4.30651C197.981 4.33581 197.026 3.45693 194.921 2.35344C191.976 0.920873 188.661 0.436502 185.431 0.966754C183.232 1.32185 181.152 2.20653 179.37 3.54482C178.382 4.2885 177.506 5.16978 176.768 6.16193C175.964 7.20207 175.308 8.34907 174.819 9.57006C173.742 12.1822 173.428 15.0473 173.913 17.8316C174.484 20.8127 176.047 23.5117 178.347 25.4876Z" fill="#1C1CFF"/>
<path d="M181.728 398.252L8.99381 300.598C7.75022 299.89 6.76477 298.802 6.18111 297.494C5.59744 296.185 5.44606 294.724 5.74902 293.323L33.851 161.109C34.0562 160.091 34.4993 159.136 35.1441 158.323C35.7888 157.509 36.6167 156.861 37.56 156.43C38.5032 155.999 39.5349 155.799 40.5704 155.845C41.606 155.891 42.6158 156.182 43.5172 156.695L217.323 256.781C218.563 257.502 219.541 258.602 220.113 259.919C220.684 261.237 220.82 262.704 220.499 264.105L191.267 393.887C191.051 394.884 190.606 395.817 189.967 396.611C189.329 397.405 188.514 398.04 187.588 398.463C186.662 398.887 185.65 399.089 184.633 399.052C183.616 399.015 182.621 398.741 181.728 398.252Z" fill="white" stroke="#1C1CFF" stroke-width="1.84" stroke-miterlimit="10"/>
<path d="M177.742 398.32L4.29719 301.858C3.05488 301.168 2.06741 300.096 1.48119 298.799C0.894962 297.503 0.741184 296.052 1.04266 294.661L29.3006 164.049C29.5187 163.03 29.9737 162.077 30.6285 161.268C31.2833 160.459 32.1195 159.816 33.069 159.391C34.0185 158.967 35.0546 158.773 36.0929 158.825C37.1313 158.878 38.1426 159.175 39.0447 159.693L213.513 258.509C214.751 259.213 215.73 260.298 216.304 261.603C216.878 262.909 217.017 264.365 216.699 265.755L187.389 393.965C187.166 394.97 186.712 395.908 186.064 396.707C185.415 397.505 184.59 398.141 183.654 398.563C182.717 398.986 181.696 399.184 180.669 399.142C179.643 399.1 178.641 398.819 177.742 398.32Z" fill="#E4DBFD" stroke="#1C1CFF" stroke-width="1.84" stroke-miterlimit="10"/>
<path d="M255.9 250.209C250.565 250.059 245.281 249.134 240.212 247.465C237.807 246.67 235.456 245.717 233.176 244.613C230.963 243.569 228.871 242.282 226.94 240.775C225.095 239.307 223.553 237.493 222.399 235.434C221.786 234.444 221.353 233.353 221.123 232.211C221.04 231.095 221.142 229.973 221.425 228.891C222.156 224.77 222.838 220.942 223.461 217.436C224.913 210.464 226.161 204.839 227.028 200.952C227.476 198.999 227.817 197.505 228.061 196.489C228.154 195.963 228.298 195.446 228.489 194.946C228.475 195.483 228.406 196.016 228.285 196.538C228.09 197.573 227.817 199.087 227.457 201.05C226.706 204.956 225.605 210.6 224.261 217.583C223.676 221.098 223.043 224.946 222.312 229.076C222.063 230.055 221.974 231.067 222.049 232.074C222.278 233.088 222.677 234.055 223.228 234.936C224.337 236.873 225.81 238.577 227.564 239.955C229.439 241.4 231.468 242.631 233.615 243.627C235.853 244.702 238.161 245.625 240.523 246.39C245.49 248.017 250.666 248.915 255.89 249.056C261.129 249.183 266.356 248.474 271.373 246.957C273.748 246.241 276.064 245.343 278.301 244.271C280.455 243.268 282.524 242.093 284.489 240.756C286.325 239.512 287.865 237.878 289 235.971C290 234.135 290.491 232.065 290.423 229.975C290.379 227.985 290.148 226.003 289.731 224.057C289.354 222.15 288.991 220.323 288.64 218.579C287.276 211.596 286.175 205.942 285.415 202.036C285.054 200.083 284.781 198.56 284.586 197.524C284.465 197.005 284.397 196.475 284.382 195.942C284.576 196.442 284.723 196.958 284.82 197.485C285.054 198.462 285.395 200.005 285.795 201.948C286.642 205.854 287.87 211.46 289.38 218.413C289.751 220.164 290.14 221.987 290.55 223.881C290.998 225.88 291.256 227.917 291.319 229.965C291.404 232.22 290.894 234.456 289.838 236.449C288.643 238.504 287.009 240.268 285.054 241.615C283.047 242.998 280.933 244.216 278.73 245.258C271.604 248.689 263.763 250.363 255.861 250.14L255.9 250.209Z" fill="#1C1CFF"/>
<path d="M289.449 120.573C287.531 123.403 286.315 126.65 285.902 130.046C285.571 132.653 285.766 134.313 285.571 134.333C285.376 134.352 284.967 132.712 285.093 129.968C285.293 126.366 286.484 122.89 288.534 119.925C290.584 116.961 293.413 114.623 296.708 113.171C299.222 112.077 300.937 111.95 300.957 112.077C300.976 112.204 299.388 112.673 297.059 113.903C294.03 115.49 291.421 117.776 289.449 120.573Z" fill="#1C1CFF"/>
<path d="M303.734 150.348C305.591 150.785 307.497 150.986 309.405 150.944C310.951 150.91 312.484 150.65 313.955 150.172C316.479 149.313 317.619 147.985 317.755 148.131C317.892 148.278 317.59 148.561 317.034 149.108C316.222 149.874 315.278 150.486 314.248 150.914C312.722 151.544 311.101 151.907 309.453 151.988C307.448 152.09 305.438 151.912 303.48 151.461C299.928 150.643 296.63 148.967 293.873 146.578C291.778 144.743 290.949 143.229 290.998 143.161C291.047 143.092 292.236 144.342 294.379 145.953C297.16 148.052 300.345 149.548 303.734 150.348Z" fill="#1C1CFF"/>
<path d="M37.0376 264.466C39.7952 262.982 48.6233 258.666 57.5002 262.279C66.3771 265.892 69.7875 275.12 70.7425 278.118" stroke="#723EDD" stroke-width="1.99" stroke-miterlimit="10" stroke-linecap="round"/>
<path d="M42.9131 269.652C44.5209 268.841 49.6852 266.488 54.9763 268.626C60.2673 270.765 62.3623 276.058 62.9665 277.757" stroke="#723EDD" stroke-width="1.99" stroke-miterlimit="10" stroke-linecap="round"/>
<path d="M33.2275 257.787C36.6867 256.332 47.8437 252.191 59.6633 256.986C71.4829 261.781 76.6668 272.503 78.1771 275.95" stroke="#723EDD" stroke-width="1.99" stroke-miterlimit="10" stroke-linecap="round"/>
<path d="M54.0408 279.86C54.7357 278.134 53.9236 276.179 52.2269 275.493C50.5301 274.806 48.5913 275.649 47.8964 277.374C47.2015 279.1 48.0137 281.055 49.7104 281.741C51.4071 282.427 53.3459 281.585 54.0408 279.86Z" fill="#723EDD"/>
<path d="M131.848 246.742L108.881 347.277" stroke="#B197F7" stroke-width="6" stroke-miterlimit="10" stroke-linecap="round"/>
<path d="M148.598 256.615L125.631 357.149" stroke="#B197F7" stroke-width="6" stroke-miterlimit="10" stroke-linecap="round"/>
<path d="M166.195 265.345L143.229 365.87" stroke="#B197F7" stroke-width="6" stroke-miterlimit="10" stroke-linecap="round"/>
<path d="M123.779 254.73L134.975 259.378" stroke="url(#paint0_linear_2266_24337)" stroke-width="3" stroke-miterlimit="10" stroke-linecap="round"/>
<path d="M133.144 297.014L144.34 301.653" stroke="url(#paint1_linear_2266_24337)" stroke-width="3" stroke-miterlimit="10" stroke-linecap="round"/>
<path d="M157.718 275.13L168.914 279.778" stroke="url(#paint2_linear_2266_24337)" stroke-width="3" stroke-miterlimit="10" stroke-linecap="round"/>
<path d="M387.991 135.631C387.884 144.147 387.533 151.061 387.221 151.051C386.909 151.041 386.744 144.137 386.851 135.612C386.9 133.483 386.939 131.452 386.978 129.606C386.963 127.922 387.219 126.247 387.738 124.645C388.118 123.55 388.764 122.567 389.618 121.784C390.252 121.267 390.69 121.13 390.719 121.188C389.705 122.237 388.948 123.507 388.507 124.899C388.127 126.444 387.966 128.036 388.03 129.626C388.02 131.432 388.011 133.463 387.991 135.631Z" fill="#1C1CFF"/>
<path d="M47.7561 203.061C52.6964 203.061 56.7012 199.048 56.7012 194.097C56.7012 189.146 52.6964 185.132 47.7561 185.132C42.8159 185.132 38.811 189.146 38.811 194.097C38.811 199.048 42.8159 203.061 47.7561 203.061Z" fill="#C1A9FF"/>
<path d="M45.9046 204.829C50.8448 204.829 54.8497 200.815 54.8497 195.864C54.8497 190.913 50.8448 186.9 45.9046 186.9C40.9643 186.9 36.9595 190.913 36.9595 195.864C36.9595 200.815 40.9643 204.829 45.9046 204.829Z" fill="#723EDD"/>
<path d="M46.8986 192.017C47.5928 192.017 48.1556 191.453 48.1556 190.757C48.1556 190.061 47.5928 189.497 46.8986 189.497C46.2044 189.497 45.6416 190.061 45.6416 190.757C45.6416 191.453 46.2044 192.017 46.8986 192.017Z" fill="white"/>
<path d="M398.641 226.557C397.536 227.205 396.265 227.511 394.987 227.436C393.782 227.205 392.629 226.755 391.586 226.108L385.613 222.719C383.664 221.586 381.716 220.493 379.767 219.36L374.047 215.971L362.919 209.36C361.097 208.296 359.314 207.202 357.56 206.108L354.929 204.497C354.081 203.94 353.204 203.52 352.288 203.013C351.816 202.75 351.372 202.439 350.963 202.085C350.524 201.692 350.189 201.195 349.989 200.64C349.704 199.618 349.611 198.551 349.716 197.495C349.774 196.519 349.901 195.542 349.882 194.566C349.862 193.589 349.882 192.613 349.882 191.636C349.882 187.795 349.911 184.081 349.969 180.494C350.028 173.297 350.076 166.607 350.125 160.494C350.125 158.961 350.125 157.467 350.174 156.012C350.142 154.579 350.223 153.145 350.418 151.725C350.61 150.335 351.154 149.018 351.996 147.897C352.823 146.886 353.811 146.018 354.919 145.329C359.09 142.79 362.812 140.924 365.872 139.381C368.931 137.838 371.358 136.784 373.004 136.071C373.833 135.71 374.466 135.446 374.895 135.28C375.106 135.18 375.329 135.104 375.557 135.055C375.365 135.187 375.159 135.298 374.943 135.387L373.102 136.276C371.484 137.057 369.097 138.229 366.076 139.782C363.056 141.334 359.343 143.317 355.27 145.866C354.245 146.525 353.336 147.35 352.581 148.307C351.822 149.347 351.339 150.564 351.178 151.842C351.004 153.228 350.936 154.625 350.973 156.022V160.494C350.973 166.607 350.973 173.306 350.973 180.494V191.636V194.566C350.973 195.542 350.856 196.568 350.817 197.495C350.72 198.413 350.796 199.34 351.041 200.23C351.417 201.037 352.071 201.682 352.883 202.046C353.711 202.524 354.685 202.964 355.553 203.53L358.184 205.132C359.947 206.216 361.73 207.309 363.553 208.374L374.68 214.946L380.39 218.325C382.339 219.458 384.288 220.542 386.237 221.674L392.181 225.043C393.104 225.613 394.12 226.016 395.182 226.235C396.235 226.282 397.279 226.017 398.183 225.473L421.891 212.212L433.126 205.942L438.602 202.876C439.508 202.378 440.395 201.899 441.311 201.382C441.728 201.184 442.12 200.939 442.48 200.649C442.749 200.364 442.914 199.996 442.948 199.605C443.055 195.698 442.86 191.695 442.772 187.886C442.714 185.933 442.665 184.087 442.607 182.232C442.548 180.377 442.431 178.55 442.343 176.754C441.983 169.566 441.613 162.926 441.369 156.774C441.369 155.221 441.427 153.746 441.369 152.301C441.402 150.94 441.167 149.586 440.677 148.317C439.967 147.254 439.006 146.382 437.881 145.778C436.799 145.094 435.698 144.508 434.626 143.942C432.453 142.838 430.582 141.54 428.78 140.504C426.977 139.469 425.359 138.503 423.908 137.672C420.936 136.003 418.587 134.743 416.989 133.952L415.177 132.975C414.968 132.872 414.766 132.754 414.573 132.624C414.8 132.675 415.02 132.757 415.226 132.868L417.096 133.717C418.724 134.479 421.101 135.671 424.122 137.253C425.629 138.053 427.286 138.971 429.091 140.006C430.923 140.983 432.784 142.282 434.938 143.346C436.01 143.903 437.13 144.479 438.251 145.163C439.491 145.821 440.549 146.777 441.33 147.946C441.891 149.311 442.17 150.776 442.149 152.252C442.217 153.717 442.149 155.182 442.149 156.734C442.499 162.828 442.879 169.517 443.279 176.685C443.376 178.482 443.513 180.308 443.571 182.164C443.63 184.019 443.698 185.913 443.766 187.828C443.864 191.675 444.097 195.552 443.971 199.722C443.911 200.347 443.64 200.933 443.201 201.382C442.773 201.74 442.301 202.041 441.798 202.28C440.911 202.759 440.015 203.257 439.118 203.784L433.642 206.919L422.407 213.247C414.709 217.553 406.816 222.026 398.641 226.557Z" fill="#1C1CFF"/>
<path d="M396.341 174.263C397.001 175 397.451 175.901 397.647 176.871C397.821 177.765 397.906 178.674 397.9 179.585C397.9 181.314 397.9 183.023 397.9 184.702C397.9 188.052 397.9 191.284 397.949 194.37C397.949 200.532 397.949 206.089 397.949 210.747C397.949 215.405 397.949 219.174 397.861 221.782C397.861 223.09 397.813 224.096 397.784 224.78C397.8 225.135 397.764 225.49 397.676 225.834C397.588 225.49 397.548 225.135 397.559 224.78C397.511 224.096 397.472 223.09 397.423 221.782C397.326 219.174 397.238 215.405 397.14 210.747C397.043 206.089 396.975 200.542 396.877 194.38C396.877 191.304 396.799 188.062 396.76 184.712C396.76 183.042 396.76 181.333 396.702 179.605C396.643 177.876 396.536 176.197 395.435 175.035C394.173 173.903 392.76 172.953 391.235 172.213L386.812 169.664L378.461 164.781L364.351 156.539C360.337 154.176 357.102 152.242 354.88 150.895C353.769 150.211 352.931 149.684 352.337 149.303C352.028 149.137 351.743 148.93 351.489 148.688C351.835 148.773 352.164 148.915 352.464 149.108C353.078 149.41 353.974 149.889 355.124 150.504C357.414 151.744 360.707 153.561 364.77 155.836L379.046 163.951L387.435 168.726L391.859 171.265L394.139 172.574C394.951 173.027 395.693 173.596 396.341 174.263Z" fill="#1C1CFF"/>
<path d="M418.636 162.311L434.334 152.828C438.368 150.426 440.902 148.991 440.98 149.127C441.058 149.264 438.69 150.934 434.763 153.512C430.836 156.09 425.35 159.557 419.221 163.277C413.092 166.998 407.528 170.269 403.397 172.564C399.265 174.859 396.722 176.207 396.644 176.07C396.566 175.933 399.002 174.351 402.987 171.871L418.636 162.311Z" fill="#1C1CFF"/>
<path d="M264.679 123.22L271.393 127.272C273.634 128.61 275.846 129.968 278.078 131.266C280.309 132.565 282.57 133.815 284.898 134.86C286.058 135.358 287.276 135.836 288.465 136.442C289.719 137.06 290.76 138.04 291.456 139.254C292.098 140.505 292.34 141.924 292.148 143.317C291.921 144.65 291.431 145.925 290.706 147.067C290.015 148.159 289.247 149.2 288.406 150.182C287.598 151.158 286.779 152.135 285.941 153.111C282.611 156.869 279.048 160.411 275.271 163.717C273.407 165.357 271.5 166.933 269.551 168.443C267.603 169.967 265.547 171.373 263.705 172.828C262.804 173.551 262.024 174.415 261.396 175.386C260.794 176.328 260.458 177.414 260.421 178.531C260.515 180.831 261.27 183.056 262.594 184.937C263.848 186.914 265.235 188.803 266.745 190.591C268.181 192.365 269.92 193.869 271.88 195.034C273.799 196.151 276.04 196.578 278.233 196.245C280.413 195.829 282.478 194.954 284.294 193.677C286.14 192.417 287.901 191.037 289.566 189.546C291.252 188.081 292.869 186.558 294.438 185.005C297.556 181.89 300.47 178.628 303.208 175.328C308.674 168.736 313.332 161.656 316.06 154.137C318.788 146.618 319.5 138.571 317.639 131.374C316.779 127.846 315.148 124.554 312.864 121.735C310.589 119.085 307.94 116.782 305.001 114.9L273.81 94.8805C269.201 91.9508 265.04 89.0212 260.675 87.3807C259.621 86.9713 258.532 86.6639 257.42 86.4627C256.365 86.2565 255.289 86.1746 254.214 86.2186C252.217 86.2878 250.265 86.837 248.524 87.8201C245.583 89.5085 243.278 92.12 241.966 95.2516C241.016 97.5507 240.511 100.009 240.475 102.497C240.451 104.031 240.565 105.564 240.816 107.077C240.894 107.595 240.972 107.976 241.021 108.23C241.054 108.361 241.074 108.495 241.079 108.63C241.029 108.507 240.989 108.38 240.962 108.249C240.894 107.995 240.797 107.615 240.699 107.097C240.396 105.583 240.242 104.042 240.241 102.497C240.232 99.9714 240.712 97.4675 241.654 95.1246C242.958 91.8899 245.3 89.1824 248.309 87.4295C250.095 86.4029 252.099 85.8171 254.156 85.7206C255.269 85.6637 256.384 85.7424 257.478 85.9549C258.618 86.1557 259.736 86.4597 260.821 86.8631C265.293 88.4841 269.493 91.4626 274.121 94.3434L305.478 114.255C308.487 116.164 311.204 118.5 313.546 121.188C315.921 124.098 317.622 127.5 318.525 131.149C320.474 138.551 319.714 146.774 316.976 154.459C314.238 162.144 309.512 169.322 304.007 175.943C301.249 179.273 298.336 182.554 295.188 185.708C293.61 187.281 291.982 188.824 290.316 190.298C288.622 191.832 286.824 193.248 284.937 194.536C282.996 195.893 280.792 196.825 278.467 197.271C276.025 197.661 273.523 197.206 271.374 195.982C269.299 194.757 267.459 193.173 265.936 191.304C264.389 189.472 262.966 187.537 261.678 185.513C260.228 183.456 259.412 181.018 259.33 178.501C259.366 177.19 259.753 175.911 260.45 174.8C261.141 173.734 261.992 172.782 262.974 171.978C264.923 170.386 266.93 169.049 268.821 167.554C270.711 166.06 272.64 164.498 274.482 162.867C278.211 159.581 281.729 156.062 285.015 152.33C285.844 151.354 286.652 150.436 287.451 149.469C288.26 148.527 288.996 147.525 289.654 146.471C290.302 145.465 290.743 144.34 290.95 143.161C291.109 142.005 290.908 140.828 290.375 139.792C289.782 138.775 288.899 137.959 287.841 137.448C286.769 136.862 285.571 136.422 284.362 135.905C281.975 134.821 279.724 133.551 277.464 132.253C275.203 130.954 273.001 129.587 270.769 128.249L264.046 124.196C259.577 121.455 255.172 118.653 250.833 115.788C248.67 114.362 246.526 112.924 244.402 111.472C242.278 110.017 240.144 108.542 238.107 106.99C234.044 103.884 230.195 100.154 228.081 95.3883C225.998 90.6383 225.724 85.2882 227.311 80.3496C228.899 75.5033 232.206 71.4098 236.607 68.846C238.743 67.5715 241.094 66.7009 243.544 66.2777C245.957 65.8749 248.413 65.8125 250.843 66.0921C255.656 66.6097 260.197 68.0452 264.66 69.3245C269.123 70.6037 273.556 71.8146 277.951 72.9572C295.49 77.4883 312.445 80.9941 328.26 84.3143L339.953 86.7557C343.763 87.5955 347.524 88.2693 351.168 89.3435C354.814 90.317 358.185 92.1217 361.019 94.6168C362.398 95.8094 363.516 97.2756 364.3 98.9228C365.085 100.57 365.521 102.362 365.58 104.187C365.599 105.965 365.166 107.72 364.323 109.284C363.9 110.071 363.291 110.742 362.549 111.237C361.762 111.675 360.866 111.878 359.967 111.823C359.141 111.776 358.317 111.682 357.502 111.54L355.124 111.208L350.457 110.583L333.083 108.288C322.277 106.775 312.991 105.271 305.41 104.001C297.829 102.732 291.953 101.667 287.978 100.925L283.456 100.056L282.306 99.8217L281.917 99.7241C282.049 99.7087 282.184 99.7087 282.316 99.7241L283.476 99.8999L288.017 100.662C292.002 101.326 297.887 102.322 305.478 103.523C313.069 104.724 322.355 106.16 333.171 107.624L350.515 109.87L355.183 110.476L357.57 110.798C358.353 110.933 359.144 111.021 359.938 111.062C360.691 111.112 361.442 110.943 362.101 110.573C362.731 110.136 363.244 109.549 363.592 108.865C364.362 107.413 364.754 105.791 364.732 104.148C364.672 102.437 364.256 100.758 363.511 99.2176C362.766 97.6772 361.708 96.3098 360.406 95.2027C357.667 92.8273 354.42 91.1164 350.915 90.2029C347.348 89.158 343.568 88.4939 339.768 87.6639L328.075 85.2518C312.25 81.9804 295.325 78.5039 277.698 73.9923C273.293 72.8465 268.853 71.6389 264.377 70.3694C259.895 69.0901 255.403 67.6839 250.736 67.1858C248.409 66.925 246.058 66.9875 243.749 67.3714C241.429 67.7731 239.202 68.6007 237.182 69.8127C233.028 72.2449 229.908 76.1187 228.412 80.7011C226.909 85.3769 227.169 90.4425 229.143 94.9391C231.14 99.4507 234.823 103.044 238.828 106.101C240.836 107.644 242.95 109.079 245.065 110.534C247.179 111.989 249.332 113.464 251.496 114.851C255.822 117.689 260.217 120.479 264.679 123.22Z" fill="#1C1CFF"/>
<defs>
<linearGradient id="paint0_linear_2266_24337" x1="124.061" y1="251.1" x2="135.061" y2="263.6" gradientUnits="userSpaceOnUse">
<stop stop-color="#FF7063"/>
<stop offset="0.45625" stop-color="#EE1F8F"/>
<stop offset="1" stop-color="#B405FF"/>
</linearGradient>
<linearGradient id="paint1_linear_2266_24337" x1="133.425" y1="293.392" x2="144.399" y2="305.888" gradientUnits="userSpaceOnUse">
<stop stop-color="#FF7063"/>
<stop offset="0.45625" stop-color="#EE1F8F"/>
<stop offset="1" stop-color="#B405FF"/>
</linearGradient>
<linearGradient id="paint2_linear_2266_24337" x1="158" y1="271.5" x2="169" y2="284" gradientUnits="userSpaceOnUse">
<stop stop-color="#FF7063"/>
<stop offset="0.45625" stop-color="#EE1F8F"/>
<stop offset="1" stop-color="#B405FF"/>
</linearGradient>
</defs>
</svg>
