<svg width="302" height="367" viewBox="0 0 302 367" fill="none" xmlns="http://www.w3.org/2000/svg">
<g clip-path="url(#clip0_1804_11687)">
<path opacity="0.88" d="M299.652 2.35144H2.34766V364.649H299.652V2.35144Z" stroke="#1C1CFF" stroke-width="13" stroke-miterlimit="10"/>
<path d="M297.195 4.76562H4.72656V162.439H297.195V4.76562Z" fill="url(#paint0_radial_1804_11687)"/>
<path opacity="0.88" d="M297.195 162.454H4.72656V363.238H297.195V162.454Z" fill="#A684FF"/>
<path d="M123.188 121.163C129.715 133.704 130.513 148.236 130.685 162.455H4.96131C4.88306 162.251 4.78919 162.063 4.71094 161.859V101.473C8.90538 92.3811 16.6369 87.6781 30.7227 94.0741C49.5038 102.618 63.9339 124.424 60.3812 145.477C63.2766 128.233 68.6292 107.948 85.1409 102.257C99.7432 97.2251 116.036 107.462 123.188 121.163Z" fill="#C2DBFF"/>
<path d="M297.179 87.6154C297.179 112.551 297.179 137.498 297.179 162.454H131.953C138.37 143.909 153.864 127.716 173.271 125.772C190.064 124.079 207.531 136.635 211.115 152.312C211.984 147.703 213.91 143.358 216.74 139.621C219.569 135.883 223.227 132.854 227.423 130.772C233.477 128.087 240.241 127.459 246.684 128.985C253.127 130.51 258.895 134.106 263.107 139.222C255.626 116.726 273.28 89.5906 296.835 87.3489L297.179 87.6154Z" fill="#C2DBFF"/>
<path d="M4.96143 162.454C21.3323 163.505 33.9469 176.892 38.7361 192.6C43.5253 208.308 42.0697 225.129 41.3498 241.542C40.6299 257.955 40.8647 275.168 48.5336 289.668C56.2026 304.169 73.575 314.86 89.1007 309.734C83.1221 307.535 77.6436 304.159 72.9881 299.805C68.3326 295.452 64.5942 290.209 61.9934 284.385C47.4693 251.465 71.963 214.735 57.439 181.846C49.817 164.602 42.8992 161.796 24.0399 162.454" fill="#DED3FB"/>
<path d="M284.236 162.454C274.845 166.813 270.604 179.26 269.962 189.559C269.321 199.858 271.121 210.314 269.258 220.473C267.862 227.669 264.699 234.404 260.054 240.069C255.408 245.735 249.428 250.152 242.652 252.923C238.786 254.491 234.67 255.462 231.07 257.626C227.47 259.789 224.34 263.285 224.246 267.455C238.29 267.285 251.764 261.868 262.027 252.265C272.154 242.718 279.744 229.079 277.224 215.378C275.033 203.433 273.046 184.793 277.224 175.607C282.061 165.025 286.818 164.743 296.647 162.517" fill="#DED3FB"/>
<path d="M90.9006 158.723C89.3355 150.148 88.6312 145.195 91.3545 136.965C94.3144 128.045 96.2058 118.804 96.9888 109.437C97.834 99.4667 97.4271 89.3398 99.6339 79.6517C101.858 70.2758 106.384 61.6044 112.802 54.424C119.219 47.2436 127.324 41.7813 136.382 38.5326C145.509 35.4786 155.253 34.7565 164.729 36.432C174.205 38.1074 183.113 42.1273 190.644 48.1265C204.119 59.1 211.929 75.8111 215.372 92.8513C218.816 109.892 218.299 127.449 217.783 144.834L216.499 187.443C216.171 198.338 215.372 210.377 207.656 218.059C200.895 224.815 190.597 226.32 181.05 226.508C160.868 226.853 140.842 222.904 122.296 214.923C118.462 213.356 114.471 211.788 111.247 208.998C107.788 205.972 105.8 201.426 103.766 197.397C99.2535 188.454 95.7118 179.052 93.2013 169.352C92.2935 165.794 91.5267 162.282 90.9006 158.723Z" fill="#723EDD"/>
<path d="M220.208 238.893C206.99 247.96 192.103 254.302 176.413 257.548C160.723 260.794 144.545 260.879 128.823 257.798C119.072 255.839 109.071 252.312 102.639 244.74C98.995 240.283 96.7957 234.818 96.3343 229.076C95.8729 223.334 97.1713 217.587 100.056 212.603L102.42 212.447L139.123 195.96L136.617 174.996C99.3206 154.71 109.447 136.024 107.318 108.277C105.79 88.3519 113.704 80.0593 113.704 80.0593C134.599 43.6096 151 60.3071 151 60.3071L170.188 76.3205L189.376 92.3339C196.294 155.748 173.056 168.208 173.056 168.208L176.413 189.164L196.294 206.536C205.058 212.682 212.273 219.297 221.022 225.348C222.947 226.696 225.013 228.248 225.483 230.553C226.171 233.986 223.072 236.87 220.208 238.893Z" fill="#C1A9FF"/>
<path d="M289.745 358.582C287.085 361.043 283.485 362.109 279.963 363.05C277.913 363.598 275.863 364.131 273.797 364.617H72.9019C67.5806 363.28 62.2801 361.832 57.0005 360.275C54.0895 359.428 50.975 358.362 49.316 355.823C47.3909 352.844 48.1578 348.957 48.9873 345.508C55.8424 317.29 62.6923 289.073 69.5369 260.855C71.8376 251.449 74.2322 241.855 79.0058 233.437C83.3254 225.928 89.9614 219.328 98.0686 216.679C98.1618 216.631 98.2623 216.6 98.3659 216.585C98.9763 231.776 109.572 245.633 123.267 252.343C137.258 259.178 153.848 259.272 168.873 255.212C183.898 251.152 197.593 243.219 210.489 234.487C214.637 231.666 219.144 228.656 223.949 227.809C225.393 227.533 226.872 227.486 228.331 227.668C235.405 228.593 240.351 234.942 244.311 240.883C263.718 269.897 279.419 301.233 291.044 334.158C293.924 342.325 296.068 352.688 289.745 358.582Z" fill="#8954F6"/>
<path d="M90.2432 311.38C89.4359 317.723 88.2178 324.007 86.5965 330.192C85.3444 334.895 84.2958 337.764 84.0924 337.701C83.8889 337.638 84.5306 334.691 85.501 329.863C86.4713 325.034 87.7077 318.497 88.6311 311.145C89.5545 303.793 90.0397 297.036 90.2745 292.239C90.5092 287.442 90.6188 284.401 90.8535 284.401C91.0883 284.401 91.37 287.411 91.4013 292.318C91.433 298.69 91.0462 305.058 90.2432 311.38Z" fill="white"/>
<path d="M228.112 334.503C224.073 332.753 219.71 331.881 215.31 331.943C210.91 332.005 206.573 333.001 202.585 334.863C198.625 336.781 195.116 339.518 192.289 342.893C189.462 346.267 187.381 350.204 186.183 354.443C185.479 357.014 185.385 360.338 187.654 361.733C189.501 362.877 191.974 362.015 193.68 360.682C195.228 359.158 196.88 357.743 198.626 356.45C201.615 354.725 205.355 355.117 208.673 356.011C211.991 356.904 215.247 358.284 218.69 358.394C220.968 358.46 223.224 357.933 225.238 356.864C227.252 355.795 228.954 354.221 230.178 352.296C231.837 349.352 232.424 345.921 231.837 342.592C231.24 339.281 229.961 336.131 228.081 333.343L228.112 334.503Z" fill="#C1A9FF"/>
<path d="M122.719 343.078C131.744 345.861 140.566 349.265 149.122 353.267C152.393 354.835 155.007 356.152 156.76 357.139C157.725 357.572 158.625 358.137 159.436 358.817C159.326 359.036 155.288 357.124 148.652 354.302C140.02 350.629 131.208 347.396 122.249 344.614C111.748 341.385 102.044 339.159 94.9855 337.748C87.9269 336.337 83.4977 335.647 83.529 335.396C84.5735 335.308 85.625 335.35 86.6592 335.522C88.6781 335.694 91.5892 336.07 95.1576 336.635C104.481 338.15 113.689 340.302 122.719 343.078Z" fill="white"/>
<path d="M246.674 329.988C236.705 333.123 229.458 337.607 229.161 337.184C228.863 336.76 235.969 331.65 246.189 328.467C256.409 325.285 265.174 325.458 265.127 325.85C265.08 326.241 256.613 326.821 246.674 329.988Z" fill="white"/>
<path d="M214.089 292.898C218.822 302.304 225.18 310.796 232.87 317.98C238.802 323.498 243.09 326.21 242.918 326.461C241.808 326.005 240.757 325.415 239.788 324.705C237.093 322.92 234.52 320.956 232.088 318.827C224.013 311.744 217.399 303.149 212.618 293.525C207.86 283.894 205.026 273.424 204.276 262.705C204.054 259.469 204.054 256.222 204.276 252.986C204.278 251.793 204.442 250.607 204.761 249.458C205.043 249.458 204.62 254.538 205.418 262.595C206.488 273.132 209.424 283.393 214.089 292.898Z" fill="white"/>
</g>
<defs>
<radialGradient id="paint0_radial_1804_11687" cx="0" cy="0" r="1" gradientUnits="userSpaceOnUse" gradientTransform="translate(525.428 92.2346) rotate(-179.846) scale(498.28 378.023)">
<stop stop-color="#0894FF"/>
<stop offset="0.290475" stop-color="#6E53FF"/>
<stop offset="0.609151" stop-color="#B038EA"/>
<stop offset="0.850793" stop-color="#F95088"/>
<stop offset="1" stop-color="#FF6F62"/>
</radialGradient>
<clipPath id="clip0_1804_11687">
<rect width="302" height="367" fill="white"/>
</clipPath>
</defs>
</svg>
