<svg width="290" height="200" viewBox="0 0 290 200" fill="none" xmlns="http://www.w3.org/2000/svg">
<path d="M90.3659 156.281C90.5156 154.891 90.8263 153.524 91.2917 152.206C92.8109 147.836 95.8059 144.619 98.3217 142.413C107.459 134.416 121.04 130.478 121.617 130.314C132.236 127.326 140.834 127.403 146.971 127.507C155.052 127.643 161.995 127.763 169.913 130.434C171.987 131.139 199.067 140.643 199.247 157.98C199.378 170.127 186.227 179.118 184.512 180.292C180.155 183.28 176.273 184.421 169.564 186.404C161.943 188.681 154.067 189.995 146.122 190.315C140.507 190.484 127.672 190.747 113.291 184.853C104.9 181.423 100.837 177.883 98.6593 175.688C96.5955 173.601 92.9035 169.368 91.21 163.709C90.4196 161.318 90.1322 158.789 90.3659 156.281Z" fill="#FFEB99"/>
<path d="M90.5782 161.552C90.5292 163.19 90.502 164.867 90.5129 166.593C90.5129 167.846 90.5328 169.071 90.5728 170.269C90.9552 172.2 91.5468 174.083 92.3371 175.884C94.1765 179.981 96.928 183.601 100.38 186.464C103.576 189.25 106.37 190.659 109.697 192.32C113.589 194.266 117.664 195.819 121.862 196.957C128.452 198.75 135.266 199.572 142.092 199.398C147.79 199.398 153.478 198.923 159.098 197.978C164.877 197.148 170.542 195.65 175.979 193.516C179.676 192.036 183.711 190.381 188.122 186.825C190.768 184.817 193.062 182.382 194.912 179.62C197.128 176.207 198.582 172.354 199.176 168.325L198.828 162.316C197.949 164.979 196.734 167.518 195.212 169.87C194.357 171.187 191.057 176.054 183.673 180.702C175.434 185.88 167.691 187.256 158.439 188.835C153.037 189.749 147.579 190.285 142.103 190.441C138.332 190.368 134.571 190.049 130.842 189.485C126.251 188.791 120.468 187.912 113.912 185.115C109.147 183.078 97.1998 177.965 92.1302 166.178C91.4806 164.684 90.9613 163.136 90.5782 161.552Z" fill="#E6CA5C"/>
<path d="M113.248 166.582L130.912 177.501L134.724 175.284L124.383 168.795L142.506 170.892L146.394 168.565L128.854 157.718L124.966 159.93L135.672 166.593L116.983 164.463L113.248 166.582Z" fill="#E6CA5C"/>
<path d="M132.906 155.461L150.679 166.244L154.524 164.01L147.652 159.733L153.124 156.537L149.808 154.391L144.085 157.493L140.611 155.418L148.011 151.032L144.466 148.776L132.906 155.461Z" fill="#E6CA5C"/>
<path d="M146.345 147.869L149.732 149.978L154.687 147.279L168.742 155.877L172.597 153.599L158.581 145.045L162.888 142.533L159.435 140.277L146.345 147.869Z" fill="#E6CA5C"/>
<path d="M91.014 153.577C91.7517 151.026 93.0129 148.658 94.7169 146.624C96.8515 143.926 100.064 141.107 104.225 138.513C106.294 137.207 108.608 135.924 111.069 134.651C113.696 133.347 116.428 132.271 119.238 131.434C122.34 130.53 125.5 129.836 128.696 129.358C132.146 128.756 135.625 128.342 139.119 128.118C142.861 127.902 146.612 127.915 150.353 128.157C154.324 128.353 158.283 128.754 162.213 129.358C166.326 130.013 170.348 131.156 174.193 132.761C178.16 134.529 181.957 136.659 185.535 139.125C187.372 140.38 189.112 141.771 190.741 143.287C192.402 144.798 193.887 146.493 195.168 148.339C196.468 150.186 197.441 152.245 198.044 154.424L198.408 156.062C198.496 156.609 198.501 157.188 198.555 157.75L198.61 158.602L198.555 159.449C198.517 159.913 198.496 160.383 198.414 160.842C198.653 161.426 198.866 162.016 199.056 162.617C198.997 159.023 198.958 155.74 198.953 153.14C198.325 151.167 197.397 149.302 196.203 147.613C194.866 145.691 193.317 143.926 191.585 142.353C189.912 140.798 188.125 139.372 186.238 138.087C182.585 135.582 178.71 133.421 174.661 131.631C170.731 130.005 166.624 128.85 162.425 128.189C158.455 127.594 154.456 127.208 150.445 127.032C146.66 126.803 142.865 126.812 139.081 127.059C135.552 127.304 132.04 127.746 128.56 128.381C125.334 128.889 122.146 129.619 119.02 130.565C116.162 131.446 113.387 132.578 110.726 133.946C108.232 135.268 105.945 136.574 103.86 137.928C99.6885 140.61 96.4648 143.532 94.3466 146.334C92.7476 148.318 91.5692 150.608 90.8833 153.064C90.8833 153.359 90.8833 153.67 90.8833 153.987C90.9269 153.856 90.9595 153.719 91.014 153.577Z" fill="#3F00F9"/>
<path d="M90.2519 156.991C90.1775 157.686 90.1574 158.385 90.1919 159.083C90.1919 159.378 90.2301 159.706 90.2629 160.044C90.2629 158.793 90.2956 157.592 90.3175 156.467C90.3011 156.587 90.2738 156.756 90.2519 156.991Z" fill="#3F00F9"/>
<path d="M198 163.573C197.962 163.442 197.913 163.311 197.869 163.174C196.78 166.905 194.526 170.226 191.955 173.055C188.902 176.342 185.372 179.149 181.484 181.379C179.561 182.407 177.558 183.275 175.494 183.974C173.441 184.7 171.366 185.356 169.33 185.967C165.323 187.148 161.243 188.061 157.116 188.698C149.482 189.898 141.726 190.109 134.038 189.327C130.552 189.015 127.087 188.489 123.665 187.753C120.52 187.052 117.438 186.091 114.451 184.88C111.743 183.752 109.106 182.459 106.555 181.008C104.264 179.763 102.097 178.3 100.086 176.638C98.3544 175.163 96.8075 173.483 95.4791 171.635C94.3863 170.066 93.4282 168.407 92.6148 166.675C91.9743 165.353 91.4566 163.974 91.0683 162.557L91.0139 162.743C90.9485 162.917 90.8995 163.087 90.856 163.251C91.1928 164.494 91.6318 165.707 92.1683 166.877C92.9601 168.656 93.9039 170.363 94.989 171.979C96.3173 173.888 97.8756 175.626 99.6285 177.152C101.656 178.873 103.845 180.395 106.163 181.696C108.729 183.195 111.386 184.53 114.119 185.694C117.142 186.955 120.266 187.958 123.458 188.693C126.912 189.464 130.411 190.02 133.935 190.359C141.711 191.199 149.564 191.024 157.295 189.84C161.477 189.217 165.612 188.313 169.673 187.136C171.748 186.519 173.817 185.869 175.902 185.143C178.027 184.423 180.087 183.526 182.061 182.461C184.055 181.344 185.955 180.065 187.741 178.637C189.571 177.203 191.284 175.625 192.865 173.918C194.484 172.18 195.902 170.263 197.091 168.205C197.58 167.337 198.012 166.438 198.381 165.512C198.381 165.419 198.381 165.332 198.354 165.239L198 163.573Z" fill="#3F00F9"/>
<path d="M199.77 159.542L199.824 158.624C199.824 158.318 199.786 158.012 199.77 157.706C199.715 157.095 199.699 156.483 199.612 155.882L199.454 155.177C199.508 156.958 199.563 158.963 199.612 161.104C199.699 160.585 199.726 160.061 199.77 159.542Z" fill="#3F00F9"/>
<path d="M90.8723 161.738C90.8723 161.918 90.8723 162.098 90.8723 162.284C90.8723 162.196 90.9105 162.109 90.9379 162.011C90.9652 161.912 90.8887 161.803 90.8723 161.738Z" fill="#3F00F9"/>
<path d="M90.2081 166.643C90.1793 167.174 90.1793 167.706 90.2081 168.237C90.2081 168.303 90.2081 168.385 90.2081 168.456C90.2026 167.866 90.2081 167.265 90.2081 166.643Z" fill="#3F00F9"/>
<path d="M199.035 163.671C198.85 164.294 198.637 164.9 198.392 165.501C198.447 165.97 198.468 166.446 198.512 166.921L198.566 167.767L198.512 168.62C198.497 169.19 198.435 169.758 198.327 170.318C197.613 174.874 194.983 178.877 191.956 182.209C188.901 185.493 185.371 188.297 181.484 190.528C179.563 191.56 177.559 192.429 175.494 193.128C173.441 193.854 171.367 194.504 169.33 195.122C165.323 196.3 161.243 197.213 157.116 197.853C149.482 199.056 141.726 199.269 134.038 198.486C130.552 198.173 127.087 197.645 123.665 196.908C120.519 196.207 117.437 195.244 114.451 194.029C111.743 192.903 109.106 191.611 106.555 190.162C104.265 188.915 102.099 187.452 100.086 185.792C98.3562 184.326 96.8094 182.655 95.4792 180.816C94.3876 179.245 93.4294 177.584 92.615 175.851C91.755 174.096 91.1254 172.236 90.7417 170.318C90.7417 170.864 90.7145 171.356 90.7036 171.831C91.055 173.284 91.5455 174.7 92.1684 176.059C92.9614 177.837 93.9052 179.544 94.9892 181.16C96.3176 183.068 97.8759 184.803 99.6286 186.328C101.655 188.053 103.843 189.576 106.163 190.877C108.731 192.372 111.388 193.707 114.119 194.876C117.142 196.126 120.264 197.122 123.452 197.853C126.908 198.615 130.407 199.162 133.929 199.491C141.707 200.319 149.559 200.136 157.29 198.945C161.471 198.323 165.606 197.422 169.668 196.247C171.742 195.624 173.811 194.98 175.897 194.248C178.021 193.542 180.083 192.662 182.061 191.615C184.054 190.496 185.954 189.218 187.741 187.791C189.569 186.355 191.283 184.777 192.865 183.072C194.482 181.332 195.899 179.416 197.091 177.359C198.036 175.72 198.754 173.96 199.225 172.126C199.149 169.69 199.084 166.872 199.024 163.862L199.035 163.671Z" fill="#3F00F9"/>
<path d="M199.824 167.773C199.824 167.467 199.786 167.161 199.77 166.855C199.753 166.55 199.726 166.244 199.704 165.938C199.704 166.987 199.737 168.002 199.748 168.98C199.748 168.887 199.748 168.789 199.748 168.696L199.824 167.773Z" fill="#3F00F9"/>
<path d="M198.397 160.858C198.397 160.962 198.397 161.066 198.354 161.164C198.241 161.843 198.089 162.514 197.896 163.174C197.94 163.311 197.989 163.442 198.027 163.573L198.392 165.211C198.392 165.304 198.392 165.392 198.419 165.485C198.664 164.884 198.877 164.277 199.062 163.655C199.062 163.305 199.062 162.961 199.062 162.617C198.822 162.033 198.61 161.443 198.397 160.858Z" fill="#3F00F9"/>
<path d="M90.856 163.234C90.8995 163.07 90.9485 162.901 91.0139 162.726L91.0683 162.54C91.0193 162.355 90.9758 162.18 90.9322 161.994C90.905 162.092 90.8886 162.18 90.8669 162.267V162.387C90.8614 162.682 90.856 162.955 90.856 163.234Z" fill="#3F00F9"/>
<path d="M199.193 163.169C199.193 163.196 199.193 163.223 199.193 163.25L199.59 165.031C199.634 165.332 199.661 165.637 199.683 165.938C199.683 165.25 199.683 164.55 199.645 163.84C199.645 162.906 199.606 161.994 199.59 161.109C199.59 161.197 199.59 161.29 199.547 161.377C199.459 161.98 199.341 162.578 199.193 163.169Z" fill="#3F00F9"/>
<path d="M199.193 163.169C199.348 162.576 199.473 161.977 199.568 161.372C199.568 161.284 199.596 161.191 199.612 161.104C199.563 158.963 199.508 156.958 199.454 155.178L199.214 154.085C199.122 153.768 199.013 153.457 198.909 153.146C198.909 155.746 198.953 159.028 199.013 162.622C199.073 162.814 199.138 162.988 199.193 163.169Z" fill="#3F00F9"/>
<path d="M199.612 165.031L199.214 163.251C199.214 163.251 199.214 163.196 199.214 163.169C199.165 163.338 199.105 163.502 199.056 163.671V163.851C199.116 166.861 199.182 169.679 199.258 172.116C199.389 171.569 199.508 171.061 199.59 170.526C199.696 170.017 199.756 169.5 199.77 168.98C199.77 168.003 199.743 166.987 199.726 165.938C199.683 165.627 199.655 165.332 199.612 165.031Z" fill="#3F00F9"/>
<path d="M199.035 163.671C199.084 163.502 199.144 163.338 199.193 163.168C199.138 162.988 199.073 162.813 199.013 162.622C199.018 162.977 199.024 163.321 199.035 163.671Z" fill="#3F00F9"/>
<path d="M90.3116 164.463C90.3116 164.6 90.3116 164.933 90.3116 165.479V165.883C90.3116 166.386 90.3116 166.763 90.3116 166.976C90.3116 167.112 90.3116 167.074 90.3116 167.314C90.3116 167.811 90.3116 168.172 90.3116 168.254C90.3347 168.853 90.3965 169.449 90.4967 170.04L90.6111 162.999C90.403 163.458 90.3006 163.959 90.3116 164.463Z" fill="#3F00F9"/>
<path d="M90.3606 165.435C90.3521 165.197 90.3704 164.959 90.4151 164.725C90.4725 164.07 90.5799 163.42 90.7363 162.781C90.5119 161.883 90.3536 160.971 90.2626 160.05C90.2626 160.814 90.2626 161.596 90.2626 162.398C90.2626 163.873 90.2626 165.304 90.2354 166.648C90.2354 166.462 90.2626 166.287 90.2789 166.145C90.2765 165.906 90.304 165.668 90.3606 165.435Z" fill="#3F00F9"/>
<path d="M90.4149 155.576C90.3701 155.81 90.3518 156.048 90.3605 156.286C90.4463 156.062 90.5065 155.83 90.5402 155.592C90.6436 155.215 90.6927 154.658 90.8887 153.987C90.8887 153.67 90.8887 153.359 90.8887 153.064C90.8506 153.217 90.807 153.37 90.7743 153.512C90.5926 154.187 90.4723 154.878 90.4149 155.576Z" fill="#3F00F9"/>
<path d="M90.769 162.666C90.7962 162.54 90.8343 162.409 90.867 162.278C90.8996 162.147 90.867 161.918 90.867 161.732C90.6608 160.853 90.5189 159.96 90.4422 159.061C90.3006 157.248 90.4422 156.281 90.3551 156.281C90.268 156.281 90.3551 156.341 90.3115 156.461C90.3115 157.586 90.2734 158.788 90.2571 160.039C90.3481 160.959 90.5064 161.872 90.7308 162.77C90.7456 162.736 90.7584 162.701 90.769 162.666Z" fill="#3F00F9"/>
<path d="M90.4478 168.221C90.3063 166.402 90.4478 165.441 90.3607 165.435C90.2953 165.665 90.2587 165.901 90.2518 166.14C90.2518 166.282 90.2191 166.457 90.2083 166.642C90.2083 167.265 90.2083 167.866 90.2083 168.456C90.2736 169.581 90.4412 170.698 90.7092 171.793C90.7092 171.318 90.7365 170.805 90.7473 170.28C90.6086 169.6 90.5086 168.913 90.4478 168.221Z" fill="#3F00F9"/>
<path d="M90.8674 162.398V162.278C90.8346 162.409 90.7964 162.54 90.7691 162.666C90.7607 162.705 90.7498 162.743 90.7363 162.781C90.7746 162.934 90.8128 163.081 90.8565 163.234C90.8565 162.956 90.8619 162.682 90.8674 162.398Z" fill="#3F00F9"/>
<path d="M135.367 131.996C138.955 131.598 141.901 131.374 141.901 131.013C141.901 130.653 138.912 130.331 135.231 130.74C131.55 131.15 128.696 132.127 128.772 132.455C128.849 132.783 131.773 132.384 135.367 131.996Z" fill="#E6CA5C"/>
<path d="M161.478 133.897C165.034 134.569 167.909 135.191 168.012 134.858C168.116 134.525 165.339 133.34 161.712 132.674C158.085 132.007 155.117 131.882 155.063 132.209C155.009 132.537 157.916 133.225 161.478 133.897Z" fill="#E6CA5C"/>
<path d="M184.898 144.827C187.621 147.17 189.151 149.644 189.472 149.48C189.619 149.404 189.418 148.656 188.808 147.58C187.986 146.194 186.949 144.947 185.737 143.887C182.9 141.397 180.106 140.217 179.954 140.479C179.801 140.741 182.225 142.478 184.898 144.827Z" fill="#E6CA5C"/>
<path d="M191.444 162.349C191.079 162.278 190.425 165.179 188.547 168.172C186.668 171.165 184.397 173.088 184.642 173.383C184.751 173.514 185.443 173.186 186.412 172.432C187.679 171.427 188.763 170.212 189.619 168.838C191.656 165.566 191.77 162.349 191.444 162.349Z" fill="#E6CA5C"/>
<path d="M167.07 182.231C163.645 183.378 160.814 184.208 160.884 184.558C160.955 184.908 163.95 184.607 167.468 183.433C170.986 182.258 173.561 180.669 173.409 180.363C173.256 180.057 170.501 181.1 167.07 182.231Z" fill="#E6CA5C"/>
<path d="M141.188 185.366C137.572 185.153 134.626 184.973 134.572 185.323C134.517 185.672 137.431 186.415 141.106 186.628C144.782 186.841 147.772 186.464 147.755 186.12C147.739 185.776 144.804 185.59 141.188 185.366Z" fill="#E6CA5C"/>
<path d="M115.807 179.418C112.578 177.84 109.97 176.409 109.768 176.742C109.567 177.075 111.919 178.927 115.263 180.565C118.606 182.204 121.574 182.805 121.666 182.482C121.759 182.16 119.047 180.997 115.807 179.418Z" fill="#E6CA5C"/>
<path d="M98.8337 161.377C98.2456 157.859 98.6322 154.943 98.2891 154.866C98.1367 154.839 97.8099 155.544 97.5976 156.762C97.3425 158.355 97.3425 159.98 97.5976 161.574C97.832 163.169 98.3153 164.717 99.0297 166.162C99.6559 167.254 100.119 167.833 100.271 167.751C100.424 167.669 100.244 166.927 99.8574 165.823C99.4153 164.366 99.0732 162.881 98.8337 161.377Z" fill="#E6CA5C"/>
<path d="M110.836 140.572C113.858 138.567 116.401 137.104 116.281 136.776C116.161 136.448 113.27 137.459 110.188 139.507C107.067 141.446 104.856 143.56 105.102 143.838C105.347 144.117 107.743 142.5 110.836 140.572Z" fill="#E6CA5C"/>
<path d="M122.499 171.908L121.073 171.023L120.447 171.367L122.189 172.46L123.469 173.24L124.079 172.88L122.499 171.908Z" fill="#3F00F9"/>
<path d="M124.405 173.088L123.779 173.437C126.366 175.021 128.707 176.425 130.526 177.496L130.962 177.233C129.241 176.114 126.959 174.677 124.405 173.088Z" fill="#3F00F9"/>
<path d="M117.305 168.745L116.76 169.057C117.789 169.712 118.938 170.417 120.098 171.148L120.703 170.793C119.494 170.067 118.35 169.379 117.305 168.745Z" fill="#3F00F9"/>
<path d="M113.662 166.582L113.237 166.817C114.135 167.407 115.203 168.09 116.401 168.849L116.945 168.527C115.714 167.811 114.609 167.134 113.662 166.582Z" fill="#3F00F9"/>
<path d="M127.705 171.258C130.374 172.896 132.704 174.273 134.365 175.234L134.741 175.016C133.183 173.989 130.929 172.558 128.315 170.919L127.705 171.258Z" fill="#3F00F9"/>
<path d="M125.429 169.133L124.645 169.024L124.334 169.193L124.825 169.499L127.259 170.99L127.863 170.64C127.083 170.149 126.271 169.647 125.429 169.133Z" fill="#3F00F9"/>
<path d="M132.23 164.091C131.114 163.409 130.052 162.764 129.061 162.169L128.517 162.486L131.637 164.446L132.23 164.091Z" fill="#3F00F9"/>
<path d="M132.802 164.441L132.181 164.791L134 165.916L134.654 166.32L135.198 166.396L135.596 166.167L134.321 165.375L132.802 164.441Z" fill="#3F00F9"/>
<path d="M128.489 161.803C127.329 161.109 126.311 160.497 125.402 159.973L124.982 160.213C125.826 160.76 126.828 161.404 127.95 162.114L128.489 161.803Z" fill="#3F00F9"/>
<path d="M139.511 164.622C142 166.14 144.238 167.489 145.986 168.511L146.421 168.259C144.788 167.167 142.609 165.801 140.126 164.272L139.511 164.622Z" fill="#3F00F9"/>
<path d="M132.426 159.563C131.305 158.886 130.248 158.274 129.377 157.745L128.93 157.996C129.785 158.542 130.776 159.186 131.876 159.88L132.426 159.563Z" fill="#3F00F9"/>
<path d="M136.167 161.83C135.078 161.158 134.016 160.519 133.031 159.924L132.459 160.246C133.423 160.858 134.463 161.508 135.552 162.185L136.167 161.83Z" fill="#3F00F9"/>
<path d="M136.766 162.196L136.146 162.551L137.496 163.387L138.917 164.261L139.533 163.906C138.988 163.556 138.411 163.207 137.828 162.852L136.766 162.196Z" fill="#3F00F9"/>
<path d="M144.167 157.264C143.078 156.597 142.032 155.958 141.046 155.369L140.469 155.696L143.546 157.619L144.167 157.264Z" fill="#3F00F9"/>
<path d="M147.526 160.066C150.026 161.596 152.258 162.934 153.979 163.939L154.404 163.693C152.77 162.633 150.592 161.257 148.136 159.717L147.526 160.066Z" fill="#3F00F9"/>
<path d="M148.06 150.66C146.971 149.994 145.942 149.377 145 148.82L144.488 149.114C145.392 149.693 146.394 150.327 147.467 150.999L148.06 150.66Z" fill="#3F00F9"/>
<path d="M149.775 154.784C150.734 155.374 151.66 155.94 152.553 156.483L153.157 156.139C152.275 155.589 151.355 155.017 150.396 154.424L149.775 154.784Z" fill="#3F00F9"/>
<path d="M161.766 147.334L162.398 146.984L159.098 144.969L158.515 145.313C159.539 145.963 160.628 146.635 161.766 147.334Z" fill="#3F00F9"/>
<path d="M172.26 153.659L172.635 153.451C171.089 152.43 168.824 150.988 166.177 149.328L165.578 149.677C168.268 151.31 170.626 152.703 172.26 153.659Z" fill="#3F00F9"/>
<path d="M162.632 147.869L165.132 149.404L165.747 149.06L162.959 147.328L162.823 147.247L162.202 147.607L162.632 147.869Z" fill="#3F00F9"/>
<path d="M149.182 150.027L149.797 149.682L147.14 148.044L146.764 147.815L146.122 148.148L146.786 148.563L149.182 150.027Z" fill="#3F00F9"/>
<path d="M161.031 141.681C161.521 142.019 161.995 142.336 162.431 142.615L162.975 142.309C162.49 141.954 161.951 141.566 161.341 141.162C160.732 140.758 160.285 140.446 159.817 140.146L159.272 140.463C159.833 140.84 160.405 141.249 161.031 141.681Z" fill="#3F00F9"/>
<path d="M140.224 159.514C139.135 158.842 138.046 158.209 137.082 157.625L136.538 157.947C137.496 158.547 138.536 159.192 139.631 159.864L140.224 159.514Z" fill="#3F00F9"/>
<path d="M140.84 159.886L140.219 160.241L141.569 161.071L142.985 161.929L143.6 161.579L141.901 160.53L140.84 159.886Z" fill="#3F00F9"/>
<path d="M143.595 162.305C146.149 163.846 148.409 165.189 150.092 166.156L150.505 165.921C148.921 164.889 146.726 163.507 144.211 161.95L143.595 162.305Z" fill="#3F00F9"/>
<path d="M136.461 157.253C135.307 156.57 134.283 155.964 133.396 155.462L132.982 155.697C133.809 156.243 134.8 156.865 135.917 157.564L136.461 157.253Z" fill="#3F00F9"/>
<path d="M157.862 149.519L158.483 149.169L155.259 147.203L154.715 147.525C155.678 148.148 156.74 148.819 157.862 149.519Z" fill="#3F00F9"/>
<path d="M161.728 151.917C164.293 153.49 166.574 154.861 168.263 155.86L168.682 155.625C167.048 154.566 164.87 153.151 162.316 151.562L161.728 151.917Z" fill="#3F00F9"/>
<path d="M159.664 150.644L161.211 151.594L161.832 151.244L159.997 150.103L158.984 149.48L158.368 149.835L159.664 150.644Z" fill="#3F00F9"/>
<path d="M151.022 165.626L150.478 165.927L151.071 166.314L151.316 166.172L154.584 164.305L153.957 163.944L151.022 165.626Z" fill="#3F00F9"/>
<path d="M168.704 155.625L169.117 155.898C170.446 155.123 171.611 154.435 172.592 153.85L172.265 153.659L168.704 155.625Z" fill="#3F00F9"/>
<path d="M142.5 170.542L142.783 170.722L143.257 170.793L146.601 168.898L145.985 168.538L142.5 170.542Z" fill="#3F00F9"/>
<path d="M130.961 177.233L131.315 177.463C132.355 176.889 133.543 176.234 134.839 175.507L134.365 175.234L130.961 177.233Z" fill="#3F00F9"/>
<path d="M130.526 177.496L130.88 177.703L131.316 177.463L130.962 177.233L130.526 177.496Z" fill="#3F00F9"/>
<path d="M134.365 175.234L134.839 175.507L135.187 175.311C135.046 175.218 134.899 175.114 134.741 175.016L134.365 175.234Z" fill="#3F00F9"/>
<path d="M142.783 170.695L142.5 170.515L142.304 170.63L142.783 170.695Z" fill="#3F00F9"/>
<path d="M145.985 168.51L146.601 168.871L147.009 168.642L146.421 168.259L145.985 168.51Z" fill="#3F00F9"/>
<path d="M153.979 163.939L154.605 164.299L154.992 164.075L154.404 163.693L153.979 163.939Z" fill="#3F00F9"/>
<path d="M172.26 153.659L172.586 153.85L172.929 153.643L172.635 153.451L172.26 153.659Z" fill="#3F00F9"/>
<path d="M150.091 166.173L150.728 166.533L151.099 166.326L150.505 165.938L150.091 166.173Z" fill="#3F00F9"/>
<path d="M168.284 155.86L168.736 156.122L169.118 155.899L168.704 155.625L168.284 155.86Z" fill="#3F00F9"/>
<path d="M159.332 140.463L159.104 140.299C158.042 140.872 156.67 141.626 155.031 142.533L155.428 142.773C157.013 141.844 158.325 141.047 159.332 140.463Z" fill="#3F00F9"/>
<path d="M154.949 143.052L154.556 142.795L151.099 144.723L151.589 145.012L154.949 143.052Z" fill="#3F00F9"/>
<path d="M151.164 145.258L150.696 144.947L146.214 147.465L146.759 147.803L151.164 145.258Z" fill="#3F00F9"/>
<path d="M128.93 157.98L128.348 157.603L124.803 159.634L125.402 159.978C126.545 159.35 127.727 158.684 128.93 157.98Z" fill="#3F00F9"/>
<path d="M142.522 150.24L141.978 149.874L136.788 152.818L137.415 153.184L142.522 150.24Z" fill="#3F00F9"/>
<path d="M134.261 154.97L136.935 153.441L136.32 153.064L133.929 154.424L132.742 155.101L133.374 155.467L134.261 154.97Z" fill="#3F00F9"/>
<path d="M144.488 149.115L143.943 148.754L142.451 149.601L143.045 149.95L144.488 149.115Z" fill="#3F00F9"/>
<path d="M117.103 164.665L116.314 164.556L113.248 166.342L113.662 166.582L117.103 164.665Z" fill="#3F00F9"/>
<path d="M113.248 166.342L112.855 166.571L113.237 166.817L113.661 166.582L113.248 166.342Z" fill="#3F00F9"/>
<path d="M125.429 159.995L124.83 159.651L124.454 159.869L124.999 160.235L125.429 159.995Z" fill="#3F00F9"/>
<path d="M129.377 157.745L128.756 157.384L128.348 157.619L128.931 157.996L129.377 157.745Z" fill="#3F00F9"/>
<path d="M137.409 153.184L136.783 152.818L136.32 153.064L136.913 153.446L137.409 153.184Z" fill="#3F00F9"/>
<path d="M145 148.82L144.423 148.476L143.927 148.754L144.472 149.115L145 148.82Z" fill="#3F00F9"/>
<path d="M143.029 149.95L142.435 149.601L141.95 149.874L142.495 150.24L143.029 149.95Z" fill="#3F00F9"/>
<path d="M155.428 142.773L155.03 142.533L154.556 142.795L154.948 143.052L155.428 142.773Z" fill="#3F00F9"/>
<path d="M146.764 147.804L146.22 147.465L145.594 147.82L146.138 148.159L146.764 147.804Z" fill="#3F00F9"/>
<path d="M159.86 140.146L159.642 140.01L159.098 140.299L159.327 140.463L159.86 140.146Z" fill="#3F00F9"/>
<path d="M133.396 155.461L132.764 155.095L132.394 155.308L132.982 155.696L133.396 155.461Z" fill="#3F00F9"/>
<path d="M151.567 145.013L151.077 144.723L150.674 144.947L151.142 145.258C151.306 145.176 151.447 145.089 151.567 145.013Z" fill="#3F00F9"/>
<path d="M158.646 144.706L159.082 144.969C160.465 144.166 161.69 143.445 162.741 142.822L162.414 142.615L158.646 144.706Z" fill="#3F00F9"/>
<path d="M146.078 152.517C145.877 152.392 145.686 152.266 145.485 152.146L140.426 155.019L141.047 155.395L146.078 152.517Z" fill="#3F00F9"/>
<path d="M154.698 147.525L154.192 147.208C152.803 147.984 151.333 148.808 149.797 149.682L150.342 150.032L154.698 147.525Z" fill="#3F00F9"/>
<path d="M148.044 151.359L147.466 150.999L146.078 151.78L146.677 152.146L148.044 151.359Z" fill="#3F00F9"/>
<path d="M116.945 168.527L116.401 168.849L116.738 169.057L117.283 168.745L116.945 168.527Z" fill="#3F00F9"/>
<path d="M129.061 162.169L128.517 161.825L127.972 162.136L128.517 162.486L129.061 162.169Z" fill="#3F00F9"/>
<path d="M133.053 159.924L132.448 159.563L131.904 159.88L132.486 160.246L133.053 159.924Z" fill="#3F00F9"/>
<path d="M141.046 155.369L140.426 154.992L139.881 155.314L140.486 155.696L141.046 155.369Z" fill="#3F00F9"/>
<path d="M148.648 151.015L148.06 150.66L147.467 150.999L148.044 151.359L148.648 151.015Z" fill="#3F00F9"/>
<path d="M146.666 152.146L146.067 151.78L145.473 152.119C145.675 152.239 145.865 152.364 146.067 152.49L146.666 152.146Z" fill="#3F00F9"/>
<path d="M158.102 145.034L158.543 145.313L159.125 144.969L158.69 144.707L158.102 145.034Z" fill="#3F00F9"/>
<path d="M150.358 150.032L149.814 149.683L149.198 150.027L149.775 150.376L150.358 150.032Z" fill="#3F00F9"/>
<path d="M162.757 142.822L163.275 142.516L162.997 142.309L162.452 142.615L162.757 142.822Z" fill="#3F00F9"/>
<path d="M137.082 157.625L136.462 157.253L135.917 157.564L136.516 157.947L137.082 157.625Z" fill="#3F00F9"/>
<path d="M155.259 147.203L154.747 146.892L154.203 147.208L154.709 147.525L155.259 147.203Z" fill="#3F00F9"/>
<path d="M147.526 159.339L148.136 159.716C149.857 158.738 151.534 157.777 153.152 156.849L152.553 156.483L147.526 159.339Z" fill="#3F00F9"/>
<path d="M124.057 172.869L123.447 173.23L123.779 173.437L124.405 173.088L124.057 172.869Z" fill="#3F00F9"/>
<path d="M127.264 170.99L127.705 171.258L128.315 170.919L127.869 170.641L127.264 170.99Z" fill="#3F00F9"/>
<path d="M135.231 166.397L136.167 166.528L135.623 166.184L135.231 166.397Z" fill="#3F00F9"/>
<path d="M138.917 164.261L139.511 164.621L140.126 164.272L139.533 163.906L138.917 164.261Z" fill="#3F00F9"/>
<path d="M146.911 159.689L147.526 160.066L148.136 159.716L147.526 159.34L146.911 159.689Z" fill="#3F00F9"/>
<path d="M152.553 156.483L153.152 156.849L153.751 156.51L153.157 156.139L152.553 156.483Z" fill="#3F00F9"/>
<path d="M165.584 149.677L166.183 149.328L165.747 149.06L165.132 149.404L165.584 149.677Z" fill="#3F00F9"/>
<path d="M142.985 161.929L143.595 162.305L144.21 161.95L143.6 161.579L142.985 161.929Z" fill="#3F00F9"/>
<path d="M161.211 151.594L161.755 151.917L162.365 151.562L161.859 151.245L161.211 151.594Z" fill="#3F00F9"/>
<path d="M149.182 154.418L144.167 157.264L144.777 157.64L149.776 154.784L149.612 154.68L149.182 154.418Z" fill="#3F00F9"/>
<path d="M120.681 170.794L120.076 171.149L120.425 171.367L121.051 171.023L120.681 170.794Z" fill="#3F00F9"/>
<path d="M123.899 168.904L124.351 169.177L124.661 169.008L123.899 168.904Z" fill="#3F00F9"/>
<path d="M131.62 164.447L132.165 164.791L132.786 164.441L132.241 164.092L131.62 164.447Z" fill="#3F00F9"/>
<path d="M135.552 162.185L136.146 162.551L136.767 162.196L136.168 161.83L135.552 162.185Z" fill="#3F00F9"/>
<path d="M143.546 157.619L144.156 157.996L144.777 157.641L144.167 157.264L143.546 157.619Z" fill="#3F00F9"/>
<path d="M149.808 154.063L149.182 154.418L149.612 154.68L149.775 154.784L150.396 154.424L149.933 154.156L149.808 154.063Z" fill="#3F00F9"/>
<path d="M162.202 147.602L162.823 147.241L162.398 146.979L161.766 147.329L162.202 147.602Z" fill="#3F00F9"/>
<path d="M139.587 159.864L140.197 160.241L140.818 159.886L140.202 159.514L139.587 159.864Z" fill="#3F00F9"/>
<path d="M158.368 149.835L158.984 149.48L158.483 149.169L157.862 149.519L158.368 149.835Z" fill="#3F00F9"/>
<path d="M124.972 168.844L125.157 168.958L125.435 169.133C126.643 169.297 128.032 169.477 129.54 169.679L130.423 169.166C128.538 168.958 126.818 168.778 125.358 168.62L124.972 168.844Z" fill="#3F00F9"/>
<path d="M141.629 170.542C139.413 170.236 136.554 169.87 133.428 169.505L131.294 169.259L130.373 169.772L133.357 170.133C136.505 170.504 139.391 170.81 141.624 171.028L142.043 170.783L141.629 170.542Z" fill="#3F00F9"/>
<path d="M124.972 168.844L124.65 169.024L125.435 169.133L125.157 168.958L124.972 168.844Z" fill="#3F00F9"/>
<path d="M124.509 168.56H124.476L123.082 168.434L123.877 168.926L124.509 168.56Z" fill="#3F00F9"/>
<path d="M142.31 170.63L141.635 170.537L142.048 170.777L142.31 170.63Z" fill="#3F00F9"/>
<path d="M143.061 170.876L143.257 170.766L142.783 170.695L143.061 170.876Z" fill="#3F00F9"/>
<path d="M141.624 171.023L142.609 171.11L142.065 170.777L141.624 171.023Z" fill="#3F00F9"/>
<path d="M142.043 170.777L142.588 171.11H142.62L143.039 170.87L142.762 170.69L142.283 170.624L142.043 170.777Z" fill="#3F00F9"/>
<path d="M129.541 169.668L130.374 169.767L131.294 169.253L130.423 169.155L129.541 169.668Z" fill="#3F00F9"/>
<path d="M125.358 168.625L124.525 168.549L124.988 168.833L125.358 168.625Z" fill="#3F00F9"/>
<path d="M124.509 168.56L123.899 168.915L124.65 169.024L124.972 168.844L124.509 168.56Z" fill="#3F00F9"/>
<path d="M134.654 166.32L130.455 165.774L129.551 166.287C131.305 166.495 132.949 166.686 134.452 166.833L134.997 166.517L134.654 166.32Z" fill="#3F00F9"/>
<path d="M135.399 166.943L135.732 166.981L135.541 166.866L135.399 166.943Z" fill="#3F00F9"/>
<path d="M128.636 166.173L129.535 165.654L126.85 165.315L124.079 164.977L123.169 165.49L126.774 165.943L128.636 166.173Z" fill="#3F00F9"/>
<path d="M118.383 164.845C119.586 165.015 120.92 165.189 122.342 165.391L123.213 164.889C121.231 164.654 119.401 164.447 117.827 164.277L117.604 164.403L118.383 164.845Z" fill="#3F00F9"/>
<path d="M118.383 164.845L117.604 164.387L117.114 164.66H117.141L118.383 164.845Z" fill="#3F00F9"/>
<path d="M134.98 166.522L135.203 166.397L134.659 166.32L134.98 166.522Z" fill="#3F00F9"/>
<path d="M135.541 166.866L135.732 166.981L137.153 167.128L136.195 166.533H136.14L135.541 166.866Z" fill="#3F00F9"/>
<path d="M117.806 164.261L117.261 164.206L117.571 164.387L117.806 164.261Z" fill="#3F00F9"/>
<path d="M117.114 164.66L116.651 164.359L116.313 164.556L117.103 164.665L117.114 164.66Z" fill="#3F00F9"/>
<path d="M117.294 164.206L116.972 164.168L116.651 164.359L117.114 164.66L117.604 164.386L117.294 164.206Z" fill="#3F00F9"/>
<path d="M124.078 164.971L123.213 164.873L122.341 165.375L123.169 165.484L124.078 164.971Z" fill="#3F00F9"/>
<path d="M134.436 166.839L135.399 166.943L135.541 166.866L134.996 166.522L134.436 166.839Z" fill="#3F00F9"/>
<path d="M135.541 166.866L136.14 166.528L135.203 166.397L134.98 166.522L135.541 166.866Z" fill="#3F00F9"/>
<path d="M128.636 166.173L129.551 166.282L130.455 165.769L129.535 165.654L128.636 166.173Z" fill="#3F00F9"/>
<path d="M145.234 51.3108L145.021 93.4452L145.25 93.5763L185.829 69.6142L145.234 51.3108Z" fill="#E8E0FF"/>
<path d="M145.288 136.169L144.956 101.666L186.467 77.2773L145.288 136.169Z" fill="#C2DBFF"/>
<path d="M103.582 77.2993L144.907 101.606L145.163 135.061L114.222 92.3528L103.582 77.2993Z" fill="#A4CAFF"/>
<path d="M145.223 0.518799L145.071 51.0867L185.878 69.5431L145.223 0.518799Z" fill="#D1C2FF"/>
<path d="M144.929 93.4125L104.393 69.3193L104.715 68.6912L145.071 51.0869L144.929 93.4125Z" fill="#A97FFF"/>
<path d="M145.092 0.791992C138.286 11.1881 131.45 22.1269 124.585 33.6081C117.448 45.5883 110.832 57.2826 104.736 68.6911L145.087 51.0868L145.092 0.791992Z" fill="#8157FF"/>
<path d="M145.408 1.21798C146.497 3.16794 148.06 5.90991 150.009 9.27455C154.066 16.1731 159.664 25.7045 165.85 36.2354C172.036 46.7662 177.607 56.3085 181.729 63.1688C183.052 65.3537 184.212 67.2873 185.192 68.8822L185.764 69.1553L185.938 69.057L186.009 69.0187C185.056 67.2873 183.88 65.168 182.502 62.7264C178.576 55.7459 173.076 46.1545 166.934 35.5908C163.89 30.2981 160.867 25.3221 158.118 20.805L150.772 8.78842C148.67 5.38555 146.96 2.64358 145.729 0.76463L145.615 0.589844C145.55 0.704547 145.473 0.819254 145.408 0.933957V1.21798Z" fill="#3F00F9"/>
<path d="M104.938 68.8823L104.513 69.0462L104.764 69.1882L104.796 69.1281C104.84 69.0516 104.894 68.9479 104.938 68.8823Z" fill="#3F00F9"/>
<path d="M109.637 60.8039C113.683 53.7633 119.281 44.0462 125.63 33.4061C131.98 22.766 137.828 13.1964 142.114 6.30328C143.17 4.61003 144.118 3.07519 144.951 1.7206C144.951 1.25086 145 0.835738 145.021 0.44793L144.994 0.393311C143.954 1.92815 142.734 3.75249 141.362 5.82262C136.864 12.6011 130.874 22.1051 124.519 32.7561C118.165 43.4072 112.681 53.2116 108.831 60.3669C106.991 63.7916 105.52 66.5991 104.508 68.6146L105.313 68.2323L109.637 60.8039Z" fill="#8157FF"/>
<path d="M145.408 0.933981C145.473 0.819292 145.55 0.704601 145.615 0.589913L145.392 0.24585C145.397 0.464303 145.402 0.671836 145.408 0.933981Z" fill="#3F00F9"/>
<path d="M145 0.338623L144.967 0.393236L144.994 0.447848L145 0.338623Z" fill="#3F00F9"/>
<path d="M144.76 92.7844L143.54 92.0416C139.184 89.4034 133.08 85.8366 126.322 81.9586L121.378 79.1401L116.863 76.3763L109.174 71.7499C107.421 70.7122 105.907 69.8437 104.764 69.1882L104.464 69.6853C105.553 70.4445 107.002 71.3949 108.701 72.5037L116.259 77.3704L120.746 80.2052L125.679 83.0455C132.448 86.9291 138.618 90.3811 143.105 92.8226L144.602 93.631L144.787 93.5109C144.782 93.2869 144.771 93.0411 144.76 92.7844Z" fill="#3F00F9"/>
<path d="M145.168 93.265L145.354 93.1449L145.174 93.0356C145.174 93.1121 145.168 93.194 145.168 93.265Z" fill="#3F00F9"/>
<path d="M104.513 69.0461L104.236 69.1499L104.094 69.4339L104.464 69.6851L104.764 69.1881L104.513 69.0461Z" fill="#3F00F9"/>
<path d="M185.035 69.5486C180.433 72.1704 174.373 75.7153 167.724 79.6643C160.618 83.8264 154.225 87.6554 149.623 90.4793C147.941 91.517 146.503 92.4128 145.354 93.1448L145.958 93.5107C147.109 92.8953 148.48 92.1434 150.07 91.2549C154.785 88.6221 161.255 84.9134 168.366 80.7513C175.228 76.6766 181.403 72.9132 185.95 70.0784C185.906 70.0183 185.873 69.9582 185.83 69.8927L185.035 69.5486Z" fill="#3F00F9"/>
<path d="M185.83 69.8928C185.873 69.9584 185.906 70.0184 185.949 70.0785L186.08 70.002L185.83 69.8928Z" fill="#3F00F9"/>
<path d="M185.764 69.1334L186.2 69.3409C186.134 69.2317 186.069 69.1115 186.009 68.9968L185.938 69.0351L185.764 69.1334Z" fill="#3F00F9"/>
<path d="M145.169 93.265C145.169 93.498 145.158 93.7164 145.136 93.9203H145.169L145.958 93.4943L145.354 93.1284L145.169 93.265Z" fill="#3F00F9"/>
<path d="M144.787 93.5271L144.602 93.6472L144.798 93.7565C144.798 93.6636 144.793 93.5926 144.787 93.5271Z" fill="#3F00F9"/>
<path d="M144.597 12.1967C144.482 21.0398 144.45 33.2804 144.417 46.7662C144.417 48.0516 144.417 49.3261 144.417 50.5897L145.119 50.2729L145.664 50.5296C145.664 49.2842 145.664 48.0334 145.664 46.7662C145.702 33.264 145.593 21.0672 145.479 12.2186C145.381 7.79977 145.441 4.22211 145.403 1.74779C145.403 1.56208 145.403 1.3873 145.403 1.20159C145.374 1.15606 145.349 1.1086 145.326 1.05957L144.918 1.72594C144.809 4.1948 144.613 7.77246 144.597 12.1967Z" fill="#3F00F9"/>
<path d="M145.223 91.7958C145.299 89.3214 145.376 85.7438 145.435 81.3195C145.55 73.6125 145.631 63.3438 145.664 51.8953L145.12 51.644L144.423 51.9499C144.423 63.3711 144.472 73.6234 144.559 81.3195C144.608 85.7383 144.668 89.316 144.744 91.7903C144.744 92.1453 144.744 92.4731 144.771 92.7844L145.185 93.0356C145.19 92.6588 145.207 92.2491 145.223 91.7958Z" fill="#3F00F9"/>
<path d="M145.408 1.21796V0.955811L145.332 1.07596C145.354 1.12499 145.38 1.17243 145.408 1.21796Z" fill="#3F00F9"/>
<path d="M145.31 1.02123C145.196 0.819163 145.098 0.633477 144.994 0.475098C144.994 0.862853 144.951 1.27792 144.924 1.74759L145.332 1.08131L145.31 1.02123Z" fill="#3F00F9"/>
<path d="M145.332 1.05404L145.408 0.933894C145.408 0.688133 145.408 0.464217 145.408 0.245763C145.353 0.163843 145.299 0.0819202 145.25 0L145.016 0.338605V0.44783C145.119 0.633516 145.217 0.819202 145.332 0.993965V1.05404Z" fill="#3F00F9"/>
<path d="M144.76 92.7842C144.76 93.0409 144.76 93.2866 144.787 93.5105L145.168 93.2648C145.168 93.1938 145.168 93.1119 145.168 93.0354L144.76 92.7842Z" fill="#3F00F9"/>
<path d="M144.798 93.74L145.136 93.9203C145.136 93.7164 145.147 93.4979 145.169 93.2649L144.787 93.5107C144.793 93.5926 144.798 93.6636 144.798 93.74Z" fill="#3F00F9"/>
<path d="M185.192 68.8604C183.532 68.0629 181.626 67.1562 179.502 66.1294C171.399 62.3059 160.176 57.106 147.739 51.4364L145.67 50.4915C145.67 50.9503 145.67 51.4145 145.67 51.8734L147.227 52.5834C159.659 58.2585 170.942 63.3328 179.137 66.9432C181.348 67.9228 183.316 68.7839 185.04 69.5268L185.47 69.281C185.378 69.1554 185.285 69.0133 185.192 68.8604Z" fill="#3F00F9"/>
<path d="M114.903 64.8404L121.296 62.1749L128.598 58.9796L144.39 51.9499V50.5735L128.152 57.9309L120.898 61.2081L114.538 64.032C110.677 65.7526 107.573 67.1618 105.439 68.1614L105.292 68.2269L104.916 68.8769L105.624 68.5983C107.835 67.7408 110.999 66.4572 114.903 64.8404Z" fill="#3F00F9"/>
<path d="M185.764 69.1334L185.192 68.8604C185.285 69.0133 185.378 69.1553 185.465 69.3027L185.764 69.1334Z" fill="#3F00F9"/>
<path d="M104.339 68.9476L104.513 69.0459L104.938 68.8821L105.314 68.2322L104.508 68.6145L104.366 68.893L104.339 68.9476Z" fill="#3F00F9"/>
<path d="M104.235 69.1498L104.513 69.0461L104.339 68.9478L104.235 69.1498Z" fill="#3F00F9"/>
<path d="M185.034 69.5485L185.829 69.8926C185.715 69.7014 185.59 69.5048 185.465 69.3027L185.034 69.5485Z" fill="#3F00F9"/>
<path d="M185.465 69.3026C185.59 69.5047 185.715 69.7013 185.829 69.8925L186.08 70.0017L186.396 69.8051H186.434L186.2 69.3682L185.764 69.1606L185.465 69.3026Z" fill="#3F00F9"/>
<path d="M144.412 50.5734V51.9496L145.109 51.6438L145.653 51.895C145.653 51.4362 145.653 50.972 145.653 50.5133L145.109 50.2566L144.412 50.5734Z" fill="#3F00F9"/>
<path d="M146.829 101.223C159.289 93.915 170.528 87.2404 178.631 82.3518C181.43 80.664 183.842 79.2002 185.813 77.9821L186.739 76.7532C184.523 77.9821 181.626 79.6153 178.184 81.5817C169.962 86.2681 158.651 92.8226 146.198 100.153L145.321 100.666C145.321 101.109 145.365 101.578 145.386 102.092L146.829 101.223Z" fill="#3F00F9"/>
<path d="M104.774 78.2005C106.92 79.5551 110.046 81.4777 113.928 83.8482C117.811 86.2188 122.461 89.0044 127.629 92.1178L144.591 102.228C144.591 101.682 144.619 101.234 144.635 100.786L128.211 91.1292L114.375 83.0945C110.432 80.8277 107.241 79.0143 105.019 77.7853C104.431 77.4576 103.93 77.1791 103.468 76.9387L104.094 77.769L104.774 78.2005Z" fill="#3F00F9"/>
<path d="M128.642 111.552L114.843 92.4348C110.901 87.0001 107.688 82.6031 105.45 79.5935L104.094 77.7965L103.315 77.2939C103.789 78.004 104.366 78.8561 105.047 79.8775C107.165 82.98 110.264 87.4479 114.119 92.9537L127.7 112.262L144.695 136.213C144.755 136.29 144.809 136.366 144.864 136.448C144.836 135.733 144.809 134.979 144.782 134.16L128.642 111.552Z" fill="#3F00F9"/>
<path d="M184.239 80.074C182.023 83.0782 178.848 87.4478 174.95 92.8717L161.292 111.956L145.751 133.865C145.751 134.651 145.751 135.399 145.713 136.099L162.24 112.612L175.674 93.3687C179.486 87.9067 182.546 83.4332 184.637 80.3417L186.51 77.5342L185.802 77.9657L184.239 80.074Z" fill="#3F00F9"/>
<path d="M187.223 76.4854L186.739 76.753L185.813 77.9818L186.521 77.5503L187.033 76.7803L187.223 76.4854Z" fill="#3F00F9"/>
<path d="M103.467 76.9387L102.885 76.6274L103.315 77.2664L104.094 77.7689L103.467 76.9387Z" fill="#3F00F9"/>
<path d="M145.773 119.745C145.713 112.601 145.566 106.232 145.386 102.064L144.842 102.376L144.58 102.223C144.477 106.396 144.444 112.699 144.504 119.756C144.553 125.218 144.646 130.211 144.771 134.127L145.169 134.673L145.751 133.848C145.811 129.987 145.822 125.087 145.773 119.745Z" fill="#3F00F9"/>
<path d="M144.853 102.381L145.397 102.07C145.397 101.556 145.354 101.087 145.332 100.644L144.863 100.917L144.646 100.786C144.646 101.234 144.613 101.709 144.602 102.228L144.853 102.381Z" fill="#3F00F9"/>
<path d="M145.18 134.689L144.782 134.143C144.809 134.962 144.836 135.716 144.864 136.431L145.18 136.879L145.724 136.109C145.724 135.41 145.724 134.662 145.762 133.875L145.18 134.689Z" fill="#3F00F9"/>
</svg>
