<svg width="354" height="330" viewBox="0 0 354 330" fill="none" xmlns="http://www.w3.org/2000/svg">
<path d="M353.908 328.692C353.729 329.211 353.403 329.665 352.969 330H7.11618C6.64635 329.644 6.18798 329.266 5.72961 328.853C5.32799 328.519 4.94541 328.163 4.58368 327.786C3.58516 326.588 2.48894 325.475 1.30633 324.459C0.896731 324.173 0.449352 323.945 -0.0229492 323.782V286.132C1.93659 284.296 4.66389 283.264 7.20785 281.887C11.6541 279.501 16.2034 277.298 20.8215 275.279C39.1563 267.249 58.6371 261.754 77.8887 256.328C87.8353 253.528 97.8622 250.718 108.164 249.903C123.348 248.687 138.497 251.819 153.508 254.377C173.46 257.762 193.57 260.136 213.761 261.49C218.723 261.811 224.648 262.752 227.123 266.756C236.875 269.52 246.604 272.411 256.264 275.314C276.169 281.256 296.154 287.233 314.993 295.963C329.729 302.846 344.191 311.806 352.992 325.48C353.363 325.92 353.637 326.434 353.795 326.987C353.953 327.541 353.992 328.122 353.908 328.692Z" fill="#8954F6"/>
<path d="M120.414 165.172C120.414 165.172 117.801 180.854 121.033 189.527C124.264 198.2 124.345 207.044 121.938 208.375C119.532 209.706 96.6362 176.162 96.6362 176.162C96.6362 176.162 83.5382 155.513 80.7994 136.607C78.0607 117.701 74.6573 89.125 80.6161 79.9819C86.5749 70.8388 88.8782 67.1793 88.8782 67.1793C91.3727 61.7295 93.1855 55.9922 94.2755 50.0977C94.2755 50.0977 95.685 42.8704 105.735 37.6966C115.785 32.5227 117.779 28.8517 117.779 28.8517C123.078 23.4873 129.627 19.5256 136.835 17.3225C148.604 13.7777 159.662 9.96904 183.154 9.99199C206.645 10.0149 149.418 101.549 149.418 101.549V150.167L128.562 160.709L120.414 165.172Z" fill="#8954F6"/>
<path d="M140.881 107.95C139.981 108.772 139.3 109.806 138.899 110.958C138.499 112.11 138.392 113.343 138.589 114.547C139.276 118.665 141.877 129.953 141.488 135.666C141.164 138.604 141.433 141.577 142.279 144.408C142.279 144.408 139.036 140.083 138.486 138.121C137.936 136.16 134.761 124.286 129.112 119.847C123.462 115.407 113.768 110.543 104.543 120.363C95.3184 130.183 108.634 151.062 108.634 151.062L120.414 165.172C120.414 165.172 118.122 183.527 121.033 189.527C123.944 195.527 121.938 208.375 121.938 208.375L119.543 209.706L117.183 223.472C117.183 223.472 112.496 240.015 110.307 244.489C108.118 248.963 109.448 255.857 110.376 257.349C111.304 258.84 126.419 279.237 151.904 288.415C177.39 297.592 184.483 296.858 200.263 296.445C216.042 296.032 222.367 285.076 222.367 285.076C222.367 285.076 226.699 284.503 226.264 258.438C225.828 232.374 231.73 223.885 231.73 223.885C231.73 223.885 237.677 212.574 254.866 211.025C272.055 209.477 272.296 199.553 272.296 199.553L276.799 157.371L278.93 125.124L286.677 89.974L184.689 78.112L155.17 77.0911L140.881 107.95Z" fill="#C1A9FF"/>
<path d="M143.046 107.95C143.046 107.95 143.413 117.128 160.521 112.803C177.63 108.478 194.326 105.105 208.501 106.103C222.677 107.101 241.172 108.168 246.512 103.809C251.852 99.4497 264.113 98.073 264.113 98.073C264.113 98.073 280.156 98.2107 275.905 111.736C275.905 111.736 268.33 122.348 273.9 126.523C273.9 126.523 278.139 132.5 277.842 138.11C277.842 138.11 325.695 123.001 341.36 109.12C357.025 95.2395 348.763 63.5886 348.763 63.5886L208.501 0.585022C208.501 0.585022 186.087 3.06295 174.02 17.116L143.08 53.826C143.08 53.826 134.188 67.1793 133.489 72.5596C132.79 77.9399 125.616 83.825 125.616 83.825L92.5221 116.91C92.5221 116.91 73.6945 140.026 82.6557 156.522C82.6557 156.522 86.6893 163.807 90.0584 165.551C90.0584 165.551 85.6465 159.884 103.752 141.758C103.752 141.758 93.3586 120.684 114.066 114.627C114.066 114.627 120.941 112.86 128.527 118.436L143.046 107.95Z" fill="#C2DBFF"/>
<path d="M202.841 5.36882C201.624 7.95528 201.002 10.7814 201.019 13.6401C200.333 25.4563 201.165 37.3118 203.494 48.9161C204.445 53.5851 205.694 58.3574 208.662 62.0743C214.392 69.2672 224.613 70.5291 233.735 71.6763C248.837 73.5706 263.776 76.5962 278.426 80.7276C289.496 83.8479 300.371 87.6107 311.371 90.9261C317.009 92.6354 322.682 94.23 328.423 95.5722C333.007 96.6391 338.736 99.3694 343.515 98.2796C344.991 97.8423 346.339 97.0551 347.447 95.9846C348.554 94.9142 349.387 93.5921 349.875 92.1306C350.813 89.1987 351.201 86.1183 351.021 83.0449C350.894 67.6611 347.468 51.0499 335.94 40.8743C331.104 36.5953 325.18 33.7732 319.278 31.1461C285.246 16.0265 249.31 5.63243 212.466 0.252373C209.029 -0.286805 204.502 2.36319 202.841 5.36882Z" fill="url(#paint0_radial_1826_11294)"/>
<defs>
<radialGradient id="paint0_radial_1826_11294" cx="0" cy="0" r="1" gradientUnits="userSpaceOnUse" gradientTransform="translate(468.336 54.7415) rotate(-179.814) scale(256.029 235.794)">
<stop stop-color="#0894FF"/>
<stop offset="0.290475" stop-color="#6E53FF"/>
<stop offset="0.609151" stop-color="#B038EA"/>
<stop offset="0.850793" stop-color="#F95088"/>
<stop offset="1" stop-color="#FF6F62"/>
</radialGradient>
</defs>
</svg>
