<svg width="247" height="277" viewBox="0 0 247 277" fill="none" xmlns="http://www.w3.org/2000/svg">
<g clip-path="url(#clip0_3308_21647)">
<path d="M144.351 117.201C144.351 117.201 135.509 111.294 128.016 114.825C115.475 120.732 130.932 132.046 134.287 132.671L144.351 117.201Z" fill="#492298" stroke="#19013A" stroke-width="0.14" stroke-miterlimit="10"/>
<path d="M175.422 228.651C175.383 229.189 175.256 229.717 175.046 230.214C174.909 230.568 174.681 230.879 174.383 231.116C174.085 231.352 173.73 231.504 173.353 231.557C172.852 231.576 172.36 231.425 171.957 231.13C171.553 230.835 171.26 230.413 171.127 229.932C170.876 229.12 170.562 228.151 169.434 227.901C169.063 227.807 168.675 227.807 168.305 227.901C167.818 228.018 167.374 228.267 167.019 228.62C166.613 229.167 166.433 229.85 166.518 230.526C166.567 232.403 167.108 234.234 168.085 235.839L166.706 234.995L160.435 228.745C159.999 227.665 159.838 226.495 159.965 225.338C160.15 224.263 160.568 223.242 161.191 222.346C161.814 221.449 162.626 220.7 163.57 220.15L164.26 219.744C165.541 219.752 166.815 219.92 168.054 220.244C172.757 221.619 175.798 225.275 175.422 228.651Z" fill="#19013A"/>
<path d="M176.613 225.619C176.746 226.489 176.557 227.378 176.08 228.119C175.906 228.346 175.68 228.528 175.422 228.651C175.172 228.82 174.877 228.911 174.575 228.911C174.273 228.911 173.978 228.82 173.729 228.651C172.725 227.869 173.227 226.182 172.475 225.182C172.27 224.974 172.026 224.808 171.757 224.696C171.488 224.583 171.199 224.525 170.907 224.525C170.615 224.525 170.326 224.583 170.057 224.696C169.788 224.808 169.544 224.974 169.339 225.182C168.752 225.906 168.441 226.814 168.462 227.744C168.415 228.076 168.415 228.413 168.462 228.744C168.462 230.713 169.057 232.651 169.277 234.62C169.613 236.578 169.316 238.592 168.43 240.371C167.968 241.251 167.233 241.957 166.334 242.386C165.435 242.814 164.422 242.94 163.445 242.746C164.243 242.026 164.811 241.089 165.079 240.049C165.347 239.01 165.302 237.916 164.95 236.902C164.152 234.9 163.098 233.009 161.815 231.276C161.291 230.441 160.84 229.562 160.466 228.651C160.031 227.571 159.869 226.401 159.996 225.244C160.181 224.169 160.599 223.148 161.222 222.252C161.845 221.355 162.657 220.606 163.602 220.056L164.292 219.65C165.984 218.762 167.772 218.07 169.622 217.587L168.744 216.712C170.853 217.131 172.767 218.23 174.188 219.84C175.61 221.449 176.462 223.48 176.613 225.619Z" fill="#C1A9FF"/>
<path d="M173.29 202.679C175.196 204.593 176.718 206.853 177.773 209.336C178.288 210.582 178.447 211.945 178.231 213.275C178.015 214.604 177.433 215.848 176.55 216.868C174.764 218.286 172.563 219.087 170.28 219.15C167.653 219.646 164.952 219.593 162.348 218.994C161.043 218.69 159.849 218.029 158.902 217.084C157.954 216.14 157.291 214.95 156.986 213.649C157.014 211.02 157.994 208.49 159.745 206.523C160.655 205.086 161.877 203.398 163.602 203.586C164.641 203.793 165.63 204.196 166.517 204.773C167.675 205.237 168.953 205.307 170.154 204.974C171.356 204.641 172.414 203.922 173.164 202.929" fill="#19013A"/>
<path d="M161.877 219.65C160.768 219.313 159.741 218.75 158.861 217.997C157.981 217.244 157.268 216.317 156.767 215.274C156.384 214.261 156.228 213.177 156.309 212.097C156.39 211.017 156.707 209.968 157.237 209.023C158.082 207.365 159.135 205.822 160.372 204.429C160.967 203.718 161.765 203.205 162.661 202.96C163.532 202.767 164.445 202.924 165.2 203.398C166.03 204.053 167.024 204.469 168.074 204.601C169.124 204.733 170.19 204.577 171.158 204.148C172.506 203.523 173.007 202.742 173.133 202.835C173.258 202.929 172.882 203.804 171.44 204.679C170.559 205.212 169.553 205.503 168.524 205.523C167.169 205.509 165.845 205.119 164.699 204.398C164.129 204.096 163.465 204.021 162.842 204.189C162.218 204.358 161.683 204.756 161.344 205.304C160.309 206.641 159.426 208.087 158.71 209.617C158.289 210.38 158.037 211.224 157.972 212.092C157.907 212.961 158.031 213.833 158.334 214.649C158.756 215.483 159.343 216.224 160.059 216.825C160.776 217.427 161.608 217.877 162.504 218.15C164.417 218.7 166.424 218.849 168.398 218.587C170.289 218.489 172.161 218.174 173.979 217.649C174.746 217.421 175.449 217.02 176.036 216.479C176.623 215.937 177.078 215.268 177.365 214.524C177.846 213.181 177.943 211.731 177.648 210.336C177.1 208.258 176.116 206.32 174.763 204.648C173.822 203.367 173.321 202.648 173.415 202.585C173.509 202.523 174.167 203.085 175.233 204.242C176.858 205.88 178.062 207.885 178.745 210.086C179.242 211.684 179.242 213.395 178.745 214.993C178.404 215.916 177.857 216.751 177.146 217.433C176.434 218.115 175.577 218.627 174.638 218.931C172.711 219.527 170.723 219.905 168.712 220.056C166.431 220.424 164.097 220.286 161.877 219.65Z" fill="#19013A"/>
<path d="M173.854 203.398C173.259 204.294 172.452 205.029 171.502 205.538C170.553 206.047 169.492 206.313 168.414 206.313C167.337 206.313 166.276 206.047 165.326 205.538C164.377 205.029 163.569 204.294 162.975 203.398V199.46H173.854V203.398Z" fill="#492298"/>
<path d="M144.696 178.395C144.696 178.395 167.113 199.929 193.638 178.395C193.638 178.395 189.844 200.46 171.691 202.273C167.424 202.644 163.136 201.865 159.275 200.018C155.414 198.17 152.122 195.322 149.744 191.772C147.048 187.761 145.32 183.183 144.696 178.395Z" fill="#8954F6" stroke="#19013A" stroke-width="0.2" stroke-miterlimit="10"/>
<path d="M169.152 188.803C182.848 188.803 193.952 183.234 193.952 176.364C193.952 169.494 182.848 163.925 169.152 163.925C155.455 163.925 144.352 169.494 144.352 176.364C144.352 183.234 155.455 188.803 169.152 188.803Z" fill="#130033"/>
<path d="M207.746 167.175C207.746 167.175 197.838 179.426 175.735 180.489C163.302 180.82 150.946 178.452 139.522 173.551C137.278 172.708 135.223 171.433 133.471 169.8C128.737 165.55 125.727 157.518 130.336 140.828C134.694 124.858 138.488 116.951 140.996 113.106C141.225 112.717 141.476 112.342 141.749 111.981C143.128 110.044 142.94 109.106 142.94 109.106H195.989L196.365 109.825C196.678 110.387 197.149 111.294 197.744 112.481C202.98 122.951 217.716 155.08 207.746 167.175Z" fill="#C1A9FF" stroke="#19013A" stroke-width="0.2" stroke-miterlimit="10"/>
<path d="M175 180.5C162.567 180.83 150.163 177.733 138.739 172.832C136.495 171.989 134.439 170.715 132.688 169.082C131.873 160.862 131.496 142.641 141.811 132.671C150.894 138.119 161.475 140.559 172.035 139.641C172.035 139.641 180.079 152.716 175 180.5Z" fill="url(#paint0_radial_3308_21647)"/>
<path d="M199.312 97.5421C199.225 99.1038 198.983 100.653 198.591 102.168C195.926 112.387 186.458 118.232 172.663 119.67C158.867 121.107 143.661 114.544 139.241 104.043C138.347 101.991 137.889 99.7784 137.893 97.5421C137.893 83.3843 152.189 62.3193 169.245 62.3193C186.301 62.3193 200.159 83.3843 199.312 97.5421Z" fill="#C1A9FF" stroke="#19013A" stroke-width="0.2" stroke-miterlimit="10"/>
<path d="M171.22 97.1358C170.168 98.4984 168.788 99.5736 167.207 100.261C165.059 101.2 162.707 101.577 160.372 101.355C156.322 100.781 152.46 99.2842 149.085 96.9795C145.57 95.2874 142.859 92.2927 141.529 88.6348C141.024 85.8662 141.583 83.0095 143.097 80.6339C144.351 78.665 145.847 76.8592 147.549 75.2583C147.787 77.9066 149.046 80.3597 151.06 82.1028C153.785 84.0738 157.104 85.0553 160.466 84.8843C163.601 84.8843 167.207 84.353 169.872 86.2595C171.469 87.5431 172.503 89.3957 172.755 91.4256C173.006 93.4554 172.456 95.5032 171.22 97.1358Z" fill="#492298"/>
<path d="M143.473 79.3526C144.422 78.0749 145.471 76.8732 146.608 75.7585L147.831 74.5396C147.936 74.8653 148.009 75.2001 148.051 75.5397V76.196C148.378 77.9115 149.167 79.5063 150.332 80.8107C151.497 82.115 152.994 83.0801 154.666 83.6031C159.776 85.4471 164.918 83.6031 168.931 85.3533C169.805 85.7399 170.583 86.3122 171.212 87.0303C171.84 87.7483 172.303 88.5947 172.568 89.51C172.997 90.8763 173.062 92.3304 172.757 93.7293C172.548 94.8876 172.028 95.9678 171.251 96.8546C171.855 95.8402 172.279 94.7302 172.506 93.5729C172.76 92.2168 172.663 90.8182 172.223 89.51C171.956 88.6529 171.508 87.8631 170.907 87.1943C170.306 86.5256 169.568 85.9936 168.743 85.6346C165.012 83.9469 159.808 85.8846 154.478 84.0406C153.089 83.5966 151.812 82.8622 150.73 81.8867C149.649 80.9112 148.789 79.717 148.207 78.3838C147.883 77.6764 147.652 76.9307 147.517 76.1648V75.696L147.141 76.071C146.049 77.1611 145.052 78.3427 144.163 79.6027C142.369 82.0059 141.572 85.0052 141.937 87.9786C142.645 90.6835 144.316 93.0389 146.64 94.6044C150.381 97.6157 154.752 99.7517 159.432 100.855C162.657 101.49 166.004 100.923 168.837 99.2611C169.817 98.601 170.712 97.8244 171.502 96.9484C170.864 97.9683 169.994 98.8246 168.963 99.4486C166.17 101.217 162.813 101.875 159.557 101.293C154.764 100.242 150.279 98.103 146.452 95.0419C144.002 93.4059 142.248 90.9227 141.529 88.0724C141.037 85.025 141.733 81.9055 143.473 79.3526Z" fill="#231F20"/>
<path d="M147.768 76.5397C144.821 79.9151 142.47 84.8219 145.103 89.0411C146.015 90.5167 147.196 91.8098 148.583 92.8541C149.378 93.4323 150.205 93.9645 151.06 94.448C152.581 95.3753 154.163 96.2001 155.794 96.917C160.535 98.7433 165.727 99.06 170.656 97.8234C170.218 98.3938 169.662 98.8629 169.025 99.1985C168.269 99.8063 167.409 100.272 166.486 100.574C164.511 101.191 162.435 101.425 160.372 101.261C156.322 100.688 152.46 99.1904 149.085 96.8858C145.57 95.1937 142.859 92.1989 141.529 88.5411C141.024 85.7725 141.583 82.9157 143.097 80.5402C144.351 78.5712 145.847 76.7655 147.549 75.1646" fill="#120530"/>
<path d="M162.975 96.1673C164.88 96.1673 166.424 94.6281 166.424 92.7294C166.424 90.8307 164.88 89.2915 162.975 89.2915C161.07 89.2915 159.526 90.8307 159.526 92.7294C159.526 94.6281 161.07 96.1673 162.975 96.1673Z" fill="white" stroke="#19013A" stroke-width="0.2" stroke-miterlimit="10"/>
<path d="M148.785 84.683C149.063 82.5782 148.69 80.7932 147.952 80.6962C147.214 80.5992 146.39 82.2269 146.111 84.3317C145.833 86.4366 146.206 88.2217 146.944 88.3187C147.682 88.4157 148.506 86.7879 148.785 84.683Z" fill="white" stroke="#19013A" stroke-width="0.2" stroke-miterlimit="10"/>
<path d="M170.28 72.2268C173.119 72.2268 175.421 70.8835 175.421 69.2264C175.421 67.5694 173.119 66.2261 170.28 66.2261C167.44 66.2261 165.138 67.5694 165.138 69.2264C165.138 70.8835 167.44 72.2268 170.28 72.2268Z" fill="#492298" stroke="#19013A" stroke-width="0.1" stroke-miterlimit="10"/>
<path d="M197.996 120.014C196.402 123.144 195.795 126.681 196.253 130.161C196.712 133.642 198.216 136.902 200.567 139.516C201.03 139.969 201.587 140.316 202.199 140.532C202.811 140.748 203.463 140.828 204.11 140.766C208.75 140.422 219.347 138.547 219.786 128.264C220.194 119.607 209.847 116.951 204.737 116.138C203.339 115.933 201.914 116.204 200.69 116.907C199.467 117.611 198.518 118.705 197.996 120.014Z" fill="#492298" stroke="#19013A" stroke-width="0.14" stroke-miterlimit="10"/>
<path d="M201.758 119.014C201.151 120.023 200.753 121.143 200.586 122.307C200.419 123.472 200.487 124.658 200.786 125.796" stroke="#C1A9FF" stroke-width="0.5" stroke-miterlimit="10"/>
<path d="M201.1 128.39C201.225 130.872 202.055 133.267 203.492 135.298C204.93 137.328 206.916 138.91 209.22 139.86" stroke="#C1A9FF" stroke-width="0.5" stroke-miterlimit="10"/>
<path d="M132.312 116.138C132.312 116.138 124.944 117.232 126.7 123.17" stroke="#C1A9FF" stroke-width="0.5" stroke-miterlimit="10"/>
<path d="M165.734 74.102C168.587 75.2896 171.158 74.6333 171.315 75.0396C171.471 75.4459 170.782 75.6959 169.653 75.9772C168.141 76.2899 166.57 76.1485 165.138 75.5709C163.702 75.0231 162.466 74.053 161.595 72.7893C160.937 71.7892 160.843 71.0704 161.031 70.9766C161.219 70.8829 162.881 73.0081 165.734 74.102Z" fill="#492298"/>
<path d="M169.339 145.298C170.257 145.298 171.001 144.556 171.001 143.641C171.001 142.726 170.257 141.985 169.339 141.985C168.422 141.985 167.678 142.726 167.678 143.641C167.678 144.556 168.422 145.298 169.339 145.298Z" fill="white" stroke="#19013A" stroke-width="0.1" stroke-miterlimit="10"/>
<path d="M141.31 139.922C142.228 139.922 142.972 139.181 142.972 138.266C142.972 137.351 142.228 136.609 141.31 136.609C140.392 136.609 139.648 137.351 139.648 138.266C139.648 139.181 140.392 139.922 141.31 139.922Z" fill="white" stroke="#19013A" stroke-width="0.1" stroke-miterlimit="10"/>
<path d="M135.447 168.206C136.365 168.206 137.109 167.465 137.109 166.55C137.109 165.635 136.365 164.894 135.447 164.894C134.529 164.894 133.785 165.635 133.785 166.55C133.785 167.465 134.529 168.206 135.447 168.206Z" fill="white" stroke="#19013A" stroke-width="0.1" stroke-miterlimit="10"/>
<path d="M171.001 176.957C171.918 176.957 172.662 176.216 172.662 175.301C172.662 174.386 171.918 173.645 171.001 173.645C170.083 173.645 169.339 174.386 169.339 175.301C169.339 176.216 170.083 176.957 171.001 176.957Z" fill="white" stroke="#19013A" stroke-width="0.1" stroke-miterlimit="10"/>
<path d="M202.166 168.644C198.802 171.586 194.886 173.835 190.646 175.262C186.406 176.688 181.925 177.265 177.46 176.957" stroke="#19013A" stroke-width="0.5" stroke-miterlimit="10"/>
<path d="M127.233 141.954C127.233 141.954 124.098 155.299 126.418 161.268" stroke="#130033" stroke-width="0.5" stroke-miterlimit="10"/>
<path d="M150.967 65.8825C150.967 65.8825 160.184 58.1629 168.775 58.6942" stroke="#19013A" stroke-width="0.5" stroke-miterlimit="10"/>
<path d="M172.694 59.0066C174.601 58.7461 176.54 59.1196 178.212 60.0693" stroke="#19013A" stroke-width="0.5" stroke-miterlimit="10"/>
<path d="M198.592 102.168C195.927 112.388 186.458 118.232 172.663 119.67C158.868 121.108 143.662 114.544 139.241 104.043C144.979 111.607 176.645 131.515 198.592 102.168Z" fill="#492298" stroke="#19013A" stroke-width="0.14" stroke-miterlimit="10"/>
<path d="M209.22 154.799C209.22 154.799 209.69 161.675 205.708 164.894" stroke="#19013A" stroke-width="0.5" stroke-miterlimit="10"/>
<path d="M151.249 190.365C153.861 194.755 158.055 197.986 162.975 199.398" stroke="#19013A" stroke-width="0.5" stroke-miterlimit="10"/>
<path d="M193.637 187.771C193.825 188.365 189.53 198.71 185.392 199.46" stroke="#19013A" stroke-width="0.5" stroke-miterlimit="10"/>
<path d="M184.043 200.71C182.411 201.969 180.36 202.561 178.306 202.367" stroke="#19013A" stroke-width="0.5" stroke-miterlimit="10"/>
<path d="M159.369 212.774C159.881 214.074 160.841 215.149 162.076 215.808C163.311 216.467 164.741 216.665 166.11 216.368" stroke="#C1A9FF" stroke-width="0.5" stroke-miterlimit="10"/>
<path d="M186.96 264.686C186.764 264.403 186.507 264.169 186.207 263.999L174.074 256.998C173.722 256.792 173.322 256.683 172.914 256.683C172.506 256.683 172.106 256.792 171.754 256.998L159.213 264.061C158.896 264.233 158.627 264.48 158.429 264.78C158.107 265.283 157.995 265.892 158.118 266.477C158.241 267.061 158.589 267.574 159.087 267.905L171.409 275.906C171.786 276.152 172.228 276.283 172.679 276.283C173.13 276.283 173.571 276.152 173.949 275.906L186.49 267.874C186.962 267.503 187.274 266.966 187.361 266.374C187.449 265.781 187.305 265.177 186.96 264.686ZM166.424 262.748L172.255 259.623C172.417 259.53 172.601 259.481 172.788 259.481C172.976 259.481 173.159 259.53 173.322 259.623L178.934 262.748C179.089 262.843 179.218 262.977 179.307 263.135C179.396 263.294 179.443 263.473 179.443 263.655C179.443 263.837 179.396 264.016 179.307 264.174C179.218 264.333 179.089 264.466 178.934 264.561L173.196 268.312C173.022 268.42 172.821 268.477 172.616 268.477C172.411 268.477 172.21 268.42 172.036 268.312L166.299 264.592C166.156 264.482 166.043 264.339 165.969 264.175C165.896 264.011 165.864 263.832 165.876 263.653C165.889 263.474 165.945 263.3 166.041 263.148C166.136 262.996 166.268 262.869 166.424 262.78V262.748Z" fill="#492298" stroke="#19013A" stroke-width="0.4" stroke-miterlimit="10"/>
<path d="M186.207 261.405L174.073 254.372C173.72 254.173 173.32 254.067 172.913 254.067C172.507 254.067 172.107 254.173 171.753 254.372L159.212 261.436C158.933 261.593 158.688 261.806 158.495 262.061C158.302 262.317 158.165 262.61 158.091 262.921C158.018 263.232 158.01 263.555 158.068 263.87C158.126 264.185 158.248 264.484 158.428 264.749C158.591 265.009 158.818 265.224 159.087 265.374L171.408 273.375C171.786 273.621 172.227 273.752 172.678 273.752C173.129 273.752 173.571 273.621 173.948 273.375L186.489 265.343C186.753 265.173 186.978 264.949 187.147 264.686C187.321 264.414 187.435 264.108 187.482 263.789C187.528 263.47 187.506 263.145 187.417 262.835C187.328 262.525 187.174 262.237 186.966 261.99C186.757 261.744 186.499 261.544 186.207 261.405ZM178.996 264.53L173.258 268.28C173.084 268.388 172.883 268.446 172.678 268.446C172.473 268.446 172.272 268.388 172.098 268.28L166.361 264.561C166.205 264.462 166.077 264.326 165.989 264.165C165.9 264.004 165.854 263.823 165.854 263.639C165.854 263.455 165.9 263.275 165.989 263.114C166.077 262.952 166.205 262.816 166.361 262.717L172.192 259.592C172.354 259.499 172.538 259.449 172.725 259.449C172.912 259.449 173.096 259.499 173.258 259.592L178.87 262.717C179.04 262.799 179.185 262.924 179.291 263.079C179.397 263.235 179.459 263.415 179.472 263.603C179.484 263.79 179.447 263.978 179.363 264.146C179.28 264.314 179.153 264.458 178.996 264.561V264.53Z" fill="white" stroke="#19013A" stroke-width="0.3" stroke-miterlimit="10"/>
<path d="M169.308 266.53L172.662 263.936L176.613 266.124" stroke="#19013A" stroke-width="0.4" stroke-miterlimit="10"/>
<path d="M172.82 259.842L172.569 263.248C172.521 263.39 172.521 263.544 172.569 263.686C172.569 263.686 172.757 263.873 172.851 263.967C173.453 264.363 174.082 264.718 174.732 265.03C175.299 265.343 175.898 265.595 176.519 265.78C176.673 265.826 176.836 265.826 176.99 265.78L177.303 265.624L178.62 264.717C178.902 264.53 179.216 264.248 179.153 263.936C179.105 263.765 179.306 263.338 179.153 263.248C177.554 261.842 175.422 260.967 173.729 259.717C173.478 259.498 173.102 259.31 172.851 259.529" fill="#492298"/>
<path d="M184.013 266.843V269.437" stroke="#C1A9FF" stroke-width="0.1" stroke-miterlimit="10"/>
<path d="M173 274V276" stroke="#C1A9FF" stroke-width="0.1" stroke-miterlimit="10"/>
<path d="M160 266V268.594" stroke="#C1A9FF" stroke-width="0.1" stroke-miterlimit="10"/>
<path d="M162.881 255.56L169.935 251.466C170.846 250.979 171.864 250.724 172.898 250.724C173.932 250.724 174.95 250.979 175.861 251.466L183.856 255.685" stroke="#19013A" stroke-width="0.4" stroke-miterlimit="10"/>
<path d="M175.86 234.37C174.743 237.31 173.096 240.022 171.001 242.371C170.629 242.664 170.328 243.036 170.122 243.461C169.915 243.886 169.808 244.352 169.808 244.824C169.808 245.297 169.915 245.763 170.122 246.188C170.328 246.613 170.629 246.985 171.001 247.278C171.6 247.624 172.274 247.823 172.965 247.858C173.657 247.893 174.348 247.763 174.979 247.479C175.611 247.194 176.165 246.764 176.596 246.224C177.028 245.683 177.324 245.048 177.459 244.371" stroke="#19013A" stroke-width="0.4" stroke-miterlimit="10"/>
<path d="M174.513 243.559C175.038 242.774 175.848 242.224 176.773 242.026C177.698 241.828 178.664 241.996 179.466 242.496" stroke="#19013A" stroke-width="0.4" stroke-miterlimit="10"/>
<path d="M206.336 1.2815L243.614 21.8151C244.451 22.2892 245.147 22.9756 245.631 23.8044C246.116 24.6332 246.372 25.5751 246.373 26.5344V53.0686C246.379 54.005 246.138 54.9264 245.674 55.7406C245.21 56.5549 244.54 57.2333 243.73 57.7081C242.921 58.1829 242 58.4372 241.061 58.4458C240.122 58.4543 239.196 58.2166 238.378 57.7566L201.131 37.1293C200.287 36.6694 199.582 35.9915 199.091 35.1666C198.6 34.3418 198.341 33.4004 198.341 32.4413V6.00082C198.339 5.0654 198.582 4.14566 199.046 3.33252C199.51 2.51938 200.178 1.84101 200.986 1.36439C201.793 0.887766 202.712 0.629431 203.65 0.614906C204.588 0.600381 205.514 0.830106 206.336 1.2815Z" fill="white" stroke="#19013A" stroke-width="0.4" stroke-miterlimit="10"/>
<path d="M241.263 28.3782V54.9124C241.259 55.8452 241.012 56.7611 240.546 57.5699C240.08 58.3787 239.411 59.0527 238.604 59.5256C237.798 59.9985 236.882 60.2541 235.946 60.2673C235.01 60.2804 234.088 60.0506 233.268 59.6005L206.524 44.7863L201.727 50.1932C201.619 50.3226 201.474 50.4154 201.311 50.459C201.148 50.5025 200.976 50.4945 200.817 50.4363C200.659 50.378 200.523 50.2722 200.428 50.1335C200.332 49.9948 200.282 49.83 200.285 49.6619V41.1922L195.99 38.8169C195.151 38.3529 194.453 37.6732 193.968 36.8487C193.482 36.0241 193.228 35.0848 193.23 34.1289V7.68841C193.229 6.75299 193.472 5.83325 193.935 5.02011C194.399 4.20697 195.068 3.5286 195.875 3.05198C196.683 2.57536 197.601 2.31693 198.539 2.30241C199.478 2.28788 200.403 2.5177 201.225 2.9691L238.472 23.5027C239.343 23.9802 240.064 24.6882 240.557 25.5486C241.049 26.4089 241.294 27.3882 241.263 28.3782Z" fill="#C1A9FF" stroke="#19013A" stroke-width="0.4" stroke-miterlimit="10"/>
<path d="M241 34L246.342 32.9414V53.0687C246.342 53.0687 245.5 60 240 58L241 34Z" fill="#492298"/>
<path d="M243.582 21.8462L239.318 24.0652" stroke="#19013A" stroke-width="0.3" stroke-miterlimit="10"/>
<path d="M208.154 2.31299L205.27 5.18831" stroke="#19013A" stroke-width="0.3" stroke-miterlimit="10"/>
<path d="M203.64 29.4097C205.614 29.4097 207.214 27.3388 207.214 24.7842C207.214 22.2296 205.614 20.1587 203.64 20.1587C201.666 20.1587 200.065 22.2296 200.065 24.7842C200.065 27.3388 201.666 29.4097 203.64 29.4097Z" fill="white"/>
<path d="M215.647 35.8477C217.569 35.8477 219.127 33.7768 219.127 31.2222C219.127 28.6676 217.569 26.5967 215.647 26.5967C213.725 26.5967 212.167 28.6676 212.167 31.2222C212.167 33.7768 213.725 35.8477 215.647 35.8477Z" fill="white"/>
<path d="M228.753 41.4107C230.83 41.4107 232.515 39.3398 232.515 36.7852C232.515 34.2306 230.83 32.1597 228.753 32.1597C226.675 32.1597 224.99 34.2306 224.99 36.7852C224.99 39.3398 226.675 41.4107 228.753 41.4107Z" fill="white"/>
<path d="M241.5 30.5L246.5 28.5" stroke="#19013A" stroke-width="0.5"/>
<path d="M149.25 162.863L150.517 155.932C150.608 155.433 150.597 154.987 150.483 154.594C150.379 154.195 150.17 153.867 149.854 153.61C149.548 153.354 149.147 153.181 148.653 153.091C148.104 152.99 147.62 152.993 147.201 153.097C146.784 153.193 146.441 153.366 146.172 153.616C145.914 153.858 145.753 154.155 145.689 154.506L142.17 153.618C142.287 152.978 142.538 152.421 142.922 151.948C143.316 151.467 143.82 151.079 144.431 150.783C145.052 150.489 145.765 150.302 146.57 150.223C147.374 150.143 148.244 150.189 149.18 150.36C150.34 150.573 151.312 150.95 152.096 151.492C152.889 152.035 153.453 152.737 153.789 153.595C154.126 154.445 154.19 155.444 153.98 156.593L152.801 163.037L149.25 162.863ZM150.943 156.88L150.538 159.171L147.584 158.63C146.927 158.51 146.355 158.51 145.869 158.629C145.393 158.742 145.013 158.939 144.728 159.223C144.444 159.506 144.268 159.836 144.199 160.213C144.135 160.564 144.163 160.891 144.284 161.194C144.406 161.497 144.627 161.759 144.949 161.981C145.273 162.194 145.704 162.35 146.244 162.449C146.649 162.523 147.075 162.529 147.524 162.466C147.974 162.394 148.395 162.276 148.787 162.112C149.189 161.95 149.521 161.757 149.785 161.534C150.049 161.31 150.207 161.085 150.257 160.859L151.597 163.143C151.284 163.529 150.832 163.895 150.239 164.24C149.647 164.575 148.921 164.814 148.058 164.955C147.205 165.098 146.22 165.068 145.105 164.864C143.972 164.656 143.042 164.301 142.316 163.796C141.6 163.294 141.099 162.677 140.814 161.945C140.532 161.205 140.471 160.392 140.633 159.507C140.76 158.814 141.011 158.226 141.388 157.742C141.766 157.249 142.263 156.869 142.879 156.601C143.497 156.325 144.233 156.165 145.086 156.122C145.942 156.07 146.905 156.142 147.975 156.337L150.943 156.88ZM155.75 166.811C154.626 166.605 153.662 166.257 152.86 165.765C152.066 165.276 151.429 164.67 150.947 163.948C150.477 163.219 150.164 162.409 150.011 161.521C149.868 160.625 149.888 159.677 150.071 158.678L150.22 157.862C150.411 156.819 150.733 155.895 151.187 155.09C151.643 154.276 152.211 153.606 152.894 153.078C153.576 152.551 154.353 152.19 155.225 151.996C156.107 151.795 157.061 151.793 158.084 151.989C159.047 152.165 159.874 152.47 160.566 152.905C161.267 153.341 161.827 153.888 162.246 154.544C162.667 155.192 162.939 155.939 163.063 156.786C163.198 157.626 163.175 158.537 162.996 159.519L162.637 161.479L151.533 159.448L151.961 157.107L159.544 158.494L159.614 158.113C159.716 157.551 159.718 157.035 159.618 156.564C159.518 156.093 159.303 155.696 158.972 155.372C158.649 155.05 158.187 154.835 157.584 154.724C157.036 154.624 156.543 154.647 156.107 154.794C155.672 154.941 155.292 155.188 154.968 155.537C154.644 155.885 154.371 156.311 154.148 156.814C153.935 157.319 153.773 157.878 153.66 158.492L153.511 159.307C153.404 159.894 153.376 160.451 153.429 160.977C153.483 161.494 153.628 161.969 153.865 162.402C154.102 162.835 154.444 163.201 154.891 163.501C155.339 163.8 155.9 164.011 156.574 164.134C157.546 164.312 158.354 164.338 159 164.211C159.657 164.078 160.262 163.921 160.815 163.741L161.397 166.199C161.071 166.357 160.628 166.516 160.069 166.676C159.521 166.83 158.875 166.929 158.132 166.974C157.399 167.021 156.605 166.967 155.75 166.811Z" fill="white"/>
</g>
<g clip-path="url(#clip1_3308_21647)">
<path d="M67.8801 84.4286C67.8801 84.4286 73.7269 80.5262 78.6822 82.8594C86.9755 86.7618 76.754 94.2362 74.5355 94.6492L67.8801 84.4286Z" fill="#492298" stroke="#19013A" stroke-width="0.14" stroke-miterlimit="10"/>
<path d="M47.3336 158.058C47.3594 158.413 47.4434 158.762 47.5824 159.09C47.6725 159.324 47.8238 159.53 48.0207 159.686C48.2175 159.842 48.4528 159.943 48.702 159.978C49.0328 159.99 49.3582 159.891 49.6253 159.696C49.8924 159.501 50.0857 159.222 50.1741 158.904C50.34 158.368 50.5472 157.728 51.2936 157.562C51.5385 157.5 51.7952 157.5 52.0401 157.562C52.3619 157.64 52.6559 157.804 52.8901 158.037C53.1588 158.399 53.2776 158.85 53.2219 159.297C53.1892 160.537 52.8318 161.747 52.1853 162.807L53.0975 162.249L57.2442 158.12C57.5325 157.407 57.6392 156.633 57.5551 155.869C57.433 155.159 57.1562 154.484 56.7443 153.892C56.3324 153.3 55.7954 152.805 55.1709 152.442L54.7147 152.173C53.8679 152.179 53.0251 152.29 52.2059 152.504C49.0959 153.412 47.0848 155.828 47.3336 158.058Z" fill="#19013A"/>
<path d="M46.546 156.055C46.4582 156.63 46.5835 157.218 46.8984 157.707C47.0138 157.857 47.163 157.977 47.3339 158.058C47.499 158.17 47.6941 158.23 47.8937 158.23C48.0934 158.23 48.2884 158.17 48.4534 158.058C49.1169 157.542 48.7852 156.427 49.2828 155.766C49.4179 155.629 49.5792 155.52 49.7572 155.445C49.9352 155.371 50.1264 155.333 50.3195 155.333C50.5126 155.333 50.7037 155.371 50.8817 155.445C51.0597 155.52 51.221 155.629 51.3561 155.766C51.7446 156.245 51.9502 156.845 51.9366 157.46C51.9675 157.679 51.9675 157.901 51.9366 158.12C51.9366 159.421 51.5428 160.701 51.3977 162.002C51.1754 163.295 51.3714 164.626 51.9574 165.801C52.2628 166.382 52.7491 166.849 53.3434 167.132C53.9377 167.415 54.608 167.499 55.254 167.37C54.7261 166.895 54.3504 166.275 54.1734 165.589C53.9965 164.902 54.0262 164.179 54.2588 163.509C54.7863 162.187 55.4832 160.937 56.3322 159.793C56.6783 159.241 56.9765 158.661 57.2237 158.058C57.5119 157.345 57.6187 156.572 57.5346 155.808C57.4125 155.098 57.1357 154.423 56.7238 153.831C56.3119 153.239 55.7749 152.744 55.1504 152.38L54.6942 152.112C53.5753 151.525 52.3927 151.068 51.1695 150.749L51.7501 150.171C50.3549 150.448 49.0898 151.174 48.1495 152.237C47.2092 153.301 46.6458 154.642 46.546 156.055Z" fill="#C1A9FF"/>
<path d="M48.7441 140.9C47.4834 142.164 46.477 143.657 45.7792 145.298C45.4387 146.121 45.3339 147.021 45.4767 147.9C45.6194 148.778 46.0041 149.6 46.5879 150.274C47.7695 151.211 49.2248 151.74 50.7345 151.781C52.4713 152.109 54.2575 152.074 55.98 151.678C56.8429 151.478 57.6322 151.041 58.2588 150.417C58.8853 149.793 59.3241 149.007 59.5254 148.147C59.5068 146.41 58.8589 144.739 57.7009 143.44C57.0996 142.49 56.291 141.375 55.1507 141.499C54.4636 141.635 53.8091 141.902 53.2225 142.283C52.4573 142.589 51.612 142.636 50.8175 142.416C50.023 142.196 49.3234 141.721 48.827 141.065" fill="#19013A"/>
<path d="M56.2904 152.112C57.024 151.889 57.7033 151.517 58.285 151.02C58.8668 150.522 59.3384 149.91 59.6699 149.221C59.923 148.552 60.0262 147.835 59.9725 147.122C59.9188 146.409 59.7094 145.716 59.3589 145.091C58.8001 143.996 58.1034 142.976 57.2856 142.056C56.8924 141.586 56.3643 141.248 55.7721 141.086C55.1959 140.958 54.5923 141.062 54.0927 141.375C53.544 141.808 52.8867 142.082 52.1923 142.17C51.498 142.257 50.7928 142.154 50.1533 141.87C49.2618 141.457 48.93 140.941 48.8471 141.003C48.7642 141.065 49.0131 141.643 49.9668 142.221C50.5488 142.574 51.2141 142.766 51.895 142.779C52.791 142.77 53.6668 142.512 54.4244 142.036C54.8013 141.836 55.2405 141.787 55.6526 141.898C56.0647 142.009 56.4188 142.272 56.6428 142.634C57.327 143.517 57.9111 144.473 58.3845 145.484C58.6632 145.988 58.8296 146.545 58.8726 147.119C58.9155 147.693 58.8339 148.269 58.6333 148.808C58.3545 149.359 57.9664 149.848 57.4925 150.246C57.0185 150.643 56.4685 150.941 55.8757 151.121C54.6105 151.485 53.2832 151.583 51.9779 151.41C50.7279 151.345 49.4896 151.137 48.2874 150.79C47.7806 150.639 47.3152 150.375 46.927 150.017C46.5389 149.659 46.2382 149.217 46.0482 148.725C45.7306 147.838 45.6659 146.88 45.8615 145.959C46.2239 144.586 46.8741 143.305 47.7691 142.201C48.3911 141.354 48.7228 140.879 48.6606 140.838C48.5984 140.797 48.1629 141.168 47.458 141.932C46.3839 143.015 45.5874 144.339 45.1359 145.794C44.8071 146.849 44.8071 147.979 45.1359 149.035C45.3614 149.645 45.723 150.196 46.1934 150.647C46.6639 151.098 47.231 151.436 47.852 151.637C49.1259 152.031 50.4404 152.28 51.7706 152.38C53.2786 152.623 54.8221 152.532 56.2904 152.112Z" fill="#19013A"/>
<path d="M48.3711 141.375C48.7642 141.967 49.2984 142.453 49.9262 142.789C50.5539 143.125 51.2555 143.301 51.9682 143.301C52.681 143.301 53.3826 143.125 54.0103 142.789C54.6381 142.453 55.1723 141.967 55.5654 141.375V138.773H48.3711V141.375Z" fill="#492298"/>
<path d="M67.6523 124.857C67.6523 124.857 52.8281 139.083 35.2878 124.857C35.2878 124.857 37.7965 139.434 49.801 140.632C52.6225 140.877 55.4583 140.362 58.0116 139.142C60.5649 137.921 62.7417 136.04 64.3143 133.694C66.0975 131.045 67.24 128.02 67.6523 124.857Z" fill="#8954F6" stroke="#19013A" stroke-width="0.2" stroke-miterlimit="10"/>
<path d="M51.4809 131.732C42.4234 131.732 35.0809 128.053 35.0809 123.515C35.0809 118.976 42.4234 115.297 51.4809 115.297C60.5383 115.297 67.8809 118.976 67.8809 123.515C67.8809 128.053 60.5383 131.732 51.4809 131.732Z" fill="#130033"/>
<path d="M25.9579 117.444C25.9579 117.444 32.5097 125.538 47.1266 126.24C55.3481 126.459 63.519 124.895 71.0735 121.657C72.5574 121.1 73.9169 120.258 75.075 119.179C78.2057 116.371 80.1961 111.064 77.1483 100.038C74.2664 89.4875 71.7576 84.2636 70.0989 81.7239C69.9476 81.4668 69.7815 81.2187 69.6014 80.9807C68.6891 79.7005 68.8135 79.0811 68.8135 79.0811H33.7329L33.4841 79.556C33.2767 79.9276 32.9657 80.5264 32.5718 81.311C29.1094 88.228 19.3647 109.454 25.9579 117.444Z" fill="#C1A9FF" stroke="#19013A" stroke-width="0.2" stroke-miterlimit="10"/>
<path d="M47.6129 126.247C55.8345 126.466 64.0377 124.42 71.5921 121.182C73.076 120.625 74.4356 119.783 75.5936 118.704C76.1327 113.274 76.3814 101.236 69.5602 94.6494C63.5537 98.2487 56.5569 99.8606 49.5734 99.2539C49.5734 99.2539 44.2541 107.892 47.6129 126.247Z" fill="url(#paint1_radial_3308_21647)"/>
<path d="M31.535 71.4413C31.5929 72.473 31.7526 73.4965 32.0118 74.4971C33.7741 81.2489 40.0356 85.11 49.1582 86.0598C58.2809 87.0096 68.3364 82.6736 71.2598 75.736C71.8506 74.3808 72.154 72.9187 72.1513 71.4413C72.1513 62.0879 62.697 48.1714 51.4181 48.1714C40.1392 48.1714 30.9752 62.0879 31.535 71.4413Z" fill="#C1A9FF" stroke="#19013A" stroke-width="0.2" stroke-miterlimit="10"/>
<path d="M50.1119 71.1731C50.8075 72.0733 51.7204 72.7836 52.7657 73.2378C54.1859 73.8583 55.7417 74.107 57.2856 73.9605C59.9637 73.5816 62.5181 72.5924 64.7496 71.0699C67.0737 69.9519 68.8669 67.9735 69.7463 65.5569C70.0805 63.7278 69.7103 61.8405 68.7096 60.2711C67.8799 58.9703 66.891 57.7774 65.7655 56.7197C65.6077 58.4693 64.7754 60.09 63.4434 61.2416C61.6417 62.5437 59.4467 63.1921 57.2234 63.0792C55.1501 63.0792 52.7658 62.7282 51.0035 63.9877C49.9471 64.8356 49.2633 66.0596 49.0969 67.4006C48.9305 68.7416 49.2946 70.0945 50.1119 71.1731Z" fill="#492298"/>
<path d="M68.4613 59.4244C67.8334 58.5802 67.1402 57.7863 66.3879 57.0499L65.5793 56.2446C65.51 56.4598 65.4614 56.6811 65.4342 56.9054V57.339C65.2174 58.4723 64.6961 59.5259 63.9257 60.3876C63.1554 61.2494 62.1648 61.887 61.0595 62.2325C57.6799 63.4507 54.2797 62.2325 51.6259 63.3888C51.0481 63.6441 50.5334 64.0222 50.1179 64.4966C49.7025 64.971 49.3962 65.5301 49.2207 66.1349C48.9371 67.0375 48.8943 67.9982 49.0963 68.9223C49.2343 69.6876 49.5783 70.4012 50.0916 70.9871C49.6928 70.3169 49.4122 69.5836 49.2622 68.819C49.0937 67.9231 49.158 66.9991 49.4489 66.1349C49.6254 65.5686 49.9223 65.0468 50.3194 64.605C50.7165 64.1632 51.2046 63.8118 51.7503 63.5746C54.2175 62.4596 57.6592 63.7397 61.1839 62.5215C62.1022 62.2281 62.9471 61.743 63.6621 61.0985C64.3772 60.4541 64.946 59.6651 65.3305 58.7843C65.5446 58.317 65.698 57.8244 65.7867 57.3183V57.0086L66.0355 57.2564C66.7579 57.9765 67.4168 58.7571 68.0051 59.5896C69.1914 61.1773 69.7186 63.1588 69.4772 65.1232C69.0091 66.9101 67.9036 68.4662 66.3672 69.5004C63.8932 71.4899 61.0024 72.901 57.908 73.63C55.7751 74.0496 53.5618 73.6749 51.688 72.5769C51.0404 72.1408 50.4486 71.6277 49.9257 71.049C50.3481 71.7228 50.9233 72.2885 51.6051 72.7008C53.4519 73.8688 55.6717 74.3035 57.8251 73.919C60.9945 73.225 63.9603 71.8118 66.4916 69.7895C68.1113 68.7087 69.2711 67.0681 69.7467 65.1851C70.072 63.1719 69.6121 61.1109 68.4613 59.4244Z" fill="#231F20"/>
<path d="M65.6204 57.5662C67.5693 59.7962 69.1242 63.0378 67.3827 65.8253C66.7795 66.8001 65.999 67.6544 65.0813 68.3443C64.556 68.7263 64.0092 69.0779 63.4434 69.3973C62.4375 70.0099 61.3916 70.5548 60.3127 71.0285C57.1778 72.235 53.7444 72.4443 50.4851 71.6273C50.7744 72.0041 51.1421 72.314 51.5632 72.5358C52.0632 72.9373 52.6322 73.2451 53.2426 73.4443C54.5485 73.8523 55.9211 74.0065 57.2856 73.8985C59.9637 73.5196 62.5181 72.5304 64.7496 71.0078C67.0737 69.8899 68.8669 67.9115 69.7463 65.4949C70.0805 63.6658 69.7103 61.7785 68.7096 60.2091C67.8799 58.9083 66.891 57.7154 65.7655 56.6577" fill="#120530"/>
<path d="M55.565 70.5327C54.3055 70.5327 53.2844 69.5158 53.2844 68.2615C53.2844 67.0071 54.3055 65.9902 55.565 65.9902C56.8246 65.9902 57.8457 67.0071 57.8457 68.2615C57.8457 69.5158 56.8246 70.5327 55.565 70.5327Z" fill="white" stroke="#19013A" stroke-width="0.2" stroke-miterlimit="10"/>
<path d="M64.9487 62.9461C64.7646 61.5555 65.0112 60.3763 65.4993 60.3122C65.9875 60.2481 66.5324 61.3234 66.7165 62.714C66.9006 64.1046 66.6541 65.2839 66.1659 65.348C65.6778 65.4121 65.1328 64.3366 64.9487 62.9461Z" fill="white" stroke="#19013A" stroke-width="0.2" stroke-miterlimit="10"/>
<path d="M50.7345 54.7168C48.8566 54.7168 47.3343 53.8293 47.3343 52.7346C47.3343 51.6399 48.8566 50.7524 50.7345 50.7524C52.6124 50.7524 54.1348 51.6399 54.1348 52.7346C54.1348 53.8293 52.6124 54.7168 50.7345 54.7168Z" fill="#492298" stroke="#19013A" stroke-width="0.1" stroke-miterlimit="10"/>
<path d="M32.4065 86.287C33.4605 88.3549 33.8622 90.6919 33.5588 92.9912C33.2554 95.2905 32.261 97.4447 30.7063 99.1711C30.3999 99.4706 30.0315 99.6997 29.6267 99.8423C29.222 99.985 28.7908 100.038 28.3634 99.997C25.2949 99.7699 18.2871 98.5311 17.9968 91.738C17.7273 86.0186 24.5694 84.2635 27.9489 83.7267C28.8729 83.5912 29.8157 83.7703 30.6247 84.2349C31.4337 84.6996 32.0615 85.4227 32.4065 86.287Z" fill="#492298" stroke="#19013A" stroke-width="0.14" stroke-miterlimit="10"/>
<path d="M29.9183 85.626C30.3192 86.2927 30.5826 87.0324 30.693 87.8018C30.8034 88.5711 30.7585 89.3547 30.561 90.1065" stroke="#C1A9FF" stroke-width="0.5" stroke-miterlimit="10"/>
<path d="M30.3535 91.8203C30.2705 93.4601 29.7219 95.0427 28.7713 96.3841C27.8207 97.7256 26.5071 98.7707 24.9835 99.398" stroke="#C1A9FF" stroke-width="0.5" stroke-miterlimit="10"/>
<path d="M75.8424 83.7266C75.8424 83.7266 80.7146 84.4492 79.5536 88.3723" stroke="#C1A9FF" stroke-width="0.5" stroke-miterlimit="10"/>
<path d="M53.7407 55.9554C51.8539 56.74 50.1538 56.3064 50.0501 56.5748C49.9464 56.8432 50.4026 57.0085 51.149 57.1943C52.149 57.4009 53.188 57.3074 54.1346 56.9259C55.0845 56.5639 55.9015 55.9231 56.4773 55.0882C56.9127 54.4275 56.9751 53.9526 56.8507 53.8907C56.7263 53.8287 55.6274 55.2328 53.7407 55.9554Z" fill="#492298"/>
<path d="M51.3562 102.991C50.7493 102.991 50.2574 102.501 50.2574 101.897C50.2574 101.292 50.7493 100.802 51.3562 100.802C51.9631 100.802 52.4551 101.292 52.4551 101.897C52.4551 102.501 51.9631 102.991 51.3562 102.991Z" fill="white" stroke="#19013A" stroke-width="0.1" stroke-miterlimit="10"/>
<path d="M69.8914 99.4396C69.2845 99.4396 68.7925 98.9497 68.7925 98.3453C68.7925 97.7409 69.2845 97.251 69.8914 97.251C70.4983 97.251 70.9902 97.7409 70.9902 98.3453C70.9902 98.9497 70.4983 99.4396 69.8914 99.4396Z" fill="white" stroke="#19013A" stroke-width="0.1" stroke-miterlimit="10"/>
<path d="M73.7693 118.126C73.1624 118.126 72.6704 117.636 72.6704 117.031C72.6704 116.427 73.1624 115.937 73.7693 115.937C74.3762 115.937 74.8682 116.427 74.8682 117.031C74.8682 117.636 74.3762 118.126 73.7693 118.126Z" fill="white" stroke="#19013A" stroke-width="0.1" stroke-miterlimit="10"/>
<path d="M50.2576 123.907C49.6507 123.907 49.1587 123.417 49.1587 122.813C49.1587 122.208 49.6507 121.718 50.2576 121.718C50.8645 121.718 51.3564 122.208 51.3564 122.813C51.3564 123.417 50.8645 123.907 50.2576 123.907Z" fill="white" stroke="#19013A" stroke-width="0.1" stroke-miterlimit="10"/>
<path d="M29.6485 118.415C31.8734 120.358 34.4625 121.844 37.2664 122.786C40.0704 123.729 43.0339 124.11 45.9863 123.907" stroke="#19013A" stroke-width="0.5" stroke-miterlimit="10"/>
<path d="M79.201 100.782C79.201 100.782 81.2743 109.598 79.7401 113.542" stroke="#130033" stroke-width="0.5" stroke-miterlimit="10"/>
<path d="M63.5059 50.525C63.5059 50.525 57.4103 45.4251 51.7294 45.7761" stroke="#19013A" stroke-width="0.3" stroke-miterlimit="10"/>
<path d="M49.1377 45.9826C47.8769 45.8105 46.5943 46.0573 45.4886 46.6846" stroke="#19013A" stroke-width="0.3" stroke-miterlimit="10"/>
<path d="M32.0117 74.4971C33.7741 81.2488 40.0355 85.11 49.1582 86.0598C58.2808 87.0096 68.3364 82.6735 71.2598 75.7359C67.4656 80.7327 46.525 93.8852 32.0117 74.4971Z" fill="#492298" stroke="#19013A" stroke-width="0.14" stroke-miterlimit="10"/>
<path d="M24.9834 109.268C24.9834 109.268 24.6725 113.81 27.3057 115.937" stroke="#19013A" stroke-width="0.5" stroke-miterlimit="10"/>
<path d="M63.3193 132.765C61.5922 135.665 58.8186 137.799 55.565 138.732" stroke="#19013A" stroke-width="0.5" stroke-miterlimit="10"/>
<path d="M35.2884 131.051C35.164 131.443 38.0044 138.277 40.7412 138.773" stroke="#19013A" stroke-width="0.5" stroke-miterlimit="10"/>
<path d="M41.6325 139.599C42.7117 140.431 44.0684 140.822 45.4268 140.693" stroke="#19013A" stroke-width="0.5" stroke-miterlimit="10"/>
<path d="M57.9492 147.569C57.6107 148.428 56.9762 149.139 56.1594 149.574C55.3425 150.009 54.3967 150.14 53.4915 149.944" stroke="#C1A9FF" stroke-width="0.5" stroke-miterlimit="10"/>
<path d="M39.7045 181.865C39.8339 181.678 40.004 181.523 40.2021 181.411L48.2259 176.786C48.4584 176.649 48.7232 176.578 48.993 176.578C49.2627 176.578 49.5276 176.649 49.7601 176.786L58.0534 181.452C58.2627 181.565 58.4407 181.729 58.5717 181.927C58.7849 182.259 58.8587 182.662 58.7773 183.048C58.6959 183.434 58.4659 183.773 58.1364 183.992L49.9883 189.277C49.7386 189.44 49.4468 189.527 49.1485 189.527C48.8502 189.527 48.5584 189.44 48.3088 189.277L40.0155 183.971C39.7031 183.726 39.4969 183.371 39.439 182.98C39.3812 182.588 39.4762 182.189 39.7045 181.865ZM53.2848 180.585L49.4284 178.52C49.3213 178.458 49.1997 178.426 49.076 178.426C48.9523 178.426 48.8306 178.458 48.7234 178.52L45.0122 180.585C44.9093 180.647 44.8242 180.735 44.7652 180.84C44.7062 180.945 44.6753 181.063 44.6753 181.184C44.6753 181.304 44.7062 181.422 44.7652 181.527C44.8242 181.632 44.9093 181.72 45.0122 181.782L48.8065 184.26C48.9216 184.331 49.0544 184.369 49.19 184.369C49.3256 184.369 49.4585 184.331 49.5736 184.26L53.3677 181.803C53.4618 181.73 53.5366 181.636 53.5853 181.527C53.634 181.419 53.6552 181.301 53.647 181.182C53.6388 181.064 53.6014 180.949 53.5383 180.849C53.4751 180.748 53.3881 180.665 53.2848 180.605V180.585Z" fill="#492298" stroke="#19013A" stroke-width="0.4" stroke-miterlimit="10"/>
<path d="M40.2014 179.697L48.2251 175.051C48.459 174.919 48.7233 174.85 48.9923 174.85C49.2612 174.85 49.5255 174.919 49.7594 175.051L58.0527 179.718C58.2377 179.821 58.3991 179.962 58.5267 180.131C58.6543 180.3 58.7453 180.493 58.794 180.699C58.8427 180.904 58.848 181.118 58.8097 181.326C58.7713 181.534 58.69 181.731 58.571 181.906C58.4633 182.078 58.3136 182.22 58.1357 182.319L49.9875 187.605C49.7379 187.768 49.446 187.854 49.1478 187.854C48.8495 187.854 48.5576 187.768 48.308 187.605L40.0147 182.299C39.8401 182.187 39.6917 182.039 39.5794 181.865C39.4645 181.685 39.3892 181.483 39.3585 181.272C39.3277 181.061 39.3422 180.847 39.401 180.642C39.4597 180.437 39.5615 180.247 39.6995 180.084C39.8374 179.921 40.0085 179.789 40.2014 179.697ZM44.97 181.762L48.7642 184.239C48.8793 184.311 49.0122 184.349 49.1478 184.349C49.2834 184.349 49.4162 184.311 49.5313 184.239L53.3256 181.782C53.4283 181.717 53.5129 181.627 53.5714 181.521C53.63 181.414 53.6607 181.295 53.6607 181.173C53.6607 181.052 53.63 180.932 53.5714 180.826C53.5129 180.719 53.4283 180.629 53.3256 180.564L49.4692 178.499C49.362 178.438 49.2404 178.405 49.1166 178.405C48.9929 178.405 48.8714 178.438 48.7642 178.499L45.053 180.564C44.9407 180.618 44.8447 180.7 44.7749 180.803C44.705 180.906 44.6638 181.025 44.6554 181.149C44.647 181.273 44.6716 181.397 44.7269 181.508C44.7822 181.619 44.866 181.714 44.97 181.782V181.762Z" fill="white" stroke="#19013A" stroke-width="0.3" stroke-miterlimit="10"/>
<path d="M51.377 183.083L49.1585 181.369L46.5461 182.814" stroke="#19013A" stroke-width="0.4" stroke-miterlimit="10"/>
<path d="M49.0547 178.664L49.2204 180.915C49.252 181.009 49.252 181.11 49.2204 181.204C49.2204 181.204 49.0961 181.328 49.0339 181.39C48.6356 181.652 48.2199 181.886 47.7898 182.092C47.415 182.299 47.0189 182.465 46.6082 182.588C46.5067 182.618 46.3985 182.618 46.2971 182.588L46.0898 182.484L45.2189 181.886C45.0323 181.762 44.825 181.576 44.8665 181.369C44.8983 181.257 44.7652 180.975 44.8665 180.915C45.9239 179.986 47.3337 179.408 48.4533 178.582C48.6192 178.437 48.868 178.313 49.0339 178.458" fill="#492298"/>
<path d="M41.6533 183.29V185.003" stroke="#C1A9FF" stroke-width="0.1" stroke-miterlimit="10"/>
<path d="M48.9355 188.018V189.339" stroke="#C1A9FF" stroke-width="0.1" stroke-miterlimit="10"/>
<path d="M57.5322 182.733V184.447" stroke="#C1A9FF" stroke-width="0.1" stroke-miterlimit="10"/>
<path d="M55.627 175.836L50.962 173.131C50.3594 172.809 49.6863 172.641 49.0027 172.641C48.319 172.641 47.6459 172.809 47.0434 173.131L41.7564 175.918" stroke="#19013A" stroke-width="0.4" stroke-miterlimit="10"/>
<path d="M47.0433 161.836C47.7819 163.779 48.871 165.57 50.2569 167.122C50.5028 167.315 50.7016 167.562 50.8382 167.842C50.9749 168.123 51.0459 168.431 51.0459 168.743C51.0459 169.055 50.9749 169.363 50.8382 169.644C50.7016 169.924 50.5028 170.171 50.2569 170.364C49.8605 170.593 49.4152 170.724 48.9576 170.747C48.5001 170.77 48.0436 170.684 47.626 170.497C47.2084 170.309 46.8419 170.025 46.5567 169.668C46.2715 169.311 46.0757 168.891 45.9858 168.444" stroke="#19013A" stroke-width="0.4" stroke-miterlimit="10"/>
<path d="M47.9355 167.907C47.5884 167.389 47.0523 167.025 46.4407 166.894C45.8291 166.763 45.1903 166.875 44.6598 167.205" stroke="#19013A" stroke-width="0.4" stroke-miterlimit="10"/>
<path d="M26.8908 7.84658L2.23891 21.4121C1.68568 21.7253 1.22555 22.1788 0.905117 22.7263C0.584682 23.2739 0.415329 23.8961 0.414373 24.5299V42.0597C0.41054 42.6783 0.57004 43.2871 0.876772 43.825C1.1835 44.3629 1.62669 44.8112 2.1621 45.1248C2.69751 45.4384 3.30626 45.6065 3.92741 45.6121C4.54856 45.6178 5.16027 45.4608 5.70133 45.1569L30.3324 31.5294C30.8908 31.2256 31.3567 30.7777 31.6814 30.2328C32.0061 29.6878 32.1775 29.0659 32.1777 28.4323V10.9644C32.179 10.3464 32.0183 9.73878 31.7115 9.20158C31.4048 8.66438 30.9626 8.21622 30.4286 7.90134C29.8947 7.58646 29.2874 7.41579 28.667 7.40619C28.0465 7.39659 27.4343 7.54836 26.8908 7.84658Z" fill="white" stroke="#19013A" stroke-width="0.4" stroke-miterlimit="10"/>
<path d="M3.79425 25.7479V43.2778C3.79658 43.894 3.95993 44.499 4.26816 45.0334C4.57639 45.5677 5.01886 46.013 5.55222 46.3254C6.08558 46.6379 6.69146 46.8067 7.31019 46.8154C7.92893 46.8241 8.53922 46.6723 9.0812 46.3749L26.7667 36.5879L29.9388 40.16C30.0101 40.2455 30.1063 40.3068 30.2141 40.3356C30.3218 40.3643 30.4358 40.3591 30.5404 40.3206C30.6451 40.282 30.7351 40.2122 30.7982 40.1206C30.8613 40.0289 30.8943 39.92 30.8926 39.809V34.2135L33.7331 32.6442C34.2875 32.3377 34.7492 31.8887 35.0701 31.3439C35.3911 30.7992 35.5594 30.1786 35.5576 29.5471V12.0792C35.5589 11.4612 35.3982 10.8536 35.0914 10.3164C34.7847 9.77919 34.3424 9.33102 33.8085 9.01614C33.2745 8.70126 32.6673 8.53053 32.0468 8.52094C31.4264 8.51134 30.8142 8.66317 30.2706 8.96139L5.63954 22.5269C5.06383 22.8424 4.58682 23.3101 4.2612 23.8785C3.93558 24.4469 3.77398 25.0938 3.79425 25.7479Z" fill="#C1A9FF" stroke="#19013A" stroke-width="0.4" stroke-miterlimit="10"/>
<path d="M3.79392 28.7627H0.435139V42.0598C0.435139 42.0598 0.991809 46.639 4.62891 45.3177L3.79392 28.7627Z" fill="#492298"/>
<path d="M4.00195 27.627H0.415102" stroke="#19013A" stroke-width="0.3" stroke-miterlimit="10"/>
<path d="M2.26035 21.4326L5.08008 22.8986" stroke="#19013A" stroke-width="0.3" stroke-miterlimit="10"/>
<path d="M25.6882 8.52783L27.5957 10.4274" stroke="#19013A" stroke-width="0.3" stroke-miterlimit="10"/>
<path d="M28.6745 26.4296C27.3691 26.4296 26.3109 25.0614 26.3109 23.3737C26.3109 21.686 27.3691 20.3179 28.6745 20.3179C29.9799 20.3179 31.0381 21.686 31.0381 23.3737C31.0381 25.0614 29.9799 26.4296 28.6745 26.4296Z" fill="white"/>
<path d="M20.7328 30.683C19.4618 30.683 18.4314 29.3148 18.4314 27.6271C18.4314 25.9394 19.4618 24.5713 20.7328 24.5713C22.0038 24.5713 23.0342 25.9394 23.0342 27.6271C23.0342 29.3148 22.0038 30.683 20.7328 30.683Z" fill="white"/>
<path d="M12.0667 34.3583C10.6926 34.3583 9.5787 32.9901 9.5787 31.3024C9.5787 29.6147 10.6926 28.2466 12.0667 28.2466C13.4408 28.2466 14.5547 29.6147 14.5547 31.3024C14.5547 32.9901 13.4408 34.3583 12.0667 34.3583Z" fill="white"/>
<path d="M61.1929 116.603L60.2749 111.488C60.2087 111.12 60.0854 110.815 59.905 110.573C59.7301 110.324 59.5004 110.151 59.216 110.056C58.9382 109.958 58.6167 109.943 58.2516 110.008C57.8466 110.081 57.5131 110.208 57.2508 110.388C56.9874 110.562 56.7952 110.771 56.6742 111.013C56.5587 111.247 56.5242 111.494 56.5706 111.753L53.9105 112.05C53.8257 111.577 53.8547 111.128 53.9974 110.702C54.1457 110.268 54.3928 109.869 54.7388 109.507C55.0915 109.143 55.5355 108.829 56.0707 108.566C56.606 108.303 57.2188 108.11 57.9092 107.986C58.7655 107.832 59.5346 107.841 60.2163 108.013C60.9047 108.183 61.4759 108.521 61.93 109.027C62.3828 109.527 62.6853 110.201 62.8375 111.049L63.691 115.804L61.1929 116.603ZM60.8145 112.033L61.1276 113.72L58.9469 114.111C58.4623 114.198 58.0674 114.346 57.7621 114.554C57.4624 114.755 57.251 114.99 57.128 115.259C57.0051 115.528 56.9685 115.802 57.0185 116.08C57.0649 116.339 57.1692 116.557 57.3313 116.735C57.4935 116.913 57.7144 117.037 57.9942 117.107C58.2729 117.171 58.6114 117.167 59.0097 117.095C59.3084 117.042 59.6045 116.935 59.8979 116.776C60.1902 116.61 60.4506 116.419 60.6794 116.205C60.9147 115.989 61.0946 115.769 61.2191 115.547C61.3436 115.324 61.394 115.128 61.3705 114.959L62.8864 116.189C62.7707 116.537 62.5527 116.907 62.2324 117.298C61.9109 117.683 61.4706 118.036 60.9115 118.357C60.359 118.677 59.6711 118.91 58.848 119.058C58.0115 119.208 57.2774 119.203 56.6456 119.042C56.0205 118.881 55.515 118.584 55.1291 118.153C54.7421 117.714 54.49 117.169 54.3727 116.515C54.281 116.004 54.3026 115.532 54.4375 115.101C54.5713 114.663 54.8163 114.271 55.1725 113.927C55.5275 113.576 55.9943 113.275 56.5728 113.025C57.1502 112.767 57.8339 112.568 58.6238 112.426L60.8145 112.033ZM66.7046 117.648C65.8748 117.797 65.1192 117.806 64.4377 117.674C63.763 117.541 63.1658 117.288 62.6464 116.914C62.1325 116.532 61.7075 116.054 61.3714 115.479C61.0409 114.897 60.8094 114.238 60.677 113.5L60.569 112.898C60.4308 112.128 60.4144 111.407 60.5196 110.733C60.6237 110.053 60.8431 109.443 61.1777 108.902C61.5123 108.361 61.9557 107.911 62.5078 107.551C63.0655 107.184 63.7233 106.936 64.4812 106.806C65.1915 106.679 65.8419 106.676 66.4324 106.797C67.0295 106.917 67.5578 107.149 68.0171 107.494C68.4753 107.833 68.8568 108.278 69.1617 108.832C69.472 109.377 69.6921 110.012 69.8222 110.737L70.0818 112.183L61.8866 113.654L61.5765 111.926L67.1727 110.922L67.1222 110.64C67.0479 110.226 66.9153 109.869 66.7245 109.569C66.5337 109.27 66.282 109.051 65.9695 108.914C65.6636 108.775 65.2883 108.745 64.8436 108.825C64.4386 108.898 64.1046 109.041 63.8416 109.255C63.5785 109.47 63.3802 109.739 63.2465 110.063C63.1129 110.388 63.0345 110.753 63.0112 111.158C62.9946 111.561 63.0269 111.99 63.1082 112.443L63.2162 113.044C63.294 113.478 63.4192 113.87 63.5916 114.219C63.7628 114.563 63.9863 114.853 64.2619 115.091C64.5375 115.329 64.8685 115.493 65.2549 115.584C65.6412 115.675 66.0833 115.676 66.5812 115.586C67.2982 115.458 67.8634 115.266 68.2768 115.011C68.6957 114.749 69.073 114.484 69.4088 114.217L70.447 115.764C70.2624 115.957 69.9978 116.182 69.6531 116.437C69.3138 116.685 68.8936 116.921 68.3924 117.145C67.8978 117.367 67.3352 117.535 66.7046 117.648Z" fill="white"/>
</g>
<defs>
<radialGradient id="paint0_radial_3308_21647" cx="0" cy="0" r="1" gradientUnits="userSpaceOnUse" gradientTransform="translate(211.228 158.816) rotate(-179.697) scale(75.5121 112.992)">
<stop stop-color="#0894FF"/>
<stop offset="0.290475" stop-color="#6E53FF"/>
<stop offset="0.609151" stop-color="#B038EA"/>
<stop offset="0.850793" stop-color="#F95088"/>
<stop offset="1" stop-color="#FF6F62"/>
</radialGradient>
<radialGradient id="paint1_radial_3308_21647" cx="0" cy="0" r="1" gradientUnits="userSpaceOnUse" gradientTransform="translate(23.656 111.922) rotate(-0.30252) scale(49.9354 74.6484)">
<stop stop-color="#0894FF"/>
<stop offset="0.290475" stop-color="#6E53FF"/>
<stop offset="0.609151" stop-color="#B038EA"/>
<stop offset="0.850793" stop-color="#F95088"/>
<stop offset="1" stop-color="#FF6F62"/>
</radialGradient>
<clipPath id="clip0_3308_21647">
<rect width="124" height="277" fill="white" transform="translate(123)"/>
</clipPath>
<clipPath id="clip1_3308_21647">
<rect width="82" height="183" fill="white" transform="matrix(-1 0 0 1 82 7)"/>
</clipPath>
</defs>
</svg>
