<svg width="574" height="549" viewBox="0 0 574 549" fill="none" xmlns="http://www.w3.org/2000/svg">
<g clip-path="url(#clip0_1558_9289)">
<path d="M470.65 350.13V349.87V306.73V260.89V212.66V167.85V121.36" stroke="#DDDDDD" stroke-miterlimit="10"/>
<path d="M482.14 355.96V309.46V260.89V209.81V162.15V113.16" stroke="#DDDDDD" stroke-miterlimit="10"/>
<path d="M491.33 360.83V311.65V260.89V207.53V157.58V106.6" stroke="#DDDDDD" stroke-miterlimit="10"/>
<path d="M500.52 99.47V365.5" stroke="#DDDDDD" stroke-miterlimit="10"/>
<path d="M514.05 372.09V317.06V260.89V201.89V146.31" stroke="#DDDDDD" stroke-miterlimit="10"/>
<path d="M527.58 379.22V320.28V260.89V198.53V139.59" stroke="#DDDDDD" stroke-miterlimit="10"/>
<path d="M542.9 388.05V323.92V260.89V194.73V131.99" stroke="#DDDDDD" stroke-miterlimit="10"/>
<path d="M560.77 397.62V328.18V260.89V190.29V123.12" stroke="#DDDDDD" stroke-miterlimit="10"/>
<path d="M470.65 121.37L505.63 96.4099" stroke="#DDDDDD" stroke-miterlimit="10"/>
<path d="M560.77 123.12L542.9 131.99L527.58 139.59L514.05 146.31L500.52 153.02L491.33 157.58L482.14 162.15L470.65 167.85" stroke="#DDDDDD" stroke-miterlimit="10"/>
<path d="M560.77 190.29L542.9 194.73L527.58 198.53L514.05 201.89L500.52 205.25L491.33 207.53L482.14 209.81L470.65 212.66" stroke="#DDDDDD" stroke-miterlimit="10"/>
<path d="M560.77 260.89H542.9H527.58H514.05H500.52H491.33H482.14H470.65" stroke="#DDDDDD" stroke-miterlimit="10"/>
<path d="M560.77 328.18L542.9 323.92L527.58 320.28L514.05 317.06L500.52 313.84L491.33 311.65L482.14 309.46L470.65 306.73" stroke="#DDDDDD" stroke-miterlimit="10"/>
<path d="M470.65 349.88L569.46 402.22" stroke="#DDDDDD" stroke-miterlimit="10"/>
<path d="M101.12 96.4099V350.13" stroke="#DDDDDD" stroke-miterlimit="10"/>
<path d="M89.6299 99.47V355.96" stroke="#DDDDDD" stroke-miterlimit="10"/>
<path d="M80.4404 99.47V360.35" stroke="#DDDDDD" stroke-miterlimit="10"/>
<path d="M71.25 99.47V364.94" stroke="#DDDDDD" stroke-miterlimit="10"/>
<path d="M57.7197 99.47V372.09" stroke="#DDDDDD" stroke-miterlimit="10"/>
<path d="M44.1904 99.47V379.23" stroke="#DDDDDD" stroke-miterlimit="10"/>
<path d="M28.8701 99.47V387.24" stroke="#DDDDDD" stroke-miterlimit="10"/>
<path d="M11 99.47V396.94" stroke="#DDDDDD" stroke-miterlimit="10"/>
<path d="M101.12 121.37L66.1396 96.4099" stroke="#DDDDDD" stroke-miterlimit="10"/>
<path d="M101.12 167.85L0.269531 117.79" stroke="#DDDDDD" stroke-miterlimit="10"/>
<path d="M101.12 212.66L0.269531 187.63" stroke="#DDDDDD" stroke-miterlimit="10"/>
<path d="M101.12 260.9H0.269531" stroke="#DDDDDD" stroke-miterlimit="10"/>
<path d="M101.12 306.73L0.269531 330.73" stroke="#DDDDDD" stroke-miterlimit="10"/>
<path d="M101.12 349.88L2.30957 402.22" stroke="#DDDDDD" stroke-miterlimit="10"/>
<path d="M99.9902 349.93H100L471.05 350.09" stroke="#DDDDDD" stroke-width="1.26" stroke-miterlimit="10"/>
<path d="M482.14 356.05L89.1797 355.88" stroke="#DDDDDD" stroke-width="1.26" stroke-miterlimit="10"/>
<path d="M78.4502 361.79H78.4602L493.02 361.97" stroke="#DDDDDD" stroke-width="1.26" stroke-miterlimit="10"/>
<path d="M67.7305 367.69H67.7405L504.65 367.89" stroke="#DDDDDD" stroke-width="1.26" stroke-miterlimit="10"/>
<path d="M59.9297 371.99L514.6 372.19H514.61" stroke="#DDDDDD" stroke-width="1.26" stroke-miterlimit="10"/>
<path d="M527.56 379.33L46.9805 379.12" stroke="#DDDDDD" stroke-width="1.26" stroke-miterlimit="10"/>
<path d="M32.4404 387.13L541.39 387.35" stroke="#DDDDDD" stroke-width="1.26" stroke-miterlimit="10"/>
<path d="M556.7 395.37L17.8896 395.14" stroke="#DDDDDD" stroke-width="1.26" stroke-miterlimit="10"/>
<path d="M571.5 407.88L2.04004 407.62" stroke="#DDDDDD" stroke-width="1.26" stroke-miterlimit="10"/>
<path d="M571.5 418.43L2.04004 418.18" stroke="#DDDDDD" stroke-width="1.26" stroke-miterlimit="10"/>
<path d="M571.5 432.73L2.04004 432.47" stroke="#DDDDDD" stroke-width="1.26" stroke-miterlimit="10"/>
<path d="M571.5 470.17L2.04004 469.92" stroke="#DDDDDD" stroke-width="1.26" stroke-miterlimit="10"/>
<path d="M571.5 496.22L2.04004 495.96" stroke="#DDDDDD" stroke-width="1.26" stroke-miterlimit="10"/>
<path d="M571.5 526.34L2.04004 526.09" stroke="#DDDDDD" stroke-width="1.26" stroke-miterlimit="10"/>
<path d="M571.5 450.26L2.04004 450L148.18 350.13" stroke="#DDDDDD" stroke-width="1.26" stroke-miterlimit="10"/>
<path d="M2.30957 543.15L197.2 350.13" stroke="#DDDDDD" stroke-width="1.26" stroke-miterlimit="10"/>
<path d="M143.58 548.26L247.24 350.13" stroke="#DDDDDD" stroke-width="1.26" stroke-miterlimit="10"/>
<path d="M287.29 548.26L291.67 347.58" stroke="#DDDDDD" stroke-width="1.26" stroke-miterlimit="10"/>
<path d="M432.61 548.26L336.61 350.13" stroke="#DDDDDD" stroke-width="1.26" stroke-miterlimit="10"/>
<path d="M571.5 541.98L382.05 350.13" stroke="#DDDDDD" stroke-width="1.26" stroke-miterlimit="10"/>
<path d="M574.08 450.26L428.01 350.13" stroke="#DDDDDD" stroke-width="1.26" stroke-miterlimit="10"/>
<path d="M386.23 443.42C382.98 446.831 379.361 449.869 375.44 452.48C367.447 457.727 358.642 461.616 349.38 463.99C335.61 467.68 321.28 468.67 307.04 469.23C282.17 470.23 256.89 469.87 232.97 463.04C211.03 456.77 185.04 443.04 174.03 421.85C172.552 418.957 171.54 415.849 171.03 412.64C167.83 393.44 179.79 368.76 191.74 356.32H205.8L381.5 356.59C382.11 357.11 382.71 357.64 383.29 358.18C389.139 363.543 393.861 370.017 397.183 377.224C400.505 384.43 402.36 392.226 402.639 400.157C402.918 408.087 401.616 415.994 398.809 423.416C396.003 430.839 391.747 437.629 386.29 443.39L386.23 443.42Z" fill="#8859E9"/>
<path d="M386.23 443.42C382.981 446.831 379.362 449.869 375.44 452.48C411.05 403.39 381.7 360.9 381.7 360.9L383.28 358.21C389.129 363.573 393.852 370.047 397.174 377.254C400.496 384.46 402.35 392.256 402.629 400.187C402.909 408.117 401.607 416.024 398.8 423.446C395.993 430.869 391.737 437.659 386.28 443.42H386.23Z" fill="#211045"/>
<path d="M205.79 356.32C191.614 373.361 179.909 392.314 171.02 412.62C167.82 393.42 179.78 368.74 191.73 356.3L205.79 356.32Z" fill="#211045"/>
<path d="M287.27 422.56C340.571 422.56 383.78 397.582 383.78 366.77C383.78 335.958 340.571 310.98 287.27 310.98C233.969 310.98 190.76 335.958 190.76 366.77C190.76 397.582 233.969 422.56 287.27 422.56Z" fill="white"/>
<path d="M288.29 417.11C336.891 417.11 376.29 394.63 376.29 366.9C376.29 339.17 336.891 316.69 288.29 316.69C239.689 316.69 200.29 339.17 200.29 366.9C200.29 394.63 239.689 417.11 288.29 417.11Z" stroke="black" stroke-width="0.87" stroke-miterlimit="10"/>
<path d="M287.44 404.85C316.396 404.85 339.87 392.923 339.87 378.21C339.87 363.497 316.396 351.57 287.44 351.57C258.483 351.57 235.01 363.497 235.01 378.21C235.01 392.923 258.483 404.85 287.44 404.85Z" fill="#8859E9"/>
<path d="M287.66 404.85C308.371 404.85 325.16 399.746 325.16 393.45C325.16 387.154 308.371 382.05 287.66 382.05C266.949 382.05 250.16 387.154 250.16 393.45C250.16 399.746 266.949 404.85 287.66 404.85Z" fill="#2B1B4B"/>
<path d="M283.91 331.22C296.175 331.198 308.34 333.442 319.79 337.84C324.795 339.741 329.553 342.239 333.96 345.28C337.821 347.935 341.236 351.185 344.08 354.91C346.417 357.993 348.247 361.429 349.5 365.09C350.47 367.837 351.039 370.71 351.19 373.62C351.27 375.452 351.17 377.288 350.89 379.1C350.798 379.731 350.641 380.352 350.42 380.95C350.677 378.529 350.734 376.09 350.59 373.66C350.336 370.824 349.7 368.035 348.7 365.37C347.392 361.839 345.543 358.533 343.22 355.57C340.384 351.989 337.011 348.869 333.22 346.32C328.849 343.391 324.151 340.984 319.22 339.15C296.403 330.643 271.286 330.643 248.47 339.15C243.521 340.914 238.8 343.264 234.41 346.15C230.586 348.629 227.264 351.808 224.62 355.52C222.494 358.61 221.052 362.118 220.39 365.81C219.855 368.594 219.855 371.455 220.39 374.24C221.39 378.84 223.18 380.92 222.99 381.01C222.565 380.527 222.202 379.993 221.91 379.42C220.972 377.834 220.28 376.114 219.86 374.32C219.206 371.465 219.114 368.51 219.59 365.62C220.181 361.771 221.608 358.099 223.77 354.86C226.448 350.983 229.842 347.653 233.77 345.05C238.218 342.065 243.013 339.634 248.05 337.81C259.502 333.449 271.655 331.216 283.91 331.22Z" fill="#231F20"/>
<path d="M217.38 366.75C219.605 367.415 221.754 368.314 223.79 369.43C224.671 369.93 225.525 370.474 226.35 371.06C227.077 371.559 227.772 372.104 228.43 372.69C230.87 374.81 231.96 376.5 231.83 376.61C231.7 376.72 230.27 375.37 227.76 373.53C227.13 373.08 226.44 372.53 225.65 372.12C224.86 371.71 224.02 371.12 223.12 370.68C219.163 368.644 214.852 367.388 210.42 366.98C209.42 366.92 208.42 366.83 207.51 366.85C206.6 366.87 205.75 366.85 204.97 366.91C201.87 367.11 199.97 367.57 199.89 367.33C199.81 367.09 201.67 366.33 204.89 365.83C205.761 365.695 206.639 365.612 207.52 365.58C208.519 365.526 209.521 365.526 210.52 365.58C212.842 365.726 215.141 366.118 217.38 366.75Z" fill="#231F20"/>
<path d="M288.46 349.37C288.886 349.37 289.23 342.453 289.23 333.92C289.23 325.387 288.886 318.47 288.46 318.47C288.035 318.47 287.69 325.387 287.69 333.92C287.69 342.453 288.035 349.37 288.46 349.37Z" fill="#231F20"/>
<path d="M356.91 368.57C359.089 368 361.309 367.598 363.55 367.37C365.374 367.192 367.209 367.149 369.04 367.24C372.17 367.42 374.04 367.92 374.04 368.1C374.04 368.28 372.1 368.22 369.04 368.33C367.51 368.33 365.7 368.52 363.71 368.77C361.554 369.076 359.417 369.503 357.31 370.05C355.214 370.633 353.154 371.338 351.14 372.16C349.489 372.837 347.873 373.598 346.3 374.44C343.61 375.88 342.02 376.94 341.88 376.75C341.74 376.56 343.14 375.23 345.75 373.51C347.29 372.511 348.901 371.625 350.57 370.86C352.622 369.938 354.742 369.172 356.91 368.57Z" fill="#231F20"/>
<path d="M341.26 398.65C343.39 399.65 344.96 400.73 344.79 401.11C344.62 401.49 342.79 401.02 340.62 400.05C338.45 399.08 336.93 397.97 337.1 397.59C337.27 397.21 339.14 397.68 341.26 398.65Z" fill="#231F20"/>
<path d="M231.24 397.71C232.719 396.688 234.446 396.083 236.24 395.96C237.61 395.96 238.42 396.21 238.4 396.39C238.38 396.57 237.59 396.72 236.4 397.04C234.865 397.436 233.408 398.088 232.09 398.97C230.789 399.876 229.647 400.991 228.71 402.27C227.98 403.27 227.6 403.98 227.38 403.91C227.16 403.84 227.22 402.99 227.77 401.73C228.543 400.102 229.742 398.713 231.24 397.71Z" fill="#231F20"/>
<path d="M364.64 430.42C365.062 433.479 365.296 436.562 365.34 439.65C365.363 442.171 365.243 444.692 364.98 447.2C364.52 451.48 363.81 454.05 363.64 454.02C363.47 453.99 363.72 451.36 363.9 447.12C364 445 364.02 442.48 363.9 439.69C363.78 436.9 363.54 433.83 363.1 430.63C362.66 427.43 362.01 424.43 361.35 421.71C360.69 418.99 359.94 416.58 359.25 414.58C357.89 410.58 356.86 408.13 357.08 408.02C357.3 407.91 358.63 410.22 360.27 414.2C361.216 416.536 362.031 418.923 362.71 421.35C363.539 424.331 364.183 427.36 364.64 430.42Z" fill="#231F20"/>
<path d="M287.66 421.97C340.961 421.97 384.17 396.992 384.17 366.18C384.17 335.368 340.961 310.39 287.66 310.39C234.359 310.39 191.15 335.368 191.15 366.18C191.15 396.992 234.359 421.97 287.66 421.97Z" stroke="#231F20" stroke-miterlimit="10"/>
<path d="M239.83 333.89C241.99 338.03 242.21 341.89 241.83 341.89C241.45 341.89 240.52 338.46 238.49 334.57C236.46 330.68 234.14 327.92 234.49 327.57C234.84 327.22 237.71 329.73 239.83 333.89Z" fill="#231F20"/>
<path d="M341.119 337.73C337.919 342.73 336.439 347.39 335.999 347.26C335.809 347.21 335.929 345.96 336.509 344.03C338.113 338.999 340.982 334.465 344.84 330.86C346.34 329.51 347.409 328.86 347.539 329.02C347.839 329.36 344.269 332.7 341.119 337.73Z" fill="#231F20"/>
<path d="M272.899 127L193.159 179.42L190.149 238.68L207.799 292.72L223.559 252.11" stroke="#231F20" stroke-miterlimit="10"/>
<path d="M190.149 238.68L230.999 221.21L193.159 179.42" stroke="#231F20" stroke-miterlimit="10"/>
<path d="M327.62 161.1L346.8 139.26L404.65 221.21V278.64L391.05 316.96L371.26 329.2" stroke="black" stroke-miterlimit="10"/>
<path d="M430.14 242.56C430.142 270.56 421.841 297.932 406.286 321.215C390.731 344.497 368.622 362.644 342.753 373.361C316.885 384.077 288.42 386.882 260.957 381.421C233.495 375.96 208.268 362.477 188.468 342.679C168.669 322.88 155.184 297.655 149.721 270.193C144.258 242.73 147.061 214.265 157.775 188.396C168.49 162.527 186.636 140.416 209.917 124.86C233.198 109.303 260.57 101 288.57 101C289.64 101 290.71 101 291.77 101C264.877 101.723 238.826 110.533 217.013 126.279C195.2 142.026 178.638 163.98 169.485 189.278C160.333 214.576 159.014 242.044 165.703 268.102C172.391 294.161 186.775 317.599 206.98 335.362C227.185 353.125 252.272 364.388 278.973 367.684C305.673 370.979 332.746 366.153 356.664 353.835C380.581 341.518 400.232 322.279 413.055 298.629C425.878 274.979 431.277 248.014 428.55 221.25C429.614 228.303 430.146 235.427 430.14 242.56Z" fill="url(#paint0_radial_1558_9289)"/>
<path d="M428.539 221.22C423.513 188.305 407.048 158.214 382.036 136.235C357.025 114.256 325.067 101.794 291.779 101.04C292.929 101.04 294.079 101.04 295.239 101.04C328.388 101.036 360.362 113.32 384.982 135.517C409.602 157.713 425.121 188.248 428.539 221.22Z" fill="white" stroke="#2A0771" stroke-width="0.95" stroke-miterlimit="10"/>
<path d="M295.24 368.98C369.246 368.98 429.24 310.643 429.24 238.68C429.24 166.717 369.246 108.38 295.24 108.38C221.234 108.38 161.24 166.717 161.24 238.68C161.24 310.643 221.234 368.98 295.24 368.98Z" stroke="#2A0771" stroke-width="0.93" stroke-miterlimit="10"/>
<path d="M287.399 296.83C279.959 295.29 274.293 291.763 270.399 286.25C266.506 280.737 264.549 273.68 264.529 265.08V256.94H284.529V266.48C284.529 274.313 288.196 278.227 295.529 278.22C302.863 278.213 306.529 274.173 306.529 266.1C306.59 261.299 305.252 256.584 302.679 252.53C300.106 248.49 295.359 243.777 288.439 238.39C279.846 231.59 273.816 225.257 270.349 219.39C266.844 213.315 265.05 206.403 265.159 199.39C265.159 191.05 267.053 184.187 270.839 178.8C274.626 173.413 280.173 169.883 287.479 168.21V156.94H304.799V168.07C312.239 169.61 317.883 173.107 321.729 178.56C325.576 184.013 327.499 191.037 327.499 199.63V202.94H307.499V198.35C307.499 190.403 303.973 186.427 296.919 186.42C289.866 186.413 286.309 190.253 286.249 197.94C286.229 202.49 287.566 206.943 290.089 210.73C292.663 214.65 297.409 219.367 304.329 224.88C312.929 231.8 318.959 238.247 322.419 244.22C325.959 250.46 327.755 257.537 327.619 264.71C327.619 273.43 325.663 280.58 321.749 286.16C317.836 291.74 312.169 295.3 304.749 296.84V309.69H287.429L287.399 296.83Z" fill="#211045"/>
<path d="M278.84 296.83C271.4 295.29 265.733 291.763 261.84 286.25C257.947 280.737 255.973 273.68 255.92 265.08V256.23H275.92V266.43C275.92 274.263 279.587 278.177 286.92 278.17C294.253 278.163 297.92 274.123 297.92 266.05C297.981 261.249 296.643 256.534 294.07 252.48C291.497 248.44 286.75 243.727 279.83 238.34C271.237 231.54 265.207 225.207 261.74 219.34C258.234 213.265 256.441 206.353 256.55 199.34C256.55 191 258.443 184.137 262.23 178.75C266.017 173.363 271.563 169.833 278.87 168.16V156.37H296.19V168.1C303.63 169.64 309.273 173.137 313.12 178.59C316.967 184.043 318.89 191.067 318.89 199.66V203.51H298.89V198.31C298.89 190.363 295.363 186.387 288.31 186.38C281.257 186.373 277.717 190.227 277.69 197.94C277.67 202.49 279.007 206.944 281.53 210.73C284.103 214.65 288.85 219.367 295.77 224.88C304.37 231.8 310.4 238.247 313.86 244.22C317.396 250.462 319.192 257.538 319.06 264.71C319.06 273.43 317.103 280.58 313.19 286.16C309.277 291.74 303.61 295.3 296.19 296.84V310.31H278.87L278.84 296.83Z" fill="url(#paint1_radial_1558_9289)"/>
<path d="M374.53 289.21L363.34 296.78L363.23 296.76L347.02 294.41L343.7 275.49L358.58 278.57L358.92 278.64L370.44 268.95L374.53 289.21Z" fill="#231F20"/>
<path d="M343.7 275.49L354.56 265.97L370.44 268.95L358.92 278.64L343.7 275.49Z" fill="url(#paint2_radial_1558_9289)"/>
<path d="M363.23 296.76L347.02 294.41L343.7 275.49L358.58 278.57L363.23 296.76Z" fill="#492298"/>
<path d="M388.83 296.68L384.95 304.43H372.7L371.63 281.3L371.62 281.02L388.83 296.68Z" fill="#492298"/>
<path d="M388.83 296.68L384.95 304.43H384.88L371.63 281.3L371.62 281.02L388.83 296.68Z" fill="#8859E9"/>
<path d="M383.1 190.112C388.227 175.939 384.188 161.486 374.081 157.83C363.973 154.174 351.623 162.7 346.497 176.873C341.371 191.045 345.409 205.498 355.517 209.154C365.624 212.81 377.974 204.285 383.1 190.112Z" fill="#231F20"/>
<path d="M380.71 189.24C385.836 175.067 381.798 160.614 371.69 156.958C361.582 153.302 349.233 161.827 344.106 176C338.98 190.173 343.018 204.626 353.126 208.282C363.234 211.938 375.583 203.412 380.71 189.24Z" fill="url(#paint3_radial_1558_9289)"/>
<path d="M375.383 187.862C379.15 177.584 376.26 167.074 368.928 164.386C361.596 161.699 352.598 167.852 348.831 178.129C345.064 188.407 347.954 198.917 355.286 201.605C362.618 204.292 371.616 198.14 375.383 187.862Z" fill="white"/>
<path d="M354.76 165.81C353.07 167.417 351.613 169.251 350.43 171.26C349.53 172.81 349.1 173.84 349.01 173.81C349.219 172.842 349.58 171.914 350.08 171.06C352.306 166.798 355.897 163.407 360.28 161.43C361.155 160.98 362.097 160.672 363.07 160.52C363.07 160.61 362.07 160.98 360.45 161.79C358.379 162.865 356.465 164.218 354.76 165.81Z" fill="#231F20"/>
<path d="M364.87 185.55C364.436 184.732 363.794 184.042 363.01 183.55C363.783 183.669 364.573 183.593 365.31 183.33C365.894 183.082 366.357 182.616 366.6 182.03C366.758 181.677 366.832 181.291 366.816 180.904C366.801 180.518 366.696 180.14 366.51 179.8C366.052 179.016 365.35 178.404 364.51 178.06L365.07 176.78L364.46 176.52L363.91 177.8L362.48 177.18L363.03 175.9L362.43 175.64L361.88 176.92L358.64 175.52L358.4 176.07L359.4 176.48C359.597 176.551 359.763 176.689 359.87 176.87C359.911 176.956 359.933 177.05 359.933 177.145C359.933 177.24 359.911 177.334 359.87 177.42L356.11 186.12C356.08 186.181 356.034 186.233 355.978 186.271C355.922 186.31 355.857 186.334 355.79 186.34C355.569 186.365 355.346 186.323 355.15 186.22L354.25 185.83L354.01 186.38L357.26 187.78L356.7 189.06L357.31 189.32L357.86 188.04L359.29 188.66L358.74 189.94L359.34 190.2L359.89 188.91C360.563 189.171 361.278 189.31 362 189.32C362.664 189.354 363.325 189.206 363.91 188.89C364.386 188.595 364.757 188.158 364.97 187.64C365.106 187.305 365.168 186.945 365.151 186.584C365.134 186.223 365.038 185.87 364.87 185.55ZM364.62 178.98C364.895 179.247 365.071 179.6 365.12 179.98C365.162 180.442 365.072 180.907 364.86 181.32C364.752 181.66 364.577 181.975 364.345 182.247C364.113 182.518 363.829 182.74 363.51 182.9C363.145 183.046 362.745 183.08 362.36 183L364.22 178.69C364.363 178.773 364.497 178.87 364.62 178.98ZM362.94 177.98C363.21 178.09 363.44 178.2 363.65 178.31L361.74 182.74L360.31 182.12L362.22 177.7C362.466 177.793 362.706 177.899 362.94 178.02V177.98ZM358.2 187.53L358.01 187.43L360.07 182.67L361.5 183.29L359.44 188.06L358.2 187.53ZM361.69 188.35C361.151 188.508 360.576 188.487 360.05 188.29L362.05 183.57C362.552 183.836 362.947 184.267 363.17 184.79C363.284 185.115 363.332 185.459 363.312 185.802C363.291 186.146 363.202 186.481 363.05 186.79C362.953 187.139 362.781 187.463 362.546 187.74C362.311 188.016 362.019 188.238 361.69 188.39V188.35Z" fill="#2A0771"/>
<path d="M248.36 188.39C248.383 191.301 247.357 194.123 245.47 196.339C243.582 198.556 240.959 200.018 238.081 200.458C235.204 200.898 232.264 200.287 229.8 198.736C227.336 197.185 225.513 194.799 224.666 192.014C223.818 189.229 224.002 186.231 225.183 183.571C226.365 180.91 228.466 178.765 231.101 177.527C233.736 176.289 236.728 176.041 239.531 176.83C242.333 177.618 244.757 179.39 246.36 181.82C247.647 183.771 248.342 186.053 248.36 188.39Z" fill="url(#paint4_radial_1558_9289)"/>
<path d="M230.42 184.2C232.115 184.2 233.49 182.826 233.49 181.13C233.49 179.435 232.115 178.06 230.42 178.06C228.724 178.06 227.35 179.435 227.35 181.13C227.35 182.826 228.724 184.2 230.42 184.2Z" fill="white"/>
<path d="M248.359 188.39C248.358 190.825 247.622 193.203 246.247 195.212C244.873 197.222 242.924 198.771 240.656 199.656C238.387 200.54 235.905 200.72 233.533 200.171C231.16 199.623 229.009 198.371 227.359 196.58C242.409 199.72 245.779 188.84 246.419 181.82C247.691 183.775 248.365 186.058 248.359 188.39Z" fill="black" fill-opacity="0.5"/>
<path d="M272.899 130.25C274.694 130.25 276.149 128.795 276.149 127C276.149 125.205 274.694 123.75 272.899 123.75C271.104 123.75 269.649 125.205 269.649 127C269.649 128.795 271.104 130.25 272.899 130.25Z" fill="#653ABC"/>
<path d="M327.62 164.35C329.415 164.35 330.87 162.895 330.87 161.1C330.87 159.305 329.415 157.85 327.62 157.85C325.825 157.85 324.37 159.305 324.37 161.1C324.37 162.895 325.825 164.35 327.62 164.35Z" fill="#653ABC"/>
<path d="M346.8 142.51C348.595 142.51 350.05 141.055 350.05 139.26C350.05 137.465 348.595 136.01 346.8 136.01C345.005 136.01 343.55 137.465 343.55 139.26C343.55 141.055 345.005 142.51 346.8 142.51Z" fill="#653ABC"/>
<path d="M222.55 256.29C224.345 256.29 225.8 254.835 225.8 253.04C225.8 251.245 224.345 249.79 222.55 249.79C220.755 249.79 219.3 251.245 219.3 253.04C219.3 254.835 220.755 256.29 222.55 256.29Z" fill="#653ABC"/>
<path d="M207.319 295.97C209.114 295.97 210.569 294.515 210.569 292.72C210.569 290.925 209.114 289.47 207.319 289.47C205.524 289.47 204.069 290.925 204.069 292.72C204.069 294.515 205.524 295.97 207.319 295.97Z" fill="#231F20"/>
<path d="M229.79 227.37C232.524 227.37 234.74 225.154 234.74 222.42C234.74 219.686 232.524 217.47 229.79 217.47C227.056 217.47 224.84 219.686 224.84 222.42C224.84 225.154 227.056 227.37 229.79 227.37Z" fill="#653ABC"/>
<path d="M404.65 280.44C407.384 280.44 409.6 278.224 409.6 275.49C409.6 272.756 407.384 270.54 404.65 270.54C401.916 270.54 399.7 272.756 399.7 275.49C399.7 278.224 401.916 280.44 404.65 280.44Z" fill="#653ABC"/>
<path d="M193.28 184.37C196.014 184.37 198.23 182.154 198.23 179.42C198.23 176.686 196.014 174.47 193.28 174.47C190.546 174.47 188.33 176.686 188.33 179.42C188.33 182.154 190.546 184.37 193.28 184.37Z" fill="#653ABC"/>
<path d="M190.179 243.63C192.913 243.63 195.129 241.414 195.129 238.68C195.129 235.946 192.913 233.73 190.179 233.73C187.446 233.73 185.229 235.946 185.229 238.68C185.229 241.414 187.446 243.63 190.179 243.63Z" fill="#653ABC"/>
<path d="M237.3 293.27L228.52 290.25L216.41 294.79L218.66 300.15L237.3 293.27Z" fill="#8859E9"/>
<path d="M210.8 307.49L212.66 312.05L205.77 308.54L189.24 268.68L199.26 265.23L215.11 303.13L234.58 295.81L238.04 301.79L210.8 307.49Z" fill="#231F20"/>
<path d="M204.789 267.04L218.659 300.15L237.299 293.27L240.819 301.2L212.659 312.05L195.859 270.93L204.789 267.04Z" fill="url(#paint5_radial_1558_9289)"/>
<path d="M204.46 266.99L197.6 264.67L189.66 268.65L195.96 270.88L204.46 266.99Z" fill="white" stroke="#231F20" stroke-width="0.32" stroke-miterlimit="10"/>
<circle cx="371" cy="329" r="4" fill="#653ABC"/>
<circle cx="403.5" cy="220.5" r="3.5" fill="#653ABC"/>
</g>
<defs>
<radialGradient id="paint0_radial_1558_9289" cx="0" cy="0" r="1" gradientUnits="userSpaceOnUse" gradientTransform="translate(651.093 258.072) rotate(-179.715) scale(482.391 678.826)">
<stop stop-color="#0894FF"/>
<stop offset="0.290475" stop-color="#6E53FF"/>
<stop offset="0.609151" stop-color="#B038EA"/>
<stop offset="0.850793" stop-color="#F95088"/>
<stop offset="1" stop-color="#FF6F62"/>
</radialGradient>
<radialGradient id="paint1_radial_1558_9289" cx="0" cy="0" r="1" gradientUnits="userSpaceOnUse" gradientTransform="translate(368.344 241.768) rotate(-179.306) scale(107.591 369.047)">
<stop stop-color="#0894FF"/>
<stop offset="0.290475" stop-color="#6E53FF"/>
<stop offset="0.609151" stop-color="#B038EA"/>
<stop offset="0.850793" stop-color="#F95088"/>
<stop offset="1" stop-color="#FF6F62"/>
</radialGradient>
<radialGradient id="paint2_radial_1558_9289" cx="0" cy="0" r="1" gradientUnits="userSpaceOnUse" gradientTransform="translate(391.307 272.999) rotate(-179.865) scale(45.557 30.3765)">
<stop stop-color="#0894FF"/>
<stop offset="0.290475" stop-color="#6E53FF"/>
<stop offset="0.609151" stop-color="#B038EA"/>
<stop offset="0.850793" stop-color="#F95088"/>
<stop offset="1" stop-color="#FF6F62"/>
</radialGradient>
<radialGradient id="paint3_radial_1558_9289" cx="0" cy="0" r="1" gradientUnits="userSpaceOnUse" gradientTransform="translate(388.181 117.631) rotate(110.088) scale(92.9852 93.3215)">
<stop stop-color="#0894FF"/>
<stop offset="0.290475" stop-color="#6E53FF"/>
<stop offset="0.609151" stop-color="#B038EA"/>
<stop offset="0.850793" stop-color="#F95088"/>
<stop offset="1" stop-color="#FF6F62"/>
</radialGradient>
<radialGradient id="paint4_radial_1558_9289" cx="0" cy="0" r="1" gradientUnits="userSpaceOnUse" gradientTransform="translate(267.261 189.813) rotate(-179.715) scale(41.264 58.0674)">
<stop stop-color="#0894FF"/>
<stop offset="0.290475" stop-color="#6E53FF"/>
<stop offset="0.609151" stop-color="#B038EA"/>
<stop offset="0.850793" stop-color="#F95088"/>
<stop offset="1" stop-color="#FF6F62"/>
</radialGradient>
<radialGradient id="paint5_radial_1558_9289" cx="0" cy="0" r="1" gradientUnits="userSpaceOnUse" gradientTransform="translate(275.905 292.009) rotate(-179.715) scale(76.5992 107.911)">
<stop stop-color="#0894FF"/>
<stop offset="0.290475" stop-color="#6E53FF"/>
<stop offset="0.609151" stop-color="#B038EA"/>
<stop offset="0.850793" stop-color="#F95088"/>
<stop offset="1" stop-color="#FF6F62"/>
</radialGradient>
<clipPath id="clip0_1558_9289">
<rect width="574" height="549" fill="white"/>
</clipPath>
</defs>
</svg>
