<svg width="580" height="580" viewBox="0 0 580 580" fill="none" xmlns="http://www.w3.org/2000/svg">
<path d="M280.201 314.597C279.434 315.804 277.914 316.016 276.155 316.295C263.512 318.297 261.713 320.193 258.142 318.217C256.464 317.452 255.136 316.078 254.426 314.372C253.196 310.659 257.256 308.259 256.793 304.334C256.33 300.409 251.093 295.357 245.089 296.206C242.641 296.626 240.411 297.875 238.772 299.746C237.133 301.616 236.184 303.994 236.083 306.482C236.083 310.765 240.05 312.423 239.23 315.048C238.252 318.032 232.327 318.549 227.196 319.026C217.687 319.862 212.926 320.286 210.757 317.448C206.909 312.423 216.047 303.552 211.432 294.323C210.757 292.997 209.474 290.345 206.935 289.576C201.896 287.998 198.022 295.304 192.97 293.978C189.425 293.05 186.979 288.289 187.005 284.046C187.005 280.148 189.148 275.56 192.639 274.459C197.545 272.908 201.301 279.485 205.864 277.841C209.686 276.515 210.836 270.654 211.048 269.606C212.847 260.443 205.269 255.312 207.887 250.644C209.461 247.833 213.495 247.395 220.954 246.587C226.958 245.924 231.057 245.473 232.658 247.714C235.144 251.188 228.492 256.837 230.965 262.379C232.605 266.052 237.432 267.829 241.32 267.683C246.703 267.484 251.318 263.559 252.35 259.329C253.672 253.641 247.933 250.14 249.705 246.918C250.948 244.757 253.884 245.778 268.616 244.77C272.809 244.491 273.906 244.319 274.925 245.221C277.781 247.873 273.417 253.681 274.806 263.506C275.176 266.158 276.128 272.51 280.096 274.114C282.278 274.99 284.751 274.207 287.184 273.438C291.866 271.966 292.474 269.991 295.119 270.057C298.24 270.057 301.308 273.027 302.327 276.143C304.178 281.885 299.179 288.515 294.894 289.019C291.35 289.43 289.816 285.465 284.658 285.624C282.528 285.59 280.454 286.308 278.8 287.653C274.634 291.525 275.983 300.913 278.244 306.734C279.62 310.116 281.418 312.715 280.201 314.597Z" fill="url(#paint0_radial_1510_8451)"/>
<mask id="mask0_1510_8451" style="mask-type:alpha" maskUnits="userSpaceOnUse" x="187" y="244" width="116" height="76">
<path d="M280.201 314.597C279.434 315.804 277.914 316.016 276.155 316.295C263.512 318.297 261.713 320.193 258.142 318.217C256.464 317.452 255.136 316.078 254.426 314.372C253.196 310.659 257.256 308.259 256.793 304.334C256.33 300.409 251.093 295.357 245.089 296.206C242.641 296.626 240.411 297.875 238.772 299.746C237.133 301.616 236.184 303.994 236.083 306.482C236.083 310.765 240.05 312.423 239.23 315.048C238.252 318.032 232.327 318.549 227.196 319.026C217.687 319.862 212.926 320.286 210.757 317.448C206.909 312.423 216.047 303.552 211.432 294.323C210.757 292.997 209.474 290.345 206.935 289.576C201.896 287.998 198.022 295.304 192.97 293.978C189.425 293.05 186.979 288.289 187.005 284.046C187.005 280.148 189.148 275.56 192.639 274.459C197.545 272.908 201.301 279.485 205.864 277.841C209.686 276.515 210.836 270.654 211.048 269.606C212.847 260.443 205.269 255.312 207.887 250.644C209.461 247.833 213.495 247.395 220.954 246.587C226.958 245.924 231.057 245.473 232.658 247.714C235.144 251.188 228.492 256.837 230.965 262.379C232.605 266.052 237.432 267.829 241.32 267.683C246.703 267.484 251.318 263.559 252.35 259.329C253.672 253.641 247.933 250.14 249.705 246.918C250.948 244.757 253.884 245.778 268.616 244.77C272.809 244.491 273.906 244.319 274.925 245.221C277.781 247.873 273.417 253.681 274.806 263.506C275.176 266.158 276.128 272.51 280.096 274.114C282.278 274.99 284.751 274.207 287.184 273.438C291.866 271.966 292.474 269.991 295.119 270.057C298.24 270.057 301.308 273.027 302.327 276.143C304.178 281.885 299.179 288.515 294.894 289.019C291.35 289.43 289.816 285.465 284.658 285.624C282.528 285.59 280.454 286.308 278.8 287.653C274.634 291.525 275.983 300.913 278.244 306.734C279.62 310.116 281.418 312.715 280.201 314.597Z" fill="url(#paint1_radial_1510_8451)"/>
</mask>
<g mask="url(#mask0_1510_8451)">
<g filter="url(#filter0_f_1510_8451)">
<rect x="217.772" y="231.117" width="129.737" height="39.6526" transform="rotate(45 217.772 231.117)" fill="white" fill-opacity="0.16"/>
</g>
</g>
<path d="M325.36 305.488C324.368 304.586 324.554 303.366 324.435 300.661C324.091 293.342 322.16 290.941 323.112 284.59C323.39 282.614 323.654 282.256 323.866 282.057C326.326 279.684 332.211 285.664 338.294 284.245C342.963 283.158 347.777 277.734 346.996 272.139C346.552 269.828 345.391 267.716 343.678 266.106C341.966 264.497 339.79 263.471 337.461 263.175C331.166 262.565 327.78 269.367 324.368 267.829C321.829 266.676 321.723 261.955 321.499 254.702C321.3 247.09 321.194 243.285 323.443 241.667C327.106 239.015 331.893 245.035 340.238 243.192C341.032 243.02 347.79 241.534 349.192 237.106C350.593 232.677 344.827 229.309 346.229 224.495C347.234 221.087 351.413 218.29 355.645 218.568C357.429 218.663 359.147 219.273 360.592 220.324C362.038 221.376 363.149 222.825 363.792 224.495C365.419 229.614 359.745 233.486 361.517 237.358C362.972 240.54 368.236 241.017 370.775 241.243C382.823 242.343 388.84 234.374 393.257 237.358C395.215 238.684 395.519 242.555 396.127 250.313C396.735 258.07 397.04 261.942 394.937 263.427C391.34 265.959 385.679 258.627 379.49 260.881C376.994 262.005 374.961 263.957 373.732 266.409C372.504 268.86 372.155 271.661 372.745 274.34C373.236 276.133 374.188 277.766 375.507 279.074C376.825 280.382 378.463 281.319 380.257 281.792C386.354 283.118 390.149 276.488 393.839 278.318C395.915 279.339 396.405 282.972 397.397 290.252C398.283 296.882 398.719 300.197 397.397 301.51C394.461 304.387 388.748 299.189 377.559 300.661C374.451 301.072 370.325 301.669 368.937 304.56C367.548 307.45 369.651 312.317 369.876 312.768C370.907 314.902 371.634 314.889 371.899 316.242C372.547 319.504 369.254 324.317 364.638 325.378C359.825 326.505 354.574 323.23 353.41 319.451C352.022 314.956 356.928 311.269 354.931 307.185C353.964 305.56 352.426 304.354 350.62 303.804C349.231 303.22 345.885 302.146 332.105 305.408C329.05 306.124 326.683 306.761 325.36 305.488Z" fill="url(#paint2_radial_1510_8451)"/>
<path d="M325.36 305.488C324.368 304.586 324.554 303.366 324.435 300.661C324.091 293.342 322.16 290.941 323.112 284.59C323.39 282.614 323.654 282.256 323.866 282.057C326.326 279.684 332.211 285.664 338.294 284.245C342.963 283.158 347.777 277.734 346.996 272.139C346.552 269.828 345.391 267.716 343.678 266.106C341.966 264.497 339.79 263.471 337.461 263.175C331.166 262.565 327.78 269.367 324.368 267.829C321.829 266.676 321.723 261.955 321.499 254.702C321.3 247.09 321.194 243.285 323.443 241.667C327.106 239.015 331.893 245.035 340.238 243.192C341.032 243.02 347.79 241.534 349.192 237.106C350.593 232.677 344.827 229.309 346.229 224.495C347.234 221.087 351.413 218.29 355.645 218.568C357.429 218.663 359.147 219.273 360.592 220.324C362.038 221.376 363.149 222.825 363.792 224.495C365.419 229.614 359.745 233.486 361.517 237.358C362.972 240.54 368.236 241.017 370.775 241.243C382.823 242.343 388.84 234.374 393.257 237.358C395.215 238.684 395.519 242.555 396.127 250.313C396.735 258.07 397.04 261.942 394.937 263.427C391.34 265.959 385.679 258.627 379.49 260.881C376.994 262.005 374.961 263.957 373.732 266.409C372.504 268.86 372.155 271.661 372.745 274.34C373.236 276.133 374.188 277.766 375.507 279.074C376.825 280.382 378.463 281.319 380.257 281.792C386.354 283.118 390.149 276.488 393.839 278.318C395.915 279.339 396.405 282.972 397.397 290.252C398.283 296.882 398.719 300.197 397.397 301.51C394.461 304.387 388.748 299.189 377.559 300.661C374.451 301.072 370.325 301.669 368.937 304.56C367.548 307.45 369.651 312.317 369.876 312.768C370.907 314.902 371.634 314.889 371.899 316.242C372.547 319.504 369.254 324.317 364.638 325.378C359.825 326.505 354.574 323.23 353.41 319.451C352.022 314.956 356.928 311.269 354.931 307.185C353.964 305.56 352.426 304.354 350.62 303.804C349.231 303.22 345.885 302.146 332.105 305.408C329.05 306.124 326.683 306.761 325.36 305.488Z" fill="url(#paint3_linear_1510_8451)" fill-opacity="0.25" style="mix-blend-mode:lighten"/>
<mask id="mask1_1510_8451" style="mask-type:alpha" maskUnits="userSpaceOnUse" x="321" y="218" width="78" height="108">
<path d="M325.359 305.488C324.367 304.587 324.553 303.367 324.434 300.662C324.09 293.342 322.159 290.942 323.111 284.59C323.389 282.615 323.653 282.257 323.865 282.058C326.325 279.684 332.21 285.664 338.293 284.246C342.962 283.158 347.776 277.735 346.995 272.139C346.551 269.828 345.39 267.717 343.677 266.107C341.965 264.497 339.789 263.471 337.46 263.175C331.165 262.565 327.779 269.368 324.367 267.83C321.828 266.676 321.722 261.955 321.498 254.702C321.299 247.091 321.193 243.285 323.442 241.668C327.105 239.016 331.892 245.036 340.237 243.192C341.031 243.02 347.789 241.535 349.191 237.106C350.593 232.677 344.826 229.309 346.228 224.496C347.233 221.088 351.412 218.29 355.644 218.568C357.428 218.663 359.146 219.273 360.591 220.325C362.037 221.377 363.148 222.825 363.791 224.496C365.418 229.614 359.744 233.486 361.516 237.358C362.971 240.54 368.235 241.018 370.774 241.243C382.822 242.344 388.839 234.374 393.256 237.358C395.214 238.684 395.518 242.556 396.126 250.313C396.734 258.07 397.039 261.942 394.936 263.427C391.339 265.96 385.678 258.627 379.489 260.881C376.993 262.006 374.96 263.958 373.731 266.409C372.503 268.861 372.154 271.661 372.744 274.34C373.235 276.134 374.187 277.766 375.506 279.074C376.824 280.382 378.462 281.32 380.256 281.793C386.353 283.119 390.148 276.488 393.838 278.318C395.914 279.339 396.404 282.973 397.396 290.252C398.282 296.882 398.718 300.198 397.396 301.51C394.46 304.388 388.747 299.19 377.558 300.662C374.45 301.073 370.324 301.669 368.936 304.56C367.547 307.451 369.65 312.317 369.875 312.768C370.906 314.903 371.633 314.89 371.898 316.242C372.546 319.504 369.253 324.318 364.637 325.378C359.824 326.506 354.573 323.23 353.409 319.451C352.021 314.956 356.927 311.27 354.93 307.186C353.963 305.56 352.425 304.355 350.619 303.804C349.23 303.221 345.884 302.147 332.104 305.409C329.049 306.125 326.682 306.761 325.359 305.488Z" fill="url(#paint4_radial_1510_8451)"/>
<path d="M325.359 305.488C324.367 304.587 324.553 303.367 324.434 300.662C324.09 293.342 322.159 290.942 323.111 284.59C323.389 282.615 323.653 282.257 323.865 282.058C326.325 279.684 332.21 285.664 338.293 284.246C342.962 283.158 347.776 277.735 346.995 272.139C346.551 269.828 345.39 267.717 343.677 266.107C341.965 264.497 339.789 263.471 337.46 263.175C331.165 262.565 327.779 269.368 324.367 267.83C321.828 266.676 321.722 261.955 321.498 254.702C321.299 247.091 321.193 243.285 323.442 241.668C327.105 239.016 331.892 245.036 340.237 243.192C341.031 243.02 347.789 241.535 349.191 237.106C350.593 232.677 344.826 229.309 346.228 224.496C347.233 221.088 351.412 218.29 355.644 218.568C357.428 218.663 359.146 219.273 360.591 220.325C362.037 221.377 363.148 222.825 363.791 224.496C365.418 229.614 359.744 233.486 361.516 237.358C362.971 240.54 368.235 241.018 370.774 241.243C382.822 242.344 388.839 234.374 393.256 237.358C395.214 238.684 395.518 242.556 396.126 250.313C396.734 258.07 397.039 261.942 394.936 263.427C391.339 265.96 385.678 258.627 379.489 260.881C376.993 262.006 374.96 263.958 373.731 266.409C372.503 268.861 372.154 271.661 372.744 274.34C373.235 276.134 374.187 277.766 375.506 279.074C376.824 280.382 378.462 281.32 380.256 281.793C386.353 283.119 390.148 276.488 393.838 278.318C395.914 279.339 396.404 282.973 397.396 290.252C398.282 296.882 398.718 300.198 397.396 301.51C394.46 304.388 388.747 299.19 377.558 300.662C374.45 301.073 370.324 301.669 368.936 304.56C367.547 307.451 369.65 312.317 369.875 312.768C370.906 314.903 371.633 314.89 371.898 316.242C372.546 319.504 369.253 324.318 364.637 325.378C359.824 326.506 354.573 323.23 353.409 319.451C352.021 314.956 356.927 311.27 354.93 307.186C353.963 305.56 352.425 304.355 350.619 303.804C349.23 303.221 345.884 302.147 332.104 305.409C329.049 306.125 326.682 306.761 325.359 305.488Z" fill="url(#paint5_linear_1510_8451)" fill-opacity="0.25"/>
</mask>
<g mask="url(#mask1_1510_8451)">
<g filter="url(#filter1_f_1510_8451)">
<rect x="335.983" y="213.113" width="129.737" height="35.9639" transform="rotate(45 335.983 213.113)" fill="white" fill-opacity="0.16"/>
</g>
</g>
<path d="M65.0804 161.352C64.0743 161.516 63.1698 162.062 62.5545 162.876C62.0394 163.602 61.7538 164.466 61.7345 165.356C61.3724 167.438 60.9045 169.501 60.3327 171.535C59.7835 174.601 58.9421 177.608 57.8199 180.512C56.8677 182.886 56.6032 182.82 55.7436 185.193C54.9952 187.235 54.446 189.344 54.1037 191.492C53.8332 193.767 53.7889 196.063 53.9715 198.347C54.2458 203.891 53.9622 209.449 53.1251 214.936C52.6966 216.854 52.4312 218.806 52.3316 220.77C52.2984 223.187 52.5245 225.601 53.006 227.97C53.7202 231.948 54.3285 232.121 54.5534 235.078C54.7102 237.077 54.7102 239.085 54.5534 241.084C54.355 245.805 54.2492 248.179 54.183 249.319C54.0243 252.263 53.7731 256.599 53.4821 262.274C53.1118 263.812 52.5035 266.119 51.6306 268.904C50.1129 273.484 48.3469 277.977 46.3406 282.363C43.5502 288.993 44.423 288.304 39.662 301.179C37.5196 307 36.4484 309.904 34.9407 313.365C33.2083 317.343 32.9834 317.423 27.7992 328.429C25.4981 333.308 24.4004 335.708 23.1176 338.931C21.7951 342.378 20.9619 344.778 20.2478 346.887C19.7717 348.292 14.1907 364.629 8.86109 375.051C7.61794 377.478 5.54162 381.243 4.16622 383.431C2.55278 386.083 2.06345 386.773 2.06345 386.773C1.62647 387.369 1.22887 387.994 0.873205 388.643C0.250272 390.095 0.0485873 391.695 0.291308 393.257C0.575303 396.158 1.57521 398.942 3.2008 401.359C4.49009 403.16 5.99587 404.794 7.68407 406.225C9.20065 407.634 10.7898 408.962 12.4451 410.203C16.2671 412.988 36.25 419.87 64.3531 426.036C66.6357 425.942 68.8953 425.54 71.0713 424.843C73.2954 424.129 75.4163 423.126 77.3796 421.859C80.0246 420.149 80.3553 419.3 83.9921 416.661C85.4469 415.627 86.5578 414.937 87.7612 414.182C94.8366 409.779 98.2619 408.877 104.081 405.204C106.726 403.573 106.223 403.64 110.865 400.418C118.341 395.261 126.098 390.529 134.102 386.243C139.061 383.591 140.37 383.047 146.784 379.493C149.271 378.167 152.154 376.523 155.949 374.295C162.998 370.132 163.606 369.442 166.754 367.891C170.479 366.185 174.347 364.814 178.313 363.793C186.367 361.38 197.502 358.609 200.121 354.591C200.534 353.939 200.905 353.261 201.231 352.562C201.893 350.847 202.38 349.07 202.686 347.258C203.349 345.436 204.36 343.76 205.662 342.325C207.827 339.551 210.259 336.998 212.922 334.701C215.144 332.725 216.533 331.744 217.472 329.542C217.901 328.484 218.19 327.374 218.331 326.241C218.698 324.482 218.626 322.66 218.12 320.937C217.663 319.555 216.861 318.314 215.792 317.33C213.002 314.864 209.18 315.288 206.336 315.606C203.876 315.886 201.487 316.614 199.287 317.754C196.89 319.038 194.733 320.729 192.913 322.753C188.38 327.19 183.13 330.826 177.387 333.507C173.419 335.297 166.979 338.188 159.824 336.159C155.415 334.84 151.489 332.253 148.53 328.72C147.207 327.01 145.435 324.159 141.309 319.054C140.833 318.457 140.423 317.98 140.159 317.648C140.585 315.804 140.894 313.935 141.084 312.052C141.255 310.494 141.339 308.926 141.336 307.358C141.336 305.449 141.217 305.17 141.336 303.659C141.401 302.255 141.574 300.859 141.851 299.482C142.191 297.598 142.633 295.735 143.174 293.899C145.263 286.858 144.734 287.879 146.533 282.098C148.504 275.76 148.675 276.051 149.707 272.166C150.102 270.336 150.628 268.537 151.281 266.782C152.395 264.298 153.802 261.956 155.473 259.808C157.51 256.97 158.118 256.227 160.512 253.098C165.67 246.216 167.005 243.816 167.984 241.164C168.423 240.017 168.79 238.843 169.082 237.65C170.167 238.337 171.304 238.94 172.48 239.453C175.15 240.642 177.988 241.407 180.891 241.721C183.78 244.548 187.13 246.858 190.797 248.55C193.635 249.834 196.633 250.727 199.711 251.202C203.222 251.73 206.796 251.676 210.291 251.043C212.258 250.879 214.142 250.177 215.739 249.014C216.971 248.119 217.866 246.834 218.278 245.366C218.691 243.898 218.598 242.333 218.014 240.925C217.298 239.416 216.134 238.165 214.681 237.345C213.795 236.775 213.504 236.788 211.692 235.767C211.692 235.767 210.449 235.064 209.047 234.123C206.47 232.318 204.03 230.323 201.747 228.156C199.38 225.875 195.518 223.674 187.782 219.258C184.066 216.997 180.21 214.978 176.236 213.212C171.105 211.13 168.923 210.984 165.246 208.677C164.281 208.08 162.906 207.351 160.155 206.025C158.893 205.289 157.501 204.807 156.055 204.606C155.081 204.503 154.097 204.57 153.145 204.805C152.289 205.039 151.474 205.401 150.725 205.879C147.644 207.868 143.994 213.53 140.754 217.959L137.236 222.6L131.43 230.304C132.389 227.494 133.124 224.612 133.625 221.685C134.186 218.329 134.46 214.931 134.445 211.528C134.454 208.386 134.229 205.248 133.771 202.14C135.834 201.675 138.757 200.973 142.235 200.031C144.06 199.527 146.335 198.891 147.644 198.48C152.535 196.874 157.192 194.622 161.49 191.783C164.088 191.717 166.675 191.438 169.227 190.948C172.781 190.236 176.251 189.156 179.582 187.726C181.437 187.072 183.212 186.209 184.872 185.153C186.406 184.066 190.294 181.321 190.942 176.587C191.348 174.407 190.908 172.154 189.713 170.289C187.068 166.51 181.778 166.908 181.434 166.934C180.119 167.178 178.823 167.519 177.559 167.955C174.186 168.936 173.962 169.281 172.348 169.613C169.703 170.236 169.015 169.798 165.299 170.077C163.13 170.275 160.975 170.603 158.845 171.058C149.824 173.019 140.911 175.454 132.144 178.351C135.265 175.566 137.924 173.511 139.762 172.159C141.203 171.084 142.063 170.514 144.536 168.724C147.009 166.934 149.297 165.223 150.646 164.202C152.109 162.93 153.39 161.462 154.455 159.84C155.516 158.191 156.353 156.407 156.941 154.536C157.37 153.419 157.655 152.251 157.787 151.062C157.946 149.364 158.184 146.845 156.69 145.519C155.552 144.511 153.939 144.644 152.048 144.803C150.516 144.991 149.013 145.374 147.578 145.943C145.753 146.474 143.982 147.175 142.288 148.038C140.76 148.865 139.324 149.852 138.003 150.982C131.959 155.862 128.944 158.302 126.219 159.813C124.5 160.755 122.688 161.59 120.255 162.691C116.909 164.202 116.142 164.401 114.489 165.343C112.158 166.66 109.984 168.24 108.009 170.05C101.542 175.46 98.3148 178.165 96.3575 180.181C95.5375 181.029 92.2974 184.437 89.5334 186.957C88.738 187.733 87.8991 188.464 87.0207 189.145C85.9412 189.837 84.9275 190.627 83.9921 191.505C83.481 192.065 83.0371 192.684 82.6696 193.348C82.2915 194.311 81.9951 195.305 81.7836 196.318C81.4644 197.946 81.3533 199.608 81.4529 201.264C81.4529 203.32 81.2149 203.625 80.1304 210.082C79.6411 212.907 79.2444 215.744 78.8079 218.582C78.1335 222.812 77.2209 229.721 76.163 241.35C75.149 238.555 74.3661 235.681 73.8221 232.757C73.3775 230.28 73.0816 227.778 72.9361 225.265C72.7112 222.069 72.7245 220.094 72.698 216.845C72.698 210.215 72.46 201.225 72.698 195.629C72.749 194.068 72.9393 192.515 73.2667 190.988C73.5576 189.755 73.8089 189.158 74.1395 187.567C74.1395 187.288 74.4437 186.042 74.6421 184.238C75.11 181.167 75.2032 178.05 74.9198 174.956C74.7762 171.653 73.6933 168.46 71.7987 165.754C70.7098 164.398 69.3607 163.275 67.8312 162.452C67.0603 161.791 66.0933 161.404 65.0804 161.352V161.352Z" fill="#D1C2FF"/>
<path d="M553.201 198.705C555.436 206.051 555.357 209.512 557.605 219.179C558.161 221.605 558.438 222.825 558.637 223.515C559.827 227.917 560.554 228.819 560.594 231.245C560.576 232.885 560.308 234.513 559.8 236.072C559.02 239.003 558.478 239.44 557.274 242.768C556.441 245.208 556.64 245.42 555.595 249.014C554.616 252.355 553.757 254.716 553.4 255.75C551.556 261.221 550.05 266.801 548.89 272.458C549.472 275.64 550.001 278.319 550.411 280.294C551.826 287.256 552.302 288.609 552.712 292.229C553.162 296.101 552.804 296.008 553.281 299.959C553.611 302.704 553.876 303.539 555.251 310.183C556.316 314.724 557.141 319.318 557.724 323.947C558.081 327.368 557.817 327.129 558.121 331.173C558.491 336.08 558.98 337.949 561.414 352.071C562.459 358.131 562.419 358.078 562.736 359.63C563.715 364.494 565.018 369.287 566.638 373.977C566.902 374.773 567.563 376.629 568.516 378.949C569.818 382.299 571.329 385.563 573.039 388.722C575.393 392.979 576.927 394.716 578.606 398.826C579.196 400.212 579.549 401.686 579.651 403.189C579.695 404.786 579.504 406.382 579.082 407.923C578.723 409.489 578.214 411.016 577.562 412.484C575.915 415.894 573.706 419 571.028 421.673C570.645 422.098 569.19 423.702 567.14 425.651C566.73 426.036 565.553 427.07 563.173 429.126C562.617 429.673 562.011 430.166 561.361 430.597C559.907 431.374 558.271 431.74 556.626 431.658C554.18 431.778 554.458 432.255 549.63 433.276C546.241 433.946 542.814 434.411 539.368 434.668C536.176 435.088 532.958 435.27 529.74 435.212C525.177 434.87 520.705 433.753 516.515 431.91C514.579 431.138 512.715 430.193 510.947 429.086C509.329 428.022 507.799 426.829 506.372 425.519C506.372 425.519 504.361 423.795 497.974 418.743C494.377 415.892 491.599 414.049 488.068 411.715C483.995 409.063 482.871 408.493 472.965 402.539C468.006 399.569 465.163 397.858 461.526 395.604C452.136 389.77 452.89 389.836 446.978 386.256C437.059 380.249 434.6 379.851 428.741 375.038C426.238 373.072 423.947 370.85 421.904 368.408C419.021 364.907 419.179 363.899 415.45 359.126C414.26 357.627 414.736 358.357 409.79 352.496C408.411 350.719 406.931 349.024 405.359 347.417C403.243 345.415 402.185 344.911 399.62 342.338C398.661 341.434 397.777 340.454 396.975 339.408C395.164 337.247 393.942 334.652 393.43 331.876C393.269 330.712 393.185 329.538 393.179 328.362C393.179 326.44 393.351 325.989 393.43 324.384C393.512 321.82 393.227 319.257 392.584 316.773C392.3 315.595 391.947 314.435 391.526 313.299C389.503 307.544 387.77 306.258 386.712 301.71C386.17 299.323 385.852 297.864 386.712 296.578C388.035 294.496 391.394 294.456 393.682 294.43C396.065 294.421 398.423 294.923 400.598 295.902C401.957 296.515 403.233 297.299 404.394 298.235C405.926 299.332 407.36 300.561 408.679 301.908C410.394 303.626 411.935 305.509 413.281 307.531C414.886 309.845 416.335 312.264 417.619 314.771C419.028 317.412 420.3 320.125 421.428 322.899C422.118 323.196 422.781 323.55 423.411 323.96C424.485 324.676 425.463 325.527 426.321 326.493C428.111 328.386 430.092 330.088 432.232 331.571C433.886 332.712 433.555 332.168 435.856 333.653C441.556 337.247 443.619 338.811 443.619 338.811C444.148 339.325 444.832 339.647 445.563 339.726C446.886 339.726 447.335 338.612 449.425 336.782C450.853 335.536 450.747 335.881 453.921 333.494C454.986 332.848 455.963 332.068 456.831 331.173C457.337 330.561 457.78 329.899 458.153 329.198C458.837 327.954 459.425 326.659 459.912 325.326C460.997 322.329 461.88 319.264 462.557 316.15C463.496 310.639 464.053 305.07 464.224 299.482C464.369 296.83 464.501 293.117 464.475 288.701C462.04 285.197 459.912 281.488 458.114 277.616C455.323 271.543 454.636 267.79 451.845 263.467C450.376 261.531 449.096 259.457 448.023 257.275C447.711 256.418 447.265 255.617 446.701 254.901C445.378 253.257 444.386 253.575 443.236 252.17C442.085 250.764 442.601 249.876 441.358 248.921C440.789 248.497 440.67 248.656 439.493 247.94C438.74 247.469 438.028 246.937 437.364 246.349C436.728 245.799 436.123 245.215 435.552 244.598C433.481 242.174 431.24 239.901 428.847 237.796C427.766 236.939 426.606 236.189 425.382 235.555C423.051 236.604 420.618 237.408 418.121 237.955C415.431 238.529 412.685 238.796 409.935 238.751C408.015 240.326 405.847 241.571 403.521 242.437C402.058 243.051 400.502 243.41 398.919 243.498C398.231 243.498 397.728 243.498 396.591 243.498C395.536 243.555 394.485 243.675 393.444 243.856C390.973 244.137 388.474 244.061 386.024 243.63C380.033 242.596 375.101 238.83 375.167 236.881C375.195 236.337 375.359 235.808 375.643 235.343C375.991 234.887 376.445 234.523 376.965 234.282C377.611 233.872 378.288 233.513 378.989 233.208C383.568 231.165 387.789 228.393 391.486 225C393.668 222.931 393.774 222.215 395.917 220.637C397.569 219.501 399.344 218.554 401.207 217.813C404.209 216.487 404.685 216.765 408.718 215.4C409.922 214.989 409.485 215.095 417.169 212.098C420.78 210.679 421.586 210.387 422.777 209.976C424.284 209.472 425.832 209.022 428.939 208.146C432.775 207.059 433.859 206.82 435.367 206.82C436.461 206.759 437.558 206.867 438.62 207.139C439.943 207.51 441.001 208.146 444.214 211.117C445.933 212.681 447.23 213.875 449.279 216.049C450.985 217.879 451.567 218.701 453.247 220.518C454.226 221.632 457.347 225.146 461.036 228.753C462.518 230.198 464.343 231.816 467.94 234.985C471.193 237.875 473.917 240.289 475.875 241.92C476.752 240.905 477.762 240.013 478.877 239.268C479.912 238.578 481.032 238.025 482.21 237.624C482.506 236.046 482.608 234.439 482.514 232.837C482.285 230.383 481.701 227.975 480.781 225.689C479.459 221.857 478.996 222.043 477.7 218.542C476.615 215.612 476.933 215.572 475.372 210.586C475.081 209.671 474.235 207.019 472.926 203.678C471.206 199.315 470.479 198.294 470.016 197.711C468.884 195.973 467.181 194.688 465.202 194.077C464.528 193.932 463.999 193.958 462.795 193.653C461.746 193.389 460.73 193.007 459.767 192.513C458.203 191.745 456.7 190.858 455.27 189.861C452.877 188.216 452.07 187.209 449.98 185.631C448.144 184.371 446.202 183.275 444.175 182.356C438.99 179.704 436.398 178.378 434.56 177.396C428.463 174.041 423.716 171.442 420.713 166.165C419.467 164.119 418.77 161.785 418.69 159.389C418.69 156.962 419.285 152.401 421.957 151.433C423.544 150.863 425.501 151.711 427.352 152.507C428.529 153.011 428.675 153.263 430.116 153.979C431.701 154.758 433.357 155.38 435.063 155.835C437.522 156.578 437.258 156.79 444.518 159.813C449.875 162.028 450.417 162.081 454.821 163.99C458.365 165.528 458.206 165.582 460.335 166.47C465.89 168.79 466.736 168.313 472.436 170.368C480.371 173.233 480.49 174.784 485.304 175.553C487.154 175.795 488.959 176.309 490.66 177.078C492.312 177.861 493.837 178.889 495.183 180.128C496.453 181.3 497.561 182.638 498.476 184.106C500.182 186.851 500.791 189.238 501.888 193.719C502.378 195.708 502.179 195.244 503.33 200.349C504.018 203.426 504.335 204.699 504.758 206.131C505.366 208.16 505.737 208.982 506.477 211.064C508.263 216.063 509.598 220.982 510.762 225.199C510.961 225.955 511.265 227.108 511.794 228.66C512.561 230.993 513.328 232.81 513.817 233.964C514.082 233.354 514.439 232.465 514.836 231.312C516.017 227.899 516.902 224.389 517.481 220.823C519.292 211.382 519.319 211.143 519.649 209.83C520.362 206.986 521.245 204.187 522.294 201.45C520.77 200.024 519.437 198.406 518.327 196.637C517.719 195.655 517.282 194.767 516.198 193.176C515.576 192.274 515.1 191.638 514.148 190.418C512.296 188.044 511.014 186.44 510.392 185.644C509.4 184.398 507.985 182.554 506.305 180.221C502.571 178.931 499.132 176.907 496.188 174.267C494.31 172.503 492.327 170.488 492.327 170.488C490.383 168.485 489.867 167.836 488.359 166.51C486.852 165.184 486.481 165.064 485.608 164.136C484.405 162.852 483.458 161.349 482.818 159.707C481.8 156.962 481.191 151.751 484.048 149.484C485.648 148.158 487.738 148.264 489.629 148.33C491.826 148.597 493.976 149.168 496.016 150.027C498.078 150.648 500.083 151.447 502.007 152.414C503.74 153.404 505.386 154.54 506.927 155.809C511.119 158.938 510.246 158.103 514.28 161.113C516.753 162.969 519.768 165.29 523.18 168.074C523.387 167.223 523.76 166.42 524.278 165.714C525.071 164.677 526.119 163.864 527.32 163.354C528.201 162.895 529.162 162.611 530.15 162.518C531.404 162.358 532.678 162.584 533.8 163.168C535.025 164.025 535.925 165.273 536.353 166.709C537.437 169.268 538.892 171.668 540.056 174.201C542.152 178.229 544.497 182.121 547.078 185.856C548.472 187.855 549.723 189.951 550.821 192.128C551.794 194.251 552.59 196.451 553.201 198.705V198.705Z" fill="#D1C2FF"/>
<path d="M60.0933 174.16C60.8074 171.349 61.2703 168.525 61.839 165.806C61.9741 165.139 62.1598 164.483 62.3944 163.844C62.5879 163.238 62.956 162.702 63.4524 162.306C63.9965 161.995 64.6118 161.832 65.2378 161.832C65.8638 161.832 66.4791 161.995 67.0232 162.306C69.3776 163.419 71.368 165.181 72.7628 167.384C73.9932 169.599 74.6779 172.077 74.7598 174.611C75.094 179.395 74.7242 184.203 73.6621 188.879C72.5868 193.149 72.1412 197.554 72.3396 201.953C72.3396 206.104 72.3396 210.016 72.4983 213.675C72.7496 220.982 72.4983 227.333 73.7282 232.399C74.2962 235.287 75.0651 238.131 76.0294 240.912C76.0294 240.752 76.0294 240.593 76.0294 240.434C75.1477 237.778 74.4409 235.068 73.9134 232.319C72.776 227.28 73.0273 220.942 72.8289 213.636C72.7231 209.989 72.7496 206.077 72.7099 201.94C72.5502 197.572 73.0223 193.204 74.1118 188.972C75.2213 184.271 75.6313 179.432 75.3285 174.611C75.2334 171.992 74.5171 169.432 73.2389 167.146C72.5485 165.973 71.6833 164.913 70.6733 164.003C69.6673 163.064 68.5203 162.29 67.2745 161.709C66.6251 161.358 65.8953 161.182 65.1576 161.201C64.4199 161.22 63.6998 161.431 63.0689 161.815C62.4585 162.276 61.9983 162.908 61.7464 163.632C61.4977 164.301 61.2988 164.988 61.1513 165.687C60.5694 168.445 60.1198 171.23 59.4056 174.014C59.1279 175.089 58.8369 176.163 58.5195 177.237L59.2337 177.117C59.5378 176.123 59.8552 175.142 60.0933 174.16Z" fill="#3F00F9"/>
<path d="M10.8974 408.77L8.45082 406.662C7.63088 405.946 6.90351 405.124 6.09678 404.342C5.29006 403.559 4.65526 402.684 3.99401 401.769C2.61121 399.9 1.57219 397.798 0.92582 395.563C0.184819 393.26 0.331086 390.762 1.33579 388.562C2.49959 386.401 3.98079 384.292 5.30329 382.025C6.62578 379.757 7.94828 377.45 9.1782 375.037C11.7748 370.07 14.0713 364.951 16.0552 359.708C18.0522 354.285 19.7846 348.609 21.9667 342.947C24.1489 337.285 26.6352 331.557 29.3463 325.802C30.7481 322.956 32.1676 320.069 33.6047 317.143C34.9933 314.186 36.2497 311.163 37.5722 308.087C38.8947 305.01 39.913 301.828 40.9181 298.619C41.9232 295.41 43.0473 292.214 44.2508 289.019C46.6049 282.601 49.3953 276.262 51.8552 269.646C53.1276 266.352 53.9117 262.89 54.1828 259.369C54.3415 255.895 54.4208 252.461 54.5531 249.039C54.6148 247.324 54.7074 245.627 54.8308 243.948C54.9234 242.25 55.0953 240.566 55.0821 238.856C55.0842 237.156 54.9605 235.458 54.7118 233.777C54.4605 232.106 54.0108 230.489 53.667 228.884C52.8658 225.737 52.6506 222.469 53.0322 219.244C53.5347 216.035 53.9315 212.813 54.1166 209.617C54.3018 206.422 54.4208 203.266 54.3811 200.15C54.1847 197.093 54.2822 194.025 54.6721 190.987C54.9338 189.515 55.2917 188.062 55.7433 186.638C56.193 185.232 56.9203 183.985 57.5155 182.567C58.2131 180.865 58.8136 179.125 59.3141 177.355L58.6131 177.435C58.1356 179.088 57.566 180.713 56.9071 182.301C56.2369 183.644 55.6365 185.02 55.1085 186.425C54.6375 187.879 54.2664 189.363 53.9976 190.867C53.601 193.945 53.4947 197.052 53.6802 200.15C53.6802 203.266 53.6802 206.408 53.4157 209.577C53.1512 212.747 52.8338 215.916 52.3313 219.138C51.9295 222.45 52.1403 225.808 52.9528 229.043C53.3231 230.674 53.7463 232.265 53.9976 233.896C54.2363 235.539 54.3557 237.196 54.3547 238.856C54.3547 240.513 54.196 242.197 54.0902 243.895C53.9844 245.592 53.8918 247.289 53.8125 249C53.6978 252.421 53.5744 255.864 53.4422 259.329C53.1739 262.781 52.4077 266.176 51.1675 269.407C48.7341 275.957 45.8775 282.336 43.5631 288.753C42.3596 291.962 41.2487 295.185 40.2172 298.393C39.1856 301.602 38.1409 304.745 36.8977 307.821C35.6546 310.898 34.3982 313.908 33.0228 316.838L28.7776 325.51C26.0665 331.278 23.5802 337.007 21.3981 342.748C19.2159 348.49 17.4306 354.139 15.513 359.536C13.5516 364.76 11.2772 369.862 8.7021 374.811C7.45896 377.211 6.18936 379.545 4.86686 381.773C3.54436 384.001 2.07639 386.109 0.89937 388.403C0.303272 389.549 -0.00539465 390.823 7.135e-05 392.116C7.135e-05 392.739 0.0794214 393.362 0.119096 393.985C0.158771 394.609 0.357146 395.192 0.476171 395.802C1.15294 398.094 2.22738 400.249 3.65016 402.167C4.37754 403.069 5.09168 403.97 5.85873 404.819C6.62578 405.667 7.41928 406.423 8.25245 407.153L10.223 408.823C11.0297 409.261 11.8629 409.699 12.7093 410.149L10.8974 408.77Z" fill="#3F00F9"/>
<path d="M152.51 145.121C154.15 144.896 155.962 145.028 156.835 146.354C157.589 147.762 157.832 149.388 157.522 150.956C157.299 152.535 156.881 154.08 156.279 155.557C155.191 158.423 153.51 161.026 151.346 163.195C149.177 165.197 146.691 166.735 144.469 168.419C142.248 170.103 140.079 171.655 138.055 173.206C135.807 174.943 133.704 176.587 131.773 178.218L132.911 177.887C134.604 176.494 136.442 175.089 138.359 173.617C140.277 172.145 142.552 170.501 144.8 168.87C147.208 167.251 149.53 165.507 151.756 163.645C154.002 161.423 155.751 158.747 156.888 155.795C157.528 154.271 157.972 152.672 158.21 151.035C158.555 149.304 158.283 147.507 157.443 145.956C156.891 145.187 156.069 144.656 155.142 144.471C154.266 144.329 153.373 144.329 152.497 144.471C151.928 144.471 151.36 144.644 150.791 144.763C151.148 144.896 151.518 145.068 151.928 145.267L152.51 145.121Z" fill="#3F00F9"/>
<path d="M74.0864 249.013C73.2009 251.013 72.0964 252.907 70.7934 254.662C70.3569 255.259 69.9999 255.71 69.7618 255.988C69.6361 256.134 69.5212 256.289 69.418 256.452C69.5646 256.33 69.6976 256.192 69.8147 256.041C70.0792 255.749 70.4495 255.312 70.9124 254.715C72.2742 252.983 73.4283 251.095 74.3509 249.093C75.0232 247.644 75.5418 246.129 75.8982 244.571C76.0834 243.656 76.2156 242.701 76.3346 241.707C76.2288 241.442 76.1363 241.15 76.0305 240.872C75.8982 242.198 75.766 243.378 75.5544 244.505C75.2217 246.054 74.7297 247.565 74.0864 249.013V249.013Z" fill="#3F00F9"/>
<path d="M76.6384 238.989C77.0616 235.011 77.5377 230.357 78.1329 225.292C78.728 220.226 79.7595 214.684 80.6588 208.796C80.8969 207.302 81.1349 205.791 81.373 204.261C81.6555 202.704 81.8498 201.133 81.9549 199.554C81.9878 197.951 82.1559 196.354 82.4574 194.78C82.8462 193.234 83.7873 191.885 85.1024 190.988C86.5062 190 87.8529 188.933 89.136 187.792C90.4585 186.625 91.6223 185.326 92.8523 184.066C95.2989 181.533 97.9174 179.067 100.655 176.627C103.393 174.187 106.209 171.747 109.198 169.44C112.17 167.05 115.459 165.086 118.972 163.606C120.744 162.85 122.569 162.121 124.262 161.206C125.961 160.303 127.604 159.298 129.181 158.196C132.329 156.048 135.146 153.581 138.082 151.407C139.831 150.103 141.684 148.945 143.623 147.946C143.616 147.862 143.616 147.778 143.623 147.694C143.667 147.472 143.729 147.255 143.808 147.044C141.639 148.112 139.571 149.377 137.632 150.823C134.656 153.011 131.839 155.464 128.732 157.599C127.181 158.684 125.564 159.671 123.891 160.556C122.212 161.444 120.44 162.16 118.601 162.916C115.032 164.426 111.69 166.425 108.669 168.857C105.654 171.191 102.837 173.644 100.086 176.084C97.3355 178.523 94.7963 181.03 92.2704 183.575C91.0404 184.901 89.8634 186.135 88.5938 187.275C87.3282 188.401 86.0039 189.459 84.6263 190.444C83.9046 190.942 83.2701 191.555 82.7484 192.261C82.2527 192.974 81.8857 193.768 81.6639 194.608C81.3646 196.223 81.1965 197.859 81.1614 199.501C81.0949 201.069 80.9404 202.631 80.6985 204.182C80.4605 205.707 80.2356 207.218 79.9976 208.69C79.1247 214.631 78.0138 220.133 77.5642 225.225C77.1145 230.317 76.5591 234.905 76.2417 238.95C76.2417 239.467 76.1359 239.944 76.0962 240.435C76.0565 240.925 76.2946 241.045 76.3872 241.336C76.4665 240.567 76.5459 239.798 76.6384 238.989Z" fill="#3F00F9"/>
<path d="M143.98 147.813C145.114 147.226 146.29 146.725 147.498 146.315C148.796 145.883 150.121 145.542 151.466 145.293C151.082 145.095 150.725 144.935 150.395 144.803C149.35 145.028 148.331 145.32 147.3 145.638C146.252 145.994 145.227 146.415 144.232 146.898C144.132 147.169 144.057 147.449 144.007 147.734L143.98 147.813Z" fill="#3F00F9"/>
<path d="M76.3355 241.747V241.336C76.2427 241.044 76.1367 240.752 76.0439 240.434C76.0439 240.593 76.0439 240.752 76.0439 240.911C76.0439 241.071 76.2295 241.482 76.3355 241.747Z" fill="#3F00F9"/>
<path d="M161.12 191.597L160.406 191.981C158.541 192.936 156.822 194.169 155.037 195.058C153.236 195.919 151.39 196.685 149.509 197.352C147.644 198.028 145.793 198.678 143.954 199.168L138.479 200.587L135.834 201.277L134.512 201.608L133.758 201.807C133.864 201.953 133.983 202.085 134.088 202.258C134.194 202.43 134.088 202.404 134.194 202.47C134.3 202.536 134.194 202.324 134.194 202.311L134.657 202.191L135.98 201.86L138.625 201.184L144.179 199.805C146.031 199.261 147.895 198.664 149.76 197.988C151.674 197.321 153.55 196.55 155.381 195.681C157.259 194.753 158.912 193.559 160.776 192.604L161.134 192.419C161.134 192.154 161.134 191.888 161.134 191.61L161.12 191.597Z" fill="#3F00F9"/>
<path d="M171.198 170.13C171.595 170.13 171.991 170.05 172.375 169.971C173.579 169.771 174.762 169.456 175.906 169.029C177.056 168.605 178.128 168.021 179.239 167.703C181.479 167.055 183.875 167.215 186.01 168.154C187.084 168.515 188.057 169.124 188.852 169.933C189.647 170.741 190.241 171.727 190.586 172.808C191.009 175.04 190.595 177.349 189.422 179.292C188.395 181.299 186.968 183.072 185.229 184.504C183.363 185.715 181.361 186.703 179.265 187.447C177.229 188.299 175.15 189.043 173.036 189.675C170.97 190.277 168.867 190.747 166.741 191.081C165.696 191.24 164.638 191.372 163.593 191.439L162.033 191.545H161.636H161.504C161.518 191.774 161.518 192.005 161.504 192.234H162.099L163.686 192.141C164.757 192.141 165.828 191.929 166.886 191.77C169.044 191.444 171.178 190.974 173.274 190.365C175.405 189.726 177.502 188.978 179.556 188.124C181.721 187.37 183.786 186.355 185.706 185.1C187.531 183.605 189.03 181.75 190.109 179.65C191.371 177.546 191.81 175.046 191.339 172.636C190.967 171.441 190.32 170.352 189.449 169.456C188.578 168.559 187.508 167.882 186.327 167.478C184.026 166.475 181.447 166.316 179.04 167.027C177.85 167.425 176.792 167.995 175.681 168.353C174.586 168.773 173.452 169.084 172.295 169.281C171.613 169.395 170.924 169.47 170.232 169.506C170.484 169.652 170.748 169.811 171.039 170.01L171.198 170.13Z" fill="#3F00F9"/>
<path d="M123.363 180.725C122.344 180.937 121.339 181.162 120.347 181.427C118.39 181.964 116.476 182.647 114.621 183.469C112.765 184.191 111.03 185.192 109.476 186.44C108.074 187.795 107.009 189.462 106.368 191.306C103.986 197.817 102.072 204.49 100.642 211.276L96.5688 227.917C95.625 232.113 94.4191 236.245 92.9584 240.289C91.8879 242.786 90.6048 245.186 89.1231 247.463L87.9329 249.226C87.7906 249.418 87.6582 249.617 87.5361 249.823C87.7015 249.647 87.8561 249.461 87.999 249.266C88.29 248.881 88.7132 248.311 89.2422 247.542C90.7793 245.291 92.1073 242.903 93.2096 240.408C94.7235 236.36 95.978 232.219 96.9655 228.01C98.288 223.13 99.6105 217.561 101.131 211.395C102.59 204.637 104.521 197.991 106.911 191.505C107.531 189.756 108.55 188.176 109.886 186.891C111.388 185.69 113.065 184.729 114.859 184.04C116.69 183.239 118.578 182.574 120.506 182.051C121.485 181.785 122.476 181.573 123.482 181.361C124.487 181.149 125.492 180.778 126.51 180.486L130.478 179.292L131.8 178.192L126.325 179.916C125.333 180.141 124.341 180.486 123.363 180.725Z" fill="#3F00F9"/>
<path d="M151.717 173.14C156.158 171.894 160.691 171.007 165.273 170.488C166.437 170.381 167.6 170.289 168.777 170.275C169.457 170.295 170.138 170.268 170.814 170.196C170.478 169.951 170.13 169.726 169.769 169.52H168.764C167.561 169.52 166.384 169.626 165.207 169.732C160.583 170.268 156.01 171.177 151.532 172.45C145.118 174.214 138.915 176.083 132.911 177.887C132.448 178.258 131.999 178.642 131.589 179.014C138.043 177.078 144.761 175.062 151.717 173.14Z" fill="#3F00F9"/>
<path d="M133.506 202.125V202.311V202.709C133.753 204.477 133.925 206.245 134.021 208.013C134.127 209.737 134.141 211.421 134.088 213.078C134.035 214.736 133.889 216.34 133.731 217.905C133.225 222.239 132.276 226.509 130.9 230.648L131.641 229.587L131.773 229.388C132.95 225.667 133.782 221.845 134.26 217.971C134.418 216.38 134.55 214.762 134.63 213.092C134.709 211.421 134.63 209.724 134.63 207.986C134.564 206.541 134.418 205.082 134.246 203.624C134.091 203.234 133.905 202.857 133.691 202.497L133.506 202.125Z" fill="#3F00F9"/>
<path d="M130.505 179.318L131.563 179.013C131.999 178.642 132.449 178.257 132.885 177.886L131.748 178.217L130.505 179.318Z" fill="#3F00F9"/>
<path d="M119.303 248.191C117.624 250.233 116.195 251.705 115.203 252.7L114.079 253.814C113.94 253.926 113.816 254.055 113.709 254.198L114.132 253.867C114.397 253.628 114.807 253.283 115.309 252.806C116.794 251.407 118.202 249.928 119.528 248.377C121.66 245.951 123.531 243.307 125.109 240.487C126.59 237.994 128.362 235.289 130.399 232.412C130.624 231.815 130.835 231.218 131.034 230.595C128.64 234.083 126.524 237.318 124.805 240.275C123.252 243.099 121.408 245.753 119.303 248.191Z" fill="#3F00F9"/>
<path d="M209.775 235.051C211.375 236.058 213.028 236.947 214.575 237.888C215.361 238.335 216.082 238.889 216.718 239.532C217.311 240.173 217.734 240.952 217.948 241.8C218.381 243.489 218.193 245.278 217.419 246.839C216.583 248.318 215.246 249.447 213.65 250.021C210.489 251.023 207.174 251.445 203.863 251.268C200.779 251.202 197.72 250.697 194.778 249.769C192.083 248.917 189.503 247.737 187.094 246.255C185.983 245.574 184.914 244.826 183.893 244.014C183.391 243.63 182.915 243.219 182.452 242.821L181.777 242.211L181.301 241.773L180.481 241.946H180.852C184.724 245.762 189.435 248.614 194.606 250.273C197.599 251.244 200.718 251.776 203.863 251.851C207.261 252.052 210.667 251.629 213.914 250.605C215.705 249.994 217.193 248.715 218.07 247.034C218.946 245.353 219.144 243.398 218.622 241.575C218.402 240.624 217.948 239.744 217.3 239.015C216.62 238.323 215.85 237.726 215.012 237.238C213.385 236.257 211.719 235.369 210.119 234.335L209.986 234.242C209.943 234.372 209.908 234.505 209.881 234.64C209.801 234.785 209.788 234.918 209.775 235.051Z" fill="#3F00F9"/>
<path d="M180.309 241.455L179.661 241.376C179.224 241.376 178.801 241.243 178.338 241.163C177.526 241.013 176.722 240.818 175.931 240.58C174.481 240.152 173.07 239.602 171.712 238.935C170.868 238.51 170.051 238.031 169.266 237.503L169.187 237.834C169.947 238.358 170.737 238.837 171.554 239.267C172.923 239.956 174.347 240.529 175.812 240.978C176.616 241.231 177.432 241.439 178.259 241.601L179.581 241.827L180.904 241.521L180.309 241.455Z" fill="#3F00F9"/>
<path d="M132.144 229.839C133.519 227.903 135.001 225.919 136.588 223.886C138.161 221.843 139.881 219.748 141.547 217.521C143.213 215.293 144.681 212.8 146.612 210.546C147.521 209.369 148.525 208.269 149.614 207.257C150.68 206.219 151.997 205.479 153.436 205.109C154.926 204.784 156.481 204.937 157.88 205.547C159.334 206.13 160.736 206.952 162.204 207.695C165.16 209.279 168.202 210.695 171.316 211.938C177.87 214.44 184.19 217.519 190.202 221.141C193.759 223.062 197.172 225.243 200.411 227.665C201.998 228.858 203.427 230.197 204.895 231.51C206.334 232.765 207.873 233.9 209.497 234.905C209.489 234.816 209.489 234.728 209.497 234.639C209.497 234.467 209.576 234.308 209.629 234.149C208.116 233.202 206.679 232.138 205.331 230.966C203.889 229.64 202.421 228.314 200.821 227.081C197.554 224.62 194.111 222.404 190.519 220.451C184.479 216.8 178.129 213.694 171.541 211.169C168.446 209.942 165.422 208.543 162.482 206.979C161.027 206.25 159.625 205.414 158.091 204.818C156.562 204.156 154.864 203.994 153.238 204.353C151.683 204.761 150.258 205.559 149.098 206.674C147.994 207.719 146.972 208.85 146.043 210.055C145.118 211.222 144.192 212.376 143.398 213.596C142.605 214.816 141.811 215.956 140.978 217.07C139.338 219.311 137.646 221.393 136.072 223.448C134.498 225.503 133.123 227.426 131.787 229.256C131.615 229.839 131.417 230.409 131.231 230.98L132.144 229.839Z" fill="#3F00F9"/>
<path d="M130.954 230.594C130.756 231.217 130.544 231.814 130.319 232.411C130.623 231.96 130.954 231.509 131.271 231.085C131.589 230.66 131.655 229.944 131.827 229.361L131.694 229.56L130.954 230.594Z" fill="#3F00F9"/>
<path d="M218.794 322.633C218.533 320.244 217.345 318.053 215.488 316.534C213.554 315.2 211.21 314.599 208.875 314.836C206.623 314.986 204.4 315.432 202.263 316.162C200.11 316.825 198.087 317.857 196.285 319.212C194.589 320.61 192.965 322.092 191.418 323.654C185.224 329.369 177.691 333.424 169.518 335.442C167.56 335.882 165.56 336.1 163.553 336.092C161.583 336.054 159.634 335.663 157.801 334.938C155.991 334.225 154.298 333.247 152.775 332.035C152.01 331.451 151.278 330.827 150.58 330.165C150.223 329.847 149.892 329.502 149.561 329.17L149.072 328.64L148.834 328.375L148.715 328.242C148.596 328.308 148.966 328.07 148.451 328.401L148.689 328.202C147.366 326.598 146.282 324.834 145.052 323.177C143.822 321.519 142.592 319.915 141.335 318.337L140.859 317.753L140.674 317.515V317.409L140.992 315.937C141.222 314.967 141.394 313.984 141.507 312.993C141.747 311.054 141.822 309.097 141.732 307.145C141.639 303.433 142.058 299.725 142.975 296.126C143.782 292.599 144.787 289.204 145.766 285.929C146.744 282.654 147.895 279.551 148.808 276.475C149.72 273.398 150.54 270.388 151.453 267.591C152.458 264.946 153.878 262.48 155.658 260.284C157.285 258.096 158.845 256.028 160.327 254.052C163.21 250.074 165.987 246.573 167.574 243.02C168.316 241.369 168.913 239.656 169.359 237.901L169.148 237.755C168.689 239.522 168.073 241.244 167.309 242.9C165.709 246.388 162.932 249.849 160.022 253.813L155.314 260.032C154.456 261.134 153.657 262.28 152.921 263.467C152.168 264.732 151.53 266.064 151.016 267.445C150.104 270.296 149.337 273.266 148.371 276.316C147.406 279.365 146.255 282.482 145.29 285.77C144.324 289.059 143.293 292.4 142.46 295.994C141.513 299.637 141.068 303.394 141.137 307.159C141.216 309.085 141.136 311.014 140.899 312.927C140.783 313.899 140.615 314.864 140.397 315.817L140.079 317.263V317.528C140.079 317.528 140.079 317.634 140.079 317.687L140.185 317.82L140.463 318.178L140.925 318.761C142.248 320.326 143.425 321.917 144.628 323.575C145.832 325.232 146.943 326.969 148.265 328.64C149.553 330.143 150.993 331.508 152.563 332.711C154.135 333.96 155.882 334.97 157.748 335.708C159.651 336.455 161.669 336.863 163.712 336.914C165.776 336.937 167.835 336.718 169.849 336.265C173.945 335.317 177.892 333.809 181.579 331.783C185.412 329.794 188.95 327.282 192.093 324.317C193.62 322.771 195.227 321.306 196.907 319.928C198.64 318.623 200.586 317.631 202.66 316.998C204.741 316.281 206.906 315.836 209.1 315.672C211.273 315.433 213.46 315.983 215.263 317.223C216.976 318.621 218.065 320.643 218.292 322.845C218.639 325.085 218.369 327.378 217.511 329.475C217.291 329.993 217.012 330.482 216.678 330.934L216.321 331.623C215.799 332.549 215.211 333.435 214.562 334.275C216.087 333.091 217.326 331.578 218.186 329.847C219.052 327.545 219.263 325.048 218.794 322.633V322.633Z" fill="#3F00F9"/>
<path d="M170.298 227.466C170.298 226.14 170.179 225.384 170.179 225.384C170.17 225.557 170.17 225.729 170.179 225.901C170.179 226.259 170.179 226.776 170.179 227.466C170.192 229.483 170.068 231.499 169.809 233.499C169.637 234.679 169.412 235.965 169.068 237.357L169.28 237.503C169.592 236.191 169.835 234.863 170.007 233.525C170.258 231.516 170.356 229.49 170.298 227.466V227.466Z" fill="#3F00F9"/>
<path d="M213.424 333.851L212.829 334.355C210.999 335.831 209.284 337.445 207.698 339.182C205.105 341.924 203.15 345.206 201.971 348.795C201.566 350.561 200.981 352.281 200.226 353.927C199.32 355.446 198.081 356.739 196.602 357.706C195.032 358.527 193.36 359.133 191.63 359.509L186.498 360.981C183.073 361.976 179.687 363.037 176.341 364.124C172.998 365.138 169.71 366.324 166.489 367.678C163.388 369.153 160.411 370.878 157.588 372.836C154.772 374.679 151.968 376.495 149.058 378.02C146.149 379.545 143.186 381.004 140.343 382.529C134.656 385.579 129.102 388.536 123.825 391.652C118.696 394.662 113.738 397.956 108.973 401.517C104.597 404.89 99.8599 407.763 94.8492 410.083C90.2437 412.351 85.8679 415.059 81.7829 418.172C80.8175 418.914 79.8653 419.67 78.9528 420.426C78.0684 421.229 77.1122 421.948 76.0962 422.574C74.1413 423.669 72.0322 424.46 69.8408 424.921C68.0952 425.3 66.3288 425.575 64.5508 425.743L65.8733 426.062C67.1958 425.889 68.6109 425.69 69.9995 425.385C72.2382 424.909 74.3949 424.104 76.4004 422.999C77.422 422.389 78.383 421.683 79.2702 420.89C80.1827 420.134 81.1349 419.379 82.1003 418.649C86.1663 415.581 90.5202 412.917 95.1005 410.693C100.15 408.364 104.926 405.483 109.344 402.101C114.096 398.566 119.041 395.299 124.156 392.315C129.446 389.212 134.974 386.268 140.674 383.218C143.517 381.693 146.413 380.222 149.376 378.736C152.338 377.251 155.142 375.368 157.972 373.512C160.771 371.579 163.721 369.877 166.793 368.42C169.987 367.079 173.25 365.906 176.566 364.906C179.899 363.819 183.28 362.776 186.71 361.777L191.788 360.252C193.589 359.849 195.328 359.207 196.959 358.342C198.533 357.331 199.854 355.969 200.821 354.364C201.61 352.666 202.217 350.888 202.633 349.06C203.787 345.591 205.693 342.421 208.214 339.778C209.777 338.063 211.465 336.467 213.266 335.005L213.609 334.713C213.636 334.395 213.53 334.143 213.424 333.851Z" fill="#3F00F9"/>
<path d="M213.517 333.732C213.622 334.024 213.702 334.263 213.755 334.462C214.407 333.618 215.003 332.732 215.54 331.81C214.901 332.488 214.226 333.13 213.517 333.732V333.732Z" fill="#3F00F9"/>
<path d="M169.095 237.358L169.016 237.69L169.228 237.836L169.308 237.504L169.095 237.358Z" fill="#3F00F9"/>
<path d="M20.1276 413.359C17.4826 412.324 14.9567 411.197 12.5762 410.017L13.4226 410.64C14.2028 411.21 14.9963 411.741 15.7898 412.258C17.1123 412.855 18.4348 413.438 19.8763 413.995C28.6577 417.456 38.7351 419.909 49.2225 422.614C53.6309 423.755 57.9643 424.842 62.2227 425.876L64.5238 425.677C59.6306 424.51 54.5787 423.237 49.4077 421.898C38.9203 419.193 28.8561 416.766 20.1276 413.359Z" fill="#3F00F9"/>
<path d="M13.4228 410.641L12.5765 410.018C11.7303 409.593 10.8974 409.156 10.0908 408.691L10.6065 409.116L13.1451 410.999C14.0045 411.423 14.8772 411.834 15.7895 412.232C14.9962 411.742 14.2028 411.211 13.4228 410.641Z" fill="#3F00F9"/>
<path d="M62.1846 425.877L63.639 426.221C64.353 426.221 65.067 426.076 65.7809 425.996L64.4587 425.678L62.1846 425.877Z" fill="#3F00F9"/>
<path d="M187.411 239.201C188.041 238.549 188.528 237.772 188.839 236.92C189.054 236.351 189.179 235.751 189.21 235.143C189.251 234.924 189.251 234.699 189.21 234.48C189.11 235.282 188.919 236.069 188.641 236.828C188.267 237.716 187.704 238.513 186.991 239.161C186.278 239.809 185.433 240.293 184.515 240.58C183.192 240.978 182.028 241.256 180.931 241.522H181.103L181.341 241.76C182.359 241.535 183.47 241.283 184.634 240.912C185.684 240.575 186.637 239.988 187.411 239.201Z" fill="#3F00F9"/>
<path d="M181.061 241.535H180.89L179.568 241.84L180.216 241.932H180.44L181.259 241.76L181.061 241.535Z" fill="#3F00F9"/>
<path d="M160.776 187.063C160.997 188.467 161.121 189.885 161.147 191.307C161.153 191.399 161.153 191.492 161.147 191.585C161.239 191.519 161.424 191.585 161.451 191.585C161.457 191.519 161.457 191.452 161.451 191.386C161.58 189.912 161.348 188.428 160.776 187.063V187.063Z" fill="#3F00F9"/>
<path d="M161.437 191.53C161.437 191.53 161.226 191.53 161.133 191.53C161.133 191.809 161.133 192.073 161.133 192.338L161.451 192.166C161.465 191.937 161.465 191.707 161.451 191.478L161.437 191.53Z" fill="#3F00F9"/>
<path d="M131.284 199.328C130.887 198.961 130.442 198.649 129.962 198.4C130.336 198.809 130.743 199.186 131.178 199.527C132.073 200.314 132.872 201.204 133.558 202.179V202.06C133.558 202.06 133.558 201.954 133.558 201.914H133.704H133.796C133.089 200.934 132.243 200.062 131.284 199.328V199.328Z" fill="#3F00F9"/>
<path d="M133.717 201.807H133.625H133.479C133.479 201.807 133.479 201.913 133.479 201.953V202.072L133.704 202.391C133.918 202.751 134.104 203.128 134.26 203.518C134.26 203.2 134.193 202.895 134.141 202.576C134.141 202.576 134.141 202.457 134.141 202.417C134.141 202.377 134.141 202.271 134.035 202.205C133.929 202.139 133.823 201.953 133.717 201.807Z" fill="#3F00F9"/>
<path d="M63.7574 176.653C64.5812 176.418 65.2883 175.883 65.7412 175.155C66.1588 174.376 66.4279 173.526 66.5347 172.648C66.7992 170.885 67.0504 169.201 67.2753 167.676C67.4271 166.941 67.4271 166.183 67.2753 165.448C67.1817 165.127 67.0128 164.833 66.7827 164.591C66.5526 164.349 66.2681 164.165 65.9528 164.056C65.0341 163.792 64.0495 163.892 63.202 164.334C62.8872 164.454 62.5893 164.615 62.3159 164.812C62.6356 164.716 62.9492 164.601 63.2549 164.467C64.0869 164.091 65.0263 164.03 65.8999 164.295C66.1794 164.39 66.4315 164.552 66.6343 164.766C66.8371 164.981 66.9845 165.243 67.0637 165.528C67.2077 166.223 67.2077 166.941 67.0637 167.636C66.8256 169.161 66.5743 170.819 66.2966 172.569C66.1925 173.406 65.9418 174.219 65.556 174.969C65.1406 175.613 64.5062 176.084 63.7706 176.295C62.4646 176.621 61.1395 176.864 59.8032 177.024H59.4329L59.3535 177.276H59.8428C61.1602 177.157 62.468 176.949 63.7574 176.653Z" fill="#3F00F9"/>
<path d="M59.3004 177.104L58.5869 177.224C58.5869 177.29 58.5869 177.369 58.5869 177.436L59.2871 177.356L59.3004 177.104Z" fill="#3F00F9"/>
<path d="M173.789 172.146C175.13 172.737 176.584 173.023 178.048 172.981C179.496 172.939 180.936 172.748 182.346 172.411C183.498 172.175 184.633 171.865 185.745 171.483C186.137 171.353 186.491 171.13 186.777 170.832C187.063 170.533 187.271 170.17 187.385 169.772C187.431 169.553 187.431 169.327 187.385 169.109C187.385 168.963 187.305 168.896 187.292 168.896C187.339 169.173 187.339 169.455 187.292 169.732C187.159 170.09 186.945 170.413 186.668 170.675C186.39 170.937 186.056 171.132 185.692 171.244C184.58 171.584 183.449 171.863 182.306 172.079C180.92 172.387 179.507 172.565 178.088 172.61C176.678 172.65 175.275 172.388 173.975 171.841C173.01 171.36 172.093 170.787 171.237 170.13C171.109 170.136 170.981 170.136 170.854 170.13V170.13C171.765 170.895 172.748 171.571 173.789 172.146Z" fill="#3F00F9"/>
<path d="M171.196 170.129L170.998 169.984C170.708 169.785 170.443 169.626 170.192 169.48H169.77C170.129 169.686 170.478 169.912 170.813 170.156C170.941 170.154 171.069 170.145 171.196 170.129V170.129Z" fill="#3F00F9"/>
<path d="M210.013 237.928C210.683 239.111 211.472 240.221 212.367 241.243C213.225 242.302 214.227 243.234 215.343 244.014C215.611 244.192 215.906 244.326 216.216 244.412C216.377 244.465 216.549 244.473 216.714 244.436C216.88 244.398 217.032 244.317 217.155 244.2C217.479 243.752 217.625 243.199 217.565 242.648C217.576 241.88 217.354 241.127 216.93 240.487C216.783 240.247 216.584 240.043 216.348 239.89C216.348 239.89 216.546 240.116 216.798 240.567C217.172 241.194 217.347 241.919 217.3 242.648C217.335 243.118 217.209 243.586 216.943 243.974C216.626 244.293 216.004 243.974 215.528 243.723C214.453 242.941 213.484 242.023 212.645 240.991C211.768 239.989 210.989 238.906 210.317 237.755C209.877 236.945 209.688 236.022 209.775 235.103L209.669 235.037L209.524 234.944C209.364 235.966 209.536 237.012 210.013 237.928V237.928Z" fill="#3F00F9"/>
<path d="M209.524 234.891L209.67 234.984L209.776 235.05C209.776 234.918 209.776 234.785 209.776 234.679C209.803 234.544 209.839 234.412 209.882 234.281L209.657 234.135C209.657 234.294 209.564 234.454 209.524 234.626C209.517 234.714 209.517 234.803 209.524 234.891V234.891Z" fill="#3F00F9"/>
<path d="M217.762 325.021C217.625 323.691 217.171 322.413 216.439 321.295C216.071 320.704 215.626 320.165 215.117 319.691C214.588 319.159 213.933 318.771 213.213 318.563C212.837 318.474 212.446 318.476 212.071 318.568C211.696 318.66 211.348 318.84 211.057 319.094C210.524 319.571 210.076 320.136 209.734 320.765C209.047 321.971 208.412 323.125 207.936 324.292C207.643 324.873 207.554 325.537 207.684 326.175C207.845 326.763 208.171 327.293 208.623 327.7C209.443 328.482 210.263 329.092 210.911 329.781C211.942 330.849 212.767 332.099 213.345 333.468L213.517 333.852L213.609 333.773L213.477 333.401C212.933 331.992 212.125 330.701 211.097 329.596C210.449 328.893 209.615 328.27 208.835 327.488C208.435 327.109 208.147 326.627 208.002 326.095C207.902 325.526 207.99 324.939 208.253 324.424C208.769 323.311 209.377 322.117 210.039 320.95C210.362 320.358 210.782 319.825 211.282 319.372C211.529 319.155 211.826 319 212.146 318.921C212.466 318.843 212.8 318.843 213.12 318.921C214.395 319.416 215.469 320.321 216.175 321.494C216.897 322.558 217.351 323.782 217.497 325.061C217.636 327.257 217.095 329.443 215.95 331.32C215.844 331.519 215.725 331.691 215.619 331.877C215.953 331.53 216.258 331.158 216.532 330.763C217.501 329.013 217.929 327.015 217.762 325.021V325.021Z" fill="#3F00F9"/>
<path d="M216.452 330.763C216.178 331.158 215.873 331.53 215.54 331.877C215.003 332.799 214.407 333.685 213.755 334.529V334.529L214.323 334.038C214.972 333.198 215.56 332.311 216.082 331.386L216.452 330.763Z" fill="#3F00F9"/>
<path d="M213.703 334.58H213.768V334.645L213.703 334.58Z" fill="#3F00F9"/>
<path d="M213.425 333.85C213.531 334.142 213.637 334.393 213.703 334.566V334.499C213.703 334.301 213.57 334.062 213.465 333.771L213.425 333.85Z" fill="#3F00F9"/>
<path d="M143.954 149.736C144.31 150.463 144.902 151.048 145.633 151.394C146.411 151.778 147.247 152.033 148.106 152.15C149.034 152.291 149.98 152.232 150.883 151.977C151.775 151.685 152.608 151.236 153.343 150.651C153.734 150.426 154.072 150.12 154.336 149.754C154.601 149.389 154.785 148.971 154.877 148.529C154.855 148.121 154.745 147.723 154.556 147.362C154.366 147 154.102 146.684 153.78 146.434C153.263 145.99 152.7 145.603 152.1 145.28L151.862 145.174H151.439L151.981 145.452C152.554 145.767 153.087 146.15 153.568 146.593C153.85 146.815 154.081 147.093 154.247 147.411C154.414 147.729 154.511 148.078 154.534 148.436C154.441 148.826 154.269 149.193 154.027 149.513C153.786 149.832 153.481 150.098 153.132 150.293C152.423 150.83 151.627 151.238 150.778 151.5C149.107 151.921 147.341 151.738 145.792 150.983C145.124 150.665 144.577 150.139 144.231 149.484C143.97 148.926 143.882 148.302 143.98 147.694L143.702 147.826C143.594 148.474 143.682 149.139 143.954 149.736V149.736Z" fill="#3F00F9"/>
<path d="M151.861 145.227C151.452 145.028 151.082 144.856 150.725 144.724L150.368 144.803C150.698 144.936 151.055 145.094 151.438 145.293L151.861 145.227Z" fill="#3F00F9"/>
<path d="M143.702 147.944L143.98 147.811V147.732C144.03 147.447 144.106 147.168 144.206 146.896L143.914 147.042C143.835 147.254 143.773 147.471 143.729 147.692C143.713 147.775 143.704 147.86 143.702 147.944V147.944Z" fill="#3F00F9"/>
<path d="M527.875 434.894C529.197 435.159 530.52 435.384 531.842 435.57C538.966 435.411 546.061 434.612 553.042 433.183C555.37 432.679 557.644 432.095 559.893 431.472L561.48 430.252C558.676 431.087 555.819 431.83 552.883 432.467C544.655 434.155 536.273 434.968 527.875 434.894V434.894Z" fill="#3F00F9"/>
<path d="M550.066 279.949C551.057 283.911 551.821 287.926 552.354 291.976C552.592 294.217 552.487 296.617 552.804 299.11C553.121 301.603 553.558 304.149 554.127 306.774C555.237 312.012 556.56 317.554 557.234 323.521C557.591 326.505 557.843 329.581 558.173 332.711C558.504 335.84 558.914 339.049 559.417 342.284C560.461 348.769 561.585 355.438 563.04 362.254C564.475 368.884 566.548 375.359 569.229 381.587C570.515 384.55 571.967 387.436 573.58 390.233C575.141 392.978 576.926 395.537 578.13 398.189C578.718 399.517 579.089 400.932 579.227 402.379C579.333 403.095 579.294 403.811 579.333 404.527C579.373 405.243 579.333 405.933 579.135 406.622C578.686 409.318 577.754 411.91 576.384 414.273C573.824 418.492 570.64 422.297 566.942 425.558C565.315 427.122 563.609 428.448 562.035 429.761L561.506 430.172L562.762 429.788C564.23 428.594 565.791 427.374 567.299 425.942C571.049 422.674 574.286 418.856 576.9 414.618C578.309 412.188 579.277 409.525 579.756 406.755C579.889 406.052 579.889 405.31 579.968 404.58C580.047 403.851 579.968 403.095 579.862 402.353C579.724 400.837 579.34 399.355 578.725 397.964C577.482 395.152 575.696 392.66 574.162 389.901C572.563 387.131 571.133 384.266 569.877 381.322C567.208 375.14 565.152 368.708 563.741 362.122C562.286 355.346 561.162 348.649 560.104 342.231C559.588 339.009 559.178 335.827 558.848 332.697C558.517 329.568 558.253 326.492 557.882 323.495C557.11 317.843 556.046 312.236 554.695 306.694C554.14 304.042 553.664 301.55 553.373 299.096C553.082 296.643 553.148 294.27 552.883 291.976C552.322 287.913 551.518 283.888 550.476 279.922C549.895 277.27 549.418 274.83 549.008 272.735C548.942 272.948 548.863 273.146 548.797 273.359C549.141 275.268 549.564 277.482 550.066 279.949Z" fill="#3F00F9"/>
<path d="M547.54 265.031L547.249 263.533C547.218 263.362 547.174 263.194 547.117 263.029C547.096 263.201 547.096 263.375 547.117 263.546C547.117 263.891 547.249 264.395 547.342 265.058C547.566 266.384 547.897 268.32 548.32 270.839C548.413 271.356 548.505 271.913 548.611 272.483C548.611 272.297 548.73 272.138 548.783 271.953C548.836 271.767 548.783 271.873 548.783 271.846C548.717 271.489 548.637 271.117 548.571 270.786C548.148 268.28 547.765 266.344 547.54 265.031Z" fill="#3F00F9"/>
<path d="M562.735 429.802L561.479 430.186L559.893 431.406L561.056 431.075L562.299 430.147L562.735 429.802Z" fill="#3F00F9"/>
<path d="M540.174 175.182C541.312 177.104 542.489 179.067 543.706 181.096L547.435 187.301C548.807 189.382 550.031 191.558 551.098 193.812C552.048 196.219 552.791 198.704 553.32 201.238C553.915 203.823 554.563 206.422 555.119 209.074C556.23 214.378 557.142 219.682 558.623 224.589C558.994 225.822 559.417 227.015 559.668 228.222C559.947 229.408 560.089 230.623 560.091 231.842C560.089 233.034 559.952 234.222 559.681 235.382C559.378 236.519 558.98 237.628 558.491 238.697C557.562 240.813 556.814 243.005 556.256 245.248C555.701 247.409 555.105 249.478 554.471 251.48C553.241 255.458 551.826 259.091 550.873 262.565C549.921 266.04 549.551 269.195 548.837 271.848L548.996 272.683C548.996 272.471 549.141 272.285 549.207 272.073C550.054 269.328 550.411 266.119 551.376 262.698C552.341 259.277 553.783 255.67 555.053 251.666C556.322 247.661 557.155 243.219 559.113 238.963C559.619 237.864 560.03 236.724 560.343 235.555C560.645 234.34 560.796 233.093 560.792 231.842C560.789 230.57 560.648 229.303 560.369 228.063C560.105 226.803 559.668 225.596 559.311 224.376C557.856 219.483 556.957 214.259 555.833 208.928C555.277 206.276 554.629 203.624 554.034 201.065C553.493 198.494 552.732 195.974 551.76 193.533C550.683 191.234 549.436 189.017 548.03 186.903L544.287 180.724L540.73 174.837C540.108 173.736 539.526 172.649 538.958 171.562C538.847 171.777 538.709 171.978 538.548 172.158C539.064 173.179 539.606 174.174 540.174 175.182Z" fill="#3F00F9"/>
<path d="M535.836 166.656L537.158 169.44C537.568 170.289 538.004 171.137 538.48 171.999C538.638 171.818 538.771 171.618 538.877 171.402C538.494 170.647 538.11 169.904 537.753 169.175C537.29 168.234 536.854 167.305 536.431 166.391C536.22 165.949 535.995 165.507 535.757 165.065C535.44 164.887 535.113 164.728 534.778 164.587C535.186 165.247 535.54 165.939 535.836 166.656Z" fill="#3F00F9"/>
<path d="M523.392 167.982C523.613 166.867 524.194 165.856 525.045 165.104C526.271 163.989 527.79 163.248 529.422 162.969C530.297 162.813 531.193 162.813 532.067 162.969C532.954 163.089 533.777 163.499 534.408 164.136C534.403 164.158 534.403 164.18 534.408 164.202C534.766 164.334 535.112 164.498 535.44 164.693C535.247 164.36 535.026 164.045 534.779 163.751C534.068 163.028 533.137 162.561 532.134 162.425C531.207 162.252 530.256 162.252 529.33 162.425C527.607 162.727 526.008 163.524 524.728 164.719C524.139 165.275 523.659 165.936 523.312 166.669C523.183 166.986 523.086 167.314 523.021 167.65L523.154 167.743L523.392 167.982Z" fill="#3F00F9"/>
<path d="M548.863 271.953C548.863 272.139 548.744 272.298 548.691 272.484C548.638 272.669 548.784 273.027 548.837 273.306C548.903 273.094 548.983 272.895 549.049 272.683L548.89 271.847C548.89 271.847 548.863 271.913 548.863 271.953Z" fill="#3F00F9"/>
<path d="M505.935 179.915L505.313 179.703L504.096 179.212C502.455 178.509 500.883 177.652 499.402 176.653C497.903 175.599 496.504 174.409 495.223 173.099C492.578 170.447 489.814 167.795 486.957 165.064C486.243 164.387 485.515 163.738 484.841 163.022C484.181 162.337 483.683 161.512 483.386 160.608C482.655 158.767 482.265 156.808 482.236 154.827C482.154 153.855 482.314 152.879 482.699 151.984C483.084 151.089 483.684 150.303 484.444 149.695C485.492 149.072 486.691 148.75 487.909 148.767C488.529 148.603 489.162 148.492 489.8 148.436C490.408 148.389 491.018 148.389 491.625 148.436C491.202 148.343 490.779 148.263 490.303 148.197C488.16 147.729 485.921 148.049 483.995 149.099C483.076 149.725 482.377 150.625 481.998 151.671C481.638 152.679 481.463 153.743 481.482 154.814C481.513 156.884 481.916 158.933 482.672 160.86C483.011 161.855 483.566 162.761 484.299 163.512C485 164.242 485.727 164.838 486.428 165.581C489.298 168.233 492.035 170.885 494.707 173.537C496.02 174.875 497.454 176.087 498.992 177.157C500.506 178.196 502.119 179.084 503.806 179.809C504.215 179.981 504.625 180.154 505.049 180.299L505.683 180.525L505.855 180.591C505.948 180.392 506.027 180.207 506.133 179.995L505.935 179.915Z" fill="#3F00F9"/>
<path d="M520.971 199.806C520.475 199.259 520.007 198.689 519.569 198.095C518.675 196.866 517.845 195.591 517.082 194.276C516.271 192.886 515.36 191.557 514.358 190.298C513.34 189.038 512.308 187.752 511.277 186.426L508.195 182.355C507.68 181.666 507.151 181.029 506.635 180.274C506.635 180.274 506.555 180.167 506.489 180.088C506.37 180.313 506.264 180.525 506.172 180.738L507.693 182.74L510.801 186.811C511.832 188.137 512.864 189.423 513.895 190.669C514.868 191.9 515.752 193.198 516.54 194.555C517.311 195.889 518.159 197.178 519.079 198.413C519.529 199.023 520.005 199.593 520.494 200.15L521.632 201.476L522.267 201.397L520.971 199.806Z" fill="#3F00F9"/>
<path d="M489.826 148.635L489.125 148.754L490.236 148.873C492.299 149.222 494.324 149.773 496.28 150.518C498.291 151.198 500.238 152.055 502.099 153.078L502.509 153.316C502.484 152.975 502.344 152.653 502.112 152.401C502.019 152.282 501.914 152.202 501.821 152.096C500.116 151.207 498.348 150.445 496.531 149.815C495.407 149.417 494.256 149.046 493.106 148.741C492.021 148.572 490.919 148.536 489.826 148.635Z" fill="#3F00F9"/>
<path d="M502.708 153.395C504.371 154.392 505.974 155.486 507.508 156.671L512.679 160.569C516.105 163.221 519.464 165.714 522.704 168.326L522.929 168.512C522.941 168.227 522.971 167.944 523.021 167.663C519.821 165.078 516.501 162.545 513.116 159.986L507.945 156.074C506.202 154.72 504.368 153.488 502.456 152.388H502.351C502.593 152.652 502.729 152.997 502.734 153.356C502.727 153.37 502.718 153.383 502.708 153.395V153.395Z" fill="#3F00F9"/>
<path d="M515.602 229.336C516.179 227.553 516.652 225.738 517.017 223.899C517.414 221.884 517.744 219.669 518.141 217.269C518.538 214.869 519.053 212.416 519.768 209.804C520.085 208.478 520.601 207.152 521.09 205.826C521.579 204.5 522.016 203.081 522.492 201.649L521.91 201.728L520.588 205.707C520.164 207.033 519.649 208.359 519.265 209.685C518.615 212.158 518.09 214.663 517.691 217.19C517.308 219.563 517.004 221.764 516.62 223.82C515.986 227.212 514.998 230.527 513.671 233.712L513.79 233.977C514.477 232.464 515.081 230.915 515.602 229.336V229.336Z" fill="#3F00F9"/>
<path d="M531.366 176.839L538.243 186.333C540.452 189.436 542.713 192.419 544.684 195.416C545.67 196.868 546.437 198.459 546.958 200.137C547.371 201.787 547.549 203.488 547.487 205.189C547.395 208.57 547.183 211.819 546.906 215.001C546.76 216.566 546.681 218.117 546.482 219.602C546.284 221.087 546.059 222.559 545.781 223.978C544.618 229.627 543.322 234.706 542.303 239.188C541.298 242.998 540.664 246.897 540.412 250.83C540.145 254.176 540.176 257.54 540.505 260.881C540.505 260.881 540.505 260.656 540.505 260.231V258.282C540.505 256.585 540.505 254.079 540.73 250.856C541.041 246.943 541.719 243.067 542.753 239.28C543.798 234.812 545.133 229.76 546.337 224.071C546.615 222.652 546.866 221.18 547.064 219.682C547.263 218.184 547.355 216.619 547.514 215.054C547.805 211.885 548.03 208.623 548.136 205.202C548.2 203.44 548.022 201.677 547.606 199.964C547.073 198.225 546.284 196.576 545.266 195.071C543.282 192.021 541.034 189.051 538.812 185.922L531.948 176.375C530.794 174.699 529.434 173.175 527.901 171.84C526.473 170.514 524.965 169.188 523.431 167.994C523.376 168.287 523.354 168.585 523.365 168.883C524.754 170.01 526.116 171.163 527.412 172.357C528.917 173.674 530.246 175.181 531.366 176.839V176.839Z" fill="#3F00F9"/>
<path d="M523.326 168.883C523.315 168.585 523.337 168.287 523.393 167.994L523.154 167.795L523.021 167.703C522.972 167.983 522.941 168.267 522.929 168.551L523.326 168.883Z" fill="#3F00F9"/>
<path d="M433.436 155.862L435.234 156.591L441.754 159.243L454.503 164.428C458.574 166.183 462.737 167.714 466.974 169.016C471.077 170.01 475.037 171.525 478.758 173.524C480.63 174.401 482.566 175.132 484.55 175.712C486.478 176.131 488.377 176.671 490.237 177.33C493.618 178.983 496.435 181.604 498.331 184.862C499.997 187.977 501.123 191.353 501.663 194.847C502.364 198.188 503.065 201.477 503.898 204.447C504.28 205.938 504.753 207.403 505.313 208.836C505.842 210.228 506.305 211.594 506.742 212.933C507.588 215.585 508.342 218.237 509.03 220.585C510.103 224.715 511.428 228.776 512.997 232.744L513.579 234.07C513.579 233.951 513.685 233.845 513.724 233.725L513.261 232.651C511.751 228.672 510.475 224.607 509.439 220.478C508.765 218.078 508.038 215.519 507.204 212.814C506.781 211.488 506.318 210.069 505.789 208.677C505.266 207.254 504.824 205.802 504.467 204.328C503.647 201.304 502.972 198.095 502.285 194.741C501.746 191.18 500.61 187.737 498.926 184.557C496.968 181.18 494.055 178.461 490.554 176.747C488.67 176.079 486.749 175.521 484.801 175.076C482.854 174.519 480.956 173.801 479.128 172.928C475.367 170.906 471.368 169.364 467.225 168.34C463.014 167.045 458.877 165.518 454.834 163.765L442.124 158.594L435.631 155.942L433.264 154.974C433.375 155.168 433.455 155.378 433.502 155.597C433.486 155.687 433.464 155.775 433.436 155.862V155.862Z" fill="#3F00F9"/>
<path d="M482.288 237.637L482.393 237.027L482.473 236.496C482.473 236.138 482.552 235.78 482.579 235.396C482.648 234.624 482.67 233.849 482.645 233.075C482.598 231.381 482.331 229.701 481.851 228.076C480.793 224.642 478.783 221.261 477.487 217.256C477.156 216.261 476.945 215.214 476.68 214.14C476.416 213.066 476.098 211.978 475.741 210.891C475.014 208.716 474.207 206.515 473.361 204.261C472.551 201.863 471.459 199.571 470.107 197.432C469.337 196.331 468.323 195.424 467.145 194.78C465.923 194.166 464.624 193.72 463.283 193.454C460.634 192.783 458.129 191.632 455.891 190.06C454.753 189.264 453.695 188.296 452.558 187.408C451.421 186.519 450.257 185.617 449.014 184.755C446.514 183.125 443.724 181.958 441.079 180.552C438.434 179.146 435.643 177.688 432.919 176.123C430.132 174.603 427.458 172.883 424.918 170.978C423.706 169.929 422.647 168.715 421.77 167.372C420.848 166.039 420.105 164.59 419.562 163.062C419.021 161.527 418.791 159.9 418.887 158.275C418.973 156.639 419.425 155.044 420.21 153.608C420.446 153.204 420.745 152.842 421.096 152.534C421.627 151.903 422.262 151.37 422.974 150.956C422.477 150.991 421.993 151.121 421.545 151.34C420.728 151.769 420.049 152.422 419.588 153.223C418.771 154.759 418.285 156.45 418.162 158.186C418.039 159.922 418.282 161.665 418.874 163.301C420.034 166.462 421.951 169.289 424.455 171.535C427.029 173.465 429.738 175.206 432.562 176.746C435.313 178.298 438.037 179.783 440.761 181.162C443.486 182.541 446.25 183.734 448.696 185.326C449.907 186.118 451.077 186.972 452.201 187.885C453.325 188.773 454.396 189.741 455.573 190.537C457.879 192.144 460.455 193.321 463.178 194.011C464.469 194.236 465.724 194.637 466.907 195.204C468.013 195.808 468.964 196.661 469.684 197.697C471.003 199.776 472.077 202.001 472.885 204.327C473.744 206.595 474.564 208.809 475.305 210.957C475.662 212.031 475.979 213.092 476.244 214.153C476.508 215.214 476.733 216.275 477.077 217.296C478.399 221.353 480.463 224.735 481.507 228.089C482.412 231.098 482.602 234.276 482.063 237.372L481.415 237.65L480.714 237.981C480.264 238.207 479.841 238.446 479.391 238.698C478.633 239.161 477.917 239.689 477.249 240.275C476.741 240.71 476.264 241.18 475.821 241.681L475.979 241.814C477.735 239.955 479.893 238.526 482.288 237.637V237.637Z" fill="#3F00F9"/>
<path d="M424.112 151.751C425.736 152.17 427.279 152.86 428.674 153.794C429.177 154.112 429.714 154.375 430.274 154.576L431.941 155.239L433.263 155.77C433.263 155.77 433.263 155.677 433.263 155.624C433.21 155.349 433.102 155.087 432.946 154.855L432.311 154.603L430.658 153.926C430.097 153.732 429.56 153.474 429.058 153.157C427.586 152.175 425.958 151.453 424.244 151.022L423.569 150.956C423.064 151.221 422.59 151.541 422.154 151.91C422.783 151.694 423.456 151.639 424.112 151.751Z" fill="#3F00F9"/>
<path d="M517.849 241.693C518.114 242.078 518.273 242.263 518.273 242.263C518.273 242.263 518.167 242.051 517.916 241.64L516.831 239.85C515.73 237.946 514.728 235.986 513.83 233.977C513.79 234.09 513.741 234.201 513.685 234.308C514.584 236.239 515.595 238.116 516.712 239.93C517.188 240.712 517.585 241.295 517.849 241.693Z" fill="#3F00F9"/>
<path d="M513.685 234.28C513.741 234.174 513.79 234.063 513.83 233.949L513.711 233.685C513.711 233.804 513.618 233.91 513.565 234.029L513.685 234.28Z" fill="#3F00F9"/>
<path d="M375.734 235.782C376.246 235.108 376.919 234.574 377.692 234.23C379.411 233.341 381.209 232.559 382.902 231.577C384.066 230.941 385.203 230.251 386.301 229.495C386.3 229.241 386.326 228.988 386.38 228.739C385.164 229.562 383.921 230.344 382.624 231.06C380.945 231.989 379.173 232.771 377.414 233.713C376.593 234.093 375.869 234.655 375.298 235.357C375.417 235.524 375.565 235.667 375.734 235.782V235.782Z" fill="#3F00F9"/>
<path d="M517.401 432.056C514.022 430.861 510.886 429.064 508.144 426.752C505.366 424.325 502.444 421.899 499.375 419.525C496.307 417.152 493.12 414.804 489.734 412.55C486.349 410.296 482.752 408.214 479.154 406.026C471.907 401.677 464.369 397.142 456.672 392.262C452.797 389.862 449.068 387.104 444.994 384.704C440.921 382.304 436.716 380.143 432.655 377.491C430.612 376.173 428.676 374.697 426.863 373.075C425.009 371.478 423.317 369.701 421.811 367.771C420.33 365.782 418.981 363.647 417.473 361.605C415.966 359.563 414.392 357.561 412.765 355.572C409.447 351.556 405.855 347.776 402.013 344.261C400.037 342.545 398.217 340.654 396.578 338.612C395.013 336.505 393.999 334.039 393.629 331.438C393.495 330.116 393.495 328.783 393.629 327.46C393.743 326.102 393.779 324.738 393.734 323.376C393.637 320.613 393.192 317.873 392.412 315.221C391.604 312.85 390.654 310.53 389.568 308.273C389.357 308.366 389.132 308.472 388.907 308.551C389.983 310.782 390.924 313.076 391.724 315.42C392.49 318.008 392.934 320.68 393.047 323.376C393.047 324.702 393.047 326.028 392.941 327.354C392.795 328.716 392.795 330.09 392.941 331.452C393.318 334.168 394.373 336.745 396.009 338.944C397.674 341.026 399.529 342.948 401.55 344.685C405.363 348.181 408.933 351.933 412.236 355.916C413.863 357.892 415.45 359.894 416.931 361.923C418.412 363.952 419.774 366.074 421.282 368.089C422.813 370.072 424.536 371.897 426.426 373.539C428.265 375.179 430.228 376.674 432.298 378.008C436.411 380.66 440.683 382.808 444.703 385.234C448.724 387.661 452.48 390.366 456.368 392.766C464.078 397.646 471.616 402.168 478.85 406.504C482.487 408.678 486.058 410.773 489.43 412.988C492.803 415.202 496.043 417.576 499.058 419.936C502.073 422.296 505.049 424.696 507.826 427.11C510.6 429.45 513.772 431.269 517.189 432.48C519.869 433.445 522.608 434.233 525.389 434.84C526.209 434.84 527.016 434.84 527.836 434.84C524.287 434.201 520.797 433.27 517.401 432.056Z" fill="#3F00F9"/>
<path d="M408.995 239.175C408.572 239.494 408.135 239.799 407.673 240.09C406.788 240.659 405.864 241.164 404.908 241.602C403.959 242.032 402.977 242.387 401.973 242.663C400.963 242.9 399.938 243.064 398.904 243.153C396.841 243.366 394.752 243.419 392.675 243.512C390.637 243.658 388.591 243.658 386.552 243.512C384.567 243.293 382.639 242.709 380.866 241.788C379.057 241.037 377.433 239.901 376.105 238.459C375.819 238.151 375.618 237.775 375.521 237.366C375.424 236.957 375.433 236.53 375.549 236.126C375.37 236.003 375.213 235.851 375.086 235.675V235.741C374.888 236.26 374.838 236.823 374.941 237.369C375.043 237.914 375.295 238.42 375.668 238.831C377.053 240.355 378.755 241.554 380.654 242.345C382.488 243.301 384.484 243.908 386.539 244.135C388.607 244.307 390.684 244.334 392.755 244.214C394.831 244.121 396.921 244.068 399.023 243.856C400.087 243.756 401.144 243.583 402.184 243.339C403.225 243.058 404.242 242.695 405.226 242.252C406.216 241.804 407.171 241.281 408.082 240.687C408.532 240.395 408.982 240.077 409.405 239.759L410.053 239.242C410.212 239.122 410.053 239.242 410.198 239.242L409.431 238.963L408.995 239.175Z" fill="#3F00F9"/>
<path d="M484.18 247.847C485.094 248.126 486.033 248.317 486.983 248.417C489.47 248.921 490.951 249.332 490.951 249.292C489.654 248.838 488.329 248.47 486.983 248.192C486.087 248.079 485.202 247.888 484.338 247.622C482.804 246.919 483.016 246.017 480.596 243.909C479.889 243.2 479.048 242.641 478.123 242.265C477.44 242.011 476.721 241.872 475.993 241.854L475.888 241.96C475.853 241.987 475.822 242.018 475.795 242.052C476.581 242.115 477.35 242.312 478.07 242.636C478.879 243.043 479.612 243.585 480.238 244.24C483.029 246.879 483.029 247.356 484.18 247.847Z" fill="#3F00F9"/>
<path d="M392.095 224.827C392.756 224.137 393.417 223.421 393.972 222.758C394.602 222.107 395.288 221.512 396.022 220.981C397.448 219.884 399.019 218.992 400.691 218.329C404.05 217.136 407.462 216.141 410.715 214.948C413.969 213.755 417.129 212.482 420.211 211.262C423.292 210.042 426.4 209.1 429.468 208.265C430.972 207.836 432.5 207.499 434.044 207.257C435.517 206.964 437.039 207.042 438.474 207.483C439.858 207.986 441.14 208.736 442.257 209.697C443.381 210.638 444.452 211.633 445.51 212.601C447.562 214.495 449.513 216.496 451.356 218.594C454.584 222.573 458.122 226.288 461.936 229.706C466.948 234.361 471.563 238.392 475.637 241.892C475.637 241.892 475.769 241.76 475.835 241.694C471.775 238.153 467.186 234.109 462.187 229.441C458.389 226.038 454.869 222.335 451.66 218.369C449.812 216.254 447.852 214.24 445.788 212.336C444.743 211.354 443.672 210.347 442.521 209.405C441.355 208.39 440.009 207.603 438.554 207.085C437.045 206.623 435.448 206.537 433.899 206.833C432.338 207.08 430.792 207.416 429.27 207.841C426.202 208.676 423.094 209.657 420.012 210.837C416.931 212.018 413.783 213.357 410.517 214.497C407.25 215.637 403.904 216.659 400.479 217.865C398.762 218.525 397.142 219.418 395.665 220.517C394.908 221.074 394.2 221.695 393.549 222.374C392.901 223.05 392.319 223.7 391.671 224.416C390.118 225.96 388.427 227.358 386.619 228.593C386.577 228.843 386.551 229.095 386.54 229.348C388.534 228.026 390.394 226.512 392.095 224.827Z" fill="#3F00F9"/>
<path d="M389.276 307.504C388.192 304.967 387.287 302.358 386.566 299.694V299.694L385.918 300.066C386.646 302.701 387.552 305.283 388.628 307.796L388.827 308.26C389.048 308.174 389.264 308.076 389.475 307.968C389.409 307.796 389.342 307.65 389.276 307.504Z" fill="#3F00F9"/>
<path d="M424.746 235.356C424.244 235.582 423.741 235.794 423.225 235.979C419.183 237.54 414.9 238.38 410.569 238.459H410.172C410.172 238.459 409.934 238.459 409.842 238.459L409.723 238.566L411.045 239.056C415.312 238.937 419.527 238.099 423.516 236.576C424.028 236.382 424.543 236.17 425.064 235.94C425.064 235.688 425.13 235.436 425.156 235.17L424.746 235.356Z" fill="#3F00F9"/>
<path d="M386.473 297.824C386.726 297.251 387.134 296.759 387.65 296.405C388.807 295.705 390.112 295.287 391.459 295.185C394.214 294.875 397.003 295.192 399.619 296.114C402.233 297.146 404.622 298.677 406.654 300.622C408.811 302.477 410.75 304.573 412.434 306.868C414.082 309.223 415.571 311.686 416.891 314.24C418.282 316.784 419.518 319.41 420.594 322.103L420.792 322.621L420.898 322.872L420.977 323.085C420.98 323.132 421.001 323.175 421.036 323.207C421.07 323.239 421.115 323.257 421.162 323.257L421.731 323.496L422.22 323.721C422.85 324.043 423.448 324.425 424.006 324.862C424.561 325.303 425.075 325.796 425.54 326.333C426.022 326.904 426.544 327.44 427.1 327.938C428.224 328.932 429.362 329.847 430.512 330.775C431.681 331.723 432.955 332.533 434.308 333.189C436.164 334.168 437.957 335.262 439.677 336.464L442.243 338.294C443.089 338.988 444.04 339.543 445.06 339.938C445.661 340.11 446.305 340.044 446.858 339.753C447.319 339.42 447.722 339.012 448.049 338.546C448.717 337.781 449.472 337.096 450.297 336.504C451.104 335.92 452.029 335.363 452.862 334.754L455.336 332.831C456.989 331.508 458.296 329.801 459.144 327.858C460.038 326 460.763 324.065 461.313 322.077C462.433 318.189 463.255 314.222 463.773 310.209V310.209C464.21 306.43 464.514 302.77 464.672 299.19C464.769 297.422 464.822 295.654 464.831 293.886C464.831 292.998 464.831 292.122 464.831 291.234V288.502L463.773 286.911L462.821 285.373C462.199 284.352 461.591 283.304 461.009 282.257C459.855 280.172 458.826 278.02 457.928 275.812C456.191 271.392 454.232 267.064 452.056 262.844C451.501 261.797 450.864 260.794 450.151 259.847C449.49 258.906 448.895 257.911 448.313 256.917C447.789 255.846 447.121 254.851 446.329 253.96C445.892 253.53 445.393 253.168 444.848 252.886C444.345 252.695 443.893 252.391 443.526 251.997C443.19 251.586 442.958 251.099 442.851 250.579C442.646 249.983 442.307 249.443 441.859 249.001C441.419 248.578 440.915 248.229 440.365 247.966L439.571 247.608C439.338 247.498 439.117 247.365 438.91 247.21C437.217 245.792 435.67 244.081 434.096 242.49C432.522 240.899 431.041 239.188 429.309 237.703C428.445 236.97 427.511 236.326 426.518 235.78L425.791 235.369L425.606 235.263C425.563 235.241 425.523 235.215 425.487 235.184C425.487 235.436 425.421 235.674 425.381 235.913H425.474L426.188 236.311C427.129 236.844 428.015 237.47 428.833 238.18C430.499 239.599 431.98 241.31 433.554 242.914C435.128 244.519 436.649 246.203 438.46 247.701C438.703 247.898 438.97 248.063 439.254 248.192L440.021 248.537C440.509 248.761 440.956 249.066 441.344 249.438C441.718 249.809 441.999 250.263 442.163 250.764C442.304 251.367 442.58 251.929 442.97 252.408C443.393 252.87 443.912 253.233 444.491 253.469C444.976 253.716 445.422 254.033 445.814 254.411C446.55 255.266 447.177 256.21 447.678 257.222C448.273 258.23 448.882 259.237 449.556 260.205C450.244 261.135 450.863 262.115 451.408 263.136C453.57 267.339 455.516 271.649 457.24 276.051C458.151 278.281 459.193 280.455 460.361 282.562C460.943 283.623 461.551 284.67 462.186 285.718L463.152 287.256L464.09 288.701V291.194V293.846C464.09 295.61 464.024 297.373 463.945 299.15C463.773 302.717 463.482 306.364 463.032 310.116H463.363H463.019V310.222V310.408V310.766L462.9 311.509L462.675 312.967C462.508 313.948 462.323 314.93 462.12 315.911C461.736 317.86 461.247 319.889 460.678 321.745C460.133 323.693 459.425 325.592 458.562 327.421C457.752 329.264 456.509 330.884 454.939 332.141L452.505 334.024C451.672 334.647 450.813 335.151 449.927 335.788C449.056 336.418 448.258 337.143 447.546 337.949C447.189 338.347 446.911 338.811 446.567 338.983C446.184 339.182 445.739 339.225 445.324 339.103C444.369 338.735 443.477 338.22 442.679 337.578L440.1 335.735C438.354 334.514 436.535 333.402 434.652 332.406C433.347 331.775 432.118 330.997 430.988 330.086C429.851 329.158 428.687 328.23 427.616 327.275C427.074 326.798 426.57 326.279 426.108 325.723C425.611 325.152 425.062 324.628 424.468 324.159C423.872 323.692 423.229 323.288 422.551 322.952L422.048 322.7L421.612 322.528L421.295 321.719C420.212 318.992 418.962 316.335 417.552 313.763C416.22 311.174 414.713 308.68 413.042 306.297C411.323 303.963 409.349 301.828 407.157 299.933C405.052 297.931 402.583 296.356 399.883 295.292C397.158 294.328 394.25 294.002 391.38 294.337C389.919 294.445 388.505 294.9 387.253 295.663C386.61 296.104 386.105 296.721 385.799 297.44C385.627 298.171 385.649 298.935 385.865 299.654C386.063 299.521 386.288 299.402 386.526 299.27C386.401 298.798 386.383 298.304 386.473 297.824V297.824Z" fill="#3F00F9"/>
<path d="M527.874 434.893C527.054 434.893 526.248 434.893 525.428 434.893C526.75 435.172 527.98 435.424 529.237 435.636C530.096 435.636 530.943 435.636 531.802 435.636C530.506 435.406 529.197 435.158 527.874 434.893Z" fill="#3F00F9"/>
<path d="M475.769 242.052C475.769 241.986 475.901 241.92 475.968 241.853L475.808 241.721C475.742 241.721 475.662 241.853 475.609 241.92L475.769 242.052Z" fill="#3F00F9"/>
<path d="M419.377 157.837C419.444 158.152 419.555 158.456 419.708 158.739C419.866 159.047 420.122 159.295 420.435 159.442C421.018 159.705 421.619 159.927 422.234 160.105L425.791 161.205C426.894 161.592 428.026 161.889 429.177 162.094C429.476 162.142 429.782 162.097 430.055 161.964C430.327 161.831 430.552 161.617 430.698 161.351C430.867 160.857 430.982 160.345 431.042 159.826C431.227 158.949 431.653 158.141 432.272 157.492C432.549 157.201 432.867 156.962 433.131 156.67C433.33 156.448 433.438 156.16 433.435 155.861L433.237 155.769C433.243 155.905 433.222 156.041 433.174 156.168C433.126 156.296 433.053 156.413 432.959 156.511C432.721 156.776 432.377 157.015 432.086 157.32C431.423 157.991 430.965 158.837 430.764 159.76C430.693 160.245 430.582 160.724 430.433 161.192C430.314 161.401 430.133 161.569 429.915 161.671C429.697 161.773 429.453 161.805 429.217 161.762C428.094 161.541 426.989 161.24 425.91 160.86L422.366 159.747C421.768 159.583 421.184 159.37 420.62 159.11C420.384 158.97 420.183 158.778 420.032 158.548C419.88 158.318 419.783 158.057 419.747 157.784C419.575 156.669 419.756 155.529 420.263 154.522C420.671 153.498 421.32 152.588 422.154 151.87C422.05 151.902 421.948 151.942 421.85 151.989C421.567 152.129 421.304 152.307 421.07 152.52C420.614 153.061 420.236 153.664 419.946 154.31C419.392 155.397 419.193 156.631 419.377 157.837V157.837Z" fill="#3F00F9"/>
<path d="M421.058 152.56C421.292 152.348 421.554 152.169 421.838 152.03C421.936 151.982 422.037 151.942 422.142 151.91C422.577 151.541 423.052 151.221 423.557 150.955C423.35 150.942 423.142 150.942 422.935 150.955C422.222 151.377 421.586 151.92 421.058 152.56V152.56Z" fill="#3F00F9"/>
<path d="M433.238 155.768L433.437 155.861C433.443 155.773 433.443 155.684 433.437 155.596C433.39 155.377 433.309 155.167 433.198 154.972L432.92 154.853C433.076 155.086 433.184 155.347 433.238 155.622C433.238 155.622 433.238 155.728 433.238 155.768Z" fill="#3F00F9"/>
<path d="M484.061 150.558C483.837 150.802 483.702 151.115 483.678 151.447C483.681 151.62 483.72 151.791 483.793 151.949C483.866 152.106 483.971 152.247 484.101 152.361C484.559 152.797 485.065 153.18 485.609 153.502C486.68 154.178 487.777 154.828 488.928 155.544C490.041 156.26 491.26 156.797 492.538 157.135C493.169 157.281 493.825 157.281 494.456 157.135C495.011 156.912 496.597 155.087 497.126 154.807C499.215 153.839 499.436 154.209 501.116 153.599C501.473 153.467 501.922 153.202 501.975 152.751L501.777 152.631C501.777 152.989 501.407 153.202 501.01 153.347C499.039 153.886 498.586 153.78 496.689 154.539C496.147 154.765 494.906 156.605 494.377 156.777C493.798 156.909 493.197 156.909 492.618 156.777C491.38 156.448 490.201 155.924 489.126 155.226C487.989 154.563 486.878 153.9 485.82 153.197C485.3 152.89 484.812 152.53 484.365 152.123C484.267 152.042 484.187 151.941 484.13 151.826C484.073 151.712 484.041 151.587 484.035 151.46C484.057 151.206 484.164 150.968 484.339 150.784C485.131 150.062 486.083 149.539 487.116 149.259C487.782 149.027 488.469 148.858 489.166 148.755C488.761 148.728 488.355 148.728 487.949 148.755C487.645 148.834 487.328 148.901 487.01 149.007C485.918 149.281 484.907 149.813 484.061 150.558Z" fill="#3F00F9"/>
<path d="M502.574 153.316L502.773 153.435C502.781 153.405 502.781 153.373 502.773 153.342C502.768 152.983 502.631 152.639 502.389 152.374L501.86 152.096C501.953 152.202 502.059 152.281 502.151 152.401C502.393 152.648 502.542 152.971 502.574 153.316Z" fill="#3F00F9"/>
<path d="M489.8 148.383C489.161 148.44 488.529 148.551 487.909 148.715C488.314 148.688 488.721 148.688 489.126 148.715L489.826 148.596C490.92 148.497 492.021 148.533 493.105 148.702C492.616 148.569 492.127 148.45 491.625 148.344C491.016 148.31 490.406 148.324 489.8 148.383V148.383Z" fill="#3F00F9"/>
<path d="M528.8 163.553C528.278 163.661 527.784 163.881 527.353 164.196C526.922 164.512 526.563 164.916 526.301 165.382C526.218 165.667 526.198 165.967 526.244 166.261C526.29 166.554 526.399 166.834 526.565 167.08C526.84 167.568 527.14 168.042 527.465 168.499C528.066 169.42 528.719 170.305 529.422 171.151C530.123 171.942 531.044 172.506 532.067 172.768C532.977 172.981 533.912 173.062 534.844 173.007C535.665 173.038 536.484 172.903 537.251 172.609C537.767 172.371 537.886 171.986 538.177 171.628C538.177 171.562 538.111 171.482 538.071 171.416C537.78 171.761 537.661 172.145 537.145 172.357C536.41 172.63 535.627 172.747 534.844 172.702C533.955 172.738 533.066 172.653 532.199 172.45C531.244 172.188 530.385 171.654 529.726 170.912C529.042 170.061 528.402 169.176 527.809 168.26C527.492 167.833 527.196 167.39 526.923 166.934C526.782 166.734 526.688 166.506 526.647 166.265C526.606 166.024 526.619 165.777 526.685 165.542C526.923 165.123 527.249 164.761 527.639 164.48C528.029 164.199 528.475 164.004 528.946 163.911C530.578 163.433 532.313 163.433 533.945 163.911C534.196 163.99 534.421 164.083 534.646 164.176C534.56 164.047 534.467 163.923 534.368 163.805L534.024 163.659C532.332 163.108 530.514 163.071 528.8 163.553Z" fill="#3F00F9"/>
<path d="M538.547 172.184C538.709 172.004 538.847 171.803 538.958 171.588L538.839 171.376C538.733 171.591 538.599 171.791 538.441 171.972C538.481 172.051 538.521 172.118 538.547 172.184Z" fill="#3F00F9"/>
<path d="M534.712 164.573C535.047 164.714 535.373 164.873 535.69 165.05C535.624 164.931 535.544 164.812 535.465 164.693C535.137 164.498 534.792 164.334 534.435 164.203L534.712 164.573Z" fill="#3F00F9"/>
<path d="M378.392 235.754C379.08 235.476 379.794 235.171 380.508 234.826C381.842 234.163 383.132 233.414 384.37 232.585C384.933 232.241 385.456 231.836 385.931 231.378C386.331 230.925 386.548 230.338 386.539 229.733C386.539 229.601 386.539 229.481 386.539 229.349L386.288 229.521C386.288 229.587 386.288 229.654 386.288 229.72C386.282 230.258 386.075 230.774 385.706 231.166C385.24 231.594 384.73 231.972 384.185 232.293C382.952 233.103 381.671 233.839 380.35 234.494C379.649 234.839 378.935 235.144 378.26 235.423C377.629 235.706 376.961 235.898 376.276 235.993C376.079 235.977 375.891 235.903 375.734 235.781C375.687 235.833 375.647 235.891 375.615 235.953C375.615 235.953 375.615 236.033 375.615 236.073C375.819 236.217 376.055 236.308 376.303 236.338C377.027 236.26 377.733 236.063 378.392 235.754V235.754Z" fill="#3F00F9"/>
<path d="M375.614 236.072C375.614 236.072 375.614 235.992 375.614 235.952C375.646 235.89 375.686 235.832 375.733 235.78C375.563 235.662 375.415 235.514 375.297 235.343C375.228 235.431 375.166 235.524 375.112 235.621C375.251 235.801 375.421 235.953 375.614 236.072V236.072Z" fill="#3F00F9"/>
<path d="M386.554 229.35C386.564 229.096 386.591 228.844 386.633 228.594L386.381 228.766C386.327 229.014 386.301 229.268 386.302 229.522L386.554 229.35Z" fill="#3F00F9"/>
<path d="M393.179 306.298L396.459 304.574C397.053 304.277 397.631 303.95 398.192 303.593C398.517 303.408 398.776 303.126 398.932 302.785C399.089 302.445 399.135 302.064 399.064 301.696C398.959 300.991 398.667 300.327 398.218 299.774C397.8 299.244 397.311 298.775 396.763 298.381C395.739 297.606 394.49 297.187 393.206 297.188C392.062 297.225 390.934 297.462 389.873 297.891C388.969 298.222 388.086 298.607 387.228 299.044C386.99 299.164 386.792 299.283 386.58 299.416V299.668L387.307 299.27C388.168 298.858 389.051 298.495 389.952 298.182C390.977 297.779 392.065 297.559 393.166 297.533C394.38 297.536 395.559 297.936 396.525 298.673C397.616 299.372 398.39 300.472 398.681 301.736C398.716 302.042 398.675 302.352 398.562 302.638C398.422 302.906 398.211 303.13 397.954 303.288C397.425 303.646 396.829 303.951 396.274 304.256L392.994 306.006L390.045 307.624L389.437 307.942L389.556 308.22L390.19 307.902L393.179 306.298Z" fill="#3F00F9"/>
<path d="M386.512 299.415C386.274 299.547 386.05 299.667 385.852 299.799C385.859 299.861 385.859 299.923 385.852 299.984L386.499 299.614L386.512 299.415Z" fill="#3F00F9"/>
<path d="M389.462 307.942C389.251 308.05 389.035 308.147 388.814 308.233C388.855 308.319 388.891 308.408 388.92 308.498C389.145 308.419 389.369 308.313 389.581 308.22L389.462 307.942Z" fill="#3F00F9"/>
<path d="M402.608 234.547C401.536 233.751 400.915 233.221 400.875 233.221C400.836 233.221 400.994 233.406 401.259 233.672C401.523 233.937 401.933 234.295 402.449 234.733C403.805 235.839 405.267 236.807 406.813 237.624C407.671 238.074 408.554 238.472 409.458 238.817L409.657 238.658L409.762 238.579C408.903 238.221 407.977 237.796 407.025 237.253C405.483 236.47 404.006 235.565 402.608 234.547V234.547Z" fill="#3F00F9"/>
<path d="M409.617 238.684L409.419 238.843L410.185 239.121H410.582H410.991L409.67 238.631L409.617 238.684Z" fill="#3F00F9"/>
<path d="M425.593 228.978C425.567 228.395 425.473 227.816 425.315 227.254C425.27 227.832 425.27 228.413 425.315 228.991C425.315 230.065 425.315 231.537 425.315 233.155C425.315 233.871 425.209 234.56 425.143 235.197L425.275 235.13C425.351 235.139 425.424 235.166 425.487 235.21C425.567 234.573 425.633 233.884 425.673 233.181C425.751 231.78 425.725 230.375 425.593 228.978V228.978Z" fill="#3F00F9"/>
<path d="M425.262 235.129L425.13 235.196C425.13 235.46 425.064 235.712 425.037 235.964L425.262 235.871H425.342C425.342 235.633 425.408 235.394 425.448 235.143C425.387 235.126 425.324 235.121 425.262 235.129Z" fill="#3F00F9"/>
<path d="M529.117 199.421C530.307 199.036 531.114 199.076 531.114 198.996C530.926 198.965 530.734 198.965 530.545 198.996C530.036 199.013 529.53 199.088 529.038 199.222C527.781 199.527 526.207 200.389 524.396 200.986C523.717 201.194 523.023 201.344 522.319 201.436L522.491 201.635V201.768C523.195 201.693 523.891 201.551 524.568 201.344C526.379 200.667 527.914 199.805 529.117 199.421Z" fill="#3F00F9"/>
<path d="M522.49 201.582L522.319 201.383L521.685 201.463L521.883 201.701V201.794L522.464 201.714L522.49 201.582Z" fill="#3F00F9"/>
<path d="M510.365 175.553C509.878 175.739 509.43 176.013 509.043 176.362C508.067 177.15 507.235 178.101 506.583 179.174C506.425 179.426 506.292 179.691 506.16 179.943H506.239C506.333 179.962 506.418 180.014 506.478 180.089C506.61 179.837 506.742 179.585 506.901 179.333C507.856 177.903 509.024 176.628 510.365 175.553V175.553Z" fill="#3F00F9"/>
<path d="M506.252 179.916H506.173C506.067 180.128 505.988 180.313 505.896 180.512H506.028L506.107 180.618L506.173 180.697C506.265 180.485 506.371 180.274 506.49 180.048C506.428 179.978 506.344 179.932 506.252 179.916V179.916Z" fill="#3F00F9"/>
<defs>
<filter id="filter0_f_1510_8451" x="187.19" y="228.573" width="124.865" height="124.864" filterUnits="userSpaceOnUse" color-interpolation-filters="sRGB">
<feFlood flood-opacity="0" result="BackgroundImageFix"/>
<feBlend mode="normal" in="SourceGraphic" in2="BackgroundImageFix" result="shape"/>
<feGaussianBlur stdDeviation="1.27193" result="effect1_foregroundBlur_1510_8451"/>
</filter>
<filter id="filter1_f_1510_8451" x="308.009" y="210.569" width="122.257" height="122.256" filterUnits="userSpaceOnUse" color-interpolation-filters="sRGB">
<feFlood flood-opacity="0" result="BackgroundImageFix"/>
<feBlend mode="normal" in="SourceGraphic" in2="BackgroundImageFix" result="shape"/>
<feGaussianBlur stdDeviation="1.27193" result="effect1_foregroundBlur_1510_8451"/>
</filter>
<radialGradient id="paint0_radial_1510_8451" cx="0" cy="0" r="1" gradientUnits="userSpaceOnUse" gradientTransform="translate(393.026 286.21) rotate(-179.815) scale(197.15 180.062)">
<stop stop-color="#0894FF"/>
<stop offset="0.290475" stop-color="#6E53FF"/>
<stop offset="0.609151" stop-color="#B038EA"/>
<stop offset="0.850793" stop-color="#F95088"/>
<stop offset="1" stop-color="#FF6F62"/>
</radialGradient>
<radialGradient id="paint1_radial_1510_8451" cx="0" cy="0" r="1" gradientUnits="userSpaceOnUse" gradientTransform="translate(393.026 286.21) rotate(-179.815) scale(197.15 180.062)">
<stop stop-color="#0894FF"/>
<stop offset="0.290475" stop-color="#6E53FF"/>
<stop offset="0.609151" stop-color="#B038EA"/>
<stop offset="0.850793" stop-color="#F95088"/>
<stop offset="1" stop-color="#FF6F62"/>
</radialGradient>
<radialGradient id="paint2_radial_1510_8451" cx="0" cy="0" r="1" gradientUnits="userSpaceOnUse" gradientTransform="translate(388.574 288.754) rotate(-179.256) scale(195.894 185.588)">
<stop stop-color="#0894FF"/>
<stop offset="0.290475" stop-color="#6E53FF"/>
<stop offset="0.609151" stop-color="#B038EA"/>
<stop offset="0.850793" stop-color="#F95088"/>
<stop offset="1" stop-color="#FF6F62"/>
</radialGradient>
<linearGradient id="paint3_linear_1510_8451" x1="375.855" y1="221.316" x2="342.785" y2="318.618" gradientUnits="userSpaceOnUse">
<stop offset="0.237373" stop-color="white" stop-opacity="0"/>
<stop offset="0.4371" stop-color="white"/>
<stop offset="0.596678" stop-color="white" stop-opacity="0"/>
</linearGradient>
<radialGradient id="paint4_radial_1510_8451" cx="0" cy="0" r="1" gradientUnits="userSpaceOnUse" gradientTransform="translate(388.573 288.754) rotate(-179.256) scale(195.894 185.588)">
<stop stop-color="#0894FF"/>
<stop offset="0.290475" stop-color="#6E53FF"/>
<stop offset="0.609151" stop-color="#B038EA"/>
<stop offset="0.850793" stop-color="#F95088"/>
<stop offset="1" stop-color="#FF6F62"/>
</radialGradient>
<linearGradient id="paint5_linear_1510_8451" x1="375.854" y1="221.316" x2="342.784" y2="318.619" gradientUnits="userSpaceOnUse">
<stop offset="0.237373" stop-color="white" stop-opacity="0"/>
<stop offset="0.4371" stop-color="white"/>
<stop offset="0.596678" stop-color="white" stop-opacity="0"/>
</linearGradient>
</defs>
</svg>
