<svg width="668" height="453" viewBox="0 0 668 453" fill="none" xmlns="http://www.w3.org/2000/svg">
<g clip-path="url(#clip0_1396_6916)">
<g clip-path="url(#clip1_1396_6916)">
<path d="M243.36 255.712L238.25 293.283L228.773 304.761L221.914 311.624L224.533 293.782L225.275 255.712H243.36Z" fill="#D6CEFE"/>
<path d="M238.592 287.74L241.631 292.169C242.188 292.98 242.774 293.967 242.452 294.896C242.061 296.011 240.634 296.333 239.452 296.265C238.893 296.161 238.315 296.237 237.801 296.48C237.583 296.654 237.395 296.862 237.244 297.096L229.994 307.244C229.232 308.31 228.48 309.375 227.64 310.382C226.282 312.035 224.709 313.521 223.487 315.271C222.977 316.099 222.374 316.867 221.69 317.558C221.342 317.9 220.912 318.148 220.442 318.278C219.972 318.408 219.477 318.416 219.003 318.301C218.504 318.085 218.08 317.727 217.783 317.272C217.486 316.816 217.329 316.284 217.332 315.74C217.358 314.653 217.604 313.582 218.055 312.592L221.729 302.815C221.864 302.415 222.044 302.031 222.266 301.671C222.498 301.369 222.76 301.091 223.048 300.84L235.251 289.646C236.092 288.741 237.152 288.068 238.329 287.691" fill="#292B83"/>
</g>
<g clip-path="url(#clip2_1396_6916)">
<path d="M365.861 372.489C364.962 375.725 366.437 379.333 368.919 381.571C371.524 383.734 374.701 385.092 378.064 385.482C379.205 385.57 380.321 385.865 381.356 386.352C381.872 386.603 382.295 387.011 382.567 387.516C382.839 388.021 382.945 388.599 382.871 389.168C382.47 390.869 380.243 391.221 378.494 391.221H342.519C342.066 391.282 341.605 391.247 341.166 391.119C340.727 390.991 340.319 390.773 339.969 390.478C339.634 390.022 339.455 389.47 339.461 388.904C339.51 387.152 339.965 385.435 340.79 383.888C343.006 378.956 345.621 374.211 348.606 369.703" fill="#492298"/>
</g>
<path d="M536.354 41.542C531.821 35.4414 523.389 30.8366 516.042 32.743C516.062 35.5635 516.304 38.378 516.765 41.1607C516.97 42.7437 517.583 44.2461 518.543 45.521C519.038 46.1407 519.709 46.595 520.469 46.8237C521.228 47.0525 522.038 47.0448 522.793 46.8018C523.321 46.4682 523.893 46.2115 524.493 46.0392C526.848 45.7655 526.984 50.2725 529.31 50.732L493.58 76.4444C492.73 77.1288 491.777 77.6733 490.756 78.0576C489.739 78.3222 488.688 78.431 487.639 78.3802H451.489C448.479 78.5081 445.466 78.2551 442.52 77.6274C439.188 76.7671 435.797 74.9388 432.515 75.9263C434.566 76.3173 435.612 78.7028 435.651 80.8146C435.69 82.9263 435.114 85.0087 435.446 87.0814C439.08 87.5702 442.5 89.0367 446.056 89.9166C449.071 90.5899 452.131 91.0441 455.211 91.2755L476.384 93.3971C483.311 94.0912 490.375 94.7853 497.185 93.3286C509.388 90.7085 519.08 81.6456 530.404 76.288C534.048 74.5576 537.888 73.1986 541.288 71.038" fill="#D6CEFE"/>
<path d="M423.653 32.8018H384.103V96.8287H423.653V32.8018Z" fill="#8954F6"/>
<path d="M608.635 152.584L643.349 117.388C643.847 116.895 644.519 116.618 645.22 116.618C645.921 116.618 646.593 116.895 647.091 117.388L667.208 137.196C667.457 137.442 667.654 137.735 667.788 138.058C667.923 138.381 667.992 138.728 667.992 139.078C667.992 139.428 667.923 139.774 667.788 140.097C667.654 140.42 667.457 140.714 667.208 140.96L632.396 175.725C631.902 176.215 631.235 176.49 630.54 176.49C629.845 176.49 629.178 176.215 628.684 175.725L608.654 156.299C608.163 155.808 607.885 155.141 607.881 154.446C607.877 153.75 608.148 153.081 608.635 152.584Z" fill="#492298"/>
<path d="M610.081 151.783L643.301 118.132C643.546 117.885 643.837 117.689 644.158 117.556C644.479 117.422 644.824 117.353 645.172 117.353C645.519 117.353 645.864 117.422 646.185 117.556C646.506 117.689 646.797 117.885 647.043 118.132L666.163 137.001C666.41 137.248 666.607 137.541 666.74 137.864C666.874 138.187 666.943 138.533 666.943 138.883C666.943 139.232 666.874 139.578 666.74 139.901C666.607 140.224 666.41 140.518 666.163 140.765L632.885 174.005C632.391 174.495 631.724 174.769 631.029 174.769C630.334 174.769 629.667 174.495 629.173 174.005L610.091 155.43C609.623 154.939 609.361 154.287 609.359 153.608C609.358 152.93 609.616 152.276 610.081 151.783Z" fill="white"/>
<path d="M629.7 161.853V149.378L639.803 154.12L639.06 137.274L647.541 144.011L648.166 134.645" stroke="#292B83" stroke-width="0.730841" stroke-miterlimit="10"/>
<path d="M623.593 164.727C624.419 164.727 625.088 164.057 625.088 163.231C625.088 162.405 624.419 161.735 623.593 161.735C622.768 161.735 622.099 162.405 622.099 163.231C622.099 164.057 622.768 164.727 623.593 164.727Z" fill="#492298"/>
<path d="M652.905 134.175C653.471 134.175 653.931 133.716 653.931 133.149C653.931 132.582 653.471 132.122 652.905 132.122C652.338 132.122 651.879 132.582 651.879 133.149C651.879 133.716 652.338 134.175 652.905 134.175Z" stroke="#292B83" stroke-width="0.50428" stroke-miterlimit="10"/>
<path d="M448.596 224.306H438.454L446.769 251.758L451.927 248.767L448.596 224.306Z" fill="#292B83"/>
<path d="M446.77 252.472H494.82V220.972H460.243L457.566 217.98H446.77V252.472Z" fill="#D6CEFE"/>
<path d="M456.228 122.616H393.238C391.446 122.616 389.994 124.069 389.994 125.862V161.674C389.994 163.466 391.446 164.92 393.238 164.92H456.228C458.019 164.92 459.471 163.466 459.471 161.674V125.862C459.471 124.069 458.019 122.616 456.228 122.616Z" fill="#492298"/>
<path d="M459.451 122.616H396.462C394.67 122.616 393.218 124.069 393.218 125.862V161.674C393.218 163.466 394.67 164.92 396.462 164.92H459.451C461.243 164.92 462.695 163.466 462.695 161.674V125.862C462.695 124.069 461.243 122.616 459.451 122.616Z" fill="#D6CEFE"/>
<path d="M454.957 123.242V163.307" stroke="#292B83" stroke-width="0.730841" stroke-miterlimit="10"/>
<path d="M403.878 123.242V163.307" stroke="#292B83" stroke-width="0.730841" stroke-miterlimit="10"/>
<path d="M398.329 146.823C399.98 146.823 401.318 145.484 401.318 143.831C401.318 142.179 399.98 140.84 398.329 140.84C396.677 140.84 395.339 142.179 395.339 143.831C395.339 145.484 396.677 146.823 398.329 146.823Z" stroke="#292B83" stroke-width="0.730841" stroke-miterlimit="10"/>
<path d="M437.204 42.168H398.719V104.709H437.204V42.168Z" fill="white" stroke="#292B83" stroke-width="0.730841" stroke-miterlimit="10"/>
<path d="M409.622 227.463L416.735 217.687C417.585 216.523 418.435 215.37 419.344 214.255C421.972 211.058 425.118 208.301 427.727 205.075C428.196 204.498 428.626 203.589 428.069 203.12C427.668 202.758 427.033 202.934 426.525 203.12L414.156 207.822C413.758 208.038 413.321 208.17 412.871 208.21C412.42 208.251 411.967 208.199 411.537 208.057C410.218 207.392 410.179 205.212 408.802 204.694C407.561 205.388 407.698 207.177 407.883 208.604C408.063 209.9 408.145 211.207 408.127 212.515C408.161 213.231 408.048 213.946 407.795 214.617C407.473 215.244 407.043 215.81 406.525 216.289L401.093 221.9" fill="#D6CEFE"/>
<path d="M243.292 252.091H222.334C220.683 252.091 219.345 253.43 219.345 255.082V255.092C219.345 256.744 220.683 258.084 222.334 258.084H243.292C244.943 258.084 246.282 256.744 246.282 255.092V255.082C246.282 253.43 244.943 252.091 243.292 252.091Z" fill="#292B83"/>
<path d="M296.287 54.9748C293.697 53.4399 290.991 51.8659 287.991 51.6703C286.326 51.6497 284.663 51.8004 283.028 52.1201C275.554 53.2248 267.943 52.6578 260.4 53.0195C260.155 53.0071 259.914 53.0874 259.726 53.2444C259.614 53.4081 259.56 53.6038 259.569 53.8016L258.592 70.3339C263.289 70.373 267.985 70.21 272.681 69.845C266.168 72.954 259.693 76.1966 253.258 79.5728C260.95 85.7711 268.835 91.7218 276.912 97.4248C277.181 97.6766 277.501 97.8693 277.849 97.9905C278.197 98.1117 278.567 98.1588 278.934 98.1287C279.456 97.937 279.911 97.5973 280.244 97.1511C282.189 95.1692 284.586 93.6897 287.229 92.8396C289.74 92.0281 292.427 91.8033 294.841 90.767C297.254 89.7306 299.481 87.5016 299.354 84.901C307.828 86.5794 316.407 87.6705 325.031 88.1664L328.714 73.5015C328.842 73.1645 328.842 72.7924 328.714 72.4554C328.521 72.1879 328.242 71.9947 327.923 71.9079C321.729 69.5126 314.987 68.359 309.301 64.9274C306.699 63.2565 304.25 61.359 301.983 59.257C299.921 57.4483 298.387 56.7933 296.326 54.9846" fill="url(#paint0_radial_1396_6916)"/>
<path d="M337.508 60.5184C337.058 60.8019 336.531 60.5184 336.071 60.1665C331.831 56.8717 329.34 51.8661 326.868 47.0854C326.118 45.3619 325.036 43.8036 323.683 42.5001C322.842 41.8153 321.904 41.2616 320.898 40.8577C317.439 39.3521 313.414 38.785 309.877 40.0853C306.34 41.3856 303.585 44.5141 301.172 47.5351C299.593 49.3527 298.277 51.3833 297.264 53.5673C295.7 57.3508 295.935 61.6036 296.189 65.6903C296.194 66.2679 296.3 66.8402 296.501 67.3816C296.965 68.2197 297.693 68.88 298.573 69.2587C302.416 71.2786 306.867 71.8145 311.079 70.7643C311.28 70.7312 311.467 70.6393 311.616 70.5003C311.753 70.2999 311.815 70.0577 311.792 69.816L311.929 64.7517C315.972 68.0967 321.055 69.9257 326.301 69.9235" fill="#8859E9"/>
<path d="M312.672 58.563L312.447 50.3115C312.456 50.1424 312.412 49.9747 312.32 49.8325C312.222 49.7469 312.11 49.6805 311.988 49.6369C311.677 49.4605 311.449 49.1678 311.353 48.8231C311.258 48.4785 311.304 48.1101 311.48 47.7989C311.675 47.4986 311.963 47.2709 312.3 47.1507C312.638 47.0306 313.005 47.0248 313.346 47.1341C313.682 47.2544 313.981 47.46 314.214 47.7308C314.447 48.0016 314.606 48.3283 314.675 48.6788C315.329 48.4344 315.573 47.6327 316.081 47.1537C317.01 46.3031 318.475 46.7235 319.687 47.0559C321.23 47.4733 322.828 47.6546 324.425 47.5936C324.127 48.1411 323.801 48.673 323.448 49.1872L319.394 55.63C319.182 56.0258 318.893 56.3749 318.544 56.6565C317.654 57.2725 316.443 56.9107 315.456 56.4903C315.235 56.371 314.983 56.3199 314.733 56.3437C314.525 56.3946 314.335 56.503 314.186 56.6565C313.537 57.1995 312.951 57.8127 312.437 58.4848" fill="#D6CEFE"/>
<path d="M252.271 79.8758C245.992 80.1203 239.839 81.7125 234.229 84.5447C228.619 87.3768 223.682 91.3826 219.755 96.2907C218.572 97.6874 217.64 99.2784 217 100.993C216.488 102.842 216.257 104.756 216.316 106.673L215.866 129.746L261.787 129.824C265.031 129.824 268.714 129.639 270.825 127.175C272.515 125.22 272.642 122.355 272.681 119.755L272.876 105.803C273.022 103.943 272.813 102.072 272.261 100.289C271.673 98.9211 270.85 97.6669 269.828 96.584C267.507 93.8994 264.884 91.4915 262.012 89.408C258.309 86.7292 253.844 84.0895 252.925 79.6313" fill="#7B46EA"/>
<path d="M277.684 98.3343C277.856 117.366 271.426 135.869 259.491 150.688C255.309 155.84 250.17 161.579 251.362 168.1C252.525 174.416 259.442 178.854 259.579 185.258C259.696 190.919 254.567 195.035 250.17 198.633C245.774 202.23 241.221 207.431 242.969 212.848C244.836 218.626 252.369 219.965 256.814 224.101C262.921 229.761 261.944 240.457 256.306 246.587C250.669 252.717 241.807 254.868 233.482 254.643C229.438 254.525 225.139 253.802 222.168 251.045C218.944 248.053 218.016 243.39 217.391 239.029C211.829 199.959 216.759 160.111 231.675 123.578C237.049 110.467 243.663 97.9139 250.239 85.3803C251.216 83.5912 252.496 81.5577 254.518 81.5186C255.84 81.6599 257.072 82.254 258.006 83.2001L276.726 98.3245" fill="#8859E9"/>
<path d="M259.149 53.4106C245.56 54.9831 231.796 53.9882 218.573 50.4776C218.318 50.3614 218.042 50.3013 217.762 50.3013C217.482 50.3013 217.206 50.3614 216.951 50.4776C216.384 50.8491 216.365 51.6508 216.394 52.3254L216.785 60.2053C216.782 60.6039 216.845 61.0003 216.97 61.3785C217.596 62.9428 219.755 62.8841 221.426 63.0699C224.621 63.4218 227.288 65.5629 230.356 66.5992C232.806 67.3128 235.347 67.6684 237.899 67.6551L257.176 68.4763" fill="#D6CEFE"/>
<path d="M329.486 72.9249C344.454 76.4542 360.077 75.1442 375.407 73.8145L383.809 73.0813L401.279 71.5659C401.504 72.1721 400.937 72.7978 400.302 73.0422C399.674 73.2007 399.072 73.4476 398.514 73.7754C397.136 74.8997 398.338 77.2266 397.674 78.869C397.165 80.1498 395.719 80.6875 394.391 81.0883L379.53 85.6638C377.332 86.3384 375.124 87.0227 372.896 87.6191C368.521 88.6146 364.095 89.3718 359.637 89.8873C357.517 90.2096 355.381 90.4152 353.238 90.5032C350.72 90.5109 348.204 90.3574 345.705 90.0437C339.11 89.3593 332.515 88.6847 325.988 87.5116" fill="#D6CEFE"/>
<path d="M351.42 208.223C356.298 219.82 360.054 231.858 362.636 244.172C363.114 247.158 363.967 250.072 365.177 252.844C369.319 252.413 371.762 248.18 374.312 244.885C376.847 241.827 379.685 239.033 382.783 236.546L401.229 220.669C401.393 220.482 401.595 220.332 401.82 220.228C402.046 220.123 402.29 220.067 402.539 220.063C402.931 220.166 403.276 220.4 403.516 220.727L409.378 226.945C409.681 227.188 409.88 227.538 409.935 227.923C409.866 228.335 409.638 228.704 409.3 228.95C401.903 236.038 397.096 245.394 390.257 253.02C381.437 262.818 369.628 269.424 356.667 271.81C352.846 272.495 348.274 272.553 345.802 269.542C344.775 268.089 344.106 266.414 343.848 264.654C339.971 246.607 342.42 227.775 350.785 211.322" fill="#492298"/>
<path d="M296.08 274.411L270.199 339.67C268.714 343.657 266.972 347.544 264.981 351.304C261.659 357.229 257.165 362.391 252.651 367.494L215.748 409.514L219.383 411.919C219.031 415.957 213.892 417.677 212.006 421.275C211.029 423.104 211.029 425.274 211.029 427.347V440.799C211.029 443.644 211.098 446.665 212.768 449.012C215.055 452.179 219.52 452.795 223.408 452.472C227.297 452.15 231.273 451.201 235.035 452.248C236.012 451.544 235.846 449.931 235.035 448.992C234.151 448.151 233.166 447.422 232.104 446.822C227.883 443.752 227.668 437.641 227.854 432.421C227.809 431.077 228.066 429.741 228.606 428.51C229.329 427.375 230.293 426.413 231.43 425.694C247.463 413.767 261.513 399.405 275.475 385.102C281.425 379.021 287.385 372.91 292.358 366.008C295.696 361.2 298.784 356.224 301.61 351.099C309.896 336.669 318.22 322.092 323.34 306.254C324.238 303.906 324.66 301.404 324.581 298.892C324.262 296.328 323.267 293.895 321.698 291.843C315.758 283.415 305.479 279.436 295.797 275.907" fill="#8954F6"/>
<g filter="url(#filter0_d_1396_6916)">
<path d="M295.983 274.391C294.669 280.318 296.378 287.268 299.003 292.742C300.336 295.454 302.217 297.86 304.525 299.808C306.834 301.757 309.521 303.205 312.418 304.063C315.88 304.852 319.433 305.165 322.979 304.992L384.103 304.845" fill="#8859E9"/>
</g>
<path d="M397.057 262.415L404.922 258.064C406.417 257.233 407.912 256.412 409.348 255.483C413.196 252.794 416.776 249.739 420.037 246.362C419.918 246.133 419.724 245.952 419.487 245.85C419.25 245.749 418.985 245.733 418.738 245.804C418.248 245.971 417.799 246.237 417.419 246.587C413.51 249.656 408.547 250.957 403.74 252.179L398.278 253.567C400.098 252.723 401.691 251.46 402.929 249.881C399.163 250.955 395.5 252.365 391.986 254.095" fill="#D6CEFE"/>
<path d="M296.6 274.714L378.104 271.928C384.855 271.693 391.783 271.488 398.202 273.541C404.621 275.594 410.6 280.384 412.134 287.003C413.922 294.658 409.487 302.235 405.295 308.893C393.076 328.446 381.556 348.387 370.737 368.716C370.21 369.962 369.373 371.053 368.304 371.884C367.278 372.44 366.139 372.755 364.973 372.803C358.164 373.592 351.3 373.805 344.455 373.438C348.138 359.751 354.518 347.129 360.547 334.429C363.576 328.065 366.546 321.661 369.076 315.081C369.858 313.048 370.864 306.693 372.584 305.51C374.303 304.327 380.244 305.51 382.354 305.51" fill="#8859E9"/>
<path d="M588.568 352.986L593.736 373.996C594.24 375.556 594.41 377.205 594.235 378.835C593.326 383.929 586.321 386.109 585.353 391.193L587.679 392.532C595.983 387.318 604.125 381.872 612.105 376.195C613.178 375.616 613.983 374.641 614.352 373.477C614.403 372.521 614.168 371.572 613.678 370.75C610.481 363.745 608.726 356.167 608.519 348.469L610.864 347.706L585.754 241.356C584.288 235.168 582.823 228.94 580.302 223.094C575.544 211.997 566.965 201.693 567.6 189.628C567.806 185.806 568.959 181.895 567.913 178.209C566.809 174.299 563.38 171.424 559.618 169.929C555.856 168.433 551.802 168.13 547.718 167.836C539.345 167.22 530.131 166.859 523.419 171.884C519.091 175.13 516.501 180.145 514.254 185.063C512.886 187.996 511.567 191.339 512.378 194.517C513.355 198.33 517.029 200.686 519.97 203.316C524.59 207.432 527.851 212.857 529.32 218.87C529.379 219.134 526.135 220.063 525.813 220.151C524.527 220.472 523.221 220.707 521.904 220.855C519.081 221.197 516.218 221.275 513.375 221.442C510.484 221.561 507.601 221.829 504.738 222.243C504.225 222.305 503.724 222.443 503.253 222.654C503.163 222.69 503.085 222.751 503.028 222.83C502.977 222.929 502.953 223.041 502.96 223.152L502.882 226.623C504.982 226.623 507.093 226.623 509.193 226.623C509.378 227.404 509.457 228.206 509.428 229.009C508.821 229.312 508.151 229.466 507.474 229.458C505.588 229.585 503.683 229.634 501.787 229.585C501.875 230.407 501.553 232.235 501.983 232.919C502.413 233.604 504.005 233.633 504.806 233.76C507.584 234.179 510.382 234.447 513.189 234.562C518.808 234.783 524.435 234.379 529.965 233.359C530.398 233.227 530.861 233.227 531.294 233.359C531.656 233.561 531.96 233.854 532.173 234.21C532.857 235.187 533.541 236.116 534.205 237.094C539.501 244.915 543.214 253.626 546.799 262.347C547.835 264.869 548.867 267.398 549.897 269.933L551.616 274.147C553.844 279.603 556.062 285.058 558.201 290.543" fill="#8954F6"/>
<path d="M573.774 201.868C574.014 204.579 573.749 207.31 572.993 209.924C572.356 208.605 571.306 207.531 570.003 206.864C569.905 206.815 569.798 206.747 569.798 206.639C569.8 206.57 569.828 206.504 569.876 206.453C571.107 204.948 572.602 203.657 573.686 202.034" fill="#292B83"/>
<path d="M573.843 88.6067C594.79 88.6067 611.771 71.6147 611.771 50.6539C611.771 29.6932 594.79 12.7012 573.843 12.7012C552.895 12.7012 535.914 29.6932 535.914 50.6539C535.914 71.6147 552.895 88.6067 573.843 88.6067Z" fill="#8954F6"/>
<path d="M526.691 39.5765C527.295 40.0306 527.999 40.3319 528.745 40.4544C529.49 40.577 530.254 40.5173 530.971 40.2804C532.405 39.7804 533.6 38.7622 534.322 37.4257C534.728 36.7932 534.953 36.0619 534.974 35.3107C534.994 34.5595 534.809 33.8169 534.439 33.1631C534.08 32.7111 533.655 32.3156 533.179 31.9899C530.834 30.2203 528.401 28.4019 525.529 27.7762C524.275 27.5414 523.003 27.4236 521.728 27.4242L510.082 27.0918C508.792 27.0918 507.199 27.1993 506.672 28.3823C506.535 28.8089 506.517 29.2649 506.62 29.7009C506.723 30.137 506.944 30.5364 507.258 30.8558C508.468 32.1097 510.11 32.8545 511.85 32.9382C513.57 33.1142 515.309 32.9382 517.019 33.1826C518.76 33.2808 520.394 34.0562 521.572 35.3433C521.966 35.9726 522.403 36.5737 522.881 37.1421C523.132 37.4173 523.469 37.5984 523.837 37.6553C524.205 37.7122 524.581 37.6415 524.903 37.455C525.142 37.201 525.358 36.9262 525.548 36.6338C525.727 36.4178 525.963 36.2571 526.229 36.1705C526.496 36.0839 526.782 36.0751 527.053 36.1449C527.319 36.2287 527.546 36.4071 527.69 36.6467C527.834 36.8863 527.885 37.1704 527.834 37.4452C527.629 38.2078 526.564 38.6478 526.682 39.4006" fill="#8859E9"/>
<path d="M506.799 366.917H505.099V390.879H384.103V366.917H389.056L438.572 292.194C434.462 290.889 430.874 288.308 428.327 284.827C425.78 281.345 424.407 277.142 424.405 272.827C424.405 267.442 426.543 262.277 430.349 258.468C434.155 254.66 439.316 252.521 444.698 252.521C447.363 252.521 450.002 253.046 452.464 254.067C454.926 255.087 457.163 256.583 459.048 258.468C460.932 260.354 462.427 262.593 463.447 265.056C464.467 267.52 464.991 270.16 464.991 272.827C464.993 276.212 464.148 279.544 462.534 282.518C460.92 285.493 458.587 288.016 455.749 289.858L506.799 366.917Z" fill="#492298"/>
<path d="M457.736 293L415 368.427L507 367L457.736 293Z" fill="#D6CEFE"/>
<path d="M457.566 292.791C468.542 292.791 477.439 283.888 477.439 272.905C477.439 261.923 468.542 253.02 457.566 253.02C446.591 253.02 437.693 261.923 437.693 272.905C437.693 283.888 446.591 292.791 457.566 292.791Z" fill="white"/>
<path d="M552.378 366.917H412.544V452.511H552.378V366.917Z" fill="white" stroke="#292B83" stroke-width="0.730841" stroke-miterlimit="10"/>
<path d="M489.505 392.532H535.074" stroke="#292B83" stroke-width="0.730841" stroke-miterlimit="10"/>
<path d="M452.593 415.507H535.074" stroke="#292B83" stroke-width="0.730841" stroke-miterlimit="10"/>
<path d="M468.225 382.892L477.438 392.531L469.553 400.861" stroke="#292B83" stroke-width="0.730841" stroke-miterlimit="10"/>
<path d="M437.175 401.517L427.962 391.877L435.847 383.547" stroke="#292B83" stroke-width="0.730841" stroke-miterlimit="10"/>
<path d="M447.932 383.547L455.914 398.535" stroke="#292B83" stroke-width="0.730841" stroke-miterlimit="10"/>
<path d="M536.266 331.897L544.102 364.414H519.608V363.172H527.092L515.445 333.471L536.266 331.897Z" fill="#D6CEFE"/>
<g filter="url(#filter1_d_1396_6916)">
<path d="M571.293 207.187C576.1 212.545 578.435 219.818 578.679 227.014C578.831 229.887 578.501 232.765 577.702 235.529C575.602 242.295 569.935 247.33 564.102 251.358C552.221 259.58 538.543 265.289 527.903 275.056C526.961 275.81 526.2 276.766 525.675 277.852C525.304 279.016 525.194 280.248 525.353 281.46C526.681 300.837 536.1 319.051 536.803 338.457C531.312 338.777 525.818 338.845 520.321 338.663C519.648 338.69 518.978 338.556 518.367 338.272C517.731 337.823 517.236 337.202 516.94 336.483C509.691 322.6 507.268 306.674 500.692 292.488C499.383 289.653 497.898 286.886 496.872 283.933C495.202 278.662 494.539 273.123 494.918 267.606C494.856 266.036 495.192 264.476 495.895 263.07C496.632 262.036 497.561 261.153 498.631 260.469L534.83 234.004C536.662 232.778 538.333 231.326 539.803 229.683C543.096 225.674 543.77 220.063 546.75 215.82C549.329 212.144 553.462 209.797 557.771 208.556C562.128 207.465 566.597 206.884 571.088 206.825" fill="#8859E9"/>
</g>
<path d="M512.751 363H542.249C542.979 363 543.678 363.421 544.194 364.172C544.71 364.922 545 365.939 545 367H510C510 365.939 510.29 364.922 510.806 364.172C511.322 363.421 512.021 363 512.751 363Z" fill="#292B83"/>
<path d="M412.544 391.036H314.225V452.501H412.544V391.036Z" fill="#D6CEFE"/>
<path d="M318.24 423.406C317.927 427.643 318.595 431.896 320.194 435.832C321.544 439.039 323.498 441.957 325.949 444.426C327.609 446.107 329.466 447.58 331.479 448.815C332.192 449.265 332.759 449.598 333.15 449.793C333.541 449.989 333.726 450.194 333.697 450.253C333.668 450.311 333.433 450.253 332.993 450.165C332.348 449.991 331.72 449.759 331.117 449.47C328.867 448.453 326.792 447.083 324.972 445.413C322.225 442.937 320.025 439.913 318.514 436.536C316.698 432.362 315.927 427.808 316.266 423.269C316.58 418.803 317.531 414.404 319.09 410.208C320.458 406.356 321.972 403.022 323.243 400.245C324.183 397.99 325.342 395.832 326.701 393.802C327.678 392.395 328.499 391.788 328.597 391.847C328.694 391.906 328.147 392.707 327.356 394.184C326.287 396.318 325.347 398.516 324.542 400.763C323.438 403.608 322.07 406.972 320.829 410.765C319.423 414.849 318.552 419.098 318.24 423.406Z" fill="white"/>
<path d="M330.463 404.811C332.295 403.29 334.03 401.657 335.661 399.923C336.983 398.481 338.232 396.973 339.403 395.406C341.406 392.717 342.49 390.908 342.764 391.045C343.038 391.182 342.334 393.206 340.575 396.188C339.534 397.931 338.351 399.585 337.039 401.135C335.421 403.028 333.646 404.781 331.733 406.375C329.798 407.945 327.736 409.351 325.568 410.579C323.791 411.561 321.938 412.402 320.028 413.092C316.765 414.245 314.625 414.49 314.567 414.245C314.508 414.001 316.462 413.268 319.452 411.791C321.219 410.947 322.941 410.011 324.611 408.985C326.647 407.717 328.601 406.323 330.463 404.811Z" fill="white"/>
<path d="M374.303 416.465C370.052 423.524 366.726 431.101 364.406 439.01C363.477 442.05 362.813 444.524 362.451 446.254C362.09 447.984 362.012 448.962 361.865 448.962C361.719 448.962 361.572 447.984 361.68 446.146C361.921 443.611 362.369 441.1 363.018 438.638C364.994 430.437 368.228 422.591 372.603 415.38C375.027 411.421 377.842 407.717 381.005 404.322C383.595 401.558 386.43 399.035 389.476 396.784C391.524 395.268 393.694 393.924 395.964 392.766C397.566 391.955 398.514 391.622 398.573 391.74C398.739 392.033 395.231 393.9 390.346 397.899C387.492 400.245 384.823 402.807 382.363 405.564C379.359 408.951 376.662 412.599 374.303 416.465Z" fill="white"/>
<path d="M385.5 437.484C389.486 434.972 393.199 432.4 396.521 430.005C399.464 427.937 402.217 425.611 404.747 423.054C406.441 421.307 408.04 419.47 409.535 417.55C410.609 416.191 411.205 415.428 411.332 415.506C411.459 415.585 411.069 416.484 410.17 417.99C408.897 420.129 407.428 422.145 405.783 424.012C403.329 426.781 400.592 429.285 397.615 431.481C394.312 433.984 390.61 436.614 386.555 439.176C382.759 441.605 378.787 443.748 374.674 445.589C371.315 447.099 367.83 448.31 364.259 449.206C358.113 450.722 354.166 450.497 354.166 450.292C354.166 450.086 357.996 449.666 363.888 447.847C371.52 445.371 378.789 441.886 385.5 437.484Z" fill="white"/>
<path d="M314 391H293V453H314V391Z" fill="#492298"/>
<path d="M323.115 25.1958H216.384V128.789H323.115V25.1958Z" stroke="#292B83" stroke-width="0.730841" stroke-miterlimit="10"/>
<path d="M323.115 25.1958H216.384V36.6735H323.115V25.1958Z" fill="#8954F6"/>
<path d="M221.308 31.9022C222.118 31.9022 222.774 31.2456 222.774 30.4357C222.774 29.6258 222.118 28.9692 221.308 28.9692C220.499 28.9692 219.843 29.6258 219.843 30.4357C219.843 31.2456 220.499 31.9022 221.308 31.9022Z" fill="white"/>
<path d="M226.232 31.9022C227.042 31.9022 227.698 31.2456 227.698 30.4357C227.698 29.6258 227.042 28.9692 226.232 28.9692C225.423 28.9692 224.767 29.6258 224.767 30.4357C224.767 31.2456 225.423 31.9022 226.232 31.9022Z" fill="white"/>
<path d="M231.167 31.9022C231.976 31.9022 232.632 31.2456 232.632 30.4357C232.632 29.6258 231.976 28.9692 231.167 28.9692C230.357 28.9692 229.701 29.6258 229.701 30.4357C229.701 31.2456 230.357 31.9022 231.167 31.9022Z" fill="white"/>
<path d="M403.878 77.7744H423.653" stroke="#292B83" stroke-width="0.730841" stroke-miterlimit="10"/>
<path d="M403.193 84.4316H415.504" stroke="#292B83" stroke-width="0.730841" stroke-miterlimit="10"/>
<path d="M403.194 70.6272V49.4902H431.303V67.1663L426.145 62.0043L419.618 68.5253L412.017 60.9191C412.017 60.9191 402.198 70.6272 403.194 70.6272Z" fill="url(#paint1_radial_1396_6916)"/>
<path d="M422.363 100.534C423.675 100.534 424.738 99.4705 424.738 98.1584C424.738 96.8464 423.675 95.7827 422.363 95.7827C421.052 95.7827 419.989 96.8464 419.989 98.1584C419.989 99.4705 421.052 100.534 422.363 100.534Z" fill="white"/>
<path d="M435.397 148.205L427.141 137.392C427.141 137.392 423.819 137.636 426.564 141.38C429.31 145.125 427.063 145.623 427.063 145.623C427.063 145.623 424.815 151.03 429.632 154.11" fill="#E7E5E5"/>
<path d="M505.93 155.068C504.689 155.84 504.425 157.502 504.298 158.978C504.128 160.121 504.154 161.285 504.376 162.42C504.491 162.986 504.748 163.515 505.122 163.956C505.496 164.397 505.976 164.736 506.516 164.942C507.551 165.265 508.695 164.942 509.73 165.206C510.406 165.436 510.964 165.923 511.284 166.561C511.604 167.2 511.66 167.939 511.44 168.618C511.059 169.596 510.102 170.348 509.945 171.404C509.901 172.216 510.131 173.018 510.6 173.682C510.997 174.386 511.427 175.071 511.89 175.735C512.508 176.783 513.395 177.647 514.459 178.238C515.213 178.521 516.016 178.652 516.821 178.623C517.625 178.594 518.417 178.407 519.149 178.072C520.639 177.521 522.021 176.714 523.233 175.686C523.815 175.222 524.252 174.602 524.493 173.897C524.663 173.028 524.564 172.128 524.21 171.316C523.721 169.86 523.155 168.432 522.529 167.034C521.039 163.443 518.754 160.238 515.846 157.658C513.924 156.075 511.685 154.922 509.281 154.276C508.604 154.056 507.888 153.979 507.18 154.051C506.826 154.091 506.486 154.215 506.19 154.415C505.894 154.614 505.651 154.881 505.48 155.195" fill="#E0DCF8"/>
<path d="M507.463 178.669C508.831 178.335 510.1 177.682 511.166 176.762C515.074 173.862 518.92 170.854 522.705 167.738C523.564 167.034 524.6 166.272 525.685 166.516C526.769 166.761 527.267 167.709 527.766 168.599" fill="#D8D0FD"/>
<path d="M511.372 158.881C510.372 158.974 509.367 158.779 508.475 158.318C507.583 157.857 506.842 157.15 506.34 156.28C505.367 154.514 505.046 152.462 505.431 150.482C505.507 149.813 505.73 149.168 506.086 148.596C506.536 148.074 507.097 147.659 507.727 147.38C508.357 147.101 509.041 146.965 509.73 146.982C511.947 146.854 514.16 147.295 516.159 148.263C515.661 144.998 517.566 141.869 519.618 139.288C520.764 137.707 522.195 136.354 523.839 135.299C527.004 133.452 530.971 133.667 534.537 134.527C536.16 134.855 537.705 135.489 539.09 136.394C541.181 137.9 542.412 140.305 543.545 142.612C544.326 143.987 544.843 145.496 545.07 147.061C545.136 148.534 544.862 150.003 544.268 151.353C543.466 153.529 542.229 155.519 540.631 157.2C539.033 158.881 537.109 160.218 534.977 161.129C530.668 162.811 525.363 162.107 522.002 158.939C521.787 158.734 521.484 158.509 521.23 158.656C521.106 158.754 521.02 158.892 520.986 159.047C520.605 160.434 519.94 161.726 519.032 162.84C518.559 163.396 517.95 163.819 517.265 164.069C516.581 164.319 515.843 164.388 515.123 164.267C514.775 164.193 514.444 164.051 514.151 163.848C513.858 163.645 513.608 163.387 513.415 163.087C513.223 162.787 513.092 162.451 513.029 162.1C512.967 161.749 512.975 161.389 513.052 161.041C513.238 160.474 513.668 159.946 513.55 159.36C513.394 158.519 512.28 158.274 511.43 158.382C510.58 158.49 509.642 158.773 508.929 158.294" fill="#8859E9"/>
<path d="M339.921 198.661C341.484 196.98 342.95 194.966 342.979 192.668C342.979 190.948 342.246 189.031 343.243 187.633C343.561 187.235 343.941 186.888 344.366 186.607L347.298 184.446C348.396 183.741 349.365 182.852 350.16 181.816C350.68 180.982 351.1 180.09 351.411 179.157C352.091 177.124 353.119 175.225 354.449 173.545C355.122 172.708 355.969 172.027 356.93 171.55C357.892 171.072 358.945 170.809 360.019 170.779C360.564 170.75 361.108 170.867 361.594 171.118C362.08 171.369 362.49 171.744 362.784 172.206C363.076 172.925 363.138 173.718 362.959 174.474C362.722 176.186 362.269 177.862 361.611 179.46C361.774 179.515 361.947 179.53 362.117 179.505C362.287 179.479 362.449 179.414 362.588 179.314C364.943 178.023 366.819 175.706 369.427 175.237C370.089 175.093 370.779 175.183 371.382 175.491C371.681 175.658 371.916 175.922 372.047 176.24C372.179 176.558 372.199 176.91 372.105 177.241C371.959 177.576 371.73 177.869 371.44 178.091C368.003 181.28 364.123 183.954 359.921 186.03C359.598 186.196 359.237 186.382 359.129 186.724C359.076 186.933 359.076 187.151 359.129 187.36C359.638 189.97 361.084 192.404 361.084 195.064C361.113 195.555 361.008 196.045 360.781 196.481C360.214 197.39 358.963 197.459 357.898 197.645C357.193 197.672 356.501 197.848 355.868 198.162C355.235 198.475 354.675 198.919 354.225 199.463C353.56 200.441 353.492 201.839 352.583 202.611C352.098 202.969 351.53 203.198 350.932 203.276C347.827 203.843 344.623 203.233 341.943 201.565C340.761 200.832 339.589 199.522 340.038 198.202" fill="#8859E9"/>
<path d="M341.114 198.896C342.358 197.741 343.393 196.378 344.172 194.868C344.251 194.687 344.372 194.526 344.523 194.399C344.722 194.297 344.946 194.253 345.168 194.272C346.525 194.242 347.868 193.991 349.145 193.529C349.287 193.496 349.417 193.421 349.516 193.314C349.594 193.188 349.635 193.042 349.633 192.893L349.799 191.319C349.798 190.867 349.946 190.427 350.22 190.068C350.408 189.896 350.636 189.775 350.884 189.716C351.289 189.606 351.714 189.594 352.124 189.679C352.535 189.763 352.92 189.944 353.248 190.205C353.343 190.299 353.461 190.366 353.59 190.4C353.684 190.4 353.776 190.378 353.861 190.338C353.945 190.297 354.02 190.238 354.079 190.166C355.233 189.07 356.259 187.847 357.137 186.519C358.114 187.634 358.261 189.256 358.817 190.635C359.228 191.613 359.863 192.512 360.215 193.519C360.437 194.01 360.52 194.552 360.454 195.087C360.389 195.621 360.177 196.127 359.843 196.55C359.214 197.076 358.434 197.391 357.616 197.449C355.199 197.858 352.763 198.145 350.317 198.31C351.042 199.447 351.468 200.748 351.558 202.093C351.588 202.244 351.56 202.401 351.48 202.533C351.4 202.617 351.299 202.678 351.187 202.709C350.5 202.823 349.796 202.727 349.164 202.435C346.259 201.399 343.397 200.275 340.576 199.062" fill="#E0DCF8"/>
<path d="M335.983 203.168C336.12 201.735 336.74 200.39 337.742 199.356C337.948 199.11 338.219 198.927 338.524 198.828C338.797 198.764 339.081 198.764 339.354 198.828C342.969 199.571 346.125 201.829 349.721 202.738C350.805 203.012 351.919 203.149 352.984 203.471C353.062 203.471 353.15 203.53 353.17 203.608C353.173 203.647 353.167 203.686 353.152 203.722C353.136 203.758 353.112 203.789 353.082 203.814C352.329 204.615 351.128 204.723 350.15 205.192C349.486 205.505 348.9 205.984 348.196 206.258C347.61 206.484 346.988 206.6 346.36 206.6C345.595 206.624 344.831 206.555 344.083 206.395C343.001 206.119 341.945 205.749 340.927 205.29L335.925 203.227" fill="#E7E5E5"/>
<path d="M328.314 285.664C325.931 283.861 324.053 281.474 322.862 278.732C321.191 275.095 321.865 275.447 317.966 274.919C311.127 273.942 302.969 274.431 296.052 274.919C301.368 250.107 312.432 226.89 328.353 207.138C329.76 205.398 331.352 203.589 333.531 203.061C335.165 202.804 336.837 202.928 338.416 203.423C342.608 204.401 349.867 204.342 351.333 208.683C353.003 213.64 351.333 221.529 350.756 226.603C349.398 238.335 346.711 249.95 346.33 261.799C346.29 262.055 346.303 262.317 346.368 262.567C346.434 262.818 346.551 263.053 346.711 263.256C346.969 263.41 347.26 263.503 347.56 263.527C347.86 263.551 348.161 263.505 348.441 263.393L393.384 251.993L397.771 262.034C397.959 262.333 398.073 262.672 398.104 263.024C398.135 263.376 398.081 263.731 397.947 264.058C397.732 264.332 397.454 264.55 397.136 264.693C383.562 272.116 369.574 278.756 355.241 284.579C350.893 286.348 346.447 288.059 341.787 288.597C337.126 289.135 332.114 288.421 328.314 285.664Z" fill="url(#paint2_radial_1396_6916)"/>
<path d="M546.965 240.682C554.519 226.861 563.515 213.88 573.804 201.957C568.883 198.403 563.696 195.232 558.289 192.473C555.806 191.41 553.395 190.189 551.068 188.817C547.16 186.275 544.317 182.511 541.093 179.177C537.486 175.61 533.644 172.288 529.593 169.234C528.847 168.53 527.92 168.046 526.916 167.836C525.8 167.828 524.71 168.169 523.799 168.814C520.249 170.887 516.9 173.286 513.794 175.98C512.752 177.043 511.497 177.873 510.111 178.415C508.873 178.697 507.591 178.73 506.34 178.512C493.54 177.124 480.806 175.244 468.137 172.871C466.121 172.578 464.151 172.026 462.275 171.229C460.492 170.296 458.848 169.118 457.39 167.729C452.29 163.173 447.688 158.118 442.881 153.259C440.751 151.118 438.445 148.928 435.524 148.176C432.603 147.423 428.929 148.713 428.098 151.617C427.317 154.325 429.193 157.023 430.961 159.223C436.12 165.656 441.269 172.089 446.643 178.336C449.237 181.522 452.136 184.446 455.299 187.067C460.35 190.978 466.408 193.5 472.524 195.465C485.656 199.679 499.373 201.771 512.661 205.496C513.833 205.683 514.885 206.322 515.592 207.275C516.071 208.145 515.934 209.231 516.315 210.14C517.449 212.799 521.542 212.046 523.877 213.747C524.743 214.485 525.451 215.389 525.959 216.407C531.132 225.128 537.854 232.831 545.792 239.137" fill="url(#paint3_radial_1396_6916)"/>
<path d="M622.597 128.53C624.384 130.608 625.895 132.908 627.091 135.374C627.892 137.055 628.723 138.991 630.472 139.646C631.82 140.155 633.403 139.734 634.751 140.057C634.89 140.073 635.016 140.143 635.103 140.252C635.152 140.382 635.152 140.524 635.103 140.653C634.949 141.112 634.704 141.536 634.384 141.899C634.063 142.261 633.673 142.556 633.237 142.765C632.359 143.18 631.403 143.4 630.433 143.41C628.023 143.498 625.642 142.865 623.593 141.592C620.066 139.402 617.936 135.589 615.963 131.933C615.866 131.796 615.821 131.63 615.836 131.463C615.867 131.373 615.917 131.29 615.983 131.221C616.048 131.152 616.128 131.098 616.217 131.062C618.11 129.956 620.169 129.161 622.314 128.706" fill="#492298"/>
<path d="M590.863 82.8089C594.079 80.5414 597.123 78.0382 599.969 75.32C600.546 74.7627 601.161 74.0099 600.888 73.2572C600.694 72.8446 600.376 72.5028 599.979 72.2795C590.209 65.8172 580.438 59.3255 569.798 54.5154C563.692 51.7486 557.331 49.5587 550.99 47.3687L540.77 43.8491C539.862 47.1438 537.175 49.8226 536.696 53.2151C536.558 54.596 536.65 55.9904 536.97 57.3408C538.088 62.8117 540.416 67.963 543.782 72.4171C547.148 76.8712 551.467 80.5154 556.423 83.0826L550.56 74.2837L564.63 83.8452C567.932 86.0938 571.235 88.3425 574.322 90.8746C580.282 95.7629 585.343 101.629 590.404 107.446C597.745 115.867 605.174 124.197 612.69 132.435C613.589 133.413 614.644 134.498 616.022 134.39C616.732 134.299 617.406 134.022 617.976 133.589C620.748 131.75 623.064 129.302 624.747 126.432C621.435 120.165 616.931 114.7 612.358 109.196L590.785 83.1511" fill="url(#paint4_radial_1396_6916)"/>
<path d="M635.358 254.085L640.018 288.206L618.064 275.056L635.358 254.085Z" stroke="#292B83" stroke-width="0.50428" stroke-miterlimit="10"/>
<path d="M611.4 247.74C613.348 247.74 614.927 246.16 614.927 244.211C614.927 242.262 613.348 240.682 611.4 240.682C609.452 240.682 607.873 242.262 607.873 244.211C607.873 246.16 609.452 247.74 611.4 247.74Z" stroke="#292B83" stroke-width="0.50428" stroke-miterlimit="10"/>
<path d="M618.112 85.869L624.571 79.2894L624.776 79.0841L624.981 79.2894L630.745 85.1553H630.423L644.834 73.4234L644.922 73.355L645 73.4234L650.96 78.4486C650.462 78.6441 662.861 67.2739 662.753 67.2837L650.911 78.6441L650.843 78.5855L644.834 73.6287H645L630.726 85.566L630.56 85.7028L630.403 85.5464L624.541 79.6804H624.942L618.552 86.3285L618.073 85.8592L618.112 85.869Z" fill="#292B83"/>
<path d="M61.8047 453L668 452.511" stroke="#292B83" stroke-width="0.730841" stroke-miterlimit="10"/>
<path d="M587 449C599.703 449 610 438.703 610 426C610 413.297 599.703 403 587 403C574.297 403 564 413.297 564 426C564 438.703 574.297 449 587 449Z" fill="#B597F1"/>
<rect width="26.2463" height="2.54015" rx="1.27007" transform="matrix(0.918189 -0.396142 0.396073 0.918219 402.18 250.12)" fill="#292B83"/>
<ellipse cx="423.412" cy="57.3492" rx="1.73767" ry="1.73785" fill="#D9D9D9"/>
<path d="M130.249 405.474C118.236 405.474 108.497 415.218 108.497 427.237C108.497 439.256 118.236 449 130.249 449C142.262 449 152 439.256 152 427.237C152 415.218 142.262 405.474 130.249 405.474Z" fill="#E0DCF8"/>
<path d="M127 445C121.5 444.167 111 438.8 113 424" stroke="black" stroke-linecap="round"/>
</g>
<defs>
<filter id="filter0_d_1396_6916" x="291.53" y="274.391" width="96.5723" height="38.647" filterUnits="userSpaceOnUse" color-interpolation-filters="sRGB">
<feFlood flood-opacity="0" result="BackgroundImageFix"/>
<feColorMatrix in="SourceAlpha" type="matrix" values="0 0 0 0 0 0 0 0 0 0 0 0 0 0 0 0 0 0 127 0" result="hardAlpha"/>
<feOffset dy="4"/>
<feGaussianBlur stdDeviation="2"/>
<feComposite in2="hardAlpha" operator="out"/>
<feColorMatrix type="matrix" values="0 0 0 0 0 0 0 0 0 0 0 0 0 0 0 0 0 0 0.05 0"/>
<feBlend mode="normal" in2="BackgroundImageFix" result="effect1_dropShadow_1396_6916"/>
<feBlend mode="normal" in="SourceGraphic" in2="effect1_dropShadow_1396_6916" result="shape"/>
</filter>
<filter id="filter1_d_1396_6916" x="490.814" y="206.825" width="91.9004" height="139.937" filterUnits="userSpaceOnUse" color-interpolation-filters="sRGB">
<feFlood flood-opacity="0" result="BackgroundImageFix"/>
<feColorMatrix in="SourceAlpha" type="matrix" values="0 0 0 0 0 0 0 0 0 0 0 0 0 0 0 0 0 0 127 0" result="hardAlpha"/>
<feOffset dy="4"/>
<feGaussianBlur stdDeviation="2"/>
<feComposite in2="hardAlpha" operator="out"/>
<feColorMatrix type="matrix" values="0 0 0 0 0 0 0 0 0 0 0 0 0 0 0 0 0 0 0.05 0"/>
<feBlend mode="normal" in2="BackgroundImageFix" result="effect1_dropShadow_1396_6916"/>
<feBlend mode="normal" in="SourceGraphic" in2="effect1_dropShadow_1396_6916" result="shape"/>
</filter>
<radialGradient id="paint0_radial_1396_6916" cx="0" cy="0" r="1" gradientUnits="userSpaceOnUse" gradientTransform="translate(387.769 77.4471) rotate(-179.825) scale(128.719 111.41)">
<stop stop-color="#0894FF"/>
<stop offset="0.290475" stop-color="#6E53FF"/>
<stop offset="0.609151" stop-color="#B038EA"/>
<stop offset="0.850793" stop-color="#F95088"/>
<stop offset="1" stop-color="#FF6F62"/>
</radialGradient>
<radialGradient id="paint1_radial_1396_6916" cx="0" cy="0" r="1" gradientUnits="userSpaceOnUse" gradientTransform="translate(453.295 61.216) rotate(-179.786) scale(48.0112 50.6761)">
<stop stop-color="#0894FF"/>
<stop offset="0.290475" stop-color="#6E53FF"/>
<stop offset="0.609151" stop-color="#B038EA"/>
<stop offset="0.850793" stop-color="#F95088"/>
<stop offset="1" stop-color="#FF6F62"/>
</radialGradient>
<radialGradient id="paint2_radial_1396_6916" cx="0" cy="0" r="1" gradientUnits="userSpaceOnUse" gradientTransform="translate(477.757 250.546) rotate(-179.761) scale(173.882 205.783)">
<stop stop-color="#0894FF"/>
<stop offset="0.290475" stop-color="#6E53FF"/>
<stop offset="0.609151" stop-color="#B038EA"/>
<stop offset="0.850793" stop-color="#F95088"/>
<stop offset="1" stop-color="#FF6F62"/>
</radialGradient>
<radialGradient id="paint3_radial_1396_6916" cx="0" cy="0" r="1" gradientUnits="userSpaceOnUse" gradientTransform="translate(687.65 199.399) rotate(-179.819) scale(248.55 222.29)">
<stop stop-color="#0894FF"/>
<stop offset="0.290475" stop-color="#6E53FF"/>
<stop offset="0.609151" stop-color="#B038EA"/>
<stop offset="0.850793" stop-color="#F95088"/>
<stop offset="1" stop-color="#FF6F62"/>
</radialGradient>
<radialGradient id="paint4_radial_1396_6916" cx="0" cy="0" r="1" gradientUnits="userSpaceOnUse" gradientTransform="translate(693.507 94.0808) rotate(-179.707) scale(150.12 217.089)">
<stop stop-color="#0894FF"/>
<stop offset="0.290475" stop-color="#6E53FF"/>
<stop offset="0.609151" stop-color="#B038EA"/>
<stop offset="0.850793" stop-color="#F95088"/>
<stop offset="1" stop-color="#FF6F62"/>
</radialGradient>
<clipPath id="clip0_1396_6916">
<rect width="668" height="453" fill="white"/>
</clipPath>
<clipPath id="clip1_1396_6916">
<rect width="25.3992" height="112.615" fill="white" transform="translate(217.587 247.245)"/>
</clipPath>
<clipPath id="clip2_1396_6916">
<rect width="43.4684" height="21.5183" fill="white" transform="translate(339.461 369.713)"/>
</clipPath>
</defs>
</svg>
