<svg width="366" height="342" viewBox="0 0 366 342" fill="none" xmlns="http://www.w3.org/2000/svg">
<g filter="url(#filter0_f_3305_21565)">
<ellipse cx="171" cy="6" rx="171" ry="6" transform="matrix(-1 0 0 1 354 309)" fill="url(#paint0_linear_3305_21565)" fill-opacity="0.24" style="mix-blend-mode:multiply"/>
</g>
<path d="M353.757 67.7897L316.273 217.533L298.347 211.865C297.223 212.516 296.267 213.42 295.556 214.507C294.845 215.593 294.398 216.83 294.251 218.12L311.985 223.963L312.105 224.682L293.714 248.615L279.462 266.313L266.856 282.418L259.742 291.625L252.199 301.508L250.234 304.017L248.423 305.775L247.349 306.627L245.166 308.117L242.319 308.675L239.762 308.496L236.864 307.704L229.116 304.464L150.134 271.086L30.9141 220.794L14.5653 213.913L12.771 212.606L12.2639 210.651L13.4402 208.275L97.1917 163.268L107.391 157.761L108.921 157.463L110.365 157.578L122.482 161.573C122.774 160.554 123.303 159.619 124.025 158.843C124.957 157.851 126.163 157.157 127.49 156.85L114.256 152.49L135.234 24.1665C135.234 24.1665 135.916 22.2076 136.99 21.786C137.848 21.5049 138.742 21.3444 139.645 21.3091L327.311 58.1529L346.298 61.8875L350.714 62.7392C350.714 62.7392 352.384 63.1224 353.207 64.2509C353.399 64.5374 353.573 64.8361 353.727 65.1452C353.813 65.3867 353.882 65.6344 353.931 65.8861C353.962 66.1462 353.975 66.4079 353.97 66.6697C353.97 66.8315 353.919 67.1466 353.919 67.1466L353.842 67.4916L353.757 67.7897Z" fill="#E1D6FF"/>
<path d="M346.242 69.8125L311.699 207.721L119.17 147.043L139.721 27.8032L346.242 69.8125Z" fill="url(#paint1_radial_3305_21565)"/>
<path d="M346.242 69.8125L311.699 207.721L119.17 147.043L139.721 27.8032L346.242 69.8125Z" fill="white" fill-opacity="0.24"/>
<path d="M127.233 156.799L114.234 152.49C114.234 152.49 112.172 153.524 111.554 154.516C111.022 155.488 110.626 156.529 110.377 157.608L122.481 161.645C122.481 161.645 123.069 159.563 124.301 158.575C125.217 157.886 126.199 157.292 127.233 156.799Z" fill="#C8ADFF"/>
<path d="M315.855 217.533L298.471 211.903L296.621 213.181L295.095 215.289L294.388 217.128L294.251 218.104L313.775 224.53C314.327 224.179 314.797 223.715 315.156 223.169C315.514 222.622 315.753 222.006 315.855 221.361C316.061 220.093 316.061 218.801 315.855 217.533Z" fill="#C8ADFF"/>
<path d="M312.104 224.683L265.402 284.3L255.365 297.391L250.524 303.697C250.524 303.697 248.998 305.311 248.214 305.946C247.429 306.58 245.418 307.994 245.418 307.994L247.736 307.091L250.016 305.35L257.85 295.828L290.94 254.666L309.219 231.832L310.924 229.682L311.627 228.315L312.053 226.739L312.117 225.636L312.104 224.683Z" fill="#C8ADFF"/>
<path d="M292.695 223.039L260.82 260.1L69.7955 189.521L113.847 164.204L292.695 223.039Z" fill="#C8ADFF"/>
<path d="M181.564 238.339L157.467 259.772C156.539 260.498 155.469 261.023 154.326 261.313C151.692 261.965 149.438 261.079 147.729 260.406C143.961 258.924 140.194 257.451 136.115 255.803L119.617 248.99C111.004 245.425 105.429 243.028 103.882 242.398C100.434 240.941 97.4633 239.685 95.1235 238.688C94.8511 238.592 94.6034 238.436 94.3979 238.233C94.1924 238.03 94.0342 237.784 93.9345 237.513C93.8375 237.039 93.913 236.545 94.1473 236.122C94.3817 235.698 94.7595 235.371 95.213 235.201L119.804 217.473C122.435 215.652 125.652 214.881 128.823 215.31L180.022 234.255C181.675 234.988 182.545 236.325 182.293 237.343C182.177 237.751 181.918 238.105 181.564 238.339Z" fill="#F0EBFF"/>
<path d="M316.063 217.349C327.421 172.155 336.81 134.783 343.361 108.709C346.664 95.6481 349.247 85.4109 351.007 78.4441C351.898 74.965 352.58 72.2992 353.036 70.5022C353.27 69.6079 353.462 68.9265 353.564 68.4709C353.624 68.2438 353.671 68.0734 353.705 67.9599C353.719 67.9023 353.736 67.8454 353.756 67.7896C353.756 67.7896 353.756 67.8492 353.722 67.9641C353.688 68.0791 353.658 68.2537 353.602 68.4837C353.492 68.9393 353.33 69.6207 353.112 70.5235C352.686 72.3205 352.017 74.9948 351.16 78.4824C349.456 85.4577 346.898 95.7035 343.655 108.781C337.121 135 327.758 172.576 316.438 218.022L316.11 217.916C316.067 217.711 316.025 217.515 315.969 217.319L316.063 217.349Z" fill="#3F00F9"/>
<path d="M353.862 67.3385C353.956 66.8916 353.97 66.4319 353.905 65.98C353.797 65.2339 353.454 64.5416 352.925 64.0041C352.183 63.2728 351.21 62.8213 350.171 62.7266L329.748 58.779L254.589 44.1386L143.003 22.2972L141.029 21.914L140.04 21.7181C139.73 21.6453 139.413 21.6026 139.094 21.5903C138.466 21.5685 137.842 21.7032 137.279 21.9821C136.722 22.2683 136.256 22.7032 135.932 23.2383C135.769 23.5045 135.641 23.7909 135.553 24.09C135.508 24.2411 135.473 24.3947 135.446 24.5499C135.446 24.6266 135.446 24.7032 135.416 24.7799L135.374 25.0524C135.263 25.721 135.156 26.3938 135.045 27.0624C134.83 28.408 134.609 29.7565 134.385 31.1079C133.504 36.5019 132.612 41.9697 131.708 47.5113C129.904 58.5832 128.057 69.8651 126.168 81.3571C122.434 104.212 118.569 127.88 114.605 152.136C114.368 152.218 114.136 152.313 113.91 152.422C117.917 128.046 121.808 104.242 125.567 81.2635C127.451 69.7658 129.298 58.4838 131.107 47.4176C132.017 41.8902 132.913 36.4224 133.797 31.0142C134.018 29.6643 134.223 28.3186 134.457 26.973C134.568 26.3001 134.679 25.6316 134.785 24.9587L134.824 24.7288C134.824 24.6351 134.845 24.5457 134.862 24.4562C134.891 24.2761 134.932 24.0982 134.986 23.9239C135.085 23.5752 135.229 23.2405 135.412 22.9275C135.794 22.3002 136.343 21.7916 136.997 21.4583C137.647 21.1339 138.368 20.9773 139.094 21.0027C139.449 21.0134 139.802 21.0605 140.147 21.1432L141.136 21.3348L143.109 21.7266L254.666 43.6787L329.787 58.5193L350.193 62.5861C351.255 62.6958 352.246 63.1734 352.993 63.936C353.528 64.4924 353.87 65.206 353.969 65.9715C354.028 66.4306 354.003 66.8965 353.896 67.347C353.862 67.4927 353.815 67.6352 353.756 67.7728C353.762 67.7339 353.77 67.6955 353.781 67.6578C353.803 67.6025 353.833 67.4918 353.862 67.3385Z" fill="#3F00F9"/>
<path d="M126.807 156.923L118.488 154.24L114.149 152.843C114.446 152.697 114.754 152.571 115.069 152.469L118.684 153.635L128.021 156.646C127.889 156.646 127.762 156.676 127.629 156.701C127.351 156.76 127.077 156.834 126.807 156.923Z" fill="#3F00F9"/>
<path d="M127.327 157.089C127.446 157.055 127.57 157.016 127.689 156.991C128.021 156.924 128.357 156.882 128.695 156.863L298.632 211.724C298.423 211.822 298.206 211.941 297.975 212.073L127.327 157.089Z" fill="#3F00F9"/>
<path d="M298.969 211.831L315.437 217.149C315.497 217.345 315.552 217.545 315.595 217.75L298.313 212.18C298.538 212.043 298.76 211.937 298.969 211.831Z" fill="#3F00F9"/>
<path d="M114.154 152.843C113.815 153 113.49 153.185 113.183 153.397C112.41 153.933 111.767 154.634 111.299 155.449C110.937 156.085 110.684 156.778 110.553 157.498L110.216 157.391C110.336 156.513 110.638 155.67 111.101 154.915C111.565 154.16 112.181 153.509 112.91 153.005C113.231 152.781 113.572 152.587 113.928 152.426L113.877 152.754L114.154 152.843Z" fill="#3F00F9"/>
<path d="M114.593 152.32L115.074 152.477C114.759 152.58 114.451 152.706 114.154 152.852L113.877 152.763L113.928 152.435C114.154 152.326 114.386 152.231 114.622 152.149L114.593 152.32Z" fill="#3F00F9"/>
<path d="M123.185 160.197C122.963 160.586 122.785 160.997 122.652 161.424L122.405 161.343C122.531 160.899 122.707 160.47 122.929 160.065C123.405 159.186 124.083 158.431 124.906 157.864C125.49 157.458 126.132 157.145 126.811 156.935L127.327 157.101C126.525 157.309 125.767 157.657 125.085 158.128C124.304 158.666 123.654 159.373 123.185 160.197Z" fill="#3F00F9"/>
<path d="M127.327 157.089L126.812 156.923C127.081 156.834 127.356 156.76 127.634 156.701C127.766 156.676 127.894 156.663 128.026 156.646L128.695 156.863C128.357 156.882 128.021 156.925 127.689 156.991C127.57 157.004 127.447 157.055 127.327 157.089Z" fill="#3F00F9"/>
<path d="M295.606 214.199C296.24 213.333 297.047 212.608 297.976 212.069L298.312 212.176C297.355 212.74 296.521 213.492 295.862 214.386C295.093 215.438 294.587 216.659 294.387 217.946L294.153 217.869C294.315 216.542 294.815 215.278 295.606 214.199Z" fill="#3F00F9"/>
<path d="M297.976 212.074C298.202 211.942 298.423 211.822 298.632 211.724L298.969 211.831C298.76 211.933 298.543 212.044 298.312 212.18L297.976 212.074Z" fill="#3F00F9"/>
<path d="M315.79 219.436C315.786 218.863 315.72 218.292 315.594 217.733L316.11 217.899C316.212 218.398 316.266 218.906 316.272 219.415C316.296 220.576 316.052 221.727 315.56 222.779C315.348 223.249 315.06 223.681 314.708 224.057C314.523 224.239 314.319 224.4 314.098 224.538L313.672 224.393C314.955 223.69 315.816 221.617 315.79 219.436Z" fill="#3F00F9"/>
<path d="M315.437 217.149L315.97 217.32C316.025 217.516 316.068 217.712 316.11 217.917L315.594 217.751C315.552 217.546 315.496 217.346 315.437 217.149Z" fill="#3F00F9"/>
<path d="M312.078 224.117C312.078 224.095 312.078 224.066 312.078 224.04C312.078 224.014 312.052 223.916 312.043 223.852L312.538 224.019L312.389 224.215L312.078 224.117Z" fill="#3F00F9"/>
<path d="M111.711 157.855L122.404 161.326C122.366 161.453 122.336 161.581 122.306 161.709C117.78 160.201 113.821 158.877 110.505 157.766C110.505 157.736 110.505 157.71 110.505 157.676C110.927 157.766 111.328 157.821 111.711 157.855Z" fill="#3F00F9"/>
<path d="M209.587 189.917C243.533 201.091 273.887 211.128 294.152 217.873C294.152 217.992 294.123 218.112 294.114 218.222V218.295C273.802 211.681 243.397 201.712 209.391 190.521C174.149 178.921 142.772 168.544 122.545 161.803C122.575 161.679 122.613 161.551 122.652 161.424C142.93 168.02 174.341 178.295 209.587 189.917Z" fill="#3F00F9"/>
<path d="M294.386 217.95C301.632 220.36 307.564 222.345 311.899 223.805C311.899 223.89 311.929 223.976 311.941 224.061C307.59 222.66 301.619 220.726 294.327 218.35V218.231C294.352 218.15 294.369 218.052 294.386 217.95Z" fill="#3F00F9"/>
<path d="M110.186 157.676L109.989 157.608L110.186 157.638V157.676Z" fill="#3F00F9"/>
<path d="M110.544 157.523C110.544 157.523 110.544 157.523 110.544 157.498L110.71 157.553L110.544 157.523Z" fill="#3F00F9"/>
<path d="M312.628 224.044L313.677 224.402C313.608 224.44 313.537 224.475 313.464 224.504L313.395 224.538L312.483 224.244L312.628 224.044Z" fill="#3F00F9"/>
<path d="M110.544 157.523H110.518L110.207 157.468C110.209 157.444 110.209 157.419 110.207 157.395L110.544 157.502C110.544 157.502 110.548 157.515 110.544 157.523Z" fill="#3F00F9"/>
<path d="M110.514 157.694C110.514 157.728 110.514 157.753 110.514 157.783L110.194 157.677V157.638L110.497 157.689L110.514 157.694Z" fill="#3F00F9"/>
<path d="M122.651 161.424C122.613 161.552 122.575 161.68 122.545 161.804L122.306 161.727C122.336 161.599 122.366 161.471 122.404 161.343L122.651 161.424Z" fill="#3F00F9"/>
<path d="M294.152 217.873L294.387 217.95C294.387 218.052 294.353 218.15 294.34 218.244V218.364L294.127 218.295V218.223C294.122 218.112 294.135 217.993 294.152 217.873Z" fill="#3F00F9"/>
<path d="M313.446 224.504C313.519 224.474 313.591 224.44 313.66 224.402L314.086 224.547L313.843 224.687L313.37 224.538L313.446 224.504Z" fill="#3F00F9"/>
<path d="M312.138 224.534L312.027 224.688C312.005 224.479 311.98 224.261 311.946 224.078L312.082 224.121C312.104 224.253 312.121 224.394 312.138 224.534Z" fill="#3F00F9"/>
<path d="M12.4509 209.208C12.6776 208.808 12.9802 208.456 13.3417 208.173C13.5196 208.03 13.7109 207.904 13.9128 207.798L14.4668 207.5L23.2123 202.816L55.1216 185.658L101.351 160.883L105.212 158.818L106.972 157.877C107.122 157.804 107.232 157.728 107.399 157.655C107.565 157.583 107.705 157.566 107.859 157.532C108.16 157.46 108.466 157.413 108.775 157.391C108.944 157.383 109.113 157.383 109.282 157.391L109.977 157.621C109.286 157.529 108.583 157.568 107.906 157.736C107.757 157.77 107.607 157.813 107.48 157.86C107.352 157.906 107.207 158.004 107.075 158.073L105.323 159.022L101.487 161.113L55.3346 186.059L23.4638 203.267L14.7183 207.981L14.1642 208.279C13.995 208.374 13.8327 208.481 13.6784 208.599C13.3731 208.841 13.1183 209.14 12.9283 209.48C12.7346 209.816 12.6145 210.19 12.5755 210.576C12.5366 210.962 12.5798 211.352 12.7024 211.72C12.9657 212.463 13.5084 213.074 14.2154 213.423C14.9783 213.734 15.7966 214.088 16.5893 214.42L36.3051 222.728L124.101 259.776L211.842 296.854L231.549 305.196L236.305 307.206C236.698 307.372 237.09 307.543 237.473 307.679C237.857 307.815 238.266 307.926 238.671 308.028C239.477 308.227 240.298 308.36 241.126 308.424C241.941 308.496 242.761 308.476 243.572 308.365C244.112 308.278 244.645 308.15 245.166 307.981C244.774 308.203 244.395 308.407 244.037 308.578C243.751 308.714 243.478 308.837 243.218 308.952C242.509 309.016 241.796 309.016 241.087 308.952C240.225 308.881 239.369 308.739 238.53 308.526C238.104 308.424 237.678 308.309 237.286 308.169C236.894 308.028 236.476 307.849 236.08 307.683L231.323 305.678L211.62 297.395L123.824 260.347L36.0664 223.273L16.3591 214.939L13.9554 213.926C13.1145 213.509 12.4704 212.78 12.1611 211.895C12.0177 211.452 11.9694 210.983 12.0194 210.52C12.0693 210.057 12.2163 209.61 12.4509 209.208Z" fill="#3F00F9"/>
<path d="M245.878 307.722H245.907C247.39 307.087 248.743 306.186 249.901 305.064C250.48 304.517 251.013 303.923 251.495 303.289L253.008 301.411L255.991 297.71L261.8 290.518L272.711 277.001L305.622 236.184C307.557 233.77 309.291 231.628 310.736 229.75C311.372 228.866 311.789 227.845 311.955 226.769C312.049 226.163 312.072 225.549 312.023 224.938L312.168 224.981C312.217 225.585 312.198 226.194 312.113 226.795C311.955 227.901 311.536 228.953 310.889 229.865C309.44 231.768 307.727 233.915 305.809 236.342C298.112 246.038 286.912 260.023 273.056 277.287C269.587 281.602 265.96 286.117 262.175 290.833L256.383 298.038L253.4 301.738C252.897 302.36 252.394 302.986 251.891 303.616C251.391 304.27 250.841 304.883 250.246 305.452C249.041 306.621 247.633 307.56 246.091 308.224C245.297 308.541 244.471 308.77 243.627 308.905H243.589L244.066 308.688C244.688 308.4 245.292 308.077 245.878 307.722Z" fill="#3F00F9"/>
<path d="M312.16 224.712H312.126L312.16 224.666V224.712Z" fill="#3F00F9"/>
<path d="M312.018 224.687V224.683H312.022L312.018 224.687Z" fill="#3F00F9"/>
<path d="M312.03 224.84L312.124 224.712H312.158C312.158 224.789 312.158 224.874 312.18 224.959L312.035 224.917C312.035 224.896 312.03 224.87 312.03 224.84Z" fill="#3F00F9"/>
<path d="M110.186 157.566C110.188 157.59 110.188 157.614 110.186 157.638L109.99 157.608L109.295 157.378C109.601 157.383 109.906 157.411 110.207 157.463C110.186 157.493 110.186 157.532 110.186 157.566Z" fill="#3F00F9"/>
<path d="M111.711 157.856C111.327 157.805 110.927 157.749 110.513 157.677V157.596C110.513 157.566 110.513 157.536 110.513 157.506L110.688 157.536L111.711 157.856Z" fill="#3F00F9"/>
<path d="M311.899 223.805L312.035 223.852C312.035 223.916 312.057 223.976 312.07 224.04C312.082 224.104 312.07 224.095 312.07 224.116L311.933 224.074C311.929 223.976 311.916 223.89 311.899 223.805Z" fill="#3F00F9"/>
<path d="M110.514 157.694H110.488L110.186 157.642C110.188 157.618 110.188 157.594 110.186 157.57C110.186 157.536 110.186 157.497 110.186 157.468L110.497 157.523H110.522C110.522 157.553 110.522 157.583 110.522 157.613L110.514 157.694Z" fill="#3F00F9"/>
<path d="M250.74 303.242L252.994 300.261C259.319 291.91 268.094 280.4 278.012 267.859C280.498 264.736 282.929 261.699 285.304 258.75L292.149 250.31C296.483 244.91 300.323 239.996 303.52 235.831C306.716 231.666 309.278 228.323 311.042 225.99L311.895 224.87L311.988 224.908L311.136 226.062C309.401 228.426 306.874 231.828 303.699 235.993C300.524 240.158 296.696 245.089 292.375 250.501C290.214 253.21 287.917 256.037 285.556 258.954C283.195 261.871 280.752 264.916 278.272 268.067C268.354 280.604 259.554 292.093 253.182 300.406L250.906 303.386C250.2 304.252 249.422 305.055 248.579 305.788C247.74 306.516 246.839 307.168 245.885 307.739C245.651 307.832 245.412 307.913 245.174 307.99C246.348 307.328 247.45 306.545 248.46 305.652C249.287 304.914 250.049 304.108 250.74 303.242Z" fill="#3F00F9"/>
<path d="M311.89 224.866L312.022 224.691C312.022 224.738 312.022 224.789 312.022 224.84L311.976 224.904L311.89 224.866Z" fill="#3F00F9"/>
<path d="M312.53 224.018L312.611 224.044L312.466 224.244L312.381 224.214L312.53 224.018Z" fill="#3F00F9"/>
<path d="M312.138 224.533C312.135 224.577 312.135 224.622 312.138 224.666L312.104 224.713L312.006 224.687L312.138 224.533Z" fill="#3F00F9"/>
<path d="M245.165 307.973C245.404 307.896 245.643 307.815 245.877 307.722C245.298 308.074 244.701 308.394 244.087 308.68L243.61 308.897L243.218 308.944C243.477 308.829 243.75 308.705 244.036 308.569C244.394 308.395 244.773 308.177 245.165 307.973Z" fill="#3F00F9"/>
<path d="M312.027 224.687L312.125 224.713L312.031 224.841C312.031 224.789 312.031 224.738 312.031 224.691L312.027 224.687Z" fill="#3F00F9"/>
<path d="M313.578 223.823C313.439 223.575 313.363 223.297 313.356 223.013L313.57 222.715C313.604 223.083 313.607 223.454 313.578 223.823Z" fill="#3F00F9"/>
<path d="M313.344 222.937C313.174 221.443 313.593 219.941 314.512 218.751C314.866 218.325 315.147 218.086 315.177 218.116C315.207 218.146 314.265 219.198 313.826 220.816C313.662 221.414 313.576 222.031 313.57 222.651L313.349 222.945L313.344 222.937Z" fill="#3F00F9"/>
<path d="M313.57 222.651V222.715L313.357 223.014C313.355 222.991 313.355 222.968 313.357 222.946L313.57 222.651Z" fill="#3F00F9"/>
<path d="M94.8432 235.422C106.777 226.905 115.539 220.705 118.838 218.171C120.42 216.891 122.27 215.983 124.251 215.514C125.74 215.179 127.276 215.11 128.79 215.31L179.46 234.081C181.301 234.72 182.443 235.972 182.332 237.062C182.289 237.413 182.14 237.742 181.906 238.007L157.383 259.789C156.422 260.635 155.26 261.222 154.008 261.492C152.777 261.704 151.515 261.649 150.308 261.33C147.406 260.543 125.099 251.395 94.677 238.488C94.4697 238.348 94.2929 238.168 94.1574 237.958C94.0219 237.748 93.9304 237.512 93.8885 237.266C93.848 236.899 93.9171 236.528 94.0869 236.2C94.2568 235.872 94.5199 235.601 94.8432 235.422Z" stroke="#3F00F9" stroke-width="0.426434" stroke-miterlimit="10"/>
<path d="M292.737 222.988L260.82 260.1L69.7395 189.504L113.846 164.205L292.737 222.988Z" stroke="#3F00F9" stroke-width="0.426434" stroke-miterlimit="10"/>
<path d="M346.105 70.4512L345.654 72.3291L343.864 79.6494C342.274 86.0625 339.938 95.4864 336.959 107.521C330.954 131.64 322.328 166.231 311.899 208.104L124.966 149.236L118.782 147.286C126.091 104.97 133.068 64.5703 139.469 27.4966L288.437 57.8846L331.027 66.6229L342.346 68.9735L345.257 69.591L345.995 69.7528C346.161 69.7911 346.242 69.8167 346.242 69.8167L345.99 69.7784L345.249 69.6378L342.325 69.0672L330.988 66.8145L288.369 58.2381L139.955 28.1992C133.626 64.9195 126.743 104.932 119.498 146.843L125.149 148.623L311.528 207.436C321.991 165.814 330.639 131.427 336.674 107.448C339.713 95.4268 342.095 86.0157 343.714 79.611L345.581 72.3078C345.799 71.486 345.961 70.86 346.071 70.4427L346.199 69.97C346.21 69.9177 346.226 69.8664 346.246 69.8167C346.243 69.8702 346.233 69.9231 346.216 69.9742C346.186 70.0807 346.152 70.2425 346.105 70.4512Z" fill="#3F00F9"/>
<defs>
<filter id="filter0_f_3305_21565" x="0" y="297" width="366" height="36" filterUnits="userSpaceOnUse" color-interpolation-filters="sRGB">
<feFlood flood-opacity="0" result="BackgroundImageFix"/>
<feBlend mode="normal" in="SourceGraphic" in2="BackgroundImageFix" result="shape"/>
<feGaussianBlur stdDeviation="6" result="effect1_foregroundBlur_3305_21565"/>
</filter>
<linearGradient id="paint0_linear_3305_21565" x1="0" y1="5.99994" x2="342" y2="5.99994" gradientUnits="userSpaceOnUse">
<stop offset="0.149075" stop-opacity="0"/>
<stop offset="0.346413"/>
<stop offset="0.664571" stop-opacity="0"/>
</linearGradient>
<radialGradient id="paint1_radial_3305_21565" cx="0" cy="0" r="1" gradientUnits="userSpaceOnUse" gradientTransform="translate(346 78.5005) rotate(163.905) scale(236.261 230.167)">
<stop stop-color="#0894FF"/>
<stop offset="0.290475" stop-color="#6E53FF"/>
<stop offset="0.609151" stop-color="#B038EA"/>
<stop offset="0.850793" stop-color="#F95088"/>
<stop offset="1" stop-color="#FF6F62"/>
</radialGradient>
</defs>
</svg>
