<svg width="280" height="254" viewBox="0 0 280 254" fill="none" xmlns="http://www.w3.org/2000/svg">
<path d="M275.64 115.591C279.101 118.098 280.159 122.48 279.323 126.53C279.13 127.49 278.824 128.423 278.411 129.31C277.872 130.122 277.151 130.797 276.305 131.28C272.894 133.837 269.347 136.165 265.792 138.493C260.838 141.733 255.484 144.461 250.343 147.454L234.646 156.509L203.235 174.618L171.867 192.719L140.465 210.829C130.302 216.687 120.164 222.604 109.984 228.427C100.929 233.603 91.6696 236.809 81.08 236.212C71.1129 235.657 63.175 231.463 54.7511 226.5L9.31484 199.779C7.6096 198.79 5.66564 197.886 4.27587 196.505C2.77133 195.187 1.57993 193.55 0.788621 191.713C0.285345 190.183 0.165333 188.552 0.439069 186.964C0.704031 185.381 1.10339 183.824 1.63276 182.309" fill="#492298"/>
<path d="M36.3764 161.462C64.223 145.995 91.379 129.344 118.527 112.7L158.983 87.8977C170.068 81.1194 180.47 71.4336 194.299 74.0937C201.478 75.475 208.018 79.056 214.421 82.62L251.936 103.33C258.101 106.741 264.223 110.765 270.643 113.655C274.445 115.361 278.922 117.066 276.73 122.651C275.29 126.359 271.615 128.619 268.136 130.554L174.024 184.056L126.959 210.812C113.573 218.426 99.1038 230.635 82.9381 229.493C80.4708 229.312 78.0234 228.922 75.6226 228.325C66.9173 226.167 58.9624 221.776 51.1268 217.419L12.7588 196.104C9.63818 194.399 6.47493 192.608 3.9938 190.05C3.14118 189.198 1.82814 188.064 1.43594 186.938C0.92293 185.18 1.056 183.296 1.81109 181.626C2.74045 179.503 4.42863 178.284 6.43229 177.278C9.06689 175.948 11.6845 174.584 14.302 173.237C19.5883 170.497 24.849 167.717 30.0841 164.898C32.2071 163.79 34.296 162.647 36.3764 161.462Z" fill="#8859E9"/>
<path d="M243.761 145.416L135.043 207.137C130.874 209.525 126.704 211.793 122.748 214.24C118.792 216.687 114.904 219.21 110.956 221.521C107.078 223.847 103.01 225.843 98.798 227.489C94.677 229.133 90.3057 230.062 85.8722 230.235C81.5948 230.259 77.339 229.626 73.2534 228.359C69.3458 227.172 65.5442 225.66 61.888 223.84C58.2984 222.135 54.888 220.208 51.5627 218.358L41.8258 212.918L23.7332 202.797L15.4116 198.142C12.7343 196.624 10.0827 195.243 7.64419 193.615C6.43298 192.815 5.29203 191.914 4.2337 190.92L2.75863 189.454C2.24612 188.959 1.78874 188.41 1.39446 187.817C1.02364 187.185 0.802003 186.476 0.746454 185.745C0.673502 185.061 0.690699 184.37 0.797609 183.69C0.983802 182.364 1.49009 181.102 2.27268 180.015C3.04223 179.008 4.00806 178.167 5.11187 177.543C6.16912 176.929 7.20933 176.46 8.2069 175.94L13.9451 173.032L30.5627 164.429L34.8684 162.17L35.9768 161.607C36.0987 161.54 36.2273 161.486 36.3605 161.445C36.3605 161.445 36.2581 161.539 36.0194 161.684L34.9536 162.323L30.6905 164.745C26.9475 166.808 21.3884 169.792 14.2264 173.638L8.51383 176.613C7.52479 177.142 6.46754 177.645 5.48703 178.225C4.49183 178.806 3.62233 179.58 2.92916 180.501C2.24222 181.485 1.80342 182.62 1.65023 183.81C1.56928 184.418 1.56928 185.034 1.65023 185.643C1.69887 186.244 1.88248 186.827 2.18739 187.348C3.00434 188.395 3.91471 189.365 4.90725 190.247C5.92876 191.192 7.02986 192.048 8.19836 192.805C10.5686 194.365 13.2374 195.729 15.9231 197.23L24.2788 201.834L42.4311 211.844L52.1937 217.232C55.5274 219.065 58.9209 220.924 62.4763 222.629C66.0747 224.399 69.8134 225.868 73.6542 227.02C77.5994 228.241 81.7086 228.847 85.8381 228.819C90.1041 228.628 94.3071 227.718 98.2693 226.125C102.408 224.472 106.4 222.475 110.206 220.157C114.103 217.863 117.956 215.331 121.955 212.858C125.954 210.386 130.115 208.092 134.276 205.696L242.925 143.856L257.292 135.696L264.403 131.646C266.756 130.282 269.186 129.029 271.326 127.554C273.466 126.079 275.342 124.237 276.084 121.909C276.519 120.849 276.57 119.67 276.229 118.575C276.017 118.071 275.706 117.613 275.316 117.228C274.882 116.817 274.404 116.454 273.892 116.145C272.766 115.511 271.605 114.942 270.414 114.44C269.192 113.872 267.989 113.303 266.807 112.735C264.445 111.516 262.143 110.177 259.884 108.89C257.624 107.602 255.39 106.238 253.148 104.959L246.395 101.216L233.06 93.8324L220.007 86.6107C215.692 84.2489 211.48 81.8104 207.217 79.6618C203.09 77.4628 198.677 75.85 194.104 74.8701C191.888 74.4721 189.629 74.366 187.385 74.5546C185.165 74.7793 182.98 75.2746 180.88 76.0296C178.789 76.7719 176.764 77.6874 174.826 78.7666C172.874 79.8068 170.998 80.9834 169.156 82.177C165.473 84.5644 161.883 87.0625 158.2 89.2708L117.624 113.997C92.8211 129.148 72.631 141.213 58.5116 149.27C51.4604 153.311 45.944 156.381 42.1839 158.436L37.9208 160.738L36.8209 161.3C36.6997 161.375 36.5673 161.43 36.4287 161.462C36.5368 161.371 36.6539 161.291 36.7783 161.224L37.8355 160.576L42.0389 158.129L58.2387 148.682C72.2473 140.445 92.3436 128.219 117.07 112.948L157.535 88.009C161.184 85.8092 164.723 83.3366 168.44 80.8981C170.299 79.6959 172.2 78.5022 174.195 77.4194C176.205 76.304 178.3 75.3517 180.462 74.5716C182.679 73.7651 184.987 73.2353 187.334 72.9943C189.725 72.78 192.134 72.8861 194.496 73.3098C199.213 74.3102 203.769 75.9571 208.036 78.2038C212.359 80.3865 216.562 82.808 220.885 85.1612L233.956 92.3659L247.308 99.7155L254.129 103.467C256.388 104.754 258.622 106.085 260.881 107.398C263.141 108.711 265.4 109.998 267.702 111.192C268.862 111.789 270.039 112.351 271.232 112.897C272.491 113.419 273.716 114.02 274.898 114.696C275.513 115.074 276.084 115.517 276.604 116.018C277.167 116.57 277.611 117.231 277.908 117.962C278.403 119.431 278.364 121.028 277.797 122.472C277.33 123.858 276.581 125.132 275.598 126.215C274.643 127.262 273.566 128.192 272.392 128.986C270.09 130.58 267.685 131.808 265.341 133.181L258.23 137.222L243.761 145.416Z" fill="white"/>
<path d="M205.666 86.7302C205.173 87.063 204.729 87.4617 204.344 87.9153C204.156 88.1456 204.016 88.4115 203.932 88.6972C203.849 88.9828 203.824 89.2824 203.858 89.5779C203.983 89.9867 204.203 90.3603 204.499 90.6685C204.795 90.9766 205.16 91.2105 205.564 91.3514C206.663 91.88 207.559 92.4939 208.59 93.1163C218.822 99.3006 229.295 105.036 240.009 110.322C240.905 110.766 241.885 111.124 242.746 111.61C243.733 112.262 244.785 112.811 245.884 113.247C247.185 113.729 248.622 113.686 249.891 113.127C250.594 112.707 251.254 112.219 251.861 111.669C252.476 111.113 253.259 110.777 254.086 110.714C254.797 110.769 255.485 110.994 256.09 111.371C258.558 112.671 260.96 114.094 263.286 115.634C264.48 116.427 265.665 117.254 266.816 118.107C267.264 118.487 267.62 118.964 267.858 119.501C268.095 120.039 268.209 120.623 268.189 121.21C268.189 124.075 265.409 126.036 262.928 127.46C242.235 139.397 221.652 151.419 200.942 163.321L138.13 199.396L109.814 215.664C101.706 220.319 92.9236 225.827 83.1781 225.256H82.5387C71.4546 224.343 61.4192 216.798 51.9978 211.46L41.5531 205.492C38.3388 203.676 34.9795 202.141 31.6713 200.461C24.8503 197.005 18.2339 193.223 11.8222 189.113C10.9837 188.633 10.2245 188.026 9.57134 187.314C9.24496 186.953 9.00412 186.524 8.86682 186.057C8.72953 185.591 8.69928 185.099 8.77836 184.62C9.04267 183.443 10.1255 182.65 11.1316 181.977C12.6493 180.97 14.1812 179.981 15.7272 179.009C23.1024 174.388 30.7845 170.355 38.2535 165.879L61.5557 151.896L108.126 123.947C115.424 119.565 122.91 115.506 130.115 110.962C137.004 106.613 143.996 102.649 150.919 98.2661L176.881 81.8105C179.243 80.3184 181.656 78.7922 184.376 78.1357C188.247 77.1893 192.382 78.1357 195.954 79.841C199.527 81.5462 202.639 84.1467 205.717 86.6619" fill="#FCFBFF"/>
<path d="M67.6167 171.941C75.0061 176.489 82.5262 180.817 90.1771 184.927C93.9968 187.001 97.8393 189.016 101.705 190.972C103.64 191.961 105.584 192.924 107.528 193.888C109.114 194.664 110.512 195.636 112.089 196.394C112.55 196.616 113.019 196.804 113.471 197.034C114.826 197.699 116.191 198.799 116.276 200.308C116.276 200.792 116.174 201.27 115.975 201.711C115.777 202.152 115.487 202.546 115.125 202.866C114.4 203.504 113.587 204.035 112.712 204.443L105.132 208.416C103.043 209.516 100.869 210.309 98.8056 211.358C95.2331 213.157 90.2794 213.993 86.3744 212.731C84.1576 212.006 81.9322 210.429 79.9286 209.243C77.7714 207.965 75.6655 206.438 73.6277 205.049C71.1892 203.412 68.4182 202.133 65.8603 200.692C60.7048 197.759 55.5692 194.78 50.4534 191.756C47.9297 190.256 45.4144 188.749 42.9077 187.237C41.9576 186.657 40.9755 186.13 39.9662 185.66C39.477 185.45 39.069 185.088 38.8031 184.626C38.5373 184.165 38.4278 183.631 38.4912 183.102C38.7214 181.746 40.0515 180.902 41.2536 180.229L52.0734 174.158C55.1599 172.453 57.8116 170.236 61.529 170.475C65.579 170.722 69.2623 172.777 72.7836 174.738" fill="#492298"/>
<path d="M68.4705 168.812C75.8599 173.359 83.38 177.69 91.0309 181.806C94.8507 183.869 98.6931 185.884 102.558 187.851C104.491 188.828 106.435 189.798 108.39 190.758C109.968 191.534 111.366 192.515 112.943 193.265C113.404 193.487 113.873 193.683 114.325 193.904C115.68 194.569 117.044 195.669 117.13 197.178C117.13 197.662 117.028 198.14 116.829 198.581C116.631 199.022 116.341 199.416 115.979 199.736C115.256 200.377 114.443 200.908 113.566 201.314L105.986 205.295C103.897 206.387 101.723 207.188 99.6594 208.228C96.0869 210.027 91.1332 210.872 87.2282 209.601C85.0114 208.876 82.786 207.299 80.7824 206.114C78.6252 204.835 76.5193 203.317 74.4815 201.919C72.0516 200.282 69.272 199.012 66.7141 197.562C61.5586 194.629 56.423 191.651 51.3072 188.627C48.7835 187.137 46.2683 185.634 43.7615 184.116C42.8134 183.535 41.8343 183.005 40.8285 182.53C40.3369 182.323 39.9262 181.961 39.6586 181.5C39.3909 181.038 39.2808 180.502 39.345 179.973C39.5752 178.617 40.9053 177.773 42.1075 177.099L52.9358 171.037C56.0137 169.332 58.6654 167.115 62.3913 167.345C66.4327 167.601 70.1161 169.647 73.6374 171.651" fill="#492298"/>
<path d="M84.5325 209.371C83.0575 208.587 81.7103 207.666 80.3717 206.881C79.0331 206.097 77.6433 205.176 76.3473 204.255C75.0513 203.334 73.7894 202.456 72.5105 201.697C71.2316 200.939 69.8589 200.222 68.5118 199.506C67.1646 198.79 65.826 198.031 64.5471 197.281L60.7188 195.047L53.301 190.707C50.8795 189.309 48.5519 187.885 46.2839 186.512C45.1499 185.839 44.033 185.131 42.9331 184.517L41.296 183.664L40.4434 183.213C40.0901 183.039 39.7675 182.808 39.4885 182.53C38.9107 181.957 38.5828 181.179 38.5762 180.365C38.6056 179.587 38.9074 178.845 39.4288 178.267C40.3333 177.39 41.3798 176.672 42.5238 176.144L48.3387 172.956C50.1804 171.932 51.9794 170.977 53.6079 170.048C55.1448 169.063 56.7688 168.221 58.4593 167.533C59.2597 167.246 60.0936 167.063 60.9405 166.987C61.7206 166.934 62.5042 166.968 63.2767 167.089C64.6028 167.29 65.9015 167.642 67.1475 168.138C68.8432 168.832 70.4775 169.668 72.033 170.636C72.6015 170.926 73.1291 171.291 73.6019 171.719C73.0086 171.519 72.4372 171.259 71.8966 170.943C70.2958 170.117 68.6441 169.394 66.9515 168.778C65.74 168.353 64.4843 168.067 63.2084 167.925C62.4941 167.852 61.7742 167.852 61.0598 167.925C60.2941 168.021 59.5435 168.213 58.8259 168.496C57.2112 169.207 55.6644 170.063 54.2047 171.054C52.5507 172.052 50.7942 173.015 48.9696 174.081L43.2144 177.372C42.2224 177.843 41.3127 178.471 40.5202 179.231C40.2241 179.561 40.0496 179.982 40.0256 180.424C40.0335 180.638 40.0836 180.849 40.1728 181.043C40.2621 181.238 40.3888 181.413 40.5457 181.558C40.7104 181.719 40.9006 181.852 41.1085 181.951L41.9611 182.403L43.6664 183.323C44.8174 183.946 45.9087 184.628 47.0768 185.293C49.3619 186.64 51.6895 188.047 54.1195 189.42L61.5543 193.683L65.3911 195.891C66.6871 196.65 67.949 197.383 69.3217 198.074C70.6944 198.764 72.0331 199.489 73.3973 200.299C74.7615 201.109 76.0575 202.004 77.3449 202.908C78.6324 203.812 79.9028 204.673 81.267 205.466C82.6311 206.259 83.9868 207.171 85.3595 207.904C86.6751 208.647 88.1234 209.125 89.6226 209.311C91.113 209.481 92.6197 209.44 94.0989 209.192C95.5626 208.949 96.9932 208.537 98.362 207.964C98.7031 207.819 99.0186 207.657 99.3596 207.495L100.425 206.992L102.531 206.054C103.947 205.449 105.226 204.835 106.556 204.127L110.486 202.073C111.765 201.399 113.121 200.734 114.28 200.069C114.823 199.774 115.308 199.384 115.713 198.918C116.066 198.515 116.284 198.011 116.335 197.477C116.412 196.505 115.542 195.567 114.485 194.919C113.982 194.621 113.317 194.348 112.72 194.066C112.123 193.785 111.492 193.435 110.913 193.094C109.745 192.404 108.687 191.764 107.502 191.219L104.092 189.513C99.658 187.254 95.5654 185.012 91.8565 183.034C84.4302 178.975 78.5556 175.445 74.5313 172.956C72.5276 171.711 70.9844 170.713 69.9442 170.022C69.3902 169.706 68.8775 169.322 68.4179 168.88C69.0179 169.096 69.5902 169.382 70.1232 169.733L74.8808 172.393C78.999 174.695 84.9588 178.063 92.4448 181.959C96.2134 183.869 100.289 186.043 104.74 188.243L108.15 189.948C109.318 190.494 110.503 191.193 111.629 191.841C112.192 192.165 112.754 192.464 113.334 192.694C113.914 192.924 114.553 193.214 115.227 193.606C115.91 193.989 116.517 194.495 117.017 195.098C117.593 195.781 117.896 196.652 117.87 197.545C117.761 198.381 117.448 199.178 116.957 199.864C116.466 200.549 115.813 201.103 115.056 201.476C113.735 202.226 112.499 202.848 111.194 203.548L107.272 205.619C105.976 206.327 104.535 207.018 103.154 207.615L101.082 208.544L100.067 209.038C99.7092 209.2 99.3425 209.397 98.9674 209.542C97.4679 210.182 95.8961 210.637 94.2865 210.897C92.6444 211.178 90.9707 211.224 89.3157 211.034C88.4646 210.928 87.6253 210.743 86.809 210.479C86.0221 210.171 85.2609 209.8 84.5325 209.371Z" fill="white"/>
<g clip-path="url(#clip0_1390_7493)">
<path d="M132.855 54.9258C128.743 60.4463 125.735 66.7081 123.996 73.368C123.889 73.6275 123.889 73.9185 123.996 74.178C124.175 74.4849 124.593 74.5276 124.942 74.5446L131.107 74.7919" fill="#8859E9"/>
<path d="M168.051 57.168C171.204 60.7779 173.067 65.3342 173.346 70.1193C173.378 70.2974 173.37 70.4805 173.321 70.6548C173.272 70.8291 173.185 70.99 173.064 71.1254C172.808 71.2781 172.503 71.3269 172.212 71.2618L167.173 70.9037" fill="#8859E9"/>
<path d="M157.59 96.099C156.703 97.427 155.51 98.5223 154.112 99.2922C152.713 100.062 151.149 100.484 149.553 100.523C147.957 100.561 146.375 100.215 144.941 99.5132C143.507 98.8115 142.262 97.775 141.313 96.4912C140.266 94.8429 139.443 93.0623 138.866 91.1964C138.141 89.3292 137.101 87.5557 136.308 85.7141C131.114 73.6592 128.891 60.5328 129.828 47.4399C131.175 29.4837 138.67 13.8892 149.78 0C159.255 11.7856 165.552 25.8033 168.068 40.7149C170.585 55.6265 169.238 70.9343 164.155 85.1769C162.671 89.3292 160.804 93.4729 157.666 96.5765C154.529 99.68 149.89 101.564 145.627 100.422C144.484 100.127 143.423 99.5759 142.524 98.8103C141.785 98.0625 141.342 97.0717 141.279 96.0223C140.983 94.878 140.487 93.7953 139.812 92.8249C139.48 92.2281 139.147 91.6227 138.832 91.0089" fill="#8859E9"/>
<path d="M137.851 88.9283C137.851 88.9283 152.269 103.662 162.39 88.5361C162.39 88.5361 178.427 121.166 151.962 152.065C151.962 152.065 126.903 132.907 137.851 88.9283Z" fill="#FCF9FF"/>
<path d="M135.14 33.3453L135.191 33.2771C135.37 33.1151 135.549 33.2771 135.677 33.4306C135.805 33.584 136.052 33.7375 136.248 33.8825C136.632 34.1809 137.024 34.4622 137.425 34.7351C138.23 35.2658 139.071 35.7415 139.94 36.159C141.564 36.9481 143.284 37.5214 145.056 37.8642C146.806 38.2148 148.595 38.3324 150.376 38.2138C153.183 38.0128 155.919 37.245 158.421 35.9569C160.922 34.6688 163.137 32.887 164.93 30.7192C168.749 45.3658 169.041 60.709 165.783 75.4904C164.709 80.3248 163.131 86.0885 159.141 89.4393C157.284 90.9652 155.091 92.0264 152.742 92.535C150.393 93.0436 147.957 92.9849 145.636 92.3638C137.689 90.1385 135.498 82.8826 133.81 75.8485C133.358 73.9898 132.957 72.1055 132.667 70.2127C132.377 68.3199 132.113 66.4185 131.934 64.5086C131.755 62.5988 131.661 60.6889 131.627 58.7705C131.593 56.8521 131.627 54.9422 131.729 53.0324C131.832 51.1225 132.002 49.2041 132.249 47.3027C132.497 45.4014 132.804 43.5086 133.179 41.6328C133.554 39.757 134.031 37.8898 134.534 36.0481C134.679 35.528 134.833 35.0079 134.995 34.4964C135.084 34.2611 135.152 34.0186 135.199 33.7716C135.199 33.6267 135.2 33.26 135.379 33.2345C135.403 33.2309 135.427 33.2323 135.451 33.2386C135.475 33.2449 135.497 33.256 135.516 33.2712C135.535 33.2864 135.551 33.3053 135.563 33.3269C135.574 33.3484 135.581 33.3721 135.583 33.3965" fill="url(#paint0_linear_1390_7493)"/>
<path d="M161.57 54.2524L166.532 65.3365C169.5 71.9955 172.501 78.6801 174.436 85.7057C176.372 92.7313 177.267 100.158 175.979 107.328L161.655 90.864C160.217 89.4222 159.061 87.7249 158.245 85.8591C157.662 83.8071 157.485 81.661 157.725 79.5412L158.748 58.0125C158.708 57.0579 158.932 56.1107 159.396 55.2756C159.518 55.0744 159.679 54.8993 159.869 54.7604C160.06 54.6214 160.275 54.5214 160.504 54.4659C160.733 54.4105 160.971 54.4008 161.203 54.4373C161.436 54.4738 161.659 54.5559 161.86 54.6788" fill="url(#paint1_linear_1390_7493)"/>
<path d="M161.324 41.9831C160.821 40.2182 158.459 39.0074 156.106 38.9478C153.838 38.9457 151.632 39.6919 149.831 41.0708C148.864 41.7376 148.044 42.5952 147.42 43.5908C146.797 44.5864 146.384 45.699 146.207 46.8601C146.112 48.0086 146.305 49.1627 146.768 50.2181C147.231 51.2734 147.95 52.1969 148.859 52.9052C150.245 54.0669 152.013 54.6744 153.821 54.6104C155.393 54.4466 156.89 53.857 158.152 52.9052C160.249 51.6198 161.867 49.6819 162.756 47.3887C163.114 46.2916 163.143 45.1139 162.84 44.0005C162.537 42.887 161.915 41.8865 161.051 41.1219" fill="#492298"/>
<path d="M160.668 42.2895C160.241 40.7292 158.221 39.6464 156.208 39.5952C154.254 39.5997 152.358 40.2636 150.828 41.4795C149.997 42.0833 149.295 42.8467 148.762 43.725C148.229 44.6034 147.876 45.5791 147.725 46.5952C147.642 47.6066 147.806 48.6229 148.203 49.5569C148.599 50.491 149.217 51.315 150.001 51.9582C151.175 52.9939 152.7 53.5428 154.264 53.493C155.615 53.35 156.9 52.8333 157.973 52.0009C159.783 50.841 161.166 49.1229 161.912 47.1068C162.224 46.1382 162.253 45.1009 161.996 44.1164C161.74 43.1319 161.208 42.2409 160.463 41.5477" fill="#FCF9FF"/>
<path d="M141.049 46.4473C140.614 51.6375 140.649 55.957 140.392 55.9997C140.135 56.0424 139.744 51.6204 140.179 46.2168C140.614 40.8131 141.741 36.8265 141.945 37.0058C142.15 37.1851 141.484 41.2485 141.049 46.4473Z" fill="#492298"/>
<path d="M141.023 54.9258C140.721 65.2627 142.825 75.5283 147.17 84.9125C141.087 88.9306 135.699 93.9126 131.218 99.6628C128.822 102.732 126.631 106.075 123.442 108.308C122.001 103.696 123.152 98.725 124.294 94.0355C127.705 80.3339 131.226 66.2486 139.488 54.8149" fill="url(#paint2_linear_1390_7493)"/>
<path d="M172.587 80.5811C174.758 86.4808 176.101 92.6527 176.578 98.9209C176.867 103.738 176.373 106.705 176.168 106.688C175.964 106.671 175.947 103.721 175.316 99.0147C174.495 92.9077 173.025 86.9055 170.933 81.1097C168.546 74.2461 166.338 68.0646 164.598 63.6395C162.859 59.2143 161.725 56.503 161.947 56.3922C162.168 56.2813 163.711 58.8136 165.732 63.162C167.753 67.5104 170.2 73.7004 172.587 80.5811Z" fill="white"/>
<path d="M129.632 80.4362C124.849 94.7603 123.57 107.03 123.015 106.961C122.802 106.961 122.845 103.849 123.518 98.8955C123.851 96.4144 124.371 93.4814 125.096 90.2584C125.82 87.0355 126.801 83.5227 127.978 79.8906C129.154 76.2584 130.536 72.882 131.84 69.8552C133.145 66.8284 134.5 64.1597 135.711 61.977C138.124 57.5945 139.931 55.0793 140.119 55.156C140.596 55.4629 134.321 66.0866 129.632 80.4362Z" fill="white"/>
<path d="M172.314 65.8562C172.601 67.1156 172.758 68.4014 172.783 69.693C172.827 70.2274 172.786 70.7655 172.663 71.2874C172.527 71.2874 172.561 68.8489 171.887 65.9585C171.214 63.0681 170.182 60.8428 170.284 60.8428C170.63 61.2561 170.901 61.7263 171.086 62.2326C171.618 63.3952 172.03 64.6094 172.314 65.8562Z" fill="white"/>
<path d="M127.654 66.8712C126.921 68.6787 126.383 70.3584 126.017 71.5862C125.868 72.2485 125.669 72.8985 125.42 73.5301C125.438 72.8334 125.55 72.1423 125.752 71.4753C126.532 68.1967 127.796 65.0528 129.504 62.1476C129.818 61.5273 130.217 60.9534 130.689 60.4424C130.43 61.0872 130.122 61.7115 129.768 62.3096C129.154 63.4692 128.379 65.0636 127.654 66.8712Z" fill="white"/>
<path d="M131.883 95.9879C134.137 93.5512 136.574 91.2908 139.173 89.2266C140.209 88.3116 141.354 87.5296 142.584 86.8989C142.669 87.0098 141.467 88.0159 139.582 89.6955C137.698 91.3752 135.157 93.7625 132.54 96.5847C129.922 99.4069 127.74 102.118 126.205 104.122C124.67 106.126 123.749 107.396 123.647 107.328C123.545 107.26 124.295 105.87 125.71 103.764C127.569 101.02 129.632 98.4203 131.883 95.9879Z" fill="white"/>
<path d="M169.484 96.9514C171.073 98.7338 172.524 100.635 173.824 102.638C174.318 103.406 174.676 104.037 174.941 104.489C175.09 104.712 175.205 104.956 175.282 105.213C175.231 105.213 174.617 104.292 173.577 102.809C172.212 100.872 170.74 99.0137 169.169 97.2413C167.588 95.4735 165.915 93.7914 164.155 92.2023C162.799 90.9916 161.93 90.2669 161.964 90.2157C161.998 90.1646 162.228 90.3436 162.637 90.642C163.047 90.9404 163.644 91.3923 164.343 91.9721C166.18 93.4992 167.899 95.1637 169.484 96.9514Z" fill="white"/>
<g clip-path="url(#clip1_1390_7493)">
<path d="M166.029 116.575C165.372 124.652 163.193 132.446 159.656 139.37C158.602 141.459 157.406 143.441 156.08 145.295C155.136 146.597 154.535 147.23 154.47 147.162C154.27 146.965 156.337 144.071 158.762 138.753C161.947 131.851 163.926 124.246 164.578 116.4C165.229 108.553 164.541 100.63 162.553 93.1128C162.046 90.8199 161.252 88.6318 160.2 86.6221C159.42 85.2435 158.805 84.6355 158.877 84.5242C158.948 84.4129 159.678 84.8753 160.651 86.2368C161.925 88.1782 162.894 90.3803 163.512 92.7361C165.833 100.356 166.693 108.503 166.029 116.575Z" fill="#492298"/>
<path d="M138.407 118.39C139.004 123.026 140.13 127.541 141.754 131.808C143.092 135.282 144.773 138.551 146.761 141.544C150.216 146.682 153.12 148.951 152.963 149.2C152.913 149.285 152.133 148.814 150.86 147.718C149.075 146.141 147.437 144.338 145.975 142.341C143.794 139.367 141.958 136.055 140.517 132.493C138.759 128.121 137.554 123.461 136.94 118.664C136.316 113.879 136.225 109.016 136.669 104.202C137.011 100.262 137.831 96.4022 139.101 92.7444C139.956 90.272 141.11 87.9638 142.527 85.8941C142.905 85.3294 143.322 84.8024 143.771 84.3185C144.072 83.9845 144.251 83.8304 144.286 83.8732C144.322 83.916 144.222 84.1472 143.993 84.5497C143.764 84.9521 143.407 85.5344 142.985 86.2623C141.788 88.4156 140.806 90.729 140.059 93.1554C138.968 96.7414 138.277 100.484 138.006 104.287C137.655 108.99 137.79 113.727 138.407 118.39Z" fill="#492298"/>
<path d="M151.346 85.9887C153.089 86.034 154.825 85.6974 156.467 84.9954C157.755 84.4559 158.534 83.9764 158.663 84.1819C158.792 84.3874 158.191 85.2266 156.896 86.1171C155.186 87.2543 153.249 87.8136 151.294 87.7351C149.339 87.6567 147.438 86.9435 145.795 85.6718C144.558 84.6785 144.028 83.7623 144.15 83.5996C144.271 83.4369 145.037 83.9421 146.296 84.5843C147.893 85.4167 149.605 85.8926 151.346 85.9887Z" fill="#492298"/>
<path d="M145.508 111.558C145.387 118.845 147.189 124.522 146.767 124.702C146.596 124.788 145.916 123.469 145.251 121.114C144.86 119.719 144.568 118.287 144.378 116.833C143.899 113.292 143.94 109.679 144.5 106.155C144.747 104.747 145.084 103.365 145.508 102.019C146.224 99.6813 146.939 98.3969 147.111 98.4825C147.518 98.6538 145.58 104.263 145.508 111.558Z" fill="#492298"/>
<path d="M158.669 100.306C158.794 101.675 158.794 103.056 158.669 104.425C158.562 105.538 158.356 106.635 158.054 107.696C157.525 109.503 156.917 110.453 156.752 110.359C156.588 110.265 156.81 109.152 157.053 107.396C157.373 105.133 157.426 102.827 157.21 100.546C156.965 98.2593 156.452 96.0253 155.687 93.9096C155.1 92.2741 154.628 91.2722 154.807 91.1095C154.986 90.9468 155.722 91.7261 156.595 93.3273C157.103 94.2713 157.523 95.2792 157.847 96.3329C158.242 97.6171 158.518 98.9495 158.669 100.306Z" fill="#492298"/>
</g>
</g>
<g clip-path="url(#clip2_1390_7493)">
<path d="M115.64 122.641C117.71 121.43 119.884 120.408 122.137 119.588C123.177 119.247 124.175 118.906 125.13 118.684C126.006 118.448 126.894 118.26 127.79 118.122C131.073 117.585 133.145 117.747 133.153 117.951C133.162 118.156 131.158 118.497 128.037 119.324C127.262 119.529 126.417 119.759 125.48 120.074C124.542 120.39 123.638 120.722 122.649 121.089C118.396 122.801 114.437 125.169 110.917 128.106C110.124 128.797 109.339 129.445 108.674 130.11C108.009 130.775 107.37 131.38 106.816 131.968C104.607 134.304 103.405 135.942 103.175 135.797C102.945 135.652 103.84 133.793 105.878 131.158C106.398 130.51 106.969 129.794 107.651 129.095C108.333 128.396 109.067 127.646 109.868 126.895C111.658 125.304 113.59 123.88 115.64 122.641Z" fill="#3F00F9" fill-opacity="0.5"/>
<path d="M176.569 117.21C178.615 117.902 180.546 118.897 182.298 120.16C183.629 121.149 184.302 121.934 184.166 122.121C183.859 122.53 180.534 120.416 175.998 118.856C171.462 117.295 167.548 116.895 167.557 116.392C167.557 116.161 168.58 115.948 170.234 115.991C172.394 116.082 174.529 116.493 176.569 117.21Z" fill="#3F00F9" fill-opacity="0.5"/>
<path d="M198.481 154.145C196.103 157.37 193.099 160.082 189.647 162.117C186.874 163.757 183.933 165.095 180.874 166.107C175.681 167.812 172.348 168.333 172.297 168.136C172.245 167.94 175.451 166.917 180.448 164.948C183.355 163.808 186.152 162.404 188.803 160.753C192.016 158.759 194.82 156.172 197.065 153.13C199.31 150.132 200.679 146.569 201.021 142.839C201.215 139.793 200.594 136.75 199.222 134.023C198.282 132.175 196.977 130.536 195.386 129.206L194.61 128.6C194.379 128.43 194.175 128.302 194.013 128.183C193.697 127.952 193.535 127.799 193.561 127.748C193.586 127.697 193.791 127.748 194.175 127.867C194.413 127.95 194.647 128.047 194.874 128.157L195.786 128.66C197.653 129.861 199.2 131.496 200.297 133.426C201.953 136.312 202.76 139.608 202.624 142.933C202.357 146.993 200.917 150.887 198.481 154.145Z" fill="#3F00F9" fill-opacity="0.5"/>
<path d="M130.859 165.315C138.362 167.115 146.031 168.138 153.743 168.367C159.712 168.538 163.361 168.299 163.386 168.572C163.412 168.844 159.746 169.424 153.735 169.603C145.896 169.741 138.072 168.881 130.45 167.045C126.228 166.078 122.109 164.71 118.146 162.961C114.876 161.533 111.84 159.619 109.143 157.283C107.321 155.708 105.771 153.845 104.556 151.766C104.216 151.21 103.931 150.621 103.703 150.01C103.541 149.592 103.481 149.371 103.532 149.336C103.584 149.302 103.754 149.49 104.01 149.848C104.266 150.206 104.598 150.752 105.118 151.391C106.496 153.247 108.113 154.913 109.927 156.345C112.636 158.442 115.616 160.163 118.786 161.461C122.695 163.081 126.734 164.37 130.859 165.315Z" fill="#3F00F9" fill-opacity="0.5"/>
<path d="M135.796 124.031C134.973 123.778 134.107 123.695 133.251 123.788C132.395 123.88 131.567 124.146 130.817 124.568C129.637 125.223 128.729 126.278 128.259 127.543C128.033 128.176 127.946 128.849 128.002 129.518C128.058 130.187 128.256 130.837 128.583 131.423C129.115 132.274 129.918 132.922 130.864 133.26C131.809 133.599 132.84 133.61 133.792 133.29C134.728 132.923 135.52 132.263 136.049 131.409C136.577 130.554 136.815 129.551 136.725 128.55C136.47 126.239 134.517 124.466 132.462 123.332" fill="white"/>
<path d="M131.064 132.37C131.886 132.691 132.799 132.691 133.621 132.37C134.387 132.065 135.03 131.512 135.446 130.801C135.848 130.152 136.05 129.398 136.026 128.635C135.987 127.946 135.792 127.276 135.455 126.674C134.904 125.742 134.201 124.909 133.374 124.21C132.786 123.681 132.436 123.357 132.522 123.264C132.607 123.17 133.033 123.264 133.783 123.656C134.875 124.215 135.816 125.028 136.529 126.026C137.047 126.766 137.377 127.62 137.492 128.516C137.603 129.645 137.353 130.781 136.777 131.758C136.2 132.736 135.328 133.506 134.286 133.955C133.071 134.44 131.716 134.44 130.501 133.955C129.265 133.503 128.255 132.585 127.687 131.398C127.195 130.31 127.075 129.09 127.346 127.927C127.584 126.905 128.097 125.968 128.83 125.216C129.44 124.575 130.178 124.07 130.995 123.733C132.147 123.245 133.419 123.117 134.645 123.366C135.497 123.562 135.881 123.852 135.847 123.954C135.813 124.057 135.352 124.022 134.576 124.039C133.511 124.068 132.466 124.343 131.524 124.841C130.868 125.186 130.295 125.67 129.844 126.259C129.394 126.848 129.077 127.528 128.915 128.251C128.767 129.072 128.878 129.918 129.23 130.673C129.605 131.45 130.26 132.056 131.064 132.37Z" fill="#492298"/>
<path d="M164.631 123.621C166.894 123.773 169.052 124.635 170.796 126.085C171.657 126.814 172.35 127.72 172.828 128.741C173.307 129.762 173.559 130.875 173.567 132.002C173.55 133.133 173.222 134.237 172.621 135.195C172.02 136.152 171.167 136.927 170.156 137.434C169.035 137.907 167.796 138.032 166.602 137.792C165.408 137.552 164.315 136.957 163.463 136.086C162.641 135.188 162.061 134.096 161.776 132.912C161.491 131.728 161.511 130.491 161.835 129.317C162.179 128.15 162.761 127.067 163.545 126.137C164.328 125.206 165.296 124.448 166.388 123.911" fill="white"/>
<path d="M169.663 138.525C168.149 138.933 166.54 138.812 165.103 138.183C163.666 137.554 162.487 136.453 161.759 135.064C161.194 133.973 160.891 132.766 160.873 131.537C160.855 130.309 161.124 129.094 161.657 127.987C162.352 126.546 163.444 125.334 164.803 124.491C165.741 123.911 166.355 123.784 166.398 123.886C166.44 123.988 165.963 124.329 165.204 125.028C164.145 125.981 163.317 127.162 162.783 128.481C162.417 129.42 162.262 130.427 162.328 131.432C162.395 132.436 162.681 133.414 163.166 134.296C163.732 135.294 164.601 136.086 165.647 136.556C166.758 137.06 168.008 137.162 169.186 136.846C170.338 136.493 171.313 135.716 171.914 134.672C172.527 133.69 172.825 132.545 172.767 131.389C172.679 130.378 172.387 129.395 171.91 128.5C171.432 127.605 170.778 126.815 169.987 126.179C168.868 125.281 167.589 124.601 166.219 124.176C165.23 123.86 164.65 123.724 164.658 123.596C164.667 123.468 165.272 123.383 166.364 123.519C167.938 123.726 169.438 124.311 170.737 125.224C171.741 125.917 172.585 126.816 173.211 127.861C173.838 128.907 174.233 130.075 174.37 131.287C174.509 132.772 174.178 134.263 173.423 135.55C172.605 136.993 171.256 138.06 169.663 138.525Z" fill="#492298"/>
<path d="M141.235 130.076C140.482 129.631 139.635 129.367 138.761 129.307C137.888 129.247 137.013 129.391 136.205 129.729C135.398 130.067 134.681 130.589 134.111 131.253C133.541 131.917 133.134 132.706 132.922 133.555C132.249 136.258 133.724 139.148 135.923 140.853C137.311 141.975 139.033 142.602 140.817 142.635C142.498 142.639 144.115 141.997 145.335 140.842C146.555 139.686 147.284 138.107 147.371 136.429C147.459 134.751 146.898 133.104 145.805 131.828C144.712 130.551 143.171 129.744 141.5 129.573" fill="white"/>
<path d="M138.908 141.467C140.125 141.882 141.447 141.864 142.651 141.416C143.782 140.979 144.763 140.224 145.474 139.241C146.099 138.419 146.479 137.437 146.569 136.408C146.66 135.379 146.457 134.345 145.985 133.426C145.347 132.108 144.313 131.023 143.027 130.323C142.097 129.837 141.483 129.709 141.5 129.573C141.517 129.436 142.165 129.359 143.291 129.701C144.894 130.252 146.241 131.371 147.076 132.847C147.69 133.88 148.019 135.056 148.031 136.257C148.022 137.658 147.588 139.022 146.787 140.171C145.925 141.449 144.698 142.439 143.265 143.01C142.499 143.323 141.68 143.491 140.852 143.504C140.014 143.518 139.178 143.394 138.38 143.138C136.886 142.66 135.535 141.814 134.452 140.679C133.369 139.544 132.589 138.156 132.181 136.641C131.835 135.269 131.952 133.821 132.514 132.523C133.007 131.415 133.809 130.474 134.824 129.811C135.648 129.27 136.596 128.947 137.578 128.873C138.301 128.822 139.028 128.908 139.718 129.129C140.844 129.496 141.296 129.982 141.236 130.084C141.176 130.187 140.614 129.922 139.573 129.786C138.143 129.583 136.69 129.954 135.532 130.817C134.766 131.399 134.176 132.181 133.827 133.077C133.457 134.097 133.421 135.207 133.724 136.249C134.102 137.473 134.771 138.587 135.674 139.496C136.577 140.405 137.687 141.081 138.908 141.467Z" fill="#492298"/>
<path d="M134.407 134.126C133.418 132.919 132.117 132.006 130.645 131.487C129.173 130.968 127.587 130.864 126.06 131.184C124.533 131.532 123.114 132.246 121.925 133.265C120.737 134.284 119.815 135.577 119.239 137.033C118.688 138.493 118.452 140.053 118.547 141.61C118.641 143.168 119.062 144.688 119.784 146.071C120.98 148.391 122.967 150.206 125.386 151.187C126.596 151.668 127.893 151.891 129.194 151.841C130.495 151.791 131.771 151.47 132.94 150.897C136.419 149.132 138.346 144.98 137.979 141.092C137.727 139.15 137.064 137.285 136.035 135.619C135.006 133.953 133.634 132.526 132.011 131.431" fill="white"/>
<path d="M123.894 149.439C125.593 150.617 127.648 151.169 129.709 150.999C131.618 150.856 133.406 150.011 134.731 148.629C135.937 147.342 136.769 145.75 137.135 144.025C137.467 142.508 137.447 140.936 137.075 139.429C136.492 137.189 135.375 135.123 133.818 133.41C132.718 132.165 131.968 131.585 132.053 131.474C132.139 131.363 133 131.781 134.296 132.932C136.165 134.581 137.538 136.719 138.261 139.105C138.77 140.794 138.87 142.58 138.55 144.315C138.192 146.332 137.273 148.209 135.899 149.729C134.327 151.436 132.174 152.494 129.862 152.696C127.403 152.929 124.941 152.283 122.913 150.871C120.982 149.532 119.485 147.656 118.608 145.476C117.731 143.295 117.511 140.906 117.977 138.602C118.393 136.587 119.399 134.741 120.867 133.299C122.127 132.053 123.7 131.169 125.42 130.741C126.836 130.385 128.318 130.385 129.734 130.741C130.785 131.002 131.776 131.466 132.65 132.105C134.074 133.162 134.483 134.1 134.407 134.134C134.33 134.168 133.708 133.478 132.284 132.676C131.428 132.195 130.497 131.864 129.53 131.696C128.269 131.471 126.973 131.541 125.744 131.9C124.274 132.36 122.949 133.195 121.899 134.322C120.685 135.596 119.868 137.196 119.545 138.926C119.205 140.843 119.399 142.817 120.108 144.63C120.86 146.576 122.179 148.251 123.894 149.439Z" fill="#492298"/>
<path d="M147.196 142.592C146.373 140.631 144.921 138.998 143.069 137.952C141.217 136.905 139.069 136.504 136.964 136.812C134.879 137.204 132.961 138.222 131.467 139.729C129.974 141.237 128.974 143.163 128.6 145.253C128.297 147.352 128.581 149.493 129.421 151.441C130.261 153.388 131.623 155.065 133.358 156.286C134.226 156.959 135.234 157.432 136.307 157.67C137.38 157.907 138.493 157.903 139.565 157.658C141.552 157.061 142.975 155.373 144.246 153.719C145.811 151.837 147.005 149.676 147.767 147.35C148.137 146.184 148.232 144.949 148.044 143.74C147.857 142.531 147.391 141.383 146.684 140.384" fill="white"/>
<path d="M130.698 151.979C131.674 153.785 133.155 155.267 134.961 156.242C135.731 156.706 136.598 156.983 137.494 157.05C138.391 157.116 139.29 156.971 140.119 156.626C141.62 155.761 142.903 154.566 143.871 153.13C144.861 151.91 145.735 150.6 146.48 149.217C147.581 147.263 147.964 144.986 147.563 142.78C147.23 141.228 146.625 140.495 146.71 140.409C146.795 140.324 147.563 140.946 148.177 142.6C148.512 143.605 148.651 144.664 148.586 145.721C148.49 147.118 148.138 148.485 147.546 149.754C146.843 151.26 145.986 152.688 144.988 154.017C143.915 155.675 142.466 157.057 140.759 158.05C139.726 158.562 138.574 158.783 137.425 158.689C136.273 158.595 135.15 158.27 134.125 157.735C132.026 156.615 130.296 154.909 129.147 152.825C127.999 150.74 127.48 148.367 127.654 145.994C127.877 143.899 128.684 141.909 129.984 140.25C131.283 138.592 133.023 137.332 135.004 136.615C136.645 136.031 138.416 135.916 140.119 136.283C142.555 136.774 144.715 138.169 146.165 140.188C147.145 141.611 147.247 142.6 147.171 142.618C147.094 142.635 146.693 141.765 145.627 140.605C144.131 138.942 142.108 137.843 139.898 137.493C139.186 137.393 138.466 137.37 137.749 137.425C136.979 137.511 136.222 137.694 135.498 137.971C133.898 138.609 132.495 139.659 131.431 141.015C130.249 142.477 129.527 144.257 129.359 146.13C129.225 148.169 129.69 150.202 130.698 151.979Z" fill="#492298"/>
<path d="M121.218 140.955C120.383 139.923 119.244 139.181 117.962 138.836C116.68 138.491 115.322 138.559 114.082 139.032C112.842 139.505 111.783 140.358 111.057 141.469C110.331 142.58 109.975 143.893 110.04 145.218C110.084 146.233 110.374 147.221 110.885 148.099C111.396 148.976 112.113 149.716 112.974 150.254C113.834 150.792 114.813 151.113 115.826 151.189C116.838 151.265 117.854 151.093 118.785 150.688C119.717 150.284 120.536 149.659 121.171 148.867C121.807 148.075 122.241 147.141 122.435 146.144C122.629 145.148 122.578 144.119 122.285 143.146C121.993 142.174 121.469 141.287 120.757 140.563" fill="white"/>
<path d="M112.255 148.484C113.031 149.349 114.061 149.946 115.197 150.189C116.26 150.431 117.371 150.348 118.386 149.95C119.256 149.595 120.028 149.032 120.632 148.312C121.237 147.591 121.657 146.734 121.856 145.815C122.101 144.511 121.94 143.163 121.395 141.953C121.012 141.1 120.654 140.623 120.756 140.529C120.858 140.435 121.361 140.742 121.984 141.612C122.866 142.895 123.254 144.455 123.075 146.003C122.918 147.178 122.463 148.293 121.752 149.243C121.042 150.192 120.1 150.943 119.017 151.425C117.656 152.025 116.141 152.176 114.689 151.857C113.237 151.538 111.925 150.764 110.942 149.649C109.959 148.534 109.356 147.135 109.221 145.655C109.086 144.175 109.426 142.69 110.192 141.416C110.841 140.322 111.768 139.419 112.878 138.798C114.05 138.175 115.382 137.918 116.701 138.061C118.021 138.204 119.267 138.74 120.278 139.599C121.08 140.316 121.302 140.887 121.216 140.947C121.131 141.006 120.713 140.631 119.878 140.154C118.729 139.481 117.404 139.169 116.075 139.258C115.199 139.319 114.35 139.591 113.602 140.051C112.758 140.592 112.063 141.337 111.582 142.217C111.025 143.199 110.791 144.332 110.912 145.454C111.033 146.577 111.502 147.634 112.255 148.475V148.484Z" fill="#492298"/>
<path d="M146.581 136.888C147.936 136.13 149.491 135.809 151.035 135.971C152.578 136.133 154.034 136.769 155.201 137.792C156.336 138.853 157.162 140.2 157.594 141.692C158.027 143.183 158.048 144.764 157.657 146.267C157.237 147.761 156.481 149.139 155.446 150.296C154.412 151.453 153.127 152.359 151.689 152.943C149.199 153.974 146.087 153.974 144.015 152.235C142.713 151.02 141.885 149.382 141.679 147.614C141.367 145.353 141.725 143.051 142.711 140.992C143.696 138.934 145.264 137.21 147.221 136.035" fill="white"/>
<path d="M152.44 153.566C150.6 154.447 148.526 154.713 146.523 154.325C145.561 154.129 144.654 153.722 143.87 153.132C143.085 152.542 142.442 151.784 141.987 150.914C141.207 149.415 140.82 147.743 140.861 146.054C140.884 144.621 141.173 143.204 141.714 141.876C142.447 139.96 143.688 138.28 145.304 137.016C146.446 136.164 147.213 135.916 147.265 136.002C147.316 136.087 146.693 136.556 145.747 137.519C144.434 138.87 143.448 140.503 142.865 142.294C142.47 143.504 142.286 144.773 142.319 146.046C142.346 147.474 142.717 148.876 143.402 150.13C143.767 150.773 144.267 151.329 144.868 151.76C145.468 152.192 146.155 152.488 146.881 152.628C148.526 152.906 150.217 152.671 151.724 151.954C153.213 151.293 154.5 150.247 155.451 148.924C156.403 147.6 156.985 146.048 157.138 144.426C157.207 143.003 156.914 141.586 156.285 140.307C155.742 139.195 154.916 138.246 153.89 137.553C152.338 136.548 150.476 136.136 148.646 136.394C147.333 136.59 146.651 136.982 146.583 136.854C146.514 136.726 147.094 136.164 148.492 135.737C149.5 135.453 150.554 135.375 151.593 135.506C152.632 135.638 153.633 135.978 154.537 136.505C155.811 137.255 156.857 138.336 157.564 139.634C158.369 141.125 158.769 142.8 158.724 144.494C158.608 146.436 157.96 148.31 156.852 149.91C155.744 151.51 154.218 152.774 152.44 153.566Z" fill="#492298"/>
<path d="M152.602 137.673C153.223 135.364 154.634 133.346 156.589 131.969C158.544 130.592 160.919 129.944 163.302 130.136C165.673 130.446 167.879 131.519 169.587 133.192C171.296 134.865 172.414 137.048 172.775 139.412C173.033 141.789 172.571 144.189 171.449 146.301C170.327 148.412 168.597 150.138 166.482 151.255C164.582 152.307 162.364 152.634 160.241 152.176C157.282 151.417 155.125 148.765 154.068 145.901C153.011 143.036 152.977 139.932 152.926 136.863" fill="white"/>
<path d="M173.021 144.912C171.316 149.635 167.002 152.986 162.559 153.191C161.472 153.254 160.384 153.091 159.362 152.713C158.411 152.35 157.53 151.821 156.762 151.153C155.44 149.965 154.415 148.485 153.769 146.83C152.932 144.494 152.556 142.019 152.661 139.54C152.661 137.835 152.805 136.871 152.925 136.871C153.044 136.871 153.164 137.818 153.334 139.506C153.497 141.848 154.026 144.15 154.903 146.327C155.542 147.755 156.495 149.02 157.691 150.027C159.022 151.148 160.739 151.702 162.474 151.571C166.158 151.34 169.943 148.407 171.384 144.306C172.115 142.338 172.199 140.187 171.623 138.167C171.065 136.282 169.986 134.591 168.511 133.29C167.193 132.096 165.575 131.283 163.83 130.937C162.3 130.653 160.722 130.77 159.251 131.278C157.061 132.026 155.173 133.465 153.871 135.379C153.019 136.769 152.746 137.707 152.601 137.664C152.456 137.622 152.516 136.65 153.283 135.038C154.482 132.788 156.448 131.042 158.825 130.119C160.489 129.458 162.298 129.249 164.069 129.513C166.104 129.838 168.008 130.724 169.568 132.071C171.309 133.547 172.59 135.491 173.26 137.673C173.962 140.049 173.878 142.587 173.021 144.912Z" fill="#492298"/>
<path d="M179.459 136.01C178.343 135.613 177.147 135.491 175.973 135.654C174.799 135.817 173.681 136.261 172.715 136.948C171.766 137.658 171.008 138.592 170.506 139.666C170.005 140.739 169.777 141.921 169.842 143.104C169.93 144.416 170.39 145.676 171.167 146.737C171.945 147.798 173.008 148.615 174.233 149.095C175.457 149.574 176.793 149.695 178.084 149.443C179.375 149.192 180.568 148.578 181.523 147.674C182.882 146.273 183.775 144.486 184.081 142.558C184.49 140.58 184.43 138.295 183.117 136.786C182.569 136.207 181.908 135.747 181.174 135.435C180.441 135.123 179.651 134.964 178.854 134.97C177.259 134.993 175.674 135.24 174.148 135.703" fill="white"/>
<path d="M177.668 148.595C179.176 148.38 180.548 147.607 181.513 146.429C182.416 145.262 183.038 143.902 183.329 142.456C183.665 141.178 183.665 139.836 183.329 138.559C183.172 138.039 182.908 137.557 182.554 137.145C182.2 136.732 181.765 136.398 181.275 136.163C179.683 135.486 177.927 135.293 176.227 135.609C174.957 135.771 174.232 135.856 174.198 135.737C174.164 135.618 174.829 135.319 176.091 134.944C176.874 134.715 177.68 134.572 178.495 134.518C179.621 134.433 180.751 134.614 181.795 135.046C182.466 135.32 183.071 135.732 183.571 136.257C184.071 136.782 184.454 137.407 184.694 138.09C185.19 139.605 185.267 141.225 184.915 142.78C184.617 144.496 183.913 146.115 182.86 147.503C181.637 149.027 179.883 150.032 177.949 150.317C176.012 150.633 174.028 150.184 172.416 149.064C170.946 148.026 169.868 146.524 169.355 144.8C168.912 143.235 168.993 141.567 169.585 140.051C170.079 138.752 170.916 137.612 172.007 136.752C172.783 136.15 173.671 135.71 174.62 135.459C175.569 135.207 176.559 135.148 177.532 135.285C178.887 135.49 179.51 135.942 179.476 136.027C179.441 136.112 178.734 135.95 177.489 135.959C175.772 135.95 174.109 136.554 172.8 137.664C171.945 138.436 171.307 139.417 170.949 140.512C170.52 141.737 170.502 143.069 170.898 144.306C171.34 145.663 172.214 146.837 173.388 147.648C174.643 148.495 176.173 148.833 177.668 148.595Z" fill="#492298"/>
<path d="M188.19 138.372C187.322 138.056 186.391 137.955 185.476 138.078C184.561 138.201 183.69 138.545 182.938 139.08C182.337 139.596 181.885 140.263 181.63 141.013C181.375 141.763 181.326 142.568 181.488 143.343C181.672 144.117 182.04 144.835 182.561 145.437C183.082 146.038 183.741 146.504 184.481 146.796C185.224 147.076 186.018 147.194 186.811 147.143C187.603 147.091 188.376 146.871 189.076 146.498C189.783 146.211 190.389 145.722 190.82 145.093C191.251 144.464 191.488 143.723 191.501 142.96C191.513 142.198 191.302 141.449 190.892 140.806C190.482 140.163 189.892 139.654 189.196 139.344C187.871 138.667 186.418 138.278 184.933 138.202" fill="white"/>
<path d="M186.076 146.293C186.976 146.379 187.881 146.193 188.673 145.758C189.465 145.323 190.108 144.66 190.518 143.854C191.175 142.422 190.254 140.887 189.205 140.094C188.291 139.457 187.268 138.991 186.187 138.721C185.394 138.491 184.942 138.338 184.951 138.218C184.959 138.099 185.437 138.022 186.298 138.056C187.571 138.087 188.815 138.442 189.913 139.088C190.713 139.58 191.367 140.278 191.806 141.109C192.075 141.618 192.233 142.179 192.268 142.754C192.303 143.328 192.215 143.904 192.01 144.443C191.51 145.605 190.653 146.578 189.564 147.222C188.474 147.866 187.208 148.146 185.948 148.024C184.636 147.935 183.393 147.406 182.418 146.523C181.519 145.69 180.92 144.585 180.713 143.377C180.536 142.359 180.681 141.311 181.127 140.378C181.573 139.446 182.299 138.676 183.203 138.176C184.375 137.591 185.718 137.445 186.989 137.766C187.841 137.98 188.259 138.27 188.225 138.372C188.191 138.474 187.713 138.432 186.912 138.44C185.825 138.399 184.75 138.675 183.817 139.233C183.244 139.619 182.796 140.164 182.529 140.802C182.218 141.521 182.135 142.319 182.291 143.087C182.508 143.949 182.99 144.722 183.669 145.297C184.348 145.872 185.19 146.22 186.076 146.293Z" fill="#492298"/>
<path d="M158.663 147.725C157.709 145.952 156.159 144.573 154.286 143.834C152.414 143.094 150.339 143.041 148.431 143.684C146.57 144.418 145.017 145.768 144.032 147.509C143.047 149.25 142.688 151.277 143.017 153.25C143.452 155.199 144.529 156.946 146.075 158.211C147.621 159.476 149.547 160.185 151.544 160.224C153.545 160.159 155.47 159.436 157.02 158.168C158.57 156.899 159.66 155.156 160.121 153.207C160.65 150.709 159.933 147.819 157.853 146.335" fill="white"/>
<path d="M145.328 156.166C146.359 157.509 147.775 158.505 149.387 159.022C150.872 159.521 152.48 159.521 153.965 159.022C155.25 158.598 156.418 157.878 157.373 156.92C158.328 155.962 159.045 154.792 159.465 153.506C160.031 151.729 159.891 149.802 159.072 148.126C158.467 146.941 157.811 146.472 157.904 146.361C157.998 146.25 158.757 146.557 159.61 147.768C160.195 148.65 160.586 149.647 160.758 150.692C160.93 151.737 160.879 152.806 160.607 153.83C160.205 155.366 159.433 156.781 158.358 157.95C157.284 159.12 155.94 160.009 154.443 160.54C152.638 161.201 150.667 161.249 148.832 160.676C146.876 160.076 145.155 158.885 143.904 157.266C142.623 155.634 141.958 153.602 142.028 151.528C142.112 149.626 142.759 147.792 143.887 146.258C144.892 144.859 146.281 143.781 147.886 143.155C149.279 142.632 150.786 142.491 152.251 142.746C154.335 143.079 156.232 144.146 157.597 145.755C158.501 146.915 158.68 147.725 158.595 147.759C158.51 147.793 158.083 147.137 157.103 146.216C155.711 144.956 153.956 144.168 152.089 143.965C150.842 143.825 149.58 144.007 148.423 144.494C147.116 145.07 145.999 146.004 145.2 147.188C144.293 148.477 143.783 150.003 143.734 151.579C143.72 153.246 144.283 154.867 145.328 156.166Z" fill="#492298"/>
</g>
<g clip-path="url(#clip3_1390_7493)">
<path d="M54.3779 206.245C55.6408 202.231 57.2676 198.341 59.2379 194.624C60.0173 193.065 61.1466 191.708 62.5375 190.659C63.2369 190.143 64.0601 189.821 64.924 189.725C65.7878 189.629 66.6616 189.763 67.4571 190.113C69.2306 191.034 70.015 193.251 69.7933 195.229C69.4627 197.198 68.7439 199.082 67.6788 200.771L59.0673 216.613L54.7616 224.559L52.6045 228.532C52.1782 229.317 50.4729 231.517 50.7031 232.369C50.7765 232.546 50.893 232.702 51.0418 232.823C51.1907 232.943 51.3674 233.025 51.5557 233.06C52.5959 233.23 53.3718 231.576 53.9686 230.92C54.8474 229.92 55.8437 229.029 56.9358 228.268C57.8807 227.572 58.9668 227.093 60.1174 226.863C61.2681 226.633 62.4551 226.659 63.5948 226.938C65.8286 227.629 67.6021 229.99 67.1076 232.284C66.6557 234.373 64.6605 235.694 62.8444 236.786C54.8826 241.466 46.6679 245.701 38.2378 249.473C34.4777 251.178 30.5642 252.772 26.4119 252.764C18.2694 252.764 11.1244 245.866 9.35949 237.92C8.92433 235.962 8.75229 233.955 8.84791 231.951C9.11223 226.333 11.4484 221.788 14.0318 216.937C16.7347 211.821 19.1476 206.611 21.5946 201.41C22.5836 199.339 23.6153 197.198 25.3462 195.681C27.077 194.163 29.7116 193.438 31.7152 194.555C33.591 195.596 34.4095 197.966 34.2731 200.106C33.9553 202.233 33.2379 204.282 32.1586 206.143L26.1902 218.079" fill="#492298"/>
<path d="M23.2734 216.646C23.5036 216.126 23.7424 215.606 23.9726 215.094C25.7858 211.115 27.7326 207.222 29.813 203.413C31.5183 200.301 33.2235 196.004 36.8813 194.768C37.8565 194.409 38.921 194.37 39.9194 194.659C40.9179 194.947 41.7981 195.547 42.4318 196.371C42.7954 196.993 43.0275 197.683 43.1141 198.399C43.2006 199.115 43.1396 199.84 42.9349 200.531C42.5123 201.905 41.9011 203.214 41.1188 204.419L35.807 213.517" fill="white"/>
<path d="M36.14 194.129C37.0719 193.729 38.0893 193.572 39.0982 193.67C40.1072 193.768 41.075 194.12 41.9122 194.691C42.7212 195.281 43.3191 196.115 43.6175 197.07C43.8957 197.942 43.9715 198.867 43.8392 199.773C43.5731 201.315 42.9927 202.787 42.1339 204.096C41.4092 205.255 40.7356 206.347 40.1217 207.344C37.6321 211.292 35.9865 213.671 35.7819 213.551C35.5773 213.432 36.8391 210.823 39.056 206.73L40.8806 203.388C41.5915 202.228 42.0639 200.938 42.2704 199.594C42.3876 198.943 42.323 198.272 42.0838 197.655C41.8447 197.039 41.4401 196.5 40.9147 196.098C40.3066 195.708 39.6113 195.475 38.8911 195.42C38.1709 195.365 37.4482 195.49 36.788 195.783C35.365 196.459 34.1642 197.526 33.3263 198.861C32.4646 200.183 31.6762 201.552 30.9646 202.962C29.4469 205.673 28.1168 208.077 27.0169 210.132C24.8172 214.225 23.4786 216.791 23.2483 216.689C23.0181 216.587 23.9816 213.85 25.9171 209.587C26.872 207.455 28.1253 204.931 29.5407 202.22C30.2464 200.733 31.0408 199.289 31.9195 197.897C32.9262 196.254 34.394 194.944 36.14 194.129Z" fill="#492298"/>
<path d="M37.5283 210.559C39.7025 206.696 39.5405 207.242 41.7147 203.38C43.2153 200.702 44.1191 196.797 47.7427 196.857C48.7464 196.898 49.7158 197.234 50.53 197.822C51.3442 198.41 51.9672 199.225 52.3213 200.165C53.1739 202.672 51.9888 205.392 50.7866 207.771L45.4663 218.335" fill="white"/>
<path d="M51.9381 197.897C52.5398 198.538 52.981 199.312 53.2255 200.157C53.4568 200.956 53.5349 201.792 53.4558 202.621C53.2672 204.069 52.8287 205.474 52.1598 206.773C50.9661 209.16 49.8406 211.172 48.8857 212.912C46.9758 216.322 45.6798 218.445 45.4752 218.334C45.2706 218.224 46.1658 215.956 47.7943 212.366C48.647 210.593 49.6104 208.47 50.7103 206.116C51.2589 204.972 51.6133 203.745 51.759 202.484C51.8319 201.871 51.7722 201.249 51.5839 200.66C51.3956 200.072 51.0831 199.531 50.6677 199.074C50.2619 198.623 49.7622 198.268 49.2038 198.032C48.6453 197.796 48.0419 197.686 47.4362 197.71C46.8763 197.752 46.3349 197.929 45.8583 198.226C45.3817 198.523 44.984 198.931 44.6993 199.415C44.0569 200.413 43.4871 201.456 42.9941 202.535C42.4484 203.61 41.843 204.522 41.2888 205.358C39.0976 208.674 37.7334 210.661 37.5202 210.559C37.3071 210.456 37.614 209.911 38.0744 208.853C38.5349 207.796 39.3107 206.423 40.223 204.701C40.6749 203.848 41.195 202.893 41.6469 201.87C42.1193 200.688 42.6897 199.547 43.3522 198.46C43.7673 197.813 44.3028 197.251 44.9295 196.806C45.6318 196.326 46.451 196.046 47.2998 195.996C48.1661 195.944 49.0331 196.087 49.8361 196.417C50.6392 196.746 51.3576 197.252 51.9381 197.897Z" fill="#492298"/>
<path d="M52.6625 203.337C53.9254 199.324 55.5521 195.434 57.5224 191.716C58.3076 190.164 59.436 188.811 60.8221 187.76C61.522 187.241 62.3469 186.918 63.2125 186.822C64.0782 186.726 64.9538 186.861 65.7502 187.214C67.5152 188.126 68.3081 190.343 68.0779 192.33C67.7482 194.299 67.0293 196.183 65.9634 197.872L57.3434 213.756L53.0376 221.694L50.8805 225.667C50.4542 226.46 48.7575 228.651 48.9792 229.504C49.0526 229.681 49.169 229.837 49.3179 229.957C49.4668 230.078 49.6434 230.16 49.8318 230.195C50.872 230.374 51.6479 228.711 52.2533 228.055C53.129 227.055 54.1224 226.164 55.2118 225.403C56.1568 224.707 57.2429 224.228 58.3935 223.998C59.5441 223.768 60.7312 223.794 61.8708 224.073C64.1132 224.764 65.8781 227.134 65.3836 229.419C64.9317 231.508 62.9366 232.829 61.1205 233.921C53.1606 238.604 44.9456 242.84 36.5139 246.608C32.7538 248.313 28.8403 249.916 24.6965 249.899C16.5454 249.899 9.409 243.001 7.64407 235.063C7.20583 233.091 7.03377 231.07 7.13249 229.052C7.38828 223.425 9.69037 218.88 12.3079 214.037C15.0193 208.922 17.4236 203.712 19.8707 198.511C20.8597 196.431 21.8914 194.248 23.6222 192.773C25.353 191.298 27.9876 190.531 29.9998 191.648C31.8756 192.688 32.6856 195.058 32.5151 197.198C32.2678 200.199 30.4091 203.218 29.1046 205.869C27.5528 208.981 24.8841 213.543 23.3238 216.647" fill="white"/>
<path d="M41.2726 245.38C39.3456 246.284 37.4358 247.162 35.5003 248.006C33.5716 248.876 31.5757 249.589 29.532 250.137C27.4515 250.691 25.2896 250.873 23.1458 250.675C21.0293 250.442 18.9771 249.805 17.1007 248.799C13.4849 246.827 10.5443 243.815 8.65978 240.153C7.74783 238.393 7.09042 236.513 6.70727 234.569C6.34855 232.675 6.22541 230.745 6.34065 228.822C6.62545 225.147 7.62769 221.564 9.29071 218.275C10.0495 216.681 10.8595 215.154 11.661 213.671C12.4625 212.187 13.2128 210.721 13.9375 209.271C15.404 206.364 16.7512 203.516 18.0557 200.745C18.7207 199.381 19.3431 198.042 20.0082 196.729C20.649 195.396 21.4695 194.157 22.4467 193.046C23.4233 191.942 24.6954 191.14 26.113 190.735C26.7768 190.511 27.4796 190.426 28.1778 190.484C28.876 190.543 29.5547 190.744 30.1719 191.076C30.789 191.408 31.3314 191.863 31.7655 192.413C32.1995 192.963 32.516 193.596 32.6952 194.274C33.0545 195.444 33.1305 196.683 32.9169 197.889C32.4725 199.944 31.704 201.915 30.6404 203.729C29.7366 205.434 28.9351 206.927 28.1934 208.291C26.6672 210.994 25.4308 213.065 24.6123 214.481C24.2342 215.224 23.798 215.937 23.3078 216.612C23.557 215.814 23.8915 215.045 24.3054 214.319C25.0301 212.844 26.1641 210.712 27.5965 207.967C28.3127 206.603 29.046 205.034 29.9071 203.354C30.8716 201.599 31.5617 199.707 31.9534 197.744C32.1192 196.692 32.0314 195.617 31.6976 194.606C31.556 194.066 31.303 193.561 30.9547 193.124C30.6064 192.687 30.1705 192.327 29.6751 192.069C29.1797 191.81 28.6357 191.658 28.078 191.622C27.5204 191.587 26.9614 191.668 26.437 191.861C25.2395 192.228 24.1699 192.926 23.3505 193.873C21.6452 195.817 20.588 198.596 19.2749 201.325C17.9619 204.053 16.6744 206.935 15.2335 209.851C14.5173 211.318 13.767 212.81 12.974 214.31C12.1811 215.811 11.4052 217.303 10.6805 218.863C9.12831 221.982 8.19869 225.373 7.94358 228.847C7.84472 230.638 7.96786 232.433 8.31021 234.193C8.86634 236.933 10.0125 239.518 11.669 241.769C13.3255 244.021 15.4525 245.884 17.9022 247.23C19.5839 248.14 21.4248 248.719 23.3249 248.935C25.2692 249.11 27.2292 248.94 29.1142 248.432C31.0752 247.903 32.9911 247.219 34.8438 246.386C36.7423 245.55 38.6493 244.681 40.5649 243.777C44.3846 241.975 48.1077 240.108 51.7342 238.175C53.5475 237.214 55.3351 236.234 57.0972 235.234L59.7233 233.733C60.5759 233.221 61.4286 232.744 62.2215 232.198C62.9642 231.711 63.6091 231.09 64.1228 230.365C64.5622 229.712 64.7444 228.919 64.6344 228.14C64.4728 227.343 64.0919 226.607 63.5345 226.015C62.9771 225.423 62.2654 224.998 61.4797 224.789C59.8053 224.423 58.0545 224.693 56.5686 225.548C55.8028 225.964 55.0875 226.468 54.437 227.048C54.1045 227.338 53.7891 227.645 53.4736 227.961L53.0132 228.447L52.8171 228.66L52.638 228.907C52.3735 229.305 52.0889 229.689 51.7854 230.058C51.5918 230.284 51.368 230.482 51.1203 230.646C50.7977 230.862 50.4172 230.975 50.029 230.97C49.643 230.961 49.2698 230.83 48.9632 230.595C48.7849 230.48 48.6317 230.33 48.513 230.155C48.3943 229.979 48.3125 229.781 48.2726 229.572C48.2427 229.363 48.2427 229.15 48.2726 228.941C48.303 228.791 48.3428 228.643 48.392 228.498C48.4804 228.252 48.5858 228.013 48.7074 227.782C49.1593 226.929 49.705 226.179 50.1484 225.471C50.5917 224.763 51.001 223.953 51.3932 223.203L56.2531 214.336L64.9328 198.451C65.5979 197.232 66.28 196.073 66.7745 194.905C67.2784 193.808 67.5373 192.615 67.5333 191.409C67.5127 190.308 67.1189 189.247 66.4164 188.399C66.0854 188.024 65.6748 187.727 65.2146 187.531C64.7543 187.335 64.2561 187.244 63.7562 187.265C62.7778 187.3 61.8292 187.61 61.0193 188.16C60.2515 188.697 59.5774 189.357 59.0242 190.113C58.0464 191.5 57.1905 192.969 56.4663 194.504C55.1106 197.275 54.2665 199.526 53.6526 201.043C53.3925 201.836 53.0615 202.604 52.6636 203.337C52.8006 202.512 53.0236 201.703 53.3287 200.924C54.0523 198.64 54.9063 196.4 55.8865 194.214C56.5867 192.61 57.4284 191.072 58.4017 189.618C58.9946 188.771 59.7235 188.028 60.5589 187.419C61.5018 186.74 62.6213 186.349 63.7818 186.293C64.4268 186.258 65.0716 186.366 65.67 186.609C66.2685 186.852 66.8058 187.225 67.2434 187.7C68.1243 188.718 68.6351 190.004 68.6929 191.349C68.7276 192.723 68.4598 194.089 67.9085 195.348C67.3884 196.627 66.7063 197.821 66.0668 199.04L57.498 215.052L52.7148 223.962C52.2885 224.738 51.9133 225.471 51.4443 226.307C50.9754 227.142 50.4553 227.799 50.0801 228.523C49.995 228.692 49.9209 228.865 49.8585 229.044C49.8315 229.107 49.8115 229.172 49.7988 229.24C49.801 229.252 49.806 229.264 49.8134 229.274C49.8207 229.285 49.8303 229.293 49.8414 229.299C49.9181 229.351 50.029 229.393 50.0375 229.376C50.046 229.359 50.3189 229.274 50.5661 228.984C50.8134 228.694 51.0521 228.344 51.3335 227.952L51.5722 227.645C51.6518 227.541 51.7372 227.441 51.828 227.347L52.3225 226.827C52.6551 226.486 53.0046 226.145 53.3627 225.821C54.1087 225.162 54.9267 224.59 55.8013 224.115C57.6497 223.057 59.8275 222.728 61.906 223.195C63.0089 223.476 64.0083 224.067 64.7863 224.898C65.5643 225.729 66.0885 226.765 66.297 227.884C66.4773 229.074 66.2099 230.29 65.5467 231.294C64.9192 232.204 64.1268 232.988 63.2105 233.605C62.3579 234.219 61.4541 234.713 60.5844 235.225L57.9498 236.743C56.1764 237.749 54.3774 238.741 52.5528 239.718C48.8694 241.679 45.1179 243.572 41.2726 245.38Z" fill="#492298"/>
</g>
<path d="M57.1174 182.301L61.0825 176.004L61.845 176.485L58.3058 182.105L61.2328 183.948L60.8068 184.624L57.1174 182.301ZM62.6431 185.781L61.8437 185.277L68.1208 180.437L68.9079 180.932L67.2549 188.685L66.4555 188.181L67.9117 181.696L67.8625 181.665L62.6431 185.781ZM64.4871 183.507L67.7092 185.536L67.2833 186.212L64.0612 184.183L64.4871 183.507ZM76.3329 185.608L77.0954 186.088L74.47 190.257C74.199 190.687 73.8555 191.008 73.4396 191.218C73.0271 191.428 72.5761 191.515 72.0865 191.478C71.5983 191.44 71.1072 191.265 70.6133 190.954C70.1193 190.643 69.7495 190.276 69.504 189.852C69.2597 189.426 69.1419 188.981 69.1507 188.517C69.1628 188.053 69.3044 187.605 69.5754 187.175L72.2007 183.006L72.9632 183.486L70.3766 187.593C70.183 187.901 70.0783 188.217 70.0626 188.542C70.0481 188.865 70.1227 189.174 70.2863 189.469C70.4532 189.763 70.7119 190.02 71.0624 190.241C71.4129 190.462 71.7568 190.584 72.0941 190.607C72.4327 190.629 72.7435 190.562 73.0264 190.409C73.3127 190.254 73.5527 190.023 73.7463 189.715L76.3329 185.608ZM83.6111 190.191L79.646 196.488L78.9081 196.023L78.5901 188.919L78.5286 188.88L75.4154 193.824L74.6529 193.343L78.618 187.047L79.3559 187.512L79.6784 194.636L79.7399 194.675L82.8609 189.719L83.6111 190.191ZM88.9645 196.31L88.202 195.83C88.295 195.582 88.3374 195.34 88.3293 195.103C88.3231 194.867 88.2756 194.643 88.1867 194.429C88.1012 194.215 87.9802 194.019 87.8236 193.84C87.6671 193.661 87.4843 193.506 87.2752 193.374C86.894 193.134 86.488 193.013 86.0571 193.011C85.6283 193.01 85.2046 193.14 84.786 193.4C84.3694 193.661 83.9895 194.065 83.6462 194.61C83.3028 195.155 83.1032 195.672 83.0474 196.161C82.9936 196.651 83.0598 197.089 83.2459 197.475C83.4341 197.863 83.7188 198.177 84.1 198.417C84.3091 198.548 84.5281 198.646 84.7569 198.71C84.9857 198.774 85.2145 198.799 85.4433 198.786C85.6755 198.772 85.8992 198.717 86.1144 198.62C86.333 198.523 86.5332 198.38 86.7151 198.191L87.4776 198.671C87.2176 198.957 86.9317 199.179 86.6199 199.338C86.3082 199.497 85.9835 199.594 85.6457 199.63C85.3093 199.665 84.9716 199.64 84.6327 199.555C84.2958 199.472 83.9686 199.33 83.6509 199.13C83.1139 198.792 82.7189 198.36 82.466 197.834C82.213 197.308 82.119 196.728 82.1838 196.094C82.2486 195.459 82.4901 194.809 82.9083 194.145C83.3265 193.481 83.8078 192.983 84.3522 192.65C84.8966 192.317 85.4605 192.151 86.0439 192.152C86.6272 192.153 87.1874 192.323 87.7244 192.661C88.0421 192.861 88.3113 193.095 88.532 193.363C88.7547 193.632 88.9226 193.927 89.0358 194.247C89.1503 194.565 89.2033 194.899 89.1949 195.249C89.1879 195.596 89.111 195.95 88.9645 196.31ZM87.4706 201.415L91.4357 195.118L92.1982 195.599L90.4325 198.403L93.7899 200.517L95.5556 197.713L96.318 198.193L92.3529 204.49L91.5905 204.009L93.3639 201.193L90.0065 199.079L88.2331 201.895L87.4706 201.415Z" fill="white"/>
<defs>
<linearGradient id="paint0_linear_1390_7493" x1="139" y1="38" x2="161" y2="86.5" gradientUnits="userSpaceOnUse">
<stop stop-color="#FF7063"/>
<stop offset="0.514443" stop-color="#E249A7"/>
<stop offset="1" stop-color="#A13FEF"/>
</linearGradient>
<linearGradient id="paint1_linear_1390_7493" x1="167.102" y1="54.2524" x2="167.102" y2="107.328" gradientUnits="userSpaceOnUse">
<stop stop-color="#8859E9"/>
<stop offset="1" stop-color="#221145"/>
</linearGradient>
<linearGradient id="paint2_linear_1390_7493" x1="134.969" y1="54.8149" x2="134.969" y2="108.308" gradientUnits="userSpaceOnUse">
<stop stop-color="#8859E9"/>
<stop offset="1" stop-color="#221145"/>
</linearGradient>
<clipPath id="clip0_1390_7493">
<rect width="53.8601" height="152.057" fill="white" transform="translate(122.769)"/>
</clipPath>
<clipPath id="clip1_1390_7493">
<rect width="29.8418" height="65.6519" fill="white" transform="translate(136.41 83.5566)"/>
</clipPath>
<clipPath id="clip2_1390_7493">
<rect width="99.4839" height="53.6384" fill="white" transform="translate(103.158 115.957)"/>
</clipPath>
<clipPath id="clip3_1390_7493">
<rect width="67.306" height="67.7152" fill="white" transform="translate(6.26367 186.285)"/>
</clipPath>
</defs>
</svg>
