<svg width="529" height="525" viewBox="0 0 529 525" fill="none" xmlns="http://www.w3.org/2000/svg">
<g clip-path="url(#clip0_1550_9037)">
<path d="M467.738 451.152C457.006 462.45 446.852 469.734 438.827 475.49C344.514 543.145 232.917 523.424 209.2 518.607C174.176 511.495 106.477 497.747 57.5311 440.2C-16.5192 353.138 -4.98905 215.973 52.449 125.429C62.9552 108.866 118.454 16.9429 231.253 2.20145C299.518 -6.72587 379.094 11.2731 436.72 59.5414C557.681 160.864 549.071 365.549 467.738 451.152Z" fill="url(#paint0_linear_1550_9037)"/>
<path d="M295.352 487.849H60.0465C59.0362 487.849 58.0674 488.25 57.353 488.965C56.6386 489.679 56.2373 490.647 56.2373 491.657C56.2373 492.668 56.6386 493.636 57.353 494.35C58.0674 495.065 59.0362 495.466 60.0465 495.466H295.352C296.362 495.466 297.331 495.065 298.046 494.35C298.76 493.636 299.161 492.668 299.161 491.657C299.161 490.647 298.76 489.679 298.046 488.965C297.331 488.25 296.362 487.849 295.352 487.849Z" fill="#C1A9FF"/>
<path d="M262.023 449.133H93.3833C92.1741 449.132 90.9767 449.369 89.8593 449.831C88.7419 450.293 87.7264 450.97 86.8709 451.824C86.0154 452.679 85.3367 453.693 84.8734 454.81C84.4101 455.926 84.1714 457.123 84.1709 458.332V487.849H271.228V458.332C271.227 455.892 270.257 453.552 268.531 451.827C266.804 450.102 264.464 449.133 262.023 449.133Z" fill="#492298"/>
<g filter="url(#filter0_d_1550_9037)">
<path d="M249.551 432.69H105.854C103.412 432.69 101.071 433.659 99.344 435.386C97.6174 437.112 96.6475 439.453 96.6475 441.894V449.137H258.752V441.894C258.752 439.454 257.783 437.114 256.057 435.388C254.332 433.662 251.992 432.691 249.551 432.69Z" fill="#8859E9"/>
</g>
<path d="M136.819 384.177H218.577C218.893 384.177 219.206 384.239 219.498 384.36C219.79 384.48 220.055 384.658 220.278 384.881C220.501 385.104 220.679 385.369 220.799 385.661C220.92 385.953 220.982 386.265 220.982 386.581V432.69H134.414V386.581C134.414 385.943 134.667 385.332 135.119 384.881C135.57 384.43 136.181 384.177 136.819 384.177Z" fill="#492298"/>
<path d="M122.943 457.173H107.828V487.849H122.943V457.173Z" fill="#8859E9"/>
<path d="M134.415 457.173H128.341V487.849H134.415V457.173Z" fill="#8859E9"/>
<path d="M142.975 457.173H136.901V487.849H142.975V457.173Z" fill="#8859E9"/>
<path d="M151.536 457.173H145.462V487.849H151.536V457.173Z" fill="#8859E9"/>
<path d="M36.5303 245.393C35.5157 246.327 34.905 247.619 34.8277 248.996C34.7504 250.372 35.2125 251.725 36.1161 252.766L154.577 391.067C155.042 391.604 155.61 392.041 156.247 392.354C156.884 392.667 157.578 392.849 158.287 392.888C158.995 392.928 159.705 392.826 160.373 392.586C161.041 392.347 161.655 391.976 162.177 391.495L172.255 382.216L41.7891 240.553L36.5303 245.393Z" fill="#8859E9"/>
<g filter="url(#filter1_d_1550_9037)">
<path d="M52.7508 200.959C50.8121 198.939 48.1588 197.759 45.36 197.673C42.5612 197.586 39.84 198.6 37.78 200.496L27.1542 210.276C25.0955 212.174 23.8629 214.803 23.7208 217.599C23.5788 220.395 24.5385 223.135 26.3942 225.232L167.743 386.38L197.38 359.106C197.951 358.581 198.41 357.947 198.731 357.241C199.053 356.536 199.23 355.774 199.253 354.999C199.275 354.224 199.142 353.452 198.862 352.73C198.582 352.007 198.16 351.347 197.622 350.79L52.7508 200.959Z" fill="#492298"/>
</g>
<path d="M62.8887 234.725L61.7773 235.749C60.9586 236.502 60.2964 237.409 59.8284 238.418C59.3605 239.427 59.096 240.519 59.0502 241.63C59.0043 242.741 59.1779 243.851 59.5611 244.895C59.9442 245.939 60.5295 246.898 61.2833 247.716L135.873 328.709C137.395 330.361 139.511 331.341 141.755 331.434C144 331.527 146.189 330.724 147.842 329.203L148.954 328.179C150.606 326.658 151.587 324.542 151.679 322.298C151.772 320.054 150.969 317.865 149.448 316.213L74.8577 235.221C74.1044 234.403 73.1973 233.741 72.1881 233.273C71.1789 232.805 70.0874 232.541 68.9759 232.495C67.8644 232.449 66.7548 232.622 65.7103 233.005C64.6659 233.387 63.7071 233.972 62.8887 234.725Z" fill="#8859E9"/>
<path d="M63.9044 233.775L60.7725 236.658L146.84 330.105L149.972 327.221L63.9044 233.775Z" fill="#B397FD"/>
<g filter="url(#filter2_d_1550_9037)">
<path d="M178.68 411.496C199.535 411.496 216.442 394.593 216.442 373.743C216.442 352.892 199.535 335.99 178.68 335.99C157.825 335.99 140.919 352.892 140.919 373.743C140.919 394.593 157.825 411.496 178.68 411.496Z" fill="#492298"/>
</g>
<path d="M178.68 402.582C194.611 402.582 207.526 389.67 207.526 373.743C207.526 357.815 194.611 344.904 178.68 344.904C162.749 344.904 149.835 357.815 149.835 373.743C149.835 389.67 162.749 402.582 178.68 402.582Z" fill="url(#paint1_radial_1550_9037)"/>
<path d="M34.9082 209.955L42.3594 218.047C42.7453 218.466 43.2114 218.803 43.7302 219.039C44.2489 219.275 44.8097 219.404 45.3793 219.419C45.9488 219.434 46.5157 219.335 47.0461 219.127C47.5766 218.919 48.0599 218.606 48.4674 218.208L152.425 115.362C153.217 114.588 153.676 113.536 153.705 112.429C153.735 111.322 153.331 110.248 152.581 109.434L148.694 105.211L34.9082 209.955Z" fill="#8859E9"/>
<g filter="url(#filter3_d_1550_9037)">
<path d="M154.558 73.4187L162.414 81.949C163.935 83.6042 164.748 85.7894 164.677 88.0363C164.606 90.2831 163.657 92.4127 162.034 93.9686L38.2514 213.587L16.3443 189.799C15.9226 189.341 15.5967 188.803 15.3859 188.217C15.1752 187.631 15.0837 187.009 15.117 186.388C15.1503 185.766 15.3076 185.158 15.5797 184.598C15.8519 184.038 16.2333 183.538 16.7015 183.128L142.54 72.7994C144.225 71.3093 146.428 70.5394 148.675 70.6552C150.923 70.771 153.035 71.7632 154.558 73.4187Z" fill="#492298"/>
</g>
<path d="M118.702 102.328L50.6875 164.943C49.2984 166.286 48.4896 168.12 48.4338 170.052C48.3779 171.984 49.0795 173.861 50.3887 175.283C51.6979 176.705 53.5111 177.559 55.4413 177.663C57.3716 177.767 59.2661 177.113 60.7206 175.84L128.735 113.223C129.479 112.572 130.085 111.779 130.518 110.89C130.95 110.001 131.201 109.034 131.254 108.047C131.307 107.06 131.162 106.072 130.828 105.142C130.493 104.212 129.976 103.358 129.306 102.631C128.636 101.904 127.827 101.318 126.928 100.908C126.028 100.498 125.055 100.272 124.067 100.244C123.078 100.216 122.094 100.386 121.173 100.743C120.251 101.101 119.41 101.64 118.7 102.328H118.702Z" fill="#8859E9"/>
<path d="M49.0774 174.149L51.3926 176.663L130.308 104.011L127.993 101.497L49.0774 174.149Z" fill="#B397FD"/>
<g filter="url(#filter4_d_1550_9037)">
<path d="M51.7662 224.186C63.6082 212.347 63.6082 193.151 51.7662 181.312C39.9241 169.472 20.7244 169.472 8.88235 181.312C-2.95969 193.151 -2.9597 212.347 8.88235 224.186C20.7244 236.025 39.9241 236.025 51.7662 224.186Z" fill="#492298"/>
</g>
<path d="M53.1934 206.367C55.2056 193.737 46.5956 181.867 33.9623 179.855C21.329 177.843 9.45645 186.451 7.44423 199.082C5.43201 211.712 14.0421 223.582 26.6754 225.594C39.3087 227.606 51.1812 218.998 53.1934 206.367Z" fill="url(#paint2_radial_1550_9037)"/>
<path d="M247.584 124.211L242.853 131.987C240.953 135.123 237.494 136.533 235.087 135.158L146.28 84.9804L159.473 63.2946C160.544 61.5377 162.497 60.7874 163.799 61.6383L246.822 115.859C249.157 117.364 249.491 121.075 247.584 124.211Z" fill="#492298"/>
<g filter="url(#filter5_d_1550_9037)">
<path d="M175.054 92.0716C184.349 82.7779 184.349 67.7099 175.054 58.4162C165.758 49.1226 150.687 49.1225 141.391 58.4162C132.095 67.7099 132.095 82.7779 141.391 92.0716C150.687 101.365 165.758 101.365 175.054 92.0716Z" fill="#492298"/>
</g>
<path d="M166.851 91.2536C175.689 86.488 178.989 75.4617 174.223 66.6258C169.456 57.7899 158.427 54.4902 149.589 59.2558C140.751 64.0215 137.451 75.0477 142.218 83.8836C146.984 92.7196 158.013 96.0192 166.851 91.2536Z" fill="url(#paint3_radial_1550_9037)"/>
<path d="M258.567 118.334L249.93 113.134C249.884 113.105 249.832 113.087 249.778 113.078C249.724 113.07 249.669 113.072 249.616 113.086C249.563 113.099 249.513 113.122 249.469 113.154C249.425 113.187 249.388 113.227 249.36 113.274L233.656 139.312C233.599 139.406 233.582 139.519 233.609 139.625C233.635 139.732 233.703 139.824 233.797 139.881L242.437 145.09C242.532 145.146 242.644 145.163 242.751 145.137C242.858 145.111 242.95 145.043 243.007 144.949L258.708 118.904C258.764 118.81 258.781 118.697 258.755 118.59C258.729 118.483 258.661 118.391 258.567 118.334Z" fill="url(#paint4_linear_1550_9037)"/>
<path d="M270.078 128.95L289.966 114.596L317.523 148.104L313.345 153.037L288.431 126.316L273.04 137.579L270.078 128.95Z" fill="#8859E9"/>
<path d="M257.416 150.144L254.352 174.476L296.975 182.586L299.3 176.557L263.902 167.509L266.408 148.605L257.416 150.144Z" fill="#8859E9"/>
<path d="M250.994 149.512C252.691 150.904 254.666 151.918 256.786 152.485C258.907 153.052 261.124 153.159 263.289 152.8C265.455 152.44 267.518 151.622 269.341 150.4C271.165 149.178 272.706 147.581 273.861 145.715C275.017 143.849 275.76 141.758 276.041 139.582C276.322 137.405 276.135 135.194 275.492 133.096C274.848 130.997 273.764 129.061 272.311 127.416C270.858 125.771 269.07 124.456 267.067 123.558L250.994 149.512Z" fill="url(#paint5_linear_1550_9037)"/>
<path d="M242.244 144.109L239.729 148.288C239.275 149.048 239.56 150.043 240.365 150.53L248.099 155.193C248.905 155.679 249.925 155.462 250.379 154.71L270.449 121.447C270.661 121.065 270.713 120.615 270.593 120.195C270.474 119.775 270.192 119.419 269.811 119.206L262.067 114.535C261.262 114.051 260.241 114.266 259.787 115.02L257.483 118.841L242.244 144.109Z" fill="#4F27A0"/>
<path d="M353.928 201.018L339.732 168.779C338.708 166.454 337.414 164.638 335.848 163.331C334.306 161.965 332.529 161.19 330.517 161.005C328.546 160.801 326.421 161.201 324.14 162.205C321.611 163.319 319.635 164.676 318.211 166.277C316.769 167.837 315.847 169.509 315.445 171.293C315.066 173.018 315.235 174.696 315.954 176.327L299.05 182.456C297.739 179.479 297.208 176.475 297.458 173.443C297.73 170.353 298.707 167.343 300.386 164.412C302.107 161.463 304.505 158.703 307.581 156.131C310.656 153.56 314.35 151.325 318.662 149.426C324.01 147.071 329.049 145.924 333.778 145.984C338.549 146.026 342.823 147.357 346.601 149.978C350.36 152.559 353.417 156.521 355.769 161.863L368.968 191.839L353.928 201.018ZM344.13 171.517L348.879 182.134L335.259 188.131C332.232 189.464 329.889 191.056 328.229 192.906C326.592 194.698 325.588 196.577 325.216 198.542C324.844 200.508 325.044 202.367 325.816 204.121C326.534 205.752 327.566 207.027 328.91 207.944C330.255 208.862 331.897 209.331 333.837 209.353C335.76 209.335 337.965 208.778 340.452 207.682C342.318 206.861 344.082 205.695 345.743 204.184C347.386 202.633 348.783 200.971 349.933 199.198C351.125 197.408 351.949 195.682 352.405 194.02C352.862 192.358 352.877 190.988 352.452 189.909L364.328 195.635C364.13 198.108 363.299 200.885 361.833 203.965C360.35 207.004 358.039 210.018 354.9 213.007C351.802 215.977 347.683 218.595 342.541 220.858C337.317 223.159 332.513 224.276 328.128 224.211C323.784 224.127 320.006 222.966 316.794 220.729C313.563 218.451 311.041 215.252 309.227 211.133C307.808 207.911 307.194 204.774 307.384 201.72C307.556 198.625 308.529 195.665 310.304 192.838C312.061 189.971 314.629 187.258 318.007 184.699C321.367 182.1 325.514 179.714 330.448 177.541L344.13 171.517ZM391.612 199.252C386.429 201.534 381.506 202.776 376.843 202.979C372.222 203.164 367.915 202.431 363.921 200.781C359.951 199.072 356.408 196.591 353.293 193.337C350.2 190.024 347.631 186.043 345.583 181.394L343.913 177.601C341.776 172.748 340.512 168.021 340.12 163.422C339.711 158.782 340.165 154.419 341.485 150.332C342.804 146.246 344.979 142.586 348.01 139.352C351.065 136.059 354.964 133.393 359.709 131.352C364.145 129.399 368.39 128.358 372.442 128.229C376.535 128.082 380.359 128.784 383.913 130.335C387.449 131.846 390.656 134.183 393.534 137.347C396.436 140.451 398.892 144.287 400.903 148.855L404.917 157.97L353.732 180.508L348.937 169.619L383.89 154.228L383.109 152.454C381.959 149.844 380.521 147.702 378.794 146.028C377.067 144.354 375.072 143.309 372.81 142.893C370.589 142.459 368.09 142.853 365.312 144.077C362.783 145.19 360.831 146.659 359.455 148.481C358.08 150.304 357.216 152.389 356.863 154.735C356.51 157.082 356.582 159.606 357.079 162.309C357.618 164.993 358.515 167.763 359.772 170.618L361.443 174.411C362.646 177.143 364.091 179.526 365.778 181.558C367.447 183.55 369.372 185.112 371.554 186.245C373.736 187.378 376.162 187.941 378.832 187.934C381.502 187.927 384.392 187.239 387.501 185.87C391.979 183.898 395.365 181.75 397.658 179.426C399.974 177.042 402.015 174.707 403.78 172.421L413.043 180.977C412.147 182.541 410.778 184.434 408.935 186.657C407.116 188.821 404.749 191.033 401.832 193.29C398.957 195.53 395.551 197.517 391.612 199.252Z" fill="url(#paint6_radial_1550_9037)"/>
</g>
<defs>
<filter id="filter0_d_1550_9037" x="92.6475" y="432.69" width="170.104" height="24.4473" filterUnits="userSpaceOnUse" color-interpolation-filters="sRGB">
<feFlood flood-opacity="0" result="BackgroundImageFix"/>
<feColorMatrix in="SourceAlpha" type="matrix" values="0 0 0 0 0 0 0 0 0 0 0 0 0 0 0 0 0 0 127 0" result="hardAlpha"/>
<feOffset dy="4"/>
<feGaussianBlur stdDeviation="2"/>
<feComposite in2="hardAlpha" operator="out"/>
<feColorMatrix type="matrix" values="0 0 0 0 0 0 0 0 0 0 0 0 0 0 0 0 0 0 0.18 0"/>
<feBlend mode="normal" in2="BackgroundImageFix" result="effect1_dropShadow_1550_9037"/>
<feBlend mode="normal" in="SourceGraphic" in2="effect1_dropShadow_1550_9037" result="shape"/>
</filter>
<filter id="filter1_d_1550_9037" x="19.707" y="197.668" width="183.548" height="196.712" filterUnits="userSpaceOnUse" color-interpolation-filters="sRGB">
<feFlood flood-opacity="0" result="BackgroundImageFix"/>
<feColorMatrix in="SourceAlpha" type="matrix" values="0 0 0 0 0 0 0 0 0 0 0 0 0 0 0 0 0 0 127 0" result="hardAlpha"/>
<feOffset dy="4"/>
<feGaussianBlur stdDeviation="2"/>
<feComposite in2="hardAlpha" operator="out"/>
<feColorMatrix type="matrix" values="0 0 0 0 0.286275 0 0 0 0 0.133333 0 0 0 0 0.596078 0 0 0 0.25 0"/>
<feBlend mode="normal" in2="BackgroundImageFix" result="effect1_dropShadow_1550_9037"/>
<feBlend mode="normal" in="SourceGraphic" in2="effect1_dropShadow_1550_9037" result="shape"/>
</filter>
<filter id="filter2_d_1550_9037" x="136.919" y="335.99" width="83.5225" height="83.5061" filterUnits="userSpaceOnUse" color-interpolation-filters="sRGB">
<feFlood flood-opacity="0" result="BackgroundImageFix"/>
<feColorMatrix in="SourceAlpha" type="matrix" values="0 0 0 0 0 0 0 0 0 0 0 0 0 0 0 0 0 0 127 0" result="hardAlpha"/>
<feOffset dy="4"/>
<feGaussianBlur stdDeviation="2"/>
<feComposite in2="hardAlpha" operator="out"/>
<feColorMatrix type="matrix" values="0 0 0 0 0 0 0 0 0 0 0 0 0 0 0 0 0 0 0.25 0"/>
<feBlend mode="normal" in2="BackgroundImageFix" result="effect1_dropShadow_1550_9037"/>
<feBlend mode="normal" in="SourceGraphic" in2="effect1_dropShadow_1550_9037" result="shape"/>
</filter>
<filter id="filter3_d_1550_9037" x="11.1104" y="70.6438" width="157.57" height="151.943" filterUnits="userSpaceOnUse" color-interpolation-filters="sRGB">
<feFlood flood-opacity="0" result="BackgroundImageFix"/>
<feColorMatrix in="SourceAlpha" type="matrix" values="0 0 0 0 0 0 0 0 0 0 0 0 0 0 0 0 0 0 127 0" result="hardAlpha"/>
<feOffset dy="5"/>
<feGaussianBlur stdDeviation="2"/>
<feComposite in2="hardAlpha" operator="out"/>
<feColorMatrix type="matrix" values="0 0 0 0 0.286275 0 0 0 0 0.133333 0 0 0 0 0.596078 0 0 0 0.25 0"/>
<feBlend mode="normal" in2="BackgroundImageFix" result="effect1_dropShadow_1550_9037"/>
<feBlend mode="normal" in="SourceGraphic" in2="effect1_dropShadow_1550_9037" result="shape"/>
</filter>
<filter id="filter4_d_1550_9037" x="-3.99902" y="172.432" width="68.6465" height="68.6335" filterUnits="userSpaceOnUse" color-interpolation-filters="sRGB">
<feFlood flood-opacity="0" result="BackgroundImageFix"/>
<feColorMatrix in="SourceAlpha" type="matrix" values="0 0 0 0 0 0 0 0 0 0 0 0 0 0 0 0 0 0 127 0" result="hardAlpha"/>
<feOffset dy="4"/>
<feGaussianBlur stdDeviation="2"/>
<feComposite in2="hardAlpha" operator="out"/>
<feColorMatrix type="matrix" values="0 0 0 0 0 0 0 0 0 0 0 0 0 0 0 0 0 0 0.25 0"/>
<feBlend mode="normal" in2="BackgroundImageFix" result="effect1_dropShadow_1550_9037"/>
<feBlend mode="normal" in="SourceGraphic" in2="effect1_dropShadow_1550_9037" result="shape"/>
</filter>
<filter id="filter5_d_1550_9037" x="130.419" y="51.446" width="55.6064" height="55.5957" filterUnits="userSpaceOnUse" color-interpolation-filters="sRGB">
<feFlood flood-opacity="0" result="BackgroundImageFix"/>
<feColorMatrix in="SourceAlpha" type="matrix" values="0 0 0 0 0 0 0 0 0 0 0 0 0 0 0 0 0 0 127 0" result="hardAlpha"/>
<feOffset dy="4"/>
<feGaussianBlur stdDeviation="2"/>
<feComposite in2="hardAlpha" operator="out"/>
<feColorMatrix type="matrix" values="0 0 0 0 0 0 0 0 0 0 0 0 0 0 0 0 0 0 0.25 0"/>
<feBlend mode="normal" in2="BackgroundImageFix" result="effect1_dropShadow_1550_9037"/>
<feBlend mode="normal" in="SourceGraphic" in2="effect1_dropShadow_1550_9037" result="shape"/>
</filter>
<linearGradient id="paint0_linear_1550_9037" x1="596.284" y1="679.952" x2="129.153" y2="99.6783" gradientUnits="userSpaceOnUse">
<stop stop-color="#DAE3FE"/>
<stop offset="1" stop-color="#E9EFFD"/>
</linearGradient>
<radialGradient id="paint1_radial_1550_9037" cx="0" cy="0" r="1" gradientUnits="userSpaceOnUse" gradientTransform="translate(252.546 376.901) rotate(-179.715) scale(98.2888 138.283)">
<stop stop-color="#0894FF"/>
<stop offset="0.290475" stop-color="#6E53FF"/>
<stop offset="0.609151" stop-color="#B038EA"/>
<stop offset="0.850793" stop-color="#F95088"/>
<stop offset="1" stop-color="#FF6F62"/>
</radialGradient>
<radialGradient id="paint2_radial_1550_9037" cx="0" cy="0" r="1" gradientUnits="userSpaceOnUse" gradientTransform="translate(42.1534 144.561) rotate(99.3368) scale(78.9093 111.065)">
<stop stop-color="#0894FF"/>
<stop offset="0.290475" stop-color="#6E53FF"/>
<stop offset="0.609151" stop-color="#B038EA"/>
<stop offset="0.850793" stop-color="#F95088"/>
<stop offset="1" stop-color="#FF6F62"/>
</radialGradient>
<radialGradient id="paint3_radial_1550_9037" cx="0" cy="0" r="1" gradientUnits="userSpaceOnUse" gradientTransform="translate(200.143 54.9102) rotate(151.95) scale(61.9494 87.1652)">
<stop stop-color="#0894FF"/>
<stop offset="0.290475" stop-color="#6E53FF"/>
<stop offset="0.609151" stop-color="#B038EA"/>
<stop offset="0.850793" stop-color="#F95088"/>
<stop offset="1" stop-color="#FF6F62"/>
</radialGradient>
<linearGradient id="paint4_linear_1550_9037" x1="259.177" y1="147.864" x2="242.008" y2="125.713" gradientUnits="userSpaceOnUse">
<stop stop-color="#935FFD"/>
<stop offset="1" stop-color="#492298"/>
</linearGradient>
<linearGradient id="paint5_linear_1550_9037" x1="255.872" y1="136.497" x2="270.798" y2="145.631" gradientUnits="userSpaceOnUse">
<stop stop-color="#492298"/>
<stop offset="1" stop-color="#7447D1"/>
</linearGradient>
<radialGradient id="paint6_radial_1550_9037" cx="0" cy="0" r="1" gradientUnits="userSpaceOnUse" gradientTransform="translate(379.865 132.882) rotate(121.704) scale(113.685 106.178)">
<stop stop-color="#0894FF"/>
<stop offset="0.290475" stop-color="#6E53FF"/>
<stop offset="0.609151" stop-color="#B038EA"/>
<stop offset="0.850793" stop-color="#F95088"/>
<stop offset="1" stop-color="#FF6F62"/>
</radialGradient>
<clipPath id="clip0_1550_9037">
<rect width="528.323" height="525" fill="white"/>
</clipPath>
</defs>
</svg>
