<svg width="280" height="254" viewBox="0 0 280 254" fill="none" xmlns="http://www.w3.org/2000/svg">
<path d="M275.344 115.591C278.806 118.098 279.863 122.48 279.027 126.53C278.834 127.49 278.528 128.423 278.115 129.31C277.576 130.122 276.855 130.796 276.009 131.279C272.598 133.837 269.052 136.165 265.496 138.492C260.542 141.732 255.188 144.461 250.047 147.454L234.35 156.508L202.939 174.618L171.571 192.719L140.169 210.829C130.006 216.686 119.868 222.604 109.688 228.427C100.633 233.602 91.3737 236.808 80.7842 236.211C70.817 235.657 62.8791 231.462 54.4552 226.5L9.01894 199.779C7.3137 198.79 5.36974 197.886 3.97997 196.505C2.47544 195.187 1.28403 193.55 0.492723 191.713C-0.0105538 190.183 -0.130565 188.552 0.14317 186.964C0.408132 185.381 0.807487 183.824 1.33686 182.309" fill="#8859E9"/>
<path d="M36.0805 161.462C63.9271 145.995 91.0831 129.344 118.231 112.7L158.688 87.8976C169.772 81.1192 180.174 71.4334 194.003 74.0936C201.182 75.4749 207.722 79.0559 214.125 82.6198L251.64 103.33C257.805 106.741 263.927 110.765 270.347 113.655C274.15 115.361 278.626 117.066 276.435 122.65C274.994 126.359 271.319 128.619 267.84 130.554L173.728 184.056L126.663 210.812C113.277 218.425 98.8079 230.635 82.6422 229.492C80.1749 229.312 77.7275 228.921 75.3267 228.324C66.6214 226.167 58.6665 221.776 50.8309 217.419L12.4629 196.104C9.34229 194.399 6.17903 192.608 3.6979 190.05C2.84528 189.198 1.53224 188.064 1.14004 186.938C0.627031 185.18 0.760102 183.295 1.51519 181.626C2.44455 179.503 4.13273 178.284 6.13639 177.278C8.77099 175.948 11.3886 174.584 14.0061 173.236C19.2924 170.497 24.5531 167.717 29.7882 164.898C31.9112 163.789 34.0001 162.647 36.0805 161.462Z" fill="#C1A9FF"/>
<path d="M243.465 145.416L134.747 207.137C130.578 209.525 126.408 211.792 122.452 214.24C118.496 216.687 114.608 219.21 110.66 221.521C106.782 223.847 102.715 225.843 98.5021 227.489C94.3811 229.133 90.0098 230.062 85.5763 230.235C81.2989 230.258 77.0431 229.626 72.9576 228.359C69.05 227.171 65.2483 225.66 61.5921 223.84C58.0025 222.135 54.5921 220.208 51.2668 218.358L41.5299 212.918L23.4373 202.797L15.1157 198.142C12.4384 196.624 9.78679 195.243 7.34829 193.615C6.13708 192.815 4.99613 191.914 3.9378 190.92L2.46273 189.454C1.95022 188.959 1.49284 188.41 1.09856 187.817C0.727737 187.184 0.506104 186.476 0.450556 185.745C0.377603 185.061 0.394801 184.37 0.501711 183.69C0.687903 182.364 1.19419 181.102 1.97678 180.015C2.74633 179.008 3.71216 178.166 4.81598 177.543C5.87323 176.929 6.91343 176.46 7.911 175.94L13.6492 173.032L30.2668 164.429L34.5725 162.17L35.6809 161.607C35.8028 161.54 35.9314 161.486 36.0646 161.445C36.0646 161.445 35.9623 161.539 35.7235 161.684L34.6577 162.323L30.3946 164.745C26.6516 166.808 21.0925 169.792 13.9305 173.638L8.21793 176.613C7.22889 177.142 6.17165 177.645 5.19113 178.225C4.19593 178.806 3.32643 179.58 2.63327 180.501C1.94632 181.485 1.50752 182.62 1.35433 183.809C1.27338 184.418 1.27338 185.034 1.35433 185.643C1.40297 186.244 1.58658 186.827 1.89149 187.348C2.70844 188.394 3.61881 189.365 4.61135 190.247C5.63286 191.192 6.73397 192.048 7.90246 192.805C10.2728 194.365 12.9415 195.729 15.6272 197.23L23.9829 201.834L42.1353 211.844L51.8978 217.232C55.2315 219.065 58.625 220.924 62.1804 222.629C65.7788 224.399 69.5175 225.868 73.3583 227.02C77.3035 228.241 81.4127 228.847 85.5422 228.819C89.8082 228.628 94.0112 227.717 97.9734 226.125C102.112 224.472 106.105 222.475 109.91 220.157C113.807 217.863 117.661 215.331 121.659 212.858C125.658 210.386 129.819 208.092 133.98 205.696L242.629 143.856L256.996 135.696L264.107 131.646C266.46 130.282 268.89 129.028 271.03 127.553C273.17 126.078 275.046 124.237 275.788 121.909C276.223 120.849 276.274 119.67 275.933 118.575C275.721 118.07 275.41 117.613 275.02 117.228C274.586 116.817 274.109 116.454 273.597 116.145C272.471 115.511 271.309 114.942 270.118 114.44C268.896 113.872 267.694 113.303 266.511 112.735C264.149 111.516 261.847 110.177 259.588 108.89C257.328 107.602 255.095 106.238 252.852 104.959L246.099 101.216L232.764 93.8322L219.711 86.6105C215.397 84.2488 211.185 81.8103 206.921 79.6617C202.794 77.4627 198.381 75.8499 193.808 74.8699C191.592 74.472 189.333 74.3659 187.089 74.5545C184.869 74.7792 182.684 75.2745 180.584 76.0295C178.493 76.7718 176.469 77.6873 174.53 78.7664C172.578 79.8066 170.702 80.9832 168.86 82.1769C165.177 84.5643 161.588 87.0624 157.904 89.2707L117.328 113.997C92.5252 129.148 72.3351 141.212 58.2157 149.27C51.1645 153.311 45.6481 156.381 41.888 158.435L37.6249 160.737L36.525 161.3C36.4038 161.375 36.2714 161.43 36.1328 161.462C36.2409 161.371 36.358 161.291 36.4824 161.223L37.5396 160.575L41.743 158.128L57.9428 148.681C71.9514 140.445 92.0477 128.218 116.774 112.948L157.239 88.0088C160.888 85.8091 164.427 83.3365 168.144 80.898C170.003 79.6958 171.904 78.5021 173.899 77.4193C175.909 76.3039 178.004 75.3516 180.166 74.5715C182.383 73.7649 184.691 73.2351 187.038 72.9942C189.429 72.7799 191.838 72.886 194.2 73.3096C198.917 74.3101 203.474 75.957 207.74 78.2037C212.063 80.3864 216.266 82.8079 220.589 85.1611L233.66 92.3657L247.012 99.7153L253.833 103.467C256.092 104.754 258.326 106.084 260.586 107.397C262.845 108.71 265.104 109.998 267.406 111.192C268.566 111.788 269.743 112.351 270.936 112.897C272.195 113.419 273.42 114.019 274.603 114.696C275.217 115.074 275.788 115.517 276.308 116.017C276.871 116.57 277.315 117.231 277.612 117.961C278.107 119.431 278.068 121.028 277.502 122.472C277.034 123.858 276.285 125.132 275.302 126.215C274.347 127.262 273.27 128.192 272.096 128.986C269.794 130.58 267.389 131.808 265.045 133.181L257.934 137.222L243.465 145.416Z" fill="white"/>
<path d="M205.37 86.7299C204.877 87.0627 204.433 87.4615 204.048 87.915C203.86 88.1454 203.72 88.4113 203.636 88.6969C203.553 88.9826 203.528 89.2821 203.562 89.5777C203.687 89.9865 203.907 90.3601 204.203 90.6682C204.499 90.9763 204.864 91.2103 205.268 91.3511C206.367 91.8797 207.263 92.4936 208.294 93.116C218.526 99.3004 228.999 105.036 239.714 110.322C240.609 110.765 241.589 111.123 242.45 111.609C243.437 112.262 244.489 112.81 245.588 113.246C246.889 113.729 248.326 113.686 249.595 113.127C250.298 112.707 250.958 112.218 251.565 111.669C252.18 111.112 252.963 110.776 253.79 110.714C254.501 110.768 255.189 110.994 255.794 111.371C258.262 112.671 260.664 114.093 262.99 115.634C264.184 116.427 265.369 117.254 266.52 118.106C266.968 118.487 267.324 118.963 267.562 119.501C267.8 120.038 267.913 120.623 267.893 121.21C267.893 124.075 265.113 126.036 262.632 127.46C241.939 139.396 221.357 151.418 200.646 163.321L137.834 199.395L109.518 215.663C101.41 220.319 92.6277 225.827 82.8822 225.255H82.2428C71.1587 224.343 61.1233 216.797 51.7019 211.46L41.2572 205.492C38.0429 203.676 34.6836 202.141 31.3754 200.461C24.5544 197.005 17.938 193.222 11.5263 189.113C10.6878 188.633 9.9286 188.026 9.27544 187.314C8.94906 186.953 8.70822 186.524 8.57093 186.057C8.43363 185.591 8.40338 185.099 8.48246 184.619C8.74677 183.443 9.82961 182.65 10.8357 181.976C12.3534 180.97 13.8853 179.981 15.4313 179.009C22.8065 174.388 30.4886 170.355 37.9576 165.879L61.2598 151.896L107.83 123.947C115.128 119.564 122.614 115.506 129.819 110.961C136.708 106.613 143.7 102.648 150.623 98.2659L176.585 81.8103C178.947 80.3182 181.36 78.792 184.08 78.1355C187.951 77.1891 192.086 78.1355 195.659 79.8407C199.231 81.546 202.343 84.1465 205.421 86.6617" fill="#FCFBFF"/>
<path d="M67.3208 171.941C74.7102 176.488 82.2303 180.817 89.8812 184.927C93.7009 187.001 97.5434 189.016 101.409 190.972C103.344 191.961 105.288 192.924 107.232 193.888C108.818 194.664 110.216 195.636 111.794 196.394C112.254 196.616 112.723 196.804 113.175 197.034C114.53 197.699 115.895 198.799 115.98 200.308C115.98 200.791 115.878 201.27 115.68 201.711C115.481 202.152 115.191 202.545 114.829 202.866C114.104 203.504 113.291 204.035 112.416 204.443L104.836 208.416C102.747 209.516 100.573 210.309 98.5097 211.358C94.9372 213.157 89.9835 213.992 86.0785 212.731C83.8617 212.006 81.6363 210.429 79.6327 209.243C77.4755 207.964 75.3696 206.438 73.3318 205.048C70.8933 203.411 68.1223 202.133 65.5644 200.692C60.4089 197.759 55.2733 194.78 50.1575 191.756C47.6338 190.256 45.1185 188.749 42.6118 187.237C41.6617 186.657 40.6796 186.13 39.6703 185.66C39.1811 185.45 38.7731 185.087 38.5072 184.626C38.2414 184.165 38.1319 183.63 38.1953 183.102C38.4255 181.746 39.7556 180.902 40.9578 180.229L51.7775 174.158C54.864 172.453 57.5157 170.236 61.2331 170.475C65.2831 170.722 68.9664 172.777 72.4877 174.738" fill="#492298"/>
<path d="M68.1746 168.812C75.564 173.359 83.0841 177.69 90.735 181.806C94.5548 183.869 98.3973 185.884 102.262 187.851C104.195 188.829 106.139 189.798 108.094 190.758C109.672 191.534 111.07 192.515 112.647 193.265C113.108 193.487 113.577 193.683 114.029 193.904C115.384 194.57 116.748 195.669 116.834 197.179C116.834 197.662 116.732 198.14 116.533 198.581C116.335 199.022 116.045 199.416 115.683 199.736C114.96 200.377 114.147 200.909 113.27 201.314L105.69 205.295C103.601 206.387 101.427 207.188 99.3635 208.228C95.791 210.028 90.8373 210.872 86.9323 209.601C84.7155 208.877 82.4901 207.299 80.4865 206.114C78.3293 204.835 76.2234 203.317 74.1856 201.919C71.7557 200.282 68.9761 199.012 66.4182 197.562C61.2627 194.629 56.1271 191.651 51.0113 188.627C48.4876 187.137 45.9724 185.634 43.4656 184.116C42.5175 183.535 41.5384 183.005 40.5326 182.531C40.041 182.323 39.6303 181.961 39.3627 181.5C39.095 181.038 38.9849 180.502 39.0491 179.973C39.2793 178.617 40.6094 177.773 41.8116 177.099L52.6399 171.037C55.7178 169.332 58.3695 167.115 62.0954 167.345C66.1368 167.601 69.8202 169.647 73.3415 171.651" fill="#492298"/>
<path d="M84.2366 209.371C82.7616 208.587 81.4144 207.666 80.0758 206.881C78.7372 206.097 77.3474 205.176 76.0514 204.255C74.7554 203.334 73.4935 202.456 72.2146 201.697C70.9357 200.939 69.563 200.222 68.2159 199.506C66.8687 198.79 65.5301 198.031 64.2512 197.281L60.4229 195.047L53.0051 190.707C50.5836 189.309 48.256 187.885 45.988 186.512C44.854 185.839 43.7371 185.131 42.6372 184.517L41.0001 183.664L40.1475 183.213C39.7942 183.039 39.4716 182.808 39.1926 182.53C38.6148 181.957 38.2869 181.179 38.2803 180.365C38.3097 179.587 38.6115 178.845 39.1329 178.267C40.0374 177.39 41.0839 176.672 42.2279 176.144L48.0428 172.956C49.8845 171.932 51.6835 170.977 53.312 170.048C54.849 169.063 56.4729 168.221 58.1634 167.533C58.9638 167.246 59.7977 167.063 60.6446 166.987C61.4247 166.934 62.2083 166.968 62.9808 167.089C64.3069 167.29 65.6056 167.642 66.8516 168.138C68.5473 168.832 70.1816 169.668 71.7371 170.636C72.3056 170.926 72.8332 171.291 73.306 171.719C72.7127 171.519 72.1413 171.259 71.6007 170.943C69.9999 170.117 68.3482 169.394 66.6556 168.778C65.4441 168.353 64.1884 168.067 62.9125 167.925C62.1982 167.852 61.4783 167.852 60.7639 167.925C59.9982 168.021 59.2476 168.213 58.53 168.496C56.9153 169.207 55.3685 170.063 53.9088 171.054C52.2548 172.052 50.4983 173.015 48.6737 174.081L42.9185 177.372C41.9265 177.843 41.0168 178.471 40.2243 179.231C39.9282 179.561 39.7537 179.982 39.7297 180.424C39.7376 180.638 39.7877 180.849 39.8769 181.043C39.9662 181.238 40.0929 181.413 40.2498 181.558C40.4145 181.719 40.6047 181.852 40.8126 181.951L41.6652 182.403L43.3705 183.323C44.5215 183.946 45.6128 184.628 46.7809 185.293C49.066 186.64 51.3936 188.047 53.8236 189.42L61.2584 193.683L65.0952 195.891C66.3912 196.65 67.6531 197.383 69.0258 198.074C70.3985 198.764 71.7372 199.489 73.1014 200.299C74.4656 201.109 75.7616 202.004 77.049 202.908C78.3365 203.812 79.6069 204.673 80.9711 205.466C82.3352 206.259 83.6909 207.171 85.0636 207.904C86.3792 208.647 87.8275 209.125 89.3267 209.311C90.8171 209.481 92.3238 209.44 93.803 209.192C95.2667 208.949 96.6973 208.537 98.0661 207.964C98.4072 207.819 98.7227 207.657 99.0637 207.495L100.129 206.992L102.235 206.054C103.651 205.449 104.93 204.835 106.26 204.127L110.19 202.073C111.469 201.399 112.825 200.734 113.985 200.069C114.527 199.774 115.012 199.384 115.417 198.918C115.77 198.515 115.988 198.011 116.039 197.477C116.116 196.505 115.246 195.567 114.189 194.919C113.686 194.621 113.021 194.348 112.424 194.066C111.827 193.785 111.197 193.435 110.617 193.094C109.449 192.404 108.391 191.764 107.206 191.219L103.796 189.513C99.3621 187.254 95.2695 185.012 91.5606 183.034C84.1343 178.975 78.2597 175.445 74.2354 172.956C72.2317 171.711 70.6885 170.713 69.6483 170.022C69.0943 169.706 68.5816 169.322 68.122 168.88C68.722 169.096 69.2943 169.382 69.8273 169.733L74.5849 172.393C78.7031 174.695 84.6629 178.063 92.1489 181.959C95.9175 183.869 99.9931 186.043 104.444 188.243L107.854 189.948C109.022 190.494 110.207 191.193 111.333 191.841C111.896 192.165 112.458 192.464 113.038 192.694C113.618 192.924 114.257 193.214 114.931 193.606C115.614 193.989 116.221 194.495 116.721 195.098C117.297 195.781 117.6 196.652 117.574 197.545C117.465 198.381 117.152 199.178 116.661 199.864C116.17 200.55 115.517 201.103 114.76 201.476C113.439 202.226 112.203 202.848 110.898 203.548L106.976 205.619C105.68 206.327 104.239 207.018 102.858 207.615L100.786 208.544L99.7714 209.038C99.4133 209.2 99.0466 209.397 98.6715 209.542C97.172 210.182 95.6002 210.637 93.9906 210.897C92.3485 211.178 90.6748 211.224 89.0198 211.034C88.1687 210.928 87.3294 210.743 86.5131 210.479C85.7262 210.171 84.965 209.8 84.2366 209.371Z" fill="white"/>
<g clip-path="url(#clip0_1448_9135)">
<path d="M132.509 54.9259C128.398 60.4464 125.39 66.7082 123.65 73.3681C123.544 73.6276 123.544 73.9186 123.65 74.1781C123.829 74.485 124.247 74.5277 124.597 74.5447L130.761 74.792" fill="#492298"/>
<path d="M167.705 57.1678C170.859 60.7778 172.721 65.3341 173 70.1192C173.033 70.2972 173.024 70.4803 172.975 70.6546C172.927 70.8289 172.839 70.9899 172.719 71.1253C172.462 71.278 172.157 71.3268 171.866 71.2617L166.827 70.9036" fill="#492298"/>
<path d="M157.244 96.099C156.357 97.427 155.165 98.5223 153.766 99.2922C152.367 100.062 150.804 100.484 149.207 100.523C147.611 100.561 146.029 100.215 144.595 99.5132C143.161 98.8115 141.917 97.775 140.967 96.4912C139.92 94.8429 139.097 93.0623 138.52 91.1964C137.796 89.3292 136.755 87.5557 135.962 85.7141C130.768 73.6592 128.545 60.5328 129.482 47.4399C130.83 29.4837 138.324 13.8892 149.434 0C158.909 11.7856 165.206 25.8033 167.723 40.7149C170.239 55.6265 168.892 70.9343 163.809 85.1769C162.325 89.3292 160.458 93.4729 157.321 96.5765C154.183 99.68 149.545 101.564 145.282 100.422C144.138 100.127 143.077 99.5759 142.178 98.8103C141.439 98.0625 140.997 97.0717 140.933 96.0223C140.638 94.878 140.141 93.7954 139.467 92.8249C139.134 92.2281 138.802 91.6227 138.486 91.0089" fill="#8859E9"/>
<path d="M137.505 88.9282C137.505 88.9282 151.923 103.662 162.044 88.536C162.044 88.536 178.082 121.166 151.616 152.065C151.616 152.065 126.558 132.906 137.505 88.9282Z" fill="#FCF9FF"/>
<path d="M134.794 33.3456L134.845 33.2773C135.024 33.1153 135.203 33.2773 135.331 33.4308C135.459 33.5843 135.706 33.7378 135.903 33.8827C136.286 34.1811 136.678 34.4625 137.079 34.7353C137.885 35.266 138.725 35.7417 139.594 36.1592C141.218 36.9483 142.938 37.5216 144.71 37.8645C146.46 38.2151 148.249 38.3326 150.03 38.214C152.837 38.013 155.574 37.2453 158.075 35.9572C160.577 34.6691 162.791 32.8873 164.585 30.7195C168.403 45.3661 168.696 60.7093 165.437 75.4907C164.363 80.325 162.786 86.0887 158.795 89.4396C156.939 90.9654 154.745 92.0267 152.396 92.5353C150.048 93.0439 147.611 92.9852 145.29 92.364C137.343 90.1387 135.152 82.8829 133.464 75.8488C133.012 73.99 132.611 72.1057 132.322 70.2129C132.032 68.3201 131.767 66.4188 131.588 64.5089C131.409 62.599 131.315 60.6891 131.281 58.7707C131.247 56.8523 131.281 54.9425 131.384 53.0326C131.486 51.1227 131.656 49.2043 131.904 47.303C132.151 45.4016 132.458 43.5088 132.833 41.633C133.208 39.7573 133.686 37.89 134.189 36.0484C134.334 35.5283 134.487 35.0082 134.649 34.4966C134.738 34.2614 134.807 34.0189 134.854 33.7719C134.854 33.6269 134.854 33.2603 135.033 33.2347C135.057 33.2311 135.082 33.2325 135.105 33.2389C135.129 33.2452 135.151 33.2563 135.17 33.2715C135.189 33.2866 135.205 33.3056 135.217 33.3271C135.228 33.3487 135.235 33.3723 135.237 33.3967" fill="url(#paint0_linear_1448_9135)"/>
<path d="M161.224 54.2522L166.187 65.3363C169.154 71.9953 172.155 78.6798 174.091 85.7054C176.026 92.731 176.921 100.157 175.634 107.328L161.31 90.8638C159.872 89.422 158.715 87.7247 157.899 85.8589C157.316 83.8069 157.139 81.6607 157.379 79.541L158.402 58.0123C158.362 57.0577 158.586 56.1105 159.05 55.2753C159.173 55.0741 159.334 54.8991 159.524 54.7601C159.714 54.6212 159.93 54.5211 160.158 54.4657C160.387 54.4103 160.625 54.4005 160.858 54.437C161.09 54.4735 161.313 54.5556 161.514 54.6785" fill="url(#paint1_linear_1448_9135)"/>
<path d="M160.978 41.983C160.475 40.218 158.114 39.0073 155.76 38.9476C153.492 38.9456 151.286 39.6918 149.485 41.0707C148.518 41.7375 147.698 42.5951 147.075 43.5907C146.452 44.5863 146.039 45.6989 145.861 46.86C145.767 48.0085 145.96 49.1626 146.422 50.2179C146.885 51.2733 147.604 52.1968 148.513 52.9051C149.9 54.0668 151.667 54.6742 153.475 54.6103C155.047 54.4464 156.545 53.8569 157.807 52.9051C159.904 51.6197 161.521 49.6817 162.411 47.3886C162.768 46.2915 162.798 45.1138 162.495 44.0003C162.192 42.8869 161.57 41.8863 160.705 41.1218" fill="#492298"/>
<path d="M160.322 42.2897C159.896 40.7294 157.875 39.6466 155.863 39.5955C153.908 39.6 152.013 40.2639 150.483 41.4798C149.652 42.0836 148.949 42.8469 148.416 43.7253C147.883 44.6036 147.531 45.5794 147.379 46.5955C147.297 47.6069 147.461 48.6231 147.857 49.5572C148.254 50.4912 148.871 51.3152 149.656 51.9585C150.829 52.9942 152.354 53.5431 153.919 53.4932C155.27 53.3503 156.554 52.8336 157.628 52.0011C159.438 50.8412 160.821 49.1232 161.567 47.1071C161.878 46.1385 161.907 45.1012 161.651 44.1167C161.394 43.1321 160.862 42.2411 160.117 41.548" fill="#FCF9FF"/>
<path d="M140.703 46.4473C140.268 51.6375 140.303 55.957 140.046 55.9997C139.789 56.0424 139.398 51.6204 139.833 46.2168C140.268 40.8131 141.395 36.8265 141.6 37.0058C141.804 37.1851 141.138 41.2485 140.703 46.4473Z" fill="#492298"/>
<path d="M140.677 54.926C140.375 65.2629 142.479 75.5286 146.825 84.9127C140.742 88.9309 135.353 93.9129 130.872 99.6631C128.476 102.733 126.285 106.075 123.096 108.309C121.655 103.696 122.806 98.7252 123.949 94.0358C127.359 80.3342 130.881 66.2488 139.142 54.8152" fill="url(#paint2_linear_1448_9135)"/>
<path d="M172.242 80.5812C174.412 86.4809 175.755 92.6528 176.232 98.9211C176.522 103.738 176.027 106.706 175.823 106.688C175.618 106.671 175.601 103.721 174.97 99.0149C174.149 92.9079 172.68 86.9057 170.587 81.1098C168.2 74.2462 165.992 68.0647 164.252 63.6396C162.513 59.2145 161.379 56.5031 161.601 56.3923C161.823 56.2814 163.366 58.8137 165.386 63.1621C167.407 67.5105 169.854 73.7005 172.242 80.5812Z" fill="white"/>
<path d="M129.286 80.4361C124.503 94.7602 123.224 107.029 122.67 106.961C122.457 106.961 122.499 103.849 123.173 98.8954C123.505 96.4143 124.025 93.4812 124.75 90.2583C125.475 87.0354 126.455 83.5226 127.632 79.8904C128.809 76.2583 130.19 72.8819 131.494 69.8551C132.799 66.8283 134.154 64.1596 135.365 61.9769C137.778 57.5944 139.586 55.0791 139.773 55.1559C140.251 55.4628 133.975 66.0865 129.286 80.4361Z" fill="white"/>
<path d="M171.968 65.8563C172.256 67.1158 172.413 68.4015 172.437 69.6931C172.481 70.2276 172.441 70.7656 172.318 71.2875C172.181 71.2875 172.215 68.849 171.542 65.9586C170.868 63.0682 169.836 60.8429 169.939 60.8429C170.284 61.2562 170.556 61.7265 170.74 62.2327C171.273 63.3953 171.684 64.6095 171.968 65.8563Z" fill="white"/>
<path d="M127.308 66.8712C126.575 68.6787 126.038 70.3584 125.671 71.5862C125.522 72.2485 125.323 72.8985 125.074 73.5301C125.093 72.8334 125.205 72.1423 125.407 71.4753C126.186 68.1967 127.451 65.0528 129.158 62.1476C129.473 61.5273 129.872 60.9534 130.343 60.4424C130.084 61.0872 129.776 61.7115 129.423 62.3096C128.809 63.4692 128.033 65.0636 127.308 66.8712Z" fill="white"/>
<path d="M131.538 95.9879C133.791 93.5512 136.228 91.2908 138.828 89.2266C139.863 88.3116 141.009 87.5296 142.238 86.8989C142.323 87.0098 141.121 88.0159 139.237 89.6955C137.352 91.3752 134.812 93.7625 132.194 96.5847C129.577 99.4069 127.394 102.118 125.859 104.122C124.324 106.126 123.404 107.396 123.301 107.328C123.199 107.26 123.949 105.87 125.365 103.764C127.223 101.02 129.287 98.4203 131.538 95.9879Z" fill="white"/>
<path d="M169.138 96.9517C170.728 98.7341 172.178 100.635 173.478 102.639C173.973 103.406 174.331 104.037 174.595 104.489C174.744 104.712 174.859 104.956 174.936 105.214C174.885 105.214 174.271 104.293 173.231 102.809C171.866 100.873 170.395 99.0139 168.823 97.2416C167.243 95.4737 165.569 93.7917 163.809 92.2026C162.454 90.9918 161.584 90.2671 161.618 90.216C161.652 90.1648 161.883 90.3439 162.292 90.6423C162.701 90.9407 163.298 91.3926 163.997 91.9724C165.835 93.4994 167.553 95.164 169.138 96.9517Z" fill="white"/>
<g clip-path="url(#clip1_1448_9135)">
<path d="M165.684 116.575C165.026 124.652 162.847 132.446 159.311 139.37C158.256 141.459 157.06 143.441 155.734 145.295C154.79 146.597 154.189 147.23 154.125 147.162C153.924 146.965 155.992 144.071 158.416 138.753C161.602 131.851 163.58 124.246 164.232 116.4C164.884 108.553 164.195 100.63 162.207 93.1128C161.7 90.8199 160.907 88.6318 159.854 86.6221C159.075 85.2435 158.459 84.6355 158.531 84.5242C158.602 84.4129 159.332 84.8753 160.305 86.2368C161.579 88.1782 162.549 90.3803 163.166 92.7361C165.487 100.356 166.347 108.503 165.684 116.575Z" fill="#492298"/>
<path d="M138.061 118.39C138.658 123.026 139.784 127.541 141.409 131.809C142.746 135.282 144.427 138.551 146.416 141.545C149.87 146.682 152.775 148.952 152.617 149.2C152.567 149.285 151.787 148.814 150.514 147.718C148.729 146.141 147.091 144.338 145.629 142.341C143.448 139.367 141.613 136.055 140.171 132.494C138.414 128.121 137.208 123.461 136.595 118.664C135.971 113.879 135.879 109.016 136.323 104.202C136.666 100.262 137.485 96.4023 138.755 92.7445C139.61 90.2721 140.764 87.9639 142.181 85.8942C142.56 85.3295 142.976 84.8026 143.426 84.3186C143.726 83.9847 143.905 83.8305 143.941 83.8733C143.976 83.9162 143.876 84.1473 143.647 84.5498C143.419 84.9523 143.061 85.5345 142.639 86.2624C141.443 88.4157 140.461 90.7292 139.713 93.1555C138.622 96.7415 137.932 100.485 137.661 104.287C137.31 108.99 137.444 113.727 138.061 118.39Z" fill="#492298"/>
<path d="M151 85.9887C152.743 86.034 154.479 85.6974 156.121 84.9954C157.409 84.4559 158.189 83.9764 158.317 84.1819C158.446 84.3874 157.845 85.2266 156.551 86.1171C154.84 87.2543 152.904 87.8136 150.948 87.7351C148.993 87.6567 147.092 86.9435 145.449 85.6718C144.212 84.6785 143.683 83.7623 143.804 83.5996C143.926 83.4369 144.691 83.9421 145.95 84.5843C147.548 85.4167 149.259 85.8926 151 85.9887Z" fill="#492298"/>
<path d="M145.163 111.558C145.041 118.845 146.844 124.522 146.422 124.702C146.25 124.788 145.57 123.469 144.905 121.114C144.514 119.719 144.223 118.287 144.033 116.833C143.553 113.292 143.594 109.678 144.154 106.155C144.401 104.747 144.738 103.364 145.163 102.019C145.878 99.6811 146.593 98.3967 146.765 98.4823C147.173 98.6536 145.234 104.262 145.163 111.558Z" fill="#492298"/>
<path d="M158.324 100.306C158.449 101.675 158.449 103.056 158.324 104.425C158.217 105.538 158.01 106.635 157.709 107.696C157.179 109.502 156.571 110.453 156.407 110.359C156.242 110.265 156.464 109.151 156.707 107.396C157.028 105.133 157.08 102.827 156.865 100.546C156.619 98.259 156.106 96.0251 155.341 93.9094C154.754 92.2738 154.282 91.272 154.461 91.1093C154.64 90.9466 155.377 91.7258 156.249 93.3271C156.757 94.271 157.177 95.2789 157.501 96.3327C157.897 97.6168 158.172 98.9493 158.324 100.306Z" fill="#492298"/>
</g>
</g>
<g clip-path="url(#clip2_1448_9135)">
<path d="M115.295 122.641C117.364 121.43 119.538 120.408 121.792 119.588C122.832 119.247 123.829 118.906 124.784 118.685C125.66 118.448 126.548 118.26 127.444 118.122C130.727 117.585 132.799 117.747 132.807 117.951C132.816 118.156 130.812 118.497 127.692 119.324C126.916 119.529 126.072 119.759 125.134 120.074C124.196 120.39 123.292 120.722 122.303 121.089C118.05 122.801 114.091 125.169 110.571 128.106C109.778 128.797 108.994 129.445 108.329 130.11C107.664 130.775 107.024 131.38 106.47 131.968C104.262 134.305 103.059 135.942 102.829 135.797C102.599 135.652 103.494 133.793 105.532 131.158C106.052 130.51 106.623 129.794 107.306 129.095C107.988 128.396 108.721 127.646 109.522 126.895C111.312 125.304 113.245 123.88 115.295 122.641Z" fill="#3F00F9" fill-opacity="0.5"/>
<path d="M176.223 117.21C178.269 117.902 180.201 118.897 181.953 120.16C183.283 121.149 183.956 121.934 183.82 122.121C183.513 122.53 180.188 120.416 175.652 118.856C171.116 117.295 167.202 116.895 167.211 116.392C167.211 116.161 168.234 115.948 169.888 115.991C172.048 116.082 174.183 116.493 176.223 117.21Z" fill="#3F00F9" fill-opacity="0.5"/>
<path d="M198.135 154.145C195.758 157.37 192.753 160.082 189.302 162.117C186.528 163.757 183.587 165.095 180.528 166.107C175.336 167.812 172.002 168.333 171.951 168.136C171.9 167.94 175.105 166.917 180.102 164.948C183.01 163.808 185.807 162.404 188.458 160.753C191.67 158.759 194.474 156.172 196.719 153.13C198.964 150.132 200.334 146.569 200.676 142.839C200.869 139.793 200.248 136.75 198.877 134.023C197.936 132.175 196.631 130.536 195.04 129.206L194.264 128.6C194.034 128.43 193.829 128.302 193.667 128.183C193.352 127.952 193.19 127.799 193.215 127.748C193.241 127.697 193.445 127.748 193.829 127.867C194.068 127.95 194.301 128.047 194.528 128.157L195.441 128.66C197.307 129.861 198.855 131.496 199.951 133.426C201.608 136.312 202.414 139.608 202.279 142.933C202.011 146.993 200.572 150.887 198.135 154.145Z" fill="#3F00F9" fill-opacity="0.5"/>
<path d="M130.513 165.315C138.016 167.115 145.685 168.138 153.398 168.367C159.366 168.538 163.015 168.299 163.041 168.572C163.066 168.844 159.4 169.424 153.389 169.603C145.55 169.741 137.726 168.881 130.104 167.045C125.883 166.078 121.763 164.71 117.801 162.961C114.53 161.533 111.495 159.619 108.797 157.283C106.975 155.708 105.426 153.845 104.21 151.766C103.87 151.21 103.585 150.621 103.357 150.01C103.195 149.592 103.136 149.371 103.187 149.336C103.238 149.302 103.408 149.49 103.664 149.848C103.92 150.206 104.253 150.752 104.773 151.391C106.15 153.247 107.767 154.913 109.581 156.345C112.29 158.442 115.27 160.163 118.44 161.461C122.35 163.081 126.388 164.37 130.513 165.315Z" fill="#3F00F9" fill-opacity="0.5"/>
<path d="M135.45 124.031C134.627 123.778 133.761 123.695 132.905 123.788C132.049 123.88 131.221 124.146 130.471 124.568C129.291 125.223 128.384 126.278 127.913 127.543C127.688 128.176 127.6 128.849 127.656 129.518C127.712 130.187 127.91 130.837 128.237 131.423C128.769 132.274 129.573 132.922 130.518 133.26C131.463 133.599 132.495 133.61 133.447 133.29C134.382 132.923 135.174 132.263 135.703 131.409C136.232 130.554 136.469 129.551 136.38 128.55C136.124 126.239 134.171 124.466 132.117 123.332" fill="white"/>
<path d="M130.718 132.37C131.54 132.691 132.453 132.691 133.276 132.37C134.042 132.065 134.684 131.512 135.1 130.801C135.503 130.152 135.704 129.398 135.68 128.635C135.641 127.947 135.446 127.276 135.109 126.674C134.558 125.742 133.855 124.909 133.028 124.21C132.44 123.681 132.091 123.357 132.176 123.264C132.261 123.17 132.687 123.264 133.438 123.656C134.529 124.215 135.471 125.028 136.183 126.026C136.701 126.766 137.031 127.62 137.147 128.516C137.258 129.645 137.007 130.781 136.431 131.759C135.855 132.736 134.983 133.506 133.941 133.956C132.725 134.44 131.371 134.44 130.155 133.956C128.919 133.503 127.909 132.585 127.341 131.398C126.849 130.31 126.729 129.09 127 127.928C127.238 126.905 127.751 125.968 128.484 125.216C129.094 124.576 129.832 124.07 130.65 123.733C131.801 123.245 133.073 123.117 134.299 123.366C135.151 123.562 135.535 123.852 135.501 123.954C135.467 124.057 135.007 124.023 134.231 124.04C133.165 124.069 132.121 124.343 131.178 124.841C130.522 125.187 129.949 125.67 129.499 126.259C129.048 126.848 128.731 127.528 128.569 128.252C128.422 129.072 128.532 129.918 128.885 130.673C129.259 131.45 129.914 132.056 130.718 132.37Z" fill="#492298"/>
<path d="M164.286 123.621C166.549 123.773 168.706 124.635 170.45 126.085C171.311 126.814 172.004 127.72 172.483 128.741C172.961 129.762 173.213 130.875 173.221 132.003C173.204 133.133 172.877 134.237 172.275 135.195C171.674 136.153 170.822 136.927 169.811 137.434C168.689 137.908 167.45 138.032 166.256 137.792C165.063 137.552 163.969 136.958 163.118 136.087C162.296 135.188 161.715 134.096 161.43 132.912C161.145 131.728 161.166 130.491 161.489 129.317C161.833 128.15 162.415 127.067 163.199 126.137C163.983 125.206 164.951 124.449 166.042 123.911" fill="white"/>
<path d="M169.318 138.525C167.803 138.933 166.194 138.812 164.757 138.183C163.321 137.554 162.141 136.453 161.414 135.064C160.848 133.973 160.545 132.766 160.527 131.537C160.509 130.309 160.778 129.093 161.311 127.987C162.007 126.546 163.098 125.334 164.458 124.491C165.395 123.911 166.009 123.783 166.052 123.886C166.095 123.988 165.617 124.329 164.858 125.028C163.799 125.981 162.971 127.161 162.437 128.481C162.071 129.42 161.916 130.427 161.983 131.431C162.049 132.436 162.335 133.414 162.821 134.296C163.386 135.294 164.255 136.086 165.302 136.556C166.412 137.059 167.663 137.162 168.84 136.846C169.992 136.493 170.968 135.716 171.568 134.671C172.181 133.69 172.479 132.544 172.421 131.389C172.333 130.378 172.042 129.395 171.564 128.5C171.086 127.605 170.432 126.815 169.642 126.179C168.522 125.281 167.244 124.601 165.873 124.176C164.884 123.86 164.304 123.724 164.313 123.596C164.321 123.468 164.927 123.383 166.018 123.519C167.592 123.726 169.093 124.311 170.392 125.224C171.395 125.916 172.239 126.816 172.866 127.861C173.492 128.907 173.887 130.075 174.024 131.286C174.163 132.772 173.832 134.263 173.078 135.55C172.259 136.993 170.91 138.06 169.318 138.525Z" fill="#492298"/>
<path d="M140.89 130.076C140.136 129.63 139.289 129.367 138.416 129.307C137.543 129.246 136.667 129.391 135.86 129.729C135.052 130.067 134.335 130.589 133.765 131.253C133.195 131.917 132.788 132.705 132.576 133.555C131.903 136.258 133.378 139.148 135.578 140.853C136.965 141.975 138.688 142.602 140.472 142.635C142.152 142.639 143.769 141.997 144.989 140.842C146.209 139.686 146.938 138.106 147.026 136.429C147.113 134.751 146.553 133.103 145.46 131.827C144.367 130.551 142.825 129.744 141.154 129.573" fill="white"/>
<path d="M138.563 141.467C139.779 141.882 141.101 141.864 142.306 141.415C143.437 140.979 144.417 140.223 145.128 139.241C145.753 138.419 146.133 137.437 146.223 136.408C146.314 135.379 146.112 134.345 145.639 133.426C145.002 132.108 143.967 131.023 142.681 130.323C141.751 129.837 141.138 129.709 141.155 129.573C141.172 129.436 141.82 129.359 142.945 129.7C144.549 130.252 145.895 131.371 146.731 132.847C147.344 133.88 147.673 135.056 147.686 136.257C147.676 137.657 147.242 139.022 146.441 140.171C145.579 141.449 144.352 142.439 142.92 143.01C142.153 143.323 141.335 143.491 140.507 143.504C139.668 143.518 138.833 143.394 138.034 143.138C136.54 142.66 135.19 141.814 134.107 140.679C133.024 139.544 132.243 138.156 131.836 136.641C131.49 135.269 131.606 133.821 132.168 132.523C132.661 131.415 133.463 130.474 134.479 129.811C135.302 129.27 136.25 128.947 137.233 128.873C137.956 128.821 138.682 128.908 139.373 129.129C140.498 129.496 140.95 129.982 140.89 130.084C140.831 130.186 140.268 129.922 139.228 129.786C137.797 129.583 136.344 129.954 135.186 130.817C134.42 131.399 133.83 132.181 133.481 133.077C133.112 134.096 133.076 135.207 133.379 136.249C133.756 137.473 134.425 138.587 135.328 139.496C136.231 140.405 137.341 141.081 138.563 141.467Z" fill="#492298"/>
<path d="M134.061 134.126C133.072 132.919 131.771 132.006 130.299 131.487C128.827 130.969 127.241 130.864 125.714 131.184C124.187 131.532 122.768 132.246 121.58 133.265C120.391 134.284 119.469 135.578 118.893 137.033C118.343 138.493 118.107 140.053 118.201 141.61C118.295 143.168 118.717 144.688 119.439 146.071C120.634 148.391 122.621 150.206 125.04 151.187C126.25 151.668 127.547 151.891 128.848 151.842C130.149 151.792 131.425 151.47 132.595 150.897C136.073 149.132 138 144.98 137.634 141.092C137.381 139.15 136.718 137.285 135.689 135.619C134.66 133.954 133.288 132.526 131.665 131.432" fill="white"/>
<path d="M123.548 149.439C125.247 150.617 127.302 151.169 129.363 150.999C131.272 150.856 133.061 150.012 134.385 148.629C135.591 147.342 136.423 145.75 136.789 144.025C137.121 142.509 137.101 140.936 136.73 139.429C136.147 137.189 135.029 135.123 133.473 133.41C132.373 132.165 131.622 131.585 131.708 131.474C131.793 131.363 132.654 131.781 133.95 132.932C135.82 134.581 137.193 136.719 137.915 139.105C138.425 140.794 138.524 142.58 138.205 144.315C137.847 146.333 136.928 148.209 135.553 149.729C133.981 151.436 131.828 152.495 129.516 152.696C127.057 152.929 124.595 152.283 122.568 150.871C120.636 149.532 119.139 147.656 118.262 145.476C117.385 143.296 117.165 140.906 117.631 138.602C118.048 136.587 119.054 134.741 120.521 133.299C121.782 132.053 123.354 131.169 125.074 130.741C126.49 130.385 127.973 130.385 129.389 130.741C130.44 131.003 131.43 131.466 132.305 132.105C133.728 133.163 134.138 134.1 134.061 134.134C133.984 134.169 133.362 133.478 131.938 132.677C131.082 132.196 130.151 131.864 129.184 131.696C127.923 131.471 126.628 131.541 125.398 131.901C123.928 132.36 122.603 133.195 121.553 134.322C120.339 135.597 119.522 137.196 119.2 138.926C118.859 140.843 119.054 142.817 119.763 144.63C120.515 146.576 121.833 148.251 123.548 149.439Z" fill="#492298"/>
<path d="M146.85 142.592C146.027 140.631 144.576 138.998 142.723 137.952C140.871 136.905 138.724 136.504 136.619 136.812C134.533 137.204 132.616 138.222 131.122 139.729C129.628 141.237 128.628 143.163 128.254 145.253C127.952 147.351 128.236 149.493 129.075 151.441C129.915 153.388 131.278 155.065 133.012 156.285C133.881 156.959 134.888 157.432 135.961 157.67C137.035 157.907 138.147 157.903 139.219 157.658C141.206 157.061 142.63 155.373 143.9 153.719C145.465 151.837 146.66 149.676 147.421 147.35C147.792 146.184 147.887 144.948 147.699 143.74C147.511 142.531 147.045 141.382 146.339 140.384" fill="white"/>
<path d="M130.352 151.979C131.328 153.785 132.809 155.267 134.615 156.242C135.385 156.706 136.253 156.983 137.149 157.05C138.045 157.116 138.944 156.971 139.774 156.626C141.274 155.761 142.557 154.566 143.525 153.13C144.515 151.91 145.389 150.6 146.134 149.217C147.235 147.263 147.618 144.986 147.217 142.78C146.885 141.228 146.279 140.495 146.364 140.409C146.45 140.324 147.217 140.946 147.831 142.6C148.167 143.605 148.305 144.664 148.24 145.721C148.145 147.118 147.792 148.485 147.2 149.754C146.497 151.26 145.64 152.688 144.642 154.017C143.569 155.675 142.12 157.057 140.413 158.05C139.381 158.562 138.228 158.783 137.079 158.689C135.927 158.595 134.805 158.27 133.78 157.735C131.68 156.615 129.95 154.909 128.802 152.825C127.653 150.74 127.134 148.367 127.308 145.994C127.531 143.899 128.338 141.909 129.638 140.25C130.937 138.592 132.677 137.332 134.658 136.615C136.299 136.031 138.071 135.916 139.774 136.283C142.21 136.774 144.369 138.169 145.819 140.188C146.799 141.611 146.902 142.6 146.825 142.618C146.748 142.635 146.347 141.765 145.282 140.605C143.785 138.942 141.762 137.843 139.552 137.493C138.84 137.393 138.12 137.37 137.403 137.425C136.633 137.511 135.877 137.694 135.153 137.971C133.552 138.609 132.149 139.659 131.086 141.015C129.903 142.477 129.182 144.257 129.014 146.13C128.879 148.169 129.345 150.202 130.352 151.979Z" fill="#492298"/>
<path d="M120.872 140.955C120.037 139.923 118.898 139.181 117.616 138.836C116.335 138.49 114.977 138.559 113.737 139.032C112.496 139.505 111.438 140.358 110.712 141.469C109.985 142.58 109.629 143.892 109.694 145.218C109.738 146.233 110.028 147.221 110.539 148.098C111.05 148.976 111.767 149.715 112.628 150.254C113.489 150.792 114.468 151.113 115.48 151.189C116.493 151.264 117.508 151.093 118.44 150.688C119.371 150.284 120.19 149.659 120.826 148.867C121.462 148.075 121.895 147.141 122.089 146.144C122.283 145.148 122.232 144.119 121.94 143.146C121.647 142.174 121.123 141.287 120.411 140.563" fill="white"/>
<path d="M111.91 148.484C112.685 149.349 113.715 149.946 114.851 150.189C115.914 150.431 117.025 150.348 118.04 149.95C118.911 149.595 119.682 149.032 120.286 148.312C120.891 147.591 121.311 146.734 121.51 145.815C121.755 144.511 121.594 143.163 121.05 141.953C120.666 141.1 120.308 140.623 120.41 140.529C120.512 140.435 121.016 140.742 121.638 141.612C122.52 142.895 122.908 144.455 122.729 146.003C122.572 147.178 122.117 148.293 121.406 149.243C120.696 150.192 119.754 150.943 118.671 151.425C117.311 152.025 115.795 152.176 114.343 151.857C112.891 151.538 111.579 150.764 110.596 149.649C109.613 148.534 109.01 147.135 108.876 145.655C108.741 144.175 109.081 142.69 109.846 141.416C110.496 140.322 111.422 139.419 112.532 138.798C113.704 138.175 115.036 137.918 116.356 138.061C117.675 138.204 118.921 138.74 119.933 139.599C120.734 140.316 120.956 140.887 120.871 140.947C120.785 141.006 120.368 140.631 119.532 140.154C118.383 139.481 117.058 139.169 115.729 139.258C114.853 139.319 114.005 139.591 113.257 140.051C112.412 140.592 111.717 141.337 111.236 142.217C110.679 143.199 110.445 144.332 110.566 145.454C110.687 146.577 111.157 147.634 111.91 148.475V148.484Z" fill="#492298"/>
<path d="M146.236 136.888C147.59 136.13 149.146 135.809 150.689 135.971C152.233 136.133 153.688 136.769 154.856 137.792C155.99 138.853 156.817 140.2 157.249 141.692C157.681 143.183 157.703 144.764 157.311 146.267C156.891 147.761 156.135 149.139 155.101 150.296C154.066 151.453 152.781 152.359 151.343 152.943C148.853 153.975 145.741 153.975 143.669 152.235C142.367 151.02 141.54 149.383 141.333 147.614C141.021 145.353 141.38 143.051 142.365 140.992C143.35 138.934 144.919 137.21 146.875 136.035" fill="white"/>
<path d="M152.094 153.566C150.254 154.447 148.18 154.713 146.177 154.325C145.215 154.129 144.309 153.722 143.524 153.132C142.739 152.542 142.096 151.784 141.641 150.914C140.861 149.415 140.474 147.743 140.516 146.054C140.539 144.621 140.828 143.204 141.368 141.876C142.101 139.961 143.342 138.28 144.958 137.016C146.1 136.164 146.868 135.917 146.919 136.002C146.97 136.087 146.348 136.556 145.401 137.519C144.088 138.87 143.102 140.503 142.519 142.294C142.125 143.504 141.94 144.773 141.974 146.046C142 147.474 142.371 148.876 143.057 150.13C143.421 150.773 143.921 151.329 144.522 151.76C145.122 152.192 145.809 152.488 146.535 152.628C148.18 152.906 149.871 152.671 151.378 151.954C152.867 151.293 154.154 150.247 155.105 148.924C156.057 147.601 156.639 146.048 156.792 144.426C156.862 143.003 156.568 141.586 155.94 140.308C155.396 139.195 154.57 138.246 153.544 137.554C151.993 136.548 150.131 136.136 148.3 136.394C146.987 136.59 146.305 136.982 146.237 136.854C146.169 136.727 146.748 136.164 148.147 135.738C149.154 135.453 150.209 135.375 151.247 135.507C152.286 135.638 153.287 135.978 154.192 136.505C155.465 137.255 156.511 138.337 157.219 139.634C158.023 141.125 158.423 142.8 158.378 144.494C158.262 146.437 157.615 148.31 156.507 149.91C155.398 151.51 153.872 152.774 152.094 153.566Z" fill="#492298"/>
<path d="M152.256 137.673C152.878 135.364 154.289 133.346 156.243 131.969C158.198 130.593 160.573 129.944 162.956 130.136C165.327 130.447 167.533 131.519 169.241 133.192C170.95 134.865 172.068 137.048 172.429 139.412C172.687 141.789 172.225 144.189 171.103 146.301C169.981 148.412 168.251 150.138 166.137 151.255C164.236 152.307 162.019 152.634 159.895 152.176C156.937 151.417 154.78 148.765 153.722 145.901C152.665 143.036 152.631 139.932 152.58 136.863" fill="white"/>
<path d="M172.675 144.911C170.97 149.635 166.656 152.986 162.214 153.19C161.126 153.254 160.038 153.091 159.016 152.713C158.065 152.349 157.185 151.821 156.416 151.153C155.094 149.965 154.07 148.485 153.423 146.83C152.586 144.494 152.21 142.019 152.315 139.54C152.315 137.835 152.46 136.871 152.579 136.871C152.699 136.871 152.818 137.818 152.988 139.506C153.151 141.848 153.68 144.149 154.557 146.327C155.196 147.754 156.149 149.019 157.345 150.027C158.676 151.147 160.394 151.701 162.128 151.57C165.812 151.34 169.597 148.407 171.038 144.306C171.769 142.337 171.853 140.187 171.277 138.167C170.719 136.281 169.64 134.591 168.165 133.29C166.847 132.096 165.229 131.283 163.484 130.937C161.954 130.653 160.377 130.77 158.906 131.278C156.715 132.026 154.827 133.465 153.526 135.379C152.673 136.769 152.4 137.707 152.255 137.664C152.11 137.622 152.17 136.65 152.937 135.038C154.136 132.788 156.103 131.042 158.479 130.118C160.143 129.458 161.952 129.249 163.723 129.513C165.758 129.838 167.663 130.724 169.222 132.071C170.963 133.547 172.244 135.491 172.914 137.673C173.616 140.048 173.532 142.587 172.675 144.911Z" fill="#492298"/>
<path d="M179.114 136.01C177.997 135.613 176.801 135.491 175.627 135.654C174.453 135.818 173.336 136.261 172.37 136.948C171.421 137.658 170.662 138.592 170.161 139.666C169.659 140.74 169.431 141.921 169.496 143.104C169.584 144.416 170.044 145.676 170.821 146.737C171.599 147.798 172.662 148.616 173.887 149.095C175.112 149.574 176.447 149.695 177.738 149.443C179.029 149.192 180.222 148.578 181.177 147.674C182.536 146.273 183.429 144.486 183.735 142.558C184.144 140.58 184.085 138.295 182.772 136.786C182.223 136.207 181.562 135.747 180.829 135.435C180.095 135.123 179.306 134.964 178.508 134.97C176.913 134.993 175.329 135.24 173.802 135.703" fill="white"/>
<path d="M177.322 148.595C178.83 148.38 180.202 147.607 181.168 146.429C182.071 145.262 182.692 143.902 182.984 142.456C183.319 141.179 183.319 139.837 182.984 138.559C182.826 138.039 182.562 137.558 182.209 137.145C181.855 136.733 181.419 136.398 180.929 136.163C179.338 135.486 177.582 135.293 175.881 135.609C174.611 135.771 173.886 135.857 173.852 135.737C173.818 135.618 174.483 135.319 175.745 134.944C176.529 134.715 177.335 134.572 178.149 134.518C179.275 134.433 180.406 134.614 181.449 135.047C182.12 135.32 182.726 135.732 183.225 136.257C183.725 136.782 184.108 137.407 184.348 138.09C184.845 139.605 184.921 141.225 184.57 142.78C184.272 144.496 183.567 146.116 182.515 147.503C181.291 149.027 179.537 150.032 177.604 150.317C175.666 150.633 173.682 150.184 172.07 149.064C170.601 148.026 169.523 146.525 169.009 144.801C168.567 143.235 168.647 141.567 169.239 140.051C169.733 138.753 170.57 137.612 171.661 136.752C172.437 136.15 173.326 135.711 174.275 135.459C175.224 135.207 176.214 135.148 177.186 135.285C178.542 135.49 179.164 135.942 179.13 136.027C179.096 136.112 178.388 135.95 177.143 135.959C175.427 135.95 173.764 136.555 172.454 137.664C171.599 138.436 170.961 139.417 170.604 140.512C170.174 141.737 170.156 143.069 170.552 144.306C170.994 145.663 171.869 146.837 173.042 147.648C174.297 148.495 175.827 148.834 177.322 148.595Z" fill="#492298"/>
<path d="M187.844 138.372C186.977 138.056 186.046 137.955 185.131 138.078C184.216 138.201 183.344 138.545 182.592 139.08C181.991 139.596 181.539 140.263 181.284 141.013C181.029 141.763 180.98 142.568 181.142 143.343C181.326 144.117 181.694 144.835 182.215 145.437C182.736 146.038 183.395 146.504 184.135 146.796C184.878 147.076 185.673 147.194 186.465 147.143C187.258 147.091 188.03 146.871 188.731 146.498C189.437 146.211 190.044 145.722 190.475 145.093C190.906 144.464 191.142 143.723 191.155 142.96C191.168 142.198 190.956 141.449 190.546 140.806C190.136 140.163 189.547 139.654 188.85 139.344C187.525 138.667 186.073 138.278 184.587 138.202" fill="white"/>
<path d="M185.731 146.293C186.63 146.379 187.535 146.193 188.327 145.758C189.12 145.323 189.763 144.66 190.173 143.854C190.829 142.422 189.908 140.887 188.86 140.094C187.946 139.457 186.923 138.991 185.841 138.721C185.048 138.491 184.597 138.338 184.605 138.218C184.614 138.099 185.091 138.022 185.952 138.056C187.225 138.087 188.47 138.442 189.567 139.088C190.368 139.58 191.021 140.278 191.46 141.109C191.729 141.618 191.887 142.179 191.922 142.754C191.957 143.328 191.87 143.904 191.665 144.443C191.165 145.605 190.308 146.578 189.218 147.222C188.128 147.866 186.862 148.146 185.603 148.024C184.291 147.935 183.047 147.406 182.073 146.523C181.174 145.69 180.574 144.585 180.368 143.377C180.19 142.359 180.335 141.311 180.781 140.378C181.227 139.446 181.953 138.676 182.857 138.176C184.029 137.591 185.373 137.445 186.643 137.766C187.495 137.98 187.913 138.27 187.879 138.372C187.845 138.474 187.368 138.432 186.566 138.44C185.479 138.399 184.404 138.675 183.471 139.233C182.898 139.619 182.45 140.164 182.184 140.802C181.873 141.521 181.789 142.319 181.945 143.087C182.163 143.949 182.645 144.722 183.323 145.297C184.002 145.872 184.844 146.22 185.731 146.293Z" fill="#492298"/>
<path d="M158.317 147.725C157.364 145.952 155.813 144.573 153.94 143.834C152.068 143.094 149.994 143.041 148.086 143.684C146.225 144.418 144.672 145.768 143.686 147.509C142.701 149.25 142.343 151.277 142.672 153.25C143.107 155.2 144.183 156.947 145.729 158.211C147.275 159.476 149.201 160.185 151.198 160.225C153.2 160.159 155.124 159.436 156.674 158.168C158.224 156.9 159.314 155.157 159.775 153.208C160.304 150.709 159.588 147.819 157.507 146.335" fill="white"/>
<path d="M144.982 156.166C146.013 157.509 147.429 158.505 149.041 159.022C150.526 159.521 152.134 159.521 153.619 159.022C154.904 158.598 156.072 157.878 157.027 156.92C157.982 155.961 158.699 154.792 159.119 153.506C159.685 151.729 159.545 149.802 158.727 148.126C158.121 146.94 157.465 146.471 157.559 146.361C157.652 146.25 158.411 146.557 159.264 147.767C159.849 148.65 160.24 149.647 160.412 150.692C160.584 151.737 160.533 152.806 160.261 153.83C159.859 155.366 159.087 156.781 158.013 157.95C156.938 159.12 155.594 160.009 154.097 160.54C152.293 161.201 150.321 161.249 148.487 160.676C146.531 160.076 144.809 158.885 143.559 157.266C142.277 155.634 141.613 153.601 141.683 151.528C141.767 149.626 142.414 147.792 143.541 146.258C144.546 144.859 145.935 143.781 147.54 143.155C148.933 142.632 150.44 142.49 151.906 142.746C153.99 143.079 155.886 144.146 157.252 145.755C158.155 146.915 158.334 147.725 158.249 147.759C158.164 147.793 157.738 147.137 156.757 146.216C155.365 144.956 153.61 144.168 151.744 143.965C150.497 143.825 149.234 144.007 148.077 144.493C146.771 145.07 145.653 146.004 144.855 147.188C143.948 148.477 143.438 150.003 143.388 151.579C143.374 153.246 143.937 154.867 144.982 156.166Z" fill="#492298"/>
</g>
<g clip-path="url(#clip3_1448_9135)">
<path d="M54.082 206.245C55.3449 202.231 56.9717 198.341 58.942 194.623C59.7214 193.065 60.8507 191.708 62.2416 190.659C62.941 190.143 63.7642 189.821 64.6281 189.725C65.4919 189.629 66.3658 189.763 67.1612 190.113C68.9347 191.034 69.7191 193.251 69.4974 195.229C69.1668 197.198 68.4481 199.082 67.3829 200.771L58.7714 216.613L54.4657 224.559L52.3086 228.532C51.8823 229.317 50.177 231.516 50.4072 232.369C50.4806 232.546 50.5971 232.702 50.7459 232.822C50.8948 232.943 51.0715 233.025 51.2598 233.06C52.3 233.23 53.0759 231.576 53.6727 230.92C54.5515 229.92 55.5478 229.029 56.6399 228.268C57.5848 227.572 58.6709 227.093 59.8215 226.863C60.9722 226.633 62.1592 226.659 63.2989 226.938C65.5327 227.628 67.3062 229.99 66.8117 232.284C66.3598 234.373 64.3646 235.694 62.5485 236.786C54.5867 241.466 46.372 245.701 37.9419 249.473C34.1818 251.178 30.2683 252.772 26.116 252.764C17.9735 252.764 10.8285 245.866 9.06359 237.92C8.62843 235.962 8.45639 233.955 8.55202 231.951C8.81633 226.332 11.1525 221.788 13.7359 216.937C16.4388 211.821 18.8517 206.611 21.2987 201.41C22.2877 199.338 23.3194 197.198 25.0503 195.681C26.7811 194.163 29.4157 193.438 31.4193 194.555C33.2951 195.595 34.1136 197.966 33.9772 200.106C33.6594 202.233 32.942 204.282 31.8627 206.142L25.8943 218.079" fill="#492298"/>
<path d="M22.9775 216.646C23.2077 216.126 23.4465 215.606 23.6767 215.094C25.4899 211.115 27.4367 207.222 29.5171 203.413C31.2224 200.301 32.9276 196.004 36.5854 194.768C37.5606 194.409 38.6251 194.37 39.6235 194.659C40.622 194.947 41.5022 195.547 42.1359 196.371C42.4995 196.993 42.7317 197.683 42.8182 198.399C42.9047 199.115 42.8437 199.84 42.639 200.531C42.2164 201.905 41.6052 203.214 40.8229 204.419L35.5111 213.517" fill="#E8DFFA"/>
<path d="M35.8441 194.128C36.776 193.729 37.7934 193.571 38.8023 193.67C39.8113 193.768 40.7791 194.119 41.6163 194.691C42.4253 195.28 43.0232 196.114 43.3216 197.07C43.5998 197.942 43.6756 198.867 43.5433 199.773C43.2772 201.315 42.6968 202.787 41.838 204.095C41.1133 205.255 40.4397 206.346 39.8258 207.344C37.3362 211.292 35.6906 213.67 35.486 213.551C35.2814 213.432 36.5432 210.823 38.7601 206.73L40.5847 203.388C41.2956 202.228 41.768 200.938 41.9745 199.594C42.0917 198.943 42.0271 198.272 41.7879 197.655C41.5488 197.038 41.1442 196.5 40.6188 196.098C40.0107 195.708 39.3154 195.475 38.5952 195.42C37.875 195.365 37.1523 195.489 36.4921 195.782C35.0691 196.458 33.8683 197.526 33.0304 198.86C32.1687 200.183 31.3803 201.552 30.6687 202.961C29.151 205.673 27.8209 208.077 26.721 210.132C24.5213 214.225 23.1827 216.791 22.9524 216.689C22.7222 216.586 23.6857 213.849 25.6212 209.586C26.5761 207.455 27.8294 204.931 29.2448 202.22C29.9506 200.732 30.7449 199.289 31.6236 197.897C32.6303 196.254 34.0981 194.943 35.8441 194.128Z" fill="#492298"/>
<path d="M37.2324 210.559C39.4066 206.696 39.2446 207.242 41.4188 203.38C42.9194 200.702 43.8232 196.797 47.4468 196.857C48.4505 196.898 49.4199 197.234 50.2341 197.822C51.0483 198.41 51.6713 199.225 52.0254 200.165C52.878 202.672 51.6929 205.392 50.4907 207.771L45.1704 218.335" fill="#E8DFFA"/>
<path d="M51.6422 197.897C52.2439 198.538 52.6851 199.312 52.9296 200.156C53.1609 200.956 53.239 201.792 53.1599 202.621C52.9713 204.069 52.5328 205.474 51.8639 206.773C50.6702 209.16 49.5447 211.172 48.5898 212.912C46.6799 216.322 45.3839 218.445 45.1793 218.334C44.9747 218.223 45.8699 215.956 47.4984 212.366C48.3511 210.593 49.3145 208.47 50.4144 206.116C50.963 204.972 51.3174 203.745 51.4631 202.484C51.536 201.871 51.4763 201.249 51.288 200.66C51.0997 200.072 50.7873 199.531 50.3718 199.074C49.966 198.623 49.4663 198.268 48.9079 198.032C48.3494 197.796 47.746 197.686 47.1403 197.709C46.5804 197.752 46.039 197.929 45.5624 198.226C45.0858 198.523 44.6881 198.931 44.4034 199.415C43.761 200.413 43.1912 201.456 42.6982 202.535C42.1525 203.61 41.5471 204.522 40.9929 205.357C38.8017 208.674 37.4375 210.661 37.2243 210.558C37.0112 210.456 37.3181 209.91 37.7785 208.853C38.239 207.796 39.0148 206.423 39.9271 204.701C40.379 203.848 40.8991 202.893 41.351 201.87C41.8234 200.688 42.3938 199.547 43.0563 198.46C43.4714 197.813 44.0069 197.251 44.6336 196.806C45.3359 196.326 46.1551 196.046 47.0039 195.996C47.8702 195.944 48.7372 196.087 49.5402 196.417C50.3433 196.746 51.0617 197.252 51.6422 197.897Z" fill="#492298"/>
<path d="M52.3666 203.337C53.6295 199.323 55.2562 195.433 57.2265 191.716C58.0117 190.163 59.1401 188.81 60.5262 187.759C61.2261 187.241 62.051 186.918 62.9166 186.822C63.7823 186.726 64.6579 186.861 65.4543 187.214C67.2193 188.126 68.0122 190.343 67.782 192.329C67.4523 194.299 66.7334 196.183 65.6675 197.872L57.0475 213.756L52.7417 221.694L50.5846 225.667C50.1583 226.46 48.4616 228.651 48.6833 229.504C48.7567 229.681 48.8731 229.837 49.022 229.957C49.1709 230.078 49.3475 230.159 49.5359 230.194C50.5761 230.374 51.352 228.711 51.9574 228.054C52.8331 227.055 53.8265 226.164 54.916 225.403C55.8609 224.707 56.947 224.227 58.0976 223.998C59.2482 223.768 60.4353 223.793 61.5749 224.073C63.8173 224.763 65.5822 227.134 65.0877 229.419C64.6358 231.507 62.6407 232.829 60.8246 233.92C52.8647 238.604 44.6497 242.839 36.218 246.607C32.4579 248.313 28.5444 249.916 24.4006 249.899C16.2495 249.899 9.1131 243.001 7.34817 235.063C6.90993 233.091 6.73787 231.069 6.83659 229.052C7.09238 223.425 9.39447 218.88 12.012 214.037C14.7234 208.922 17.1277 203.712 19.5748 198.511C20.5638 196.431 21.5955 194.248 23.3263 192.773C25.0571 191.298 27.6917 190.53 29.7039 191.647C31.5797 192.688 32.3897 195.058 32.2192 197.198C31.9719 200.199 30.1132 203.217 28.8087 205.869C27.2569 208.981 24.5882 213.543 23.0279 216.646" fill="#E8DFFA"/>
<path d="M40.9767 245.38C39.0497 246.283 37.1399 247.162 35.2044 248.006C33.2757 248.876 31.2798 249.589 29.2361 250.137C27.1556 250.691 24.9937 250.873 22.8499 250.674C20.7334 250.442 18.6812 249.805 16.8048 248.799C13.189 246.827 10.2484 243.815 8.36388 240.153C7.45193 238.393 6.79453 236.513 6.41137 234.568C6.05265 232.675 5.92951 230.745 6.04475 228.822C6.32956 225.147 7.3318 221.564 8.99482 218.275C9.75365 216.68 10.5636 215.154 11.3651 213.671C12.1666 212.187 12.9169 210.721 13.6416 209.271C15.1081 206.364 16.4553 203.516 17.7598 200.745C18.4248 199.381 19.0472 198.042 19.7123 196.729C20.3531 195.396 21.1736 194.156 22.1508 193.046C23.1274 191.941 24.3995 191.14 25.8171 190.735C26.4809 190.511 27.1837 190.426 27.8819 190.484C28.5801 190.543 29.2588 190.744 29.876 191.076C30.4931 191.408 31.0355 191.863 31.4696 192.413C31.9036 192.963 32.2201 193.596 32.3993 194.274C32.7586 195.444 32.8346 196.683 32.621 197.889C32.1766 199.944 31.4081 201.915 30.3445 203.729C29.4407 205.434 28.6392 206.926 27.8975 208.291C26.3713 210.993 25.1349 213.065 24.3164 214.481C23.9383 215.224 23.5021 215.937 23.0119 216.612C23.2611 215.814 23.5956 215.045 24.0095 214.319C24.7342 212.844 25.8682 210.712 27.3006 207.967C28.0168 206.602 28.7501 205.034 29.6112 203.354C30.5757 201.599 31.2658 199.707 31.6575 197.744C31.8233 196.692 31.7356 195.617 31.4017 194.606C31.2601 194.065 31.0071 193.56 30.6588 193.123C30.3105 192.687 29.8746 192.327 29.3792 192.069C28.8838 191.81 28.3398 191.658 27.7821 191.622C27.2245 191.586 26.6655 191.668 26.1411 191.861C24.9436 192.228 23.874 192.925 23.0546 193.873C21.3493 195.817 20.2921 198.596 18.979 201.325C17.666 204.053 16.3785 206.935 14.9376 209.851C14.2214 211.317 13.4711 212.81 12.6781 214.31C11.8852 215.811 11.1093 217.303 10.3846 218.863C8.83241 221.982 7.90279 225.373 7.64769 228.847C7.54882 230.638 7.67196 232.433 8.01431 234.193C8.57044 236.932 9.7166 239.518 11.3731 241.769C13.0296 244.02 15.1566 245.884 17.6063 247.23C19.288 248.14 21.1289 248.719 23.029 248.935C24.9733 249.11 26.9333 248.94 28.8183 248.432C30.7793 247.903 32.6952 247.218 34.5479 246.386C36.4464 245.55 38.3534 244.681 40.269 243.777C44.0888 241.975 47.8118 240.108 51.4383 238.175C53.2516 237.214 55.0392 236.234 56.8013 235.233L59.4274 233.733C60.28 233.221 61.1327 232.744 61.9256 232.198C62.6683 231.711 63.3132 231.089 63.8269 230.365C64.2663 229.712 64.4485 228.919 64.3385 228.14C64.1769 227.343 63.796 226.607 63.2386 226.015C62.6812 225.423 61.9695 224.998 61.1838 224.789C59.5094 224.423 57.7586 224.693 56.2727 225.548C55.5069 225.964 54.7916 226.468 54.1412 227.048C53.8086 227.338 53.4932 227.645 53.1777 227.961L52.7173 228.447L52.5212 228.66L52.3421 228.907C52.0776 229.305 51.793 229.689 51.4895 230.058C51.2959 230.284 51.0721 230.482 50.8244 230.646C50.5018 230.862 50.1213 230.975 49.7331 230.97C49.3471 230.961 48.9739 230.83 48.6673 230.595C48.489 230.48 48.3358 230.33 48.2171 230.154C48.0984 229.979 48.0166 229.78 47.9767 229.572C47.9468 229.363 47.9468 229.15 47.9767 228.941C48.0071 228.791 48.0469 228.643 48.0961 228.498C48.1845 228.252 48.2899 228.013 48.4115 227.782C48.8634 226.929 49.4091 226.179 49.8525 225.471C50.2958 224.763 50.7051 223.953 51.0973 223.203L55.9572 214.336L64.6369 198.451C65.302 197.232 65.9841 196.073 66.4786 194.904C66.9825 193.808 67.2414 192.615 67.2374 191.409C67.2168 190.308 66.823 189.247 66.1205 188.399C65.7895 188.024 65.3789 187.727 64.9187 187.531C64.4584 187.335 63.9602 187.244 63.4603 187.265C62.4819 187.3 61.5333 187.61 60.7234 188.16C59.9556 188.697 59.2815 189.357 58.7283 190.113C57.7505 191.5 56.8946 192.969 56.1704 194.504C54.8147 197.275 53.9706 199.526 53.3567 201.043C53.0966 201.836 52.7656 202.604 52.3677 203.337C52.5047 202.512 52.7277 201.703 53.0328 200.924C53.7564 198.64 54.6104 196.4 55.5906 194.214C56.2908 192.61 57.1325 191.072 58.1058 189.618C58.6987 188.771 59.4276 188.028 60.263 187.418C61.2059 186.74 62.3254 186.349 63.4859 186.293C64.1309 186.258 64.7757 186.366 65.3741 186.609C65.9726 186.852 66.5099 187.225 66.9475 187.7C67.8284 188.718 68.3392 190.004 68.397 191.349C68.4317 192.723 68.1639 194.088 67.6126 195.348C67.0925 196.627 66.4104 197.82 65.7709 199.04L57.2021 215.052L52.4189 223.962C51.9926 224.738 51.6174 225.471 51.1484 226.307C50.6795 227.142 50.1594 227.799 49.7842 228.523C49.6991 228.692 49.625 228.865 49.5626 229.043C49.5356 229.106 49.5156 229.172 49.5029 229.24C49.5051 229.252 49.5101 229.264 49.5175 229.274C49.5248 229.285 49.5344 229.293 49.5455 229.299C49.6222 229.35 49.7331 229.393 49.7416 229.376C49.7501 229.359 50.023 229.274 50.2702 228.984C50.5175 228.694 50.7562 228.344 51.0376 227.952L51.2763 227.645C51.3559 227.541 51.4413 227.441 51.5321 227.347L52.0266 226.827C52.3592 226.486 52.7087 226.145 53.0668 225.821C53.8128 225.162 54.6308 224.59 55.5054 224.115C57.3538 223.056 59.5316 222.728 61.6101 223.194C62.713 223.476 63.7124 224.067 64.4904 224.898C65.2684 225.729 65.7926 226.765 66.0011 227.884C66.1814 229.074 65.914 230.289 65.2508 231.294C64.6233 232.204 63.8309 232.987 62.9146 233.605C62.062 234.219 61.1582 234.713 60.2885 235.225L57.6539 236.743C55.8805 237.749 54.0815 238.741 52.2569 239.718C48.5735 241.679 44.822 243.572 40.9767 245.38Z" fill="#492298"/>
</g>
<path d="M56.8215 182.301L60.7866 176.004L61.5491 176.484L58.0099 182.105L60.9369 183.948L60.5109 184.624L56.8215 182.301ZM62.3472 185.781L61.5478 185.277L67.8249 180.436L68.612 180.932L66.959 188.685L66.1596 188.181L67.6158 181.696L67.5666 181.665L62.3472 185.781ZM64.1912 183.507L67.4133 185.536L66.9874 186.212L63.7653 184.183L64.1912 183.507ZM76.037 185.608L76.7995 186.088L74.1741 190.257C73.9031 190.687 73.5596 191.008 73.1437 191.218C72.7312 191.428 72.2802 191.515 71.7906 191.478C71.3024 191.44 70.8113 191.265 70.3174 190.954C69.8234 190.643 69.4536 190.276 69.2081 189.852C68.9638 189.426 68.846 188.981 68.8548 188.517C68.8669 188.053 69.0085 187.605 69.2795 187.175L71.9048 183.006L72.6673 183.486L70.0807 187.593C69.8871 187.901 69.7824 188.217 69.7667 188.542C69.7523 188.865 69.8268 189.174 69.9904 189.469C70.1573 189.763 70.416 190.02 70.7665 190.241C71.117 190.461 71.4609 190.584 71.7982 190.607C72.1368 190.629 72.4476 190.562 72.7305 190.408C73.0168 190.254 73.2568 190.023 73.4504 189.715L76.037 185.608ZM83.3152 190.191L79.3501 196.488L78.6122 196.023L78.2942 188.918L78.2327 188.88L75.1195 193.824L74.357 193.343L78.3221 187.047L79.06 187.511L79.3825 194.636L79.444 194.675L82.565 189.719L83.3152 190.191ZM88.6686 196.31L87.9061 195.83C87.9991 195.582 88.0415 195.34 88.0334 195.103C88.0272 194.867 87.9797 194.643 87.8908 194.429C87.8053 194.215 87.6843 194.019 87.5277 193.84C87.3712 193.661 87.1884 193.506 86.9793 193.374C86.5981 193.134 86.1921 193.013 85.7612 193.011C85.3324 193.01 84.9087 193.139 84.4901 193.4C84.0735 193.661 83.6936 194.065 83.3503 194.61C83.0069 195.155 82.8073 195.672 82.7515 196.161C82.6977 196.651 82.7639 197.089 82.95 197.475C83.1382 197.863 83.4229 198.176 83.8042 198.416C84.0132 198.548 84.2322 198.646 84.461 198.71C84.6898 198.774 84.9186 198.799 85.1474 198.786C85.3796 198.772 85.6033 198.716 85.8185 198.62C86.0371 198.523 86.2373 198.38 86.4192 198.191L87.1817 198.671C86.9217 198.957 86.6358 199.179 86.324 199.338C86.0123 199.496 85.6876 199.594 85.3498 199.63C85.0134 199.665 84.6757 199.639 84.3368 199.555C83.9999 199.471 83.6727 199.33 83.355 199.13C82.818 198.792 82.423 198.36 82.1701 197.834C81.9171 197.308 81.8231 196.728 81.8879 196.093C81.9527 195.459 82.1942 194.809 82.6124 194.145C83.0306 193.481 83.5119 192.983 84.0563 192.65C84.6007 192.317 85.1646 192.151 85.748 192.152C86.3313 192.153 86.8915 192.323 87.4285 192.661C87.7462 192.861 88.0154 193.095 88.2361 193.363C88.4588 193.632 88.6267 193.926 88.7399 194.247C88.8544 194.565 88.9074 194.899 88.899 195.249C88.892 195.596 88.8151 195.95 88.6686 196.31ZM87.1747 201.415L91.1398 195.118L91.9023 195.598L90.1366 198.402L93.494 200.517L95.2597 197.713L96.0221 198.193L92.057 204.489L91.2946 204.009L93.068 201.193L89.7106 199.079L87.9372 201.895L87.1747 201.415Z" fill="white"/>
<defs>
<linearGradient id="paint0_linear_1448_9135" x1="138.654" y1="38.0002" x2="160.654" y2="86.5002" gradientUnits="userSpaceOnUse">
<stop stop-color="#FF7063"/>
<stop offset="0.514443" stop-color="#E249A7"/>
<stop offset="1" stop-color="#A13FEF"/>
</linearGradient>
<linearGradient id="paint1_linear_1448_9135" x1="166.756" y1="54.2522" x2="166.756" y2="107.328" gradientUnits="userSpaceOnUse">
<stop stop-color="#8859E9"/>
<stop offset="1" stop-color="#221145"/>
</linearGradient>
<linearGradient id="paint2_linear_1448_9135" x1="134.624" y1="54.8152" x2="134.624" y2="108.309" gradientUnits="userSpaceOnUse">
<stop stop-color="#8859E9"/>
<stop offset="1" stop-color="#221145"/>
</linearGradient>
<clipPath id="clip0_1448_9135">
<rect width="53.8601" height="152.057" fill="white" transform="translate(122.423)"/>
</clipPath>
<clipPath id="clip1_1448_9135">
<rect width="29.8418" height="65.6519" fill="white" transform="translate(136.064 83.5566)"/>
</clipPath>
<clipPath id="clip2_1448_9135">
<rect width="99.4839" height="53.6384" fill="white" transform="translate(102.812 115.957)"/>
</clipPath>
<clipPath id="clip3_1448_9135">
<rect width="67.306" height="67.7152" fill="white" transform="translate(5.96777 186.285)"/>
</clipPath>
</defs>
</svg>
