<svg width="261" height="239" viewBox="0 0 261 239" fill="none" xmlns="http://www.w3.org/2000/svg">
<g clip-path="url(#clip0_1551_9144)">
<path d="M108.267 18.4124C109.66 17.1294 110.569 15.4064 110.84 13.5331C111.017 12.2365 110.887 10.9093 111.056 9.60511C111.593 5.42397 115.219 2.15578 119.23 0.820881C122.842 -0.364817 126.753 -0.27544 130.308 1.07405C133.718 2.37826 136.699 4.81023 140.295 5.54672C145.718 6.65913 152.225 3.87427 156.427 7.48002C157.91 8.76121 158.732 10.6178 159.677 12.3363C162.197 16.9428 165.775 20.8867 170.117 23.844C174.404 26.7516 179.475 28.7309 182.793 32.6973C185.021 35.3671 186.266 38.7273 187.142 42.0952C187.494 43.9274 188.107 45.6996 188.962 47.3581C189.999 49.0843 191.689 50.4729 192.173 52.4215C192.98 55.6897 190.168 58.559 188.332 61.4052C185.513 65.7244 184.775 71.0487 184.414 76.1965C184.053 81.3442 183.984 86.5994 182.279 91.4634C180.573 96.3273 176.816 100.854 171.746 101.843C166.553 102.848 161.498 100.033 156.573 98.1072C152.166 96.3831 147.526 95.3255 142.807 94.9694C137.936 94.6011 132.82 94.9694 128.425 92.7752C124.4 90.7882 121.642 86.9907 119.037 83.3312C115.965 79.035 112.892 74.6544 111.263 69.637C108.682 61.6353 110.126 52.9892 110.495 44.5886C110.91 35.5042 110.049 26.4066 107.937 17.5608" fill="#8859E9"/>
<path d="M260.908 237.918C260.794 238.305 260.617 238.67 260.386 239H34.9932C35.1098 235.523 35.6253 232.071 36.5296 228.712C38.8343 219.966 43.3285 211.681 47.7382 203.679L51.8175 196.291L57.5716 185.873L58.5165 184.162L59.0927 183.119C60.1989 181.124 61.3359 179.114 62.5267 177.15C65.7072 171.956 69.3486 167.092 74.2807 163.601C84.2677 156.505 97.5121 156.413 109.189 152.638C123.233 148.089 135.309 138.062 149.767 135.239C159.939 133.244 170.441 134.963 180.666 136.681L186.965 137.747L186.719 138.745C198.604 146.417 212.478 150.322 225.131 156.643C237.784 162.965 249.93 172.854 253.164 186.602C254.631 192.862 254.117 199.383 254.34 205.781C254.67 215.321 256.632 224.735 260.14 233.614C260.677 234.995 261.269 236.491 260.908 237.918Z" fill="#8954F6"/>
<path d="M165.646 50.4345L165.708 61.4052C172.177 64.6051 178.829 67.4229 185.628 69.8442C186.158 67.9686 186.396 66.0229 186.335 64.075C186.342 63.8102 186.286 63.5476 186.174 63.3078C185.989 63.048 185.737 62.8436 185.444 62.7171C178.673 59.0086 172.139 54.8861 165.877 50.3732" fill="#FFEFF0"/>
<path d="M119.552 161.461C125.183 163.187 129.816 164.53 129.724 164.86C129.685 165.013 128.487 164.86 126.574 164.476C124.085 163.97 121.623 163.337 119.199 162.581C116.762 161.838 114.386 160.907 112.093 159.796C110.341 158.914 109.342 158.223 109.412 158.085C109.481 157.947 110.61 158.362 112.423 159.029C114.236 159.696 116.71 160.586 119.552 161.461Z" fill="#231F20"/>
<path d="M159.985 158.569C162.159 157.802 164.241 157.096 166.131 156.459C167.815 155.849 169.544 155.37 171.301 155.024C172.508 154.799 173.743 154.773 174.958 154.948C175.819 155.101 176.249 155.308 176.233 155.377C176.233 155.569 174.351 155.116 171.47 155.838C169.782 156.292 168.12 156.84 166.492 157.479C164.618 158.17 162.551 158.914 160.346 159.681C155.998 161.216 152.042 162.527 149.161 163.433C146.28 164.338 144.459 164.814 144.406 164.66C144.352 164.507 146.065 163.747 148.884 162.65C151.704 161.553 155.66 160.103 159.985 158.569Z" fill="#231F20"/>
<path d="M78.4676 176.429C77.9748 179.6 77.7027 182.802 77.6533 186.011C77.5842 188.489 77.5304 190.031 77.3614 190.039C77.1924 190.046 76.9619 188.504 76.8236 186.018C76.626 182.748 76.7883 179.465 77.3076 176.229C77.8293 172.964 78.9491 169.822 80.611 166.962C81.9247 164.783 83.1001 163.717 83.2077 163.809C83.3152 163.901 82.4394 165.159 81.3409 167.361C79.954 170.231 78.9864 173.284 78.4676 176.429Z" fill="#C1A9FF"/>
<path d="M71.2921 186.617C72.89 189.594 73.9501 192.125 73.6659 192.279C73.3817 192.432 71.8529 190.146 70.2549 187.177C68.657 184.208 67.5892 181.676 67.8811 181.515C68.173 181.354 69.6941 183.663 71.2921 186.617Z" fill="#C1A9FF"/>
<path d="M73.3742 222.383C73.4774 223.659 73.5107 224.939 73.4741 226.219C73.4123 227.275 73.2762 228.327 73.0669 229.364C72.7058 231.129 72.3524 232.18 72.1988 232.149C72.0452 232.118 72.099 231.014 72.2449 229.257C72.3064 228.375 72.3832 227.331 72.3909 226.188C72.3985 225.045 72.2833 223.779 72.1988 222.421C72.0245 220.072 72.1744 217.71 72.6444 215.402C72.9978 213.645 73.3358 212.586 73.4895 212.609C73.6431 212.632 73.6124 213.744 73.4895 215.509C73.26 217.793 73.2215 220.092 73.3742 222.383Z" fill="#C1A9FF"/>
<path d="M151.719 225.475C159.969 221.186 166.53 217.442 166.707 217.734C166.784 217.864 165.247 218.984 162.658 220.611C160.069 222.237 156.405 224.362 152.256 226.518C148.108 228.674 144.274 230.454 141.455 231.65C138.636 232.847 136.846 233.461 136.776 233.315C136.638 233.008 143.468 229.778 151.719 225.475Z" fill="#C1A9FF"/>
<path d="M158.172 229.571C160.085 228.858 161.591 228.114 161.783 228.382C161.975 228.651 160.654 229.917 158.579 230.684C156.505 231.451 154.684 231.374 154.661 231.067C154.638 230.76 156.259 230.292 158.172 229.571Z" fill="#C1A9FF"/>
<path d="M210.973 182.482C208.607 190.775 206.54 197.503 206.21 197.403C206.056 197.365 206.379 195.631 207.032 192.869C207.685 190.107 208.622 186.31 209.851 182.129C210.848 178.526 212.304 175.065 214.184 171.833C215.682 169.371 216.996 168.135 217.096 168.227C217.195 168.32 216.181 169.762 214.906 172.24C213.282 175.525 211.965 178.954 210.973 182.482Z" fill="#C1A9FF"/>
<path d="M204.189 219.276C203.944 226.142 203.483 231.696 203.16 231.681C202.837 231.666 202.768 226.096 203.014 219.23C203.122 215.8 203.398 212.701 203.329 210.499C203.26 208.297 202.922 206.947 203.091 206.893C203.26 206.84 203.859 208.144 204.159 210.438C204.369 213.38 204.379 216.332 204.189 219.276Z" fill="#C1A9FF"/>
<path d="M87.8886 197.319C88.0576 199.252 86.4597 200.856 84.8848 201.991C81.239 204.601 77.0275 206.315 72.5931 206.993C69.0976 207.522 65.387 207.43 62.268 209.08C56.7213 212.01 54.8853 219.375 49.6152 222.774C46.0736 225.075 41.057 225.566 38.568 228.704C38.2946 229.044 38.0577 229.412 37.8612 229.801C36.5552 232.394 37.2466 235.532 36.5629 238.355C36.5091 238.57 36.4476 238.785 36.3785 238.992H2C2.09987 238.493 2 238.5 2.5 238L2.71445 237.527C13.7463 220.695 25.0931 203.004 27.0521 182.965C27.3671 179.697 27.5669 176.06 29.8792 173.759C30.6615 172.974 31.6323 172.403 32.6987 172.099C33.7652 171.796 34.8917 171.771 35.9707 172.026C37.0496 172.282 38.0449 172.81 38.8614 173.559C39.6779 174.308 40.2884 175.254 40.6345 176.306C40.6944 176.233 40.7585 176.164 40.8266 176.099C42.3108 174.414 44.2804 173.23 46.4654 172.708C46.7166 172.705 46.964 172.646 47.1893 172.535C47.4145 172.424 47.612 172.264 47.7669 172.067C47.9218 171.869 48.0303 171.64 48.0843 171.395C48.1382 171.15 48.1363 170.896 48.0787 170.652C48.2477 168.128 49.546 165.281 52.0505 164.829C53.0898 164.699 54.1445 164.875 55.085 165.335C57.9198 166.57 60.0171 169.056 61.6688 171.672C64.2451 175.733 66.0039 180.257 66.8467 184.99C67.0059 185.529 66.9622 186.108 66.7238 186.617C66.0016 187.783 64.1963 186.947 63.2206 185.98C62.4983 185.434 61.8945 184.748 61.446 183.962C61.3099 183.677 61.1894 183.385 61.0849 183.088C60.8709 182.449 60.5711 181.843 60.1938 181.285C60.2888 182.525 60.1772 183.772 59.8634 184.975C59.7712 185.266 59.6637 185.55 59.5638 185.842C59.4639 186.133 59.4409 186.187 59.3871 186.363C58.2885 190.046 59.5331 194.273 60.4857 197.871C60.5537 198.294 60.7556 198.684 61.0619 198.984C61.3723 199.188 61.7348 199.3 62.1067 199.306C65.0797 199.651 68.2525 199.95 70.8876 198.485C72.4855 197.603 73.6763 196.145 75.159 195.079C76.4267 194.178 77.8805 193.573 79.4134 193.307C80.9463 193.042 82.5193 193.123 84.0167 193.544C85.8682 194.097 87.7503 195.424 87.8886 197.319Z" fill="#C1A9FF"/>
<path d="M43.8 189.977C44.0515 190.075 44.3079 190.159 44.5682 190.23H44.7218C44.7954 190.064 44.8271 189.882 44.814 189.701V188.857C44.7995 187.785 44.7277 186.715 44.5989 185.65C44.4061 183.854 43.972 182.091 43.3083 180.41C42.1482 177.541 40.6271 176.206 40.7885 176.06C40.9498 175.915 41.2725 176.275 41.9024 176.92C42.7907 177.847 43.5224 178.912 44.0688 180.073C44.8781 181.791 45.4196 183.623 45.6744 185.504C45.8412 186.607 45.9387 187.719 45.9664 188.834C45.9664 189.118 45.9664 189.409 45.9664 189.709C45.9833 190.113 45.8876 190.514 45.6898 190.867C45.5323 191.116 45.2846 191.295 44.9984 191.366C44.7587 191.424 44.5083 191.424 44.2686 191.366C43.9564 191.285 43.6487 191.187 43.3467 191.074C41.1829 190.123 39.3034 188.626 37.8922 186.732C36.7384 185.263 35.6737 183.725 34.7041 182.129C33.0139 179.459 32.0383 177.756 32.1689 177.664C32.2995 177.572 33.5286 179.106 35.3878 181.669C36.325 182.942 37.3929 184.484 38.7219 186.042C40.068 187.747 41.8113 189.098 43.8 189.977Z" fill="#492298"/>
<path d="M51.8741 189.801C51.6016 187.731 51.1256 185.693 50.4529 183.717C49.8348 182.112 49.063 180.571 48.1482 179.114C47.5389 178.1 46.9874 177.052 46.4965 175.976C46.1738 175.209 46.0663 174.741 46.1354 174.71C46.2045 174.679 46.4581 175.071 46.9036 175.761C47.3492 176.452 48.0176 177.441 48.855 178.669C49.8887 180.1 50.7548 181.644 51.4362 183.272C52.1915 185.305 52.7071 187.419 52.9727 189.57C53.134 190.706 53.2877 191.78 53.3722 192.892C53.5082 194.029 53.3023 195.18 52.7806 196.199C52.5214 196.687 52.1436 197.102 51.6818 197.406C51.2201 197.711 50.6892 197.894 50.1379 197.94C49.624 197.952 49.1175 197.816 48.6783 197.549C48.3064 197.324 47.9742 197.038 47.6949 196.705C46.9272 195.75 46.3697 194.645 46.0586 193.46C45.8435 192.632 45.8512 192.156 45.9203 192.148C45.9894 192.141 46.1585 192.563 46.4888 193.307C46.9405 194.344 47.5551 195.302 48.3095 196.145C48.5245 196.44 48.8154 196.671 49.1513 196.814C49.4872 196.956 49.8556 197.006 50.2173 196.956C50.579 196.906 50.9204 196.76 51.2054 196.532C51.4904 196.304 51.7082 196.004 51.8357 195.662C52.7038 194.25 52.1353 192.018 51.8741 189.801Z" fill="#492298"/>
<path d="M55.7456 196.529C56.0635 196.612 56.387 196.674 56.7135 196.713C56.9479 196.747 57.186 196.747 57.4203 196.713C57.5625 196.703 57.7011 196.664 57.8275 196.598C57.9273 196.544 58.0042 196.467 58.0887 196.475C58.1732 196.483 58.2654 196.567 58.25 196.782C58.2268 196.926 58.1711 197.063 58.0873 197.183C58.0035 197.302 57.8937 197.401 57.766 197.472C57.4443 197.67 57.0757 197.779 56.6982 197.787C56.2795 197.809 55.8599 197.767 55.4536 197.664C54.7291 197.479 54.0665 197.106 53.533 196.582C53.1412 196.176 53.0106 195.815 53.1182 195.716C53.3487 195.485 54.3935 196.184 55.7456 196.529Z" fill="#492298"/>
<path d="M37.9459 203.61C37.9576 204.793 37.7438 205.967 37.3159 207.07C36.9411 207.949 36.439 208.769 35.8255 209.502C34.8038 210.722 34.0432 211.328 33.928 211.236C33.8128 211.144 34.3352 210.307 35.1495 209.019C35.6136 208.294 35.9998 207.523 36.3018 206.717C36.6199 205.725 36.778 204.69 36.7705 203.648C36.7705 202.505 36.6783 201.4 36.6091 200.372C36.54 199.344 36.4862 198.424 36.4555 197.649C36.4094 196.115 36.4555 195.125 36.6168 195.11C36.7781 195.094 37.024 196.03 37.2852 197.565C37.4158 198.332 37.554 199.245 37.6846 200.265C37.8501 201.373 37.9374 202.49 37.9459 203.61Z" fill="#492298"/>
<path d="M51.7972 174.457C52.1451 174.712 52.4554 175.014 52.7191 175.355C52.9301 175.644 53.0863 175.969 53.1801 176.314C53.3337 176.874 53.3107 177.234 53.1801 177.296C53.0495 177.357 52.7729 177.089 52.4118 176.682C52.0361 176.18 51.5791 175.745 51.0597 175.393C50.4067 174.894 49.869 174.434 49.4772 174.089C49.0854 173.744 48.8395 173.506 48.901 173.322C48.9624 173.138 49.3389 173.145 49.892 173.322C50.5829 173.598 51.2258 173.981 51.7972 174.457Z" fill="#492298"/>
<path d="M55.677 175.9C56.6419 177.3 57.4169 178.822 57.9817 180.426C58.3888 181.669 58.4196 182.49 58.2736 182.528C58.1276 182.566 57.7896 181.845 57.2134 180.74C56.4563 179.298 55.6229 177.898 54.7167 176.544C53.6565 174.948 52.6885 173.475 52.0279 172.401C51.3672 171.327 50.8601 170.744 50.9754 170.621C51.0906 170.499 51.8051 170.921 52.6809 171.895C53.7687 173.161 54.7697 174.499 55.677 175.9Z" fill="#492298"/>
<path d="M103.919 71.0564C113.523 60.4579 126.868 53.9901 141.148 53.0123C145.043 52.7668 149.06 52.9586 152.671 54.4776C154.93 55.4521 156.945 56.9135 158.572 58.7571C160.199 60.6008 161.398 62.7809 162.082 65.1414C162.674 67.2358 162.85 69.4683 163.795 71.4323C164.133 72.1909 164.63 72.8679 165.253 73.4173C165.876 73.9667 166.61 74.3756 167.406 74.6161C169.488 75.0994 169.949 72.6675 170.387 71.0871C170.864 68.9287 171.834 66.9096 173.221 65.1874C175.78 62.3412 180.466 61.9729 182.625 65.4866C183.808 67.4199 183.969 69.7982 183.908 72.0691C183.731 78.5441 181.649 85.4564 176.394 89.2462C174.481 90.6272 171.785 91.4941 169.81 90.1592L168.589 108.978C168.22 114.77 167.928 120.962 170.894 125.964C175.349 133.566 185.329 135.584 192.266 141.023C192.857 141.484 193.487 142.159 193.265 142.88C193.06 143.318 192.702 143.667 192.258 143.862C189.9 145.235 187.318 146.279 184.998 147.567C182.678 148.856 180.996 151.718 179.536 153.966C171.908 165.742 163.165 177.173 151.503 184.99C148.514 187.097 145.211 188.72 141.716 189.801C140.675 190.145 139.576 190.283 138.482 190.207C137.346 190.02 136.251 189.644 135.24 189.095C127.558 185.451 119.468 181.423 115.097 174.15C113.207 171.005 112.154 167.437 111.11 163.924C110.434 161.622 109.842 159.321 109.081 157.019C108.551 155.485 107.092 153.95 107.322 152.224C107.414 151.597 107.678 151.006 108.085 150.519C108.492 150.032 109.025 149.666 109.627 149.462C110.341 149.24 111.117 149.263 111.832 149.033C112.987 148.535 113.953 147.684 114.59 146.601C116.818 143.454 118.386 139.889 119.199 136.121C119.673 133.602 119.979 131.055 120.113 128.495L120.951 117.394C121.089 115.591 121.181 113.627 120.136 112.147C118.354 109.615 114.513 109.999 111.732 108.633C108.951 107.267 107.499 104.352 106.784 101.437C105.478 96.1662 106.247 90.6348 105.916 85.2185C105.517 78.7128 103.566 71.9616 105.832 65.8472" fill="#C1A9FF"/>
<path d="M116.372 74.8846C117.586 76.5033 118.93 77.7001 118.723 77.9533C118.515 78.2065 116.84 77.4393 115.411 75.5444C114.771 74.7099 114.46 73.6699 114.536 72.6214C114.628 71.8082 114.997 71.4169 115.127 71.4783C115.258 71.5397 115.242 71.977 115.365 72.6061C115.523 73.4321 115.867 74.2113 116.372 74.8846Z" fill="#231F20"/>
<path d="M125.698 73.4346C127.235 73.9333 128.649 74.1174 128.664 74.455C128.679 74.7925 127.127 75.1147 125.345 74.5547C123.563 73.9947 122.464 72.8516 122.664 72.6061C122.864 72.3606 124.085 72.959 125.698 73.4346Z" fill="#231F20"/>
<path d="M135.978 86.9063C138.075 84.996 140.004 83.1778 141.356 81.9426C141.868 81.4835 142.247 80.8952 142.454 80.2395C142.569 79.7868 142.454 79.4723 142.569 79.4723C142.685 79.4723 142.892 79.6948 142.907 80.3008C142.861 81.1184 142.536 81.8955 141.986 82.5027C140.351 84.3664 138.609 86.1339 136.769 87.7962C134.941 89.4858 132.928 90.9655 130.769 92.2075C129.095 93.1358 127.95 93.481 127.888 93.3506C127.827 93.2202 128.81 92.5834 130.331 91.5017C132.303 90.0823 134.188 88.5478 135.978 86.9063Z" fill="#492298"/>
<path d="M152.687 104.82C155.313 103.601 157.75 102.012 159.923 100.102C161.658 98.5447 162.92 96.5325 163.565 94.2943C163.928 92.7445 164.121 91.1599 164.141 89.5684C164.104 88.9674 164.161 88.3644 164.31 87.7809C164.515 88.3514 164.614 88.9547 164.602 89.5608C164.762 91.2076 164.684 92.8688 164.372 94.4937C163.799 96.9394 162.513 99.1606 160.676 100.877C158.467 102.916 155.953 104.598 153.224 105.863C147.632 108.725 142.431 111.042 138.628 112.599C134.825 114.157 132.398 114.954 132.336 114.809C132.275 114.663 134.579 113.574 138.29 111.832C142.001 110.091 147.125 107.666 152.687 104.82Z" fill="#492298"/>
<path d="M174.02 98.0841C173.252 99.419 172.346 100.386 172.069 100.194C171.792 100.002 172.207 98.8129 173.006 97.4857C173.805 96.1585 174.681 95.1841 174.958 95.3759C175.234 95.5677 174.819 96.7569 174.02 98.0841Z" fill="#492298"/>
<path d="M180.243 56.2267C180.734 55.2831 181.088 54.4468 181.418 54.4775C181.748 54.5082 181.887 55.5976 181.295 56.779C180.704 57.9605 179.759 58.4592 179.536 58.2214C179.313 57.9835 179.805 57.1703 180.243 56.2267Z" fill="#492298"/>
<path d="M184.33 54.5619C184.92 53.5195 185.282 52.3636 185.39 51.171C185.39 50.2887 185.121 49.7594 185.252 49.6366C185.383 49.5139 186.02 49.9512 186.22 51.0559C186.336 51.6846 186.315 52.3309 186.158 52.9508C185.972 53.6627 185.715 54.3541 185.39 55.0146C184.899 56.2308 184.248 57.3763 183.454 58.4209C182.801 59.188 182.248 59.5563 182.141 59.4489C182.033 59.3415 182.325 58.8121 182.755 57.9605C183.185 57.109 183.738 55.9352 184.33 54.5619Z" fill="#492298"/>
<path d="M113.891 69.0003C113.961 68.5066 114.134 68.033 114.399 67.6102C114.663 67.1873 115.014 66.8246 115.428 66.5453C116.102 66.1462 116.881 65.9591 117.663 66.0083C118.9 66.0927 119.576 66.3919 119.561 66.5377C119.545 66.6834 118.792 66.7065 117.694 66.8369C117.102 66.8998 116.534 67.108 116.042 67.443C115.507 67.8831 115.163 68.5125 115.082 69.1998C114.844 70.7342 115.458 72.2685 115.65 73.427C115.773 74.0177 115.827 74.4627 115.919 74.7235C116.011 74.9843 116.111 75.1378 116.065 75.2145C116.019 75.2912 115.796 75.2529 115.527 74.969C115.236 74.5759 115.01 74.138 114.859 73.6725C114.644 73.1278 114.383 72.491 114.152 71.7161C113.864 70.8415 113.775 69.9137 113.891 69.0003Z" fill="#231F20"/>
<path d="M85.996 21.343C90.0523 19.1642 94.7923 18.7576 99.3786 18.3971C111.148 17.4688 122.933 16.5482 134.717 16.5251C137.883 16.5251 141.132 16.5942 144.067 17.768C148.039 19.356 150.981 22.747 153.724 26.0075L166.784 41.4125C168.259 43.154 169.764 44.9569 170.486 47.1203C171.347 49.6904 171.024 52.4906 170.486 55.1451C168.858 62.9396 165.032 70.6498 158.387 75.0534C156.913 76.1009 155.227 76.8108 153.447 77.1325C151.992 77.2988 150.519 77.2184 149.091 76.8946C138.405 74.8232 129.286 66.6988 118.408 66.2692C117.179 66.2155 115.734 66.3843 115.097 67.4353C114.831 67.9808 114.672 68.5718 114.628 69.1768C113.76 74.2862 107.714 77.8153 102.836 76.0814C100.937 75.2814 99.193 74.1573 97.6808 72.7595C94.6079 70.2355 91.535 67.6885 89.1688 64.497C88.0625 63.0087 87.1176 61.3669 85.7194 60.1394C84.6439 59.1958 83.2687 58.4516 82.6926 57.1397C82.1164 55.8278 82.5543 54.1324 82.9999 52.6747C86.053 42.5475 87.1608 31.9351 86.2649 21.3968" fill="#2C1571"/>
<path d="M78.5444 49.9435C78.3754 45.256 78.2064 40.5608 78.2448 35.8733C78.2448 33.5002 78.3242 31.1322 78.4829 28.7693C78.4919 26.6267 78.7497 24.4925 79.2512 22.4093C79.3708 21.8988 79.638 21.4347 80.0194 21.0744C80.3251 20.853 80.677 20.7035 81.0488 20.6371C82.7611 20.283 84.5102 20.1388 86.2575 20.2075C91.4507 20.2075 96.6517 20.3533 101.83 19.9927C112.493 19.2639 123.194 20.1768 133.85 19.2715C136.715 19.0261 139.826 18.7115 142.254 20.2382C142.967 20.6475 143.535 21.2664 143.883 22.0104C144.134 22.7502 144.236 23.5325 144.182 24.3119L144.244 40.4227C144.356 43.2495 144.152 46.0799 143.637 48.8617C143.207 50.8027 142.346 52.8204 140.61 53.7947C139.158 54.5619 137.407 54.5619 135.747 54.4622C119.03 53.764 102.275 55.8738 85.5737 54.8457C83.9175 54.8452 82.2788 54.5084 80.7569 53.8561C79.9791 53.5035 79.3392 52.905 78.9362 52.1529C78.6512 51.4522 78.5177 50.6993 78.5444 49.9435Z" fill="url(#paint0_radial_1551_9144)"/>
<path d="M152.5 28C153.167 35.9917 153.167 44.0083 152.5 52C151.833 44.0083 151.833 35.9917 152.5 28Z" fill="#C1A9FF"/>
<path d="M148.96 22C149.174 32.014 148.533 42.028 147.038 52C146.83 41.9861 147.471 31.9723 148.96 22Z" fill="#C1A9FF"/>
<path d="M83.4922 57.8838C98.1962 57.2624 112.908 57.0092 127.62 56.8558C132.529 56.8021 137.43 56.7944 142.339 56.8021C143.991 56.6351 145.54 55.9223 146.741 54.7767C146.178 55.3996 145.51 55.9189 144.767 56.3111C144.007 56.703 143.186 56.9625 142.339 57.0783C137.438 57.2394 132.536 57.3928 127.635 57.4926C112.923 57.7994 98.2116 58.0142 83.4922 57.8531V57.8838Z" fill="#C1A9FF"/>
<path d="M92.0264 63.538C105.086 62.9856 118.223 62.7708 131.322 62.6173C135.693 62.5713 140.056 62.5713 144.428 62.5713C145.901 62.4238 147.282 61.7893 148.353 60.7684C147.854 61.3278 147.258 61.7929 146.594 62.1417C145.918 62.493 145.189 62.7314 144.435 62.8475C140.064 62.9933 135.7 63.1237 131.337 63.2157C118.231 63.4919 105.132 63.6837 92.0264 63.538Z" fill="#C1A9FF"/>
</g>
<defs>
<radialGradient id="paint0_radial_1551_9144" cx="0" cy="0" r="1" gradientUnits="userSpaceOnUse" gradientTransform="translate(195.805 39.0745) rotate(-179.844) scale(112.503 86.4725)">
<stop stop-color="#0894FF"/>
<stop offset="0.290475" stop-color="#6E53FF"/>
<stop offset="0.609151" stop-color="#B038EA"/>
<stop offset="0.850793" stop-color="#F95088"/>
<stop offset="1" stop-color="#FF6F62"/>
</radialGradient>
<clipPath id="clip0_1551_9144">
<rect width="261" height="239" fill="white"/>
</clipPath>
</defs>
</svg>
