<svg width="1280" height="720" viewBox="0 0 1280 720" fill="none" xmlns="http://www.w3.org/2000/svg">
<g clip-path="url(#clip0_2474_22064)">
<rect width="1280" height="720" fill="url(#paint0_linear_2474_22064)"/>
<rect width="1280" height="720" fill="black" fill-opacity="0.2"/>
<circle opacity="0.8" cx="640" cy="283" r="143" fill="white"/>
<path d="M0.02 373.212H36.58V420.053L100.92 419.293V383.52H132.88L132.83 431.4L171.9 431.55V451.456H183.9V398.357H297.64L297.78 359.815H466.28V399.407H562.53V317.694H664.15V443.868H786.7L787.04 401.076L847.3 400.357V417.963V422.102H860.92V381.82H991.3V418.133H1063.47V375.292H1089.34V354.456H1186.86V371.953H1203.89V396.487H1241.38V368.203H1251.37V374.812H1280V719.85H0L0.02 373.212Z" fill="#5676D6"/>
<path d="M0 429.111H121.1C121.365 429.111 121.62 429.216 121.807 429.404C121.995 429.591 122.1 429.845 122.1 430.111V481.79C122.1 482.055 122.205 482.309 122.393 482.497C122.58 482.684 122.835 482.79 123.1 482.79H131.88C132.145 482.79 132.4 482.684 132.587 482.497C132.775 482.309 132.88 482.055 132.88 481.79V443.538C132.88 443.273 132.985 443.018 133.173 442.831C133.36 442.643 133.615 442.538 133.88 442.538H167C167.265 442.538 167.52 442.433 167.707 442.245C167.895 442.058 168 441.803 168 441.538V429.441C168 429.176 168.105 428.921 168.293 428.734C168.48 428.546 168.735 428.441 169 428.441H196C196.265 428.441 196.52 428.336 196.707 428.148C196.895 427.961 197 427.706 197 427.441V410.485C197 410.22 197.105 409.965 197.293 409.778C197.48 409.59 197.735 409.485 198 409.485H207.2C207.465 409.485 207.72 409.38 207.907 409.192C208.095 409.005 208.2 408.75 208.2 408.485V380.111C208.2 379.846 208.305 379.592 208.493 379.404C208.68 379.217 208.935 379.111 209.2 379.111H325.35C325.615 379.111 325.87 379.217 326.057 379.404C326.245 379.592 326.35 379.846 326.35 380.111V394.108C326.35 394.373 326.455 394.628 326.643 394.815C326.83 395.003 327.085 395.108 327.35 395.108H385.57C385.835 395.108 386.09 395.213 386.277 395.401C386.465 395.588 386.57 395.843 386.57 396.108V454.855C386.57 455.121 386.675 455.375 386.863 455.562C387.05 455.75 387.305 455.855 387.57 455.855H415.13C415.395 455.855 415.65 455.75 415.837 455.562C416.025 455.375 416.13 455.121 416.13 454.855V422.622C416.13 422.357 416.235 422.103 416.423 421.915C416.61 421.728 416.865 421.622 417.13 421.622H515.55C515.815 421.622 516.07 421.728 516.257 421.915C516.445 422.103 516.55 422.357 516.55 422.622V442.988C516.55 443.253 516.655 443.507 516.843 443.695C517.03 443.882 517.285 443.988 517.55 443.988H547.32C547.585 443.988 547.84 443.882 548.027 443.695C548.215 443.507 548.32 443.253 548.32 442.988V424.622C548.32 424.357 548.425 424.102 548.613 423.915C548.8 423.727 549.055 423.622 549.32 423.622H611.92C612.185 423.622 612.44 423.727 612.627 423.915C612.815 424.102 612.92 424.357 612.92 424.622V470.542C612.92 470.807 613.025 471.062 613.213 471.249C613.4 471.437 613.655 471.542 613.92 471.542H635.09C635.355 471.542 635.61 471.437 635.797 471.249C635.985 471.062 636.09 470.807 636.09 470.542V383.26C636.09 382.995 636.195 382.741 636.383 382.553C636.57 382.366 636.825 382.261 637.09 382.261H742.75H742.97L758.56 385.81C758.786 385.861 758.987 385.988 759.129 386.17C759.271 386.353 759.346 386.579 759.34 386.81V389.399C759.34 389.664 759.445 389.919 759.633 390.106C759.82 390.294 760.075 390.399 760.34 390.399H777.6C777.689 390.384 777.781 390.384 777.87 390.399L790.52 394.068C790.734 394.13 790.922 394.263 791.052 394.444C791.183 394.625 791.249 394.845 791.24 395.068V447.247C791.24 447.512 791.345 447.766 791.533 447.954C791.72 448.141 791.975 448.247 792.24 448.247H811.36C811.625 448.247 811.88 448.352 812.067 448.54C812.255 448.727 812.36 448.981 812.36 449.247V463.904C812.36 464.169 812.465 464.423 812.653 464.61C812.84 464.798 813.095 464.903 813.36 464.903H886.78C887.045 464.903 887.3 464.798 887.487 464.61C887.675 464.423 887.78 464.169 887.78 463.904V368.263C887.78 367.998 887.885 367.744 888.073 367.557C888.26 367.369 888.515 367.264 888.78 367.264H955.18C955.445 367.264 955.7 367.369 955.887 367.557C956.075 367.744 956.18 367.998 956.18 368.263V469.902C956.18 470.167 956.285 470.422 956.473 470.609C956.66 470.797 956.915 470.902 957.18 470.902H1043.76C1044.03 470.902 1044.28 470.797 1044.47 470.609C1044.65 470.422 1044.76 470.167 1044.76 469.902V410.855C1044.76 410.589 1044.87 410.335 1045.05 410.148C1045.24 409.96 1045.49 409.855 1045.76 409.855H1116.35C1116.62 409.855 1116.87 409.96 1117.06 410.148C1117.24 410.335 1117.35 410.589 1117.35 410.855V434.85C1117.35 435.115 1117.46 435.369 1117.64 435.557C1117.83 435.744 1118.08 435.849 1118.35 435.849H1163.35C1163.62 435.849 1163.87 435.744 1164.06 435.557C1164.24 435.369 1164.35 435.115 1164.35 434.85V389.579C1164.35 389.314 1164.46 389.06 1164.64 388.872C1164.83 388.685 1165.08 388.579 1165.35 388.579H1214.35C1214.62 388.579 1214.87 388.685 1215.06 388.872C1215.24 389.06 1215.35 389.314 1215.35 389.579V431.78C1215.35 432.045 1215.46 432.3 1215.64 432.487C1215.83 432.675 1216.08 432.78 1216.35 432.78H1240.35C1240.62 432.78 1240.87 432.675 1241.06 432.487C1241.24 432.3 1241.35 432.045 1241.35 431.78V430.78C1241.35 430.515 1241.46 430.261 1241.64 430.073C1241.83 429.886 1242.08 429.781 1242.35 429.781H1250.35C1250.62 429.781 1250.87 429.675 1251.06 429.488C1251.24 429.3 1251.35 429.046 1251.35 428.781V423.782C1251.35 423.517 1251.46 423.262 1251.64 423.075C1251.83 422.887 1252.08 422.782 1252.35 422.782H1280V719.85H0V429.111Z" fill="#2141A3"/>
<path d="M1280 564.233H1158.9C1158.35 564.233 1157.9 564.473 1157.9 564.773V592.457C1157.9 592.757 1157.45 592.997 1156.9 592.997H1148.13C1147.57 592.997 1147.13 592.757 1147.13 592.457V571.961C1147.13 571.671 1146.69 571.431 1146.13 571.431H1113C1112.45 571.431 1112 571.191 1112 570.891V564.413C1112 564.113 1111.55 563.873 1111 563.873H1084C1083.45 563.873 1083 563.633 1083 563.343V554.255C1083 553.955 1082.55 553.715 1082 553.715H1072.8C1072.25 553.715 1071.8 553.475 1071.8 553.185V537.978C1071.8 537.688 1071.35 537.448 1070.8 537.448H954.65C954.1 537.448 953.65 537.688 953.65 537.978V545.467C953.65 545.767 953.2 546.006 952.65 546.006H894.43C893.88 546.006 893.43 546.246 893.43 546.536V578.01C893.43 578.31 892.98 578.55 892.43 578.55H864.88C864.32 578.55 863.88 578.31 863.88 578.01V560.763C863.88 560.463 863.43 560.224 862.88 560.224H764.46C763.9 560.224 763.46 560.463 763.46 560.763V571.671C763.46 571.961 763.02 572.201 762.46 572.201H732.69C732.13 572.201 731.69 571.961 731.69 571.671V561.883C731.69 561.583 731.25 561.343 730.69 561.343H668.09C667.54 561.343 667.09 561.583 667.09 561.883V586.488C667.09 586.778 666.64 587.018 666.09 587.018H612.4C611.85 587.018 611.4 586.778 611.4 586.488V539.668C611.4 539.378 610.96 539.138 610.4 539.138H537L521.4 541.038C520.95 541.098 520.62 541.307 520.62 541.557V542.947C520.62 543.247 520.18 543.487 519.62 543.487H502.41C502.317 543.477 502.223 543.477 502.13 543.487L489.49 545.487C489.06 545.547 488.77 545.757 488.77 545.996V573.991C488.77 574.291 488.32 574.531 487.77 574.531H468.64C468.09 574.531 467.64 574.77 467.64 575.06V582.879C467.64 583.179 467.19 583.419 466.64 583.419H393.22C392.67 583.419 392.22 583.179 392.22 582.879V531.639C392.22 531.34 391.77 531.1 391.22 531.1H324.83C324.27 531.1 323.83 531.34 323.83 531.639V586.098C323.83 586.398 323.39 586.638 322.83 586.638H236.24C235.69 586.638 235.24 586.398 235.24 586.098V554.455C235.24 554.155 234.79 553.915 234.24 553.915H163.65C163.1 553.915 162.65 554.155 162.65 554.455V567.302C162.65 567.602 162.2 567.842 161.65 567.842H116.65C116.09 567.842 115.65 567.602 115.65 567.302V543.057C115.65 542.757 115.21 542.517 114.65 542.517H65.65C65.09 542.517 64.65 542.757 64.65 543.057V565.662C64.65 565.962 64.21 566.202 63.65 566.202H39.63C39.08 566.202 38.63 565.962 38.63 565.662V565.112C38.63 564.813 38.18 564.573 37.63 564.573H29.63C29.07 564.573 28.63 564.333 28.63 564.043V561.353C28.63 561.063 28.18 560.823 27.63 560.823H0V720H1280V564.233Z" fill="#001A66"/>
<path d="M902.03 374.772H897.26V382.15H902.03V374.772Z" fill="#FCC8AB"/>
<path d="M902.03 387.25H897.26V394.628H902.03V387.25Z" fill="#FCC8AB"/>
<path d="M902.03 399.727H897.26V407.105H902.03V399.727Z" fill="#FCC8AB"/>
<path d="M902.03 412.214H897.26V419.593H902.03V412.214Z" fill="#FCC8AB"/>
<path d="M917.35 374.772H912.58V382.15H917.35V374.772Z" fill="#FCC8AB"/>
<path d="M917.35 387.25H912.58V394.628H917.35V387.25Z" fill="#FCC8AB"/>
<path d="M917.35 399.727H912.58V407.105H917.35V399.727Z" fill="#FCC8AB"/>
<path d="M917.35 412.214H912.58V419.593H917.35V412.214Z" fill="#FCC8AB"/>
<path d="M932.67 374.772H927.9V382.15H932.67V374.772Z" fill="#FCC8AB"/>
<path d="M932.67 387.25H927.9V394.628H932.67V387.25Z" fill="#FCC8AB"/>
<path d="M932.67 399.727H927.9V407.105H932.67V399.727Z" fill="#FCC8AB"/>
<path d="M932.67 412.214H927.9V419.593H932.67V412.214Z" fill="#FCC8AB"/>
<path d="M947.979 374.772H943.209V382.15H947.979V374.772Z" fill="#FCC8AB"/>
<path d="M947.979 387.25H943.209V394.628H947.979V387.25Z" fill="#FCC8AB"/>
<path d="M947.979 399.727H943.209V407.105H947.979V399.727Z" fill="#FCC8AB"/>
<path d="M947.979 412.214H943.209V419.593H947.979V412.214Z" fill="#FCC8AB"/>
<path d="M902.03 424.691H897.26V432.07H902.03V424.691Z" fill="#FCC8AB"/>
<path d="M902.03 437.169H897.26V444.547H902.03V437.169Z" fill="#FCC8AB"/>
<path d="M902.03 449.646H897.26V457.025H902.03V449.646Z" fill="#FCC8AB"/>
<path d="M902.03 462.124H897.26V469.502H902.03V462.124Z" fill="#FCC8AB"/>
<path d="M917.35 424.691H912.58V432.07H917.35V424.691Z" fill="#FCC8AB"/>
<path d="M917.35 437.169H912.58V444.547H917.35V437.169Z" fill="#FCC8AB"/>
<path d="M917.35 449.646H912.58V457.025H917.35V449.646Z" fill="#FCC8AB"/>
<path d="M917.35 462.124H912.58V469.502H917.35V462.124Z" fill="#FCC8AB"/>
<path d="M932.67 424.691H927.9V432.07H932.67V424.691Z" fill="#FCC8AB"/>
<path d="M932.67 437.169H927.9V444.547H932.67V437.169Z" fill="#FCC8AB"/>
<path d="M932.67 449.646H927.9V457.025H932.67V449.646Z" fill="#FCC8AB"/>
<path d="M932.67 462.124H927.9V469.502H932.67V462.124Z" fill="#FCC8AB"/>
<path d="M947.979 424.691H943.209V432.07H947.979V424.691Z" fill="#FCC8AB"/>
<path d="M947.979 437.169H943.209V444.547H947.979V437.169Z" fill="#FCC8AB"/>
<path d="M947.979 449.646H943.209V457.025H947.979V449.646Z" fill="#FCC8AB"/>
<path d="M947.979 462.124H943.209V469.502H947.979V462.124Z" fill="#FCC8AB"/>
<path d="M441.92 432.701V427.931H438.52V432.701H441.92Z" fill="#FCC8AB"/>
<path d="M436.17 432.701V427.931H432.77V432.701H436.17Z" fill="#FCC8AB"/>
<path d="M430.41 432.711V427.941H427.01V432.711H430.41Z" fill="#FCC8AB"/>
<path d="M424.66 432.701V427.931H421.26V432.701H424.66Z" fill="#FCC8AB"/>
<path d="M441.92 448.018V443.248H438.52V448.018H441.92Z" fill="#FCC8AB"/>
<path d="M436.17 448.018V443.248H432.77V448.018H436.17Z" fill="#FCC8AB"/>
<path d="M430.41 448.018V443.248H427.01V448.018H430.41Z" fill="#FCC8AB"/>
<path d="M424.66 448.018V443.248H421.26V448.018H424.66Z" fill="#FCC8AB"/>
<path d="M441.92 463.334V458.564H438.52V463.334H441.92Z" fill="#FCC8AB"/>
<path d="M436.17 463.334V458.564H432.77V463.334H436.17Z" fill="#FCC8AB"/>
<path d="M430.41 463.334V458.564H427.01V463.334H430.41Z" fill="#FCC8AB"/>
<path d="M424.66 463.334V458.564H421.26V463.334H424.66Z" fill="#FCC8AB"/>
<path d="M441.92 478.651V473.881H438.52V478.651H441.92Z" fill="#FCC8AB"/>
<path d="M436.17 478.651V473.881H432.77V478.651H436.17Z" fill="#FCC8AB"/>
<path d="M430.41 478.651V473.881H427.01V478.651H430.41Z" fill="#FCC8AB"/>
<path d="M424.66 478.651V473.881H421.26V478.651H424.66Z" fill="#FCC8AB"/>
<path d="M464.83 432.701V427.931H461.43V432.701H464.83Z" fill="#FCC8AB"/>
<path d="M459.08 432.701V427.931H455.68V432.701H459.08Z" fill="#FCC8AB"/>
<path d="M453.32 432.701V427.931H449.92V432.701H453.32Z" fill="#FCC8AB"/>
<path d="M447.57 432.701V427.931H444.17V432.701H447.57Z" fill="#FCC8AB"/>
<path d="M464.83 448.018V443.248H461.43V448.018H464.83Z" fill="#FCC8AB"/>
<path d="M459.08 448.018V443.248H455.68V448.018H459.08Z" fill="#FCC8AB"/>
<path d="M453.32 448.018V443.248H449.92V448.018H453.32Z" fill="#FCC8AB"/>
<path d="M447.57 448.018V443.248H444.17V448.018H447.57Z" fill="#FCC8AB"/>
<path d="M464.83 463.334V458.564H461.43V463.334H464.83Z" fill="#FCC8AB"/>
<path d="M459.08 463.334V458.564H455.68V463.334H459.08Z" fill="#FCC8AB"/>
<path d="M453.32 463.325V458.555H449.92V463.325H453.32Z" fill="#FCC8AB"/>
<path d="M447.57 463.334V458.564H444.17V463.334H447.57Z" fill="#FCC8AB"/>
<path d="M464.83 478.651V473.881H461.43V478.651H464.83Z" fill="#FCC8AB"/>
<path d="M459.07 478.651V473.881H455.67V478.651H459.07Z" fill="#FCC8AB"/>
<path d="M453.32 478.641V473.871H449.92V478.641H453.32Z" fill="#FCC8AB"/>
<path d="M447.57 478.651V473.881H444.17V478.651H447.57Z" fill="#FCC8AB"/>
<path d="M488.049 432.711V427.941H484.649V432.711H488.049Z" fill="#FCC8AB"/>
<path d="M482.299 432.701V427.931H478.899V432.701H482.299Z" fill="#FCC8AB"/>
<path d="M476.549 432.701V427.931H473.149V432.701H476.549Z" fill="#FCC8AB"/>
<path d="M470.789 432.701V427.931H467.389V432.701H470.789Z" fill="#FCC8AB"/>
<path d="M488.051 448.018V443.248H484.651V448.018H488.051Z" fill="#FCC8AB"/>
<path d="M482.301 448.018V443.248H478.901V448.018H482.301Z" fill="#FCC8AB"/>
<path d="M476.551 448.018V443.248H473.151V448.018H476.551Z" fill="#FCC8AB"/>
<path d="M470.789 448.018V443.248H467.389V448.018H470.789Z" fill="#FCC8AB"/>
<path d="M488.051 463.334V458.564H484.651V463.334H488.051Z" fill="#FCC8AB"/>
<path d="M482.301 463.334V458.564H478.901V463.334H482.301Z" fill="#FCC8AB"/>
<path d="M476.551 463.334V458.564H473.151V463.334H476.551Z" fill="#FCC8AB"/>
<path d="M470.789 463.325V458.555H467.389V463.325H470.789Z" fill="#FCC8AB"/>
<path d="M488.049 478.651V473.881H484.649V478.651H488.049Z" fill="#FCC8AB"/>
<path d="M482.299 478.651V473.881H478.899V478.651H482.299Z" fill="#FCC8AB"/>
<path d="M476.539 478.651V473.881H473.139V478.651H476.539Z" fill="#FCC8AB"/>
<path d="M470.789 478.641V473.871H467.389V478.641H470.789Z" fill="#FCC8AB"/>
<path d="M510.959 432.701V427.931H507.559V432.701H510.959Z" fill="#FCC8AB"/>
<path d="M505.209 432.701V427.931H501.809V432.701H505.209Z" fill="#FCC8AB"/>
<path d="M499.459 432.701V427.931H496.059V432.701H499.459Z" fill="#FCC8AB"/>
<path d="M493.699 432.701V427.931H490.299V432.701H493.699Z" fill="#FCC8AB"/>
<path d="M510.959 448.018V443.248H507.559V448.018H510.959Z" fill="#FCC8AB"/>
<path d="M505.209 448.018V443.248H501.809V448.018H505.209Z" fill="#FCC8AB"/>
<path d="M499.449 448.018V443.248H496.049V448.018H499.449Z" fill="#FCC8AB"/>
<path d="M493.699 448.018V443.248H490.299V448.018H493.699Z" fill="#FCC8AB"/>
<path d="M510.959 463.325V458.555H507.559V463.325H510.959Z" fill="#FCC8AB"/>
<path d="M505.209 463.334V458.564H501.809V463.334H505.209Z" fill="#FCC8AB"/>
<path d="M499.449 463.334V458.564H496.049V463.334H499.449Z" fill="#FCC8AB"/>
<path d="M493.699 463.334V458.564H490.299V463.334H493.699Z" fill="#FCC8AB"/>
<path d="M510.959 478.641V473.871H507.559V478.641H510.959Z" fill="#FCC8AB"/>
<path d="M505.209 478.651V473.881H501.809V478.651H505.209Z" fill="#FCC8AB"/>
<path d="M499.449 478.651V473.881H496.049V478.651H499.449Z" fill="#FCC8AB"/>
<path d="M493.699 478.651V473.881H490.299V478.651H493.699Z" fill="#FCC8AB"/>
<path d="M1146.26 668.863C1146.26 668.863 1099.26 657.899 1030.26 629.812C1023.54 627.069 1023.26 626.938 1023.26 626.938C1021.1 625.697 1020.19 624.786 1018.73 625.016C1016.82 625.316 1016.34 627.189 1014.32 627.379C1013.2 627.422 1012.1 627.068 1011.21 626.378C1010.82 626.127 1015.76 629.382 996.9 620.24C984.3 614.132 984.62 613.901 982.59 613.601C977.24 612.8 975.86 614.532 970.75 613.431C965.37 612.259 962.04 609.275 959.93 607.633C954.72 603.628 951.86 603.798 921.68 596.559C901.55 591.722 902.6 591.552 898.94 591.232C886.35 590.06 886.16 592.964 868.72 592.694C856.18 592.513 851.82 590.941 842.65 593.334C838.422 594.515 834.282 595.99 830.26 597.75C822.36 601.255 820.56 603.458 815.03 605.33C809.5 607.203 805.6 606.972 799.27 606.952C780.92 606.872 763.27 606.952 751.1 612.359C747.159 614.16 743.344 616.224 739.68 618.537C735.12 621.541 734.07 622.803 731.21 624.715C722.59 630.483 713.3 631.154 710.4 631.364C700.16 632.105 700.67 628.36 689.32 629.131C683.41 629.512 680.22 630.723 672.64 630.473C669.376 630.381 666.124 630.046 662.91 629.472C663.101 628.439 663.101 627.38 662.91 626.348C662.53 624.345 661.64 623.864 661.16 621.591C660.982 620.53 660.902 619.454 660.92 618.377C660.87 616.605 660.92 615.283 660.98 614.923C661.203 609.574 660.989 604.216 660.34 598.902C660.194 597.117 659.93 595.344 659.55 593.595C658.95 591.592 658.17 590.15 658.33 587.967C658.33 587.467 658.48 586.696 658.59 586.055C658.761 585.04 658.995 584.037 659.29 583.051C659.6 581.99 659.65 580.908 659.29 574.48C658.85 567.611 658.8 568.983 658.8 567.641C658.938 565.981 658.778 564.309 658.33 562.704C658.03 561.813 657.75 561.383 657.33 560.001C657.006 558.958 656.771 557.89 656.63 556.807C656.37 554.594 656.93 553.583 657.18 551.48C657.29 550.549 657.27 549.978 656.8 545.552C655.86 536.881 655.72 537.221 655.8 535.709C655.95 531.964 656.74 532.064 656.7 528.259C656.7 525.856 656.34 524.765 657.06 523.253C657.86 521.611 659.06 521.4 661.06 519.828C663.8 517.746 663.64 516.644 666.99 512.959C668.84 510.957 668.33 511.868 672.56 507.783C674.88 505.55 678.07 502.336 681.16 499.352C682.31 498.24 682.5 498.07 682.74 497.88C684.48 496.498 685.51 496.338 686.11 495.156C686.409 494.639 686.529 494.037 686.45 493.444C686.377 493.224 686.317 493 686.27 492.773C686.27 491.962 687.27 491.311 687.56 491.101C689.66 489.649 690.97 485.794 690.56 482.92C690.49 482.41 690.32 481.118 689.76 481.008C688.51 480.757 686.63 486.715 685.32 486.415C685.04 486.355 684.86 486.024 684.77 485.864C684.35 485.123 684.89 484.482 684.47 483.601C684.4 483.461 684.2 483.04 683.96 483.05C683.51 483.05 683.22 484.572 683.07 485.353C682.661 487.394 682.103 489.402 681.4 491.361C680.69 493.053 679.62 493.224 672.83 496.878C670.72 498.02 668.83 499.151 664.94 501.414C662.891 502.583 660.965 503.955 659.19 505.51C658.83 505.88 658.41 506.261 657.56 507.042C656.71 507.823 656.38 508.043 656.13 508.193C655.53 508.444 655.28 508.293 653.6 508.193C651.7 508.123 651.29 508.283 650.82 507.873C650.411 507.444 650.182 506.874 650.18 506.281C650.196 505.511 650.384 504.755 650.73 504.068C651.181 503.085 651.439 502.024 651.49 500.944C651.42 499.942 651.01 500.012 650.66 498.42C650.31 496.828 650.66 496.618 650.22 495.857C649.78 495.096 649.45 495.246 648.68 494.235C648.2 493.584 648.12 493.304 647.85 492.923C647.005 491.932 645.814 491.301 644.52 491.161C643.472 490.991 642.398 491.078 641.39 491.412C640.382 491.747 639.469 492.32 638.73 493.083C637.985 493.746 637.464 494.624 637.24 495.597C637.202 496.039 637.084 496.47 636.89 496.868C636.744 497.162 636.559 497.435 636.34 497.679C635.943 498.239 635.607 498.84 635.34 499.472C635.07 500.083 634.34 501.675 635.04 502.876C635.34 503.417 635.57 503.277 635.89 503.878C636.175 504.354 636.306 504.907 636.265 505.461C636.223 506.015 636.012 506.543 635.66 506.972C635.25 507.302 634.87 507.172 634.42 507.652C633.97 508.133 634.12 508.313 633.93 508.564C633.37 509.355 631.5 508.744 629.5 508.484C626.45 508.083 626.16 508.904 624.39 508.343C622.62 507.783 622.09 506.651 620.53 505.239C617.29 502.326 615.75 503.838 611.01 500.994C607.01 498.601 607.44 497.139 603.76 495.557C602.289 494.973 600.887 494.227 599.58 493.334C598.514 492.737 597.598 491.905 596.9 490.901C596.181 489.728 595.711 488.419 595.52 487.056C595.538 486.671 595.479 486.288 595.346 485.927C595.214 485.566 595.011 485.235 594.75 484.953C594.63 484.863 594.41 484.692 594.24 484.763C593.64 484.993 594.42 487.536 593.85 487.767C593.52 487.917 592.85 487.186 592.51 486.765C590 483.871 588.75 482.43 588.19 482.59C587.04 482.91 586.65 489.539 589.33 491.672C590.46 492.563 591.33 493.774 592.59 494.475C592.763 494.549 592.917 494.659 593.045 494.797C593.172 494.935 593.27 495.098 593.33 495.276C593.42 495.747 593.02 495.987 593.02 496.478C593.02 496.969 593.53 497.429 594.11 497.88C594.888 498.415 595.723 498.861 596.6 499.211C596.91 499.362 597.35 499.612 598.23 500.123C601.48 501.985 604.47 503.687 606.95 506.511C607.783 507.646 608.692 508.723 609.67 509.735C610.707 510.703 611.852 511.55 613.08 512.259C616.06 514.137 618.874 516.267 621.49 518.627C625.55 522.081 626.41 523.633 626.88 524.915C627.252 526.067 627.5 527.255 627.62 528.46C628.026 531.203 628.269 533.968 628.35 536.74C628.494 541.71 628.197 546.683 627.46 551.6C627.01 554.514 626.9 554.163 626.46 557.037C625.886 561.047 625.598 565.092 625.6 569.143C625.49 576.833 625.84 583.311 625.92 584.673C626.29 591.262 626.72 593.785 625.92 597.69C625.77 598.421 625.35 600.324 624.92 603.057C624.518 605.143 624.304 607.261 624.28 609.385C624.28 612.049 624.7 612.019 624.72 614.853C624.883 616.847 624.655 618.853 624.05 620.76C623.43 622.473 622.85 622.763 621.95 625.076C621.498 626.225 621.143 627.411 620.89 628.621C617.17 628.801 612.21 628.811 608.59 627.86C607.24 627.499 605.59 627.029 605.59 627.029C602.92 626.237 602.04 625.887 600.22 625.366C598.681 624.896 597.115 624.521 595.53 624.245C590.61 623.544 589.36 626.598 582.94 627.409C581.08 627.649 578.81 627.479 574.25 627.159C569.69 626.838 568.69 626.458 565.82 626.578C562.95 626.698 562.6 627.099 557.99 627.95C555.62 628.39 552.23 628.791 545.44 629.582C542.266 630.041 539.066 630.309 535.86 630.383C534.014 630.416 532.168 630.343 530.33 630.163C527.98 629.912 527.16 629.622 524.8 629.492C523.355 629.386 521.905 629.386 520.46 629.492C518.047 629.742 515.663 630.221 513.34 630.924C509.25 632.025 509.67 632.155 507.91 632.526C507.02 632.706 504.82 633.116 497.91 632.616C492.44 632.225 492.73 631.885 489.33 631.785C486.176 631.657 483.018 631.872 479.91 632.426C476.08 633.146 476.04 633.757 471.03 634.919C468.24 635.606 465.402 636.078 462.54 636.331C456.4 636.831 456.08 635.7 452.31 636.521C447.93 637.522 448.03 639.084 443.37 640.036C439.59 640.796 439.13 639.825 435.37 640.626C430.73 641.628 431.02 643.24 427.2 644.061C421.92 645.192 420.36 642.339 414.68 643.61C412.551 644.252 410.494 645.111 408.54 646.174C404.73 647.986 401.7 649.718 399.63 650.96C398.679 651.401 397.668 651.698 396.63 651.841C395.153 652.017 393.656 651.909 392.22 651.52C390.58 651.14 388.22 651.33 383.6 651.731C377.69 652.231 372.67 653.173 369.68 653.733C365.59 654.464 359.68 655.456 352.27 656.417C348.75 657.188 343.49 658.259 337.04 659.291C333.24 659.901 330.42 660.292 327.88 660.592C304.38 663.596 301.14 664.027 296.54 664.678C289.36 665.679 289.3 665.859 277.14 667.792C269.23 669.053 257.92 670.796 244.04 672.708L230.56 674.22L212.42 675.362L186.96 676.133L157.77 677.715L104.66 681.339L42.43 685.605L0 688.959C0 699.283 0 709.707 0 720C187.173 720 374.357 720 561.55 720H1280V678.746C1219 682.681 1173.68 675.262 1146.26 668.863ZM632.26 628.47C632.286 627.535 632.263 626.599 632.19 625.667C632.098 624.593 631.938 623.526 631.71 622.473C630.99 619.028 633.2 614.953 633.78 608.384C634.18 603.878 633.37 603.378 634.23 600.013C634.61 598.521 635.06 597.48 636.05 594.095C636.58 592.273 636.98 590.761 637.24 589.74C637.762 589.502 638.215 589.137 638.56 588.678C639.18 587.827 639.11 586.986 639.16 584.072C639.146 583.049 639.189 582.026 639.29 581.008C639.509 579.827 639.844 578.67 640.29 577.554C641.44 574.099 641.29 573.028 641.7 572.998C642.7 572.918 643.91 580.508 644.38 583.482C644.627 584.585 644.698 585.72 644.59 586.846C644.43 587.937 644.11 588.448 644.38 588.969C644.65 589.489 645.44 589.97 647.49 589.83C648.796 592.314 649.829 594.933 650.57 597.64C651.57 601.285 651.11 601.906 652.39 607.503C653 610.197 653.33 611.078 654.05 614.512C654.72 617.756 655.05 619.399 654.94 620.52C654.72 622.763 653.94 623.985 653.94 626.908C653.949 627.724 654.019 628.537 654.15 629.342C652.71 628.757 651.189 628.396 649.64 628.27C647.01 628.06 646.29 628.701 643 628.651C640.65 628.651 640.38 628.29 637.67 628.19C635.845 628.133 634.019 628.227 632.21 628.47H632.26Z" fill="#080014"/>
</g>
<defs>
<linearGradient id="paint0_linear_2474_22064" x1="640" y1="-314.5" x2="640" y2="970.5" gradientUnits="userSpaceOnUse">
<stop stop-color="#0A0C13"/>
<stop offset="0.36252" stop-color="#381B67"/>
<stop offset="0.798409" stop-color="#113E95"/>
</linearGradient>
<clipPath id="clip0_2474_22064">
<rect width="1280" height="720" fill="white"/>
</clipPath>
</defs>
</svg>
