<svg width="16" height="16" viewBox="0 0 16 16" fill="none" xmlns="http://www.w3.org/2000/svg">
<rect width="16" height="16" rx="1.28" fill="#3F00F9"/>
<path d="M7.30175 9.78684V7.1566C7.30175 6.96694 7.2685 6.8039 7.202 6.66748C7.13882 6.52773 7.04239 6.42126 6.91272 6.34806C6.78637 6.27486 6.63175 6.23826 6.44888 6.23826C6.24605 6.23826 6.07315 6.27153 5.93017 6.33808C5.7872 6.4013 5.67581 6.48781 5.59601 6.59761C5.51953 6.70408 5.4813 6.82387 5.4813 6.95696L4.16459 6.86712C4.16459 6.62423 4.21779 6.40296 4.32419 6.20332C4.43392 6.00035 4.58853 5.82401 4.78803 5.67428C4.99086 5.52455 5.23358 5.40809 5.51621 5.32491C5.79884 5.24173 6.11305 5.20013 6.45885 5.20013C6.88778 5.20013 7.26018 5.27333 7.57606 5.41974C7.89526 5.56614 8.14298 5.78574 8.3192 6.07855C8.49543 6.36802 8.58354 6.7307 8.58354 7.16658V9.61216L7.30175 9.78684ZM7.51621 7.47602L7.5212 8.34445H6.42893C6.1862 8.34445 5.98171 8.38271 5.81546 8.45924C5.65254 8.53244 5.52951 8.6306 5.44638 8.75371C5.36326 8.87682 5.3217 9.00991 5.3217 9.15299C5.3217 9.28608 5.35328 9.4042 5.41646 9.50735C5.47963 9.6105 5.57606 9.69201 5.70574 9.75191C5.83541 9.80847 6 9.83675 6.1995 9.83675C6.34913 9.83675 6.50208 9.81013 6.65835 9.7569C6.81463 9.70033 6.95761 9.6288 7.08728 9.54229C7.22028 9.45578 7.32668 9.36261 7.40648 9.26279C7.48628 9.16297 7.52785 9.06981 7.53117 8.9833L8.1596 9.73194C8.07315 9.89498 7.93516 10.0597 7.74564 10.226C7.55611 10.3891 7.31172 10.5255 7.01247 10.6353C6.71654 10.7451 6.36243 10.8 5.95012 10.8C5.53117 10.8 5.17539 10.7318 4.88279 10.5954C4.59352 10.459 4.37406 10.266 4.22444 10.0164C4.07481 9.76355 4 9.46908 4 9.13303C4 8.87017 4.05154 8.63725 4.15461 8.43429C4.25769 8.22799 4.41064 8.05497 4.61347 7.91523C4.81629 7.77215 5.06899 7.66401 5.37157 7.59081C5.67415 7.51428 6.02328 7.47602 6.41895 7.47602H7.51621ZM9.88529 10.8C9.46966 10.8 9.10224 10.7368 8.78304 10.6104C8.46717 10.4839 8.1995 10.3042 7.98005 10.0713C7.76392 9.83509 7.59934 9.55892 7.48628 9.24283C7.37656 8.9234 7.3217 8.57404 7.3217 8.19472V7.88528C7.3217 7.48933 7.37656 7.12832 7.48628 6.80224C7.59601 6.47283 7.75561 6.18835 7.96509 5.94878C8.17456 5.70921 8.42893 5.52455 8.72818 5.39478C9.03076 5.26169 9.37157 5.19681 9.75062 5.20013C10.1064 5.20013 10.4223 5.2567 10.6983 5.36983C10.9776 5.48296 11.2136 5.64599 11.4065 5.85894C11.5993 6.06856 11.7456 6.32477 11.8454 6.62755C11.9485 6.92701 12 7.26307 12 7.63573V8.37939H7.89526V7.49099H10.6983V7.34625C10.6983 7.13331 10.665 6.94365 10.5985 6.77728C10.532 6.61092 10.4289 6.47949 10.2893 6.383C10.153 6.2865 9.9734 6.23826 9.75062 6.23826C9.5478 6.23826 9.37323 6.27985 9.22693 6.36303C9.08063 6.44621 8.96093 6.56267 8.86783 6.7124C8.77473 6.86213 8.7049 7.03681 8.65835 7.23645C8.61513 7.43609 8.59352 7.65237 8.59352 7.88528V8.19472C8.59352 8.41765 8.62012 8.62395 8.67332 8.8136C8.72652 8.99993 8.80964 9.16463 8.92269 9.30771C9.03574 9.45078 9.18204 9.56225 9.3616 9.64211C9.54115 9.72196 9.75561 9.76189 10.005 9.76189C10.3641 9.76189 10.655 9.71697 10.8778 9.62713C11.1039 9.53397 11.3101 9.43581 11.4963 9.33266L11.8653 10.1961C11.7589 10.276 11.611 10.3641 11.4214 10.4606C11.2352 10.5538 11.0108 10.6336 10.7481 10.7002C10.4888 10.7667 10.2012 10.8 9.88529 10.8Z" fill="white"/>
</svg>
