<svg width="30" height="28" viewBox="0 0 30 28" fill="none" xmlns="http://www.w3.org/2000/svg">
<path d="M30 13C29.9993 12.2343 29.7787 11.4849 29.3647 10.8409C28.9506 10.1968 28.3603 9.68511 27.664 9.36657C26.9677 9.04804 26.1946 8.93605 25.4366 9.04391C24.6785 9.15176 23.9673 9.47493 23.3875 9.97503C21.2875 8.86253 18.7875 8.18753 16.175 8.03753L16.825 4.13753L19.55 4.56253C19.6778 5.26536 20.0503 5.90027 20.6014 6.35482C21.1525 6.80937 21.8466 7.05423 22.561 7.04602C23.2753 7.03781 23.9636 6.77706 24.5041 6.30997C25.0446 5.84287 25.4024 5.19956 25.514 4.49397C25.6257 3.78839 25.484 3.06606 25.1141 2.45491C24.7442 1.84377 24.17 1.38325 23.4931 1.15491C22.8162 0.926571 22.0804 0.945152 21.4158 1.20736C20.7513 1.46957 20.2011 1.95849 19.8625 2.58753L16.15 2.01253C15.89 1.97282 15.6248 2.03714 15.4119 2.19156C15.199 2.34598 15.0555 2.57806 15.0125 2.83753L14.15 8.02503C11.425 8.13753 8.80001 8.81253 6.61251 9.97503C5.81525 9.31586 4.79362 8.99121 3.76209 9.06922C2.73057 9.14722 1.76938 9.62183 1.08031 10.3934C0.391236 11.165 0.0278784 12.1735 0.0665142 13.2072C0.10515 14.241 0.542774 15.2195 1.28751 15.9375C1.09842 16.6088 1.0017 17.3027 1.00001 18C1.00001 20.7375 2.50002 23.3 5.23751 25.1875C7.97501 27.075 11.325 28 15 28C18.675 28 22.1375 27 24.7625 25.1875C27.3875 23.375 29 20.7375 29 18C28.9992 17.3067 28.9025 16.6168 28.7125 15.95C29.1173 15.5724 29.4405 15.1158 29.6619 14.6084C29.8834 14.101 29.9984 13.5536 30 13ZM8.00001 16.5C8.00001 16.1045 8.11731 15.7178 8.33708 15.3889C8.55684 15.06 8.8692 14.8036 9.23465 14.6523C9.6001 14.5009 10.0022 14.4613 10.3902 14.5385C10.7782 14.6156 11.1345 14.8061 11.4142 15.0858C11.6939 15.3655 11.8844 15.7219 11.9616 16.1098C12.0388 16.4978 11.9991 16.8999 11.8478 17.2654C11.6964 17.6308 11.4401 17.9432 11.1112 18.163C10.7823 18.3827 10.3956 18.5 10 18.5C9.46958 18.5 8.96087 18.2893 8.5858 17.9142C8.21073 17.5392 8.00001 17.0305 8.00001 16.5ZM19.5875 22.8875C18.1689 23.6188 16.596 24.0003 15 24.0003C13.404 24.0003 11.8311 23.6188 10.4125 22.8875C10.1946 22.757 10.0345 22.5485 9.96471 22.3042C9.89495 22.0599 9.92076 21.7983 10.0369 21.5724C10.153 21.3465 10.3508 21.1732 10.59 21.0878C10.8293 21.0024 11.0921 21.0112 11.325 21.1125C12.4616 21.698 13.7215 22.0035 15 22.0035C16.2785 22.0035 17.5385 21.698 18.675 21.1125C18.908 21.0112 19.1707 21.0024 19.41 21.0878C19.6492 21.1732 19.847 21.3465 19.9631 21.5724C20.0793 21.7983 20.1051 22.0599 20.0353 22.3042C19.9656 22.5485 19.8055 22.757 19.5875 22.8875ZM20 18.5C19.6045 18.5 19.2178 18.3827 18.8889 18.163C18.56 17.9432 18.3036 17.6308 18.1523 17.2654C18.0009 16.8999 17.9613 16.4978 18.0384 16.1098C18.1156 15.7219 18.3061 15.3655 18.5858 15.0858C18.8655 14.8061 19.2219 14.6156 19.6098 14.5385C19.9978 14.4613 20.3999 14.5009 20.7654 14.6523C21.1308 14.8036 21.4432 15.06 21.663 15.3889C21.8827 15.7178 22 16.1045 22 16.5C22 17.0305 21.7893 17.5392 21.4142 17.9142C21.0392 18.2893 20.5304 18.5 20 18.5Z" fill="#9F80FC"/>
</svg>
