<svg width="1280" height="720" viewBox="0 0 1280 720" fill="none" xmlns="http://www.w3.org/2000/svg">
<g clip-path="url(#clip0_2485_22181)">
<rect width="1280" height="720" fill="url(#paint0_linear_2485_22181)"/>
<rect width="1280" height="720" fill="black" fill-opacity="0.2"/>
<g opacity="0.76" filter="url(#filter0_f_2485_22181)">
<path d="M148.558 26.3279C148.023 26.6188 147.785 27.4344 148.081 27.9592C147.785 27.4344 146.953 27.2006 146.418 27.4914C146.953 27.2006 147.191 26.3849 146.895 25.8601C147.191 26.3849 148.023 26.6188 148.558 26.3279Z" fill="white"/>
</g>
<g opacity="0.95" filter="url(#filter1_f_2485_22181)">
<path d="M166.503 3.03993C166.968 3.16222 167.558 2.82811 167.683 2.37171C167.558 2.82811 167.899 3.4068 168.365 3.52909C167.899 3.4068 167.309 3.74091 167.184 4.19731C167.309 3.74091 166.968 3.16222 166.503 3.03993Z" fill="white"/>
</g>
<g opacity="0.96" filter="url(#filter2_f_2485_22181)">
<path d="M481.148 18.9092C480.265 18.7252 479.195 19.4069 479.007 20.2725C479.195 19.4069 478.5 18.3572 477.617 18.1732C478.5 18.3572 479.57 17.6756 479.758 16.8099C479.57 17.6756 480.265 18.7252 481.148 18.9092Z" fill="white"/>
</g>
<g opacity="0.78" filter="url(#filter3_f_2485_22181)">
<path d="M666.283 5.79085C666.293 5.19844 665.7 4.59569 665.096 4.58535C665.7 4.59569 666.314 4.01362 666.325 3.42121C666.314 4.01362 666.908 4.61637 667.512 4.62671C666.908 4.61637 666.293 5.19844 666.283 5.79085Z" fill="white"/>
</g>
<g opacity="0.71" filter="url(#filter4_f_2485_22181)">
<path d="M860.848 3.77283C861.486 4.37718 862.74 4.35571 863.357 3.72989C862.74 4.35571 862.762 5.58589 863.401 6.19024C862.762 5.58589 861.508 5.60736 860.892 6.23319C861.508 5.60736 861.486 4.37718 860.848 3.77283Z" fill="white"/>
</g>
<g opacity="0.92" filter="url(#filter5_f_2485_22181)">
<path d="M1080.69 0.934642C1081.17 1.57781 1082.3 1.75369 1082.95 1.2864C1082.3 1.75369 1082.12 2.86415 1082.6 3.50732C1082.12 2.86415 1080.99 2.68827 1080.33 3.15556C1080.99 2.68827 1081.17 1.57781 1080.69 0.934642Z" fill="white"/>
</g>
<g opacity="0.75" filter="url(#filter6_f_2485_22181)">
<path d="M1246.82 11.4074C1246.12 11.2608 1245.26 11.8038 1245.12 12.4934C1245.26 11.8038 1244.71 10.9677 1244.01 10.8211C1244.71 10.9677 1245.56 10.4246 1245.71 9.73505C1245.56 10.4246 1246.12 11.2608 1246.82 11.4074Z" fill="white"/>
</g>
<g opacity="0.97" filter="url(#filter7_f_2485_22181)">
<path d="M126.939 42.9721C126.786 42.4143 126.065 42.0059 125.496 42.1554C126.065 42.0059 126.481 41.2987 126.329 40.7408C126.481 41.2987 127.203 41.707 127.772 41.5575C127.203 41.707 126.786 42.4143 126.939 42.9721Z" fill="white"/>
</g>
<g filter="url(#filter8_f_2485_22181)">
<path d="M302.742 31.0583C303.493 31.5363 304.731 31.2783 305.218 30.5423C304.731 31.2783 304.994 32.4921 305.744 32.97C304.994 32.4921 303.756 32.7501 303.269 33.4861C303.756 32.7501 303.493 31.5363 302.742 31.0583Z" fill="white"/>
</g>
<g opacity="0.94" filter="url(#filter9_f_2485_22181)">
<path d="M498.236 34.8522C498.02 34.3551 497.298 34.069 496.791 34.28C497.298 34.069 497.59 33.361 497.375 32.8639C497.59 33.361 498.312 33.647 498.819 33.436C498.312 33.647 498.02 34.3551 498.236 34.8522Z" fill="white"/>
</g>
<g opacity="0.91" filter="url(#filter10_f_2485_22181)">
<path d="M619.251 42.2959C619.744 42.0908 620.027 41.4024 619.818 40.9191C620.027 41.4024 620.729 41.6805 621.222 41.4754C620.729 41.6805 620.446 42.3689 620.655 42.8522C620.446 42.3689 619.744 42.0908 619.251 42.2959Z" fill="white"/>
</g>
<g filter="url(#filter11_f_2485_22181)">
<path d="M914.338 49.9262C913.747 49.8448 913.073 50.3426 912.99 50.922C913.073 50.3426 912.565 49.6819 911.975 49.6005C912.565 49.6819 913.239 49.184 913.322 48.6047C913.239 49.184 913.747 49.8448 914.338 49.9262Z" fill="white"/>
</g>
<g opacity="0.88" filter="url(#filter12_f_2485_22181)">
<path d="M1033.22 29.5545C1033.95 29.9188 1035.05 29.5681 1035.42 28.8531C1035.05 29.5681 1035.4 30.6475 1036.13 31.0118C1035.4 30.6475 1034.3 30.9982 1033.93 31.7132C1034.3 30.9982 1033.95 29.9188 1033.22 29.5545Z" fill="white"/>
</g>
<g opacity="0.81" filter="url(#filter13_f_2485_22181)">
<path d="M1277.28 49.6482C1277.9 49.5401 1278.42 48.819 1278.31 48.2059C1278.42 48.819 1279.15 49.3239 1279.78 49.2158C1279.15 49.3239 1278.64 50.045 1278.75 50.6581C1278.64 50.045 1277.9 49.5401 1277.28 49.6482Z" fill="white"/>
</g>
<g opacity="0.99" filter="url(#filter14_f_2485_22181)">
<path d="M27.3554 81.5508C27.2762 80.8124 26.444 80.1516 25.691 80.2292C26.444 80.1516 27.1179 79.3356 27.0388 78.5971C27.1179 79.3356 27.9502 79.9964 28.7032 79.9188C27.9502 79.9964 27.2762 80.8124 27.3554 81.5508Z" fill="white"/>
</g>
<g opacity="0.77" filter="url(#filter15_f_2485_22181)">
<path d="M327.321 86.8953C327.558 87.4161 328.325 87.7049 328.856 87.4731C328.325 87.7049 328.031 88.4575 328.267 88.9782C328.031 88.4575 327.263 88.1686 326.732 88.4005C327.263 88.1686 327.558 87.4161 327.321 86.8953Z" fill="white"/>
</g>
<g opacity="0.99" filter="url(#filter16_f_2485_22181)">
<path d="M495.096 60.7042C494.912 61.229 495.263 61.9344 495.798 62.1151C495.263 61.9344 494.544 62.2785 494.359 62.8033C494.544 62.2785 494.193 61.5731 493.658 61.3924C494.193 61.5731 494.912 61.229 495.096 60.7042Z" fill="white"/>
</g>
<g opacity="0.94" filter="url(#filter17_f_2485_22181)">
<path d="M575.229 92.6869C574.594 92.6869 573.959 93.3094 573.959 93.9319C573.959 93.3094 573.324 92.6869 572.689 92.6869C573.324 92.6869 573.959 92.0644 573.959 91.4419C573.959 92.0644 574.594 92.6869 575.229 92.6869Z" fill="white"/>
</g>
<g opacity="0.9" filter="url(#filter18_f_2485_22181)">
<path d="M823.039 75.671C823.091 75.0882 822.549 74.4545 821.954 74.4035C822.549 74.4545 823.195 73.9227 823.247 73.3399C823.195 73.9227 823.737 74.5565 824.332 74.6074C823.737 74.5565 823.091 75.0882 823.039 75.671Z" fill="white"/>
</g>
<g opacity="0.88" filter="url(#filter19_f_2485_22181)">
<path d="M1061.75 75.8392C1061.44 76.6444 1061.94 77.7587 1062.76 78.0678C1061.94 77.7587 1060.81 78.2549 1060.49 79.0601C1060.81 78.2549 1060.3 77.1406 1059.48 76.8315C1060.3 77.1406 1061.44 76.6444 1061.75 75.8392Z" fill="white"/>
</g>
<g opacity="0.96" filter="url(#filter20_f_2485_22181)">
<path d="M1234.74 73.8828C1235.18 74.057 1235.8 73.8001 1235.98 73.3689C1235.8 73.8001 1236.06 74.4054 1236.5 74.5796C1236.06 74.4054 1235.45 74.6624 1235.27 75.0935C1235.45 74.6624 1235.18 74.057 1234.74 73.8828Z" fill="white"/>
</g>
<g opacity="0.86" filter="url(#filter21_f_2485_22181)">
<path d="M137.639 112.317C137.25 112.04 136.576 112.144 136.293 112.526C136.576 112.144 136.47 111.484 136.08 111.206C136.47 111.484 137.143 111.38 137.426 110.997C137.143 111.38 137.25 112.04 137.639 112.317Z" fill="white"/>
</g>
<g opacity="0.88" filter="url(#filter22_f_2485_22181)">
<path d="M312.852 108.691C312.026 108.534 311.039 109.186 310.879 109.996C311.039 109.186 310.374 108.219 309.548 108.062C310.374 108.219 311.36 107.567 311.521 106.757C311.36 107.567 312.026 108.534 312.852 108.691Z" fill="white"/>
</g>
<g opacity="0.8" filter="url(#filter23_f_2485_22181)">
<path d="M405.184 97.0074C404.391 96.7547 403.34 97.2796 403.083 98.0571C403.34 97.2796 402.805 96.2495 402.012 95.9969C402.805 96.2495 403.856 95.7246 404.113 94.9471C403.856 95.7246 404.391 96.7547 405.184 97.0074Z" fill="white"/>
</g>
<g filter="url(#filter24_f_2485_22181)">
<path d="M712.525 115.796C711.955 115.737 711.324 116.238 711.264 116.797C711.324 116.238 710.814 115.62 710.243 115.561C710.814 115.62 711.444 115.119 711.504 114.559C711.444 115.119 711.955 115.737 712.525 115.796Z" fill="white"/>
</g>
<g opacity="0.97" filter="url(#filter25_f_2485_22181)">
<path d="M789.208 111.519C789.413 110.649 788.731 109.579 787.844 109.378C788.731 109.579 789.822 108.91 790.027 108.04C789.822 108.91 790.504 109.98 791.391 110.181C790.504 109.98 789.413 110.649 789.208 111.519Z" fill="white"/>
</g>
<g opacity="0.94" filter="url(#filter26_f_2485_22181)">
<path d="M946.623 107.19C946.454 106.336 945.413 105.648 944.542 105.814C945.413 105.648 946.115 104.628 945.946 103.774C946.115 104.628 947.155 105.316 948.026 105.15C947.155 105.316 946.454 106.336 946.623 107.19Z" fill="white"/>
</g>
<g opacity="0.89" filter="url(#filter27_f_2485_22181)">
<path d="M1113.43 96.5511C1113.79 96.096 1113.69 95.2854 1113.23 94.9299C1113.69 95.2854 1114.52 95.1859 1114.88 94.7308C1114.52 95.1859 1114.62 95.9965 1115.09 96.352C1114.62 95.9965 1113.79 96.096 1113.43 96.5511Z" fill="white"/>
</g>
<g opacity="0.98" filter="url(#filter28_f_2485_22181)">
<path d="M113.829 152.047C113.946 151.589 113.595 151.016 113.127 150.902C113.595 151.016 114.179 150.672 114.295 150.213C114.179 150.672 114.53 151.245 114.997 151.359C114.53 151.245 113.946 151.589 113.829 152.047Z" fill="white"/>
</g>
<g opacity="0.79" filter="url(#filter29_f_2485_22181)">
<path d="M173.541 131.403C172.664 131.343 171.725 132.143 171.664 133.004C171.725 132.143 170.909 131.223 170.032 131.163C170.909 131.223 171.848 130.423 171.909 129.562C171.848 130.423 172.664 131.343 173.541 131.403Z" fill="white"/>
</g>
<g opacity="0.98" filter="url(#filter30_f_2485_22181)">
<path d="M380.355 133.177C381.145 133.356 382.118 132.76 382.3 131.986C382.118 132.76 382.725 133.714 383.515 133.893C382.725 133.714 381.753 134.31 381.57 135.084C381.753 134.31 381.145 133.356 380.355 133.177Z" fill="white"/>
</g>
<g opacity="0.72" filter="url(#filter31_f_2485_22181)">
<path d="M598.265 139.609C599.048 139.183 599.397 137.99 598.963 137.223C599.397 137.99 600.613 138.332 601.396 137.907C600.613 138.332 600.264 139.525 600.698 140.293C600.264 139.525 599.048 139.183 598.265 139.609Z" fill="white"/>
</g>
<g opacity="0.73" filter="url(#filter32_f_2485_22181)">
<path d="M902.93 141.596C902.309 141.362 901.449 141.737 901.21 142.346C901.449 141.737 901.066 140.894 900.445 140.66C901.066 140.894 901.926 140.519 902.164 139.91C901.926 140.519 902.309 141.362 902.93 141.596Z" fill="white"/>
</g>
<g opacity="0.93" filter="url(#filter33_f_2485_22181)">
<path d="M1070.32 131.048C1070.61 130.251 1070.1 129.165 1069.28 128.875C1070.1 129.165 1071.2 128.659 1071.5 127.862C1071.2 128.659 1071.72 129.745 1072.53 130.035C1071.72 129.745 1070.61 130.251 1070.32 131.048Z" fill="white"/>
</g>
<g opacity="0.71" filter="url(#filter34_f_2485_22181)">
<path d="M1150.27 148.636C1150.81 148.077 1150.77 146.996 1150.2 146.474C1150.77 146.996 1151.87 146.958 1152.4 146.398C1151.87 146.958 1151.91 148.039 1152.48 148.561C1151.91 148.039 1150.81 148.077 1150.27 148.636Z" fill="white"/>
</g>
<g opacity="0.92" filter="url(#filter35_f_2485_22181)">
<path d="M1.65399 150.704C1.90669 151.515 2.98591 152.078 3.81243 151.83C2.98591 152.078 2.41207 153.136 2.66477 153.946C2.41207 153.136 1.33286 152.573 0.506331 152.821C1.33286 152.573 1.90669 151.515 1.65399 150.704Z" fill="white"/>
</g>
<g opacity="0.8" filter="url(#filter36_f_2485_22181)">
<path d="M242.603 178.384C241.989 178.199 241.187 178.618 240.999 179.22C241.187 178.618 240.76 177.831 240.146 177.647C240.76 177.831 241.562 177.413 241.75 176.81C241.562 177.413 241.989 178.199 242.603 178.384Z" fill="white"/>
</g>
<g opacity="0.88" filter="url(#filter37_f_2485_22181)">
<path d="M391.415 169.829C391.354 169.262 390.715 168.754 390.137 168.814C390.715 168.754 391.233 168.128 391.172 167.561C391.233 168.128 391.872 168.635 392.45 168.576C391.872 168.635 391.354 169.262 391.415 169.829Z" fill="white"/>
</g>
<g opacity="0.91" filter="url(#filter38_f_2485_22181)">
<path d="M724.694 174.901C724.025 175.115 723.573 175.984 723.79 176.64C723.573 175.984 722.686 175.541 722.017 175.754C722.686 175.541 723.138 174.672 722.92 174.015C723.138 174.672 724.025 175.115 724.694 174.901Z" fill="white"/>
</g>
<g opacity="0.72" filter="url(#filter39_f_2485_22181)">
<path d="M906.754 178.857C906.871 179.446 907.588 179.92 908.189 179.806C907.588 179.92 907.104 180.624 907.221 181.213C907.104 180.624 906.387 180.149 905.786 180.264C906.387 180.149 906.871 179.446 906.754 178.857Z" fill="white"/>
</g>
<g opacity="0.83" filter="url(#filter40_f_2485_22181)">
<path d="M1048.83 158.503C1048.07 158.108 1046.92 158.456 1046.51 159.197C1046.92 158.456 1046.56 157.32 1045.81 156.925C1046.56 157.32 1047.72 156.972 1048.12 156.231C1047.72 156.972 1048.07 158.108 1048.83 158.503Z" fill="white"/>
</g>
<g opacity="0.97" filter="url(#filter41_f_2485_22181)">
<path d="M1187.49 167.862C1187.49 168.507 1188.15 169.152 1188.81 169.152C1188.15 169.152 1187.49 169.797 1187.49 170.442C1187.49 169.797 1186.84 169.152 1186.18 169.152C1186.84 169.152 1187.49 168.507 1187.49 167.862Z" fill="white"/>
</g>
<g opacity="0.97" filter="url(#filter42_f_2485_22181)">
<path d="M49.0646 209.002C48.2692 209.002 47.4737 209.782 47.4737 210.562C47.4737 209.782 46.6783 209.002 45.8828 209.002C46.6783 209.002 47.4737 208.222 47.4737 207.442C47.4737 208.222 48.2692 209.002 49.0646 209.002Z" fill="white"/>
</g>
<g opacity="0.73" filter="url(#filter43_f_2485_22181)">
<path d="M297.717 196.481C297.288 197.182 297.573 198.304 298.288 198.725C297.573 198.304 296.429 198.583 296 199.284C296.429 198.583 296.144 197.461 295.429 197.04C296.144 197.461 297.288 197.182 297.717 196.481Z" fill="white"/>
</g>
<g opacity="0.98" filter="url(#filter44_f_2485_22181)">
<path d="M425.075 187.053C424.684 187.342 424.588 188.014 424.882 188.398C424.588 188.014 423.902 187.92 423.511 188.209C423.902 187.92 423.998 187.247 423.704 186.864C423.998 187.247 424.684 187.342 425.075 187.053Z" fill="white"/>
</g>
<g opacity="0.8" filter="url(#filter45_f_2485_22181)">
<path d="M709.443 198.264C709.645 198.709 710.302 198.956 710.756 198.758C710.302 198.956 710.05 199.6 710.252 200.045C710.05 199.6 709.394 199.353 708.939 199.551C709.394 199.353 709.645 198.709 709.443 198.264Z" fill="white"/>
</g>
<g opacity="0.98" filter="url(#filter46_f_2485_22181)">
<path d="M750.535 209.709C750.398 209.209 749.752 208.843 749.242 208.977C749.752 208.843 750.125 208.21 749.988 207.71C750.125 208.21 750.771 208.576 751.281 208.442C750.771 208.576 750.398 209.209 750.535 209.709Z" fill="white"/>
</g>
<g opacity="0.77" filter="url(#filter47_f_2485_22181)">
<path d="M1013.61 183.734C1014.06 183.94 1014.72 183.704 1014.93 183.263C1014.72 183.704 1014.96 184.352 1015.41 184.558C1014.96 184.352 1014.3 184.588 1014.09 185.03C1014.3 184.588 1014.06 183.94 1013.61 183.734Z" fill="white"/>
</g>
<g opacity="0.98" filter="url(#filter48_f_2485_22181)">
<path d="M1106.26 200.405C1106.44 199.576 1105.78 198.571 1104.93 198.395C1105.78 198.571 1106.8 197.918 1106.98 197.089C1106.8 197.918 1107.47 198.924 1108.31 199.1C1107.47 198.924 1106.44 199.576 1106.26 200.405Z" fill="white"/>
</g>
<g opacity="0.78" filter="url(#filter49_f_2485_22181)">
<path d="M5.94737 212.763C6.25332 213.283 7.08917 213.503 7.61908 213.203C7.08917 213.503 6.8652 214.322 7.17115 214.842C6.8652 214.322 6.02935 214.103 5.49944 214.403C6.02935 214.103 6.25332 213.283 5.94737 212.763Z" fill="white"/>
</g>
<g opacity="0.94" filter="url(#filter50_f_2485_22181)">
<path d="M338.273 225.594C337.574 225.149 336.421 225.389 335.967 226.075C336.421 225.389 336.176 224.258 335.477 223.813C336.176 224.258 337.329 224.018 337.783 223.332C337.329 224.018 337.574 225.149 338.273 225.594Z" fill="white"/>
</g>
<g opacity="0.97" filter="url(#filter51_f_2485_22181)">
<path d="M455.931 238.426C456.265 238.766 456.947 238.777 457.293 238.449C456.947 238.777 456.935 239.446 457.269 239.785C456.935 239.446 456.253 239.434 455.907 239.762C456.253 239.434 456.265 238.766 455.931 238.426Z" fill="white"/>
</g>
<g opacity="0.8" filter="url(#filter52_f_2485_22181)">
<path d="M718.614 221.634C718.168 221.305 717.386 221.413 717.05 221.85C717.386 221.413 717.276 220.646 716.83 220.316C717.276 220.646 718.058 220.538 718.394 220.101C718.058 220.538 718.168 221.305 718.614 221.634Z" fill="white"/>
</g>
<g opacity="0.86" filter="url(#filter53_f_2485_22181)">
<path d="M875.39 218.376C875.2 218.986 875.632 219.782 876.254 219.968C875.632 219.782 874.82 220.205 874.63 220.815C874.82 220.205 874.389 219.409 873.767 219.223C874.389 219.409 875.2 218.986 875.39 218.376Z" fill="white"/>
</g>
<g opacity="0.84" filter="url(#filter54_f_2485_22181)">
<path d="M964.166 218.732C964.614 218.19 964.509 217.209 963.956 216.77C964.509 217.209 965.509 217.106 965.957 216.564C965.509 217.106 965.614 218.087 966.167 218.526C965.614 218.087 964.614 218.19 964.166 218.732Z" fill="white"/>
</g>
<g opacity="0.75" filter="url(#filter55_f_2485_22181)">
<path d="M1110.78 218.527C1111.37 219.217 1112.66 219.327 1113.36 218.749C1112.66 219.327 1112.55 220.595 1113.14 221.285C1112.55 220.595 1111.26 220.485 1110.55 221.063C1111.26 220.485 1111.37 219.217 1110.78 218.527Z" fill="white"/>
</g>
<g opacity="0.94" filter="url(#filter56_f_2485_22181)">
<path d="M9.59657 264.9C10.3822 265.15 11.4231 264.63 11.6783 263.86C11.4231 264.63 11.9534 265.651 12.739 265.901C11.9534 265.651 10.9125 266.171 10.6573 266.941C10.9125 266.171 10.3822 265.15 9.59657 264.9Z" fill="white"/>
</g>
<g opacity="0.79" filter="url(#filter57_f_2485_22181)">
<path d="M308.893 258.335C309.303 258.661 310.045 258.584 310.377 258.182C310.045 258.584 310.123 259.312 310.533 259.638C310.123 259.312 309.381 259.388 309.049 259.791C309.381 259.388 309.303 258.661 308.893 258.335Z" fill="white"/>
</g>
<g opacity="0.98" filter="url(#filter58_f_2485_22181)">
<path d="M408.713 254.179C409.134 254.538 409.922 254.484 410.288 254.071C409.922 254.484 409.977 255.256 410.399 255.615C409.977 255.256 409.19 255.31 408.823 255.724C409.19 255.31 409.134 254.538 408.713 254.179Z" fill="white"/>
</g>
<g filter="url(#filter59_f_2485_22181)">
<path d="M614.704 246.356C614.162 246.393 613.658 246.961 613.696 247.492C613.658 246.961 613.078 246.467 612.537 246.504C613.078 246.467 613.582 245.899 613.544 245.368C613.582 245.899 614.162 246.393 614.704 246.356Z" fill="white"/>
</g>
<g opacity="0.98" filter="url(#filter60_f_2485_22181)">
<path d="M802.039 254.356C802.754 254.777 803.898 254.498 804.327 253.797C803.898 254.498 804.183 255.619 804.898 256.04C804.183 255.619 803.039 255.899 802.61 256.6C803.039 255.899 802.754 254.777 802.039 254.356Z" fill="white"/>
</g>
<g opacity="0.77" filter="url(#filter61_f_2485_22181)">
<path d="M981.121 256.222C981.289 255.444 980.665 254.501 979.872 254.336C980.665 254.501 981.626 253.889 981.795 253.111C981.626 253.889 982.251 254.832 983.044 254.997C982.251 254.832 981.289 255.444 981.121 256.222Z" fill="white"/>
</g>
<g opacity="0.84" filter="url(#filter62_f_2485_22181)">
<path d="M1207.34 241.902C1207.45 242.486 1208.15 242.966 1208.74 242.863C1208.15 242.966 1207.66 243.653 1207.76 244.236C1207.66 243.653 1206.96 243.172 1206.36 243.275C1206.96 243.172 1207.45 242.486 1207.34 241.902Z" fill="white"/>
</g>
<g opacity="0.98" filter="url(#filter63_f_2485_22181)">
<path d="M41.5101 280.154C40.7823 280.583 40.4919 281.725 40.9291 282.439C40.4919 281.725 39.3269 281.44 38.5991 281.869C39.3269 281.44 39.6173 280.298 39.1801 279.584C39.6173 280.298 40.7823 280.583 41.5101 280.154Z" fill="white"/>
</g>
<g filter="url(#filter64_f_2485_22181)">
<path d="M288.843 284.393C288.77 283.941 288.236 283.56 287.775 283.632C288.236 283.56 288.624 283.037 288.551 282.585C288.624 283.037 289.158 283.417 289.619 283.346C289.158 283.417 288.77 283.941 288.843 284.393Z" fill="white"/>
</g>
<g opacity="0.92" filter="url(#filter65_f_2485_22181)">
<path d="M541.696 282.407C540.992 282.261 540.14 282.804 539.99 283.493C540.14 282.804 539.586 281.968 538.883 281.821C539.586 281.968 540.439 281.425 540.588 280.735C540.439 281.425 540.992 282.261 541.696 282.407Z" fill="white"/>
</g>
<g opacity="0.99" filter="url(#filter66_f_2485_22181)">
<path d="M728.037 275.691C727.231 275.774 726.509 276.648 726.594 277.438C726.509 276.648 725.618 275.94 724.812 276.023C725.618 275.94 726.34 275.066 726.255 274.276C726.34 275.066 727.231 275.774 728.037 275.691Z" fill="white"/>
</g>
<g opacity="0.74" filter="url(#filter67_f_2485_22181)">
<path d="M761.761 300.192C761.166 300.796 761.187 301.984 761.803 302.567C761.187 301.984 759.976 302.005 759.381 302.609C759.976 302.005 759.955 300.817 759.339 300.233C759.955 300.817 761.166 300.796 761.761 300.192Z" fill="white"/>
</g>
<g opacity="0.74" filter="url(#filter68_f_2485_22181)">
<path d="M1048.16 276.783C1048.53 276.267 1048.37 275.39 1047.85 275.029C1048.37 275.39 1049.27 275.235 1049.64 274.719C1049.27 275.235 1049.43 276.113 1049.95 276.474C1049.43 276.113 1048.53 276.267 1048.16 276.783Z" fill="white"/>
</g>
<g opacity="0.78" filter="url(#filter69_f_2485_22181)">
<path d="M1170.56 299.989C1170.16 300.548 1170.33 301.498 1170.9 301.89C1170.33 301.498 1169.36 301.666 1168.96 302.225C1169.36 301.666 1169.19 300.715 1168.62 300.324C1169.19 300.715 1170.16 300.548 1170.56 299.989Z" fill="white"/>
</g>
<g opacity="0.91" filter="url(#filter70_f_2485_22181)">
<path d="M138.562 320.384C138.491 321.183 139.235 322.053 140.05 322.123C139.235 322.053 138.348 322.782 138.277 323.582C138.348 322.782 137.604 321.913 136.789 321.843C137.604 321.913 138.491 321.183 138.562 320.384Z" fill="white"/>
</g>
<g opacity="0.75" filter="url(#filter71_f_2485_22181)">
<path d="M336.911 331.808C336.768 331.286 336.094 330.904 335.562 331.044C336.094 330.904 336.483 330.243 336.34 329.721C336.483 330.243 337.157 330.625 337.689 330.485C337.157 330.625 336.768 331.286 336.911 331.808Z" fill="white"/>
</g>
<g opacity="0.91" filter="url(#filter72_f_2485_22181)">
<path d="M527.682 305.342C528.462 305.234 529.132 304.362 529.023 303.597C529.132 304.362 530.022 305.019 530.802 304.912C530.022 305.019 529.352 305.892 529.461 306.657C529.352 305.892 528.462 305.234 527.682 305.342Z" fill="white"/>
</g>
<g opacity="0.91" filter="url(#filter73_f_2485_22181)">
<path d="M545.181 306.758C545.347 307.598 546.37 308.274 547.226 308.111C546.37 308.274 545.68 309.276 545.847 310.116C545.68 309.276 544.658 308.6 543.802 308.763C544.658 308.6 545.347 307.598 545.181 306.758Z" fill="white"/>
</g>
<g opacity="0.77" filter="url(#filter74_f_2485_22181)">
<path d="M820.326 334.326C820.038 333.747 819.159 333.45 818.567 333.732C819.159 333.45 819.461 332.587 819.173 332.007C819.461 332.587 820.341 332.884 820.932 332.601C820.341 332.884 820.038 333.747 820.326 334.326Z" fill="white"/>
</g>
<g opacity="0.85" filter="url(#filter75_f_2485_22181)">
<path d="M1035.44 317.525C1034.81 317.814 1034.48 318.721 1034.77 319.339C1034.48 318.721 1033.55 318.391 1032.92 318.679C1033.55 318.391 1033.89 317.484 1033.59 316.865C1033.89 317.484 1034.81 317.814 1035.44 317.525Z" fill="white"/>
</g>
<g opacity="0.85" filter="url(#filter76_f_2485_22181)">
<path d="M1209.88 323.097C1209.96 322.39 1209.33 321.596 1208.61 321.509C1209.33 321.596 1210.14 320.975 1210.23 320.268C1210.14 320.975 1210.77 321.769 1211.49 321.856C1210.77 321.769 1209.96 322.39 1209.88 323.097Z" fill="white"/>
</g>
<g opacity="0.74" filter="url(#filter77_f_2485_22181)">
<path d="M116.453 334.038C115.74 334.239 115.231 335.139 115.436 335.838C115.231 335.139 114.314 334.64 113.6 334.841C114.314 334.64 114.822 333.74 114.618 333.041C114.822 333.74 115.74 334.239 116.453 334.038Z" fill="white"/>
</g>
<g opacity="0.87" filter="url(#filter78_f_2485_22181)">
<path d="M229.758 358.536C229.046 358.362 228.156 358.886 227.978 359.585C228.156 358.886 227.621 358.013 226.908 357.839C227.621 358.013 228.511 357.489 228.689 356.79C228.511 357.489 229.046 358.362 229.758 358.536Z" fill="white"/>
</g>
<g opacity="0.94" filter="url(#filter79_f_2485_22181)">
<path d="M533.038 340.924C532.789 340.425 532.033 340.169 531.524 340.413C532.033 340.169 532.293 339.427 532.045 338.928C532.293 339.427 533.05 339.683 533.559 339.44C533.05 339.683 532.789 340.425 533.038 340.924Z" fill="white"/>
</g>
<g opacity="0.96" filter="url(#filter80_f_2485_22181)">
<path d="M700.305 354.945C700.124 355.658 700.67 356.549 701.397 356.727C700.67 356.549 699.761 357.084 699.58 357.798C699.761 357.084 699.215 356.193 698.488 356.016C699.215 356.193 700.124 355.658 700.305 354.945Z" fill="white"/>
</g>
<g opacity="0.92" filter="url(#filter81_f_2485_22181)">
<path d="M892.099 345.998C892.787 346.022 893.499 345.371 893.523 344.696C893.499 345.371 894.163 346.069 894.851 346.093C894.163 346.069 893.451 346.72 893.427 347.395C893.451 346.72 892.787 346.022 892.099 345.998Z" fill="white"/>
</g>
<g opacity="0.92" filter="url(#filter82_f_2485_22181)">
<path d="M999.661 351.064C999.299 350.336 998.194 349.963 997.452 350.318C998.194 349.963 998.574 348.88 998.212 348.152C998.574 348.88 999.679 349.253 1000.42 348.898C999.679 349.253 999.299 350.336 999.661 351.064Z" fill="white"/>
</g>
<g opacity="0.93" filter="url(#filter83_f_2485_22181)">
<path d="M1172.92 351.181C1172.54 351.433 1172.41 352.058 1172.67 352.431C1172.41 352.058 1171.77 351.936 1171.39 352.188C1171.77 351.936 1171.9 351.312 1171.64 350.939C1171.9 351.312 1172.54 351.433 1172.92 351.181Z" fill="white"/>
</g>
<circle opacity="0.8" cx="640" cy="283" r="143" fill="white"/>
<path d="M0 271.107H36.57V345.429L100.91 344.668V216.953H132.91V264.864L171.97 265.014V284.933H183.97V315.546L195.97 304.141L216.23 320.998V330.112C223.23 320.868 235.06 318.487 242.89 323.299C251.05 328.301 251.35 339.006 251.36 339.776L260.89 339.946C260.89 344.021 260.873 348.093 260.84 352.162L287 398.301L287.13 134.368L302.19 134.238V126.854H333.19L333.25 134.258L346.59 134.368V247.316L360.92 247.376C360.83 249.007 360.73 250.638 360.63 252.259L409.57 251.948L409.23 200.406L443.61 175.956L480.67 200.776C480.67 220.045 480.64 239.306 480.58 258.561C480.58 283.222 480.52 307.882 480.5 316.346C491.11 316.276 499.17 315.966 509.79 315.896C509.79 287.73 509.79 259.572 509.79 231.42H508.42V229.269L518.18 229.209L518.13 216.203H516.9V214.112H525.9C525.9 211.624 525.9 209.127 525.9 206.619H524.54V205.048L529.03 204.988V197.775H533.26C533.26 193.106 533.26 188.438 533.26 183.769H534.6V197.775H536.33C536.33 189.351 536.33 180.928 536.33 172.504H537.61C537.61 180.928 537.627 189.348 537.66 197.765L541.89 197.815L541.95 204.888H545.76V206.469H545.02V213.972H553.89C553.89 214.682 553.89 215.393 553.89 216.103H552.67C552.67 220.405 552.67 224.71 552.67 229.019L562.41 229.149C562.41 229.869 562.41 230.579 562.41 231.299H561.09V341.837H590.82C590.82 346.979 590.843 352.118 590.89 357.254L608.98 357.124V342.207V168.422L664.13 137.409V443.881L696.81 443.811C696.89 392.769 696.977 341.727 697.07 290.685C697.163 239.643 697.247 188.601 697.32 137.559L752.6 165.441C752.77 201.627 752.94 404.694 753.11 440.88C759.41 440.81 780.38 443.941 786.68 443.881C786.8 369.342 786.913 294.804 787.02 220.265L802.76 220.075L803.09 203.588L811.19 203.538L811.26 189.852L814.07 189.772V166.542H814.84C814.84 174.252 814.84 181.968 814.84 189.692H817.62C817.66 194.234 817.703 198.769 817.75 203.297L825.75 203.427L825.64 219.785L847.3 219.524V376.852H860.91V137.519L888.17 104.735V70L967.51 137.519V292.046H1063.51V192.463H1089.38V171.614H1186.9V189.111H1203.9V396.431H1241.39V368.128H1251.39V374.741H1280V720H0V271.107Z" fill="#5271CC"/>
<path d="M703.729 155.057H657.77V162.21H703.729V155.057Z" fill="#5271CC"/>
<path d="M703.729 178.209H657.77V185.363H703.729V178.209Z" fill="#5271CC"/>
<path d="M703.729 201.362H657.77V208.515H703.729V201.362Z" fill="#5271CC"/>
<path d="M703.729 224.516H657.77V231.669H703.729V224.516Z" fill="#5271CC"/>
<path d="M703.729 247.668H657.77V254.822H703.729V247.668Z" fill="#5271CC"/>
<path d="M703.729 270.821H657.77V277.974H703.729V270.821Z" fill="#5271CC"/>
<path d="M703.729 293.974H657.77V301.127H703.729V293.974Z" fill="#5271CC"/>
<path d="M703.729 364H657.77V371.153H703.729V364Z" fill="#5271CC"/>
<path d="M703.729 317.127H657.77V324.28H703.729V317.127Z" fill="#5271CC"/>
<path d="M703.729 387.153H657.77V394.306H703.729V387.153Z" fill="#5271CC"/>
<path d="M703.729 340.28H657.77V347.433H703.729V340.28Z" fill="#5271CC"/>
<path d="M703.729 410.306H657.77V417.459H703.729V410.306Z" fill="#5271CC"/>
<path d="M703.729 424.613H657.77V431.766H703.729V424.613Z" fill="#5271CC"/>
<path d="M860.91 137.741L888.17 104.978V482.349H861L860.91 137.741Z" fill="#6F8DEB"/>
<path d="M559.02 231.862H511.98V235.012H559.02V231.862Z" fill="#FD98FF"/>
<path d="M553.41 237.431H511.98V240.581H553.41V237.431Z" fill="#FD98FF"/>
<path d="M558 242.989H517.15V246.139H558V242.989Z" fill="#FD98FF"/>
<path d="M556.79 248.548H521.24V251.698H556.79V248.548Z" fill="#FD98FF"/>
<path d="M540.07 254.107H511.98V257.257H540.07V254.107Z" fill="#FD98FF"/>
<path d="M559.021 259.676H523.471V262.826H559.021V259.676Z" fill="#FD98FF"/>
<path d="M342.17 246.169V138.891H337.01V246.169H342.17Z" fill="#88B8FF"/>
<path d="M474 309V209H469V309H474Z" fill="#CAFF94"/>
<path d="M333.061 233.351V138.881H327.901V233.351H333.061Z" fill="#88B8FF"/>
<path d="M465 296V238H459V296H465Z" fill="#CAFF94"/>
<path d="M323.93 243.839V150.679H318.77V243.839H323.93Z" fill="#88B8FF"/>
<path d="M455.51 295.161V202H450.35V295.161H455.51Z" fill="#CAFF94"/>
<path d="M314.82 241.059V159.986H309.66V241.059H314.82Z" fill="#88B8FF"/>
<path d="M446 283V206H441V283H446Z" fill="#CAFF94"/>
<path d="M305.689 202.938V138.891H300.529V202.938H305.689Z" fill="#88B8FF"/>
<path d="M437.27 266.047V202H432.11V266.047H437.27Z" fill="#CAFF94"/>
<path d="M296.58 246.159V165.085H291.42V246.159H296.58Z" fill="#88B8FF"/>
<path d="M428 283V215H423V283H428Z" fill="#CAFF94"/>
<path d="M419 313V202H414V313H419Z" fill="#CAFF94"/>
<path d="M0 429.334H121.1C121.365 429.334 121.62 429.44 121.807 429.627C121.995 429.815 122.1 430.069 122.1 430.334V482C122.1 482.265 122.205 482.519 122.393 482.707C122.58 482.894 122.835 483 123.1 483H131.87C132.135 483 132.39 482.894 132.577 482.707C132.765 482.519 132.87 482.265 132.87 482V443.758C132.87 443.493 132.975 443.238 133.163 443.051C133.35 442.863 133.605 442.758 133.87 442.758H167C167.265 442.758 167.52 442.653 167.707 442.465C167.895 442.278 168 442.024 168 441.759V429.664C168 429.399 168.105 429.145 168.293 428.957C168.48 428.77 168.735 428.665 169 428.665H196C196.265 428.665 196.52 428.559 196.707 428.372C196.895 428.184 197 427.93 197 427.665V410.713C197 410.448 197.105 410.194 197.293 410.006C197.48 409.819 197.735 409.713 198 409.713H207.2C207.465 409.713 207.72 409.608 207.907 409.421C208.095 409.233 208.2 408.979 208.2 408.714V380.347C208.2 380.082 208.305 379.828 208.493 379.64C208.68 379.453 208.935 379.347 209.2 379.347H212.49C212.755 379.347 213.01 379.242 213.197 379.055C213.385 378.867 213.49 378.613 213.49 378.348C213.53 371.285 213.573 364.214 213.62 357.138C213.62 356.873 213.725 356.618 213.913 356.431C214.1 356.244 214.355 356.138 214.62 356.138H218.94C219.205 356.138 219.46 356.033 219.647 355.845C219.835 355.658 219.94 355.404 219.94 355.139L220 350.831C220 350.566 220.105 350.311 220.293 350.124C220.48 349.936 220.735 349.831 221 349.831L312.89 349.701C312.89 351.8 312.89 353.899 312.89 355.998H317.68L317.77 379.288H325.35C325.615 379.288 325.87 379.393 326.057 379.58C326.245 379.768 326.35 380.022 326.35 380.287V395.28H365.09L364.91 446.546L390.91 446.626V362.165L404.65 362.085L404.74 357.408L421.5 357.318V362.255L429.08 362.335L429.21 385.775L468.57 385.854C468.57 387.044 468.57 388.243 468.57 389.433L463 389.513V428.495L478.57 428.375C478.63 389.16 478.687 349.948 478.74 310.739L476.74 310.849V309H502.08C502.08 309.57 502.08 310.129 502.13 310.699L500.05 310.869L500.26 316.207L533.26 316.147L533.58 467.477L558.58 467.397C560.647 459.68 562.71 451.964 564.77 444.247C566.83 436.531 568.897 428.815 570.97 421.098C575.59 421.045 580.237 421.008 584.91 420.988H595.22C595.22 408.994 595.22 396.963 595.22 384.895L619.94 384.775V369.102H617.03V367.553H622.03V342.335H622.96L623 367.553H627V362.645H628.25C628.25 364.284 628.25 365.924 628.25 367.573H640.4C640.4 368.133 640.4 368.682 640.4 369.232H637.63L637.69 384.755H642.13C642.203 400.594 642.27 416.437 642.33 432.283L679.75 432.523C679.75 413.865 679.723 395.207 679.67 376.549L716.21 376.479V467.547L725.74 467.207C725.88 438.953 726.023 410.703 726.17 382.456H743L758.59 386.004C758.816 386.055 759.017 386.183 759.159 386.365C759.301 386.547 759.376 386.773 759.37 387.004V389.593C759.37 389.858 759.475 390.112 759.663 390.3C759.85 390.487 760.105 390.592 760.37 390.592H777.6H777.87L790.52 394.261C790.734 394.323 790.922 394.455 791.052 394.636C791.183 394.817 791.249 395.037 791.24 395.26V450.105L822.05 450.445V395.15L880.35 394.81L880.52 471.455L894.73 471.545C894.73 439.266 894.73 406.991 894.73 374.72C894.73 374.455 894.835 374.2 895.023 374.013C895.21 373.825 895.465 373.72 895.73 373.72L955.23 373.82C955.495 373.82 955.75 373.925 955.937 374.113C956.125 374.3 956.23 374.554 956.23 374.82V470.116C966.97 470.215 964.05 470.315 974.79 470.415L974.92 453.823H1027V470.925C1038 470.655 1033.84 470.385 1044.8 470.126V411.083C1044.8 410.818 1044.91 410.563 1045.09 410.376C1045.28 410.189 1045.53 410.083 1045.8 410.083H1116.39C1116.66 410.083 1116.91 410.189 1117.1 410.376C1117.28 410.563 1117.39 410.818 1117.39 411.083V435.072C1117.39 435.337 1117.5 435.591 1117.68 435.778C1117.87 435.966 1118.12 436.071 1118.39 436.071H1163.39C1163.66 436.071 1163.91 435.966 1164.1 435.778C1164.28 435.591 1164.39 435.337 1164.39 435.072V389.813C1164.39 389.548 1164.5 389.293 1164.68 389.106C1164.87 388.918 1165.12 388.813 1165.39 388.813H1214.39C1214.66 388.813 1214.91 388.918 1215.1 389.106C1215.28 389.293 1215.39 389.548 1215.39 389.813V432.003C1215.39 432.268 1215.5 432.522 1215.68 432.71C1215.87 432.897 1216.12 433.003 1216.39 433.003H1240.39C1240.66 433.003 1240.91 432.897 1241.1 432.71C1241.28 432.522 1241.39 432.268 1241.39 432.003V431.004C1241.39 430.739 1241.5 430.484 1241.68 430.297C1241.87 430.109 1242.12 430.004 1242.39 430.004H1250.39C1250.66 430.004 1250.91 429.899 1251.1 429.711C1251.28 429.524 1251.39 429.27 1251.39 429.005V424.007C1251.39 423.742 1251.5 423.488 1251.68 423.3C1251.87 423.113 1252.12 423.007 1252.39 423.007H1280V720H0V429.334Z" fill="#1F3E99"/>
<g opacity="0.6">
<path d="M905 379H900V386H905V379Z" fill="#FFCC80"/>
<path d="M905 390H900V399H905V390Z" fill="#FFCC80"/>
<path d="M905 403H900V410H905V403Z" fill="#FFCC80"/>
<path d="M905 415H900V422H905V415Z" fill="#FFCC80"/>
<path d="M920 379H916V386H920V379Z" fill="#FFCC80"/>
<path d="M920 390H916V399H920V390Z" fill="#FFCC80"/>
<path d="M920 403H916V410H920V403Z" fill="#FFCC80"/>
<path d="M920 415H916V422H920V415Z" fill="#FFCC80"/>
<path d="M936 379H931V386H936V379Z" fill="#FFCC80"/>
<path d="M936 390H931V399H936V390Z" fill="#FFCC80"/>
<path d="M936 403H931V410H936V403Z" fill="#FFCC80"/>
<path d="M936 415H931V422H936V415Z" fill="#FFCC80"/>
<path d="M951 379H946V386H951V379Z" fill="#FFCC80"/>
<path d="M951 390H946V399H951V390Z" fill="#FFCC80"/>
<path d="M951 403H946V410H951V403Z" fill="#FFCC80"/>
<path d="M951 415H946V422H951V415Z" fill="#FFCC80"/>
<path d="M905 428H900V435H905V428Z" fill="#FFCC80"/>
<path d="M905 440H900V447H905V440Z" fill="#FFCC80"/>
<path d="M905 452H900V460H905V452Z" fill="#FFCC80"/>
<path d="M905 465H900V472H905V465Z" fill="#FFCC80"/>
<path d="M920 428H916V435H920V428Z" fill="#FFCC80"/>
<path d="M920 440H916V447H920V440Z" fill="#FFCC80"/>
<path d="M920 452H916V460H920V452Z" fill="#FFCC80"/>
<path d="M920 465H916V472H920V465Z" fill="#FFCC80"/>
<path d="M936 428H931V435H936V428Z" fill="#FFCC80"/>
<path d="M936 440H931V447H936V440Z" fill="#FFCC80"/>
<path d="M936 452H931V460H936V452Z" fill="#FFCC80"/>
<path d="M936 465H931V472H936V465Z" fill="#FFCC80"/>
<path d="M951 428H946V435H951V428Z" fill="#FFCC80"/>
<path d="M951 440H946V447H951V440Z" fill="#FFCC80"/>
<path d="M951 452H946V460H951V452Z" fill="#FFCC80"/>
<path d="M951 465H946V472H951V465Z" fill="#FFCC80"/>
<path d="M524.269 356.086H528.459V350.607H524.269V356.086Z" fill="#FFCC80"/>
<path d="M524.269 346.818H528.459V341.339H524.269V346.818Z" fill="#FFCC80"/>
<path d="M524.269 337.55H528.459V332.071H524.269V337.55Z" fill="#FFCC80"/>
<path d="M524.269 328.282H528.459V322.803H524.269V328.282Z" fill="#FFCC80"/>
<path d="M510.83 356.086H515.02V350.607H510.83V356.086Z" fill="#FFCC80"/>
<path d="M510.83 346.818H515.02V341.339H510.83V346.818Z" fill="#FFCC80"/>
<path d="M510.83 337.55H515.02V332.071H510.83V337.55Z" fill="#FFCC80"/>
<path d="M510.83 328.282H515.02V322.803H510.83V328.282Z" fill="#FFCC80"/>
<path d="M497.371 356.086H501.561V350.607H497.371V356.086Z" fill="#FFCC80"/>
<path d="M497.371 346.818H501.561V341.339H497.371V346.818Z" fill="#FFCC80"/>
<path d="M497.371 337.55H501.561V332.071H497.371V337.55Z" fill="#FFCC80"/>
<path d="M497.371 328.282H501.561V322.803H497.371V328.282Z" fill="#FFCC80"/>
<path d="M483.919 356.086H488.109V350.607H483.919V356.086Z" fill="#FFCC80"/>
<path d="M483.919 346.818H488.109V341.339H483.919V346.818Z" fill="#FFCC80"/>
<path d="M483.919 337.55H488.109V332.071H483.919V337.55Z" fill="#FFCC80"/>
<path d="M483.919 328.282H488.109V322.803H483.919V328.282Z" fill="#FFCC80"/>
<path d="M524.269 392.978H528.459V387.499H524.269V392.978Z" fill="#FFCC80"/>
<path d="M524.269 383.71H528.459V378.231H524.269V383.71Z" fill="#FFCC80"/>
<path d="M524.269 374.442H528.459V368.963H524.269V374.442Z" fill="#FFCC80"/>
<path d="M524.269 365.174H528.459V359.695H524.269V365.174Z" fill="#FFCC80"/>
<path d="M510.83 392.978H515.02V387.499H510.83V392.978Z" fill="#FFCC80"/>
<path d="M510.83 383.71H515.02V378.231H510.83V383.71Z" fill="#FFCC80"/>
<path d="M510.83 374.442H515.02V368.963H510.83V374.442Z" fill="#FFCC80"/>
<path d="M510.83 365.174H515.02V359.695H510.83V365.174Z" fill="#FFCC80"/>
<path d="M497.371 392.978H501.561V387.499H497.371V392.978Z" fill="#FFCC80"/>
<path d="M497.371 383.71H501.561V378.231H497.371V383.71Z" fill="#FFCC80"/>
<path d="M497.371 374.442H501.561V368.963H497.371V374.442Z" fill="#FFCC80"/>
<path d="M497.371 365.174H501.561V359.695H497.371V365.174Z" fill="#FFCC80"/>
<path d="M483.919 392.978H488.109V387.499H483.919V392.978Z" fill="#FFCC80"/>
<path d="M483.919 383.71H488.109V378.231H483.919V383.71Z" fill="#FFCC80"/>
<path d="M483.919 374.442H488.109V368.963H483.919V374.442Z" fill="#FFCC80"/>
<path d="M483.919 365.174H488.109V359.695H483.919V365.174Z" fill="#FFCC80"/>
<path d="M524.269 430.39H528.459V424.911H524.269V430.39Z" fill="#FFCC80"/>
<path d="M524.269 421.122H528.459V415.643H524.269V421.122Z" fill="#FFCC80"/>
<path d="M524.269 411.854H528.459V406.375H524.269V411.854Z" fill="#FFCC80"/>
<path d="M524.269 402.586H528.459V397.107H524.269V402.586Z" fill="#FFCC80"/>
<path d="M510.83 430.39H515.02V424.911H510.83V430.39Z" fill="#FFCC80"/>
<path d="M510.83 421.122H515.02V415.643H510.83V421.122Z" fill="#FFCC80"/>
<path d="M510.83 411.854H515.02V406.375H510.83V411.854Z" fill="#FFCC80"/>
<path d="M510.83 402.586H515.02V397.107H510.83V402.586Z" fill="#FFCC80"/>
<path d="M497.371 430.39H501.561V424.911H497.371V430.39Z" fill="#FFCC80"/>
<path d="M497.371 421.122H501.561V415.643H497.371V421.122Z" fill="#FFCC80"/>
<path d="M497.371 411.854H501.561V406.375H497.371V411.854Z" fill="#FFCC80"/>
<path d="M497.371 402.586H501.561V397.107H497.371V402.586Z" fill="#FFCC80"/>
<path d="M483.919 430.39H488.109V424.911H483.919V430.39Z" fill="#FFCC80"/>
<path d="M483.919 421.122H488.109V415.643H483.919V421.122Z" fill="#FFCC80"/>
<path d="M483.919 411.854H488.109V406.375H483.919V411.854Z" fill="#FFCC80"/>
<path d="M483.919 402.586H488.109V397.107H483.919V402.586Z" fill="#FFCC80"/>
<path d="M524.269 467.283H528.459V461.804H524.269V467.283Z" fill="#FFCC80"/>
<path d="M524.269 458.015H528.459V452.536H524.269V458.015Z" fill="#FFCC80"/>
<path d="M524.269 448.747H528.459V443.268H524.269V448.747Z" fill="#FFCC80"/>
<path d="M524.269 439.479H528.459V434H524.269V439.479Z" fill="#FFCC80"/>
<path d="M510.83 467.283H515.02V461.804H510.83V467.283Z" fill="#FFCC80"/>
<path d="M510.83 458.015H515.02V452.536H510.83V458.015Z" fill="#FFCC80"/>
<path d="M510.83 448.747H515.02V443.268H510.83V448.747Z" fill="#FFCC80"/>
<path d="M510.83 439.479H515.02V434H510.83V439.479Z" fill="#FFCC80"/>
<path d="M497.371 467.283H501.561V461.804H497.371V467.283Z" fill="#FFCC80"/>
<path d="M497.371 458.015H501.561V452.536H497.371V458.015Z" fill="#FFCC80"/>
<path d="M497.371 448.747H501.561V443.268H497.371V448.747Z" fill="#FFCC80"/>
<path d="M497.371 439.479H501.561V434H497.371V439.479Z" fill="#FFCC80"/>
<path d="M483.919 467.283H488.109V461.804H483.919V467.283Z" fill="#FFCC80"/>
<path d="M483.919 458.015H488.109V452.536H483.919V458.015Z" fill="#FFCC80"/>
<path d="M483.919 448.747H488.109V443.268H483.919V448.747Z" fill="#FFCC80"/>
<path d="M483.919 439.479H488.109V434H483.919V439.479Z" fill="#FFCC80"/>
</g>
<path d="M1280 564.233H1158.9C1158.35 564.233 1157.9 564.473 1157.9 564.773V592.457C1157.9 592.757 1157.45 592.997 1156.9 592.997H1148.13C1147.57 592.997 1147.13 592.757 1147.13 592.457V571.961C1147.13 571.671 1146.69 571.431 1146.13 571.431H1113C1112.45 571.431 1112 571.191 1112 570.891V564.413C1112 564.113 1111.55 563.873 1111 563.873H1084C1083.45 563.873 1083 563.633 1083 563.343V554.255C1083 553.955 1082.55 553.715 1082 553.715H1072.8C1072.25 553.715 1071.8 553.475 1071.8 553.185V537.978C1071.8 537.688 1071.35 537.448 1070.8 537.448H954.65C954.1 537.448 953.65 537.688 953.65 537.978V545.467C953.65 545.767 953.2 546.006 952.65 546.006H894.43C893.88 546.006 893.43 546.246 893.43 546.536V578.01C893.43 578.31 892.98 578.55 892.43 578.55H864.88C864.32 578.55 863.88 578.31 863.88 578.01V560.763C863.88 560.463 863.43 560.224 862.88 560.224H764.46C763.9 560.224 763.46 560.463 763.46 560.763V571.671C763.46 571.961 763.02 572.201 762.46 572.201H732.69C732.13 572.201 731.69 571.961 731.69 571.671V561.883C731.69 561.583 731.25 561.343 730.69 561.343H668.09C667.54 561.343 667.09 561.583 667.09 561.883V586.488C667.09 586.778 666.64 587.018 666.09 587.018H612.4C611.85 587.018 611.4 586.778 611.4 586.488V539.668C611.4 539.378 610.96 539.138 610.4 539.138H537L521.4 541.038C520.95 541.098 520.62 541.307 520.62 541.557V542.947C520.62 543.247 520.18 543.487 519.62 543.487H502.41C502.317 543.477 502.223 543.477 502.13 543.487L489.49 545.487C489.06 545.547 488.77 545.757 488.77 545.996V573.991C488.77 574.291 488.32 574.531 487.77 574.531H468.64C468.09 574.531 467.64 574.77 467.64 575.06V582.879C467.64 583.179 467.19 583.419 466.64 583.419H393.22C392.67 583.419 392.22 583.179 392.22 582.879V531.639C392.22 531.34 391.77 531.1 391.22 531.1H324.83C324.27 531.1 323.83 531.34 323.83 531.639V586.098C323.83 586.398 323.39 586.638 322.83 586.638H236.24C235.69 586.638 235.24 586.398 235.24 586.098V554.455C235.24 554.155 234.79 553.915 234.24 553.915H163.65C163.1 553.915 162.65 554.155 162.65 554.455V567.302C162.65 567.602 162.2 567.842 161.65 567.842H116.65C116.09 567.842 115.65 567.602 115.65 567.302V543.057C115.65 542.757 115.21 542.517 114.65 542.517H65.65C65.09 542.517 64.65 542.757 64.65 543.057V565.662C64.65 565.962 64.21 566.202 63.65 566.202H39.63C39.08 566.202 38.63 565.962 38.63 565.662V565.112C38.63 564.813 38.18 564.573 37.63 564.573H29.63C29.07 564.573 28.63 564.333 28.63 564.043V561.353C28.63 561.063 28.18 560.823 27.63 560.823H0V720H1280V564.233Z" fill="#00175C"/>
<path d="M1146.26 668.909C1146.26 668.909 1099.26 657.954 1030.26 629.892C1023.54 627.151 1023.26 627.021 1023.26 627.021C1021.1 625.78 1020.19 624.87 1018.73 625.1C1016.82 625.4 1016.34 627.271 1014.32 627.461C1013.2 627.504 1012.1 627.15 1011.21 626.461C1010.82 626.211 1015.76 629.462 996.9 620.328C984.3 614.226 984.62 613.995 982.59 613.695C977.24 612.895 975.86 614.626 970.75 613.525C965.37 612.355 962.04 609.374 959.93 607.733C954.72 603.731 951.86 603.901 921.68 596.668C901.55 591.836 902.6 591.666 898.94 591.346C886.35 590.175 886.16 593.077 868.72 592.807C856.18 592.626 851.82 591.056 842.65 593.447C838.422 594.626 834.282 596.1 830.26 597.859C822.36 601.36 820.56 603.561 815.03 605.432C809.5 607.303 805.6 607.072 799.27 607.052C780.92 606.972 763.27 607.052 751.1 612.455C747.159 614.254 743.344 616.316 739.68 618.627C735.12 621.629 734.07 622.889 731.21 624.8C722.59 630.562 713.3 631.233 710.4 631.443C700.16 632.183 700.67 628.441 689.32 629.212C683.41 629.592 680.22 630.803 672.64 630.552C669.376 630.46 666.124 630.126 662.91 629.552C663.101 628.52 663.101 627.462 662.91 626.431C662.53 624.43 661.64 623.95 661.16 621.679C660.982 620.618 660.902 619.543 660.92 618.467C660.87 616.697 660.92 615.376 660.98 615.016C661.203 609.672 660.989 604.318 660.34 599.009C660.194 597.226 659.93 595.455 659.55 593.707C658.95 591.706 658.17 590.265 658.33 588.085C658.33 587.584 658.48 586.814 658.59 586.174C658.761 585.16 658.995 584.157 659.29 583.172C659.6 582.112 659.65 581.032 659.29 574.609C658.85 567.746 658.8 569.117 658.8 567.776C658.938 566.117 658.778 564.447 658.33 562.844C658.03 561.954 657.75 561.523 657.33 560.143C657.006 559.101 656.771 558.033 656.63 556.951C656.37 554.741 656.93 553.73 657.18 551.629C657.29 550.699 657.27 550.129 656.8 545.707C655.86 537.043 655.72 537.383 655.8 535.873C655.95 532.131 656.74 532.231 656.7 528.429C656.7 526.028 656.34 524.938 657.06 523.427C657.86 521.787 659.06 521.577 661.06 520.006C663.8 517.925 663.64 516.825 666.99 513.143C668.84 511.142 668.33 512.053 672.56 507.971C674.88 505.74 678.07 502.529 681.16 499.547C682.31 498.437 682.5 498.267 682.74 498.077C684.48 496.696 685.51 496.536 686.11 495.356C686.409 494.839 686.529 494.237 686.45 493.645C686.377 493.425 686.317 493.201 686.27 492.975C686.27 492.164 687.27 491.514 687.56 491.304C689.66 489.853 690.97 486.002 690.56 483.13C690.49 482.62 690.32 481.33 689.76 481.22C688.51 480.969 686.63 486.922 685.32 486.622C685.04 486.562 684.86 486.232 684.77 486.072C684.35 485.331 684.89 484.691 684.47 483.811C684.4 483.671 684.2 483.25 683.96 483.26C683.51 483.26 683.22 484.781 683.07 485.561C682.661 487.601 682.103 489.607 681.4 491.564C680.69 493.255 679.62 493.425 672.83 497.076C670.72 498.217 668.83 499.347 664.94 501.608C662.891 502.776 660.965 504.147 659.19 505.7C658.83 506.07 658.41 506.45 657.56 507.231C656.71 508.011 656.38 508.231 656.13 508.381C655.53 508.631 655.28 508.481 653.6 508.381C651.7 508.311 651.29 508.471 650.82 508.061C650.411 507.632 650.182 507.063 650.18 506.47C650.196 505.701 650.384 504.946 650.73 504.259C651.181 503.277 651.439 502.218 651.49 501.138C651.42 500.138 651.01 500.208 650.66 498.617C650.31 497.026 650.66 496.816 650.22 496.056C649.78 495.295 649.45 495.446 648.68 494.435C648.2 493.785 648.12 493.505 647.85 493.125C647.005 492.134 645.814 491.504 644.52 491.364C643.472 491.194 642.398 491.28 641.39 491.615C640.382 491.949 639.469 492.522 638.73 493.285C637.985 493.947 637.464 494.824 637.24 495.796C637.202 496.237 637.084 496.668 636.89 497.066C636.744 497.36 636.559 497.632 636.34 497.877C635.943 498.435 635.607 499.036 635.34 499.667C635.07 500.278 634.34 501.868 635.04 503.069C635.34 503.609 635.57 503.469 635.89 504.069C636.175 504.545 636.306 505.098 636.265 505.651C636.223 506.205 636.012 506.732 635.66 507.16C635.25 507.491 634.87 507.361 634.42 507.841C633.97 508.321 634.12 508.501 633.93 508.751C633.37 509.541 631.5 508.931 629.5 508.671C626.45 508.271 626.16 509.091 624.39 508.531C622.62 507.971 622.09 506.84 620.53 505.43C617.29 502.519 615.75 504.029 611.01 501.188C607.01 498.797 607.44 497.336 603.76 495.756C602.289 495.172 600.887 494.427 599.58 493.535C598.514 492.938 597.598 492.107 596.9 491.104C596.181 489.932 595.711 488.624 595.52 487.262C595.538 486.878 595.479 486.495 595.346 486.134C595.214 485.773 595.011 485.443 594.75 485.161C594.63 485.071 594.41 484.901 594.24 484.971C593.64 485.201 594.42 487.742 593.85 487.972C593.52 488.122 592.85 487.392 592.51 486.972C590 484.081 588.75 482.64 588.19 482.8C587.04 483.12 586.65 489.743 589.33 491.874C590.46 492.764 591.33 493.975 592.59 494.675C592.763 494.749 592.917 494.859 593.045 494.997C593.172 495.135 593.27 495.298 593.33 495.476C593.42 495.946 593.02 496.186 593.02 496.676C593.02 497.166 593.53 497.626 594.11 498.077C594.888 498.611 595.723 499.058 596.6 499.407C596.91 499.557 597.35 499.807 598.23 500.318C601.48 502.178 604.47 503.879 606.95 506.7C607.783 507.834 608.692 508.91 609.67 509.922C610.707 510.889 611.852 511.734 613.08 512.443C616.06 514.319 618.874 516.448 621.49 518.805C625.55 522.257 626.41 523.807 626.88 525.088C627.252 526.239 627.5 527.426 627.62 528.63C628.026 531.371 628.269 534.133 628.35 536.903C628.494 541.868 628.197 546.837 627.46 551.749C627.01 554.66 626.9 554.31 626.46 557.182C625.886 561.188 625.598 565.23 625.6 569.277C625.49 576.96 625.84 583.433 625.92 584.793C626.29 591.376 626.72 593.897 625.92 597.799C625.77 598.529 625.35 600.43 624.92 603.161C624.518 605.245 624.304 607.361 624.28 609.484C624.28 612.145 624.7 612.115 624.72 614.946C624.883 616.938 624.655 618.943 624.05 620.848C623.43 622.559 622.85 622.849 621.95 625.16C621.498 626.309 621.143 627.493 620.89 628.702C617.17 628.882 612.21 628.892 608.59 627.941C607.24 627.581 605.59 627.111 605.59 627.111C602.92 626.321 602.04 625.97 600.22 625.45C598.681 624.98 597.115 624.606 595.53 624.33C590.61 623.629 589.36 626.681 582.94 627.491C581.08 627.731 578.81 627.561 574.25 627.241C569.69 626.921 568.69 626.541 565.82 626.661C562.95 626.781 562.6 627.181 557.99 628.031C555.62 628.472 552.23 628.872 545.44 629.662C542.266 630.121 539.066 630.388 535.86 630.462C534.014 630.496 532.168 630.422 530.33 630.242C527.98 629.992 527.16 629.702 524.8 629.572C523.355 629.467 521.905 629.467 520.46 629.572C518.047 629.822 515.663 630.301 513.34 631.003C509.25 632.103 509.67 632.233 507.91 632.603C507.02 632.783 504.82 633.193 497.91 632.693C492.44 632.303 492.73 631.963 489.33 631.863C486.176 631.736 483.018 631.95 479.91 632.503C476.08 633.223 476.04 633.834 471.03 634.994C468.24 635.681 465.402 636.153 462.54 636.405C456.4 636.905 456.08 635.775 452.31 636.595C447.93 637.595 448.03 639.156 443.37 640.106C439.59 640.867 439.13 639.896 435.37 640.697C430.73 641.697 431.02 643.308 427.2 644.128C421.92 645.259 420.36 642.407 414.68 643.678C412.551 644.32 410.494 645.178 408.54 646.239C404.73 648.05 401.7 649.78 399.63 651.021C398.679 651.461 397.668 651.758 396.63 651.901C395.153 652.078 393.656 651.969 392.22 651.581C390.58 651.201 388.22 651.391 383.6 651.791C377.69 652.292 372.67 653.232 369.68 653.792C365.59 654.522 359.68 655.513 352.27 656.473C348.75 657.244 343.49 658.314 337.04 659.344C333.24 659.955 330.42 660.345 327.88 660.645C304.38 663.646 301.14 664.076 296.54 664.727C289.36 665.727 289.3 665.907 277.14 667.838C269.23 669.099 257.92 670.839 244.04 672.75L230.56 674.261L212.42 675.401L186.96 676.172L157.77 677.752L104.66 681.374L42.43 685.636L0 688.987C0 699.301 0 709.716 0 720C187.173 720 374.357 720 561.55 720H1280V678.783C1219 682.714 1173.68 675.301 1146.26 668.909ZM632.26 628.552C632.286 627.617 632.263 626.682 632.19 625.75C632.098 624.677 631.938 623.612 631.71 622.559C630.99 619.118 633.2 615.046 633.78 608.483C634.18 603.981 633.37 603.481 634.23 600.12C634.61 598.629 635.06 597.589 636.05 594.207C636.58 592.386 636.98 590.876 637.24 589.855C637.762 589.618 638.215 589.253 638.56 588.795C639.18 587.944 639.11 587.104 639.16 584.193C639.146 583.171 639.189 582.149 639.29 581.132C639.509 579.951 639.844 578.795 640.29 577.68C641.44 574.229 641.29 573.158 641.7 573.128C642.7 573.048 643.91 580.631 644.38 583.603C644.627 584.705 644.698 585.84 644.59 586.964C644.43 588.055 644.11 588.565 644.38 589.085C644.65 589.605 645.44 590.085 647.49 589.945C648.796 592.427 649.829 595.044 650.57 597.749C651.57 601.39 651.11 602.01 652.39 607.603C653 610.294 653.33 611.174 654.05 614.606C654.72 617.847 655.05 619.488 654.94 620.608C654.72 622.849 653.94 624.07 653.94 626.991C653.949 627.805 654.019 628.618 654.15 629.422C652.71 628.838 651.189 628.477 649.64 628.351C647.01 628.141 646.29 628.782 643 628.732C640.65 628.732 640.38 628.371 637.67 628.271C635.845 628.214 634.019 628.308 632.21 628.552H632.26Z" fill="#080014"/>
<path d="M1108.62 84.8436C1104.32 85.5317 1100.1 86.7043 1096.06 88.3363C1093.64 89.265 1091.7 90.1625 1090.37 90.8138L1065.98 109.536L1058.91 115.558C1058.29 116.899 1057.97 118.337 1057.97 119.783C1057.93 121.502 1058.38 123.186 1059.27 124.655C1059.99 125.793 1060.96 126.759 1062.13 127.483L1067.46 126.057L1068.29 129.161C1068.47 129.856 1068.94 130.444 1069.6 130.795C1070.25 131.147 1071.03 131.233 1071.77 131.036L1085.88 127.255C1086.62 127.057 1087.25 126.592 1087.64 125.961C1088.03 125.33 1088.14 124.585 1087.96 123.89L1087.05 120.498L1117.12 112.441L1118.17 116.37C1118.36 117.065 1118.83 117.653 1119.48 118.004C1120.13 118.356 1120.92 118.442 1121.65 118.245L1136.24 114.337C1136.97 114.14 1137.61 113.674 1138 113.043C1138.39 112.412 1138.5 111.667 1138.31 110.973L1136.69 104.895L1157.13 94.5729C1158.82 93.7501 1160.12 92.3552 1160.78 90.6752C1161.21 89.3812 1160.84 87.9367 1160.1 85.0608C1159.42 82.5198 1159.07 81.223 1158.04 80.4194C1156.92 79.6675 1155.54 79.3329 1154.16 79.4777L1108.62 84.8436Z" fill="#9583CC"/>
<path d="M1058.8 115.913C1058.88 115.729 1059.01 115.568 1059.16 115.437L1065.98 109.535L1090.3 90.8327C1090.38 90.7746 1090.46 90.7241 1090.55 90.6822C1091.86 90.0399 1093.76 89.1668 1096.1 88.2678C1100.14 86.6359 1104.36 85.4633 1108.66 84.7752L1124.31 83.0204C1125.39 82.8994 1126.2 83.9685 1125.75 84.9549C1124.21 88.311 1122.23 91.4865 1119.87 94.4067C1117.33 97.6921 1114.24 100.576 1110.75 102.945C1106.35 105.878 1103.44 106.419 1090.78 109.614C1082.43 111.725 1075.89 114.061 1061.67 117.832C1061.59 117.853 1061.51 117.867 1061.43 117.875L1060 118.009C1059.05 118.098 1058.28 117.25 1058.62 116.359C1058.68 116.209 1058.74 116.061 1058.8 115.913Z" fill="#AA99DD"/>
<path d="M1159.59 83.23C1159.71 83.6753 1159.84 84.173 1160 84.7363C1134.51 91.387 1121.73 94.5813 1121.66 94.3194C1121.59 94.0574 1134.24 90.3609 1159.59 83.23Z" fill="#AA99DD"/>
<path d="M182.286 171.382C185.515 171.899 188.678 172.778 191.709 174.002C193.522 174.699 194.973 175.372 195.971 175.86L214.268 189.902L219.572 194.419C220.032 195.424 220.272 196.503 220.277 197.587C220.306 198.876 219.968 200.139 219.297 201.241C218.761 202.095 218.029 202.819 217.154 203.362L213.16 202.292L212.536 204.62C212.397 205.142 212.043 205.582 211.553 205.846C211.064 206.11 210.478 206.175 209.925 206.026L199.342 203.191C198.789 203.043 198.314 202.694 198.022 202.22C197.73 201.747 197.644 201.188 197.783 200.667L198.465 198.123L175.913 192.08L175.124 195.027C174.984 195.548 174.63 195.989 174.141 196.253C173.651 196.517 173.065 196.582 172.512 196.433L161.575 193.503C161.022 193.355 160.547 193.005 160.254 192.532C159.962 192.059 159.876 191.5 160.016 190.979L161.237 186.421L145.901 178.679C144.639 178.062 143.66 177.016 143.165 175.756C142.844 174.786 143.123 173.702 143.678 171.545C144.189 169.64 144.45 168.667 145.226 168.064C146.062 167.5 147.094 167.249 148.13 167.358L182.286 171.382Z" fill="#9583CC"/>
<path d="M219.649 194.685C219.589 194.547 219.496 194.426 219.382 194.327L214.266 189.901L196.024 175.874C195.967 175.831 195.906 175.793 195.842 175.762C194.857 175.28 193.431 174.625 191.676 173.951C188.645 172.727 185.482 171.847 182.253 171.331L170.52 170.015C169.711 169.924 169.101 170.726 169.441 171.466C170.598 173.983 172.078 176.365 173.848 178.555C175.757 181.019 178.069 183.182 180.692 184.958C183.991 187.158 186.173 187.564 195.667 189.961C201.929 191.544 206.834 193.296 217.499 196.124C217.557 196.14 217.617 196.15 217.676 196.156L218.752 196.257C219.464 196.323 220.042 195.687 219.786 195.019C219.743 194.907 219.698 194.795 219.649 194.685Z" fill="#AA99DD"/>
<path d="M144.059 170.172C143.969 170.506 143.869 170.879 143.756 171.302C162.869 176.29 172.452 178.685 172.505 178.489C172.557 178.292 163.075 175.52 144.059 170.172Z" fill="#AA99DD"/>
<rect x="814" y="166" width="1" height="1" fill="#FF0000"/>
<rect x="536" y="172" width="2" height="2" fill="#FF0000"/>
<rect x="533" y="183" width="2" height="2" fill="#FF0000"/>
<rect x="622" y="341" width="1" height="2" fill="#FF0000"/>
<rect x="626" y="361" width="3" height="3" fill="#FF0000"/>
</g>
<defs>
<filter id="filter0_f_2485_22181" x="145.418" y="24.8604" width="4.14062" height="4.09863" filterUnits="userSpaceOnUse" color-interpolation-filters="sRGB">
<feFlood flood-opacity="0" result="BackgroundImageFix"/>
<feBlend mode="normal" in="SourceGraphic" in2="BackgroundImageFix" result="shape"/>
<feGaussianBlur stdDeviation="0.5" result="effect1_foregroundBlur_2485_22181"/>
</filter>
<filter id="filter1_f_2485_22181" x="165.502" y="1.37158" width="3.86328" height="3.82568" filterUnits="userSpaceOnUse" color-interpolation-filters="sRGB">
<feFlood flood-opacity="0" result="BackgroundImageFix"/>
<feBlend mode="normal" in="SourceGraphic" in2="BackgroundImageFix" result="shape"/>
<feGaussianBlur stdDeviation="0.5" result="effect1_foregroundBlur_2485_22181"/>
</filter>
<filter id="filter2_f_2485_22181" x="476.617" y="15.8101" width="5.53125" height="5.4624" filterUnits="userSpaceOnUse" color-interpolation-filters="sRGB">
<feFlood flood-opacity="0" result="BackgroundImageFix"/>
<feBlend mode="normal" in="SourceGraphic" in2="BackgroundImageFix" result="shape"/>
<feGaussianBlur stdDeviation="0.5" result="effect1_foregroundBlur_2485_22181"/>
</filter>
<filter id="filter3_f_2485_22181" x="664.096" y="2.42139" width="4.41602" height="4.36963" filterUnits="userSpaceOnUse" color-interpolation-filters="sRGB">
<feFlood flood-opacity="0" result="BackgroundImageFix"/>
<feBlend mode="normal" in="SourceGraphic" in2="BackgroundImageFix" result="shape"/>
<feGaussianBlur stdDeviation="0.5" result="effect1_foregroundBlur_2485_22181"/>
</filter>
<filter id="filter4_f_2485_22181" x="859.848" y="2.72998" width="4.55273" height="4.50342" filterUnits="userSpaceOnUse" color-interpolation-filters="sRGB">
<feFlood flood-opacity="0" result="BackgroundImageFix"/>
<feBlend mode="normal" in="SourceGraphic" in2="BackgroundImageFix" result="shape"/>
<feGaussianBlur stdDeviation="0.5" result="effect1_foregroundBlur_2485_22181"/>
</filter>
<filter id="filter5_f_2485_22181" x="1079.33" y="-0.0654297" width="4.62305" height="4.57275" filterUnits="userSpaceOnUse" color-interpolation-filters="sRGB">
<feFlood flood-opacity="0" result="BackgroundImageFix"/>
<feBlend mode="normal" in="SourceGraphic" in2="BackgroundImageFix" result="shape"/>
<feGaussianBlur stdDeviation="0.5" result="effect1_foregroundBlur_2485_22181"/>
</filter>
<filter id="filter6_f_2485_22181" x="1243.01" y="8.73486" width="4.8125" height="4.75879" filterUnits="userSpaceOnUse" color-interpolation-filters="sRGB">
<feFlood flood-opacity="0" result="BackgroundImageFix"/>
<feBlend mode="normal" in="SourceGraphic" in2="BackgroundImageFix" result="shape"/>
<feGaussianBlur stdDeviation="0.5" result="effect1_foregroundBlur_2485_22181"/>
</filter>
<filter id="filter7_f_2485_22181" x="124.496" y="39.7407" width="4.27539" height="4.23145" filterUnits="userSpaceOnUse" color-interpolation-filters="sRGB">
<feFlood flood-opacity="0" result="BackgroundImageFix"/>
<feBlend mode="normal" in="SourceGraphic" in2="BackgroundImageFix" result="shape"/>
<feGaussianBlur stdDeviation="0.5" result="effect1_foregroundBlur_2485_22181"/>
</filter>
<filter id="filter8_f_2485_22181" x="301.742" y="29.5425" width="5.00195" height="4.94336" filterUnits="userSpaceOnUse" color-interpolation-filters="sRGB">
<feFlood flood-opacity="0" result="BackgroundImageFix"/>
<feBlend mode="normal" in="SourceGraphic" in2="BackgroundImageFix" result="shape"/>
<feGaussianBlur stdDeviation="0.5" result="effect1_foregroundBlur_2485_22181"/>
</filter>
<filter id="filter9_f_2485_22181" x="495.791" y="31.8638" width="4.02734" height="3.98828" filterUnits="userSpaceOnUse" color-interpolation-filters="sRGB">
<feFlood flood-opacity="0" result="BackgroundImageFix"/>
<feBlend mode="normal" in="SourceGraphic" in2="BackgroundImageFix" result="shape"/>
<feGaussianBlur stdDeviation="0.5" result="effect1_foregroundBlur_2485_22181"/>
</filter>
<filter id="filter10_f_2485_22181" x="618.25" y="39.9189" width="3.97266" height="3.93311" filterUnits="userSpaceOnUse" color-interpolation-filters="sRGB">
<feFlood flood-opacity="0" result="BackgroundImageFix"/>
<feBlend mode="normal" in="SourceGraphic" in2="BackgroundImageFix" result="shape"/>
<feGaussianBlur stdDeviation="0.5" result="effect1_foregroundBlur_2485_22181"/>
</filter>
<filter id="filter11_f_2485_22181" x="910.975" y="47.6045" width="4.36328" height="4.31738" filterUnits="userSpaceOnUse" color-interpolation-filters="sRGB">
<feFlood flood-opacity="0" result="BackgroundImageFix"/>
<feBlend mode="normal" in="SourceGraphic" in2="BackgroundImageFix" result="shape"/>
<feGaussianBlur stdDeviation="0.5" result="effect1_foregroundBlur_2485_22181"/>
</filter>
<filter id="filter12_f_2485_22181" x="1032.22" y="27.853" width="4.91602" height="4.86035" filterUnits="userSpaceOnUse" color-interpolation-filters="sRGB">
<feFlood flood-opacity="0" result="BackgroundImageFix"/>
<feBlend mode="normal" in="SourceGraphic" in2="BackgroundImageFix" result="shape"/>
<feGaussianBlur stdDeviation="0.5" result="effect1_foregroundBlur_2485_22181"/>
</filter>
<filter id="filter13_f_2485_22181" x="1276.28" y="47.2061" width="4.5" height="4.45215" filterUnits="userSpaceOnUse" color-interpolation-filters="sRGB">
<feFlood flood-opacity="0" result="BackgroundImageFix"/>
<feBlend mode="normal" in="SourceGraphic" in2="BackgroundImageFix" result="shape"/>
<feGaussianBlur stdDeviation="0.5" result="effect1_foregroundBlur_2485_22181"/>
</filter>
<filter id="filter14_f_2485_22181" x="24.6914" y="77.5972" width="5.01172" height="4.95361" filterUnits="userSpaceOnUse" color-interpolation-filters="sRGB">
<feFlood flood-opacity="0" result="BackgroundImageFix"/>
<feBlend mode="normal" in="SourceGraphic" in2="BackgroundImageFix" result="shape"/>
<feGaussianBlur stdDeviation="0.5" result="effect1_foregroundBlur_2485_22181"/>
</filter>
<filter id="filter15_f_2485_22181" x="325.732" y="85.8955" width="4.12305" height="4.08252" filterUnits="userSpaceOnUse" color-interpolation-filters="sRGB">
<feFlood flood-opacity="0" result="BackgroundImageFix"/>
<feBlend mode="normal" in="SourceGraphic" in2="BackgroundImageFix" result="shape"/>
<feGaussianBlur stdDeviation="0.5" result="effect1_foregroundBlur_2485_22181"/>
</filter>
<filter id="filter16_f_2485_22181" x="492.658" y="59.7041" width="4.14062" height="4.09912" filterUnits="userSpaceOnUse" color-interpolation-filters="sRGB">
<feFlood flood-opacity="0" result="BackgroundImageFix"/>
<feBlend mode="normal" in="SourceGraphic" in2="BackgroundImageFix" result="shape"/>
<feGaussianBlur stdDeviation="0.5" result="effect1_foregroundBlur_2485_22181"/>
</filter>
<filter id="filter17_f_2485_22181" x="571.689" y="90.4419" width="4.53906" height="4.49023" filterUnits="userSpaceOnUse" color-interpolation-filters="sRGB">
<feFlood flood-opacity="0" result="BackgroundImageFix"/>
<feBlend mode="normal" in="SourceGraphic" in2="BackgroundImageFix" result="shape"/>
<feGaussianBlur stdDeviation="0.5" result="effect1_foregroundBlur_2485_22181"/>
</filter>
<filter id="filter18_f_2485_22181" x="820.955" y="72.3398" width="4.37695" height="4.33105" filterUnits="userSpaceOnUse" color-interpolation-filters="sRGB">
<feFlood flood-opacity="0" result="BackgroundImageFix"/>
<feBlend mode="normal" in="SourceGraphic" in2="BackgroundImageFix" result="shape"/>
<feGaussianBlur stdDeviation="0.5" result="effect1_foregroundBlur_2485_22181"/>
</filter>
<filter id="filter19_f_2485_22181" x="1058.48" y="74.8394" width="5.28516" height="5.2207" filterUnits="userSpaceOnUse" color-interpolation-filters="sRGB">
<feFlood flood-opacity="0" result="BackgroundImageFix"/>
<feBlend mode="normal" in="SourceGraphic" in2="BackgroundImageFix" result="shape"/>
<feGaussianBlur stdDeviation="0.5" result="effect1_foregroundBlur_2485_22181"/>
</filter>
<filter id="filter20_f_2485_22181" x="1233.74" y="72.3691" width="3.75977" height="3.72461" filterUnits="userSpaceOnUse" color-interpolation-filters="sRGB">
<feFlood flood-opacity="0" result="BackgroundImageFix"/>
<feBlend mode="normal" in="SourceGraphic" in2="BackgroundImageFix" result="shape"/>
<feGaussianBlur stdDeviation="0.5" result="effect1_foregroundBlur_2485_22181"/>
</filter>
<filter id="filter21_f_2485_22181" x="135.08" y="109.998" width="3.55859" height="3.52881" filterUnits="userSpaceOnUse" color-interpolation-filters="sRGB">
<feFlood flood-opacity="0" result="BackgroundImageFix"/>
<feBlend mode="normal" in="SourceGraphic" in2="BackgroundImageFix" result="shape"/>
<feGaussianBlur stdDeviation="0.5" result="effect1_foregroundBlur_2485_22181"/>
</filter>
<filter id="filter22_f_2485_22181" x="308.549" y="105.757" width="5.30273" height="5.23926" filterUnits="userSpaceOnUse" color-interpolation-filters="sRGB">
<feFlood flood-opacity="0" result="BackgroundImageFix"/>
<feBlend mode="normal" in="SourceGraphic" in2="BackgroundImageFix" result="shape"/>
<feGaussianBlur stdDeviation="0.5" result="effect1_foregroundBlur_2485_22181"/>
</filter>
<filter id="filter23_f_2485_22181" x="401.012" y="93.9473" width="5.17188" height="5.10986" filterUnits="userSpaceOnUse" color-interpolation-filters="sRGB">
<feFlood flood-opacity="0" result="BackgroundImageFix"/>
<feBlend mode="normal" in="SourceGraphic" in2="BackgroundImageFix" result="shape"/>
<feGaussianBlur stdDeviation="0.5" result="effect1_foregroundBlur_2485_22181"/>
</filter>
<filter id="filter24_f_2485_22181" x="709.244" y="113.56" width="4.28125" height="4.23779" filterUnits="userSpaceOnUse" color-interpolation-filters="sRGB">
<feFlood flood-opacity="0" result="BackgroundImageFix"/>
<feBlend mode="normal" in="SourceGraphic" in2="BackgroundImageFix" result="shape"/>
<feGaussianBlur stdDeviation="0.5" result="effect1_foregroundBlur_2485_22181"/>
</filter>
<filter id="filter25_f_2485_22181" x="786.844" y="107.041" width="5.54688" height="5.47852" filterUnits="userSpaceOnUse" color-interpolation-filters="sRGB">
<feFlood flood-opacity="0" result="BackgroundImageFix"/>
<feBlend mode="normal" in="SourceGraphic" in2="BackgroundImageFix" result="shape"/>
<feGaussianBlur stdDeviation="0.5" result="effect1_foregroundBlur_2485_22181"/>
</filter>
<filter id="filter26_f_2485_22181" x="943.543" y="102.774" width="5.48242" height="5.41602" filterUnits="userSpaceOnUse" color-interpolation-filters="sRGB">
<feFlood flood-opacity="0" result="BackgroundImageFix"/>
<feBlend mode="normal" in="SourceGraphic" in2="BackgroundImageFix" result="shape"/>
<feGaussianBlur stdDeviation="0.5" result="effect1_foregroundBlur_2485_22181"/>
</filter>
<filter id="filter27_f_2485_22181" x="1112.23" y="93.731" width="3.85742" height="3.82031" filterUnits="userSpaceOnUse" color-interpolation-filters="sRGB">
<feFlood flood-opacity="0" result="BackgroundImageFix"/>
<feBlend mode="normal" in="SourceGraphic" in2="BackgroundImageFix" result="shape"/>
<feGaussianBlur stdDeviation="0.5" result="effect1_foregroundBlur_2485_22181"/>
</filter>
<filter id="filter28_f_2485_22181" x="112.127" y="149.213" width="3.87109" height="3.83398" filterUnits="userSpaceOnUse" color-interpolation-filters="sRGB">
<feFlood flood-opacity="0" result="BackgroundImageFix"/>
<feBlend mode="normal" in="SourceGraphic" in2="BackgroundImageFix" result="shape"/>
<feGaussianBlur stdDeviation="0.5" result="effect1_foregroundBlur_2485_22181"/>
</filter>
<filter id="filter29_f_2485_22181" x="169.031" y="128.562" width="5.50977" height="5.44189" filterUnits="userSpaceOnUse" color-interpolation-filters="sRGB">
<feFlood flood-opacity="0" result="BackgroundImageFix"/>
<feBlend mode="normal" in="SourceGraphic" in2="BackgroundImageFix" result="shape"/>
<feGaussianBlur stdDeviation="0.5" result="effect1_foregroundBlur_2485_22181"/>
</filter>
<filter id="filter30_f_2485_22181" x="379.355" y="130.986" width="5.16016" height="5.09814" filterUnits="userSpaceOnUse" color-interpolation-filters="sRGB">
<feFlood flood-opacity="0" result="BackgroundImageFix"/>
<feBlend mode="normal" in="SourceGraphic" in2="BackgroundImageFix" result="shape"/>
<feGaussianBlur stdDeviation="0.5" result="effect1_foregroundBlur_2485_22181"/>
</filter>
<filter id="filter31_f_2485_22181" x="597.266" y="136.223" width="5.13086" height="5.07031" filterUnits="userSpaceOnUse" color-interpolation-filters="sRGB">
<feFlood flood-opacity="0" result="BackgroundImageFix"/>
<feBlend mode="normal" in="SourceGraphic" in2="BackgroundImageFix" result="shape"/>
<feGaussianBlur stdDeviation="0.5" result="effect1_foregroundBlur_2485_22181"/>
</filter>
<filter id="filter32_f_2485_22181" x="899.445" y="138.91" width="4.48438" height="4.43652" filterUnits="userSpaceOnUse" color-interpolation-filters="sRGB">
<feFlood flood-opacity="0" result="BackgroundImageFix"/>
<feBlend mode="normal" in="SourceGraphic" in2="BackgroundImageFix" result="shape"/>
<feGaussianBlur stdDeviation="0.5" result="effect1_foregroundBlur_2485_22181"/>
</filter>
<filter id="filter33_f_2485_22181" x="1068.28" y="126.862" width="5.24805" height="5.18555" filterUnits="userSpaceOnUse" color-interpolation-filters="sRGB">
<feFlood flood-opacity="0" result="BackgroundImageFix"/>
<feBlend mode="normal" in="SourceGraphic" in2="BackgroundImageFix" result="shape"/>
<feGaussianBlur stdDeviation="0.5" result="effect1_foregroundBlur_2485_22181"/>
</filter>
<filter id="filter34_f_2485_22181" x="1149.2" y="145.398" width="4.28125" height="4.23779" filterUnits="userSpaceOnUse" color-interpolation-filters="sRGB">
<feFlood flood-opacity="0" result="BackgroundImageFix"/>
<feBlend mode="normal" in="SourceGraphic" in2="BackgroundImageFix" result="shape"/>
<feGaussianBlur stdDeviation="0.5" result="effect1_foregroundBlur_2485_22181"/>
</filter>
<filter id="filter35_f_2485_22181" x="-0.494141" y="149.705" width="5.30664" height="5.2417" filterUnits="userSpaceOnUse" color-interpolation-filters="sRGB">
<feFlood flood-opacity="0" result="BackgroundImageFix"/>
<feBlend mode="normal" in="SourceGraphic" in2="BackgroundImageFix" result="shape"/>
<feGaussianBlur stdDeviation="0.5" result="effect1_foregroundBlur_2485_22181"/>
</filter>
<filter id="filter36_f_2485_22181" x="239.146" y="175.81" width="4.45703" height="4.41016" filterUnits="userSpaceOnUse" color-interpolation-filters="sRGB">
<feFlood flood-opacity="0" result="BackgroundImageFix"/>
<feBlend mode="normal" in="SourceGraphic" in2="BackgroundImageFix" result="shape"/>
<feGaussianBlur stdDeviation="0.5" result="effect1_foregroundBlur_2485_22181"/>
</filter>
<filter id="filter37_f_2485_22181" x="389.137" y="166.561" width="4.3125" height="4.26758" filterUnits="userSpaceOnUse" color-interpolation-filters="sRGB">
<feFlood flood-opacity="0" result="BackgroundImageFix"/>
<feBlend mode="normal" in="SourceGraphic" in2="BackgroundImageFix" result="shape"/>
<feGaussianBlur stdDeviation="0.5" result="effect1_foregroundBlur_2485_22181"/>
</filter>
<filter id="filter38_f_2485_22181" x="721.018" y="173.016" width="4.67578" height="4.62451" filterUnits="userSpaceOnUse" color-interpolation-filters="sRGB">
<feFlood flood-opacity="0" result="BackgroundImageFix"/>
<feBlend mode="normal" in="SourceGraphic" in2="BackgroundImageFix" result="shape"/>
<feGaussianBlur stdDeviation="0.5" result="effect1_foregroundBlur_2485_22181"/>
</filter>
<filter id="filter39_f_2485_22181" x="904.785" y="177.857" width="4.4043" height="4.35596" filterUnits="userSpaceOnUse" color-interpolation-filters="sRGB">
<feFlood flood-opacity="0" result="BackgroundImageFix"/>
<feBlend mode="normal" in="SourceGraphic" in2="BackgroundImageFix" result="shape"/>
<feGaussianBlur stdDeviation="0.5" result="effect1_foregroundBlur_2485_22181"/>
</filter>
<filter id="filter40_f_2485_22181" x="1044.8" y="155.23" width="5.02539" height="4.9668" filterUnits="userSpaceOnUse" color-interpolation-filters="sRGB">
<feFlood flood-opacity="0" result="BackgroundImageFix"/>
<feBlend mode="normal" in="SourceGraphic" in2="BackgroundImageFix" result="shape"/>
<feGaussianBlur stdDeviation="0.5" result="effect1_foregroundBlur_2485_22181"/>
</filter>
<filter id="filter41_f_2485_22181" x="1185.18" y="166.862" width="4.63086" height="4.58008" filterUnits="userSpaceOnUse" color-interpolation-filters="sRGB">
<feFlood flood-opacity="0" result="BackgroundImageFix"/>
<feBlend mode="normal" in="SourceGraphic" in2="BackgroundImageFix" result="shape"/>
<feGaussianBlur stdDeviation="0.5" result="effect1_foregroundBlur_2485_22181"/>
</filter>
<filter id="filter42_f_2485_22181" x="44.8828" y="206.442" width="5.18164" height="5.12012" filterUnits="userSpaceOnUse" color-interpolation-filters="sRGB">
<feFlood flood-opacity="0" result="BackgroundImageFix"/>
<feBlend mode="normal" in="SourceGraphic" in2="BackgroundImageFix" result="shape"/>
<feGaussianBlur stdDeviation="0.5" result="effect1_foregroundBlur_2485_22181"/>
</filter>
<filter id="filter43_f_2485_22181" x="294.43" y="195.481" width="4.85742" height="4.80322" filterUnits="userSpaceOnUse" color-interpolation-filters="sRGB">
<feFlood flood-opacity="0" result="BackgroundImageFix"/>
<feBlend mode="normal" in="SourceGraphic" in2="BackgroundImageFix" result="shape"/>
<feGaussianBlur stdDeviation="0.5" result="effect1_foregroundBlur_2485_22181"/>
</filter>
<filter id="filter44_f_2485_22181" x="422.512" y="185.864" width="3.5625" height="3.5332" filterUnits="userSpaceOnUse" color-interpolation-filters="sRGB">
<feFlood flood-opacity="0" result="BackgroundImageFix"/>
<feBlend mode="normal" in="SourceGraphic" in2="BackgroundImageFix" result="shape"/>
<feGaussianBlur stdDeviation="0.5" result="effect1_foregroundBlur_2485_22181"/>
</filter>
<filter id="filter45_f_2485_22181" x="707.939" y="197.264" width="3.81641" height="3.78174" filterUnits="userSpaceOnUse" color-interpolation-filters="sRGB">
<feFlood flood-opacity="0" result="BackgroundImageFix"/>
<feBlend mode="normal" in="SourceGraphic" in2="BackgroundImageFix" result="shape"/>
<feGaussianBlur stdDeviation="0.5" result="effect1_foregroundBlur_2485_22181"/>
</filter>
<filter id="filter46_f_2485_22181" x="748.242" y="206.71" width="4.03906" height="3.99951" filterUnits="userSpaceOnUse" color-interpolation-filters="sRGB">
<feFlood flood-opacity="0" result="BackgroundImageFix"/>
<feBlend mode="normal" in="SourceGraphic" in2="BackgroundImageFix" result="shape"/>
<feGaussianBlur stdDeviation="0.5" result="effect1_foregroundBlur_2485_22181"/>
</filter>
<filter id="filter47_f_2485_22181" x="1012.61" y="182.263" width="3.80273" height="3.76709" filterUnits="userSpaceOnUse" color-interpolation-filters="sRGB">
<feFlood flood-opacity="0" result="BackgroundImageFix"/>
<feBlend mode="normal" in="SourceGraphic" in2="BackgroundImageFix" result="shape"/>
<feGaussianBlur stdDeviation="0.5" result="effect1_foregroundBlur_2485_22181"/>
</filter>
<filter id="filter48_f_2485_22181" x="1103.93" y="196.089" width="5.38086" height="5.31592" filterUnits="userSpaceOnUse" color-interpolation-filters="sRGB">
<feFlood flood-opacity="0" result="BackgroundImageFix"/>
<feBlend mode="normal" in="SourceGraphic" in2="BackgroundImageFix" result="shape"/>
<feGaussianBlur stdDeviation="0.5" result="effect1_foregroundBlur_2485_22181"/>
</filter>
<filter id="filter49_f_2485_22181" x="4.5" y="211.764" width="4.11914" height="4.07812" filterUnits="userSpaceOnUse" color-interpolation-filters="sRGB">
<feFlood flood-opacity="0" result="BackgroundImageFix"/>
<feBlend mode="normal" in="SourceGraphic" in2="BackgroundImageFix" result="shape"/>
<feGaussianBlur stdDeviation="0.5" result="effect1_foregroundBlur_2485_22181"/>
</filter>
<filter id="filter50_f_2485_22181" x="334.477" y="222.333" width="4.79688" height="4.74219" filterUnits="userSpaceOnUse" color-interpolation-filters="sRGB">
<feFlood flood-opacity="0" result="BackgroundImageFix"/>
<feBlend mode="normal" in="SourceGraphic" in2="BackgroundImageFix" result="shape"/>
<feGaussianBlur stdDeviation="0.5" result="effect1_foregroundBlur_2485_22181"/>
</filter>
<filter id="filter51_f_2485_22181" x="454.906" y="237.426" width="3.38672" height="3.35986" filterUnits="userSpaceOnUse" color-interpolation-filters="sRGB">
<feFlood flood-opacity="0" result="BackgroundImageFix"/>
<feBlend mode="normal" in="SourceGraphic" in2="BackgroundImageFix" result="shape"/>
<feGaussianBlur stdDeviation="0.5" result="effect1_foregroundBlur_2485_22181"/>
</filter>
<filter id="filter52_f_2485_22181" x="715.83" y="219.101" width="3.7832" height="3.74902" filterUnits="userSpaceOnUse" color-interpolation-filters="sRGB">
<feFlood flood-opacity="0" result="BackgroundImageFix"/>
<feBlend mode="normal" in="SourceGraphic" in2="BackgroundImageFix" result="shape"/>
<feGaussianBlur stdDeviation="0.5" result="effect1_foregroundBlur_2485_22181"/>
</filter>
<filter id="filter53_f_2485_22181" x="872.768" y="217.376" width="4.48633" height="4.43848" filterUnits="userSpaceOnUse" color-interpolation-filters="sRGB">
<feFlood flood-opacity="0" result="BackgroundImageFix"/>
<feBlend mode="normal" in="SourceGraphic" in2="BackgroundImageFix" result="shape"/>
<feGaussianBlur stdDeviation="0.5" result="effect1_foregroundBlur_2485_22181"/>
</filter>
<filter id="filter54_f_2485_22181" x="962.955" y="215.564" width="4.21289" height="4.16846" filterUnits="userSpaceOnUse" color-interpolation-filters="sRGB">
<feFlood flood-opacity="0" result="BackgroundImageFix"/>
<feBlend mode="normal" in="SourceGraphic" in2="BackgroundImageFix" result="shape"/>
<feGaussianBlur stdDeviation="0.5" result="effect1_foregroundBlur_2485_22181"/>
</filter>
<filter id="filter55_f_2485_22181" x="1109.55" y="217.527" width="4.8125" height="4.75732" filterUnits="userSpaceOnUse" color-interpolation-filters="sRGB">
<feFlood flood-opacity="0" result="BackgroundImageFix"/>
<feBlend mode="normal" in="SourceGraphic" in2="BackgroundImageFix" result="shape"/>
<feGaussianBlur stdDeviation="0.5" result="effect1_foregroundBlur_2485_22181"/>
</filter>
<filter id="filter56_f_2485_22181" x="8.5957" y="262.86" width="5.14258" height="5.08154" filterUnits="userSpaceOnUse" color-interpolation-filters="sRGB">
<feFlood flood-opacity="0" result="BackgroundImageFix"/>
<feBlend mode="normal" in="SourceGraphic" in2="BackgroundImageFix" result="shape"/>
<feGaussianBlur stdDeviation="0.5" result="effect1_foregroundBlur_2485_22181"/>
</filter>
<filter id="filter57_f_2485_22181" x="307.893" y="257.182" width="3.64062" height="3.60889" filterUnits="userSpaceOnUse" color-interpolation-filters="sRGB">
<feFlood flood-opacity="0" result="BackgroundImageFix"/>
<feBlend mode="normal" in="SourceGraphic" in2="BackgroundImageFix" result="shape"/>
<feGaussianBlur stdDeviation="0.5" result="effect1_foregroundBlur_2485_22181"/>
</filter>
<filter id="filter58_f_2485_22181" x="407.713" y="253.071" width="3.68555" height="3.65283" filterUnits="userSpaceOnUse" color-interpolation-filters="sRGB">
<feFlood flood-opacity="0" result="BackgroundImageFix"/>
<feBlend mode="normal" in="SourceGraphic" in2="BackgroundImageFix" result="shape"/>
<feGaussianBlur stdDeviation="0.5" result="effect1_foregroundBlur_2485_22181"/>
</filter>
<filter id="filter59_f_2485_22181" x="611.537" y="244.368" width="4.16602" height="4.12451" filterUnits="userSpaceOnUse" color-interpolation-filters="sRGB">
<feFlood flood-opacity="0" result="BackgroundImageFix"/>
<feBlend mode="normal" in="SourceGraphic" in2="BackgroundImageFix" result="shape"/>
<feGaussianBlur stdDeviation="0.5" result="effect1_foregroundBlur_2485_22181"/>
</filter>
<filter id="filter60_f_2485_22181" x="801.039" y="252.797" width="4.85938" height="4.80273" filterUnits="userSpaceOnUse" color-interpolation-filters="sRGB">
<feFlood flood-opacity="0" result="BackgroundImageFix"/>
<feBlend mode="normal" in="SourceGraphic" in2="BackgroundImageFix" result="shape"/>
<feGaussianBlur stdDeviation="0.5" result="effect1_foregroundBlur_2485_22181"/>
</filter>
<filter id="filter61_f_2485_22181" x="978.871" y="252.111" width="5.17188" height="5.11035" filterUnits="userSpaceOnUse" color-interpolation-filters="sRGB">
<feFlood flood-opacity="0" result="BackgroundImageFix"/>
<feBlend mode="normal" in="SourceGraphic" in2="BackgroundImageFix" result="shape"/>
<feGaussianBlur stdDeviation="0.5" result="effect1_foregroundBlur_2485_22181"/>
</filter>
<filter id="filter62_f_2485_22181" x="1205.37" y="240.902" width="4.37891" height="4.33398" filterUnits="userSpaceOnUse" color-interpolation-filters="sRGB">
<feFlood flood-opacity="0" result="BackgroundImageFix"/>
<feBlend mode="normal" in="SourceGraphic" in2="BackgroundImageFix" result="shape"/>
<feGaussianBlur stdDeviation="0.5" result="effect1_foregroundBlur_2485_22181"/>
</filter>
<filter id="filter63_f_2485_22181" x="37.5996" y="278.584" width="4.91016" height="4.85449" filterUnits="userSpaceOnUse" color-interpolation-filters="sRGB">
<feFlood flood-opacity="0" result="BackgroundImageFix"/>
<feBlend mode="normal" in="SourceGraphic" in2="BackgroundImageFix" result="shape"/>
<feGaussianBlur stdDeviation="0.5" result="effect1_foregroundBlur_2485_22181"/>
</filter>
<filter id="filter64_f_2485_22181" x="286.775" y="281.585" width="3.84375" height="3.80762" filterUnits="userSpaceOnUse" color-interpolation-filters="sRGB">
<feFlood flood-opacity="0" result="BackgroundImageFix"/>
<feBlend mode="normal" in="SourceGraphic" in2="BackgroundImageFix" result="shape"/>
<feGaussianBlur stdDeviation="0.5" result="effect1_foregroundBlur_2485_22181"/>
</filter>
<filter id="filter65_f_2485_22181" x="537.883" y="279.735" width="4.8125" height="4.75879" filterUnits="userSpaceOnUse" color-interpolation-filters="sRGB">
<feFlood flood-opacity="0" result="BackgroundImageFix"/>
<feBlend mode="normal" in="SourceGraphic" in2="BackgroundImageFix" result="shape"/>
<feGaussianBlur stdDeviation="0.5" result="effect1_foregroundBlur_2485_22181"/>
</filter>
<filter id="filter66_f_2485_22181" x="723.812" y="273.276" width="5.22461" height="5.1626" filterUnits="userSpaceOnUse" color-interpolation-filters="sRGB">
<feFlood flood-opacity="0" result="BackgroundImageFix"/>
<feBlend mode="normal" in="SourceGraphic" in2="BackgroundImageFix" result="shape"/>
<feGaussianBlur stdDeviation="0.5" result="effect1_foregroundBlur_2485_22181"/>
</filter>
<filter id="filter67_f_2485_22181" x="758.338" y="299.192" width="4.46484" height="4.41699" filterUnits="userSpaceOnUse" color-interpolation-filters="sRGB">
<feFlood flood-opacity="0" result="BackgroundImageFix"/>
<feBlend mode="normal" in="SourceGraphic" in2="BackgroundImageFix" result="shape"/>
<feGaussianBlur stdDeviation="0.5" result="effect1_foregroundBlur_2485_22181"/>
</filter>
<filter id="filter68_f_2485_22181" x="1046.85" y="273.719" width="4.10547" height="4.06445" filterUnits="userSpaceOnUse" color-interpolation-filters="sRGB">
<feFlood flood-opacity="0" result="BackgroundImageFix"/>
<feBlend mode="normal" in="SourceGraphic" in2="BackgroundImageFix" result="shape"/>
<feGaussianBlur stdDeviation="0.5" result="effect1_foregroundBlur_2485_22181"/>
</filter>
<filter id="filter69_f_2485_22181" x="1167.62" y="298.989" width="4.2793" height="4.23584" filterUnits="userSpaceOnUse" color-interpolation-filters="sRGB">
<feFlood flood-opacity="0" result="BackgroundImageFix"/>
<feBlend mode="normal" in="SourceGraphic" in2="BackgroundImageFix" result="shape"/>
<feGaussianBlur stdDeviation="0.5" result="effect1_foregroundBlur_2485_22181"/>
</filter>
<filter id="filter70_f_2485_22181" x="135.789" y="319.384" width="5.26172" height="5.19775" filterUnits="userSpaceOnUse" color-interpolation-filters="sRGB">
<feFlood flood-opacity="0" result="BackgroundImageFix"/>
<feBlend mode="normal" in="SourceGraphic" in2="BackgroundImageFix" result="shape"/>
<feGaussianBlur stdDeviation="0.5" result="effect1_foregroundBlur_2485_22181"/>
</filter>
<filter id="filter71_f_2485_22181" x="334.562" y="328.721" width="4.12695" height="4.08643" filterUnits="userSpaceOnUse" color-interpolation-filters="sRGB">
<feFlood flood-opacity="0" result="BackgroundImageFix"/>
<feBlend mode="normal" in="SourceGraphic" in2="BackgroundImageFix" result="shape"/>
<feGaussianBlur stdDeviation="0.5" result="effect1_foregroundBlur_2485_22181"/>
</filter>
<filter id="filter72_f_2485_22181" x="526.682" y="302.597" width="5.12109" height="5.05957" filterUnits="userSpaceOnUse" color-interpolation-filters="sRGB">
<feFlood flood-opacity="0" result="BackgroundImageFix"/>
<feBlend mode="normal" in="SourceGraphic" in2="BackgroundImageFix" result="shape"/>
<feGaussianBlur stdDeviation="0.5" result="effect1_foregroundBlur_2485_22181"/>
</filter>
<filter id="filter73_f_2485_22181" x="542.803" y="305.758" width="5.42383" height="5.35742" filterUnits="userSpaceOnUse" color-interpolation-filters="sRGB">
<feFlood flood-opacity="0" result="BackgroundImageFix"/>
<feBlend mode="normal" in="SourceGraphic" in2="BackgroundImageFix" result="shape"/>
<feGaussianBlur stdDeviation="0.5" result="effect1_foregroundBlur_2485_22181"/>
</filter>
<filter id="filter74_f_2485_22181" x="817.566" y="331.007" width="4.36523" height="4.31885" filterUnits="userSpaceOnUse" color-interpolation-filters="sRGB">
<feFlood flood-opacity="0" result="BackgroundImageFix"/>
<feBlend mode="normal" in="SourceGraphic" in2="BackgroundImageFix" result="shape"/>
<feGaussianBlur stdDeviation="0.5" result="effect1_foregroundBlur_2485_22181"/>
</filter>
<filter id="filter75_f_2485_22181" x="1031.92" y="315.865" width="4.52344" height="4.47412" filterUnits="userSpaceOnUse" color-interpolation-filters="sRGB">
<feFlood flood-opacity="0" result="BackgroundImageFix"/>
<feBlend mode="normal" in="SourceGraphic" in2="BackgroundImageFix" result="shape"/>
<feGaussianBlur stdDeviation="0.5" result="effect1_foregroundBlur_2485_22181"/>
</filter>
<filter id="filter76_f_2485_22181" x="1207.61" y="319.268" width="4.88477" height="4.8291" filterUnits="userSpaceOnUse" color-interpolation-filters="sRGB">
<feFlood flood-opacity="0" result="BackgroundImageFix"/>
<feBlend mode="normal" in="SourceGraphic" in2="BackgroundImageFix" result="shape"/>
<feGaussianBlur stdDeviation="0.5" result="effect1_foregroundBlur_2485_22181"/>
</filter>
<filter id="filter77_f_2485_22181" x="112.6" y="332.041" width="4.85352" height="4.79688" filterUnits="userSpaceOnUse" color-interpolation-filters="sRGB">
<feFlood flood-opacity="0" result="BackgroundImageFix"/>
<feBlend mode="normal" in="SourceGraphic" in2="BackgroundImageFix" result="shape"/>
<feGaussianBlur stdDeviation="0.5" result="effect1_foregroundBlur_2485_22181"/>
</filter>
<filter id="filter78_f_2485_22181" x="225.908" y="355.79" width="4.84961" height="4.79443" filterUnits="userSpaceOnUse" color-interpolation-filters="sRGB">
<feFlood flood-opacity="0" result="BackgroundImageFix"/>
<feBlend mode="normal" in="SourceGraphic" in2="BackgroundImageFix" result="shape"/>
<feGaussianBlur stdDeviation="0.5" result="effect1_foregroundBlur_2485_22181"/>
</filter>
<filter id="filter79_f_2485_22181" x="530.523" y="337.929" width="4.03516" height="3.99512" filterUnits="userSpaceOnUse" color-interpolation-filters="sRGB">
<feFlood flood-opacity="0" result="BackgroundImageFix"/>
<feBlend mode="normal" in="SourceGraphic" in2="BackgroundImageFix" result="shape"/>
<feGaussianBlur stdDeviation="0.5" result="effect1_foregroundBlur_2485_22181"/>
</filter>
<filter id="filter80_f_2485_22181" x="697.488" y="353.945" width="4.9082" height="4.85254" filterUnits="userSpaceOnUse" color-interpolation-filters="sRGB">
<feFlood flood-opacity="0" result="BackgroundImageFix"/>
<feBlend mode="normal" in="SourceGraphic" in2="BackgroundImageFix" result="shape"/>
<feGaussianBlur stdDeviation="0.5" result="effect1_foregroundBlur_2485_22181"/>
</filter>
<filter id="filter81_f_2485_22181" x="891.1" y="343.696" width="4.75195" height="4.69873" filterUnits="userSpaceOnUse" color-interpolation-filters="sRGB">
<feFlood flood-opacity="0" result="BackgroundImageFix"/>
<feBlend mode="normal" in="SourceGraphic" in2="BackgroundImageFix" result="shape"/>
<feGaussianBlur stdDeviation="0.5" result="effect1_foregroundBlur_2485_22181"/>
</filter>
<filter id="filter82_f_2485_22181" x="996.451" y="347.152" width="4.9707" height="4.91211" filterUnits="userSpaceOnUse" color-interpolation-filters="sRGB">
<feFlood flood-opacity="0" result="BackgroundImageFix"/>
<feBlend mode="normal" in="SourceGraphic" in2="BackgroundImageFix" result="shape"/>
<feGaussianBlur stdDeviation="0.5" result="effect1_foregroundBlur_2485_22181"/>
</filter>
<filter id="filter83_f_2485_22181" x="1170.39" y="349.938" width="3.52148" height="3.49219" filterUnits="userSpaceOnUse" color-interpolation-filters="sRGB">
<feFlood flood-opacity="0" result="BackgroundImageFix"/>
<feBlend mode="normal" in="SourceGraphic" in2="BackgroundImageFix" result="shape"/>
<feGaussianBlur stdDeviation="0.5" result="effect1_foregroundBlur_2485_22181"/>
</filter>
<linearGradient id="paint0_linear_2485_22181" x1="640" y1="-132.5" x2="640" y2="720" gradientUnits="userSpaceOnUse">
<stop offset="0.0630426" stop-color="#0A0C13"/>
<stop offset="0.36252" stop-color="#381B67"/>
<stop offset="0.798409" stop-color="#113E95"/>
</linearGradient>
<clipPath id="clip0_2485_22181">
<rect width="1280" height="720" fill="white"/>
</clipPath>
</defs>
</svg>
