<svg width="26" height="26" viewBox="0 0 26 26" fill="none" xmlns="http://www.w3.org/2000/svg">
<path d="M6.00008 16C6.00008 16.7072 5.71913 17.3855 5.21903 17.8856C4.71894 18.3857 4.04066 18.6667 3.33341 18.6667C2.62617 18.6667 1.94789 18.3857 1.4478 17.8856C0.9477 17.3855 0.666748 16.7072 0.666748 16C0.666748 15.2928 0.9477 14.6145 1.4478 14.1144C1.94789 13.6143 2.62617 13.3333 3.33341 13.3333H6.00008V16ZM7.33342 16C7.33342 15.2928 7.61437 14.6145 8.11446 14.1144C8.61456 13.6143 9.29284 13.3333 10.0001 13.3333C10.7073 13.3333 11.3856 13.6143 11.8857 14.1144C12.3858 14.6145 12.6667 15.2928 12.6667 16V22.6667C12.6667 23.3739 12.3858 24.0522 11.8857 24.5523C11.3856 25.0524 10.7073 25.3333 10.0001 25.3333C9.29284 25.3333 8.61456 25.0524 8.11446 24.5523C7.61437 24.0522 7.33342 23.3739 7.33342 22.6667V16ZM10.0001 5.33333C9.29284 5.33333 8.61456 5.05238 8.11446 4.55229C7.61437 4.05219 7.33342 3.37391 7.33342 2.66667C7.33342 1.95942 7.61437 1.28115 8.11446 0.781048C8.61456 0.280951 9.29284 0 10.0001 0C10.7073 0 11.3856 0.280951 11.8857 0.781048C12.3858 1.28115 12.6667 1.95942 12.6667 2.66667V5.33333H10.0001ZM10.0001 6.66667C10.7073 6.66667 11.3856 6.94762 11.8857 7.44772C12.3858 7.94781 12.6667 8.62609 12.6667 9.33333C12.6667 10.0406 12.3858 10.7189 11.8857 11.219C11.3856 11.719 10.7073 12 10.0001 12H3.33341C2.62617 12 1.94789 11.719 1.4478 11.219C0.9477 10.7189 0.666748 10.0406 0.666748 9.33333C0.666748 8.62609 0.9477 7.94781 1.4478 7.44772C1.94789 6.94762 2.62617 6.66667 3.33341 6.66667H10.0001ZM20.6667 9.33333C20.6667 8.62609 20.9477 7.94781 21.4478 7.44772C21.9479 6.94762 22.6262 6.66667 23.3334 6.66667C24.0407 6.66667 24.7189 6.94762 25.219 7.44772C25.7191 7.94781 26.0001 8.62609 26.0001 9.33333C26.0001 10.0406 25.7191 10.7189 25.219 11.219C24.7189 11.719 24.0407 12 23.3334 12H20.6667V9.33333ZM19.3334 9.33333C19.3334 10.0406 19.0525 10.7189 18.5524 11.219C18.0523 11.719 17.374 12 16.6667 12C15.9595 12 15.2812 11.719 14.7811 11.219C14.281 10.7189 14.0001 10.0406 14.0001 9.33333V2.66667C14.0001 1.95942 14.281 1.28115 14.7811 0.781048C15.2812 0.280951 15.9595 0 16.6667 0C17.374 0 18.0523 0.280951 18.5524 0.781048C19.0525 1.28115 19.3334 1.95942 19.3334 2.66667V9.33333ZM16.6667 20C17.374 20 18.0523 20.281 18.5524 20.781C19.0525 21.2811 19.3334 21.9594 19.3334 22.6667C19.3334 23.3739 19.0525 24.0522 18.5524 24.5523C18.0523 25.0524 17.374 25.3333 16.6667 25.3333C15.9595 25.3333 15.2812 25.0524 14.7811 24.5523C14.281 24.0522 14.0001 23.3739 14.0001 22.6667V20H16.6667ZM16.6667 18.6667C15.9595 18.6667 15.2812 18.3857 14.7811 17.8856C14.281 17.3855 14.0001 16.7072 14.0001 16C14.0001 15.2928 14.281 14.6145 14.7811 14.1144C15.2812 13.6143 15.9595 13.3333 16.6667 13.3333H23.3334C24.0407 13.3333 24.7189 13.6143 25.219 14.1144C25.7191 14.6145 26.0001 15.2928 26.0001 16C26.0001 16.7072 25.7191 17.3855 25.219 17.8856C24.7189 18.3857 24.0407 18.6667 23.3334 18.6667H16.6667Z" fill="#9F7FFF"/>
</svg>
