<svg width="32" height="27" viewBox="0 0 32 27" fill="none" xmlns="http://www.w3.org/2000/svg">
<path d="M10.052 27C22.128 27 28.734 16.994 28.734 8.33204C28.734 8.05204 28.734 7.76804 28.722 7.48804C30.0081 6.55701 31.1181 5.40435 32 4.08404C30.7986 4.61374 29.5255 4.96285 28.222 5.12004C29.5951 4.29932 30.6234 3.00798 31.116 1.48604C29.826 2.25029 28.414 2.78679 26.942 3.07204C25.9524 2.01809 24.6428 1.31988 23.2162 1.08556C21.7895 0.851238 20.3254 1.09389 19.0507 1.77592C17.7759 2.45795 16.7616 3.5413 16.1649 4.85816C15.5682 6.17503 15.4224 7.65191 15.75 9.06004C13.1395 8.92915 10.5856 8.25098 8.25409 7.06953C5.92254 5.88808 3.86537 4.22973 2.216 2.20204C1.37868 3.64821 1.12315 5.35884 1.50129 6.98658C1.87944 8.61431 2.86291 10.0371 4.252 10.966C3.21108 10.9307 2.19304 10.6512 1.28 10.15V10.24C1.28179 11.755 1.80661 13.2229 2.76575 14.3956C3.72488 15.5682 5.0595 16.3738 6.544 16.676C5.98053 16.8313 5.39846 16.9087 4.814 16.906C4.40197 16.9073 3.99076 16.8691 3.586 16.792C4.00557 18.0962 4.82255 19.2364 5.92249 20.053C7.02244 20.8696 8.35027 21.3217 9.72 21.346C7.39311 23.1736 4.5188 24.1649 1.56 24.16C1.03864 24.1622 0.517646 24.1322 0 24.07C3.00303 25.9846 6.4906 27.0011 10.052 27Z" fill="#9F80FC"/>
</svg>
