  <svg
    width="100"
    height="40"
    viewBox="0 0 859 199"
    fill="none"
    xmlns="http://www.w3.org/2000/svg"
  >
    <path
      d="M58.8803 196L0.0939958 0.0456579H44.8457L70.5316 85.0475C72.297 90.8731 73.9741 97.0519 75.5629 103.584C77.1517 109.939 78.7405 117.971 80.3294 127.681C81.9182 117.971 83.507 109.939 85.0958 103.584C86.6846 97.2284 88.3617 91.0497 90.1271 85.0475L114.224 0.0456579H162.154L185.191 85.0475C186.78 91.0497 188.369 97.3167 189.958 103.848C191.547 110.38 193.224 118.324 194.989 127.681C196.931 117.795 198.696 109.762 200.285 103.584C201.874 97.2284 203.551 91.2262 205.316 85.5771L231.532 0.0456579H275.224L215.379 196H173.54L137.792 67.3057L100.984 196H58.8803ZM422.544 0.0456579V196H382.029V0.0456579H422.544ZM284.582 123.709L369.054 0.0456579H414.335L328.009 126.886L284.582 123.709ZM446.641 161.311H284.582V123.709H446.641V161.311ZM500.456 196H455.704L525.612 0.0456579H567.451L637.095 196H591.548L577.779 154.691H514.491L500.456 196ZM540.971 76.8386L526.936 118.677H565.598L551.563 76.8386C550.504 73.4844 549.445 70.042 548.386 66.5112C547.326 62.9805 546.62 60.0677 546.267 57.7727C545.914 60.0677 545.208 62.9805 544.149 66.5112C543.266 69.8654 542.207 73.3079 540.971 76.8386ZM668.308 198.383C663.939 198.383 660.166 196.861 656.988 193.815C653.81 190.77 652.221 187.063 652.221 182.694C652.221 178.324 653.81 174.617 656.988 171.572C660.166 168.394 663.939 166.805 668.308 166.805C672.677 166.805 676.451 168.394 679.629 171.572C682.806 174.617 684.395 178.324 684.395 182.694C684.395 187.063 682.806 190.77 679.629 193.815C676.451 196.861 672.677 198.383 668.308 198.383ZM709.819 196V97.8904H734.049V196H709.819ZM721.735 78.2288C717.631 78.2288 714.122 76.8386 711.209 74.0581C708.429 71.1453 707.039 67.6367 707.039 63.5322C707.039 59.4278 708.429 55.9853 711.209 53.2049C714.122 50.4245 717.631 49.0343 721.735 49.0343C725.84 49.0343 729.282 50.4245 732.063 53.2049C734.976 55.9853 736.432 59.4278 736.432 63.5322C736.432 67.6367 734.976 71.1453 732.063 74.0581C729.282 76.8386 725.84 78.2288 721.735 78.2288ZM753.322 146.747C753.322 136.552 755.573 127.615 760.075 119.935C764.577 112.124 770.799 106.033 778.744 101.664C786.688 97.2946 795.691 95.11 805.754 95.11C815.948 95.11 824.952 97.2946 832.763 101.664C840.708 106.033 846.93 112.124 851.432 119.935C855.934 127.615 858.185 136.552 858.185 146.747C858.185 156.942 855.934 165.945 851.432 173.757C846.93 181.436 840.708 187.46 832.763 191.829C824.952 196.199 815.948 198.383 805.754 198.383C795.691 198.383 786.688 196.199 778.744 191.829C770.799 187.46 764.577 181.436 760.075 173.757C755.573 165.945 753.322 156.942 753.322 146.747ZM777.552 146.747C777.552 152.705 778.744 157.935 781.127 162.436C783.642 166.938 786.952 170.446 791.057 172.962C795.294 175.478 800.193 176.736 805.754 176.736C811.314 176.736 816.213 175.478 820.45 172.962C824.687 170.446 827.997 166.938 830.38 162.436C832.763 157.935 833.955 152.705 833.955 146.747C833.955 140.656 832.763 135.426 830.38 131.057C827.997 126.555 824.687 123.047 820.45 120.531C816.213 118.015 811.314 116.758 805.754 116.758C800.193 116.758 795.294 118.015 791.057 120.531C786.952 123.047 783.642 126.555 781.127 131.057C778.744 135.426 777.552 140.656 777.552 146.747Z"
      fill="url(#paint0_radial_56_927)"></path>
    <defs>
      <radialGradient
        id="paint0_radial_56_927"
        cx="0"
        cy="0"
        r="1"
        gradientUnits="userSpaceOnUse"
        gradientTransform="translate(722.345 62.5312) rotate(168.656) scale(682.041 453.855)"
      >
        <stop stop-color="#0894FF"></stop>
        <stop offset="0.290475" stop-color="#6E53FF"></stop>
        <stop offset="0.609151" stop-color="#B038EA"></stop>
        <stop offset="0.850793" stop-color="#F95088"></stop>
        <stop offset="1" stop-color="#FF6F62"></stop>
      </radialGradient>
    </defs>
  </svg>