<svg width="128" height="90" viewBox="0 0 128 90" fill="none" xmlns="http://www.w3.org/2000/svg">
<path d="M57.3704 73.0951C55.2557 73.3846 54.1983 73.5294 53.5131 72.9316C52.8279 72.3338 52.8279 71.2666 52.8279 69.1321V31.4451C52.8279 28.3971 52.2959 25.7768 51.2319 23.5843C50.2211 21.3384 48.6783 19.6272 46.6035 18.4508C44.5819 17.2743 42.1081 16.6861 39.182 16.6861C35.9368 16.6861 33.1704 17.2208 30.8828 18.2903C28.5952 19.3063 26.813 20.6967 25.5362 22.4614C25.1642 22.9815 24.8488 23.5215 24.5899 24.0812C23.541 26.3488 23.0166 27.4827 22.4814 27.7995C21.9462 28.1164 21.1065 28.0588 19.4273 27.9438L6.35992 27.0482C4.54468 26.9238 3.63706 26.8616 3.08844 26.1775C2.53981 25.4935 2.66223 24.686 2.90706 23.071C3.28192 20.5982 4.04191 18.2828 5.18703 16.1246C6.94264 12.8626 9.41646 10.0285 12.6085 7.62211C15.8537 5.21575 19.7373 3.34413 24.2594 2.00726C28.7814 0.670391 33.8088 0.00195639 39.3416 0.00195639C46.2045 0.00195639 52.1629 1.1784 57.217 3.53129C62.3242 5.88418 66.2876 9.41352 69.1072 14.1193C71.9268 18.7716 73.3367 24.6004 73.3367 31.6055V67.4198C73.3367 69.0829 73.3367 69.9144 72.8437 70.4795C72.3508 71.0445 71.5269 71.1572 69.8792 71.3828L57.3704 73.0951ZM52.2822 36.5787C54.1579 36.5787 55.0958 36.5787 55.6809 37.1604C56.266 37.7422 56.2714 38.6801 56.2821 40.5558L56.3162 46.5128C56.327 48.4082 56.3324 49.3559 55.7459 49.9458C55.1595 50.5356 54.2117 50.5356 52.3162 50.5356H38.8628C34.9792 50.5356 31.7074 51.1506 29.0474 52.3805C26.4406 53.5569 24.4722 55.1344 23.1421 57.113C21.8121 59.0916 21.1471 61.2306 21.1471 63.53C21.1471 65.669 21.6525 67.5673 22.6633 69.2251C23.6741 70.8828 25.217 72.1929 27.2918 73.1554C29.3666 74.0645 32 74.5191 35.192 74.5191C37.586 74.5191 40.0333 74.0913 42.5337 73.2357C45.0341 72.3266 47.3217 71.1769 49.3965 69.7865C51.5245 68.3962 53.2269 66.8989 54.5037 65.2947C55.5997 63.9176 58.5744 63.2866 59.703 64.6371L64.8328 70.7754C65.6866 71.7971 66.1134 72.3079 66.1411 72.9872C66.1688 73.6666 65.8277 74.1499 65.1454 75.1165C63.8233 76.9893 62.0849 78.8757 59.9302 80.7756C56.8978 83.3959 52.9875 85.5883 48.1995 87.353C43.4647 89.1177 37.7988 90 31.202 90C24.4988 90 18.8063 88.9038 14.1247 86.7113C9.49626 84.5188 5.98504 81.4173 3.59102 77.4067C1.19701 73.3426 0 68.6101 0 63.2091C0 58.9846 0.824605 55.2414 2.47382 51.9794C4.12303 48.664 6.57024 45.8833 9.81546 43.6374C13.0607 41.338 17.1039 39.6 21.9451 38.4236C26.7864 37.1937 32.3724 36.5787 38.7032 36.5787H52.2822ZM94.1646 90C87.5145 90 81.6359 88.984 76.5287 86.9519C71.4746 84.9199 67.192 82.0323 63.6808 78.289C60.2228 74.4923 57.5894 70.0539 55.7806 64.9738C54.0249 59.8402 53.1471 54.2254 53.1471 48.1293V43.1561C53.1471 36.7926 54.0249 30.9906 55.7806 25.7501C57.5362 20.4561 60.0898 15.884 63.4414 12.0338C66.793 8.1836 70.8628 5.21575 75.6509 3.13023C80.4921 0.99124 85.9451 -0.0515184 92.01 0.00195639C97.7024 0.00195639 102.756 0.911028 107.172 2.72917C111.641 4.54731 115.418 7.16758 118.504 10.59C121.589 13.9589 123.93 18.0764 125.526 22.9426C127.175 27.7554 128 33.1563 128 39.1455V47.0971C128 48.9827 128 49.9255 127.414 50.5113C126.828 51.0971 125.886 51.0971 124 51.0971H66.3242C64.4386 51.0971 63.4958 51.0971 62.91 50.5113C62.3242 49.9255 62.3242 48.9827 62.3242 47.0971V40.8193C62.3242 38.9337 62.3242 37.9909 62.91 37.4051C63.4958 36.8193 64.4386 36.8193 66.3242 36.8193H104.846C105.149 36.8193 105.3 36.8193 105.428 36.803C106.329 36.6868 107.04 35.9768 107.156 35.0748C107.172 34.9476 107.172 34.7961 107.172 34.4932C107.172 31.0708 106.64 28.0227 105.576 25.349C104.512 22.6753 102.863 20.563 100.628 19.0122C98.4472 17.4615 95.5744 16.6861 92.01 16.6861C88.7648 16.6861 85.9717 17.3545 83.6309 18.6914C81.2901 20.0283 79.3749 21.8999 77.8853 24.3062C76.3957 26.7126 75.2785 29.52 74.5337 32.7285C73.8421 35.937 73.4963 39.4129 73.4963 43.1561V48.1293C73.4963 51.7121 73.9219 55.0275 74.7731 58.0756C75.6243 61.0701 76.9543 63.7172 78.7631 66.0166C80.5719 68.316 82.9127 70.1074 85.7855 71.3908C88.6584 72.6742 92.0898 73.3159 96.0798 73.3159C101.825 73.3159 106.48 72.594 110.045 71.1501C112.136 70.2846 114.121 69.3922 115.999 68.4729C117.908 67.5385 118.863 67.0712 119.668 67.3713C120.474 67.6714 120.876 68.617 121.681 70.5083L124.621 77.4166C125.216 78.8155 125.514 79.515 125.288 80.2227C125.062 80.9304 124.459 81.3006 123.253 82.041C121.963 82.8331 120.459 83.6679 118.743 84.5456C115.764 86.0429 112.173 87.3263 107.97 88.3958C103.82 89.4653 99.2186 90 94.1646 90Z" fill="url(#paint0_radial_189_212)"/>
<defs>
<radialGradient id="paint0_radial_189_212" cx="0" cy="0" r="1" gradientUnits="userSpaceOnUse" gradientTransform="translate(115.5 10) rotate(148.559) scale(123.655 116.362)">
<stop stop-color="#0894FF"/>
<stop offset="0.290475" stop-color="#6E53FF"/>
<stop offset="0.609151" stop-color="#B038EA"/>
<stop offset="0.850793" stop-color="#F95088"/>
<stop offset="1" stop-color="#FF6F62"/>
</radialGradient>
</defs>
</svg>
