<svg width="456" height="456" viewBox="0 0 456 456" fill="none" xmlns="http://www.w3.org/2000/svg">
<path d="M220.296 247.338C219.693 248.287 218.498 248.454 217.115 248.673C207.175 250.247 205.761 251.738 202.953 250.184C201.634 249.583 200.59 248.503 200.032 247.161C199.065 244.242 202.257 242.355 201.893 239.269C201.529 236.183 197.411 232.211 192.691 232.879C190.766 233.209 189.013 234.191 187.724 235.662C186.436 237.133 185.689 239.002 185.61 240.958C185.61 244.325 188.729 245.629 188.085 247.693C187.315 250.038 182.657 250.445 178.623 250.82C171.147 251.477 167.404 251.811 165.699 249.58C162.673 245.629 169.858 238.654 166.229 231.398C165.699 230.356 164.69 228.271 162.694 227.666C158.732 226.425 155.686 232.17 151.714 231.127C148.928 230.397 147.004 226.655 147.025 223.319C147.025 220.254 148.709 216.647 151.454 215.781C155.312 214.562 158.265 219.732 161.852 218.44C164.857 217.397 165.761 212.789 165.928 211.966C167.342 204.762 161.384 200.727 163.443 197.058C164.68 194.848 167.851 194.504 173.715 193.868C178.436 193.346 181.659 192.992 182.917 194.754C184.872 197.485 179.642 201.926 181.586 206.284C182.876 209.172 186.671 210.569 189.728 210.454C193.959 210.298 197.588 207.212 198.399 203.886C199.439 199.414 194.926 196.662 196.32 194.128C197.297 192.429 199.605 193.232 211.188 192.439C214.484 192.22 215.347 192.085 216.148 192.794C218.394 194.879 214.962 199.445 216.054 207.17C216.345 209.255 217.094 214.249 220.213 215.51C221.929 216.198 223.873 215.583 225.786 214.979C229.467 213.821 229.945 212.268 232.025 212.32C234.479 212.32 236.891 214.655 237.692 217.105C239.147 221.619 235.217 226.832 231.848 227.228C229.062 227.551 227.855 224.434 223.8 224.559C222.126 224.532 220.495 225.097 219.194 226.154C215.919 229.199 216.98 236.58 218.758 241.156C219.839 243.815 221.253 245.858 220.296 247.338Z" fill="url(#paint0_radial_1127_1856)"/>
<mask id="mask0_1127_1856" style="mask-type:alpha" maskUnits="userSpaceOnUse" x="147" y="192" width="92" height="60">
<path d="M220.296 247.338C219.693 248.287 218.498 248.454 217.115 248.673C207.175 250.247 205.761 251.738 202.953 250.184C201.634 249.583 200.59 248.503 200.032 247.161C199.065 244.242 202.257 242.355 201.893 239.269C201.529 236.183 197.411 232.211 192.691 232.879C190.766 233.209 189.013 234.191 187.724 235.662C186.436 237.133 185.689 239.002 185.61 240.958C185.61 244.325 188.729 245.629 188.085 247.693C187.315 250.038 182.657 250.445 178.623 250.82C171.147 251.477 167.404 251.811 165.699 249.58C162.673 245.629 169.858 238.654 166.229 231.398C165.699 230.356 164.69 228.271 162.694 227.666C158.732 226.425 155.686 232.17 151.714 231.127C148.928 230.397 147.004 226.655 147.025 223.319C147.025 220.254 148.709 216.647 151.454 215.781C155.312 214.562 158.265 219.732 161.852 218.44C164.857 217.397 165.761 212.789 165.928 211.966C167.342 204.762 161.384 200.727 163.443 197.058C164.68 194.848 167.851 194.504 173.715 193.868C178.436 193.346 181.659 192.992 182.917 194.754C184.872 197.485 179.642 201.926 181.586 206.284C182.876 209.172 186.671 210.569 189.728 210.454C193.959 210.298 197.588 207.212 198.399 203.886C199.439 199.414 194.926 196.662 196.32 194.128C197.297 192.429 199.605 193.232 211.188 192.439C214.484 192.22 215.347 192.085 216.148 192.794C218.394 194.879 214.962 199.445 216.054 207.17C216.345 209.255 217.094 214.249 220.213 215.51C221.929 216.198 223.873 215.583 225.786 214.979C229.467 213.821 229.945 212.268 232.025 212.32C234.479 212.32 236.891 214.655 237.692 217.105C239.147 221.619 235.217 226.832 231.848 227.228C229.062 227.551 227.855 224.434 223.8 224.559C222.126 224.532 220.495 225.097 219.194 226.154C215.919 229.199 216.98 236.58 218.758 241.156C219.839 243.815 221.253 245.858 220.296 247.338Z" fill="url(#paint1_radial_1127_1856)"/>
</mask>
<g mask="url(#mask0_1127_1856)">
<g filter="url(#filter0_f_1127_1856)">
<rect x="171.215" y="181.706" width="102" height="31.1752" transform="rotate(45 171.215 181.706)" fill="white" fill-opacity="0.16"/>
</g>
</g>
<path d="M255.801 240.176C255.021 239.467 255.166 238.508 255.073 236.381C254.803 230.627 253.284 228.74 254.033 223.746C254.251 222.193 254.459 221.911 254.626 221.755C256.56 219.889 261.187 224.591 265.97 223.475C269.64 222.62 273.425 218.356 272.811 213.957C272.462 212.14 271.549 210.48 270.203 209.214C268.856 207.949 267.145 207.142 265.314 206.91C260.365 206.43 257.703 211.778 255.021 210.569C253.025 209.662 252.941 205.95 252.765 200.248C252.609 194.264 252.525 191.272 254.293 190C257.173 187.915 260.937 192.648 267.498 191.199C268.122 191.063 273.435 189.896 274.537 186.414C275.639 182.932 271.106 180.284 272.208 176.499C272.998 173.82 276.284 171.62 279.611 171.839C281.013 171.914 282.364 172.393 283.5 173.22C284.637 174.047 285.511 175.186 286.016 176.499C287.295 180.523 282.834 183.568 284.228 186.612C285.371 189.114 289.51 189.489 291.506 189.666C300.978 190.532 305.709 184.266 309.182 186.612C310.721 187.654 310.96 190.698 311.438 196.797C311.916 202.896 312.155 205.94 310.502 207.108C307.674 209.099 303.224 203.334 298.358 205.106C296.396 205.99 294.797 207.525 293.831 209.452C292.865 211.379 292.591 213.581 293.055 215.688C293.441 217.097 294.19 218.381 295.226 219.409C296.263 220.438 297.551 221.175 298.961 221.546C303.754 222.589 306.738 217.376 309.639 218.815C311.272 219.618 311.656 222.474 312.436 228.198C313.133 233.41 313.476 236.017 312.436 237.049C310.128 239.311 305.636 235.224 296.84 236.381C294.396 236.705 291.152 237.174 290.061 239.446C288.969 241.719 290.622 245.545 290.799 245.9C291.61 247.578 292.182 247.568 292.39 248.631C292.899 251.196 290.31 254.98 286.681 255.814C282.897 256.7 278.769 254.125 277.854 251.154C276.762 247.62 280.62 244.722 279.05 241.511C278.289 240.233 277.08 239.285 275.66 238.852C274.568 238.394 271.938 237.549 261.103 240.114C258.702 240.677 256.84 241.177 255.801 240.176Z" fill="url(#paint2_radial_1127_1856)"/>
<path d="M255.801 240.176C255.021 239.467 255.166 238.508 255.073 236.381C254.803 230.627 253.284 228.74 254.033 223.746C254.251 222.193 254.459 221.911 254.626 221.755C256.56 219.889 261.187 224.591 265.97 223.475C269.64 222.62 273.425 218.356 272.811 213.957C272.462 212.14 271.549 210.48 270.203 209.214C268.856 207.949 267.145 207.142 265.314 206.91C260.365 206.43 257.703 211.778 255.021 210.569C253.025 209.662 252.941 205.95 252.765 200.248C252.609 194.264 252.525 191.272 254.293 190C257.173 187.915 260.937 192.648 267.498 191.199C268.122 191.063 273.435 189.896 274.537 186.414C275.639 182.932 271.106 180.284 272.208 176.499C272.998 173.82 276.284 171.62 279.611 171.839C281.013 171.914 282.364 172.393 283.5 173.22C284.637 174.047 285.511 175.186 286.016 176.499C287.295 180.523 282.834 183.568 284.228 186.612C285.371 189.114 289.51 189.489 291.506 189.666C300.978 190.532 305.709 184.266 309.182 186.612C310.721 187.654 310.96 190.698 311.438 196.797C311.916 202.896 312.155 205.94 310.502 207.108C307.674 209.099 303.224 203.334 298.358 205.106C296.396 205.99 294.797 207.525 293.831 209.452C292.865 211.379 292.591 213.581 293.055 215.688C293.441 217.097 294.19 218.381 295.226 219.409C296.263 220.438 297.551 221.175 298.961 221.546C303.754 222.589 306.738 217.376 309.639 218.815C311.272 219.618 311.656 222.474 312.436 228.198C313.133 233.41 313.476 236.017 312.436 237.049C310.128 239.311 305.636 235.224 296.84 236.381C294.396 236.705 291.152 237.174 290.061 239.446C288.969 241.719 290.622 245.545 290.799 245.9C291.61 247.578 292.182 247.568 292.39 248.631C292.899 251.196 290.31 254.98 286.681 255.814C282.897 256.7 278.769 254.125 277.854 251.154C276.762 247.62 280.62 244.722 279.05 241.511C278.289 240.233 277.08 239.285 275.66 238.852C274.568 238.394 271.938 237.549 261.103 240.114C258.702 240.677 256.84 241.177 255.801 240.176Z" fill="url(#paint3_linear_1127_1856)" fill-opacity="0.25" style="mix-blend-mode:lighten"/>
<mask id="mask1_1127_1856" style="mask-type:alpha" maskUnits="userSpaceOnUse" x="252" y="171" width="62" height="85">
<path d="M255.801 240.176C255.021 239.467 255.166 238.508 255.073 236.381C254.803 230.627 253.284 228.74 254.033 223.746C254.251 222.193 254.459 221.911 254.626 221.755C256.56 219.889 261.187 224.591 265.97 223.475C269.64 222.62 273.425 218.356 272.811 213.957C272.462 212.14 271.549 210.48 270.203 209.214C268.856 207.949 267.145 207.142 265.314 206.91C260.365 206.43 257.703 211.778 255.021 210.569C253.025 209.662 252.941 205.95 252.765 200.248C252.609 194.264 252.525 191.272 254.293 190C257.173 187.915 260.937 192.648 267.498 191.199C268.122 191.063 273.435 189.896 274.537 186.414C275.639 182.932 271.106 180.284 272.208 176.499C272.998 173.82 276.284 171.62 279.611 171.839C281.013 171.914 282.364 172.393 283.5 173.22C284.637 174.047 285.511 175.186 286.016 176.499C287.295 180.523 282.834 183.568 284.228 186.612C285.371 189.114 289.51 189.489 291.506 189.666C300.978 190.532 305.709 184.266 309.182 186.612C310.721 187.654 310.96 190.698 311.438 196.797C311.916 202.896 312.155 205.94 310.502 207.108C307.674 209.099 303.224 203.334 298.358 205.106C296.396 205.99 294.797 207.525 293.831 209.452C292.865 211.379 292.591 213.581 293.055 215.688C293.441 217.097 294.19 218.381 295.226 219.409C296.263 220.438 297.551 221.175 298.961 221.546C303.754 222.589 306.738 217.376 309.639 218.815C311.272 219.618 311.656 222.474 312.436 228.198C313.133 233.41 313.476 236.017 312.436 237.049C310.128 239.311 305.636 235.224 296.84 236.381C294.396 236.705 291.152 237.174 290.061 239.446C288.969 241.719 290.622 245.545 290.799 245.9C291.61 247.578 292.182 247.568 292.39 248.631C292.899 251.196 290.31 254.98 286.681 255.814C282.897 256.7 278.769 254.125 277.854 251.154C276.762 247.62 280.62 244.722 279.05 241.511C278.289 240.233 277.08 239.285 275.66 238.852C274.568 238.394 271.938 237.549 261.103 240.114C258.702 240.677 256.84 241.177 255.801 240.176Z" fill="url(#paint4_radial_1127_1856)"/>
<path d="M255.801 240.176C255.021 239.467 255.166 238.508 255.073 236.381C254.803 230.627 253.284 228.74 254.033 223.746C254.251 222.193 254.459 221.911 254.626 221.755C256.56 219.889 261.187 224.591 265.97 223.475C269.64 222.62 273.425 218.356 272.811 213.957C272.462 212.14 271.549 210.48 270.203 209.214C268.856 207.949 267.145 207.142 265.314 206.91C260.365 206.43 257.703 211.778 255.021 210.569C253.025 209.662 252.941 205.95 252.765 200.248C252.609 194.264 252.525 191.272 254.293 190C257.173 187.915 260.937 192.648 267.498 191.199C268.122 191.063 273.435 189.896 274.537 186.414C275.639 182.932 271.106 180.284 272.208 176.499C272.998 173.82 276.284 171.62 279.611 171.839C281.013 171.914 282.364 172.393 283.5 173.22C284.637 174.047 285.511 175.186 286.016 176.499C287.295 180.523 282.834 183.568 284.228 186.612C285.371 189.114 289.51 189.489 291.506 189.666C300.978 190.532 305.709 184.266 309.182 186.612C310.721 187.654 310.96 190.698 311.438 196.797C311.916 202.896 312.155 205.94 310.502 207.108C307.674 209.099 303.224 203.334 298.358 205.106C296.396 205.99 294.797 207.525 293.831 209.452C292.865 211.379 292.591 213.581 293.055 215.688C293.441 217.097 294.19 218.381 295.226 219.409C296.263 220.438 297.551 221.175 298.961 221.546C303.754 222.589 306.738 217.376 309.639 218.815C311.272 219.618 311.656 222.474 312.436 228.198C313.133 233.41 313.476 236.017 312.436 237.049C310.128 239.311 305.636 235.224 296.84 236.381C294.396 236.705 291.152 237.174 290.061 239.446C288.969 241.719 290.622 245.545 290.799 245.9C291.61 247.578 292.182 247.568 292.39 248.631C292.899 251.196 290.31 254.98 286.681 255.814C282.897 256.7 278.769 254.125 277.854 251.154C276.762 247.62 280.62 244.722 279.05 241.511C278.289 240.233 277.08 239.285 275.66 238.852C274.568 238.394 271.938 237.549 261.103 240.114C258.702 240.677 256.84 241.177 255.801 240.176Z" fill="url(#paint5_linear_1127_1856)" fill-opacity="0.25"/>
</mask>
<g mask="url(#mask1_1127_1856)">
<g filter="url(#filter1_f_1127_1856)">
<rect x="264.154" y="167.55" width="102" height="28.2751" transform="rotate(45 264.154 167.55)" fill="white" fill-opacity="0.16"/>
</g>
</g>
<path d="M51.1663 126.856C50.3753 126.985 49.6642 127.414 49.1804 128.054C48.7755 128.625 48.5509 129.304 48.5358 130.004C48.2511 131.641 47.8832 133.263 47.4336 134.862C47.0019 137.273 46.3403 139.636 45.4581 141.92C44.7094 143.786 44.5015 143.734 43.8257 145.6C43.2372 147.205 42.8055 148.863 42.5364 150.552C42.3237 152.341 42.2889 154.146 42.4324 155.942C42.6481 160.3 42.4251 164.67 41.7669 168.984C41.4301 170.492 41.2214 172.027 41.1431 173.571C41.117 175.471 41.2948 177.369 41.6734 179.232C42.2348 182.359 42.7131 182.495 42.8899 184.819C43.0132 186.391 43.0132 187.97 42.8899 189.542C42.7339 193.253 42.6507 195.12 42.5987 196.016C42.474 198.33 42.2764 201.74 42.0477 206.201C41.7565 207.411 41.2783 209.225 40.592 211.414C39.3987 215.015 38.0103 218.547 36.433 221.996C34.2391 227.208 34.9254 226.666 31.1822 236.789C29.4978 241.366 28.6556 243.649 27.4703 246.37C26.1082 249.497 25.9315 249.56 21.8556 258.213C20.0464 262.049 19.1834 263.936 18.1749 266.469C17.1351 269.18 16.4801 271.067 15.9186 272.725C15.5443 273.83 11.1565 286.673 6.96631 294.868C5.98894 296.775 4.35652 299.736 3.27518 301.456C2.00667 303.541 1.62196 304.083 1.62196 304.083C1.2784 304.552 0.965809 305.043 0.686181 305.553C0.196427 306.695 0.0378612 307.953 0.22869 309.181C0.451969 311.462 1.2381 313.651 2.51615 315.551C3.5298 316.967 4.71366 318.252 6.04093 319.377C7.23327 320.484 8.48269 321.528 9.78405 322.505C12.7889 324.694 28.4997 330.105 50.5945 334.952C52.3891 334.878 54.1657 334.563 55.8764 334.014C57.625 333.453 59.2925 332.665 60.8361 331.668C62.9156 330.324 63.1755 329.656 66.0348 327.582C67.1786 326.769 68.052 326.226 68.9982 325.632C74.5608 322.171 77.2538 321.462 81.8288 318.574C83.9083 317.292 83.5131 317.344 87.1627 314.811C93.04 310.757 99.1391 307.036 105.431 303.666C109.33 301.581 110.36 301.154 115.402 298.36C117.357 297.317 119.624 296.025 122.608 294.273C128.15 291 128.628 290.458 131.103 289.238C134.031 287.897 137.072 286.819 140.19 286.017C146.522 284.119 155.277 281.94 157.336 278.782C157.661 278.269 157.953 277.736 158.209 277.186C158.729 275.839 159.112 274.441 159.353 273.016C159.874 271.584 160.669 270.266 161.692 269.138C163.395 266.957 165.307 264.95 167.401 263.144C169.147 261.59 170.239 260.819 170.977 259.088C171.315 258.257 171.542 257.384 171.653 256.493C171.942 255.11 171.885 253.677 171.487 252.322C171.127 251.237 170.498 250.261 169.657 249.487C167.463 247.548 164.458 247.881 162.223 248.132C160.288 248.352 158.41 248.924 156.681 249.82C154.796 250.829 153.1 252.159 151.669 253.751C148.105 257.239 143.978 260.098 139.462 262.205C136.343 263.613 131.28 265.886 125.654 264.291C122.188 263.253 119.101 261.22 116.775 258.442C115.735 257.097 114.342 254.856 111.098 250.842C110.724 250.373 110.401 249.998 110.193 249.737C110.529 248.287 110.772 246.818 110.921 245.338C111.055 244.112 111.121 242.88 111.119 241.647C111.119 240.146 111.025 239.927 111.119 238.738C111.17 237.635 111.306 236.537 111.524 235.455C111.792 233.974 112.139 232.509 112.564 231.066C114.207 225.53 113.791 226.332 115.205 221.787C116.754 216.804 116.889 217.033 117.7 213.979C118.011 212.54 118.425 211.125 118.938 209.746C119.813 207.793 120.92 205.951 122.234 204.262C123.835 202.031 124.313 201.448 126.195 198.987C130.25 193.577 131.3 191.69 132.07 189.605C132.415 188.703 132.703 187.78 132.933 186.842C133.786 187.382 134.68 187.856 135.605 188.26C137.704 189.194 139.935 189.795 142.218 190.042C144.489 192.265 147.123 194.081 150.006 195.411C152.237 196.421 154.594 197.123 157.014 197.496C159.774 197.912 162.584 197.869 165.332 197.371C166.878 197.243 168.36 196.691 169.615 195.776C170.584 195.073 171.287 194.062 171.612 192.908C171.936 191.754 171.863 190.524 171.404 189.417C170.841 188.23 169.926 187.247 168.784 186.602C168.087 186.154 167.858 186.164 166.434 185.362C166.434 185.362 165.456 184.809 164.354 184.069C162.328 182.65 160.409 181.082 158.615 179.378C156.754 177.584 153.717 175.854 147.635 172.382C144.714 170.605 141.682 169.017 138.558 167.628C134.524 165.992 132.808 165.877 129.917 164.063C129.158 163.594 128.077 163.02 125.914 161.978C124.923 161.399 123.828 161.02 122.691 160.862C121.925 160.781 121.151 160.834 120.404 161.019C119.731 161.203 119.089 161.487 118.501 161.863C116.078 163.427 113.209 167.879 110.661 171.361L107.895 175.009L103.331 181.066C104.085 178.857 104.662 176.591 105.057 174.29C105.497 171.651 105.713 168.98 105.702 166.304C105.708 163.834 105.531 161.367 105.171 158.923C106.793 158.558 109.091 158.006 111.826 157.266C113.261 156.87 115.049 156.369 116.078 156.046C119.924 154.784 123.585 153.013 126.965 150.781C129.007 150.729 131.041 150.51 133.047 150.125C135.841 149.565 138.569 148.716 141.188 147.591C142.647 147.077 144.042 146.399 145.347 145.569C146.554 144.714 149.61 142.556 150.12 138.834C150.439 137.12 150.093 135.349 149.153 133.882C147.073 130.911 142.914 131.224 142.644 131.245C141.61 131.436 140.592 131.705 139.598 132.047C136.946 132.819 136.769 133.09 135.501 133.35C133.421 133.84 132.881 133.496 129.959 133.715C128.254 133.871 126.56 134.129 124.885 134.487C117.792 136.029 110.785 137.943 103.892 140.221C106.346 138.031 108.436 136.415 109.881 135.352C111.015 134.508 111.691 134.059 113.635 132.652C115.579 131.245 117.378 129.9 118.439 129.097C119.589 128.096 120.596 126.942 121.433 125.667C122.268 124.371 122.925 122.968 123.388 121.497C123.725 120.619 123.949 119.701 124.053 118.766C124.178 117.431 124.365 115.45 123.19 114.408C122.296 113.616 121.028 113.72 119.541 113.845C118.336 113.993 117.155 114.294 116.026 114.742C114.592 115.159 113.199 115.71 111.867 116.389C110.666 117.039 109.537 117.815 108.498 118.703C103.747 122.54 101.376 124.458 99.2343 125.646C97.8826 126.386 96.4581 127.043 94.545 127.909C91.9144 129.097 91.3113 129.253 90.0116 129.994C88.1788 131.029 86.4695 132.271 84.9168 133.694C79.8324 137.948 77.2954 140.075 75.7566 141.659C75.1119 142.327 72.5645 145.006 70.3914 146.987C69.7661 147.597 69.1065 148.171 68.4159 148.707C67.5672 149.251 66.7702 149.872 66.0348 150.562C65.633 151.003 65.284 151.489 64.9951 152.011C64.6978 152.769 64.4648 153.55 64.2985 154.347C64.0476 155.627 63.9602 156.933 64.0385 158.235C64.0385 159.851 63.8514 160.091 62.9988 165.168C62.6141 167.389 62.3021 169.62 61.959 171.851C61.4287 175.176 60.7113 180.608 59.8795 189.751C59.0823 187.553 58.4668 185.294 58.0391 182.995C57.6896 181.047 57.4569 179.08 57.3425 177.105C57.1657 174.592 57.1761 173.039 57.1553 170.485C57.1553 165.272 56.9682 158.204 57.1553 153.805C57.1954 152.577 57.345 151.356 57.6024 150.156C57.8312 149.186 58.0287 148.717 58.2887 147.466C58.2887 147.247 58.5278 146.267 58.6838 144.849C59.0516 142.435 59.125 139.984 58.9021 137.552C58.7892 134.955 57.9378 132.444 56.4483 130.317C55.5922 129.251 54.5315 128.368 53.329 127.721C52.7229 127.201 51.9626 126.897 51.1663 126.856Z" fill="#D1C2FF"/>
<path d="M434.93 156.223C436.687 161.999 436.625 164.719 438.392 172.319C438.829 174.227 439.047 175.186 439.203 175.728C440.139 179.19 440.711 179.899 440.742 181.806C440.728 183.096 440.518 184.375 440.118 185.601C439.505 187.905 439.079 188.249 438.132 190.866C437.477 192.784 437.633 192.951 436.812 195.776C436.043 198.403 435.367 200.259 435.086 201.072C433.636 205.374 432.452 209.76 431.54 214.208C431.998 216.71 432.414 218.816 432.736 220.369C433.849 225.842 434.223 226.906 434.545 229.752C434.899 232.796 434.618 232.723 434.992 235.83C435.252 237.988 435.46 238.644 436.542 243.867C437.379 247.438 438.028 251.05 438.486 254.689C438.767 257.378 438.559 257.191 438.798 260.37C439.089 264.228 439.474 265.698 441.387 276.8C442.208 281.565 442.177 281.523 442.427 282.743C443.196 286.567 444.221 290.336 445.494 294.023C445.702 294.648 446.222 296.108 446.97 297.932C447.994 300.565 449.182 303.132 450.526 305.616C452.377 308.962 453.583 310.328 454.904 313.56C455.367 314.649 455.645 315.808 455.725 316.989C455.76 318.245 455.609 319.5 455.278 320.711C454.996 321.943 454.595 323.144 454.082 324.297C452.787 326.978 451.051 329.421 448.946 331.522C448.644 331.856 447.501 333.117 445.889 334.65C445.567 334.952 444.641 335.765 442.77 337.381C442.333 337.812 441.856 338.199 441.345 338.538C440.202 339.148 438.916 339.437 437.623 339.372C435.699 339.466 435.918 339.841 432.123 340.644C429.458 341.171 426.763 341.537 424.054 341.739C421.545 342.069 419.015 342.211 416.485 342.166C412.897 341.897 409.381 341.02 406.087 339.57C404.565 338.963 403.1 338.22 401.71 337.35C400.437 336.514 399.234 335.576 398.112 334.545C398.112 334.545 396.532 333.19 391.51 329.218C388.682 326.977 386.498 325.528 383.722 323.693C380.52 321.608 379.636 321.16 371.848 316.479C367.949 314.143 365.713 312.799 362.854 311.026C355.472 306.439 356.064 306.491 351.417 303.676C343.619 298.954 341.685 298.641 337.079 294.857C335.111 293.311 333.309 291.564 331.703 289.644C329.436 286.892 329.561 286.1 326.629 282.347C325.693 281.169 326.068 281.742 322.179 277.134C321.095 275.738 319.932 274.404 318.696 273.141C317.032 271.567 316.2 271.171 314.183 269.148C313.43 268.437 312.734 267.667 312.104 266.844C310.68 265.145 309.72 263.105 309.317 260.923C309.19 260.007 309.124 259.085 309.12 258.16C309.12 256.649 309.255 256.294 309.317 255.033C309.381 253.016 309.157 251.001 308.652 249.049C308.429 248.122 308.151 247.21 307.82 246.317C306.229 241.793 304.867 240.781 304.035 237.206C303.609 235.329 303.359 234.182 304.035 233.171C305.075 231.534 307.716 231.503 309.515 231.482C311.389 231.476 313.243 231.87 314.953 232.639C316.021 233.122 317.024 233.738 317.937 234.474C319.142 235.336 320.269 236.303 321.305 237.362C322.654 238.712 323.866 240.193 324.924 241.782C326.185 243.602 327.325 245.503 328.334 247.474C329.442 249.551 330.442 251.684 331.329 253.865C331.871 254.098 332.393 254.377 332.888 254.699C333.732 255.262 334.501 255.931 335.176 256.69C336.583 258.179 338.14 259.517 339.823 260.683C341.123 261.58 340.863 261.152 342.672 262.32C347.154 265.145 348.776 266.375 348.776 266.375C349.191 266.779 349.729 267.032 350.304 267.095C351.344 267.095 351.698 266.219 353.34 264.78C354.463 263.8 354.38 264.071 356.875 262.195C357.712 261.687 358.481 261.074 359.163 260.37C359.561 259.889 359.909 259.369 360.203 258.817C360.74 257.839 361.202 256.821 361.586 255.773C362.438 253.417 363.133 251.007 363.665 248.559C364.403 244.226 364.841 239.847 364.975 235.454C365.09 233.369 365.194 230.45 365.173 226.979C363.259 224.223 361.586 221.307 360.172 218.263C357.978 213.488 357.437 210.538 355.243 207.139C354.088 205.617 353.082 203.987 352.238 202.271C351.993 201.597 351.642 200.967 351.198 200.405C350.159 199.112 349.379 199.362 348.474 198.257C347.57 197.152 347.975 196.454 346.998 195.703C346.551 195.369 346.457 195.495 345.532 194.932C344.94 194.562 344.38 194.143 343.858 193.681C343.358 193.249 342.882 192.789 342.433 192.304C340.805 190.398 339.044 188.611 337.162 186.956C336.312 186.283 335.4 185.693 334.438 185.195C332.605 186.019 330.692 186.652 328.729 187.081C326.614 187.533 324.455 187.743 322.293 187.707C320.783 188.945 319.079 189.925 317.25 190.605C316.101 191.088 314.877 191.37 313.632 191.439C313.091 191.439 312.696 191.439 311.802 191.439C310.972 191.484 310.146 191.578 309.327 191.721C307.385 191.942 305.42 191.882 303.494 191.543C298.784 190.73 294.906 187.77 294.958 186.237C294.98 185.809 295.109 185.393 295.332 185.028C295.606 184.669 295.963 184.383 296.372 184.194C296.88 183.871 297.412 183.589 297.963 183.349C301.564 181.743 304.882 179.564 307.789 176.896C309.504 175.27 309.587 174.707 311.272 173.466C312.571 172.573 313.966 171.828 315.431 171.246C317.791 170.203 318.165 170.422 321.337 169.348C322.283 169.025 321.94 169.108 327.981 166.752C330.819 165.637 331.453 165.408 332.389 165.084C333.575 164.688 334.791 164.334 337.235 163.646C340.25 162.791 341.102 162.603 342.288 162.603C343.148 162.555 344.011 162.64 344.846 162.853C345.885 163.145 346.717 163.646 349.244 165.981C350.595 167.211 351.614 168.149 353.226 169.859C354.567 171.298 355.025 171.944 356.345 173.372C357.115 174.248 359.568 177.011 362.469 179.846C363.634 180.983 365.069 182.255 367.897 184.746C370.455 187.019 372.597 188.916 374.135 190.199C374.825 189.401 375.619 188.699 376.496 188.114C377.31 187.571 378.19 187.136 379.116 186.821C379.349 185.581 379.429 184.317 379.355 183.057C379.175 181.128 378.716 179.235 377.993 177.438C376.953 174.425 376.589 174.571 375.57 171.819C374.718 169.515 374.967 169.484 373.74 165.564C373.512 164.845 372.846 162.76 371.817 160.132C370.465 156.703 369.893 155.9 369.529 155.441C368.639 154.075 367.3 153.064 365.745 152.585C365.214 152.47 364.798 152.491 363.852 152.251C363.027 152.043 362.228 151.743 361.471 151.354C360.242 150.751 359.06 150.054 357.936 149.269C356.054 147.977 355.42 147.184 353.777 145.944C352.334 144.953 350.806 144.092 349.212 143.369C345.137 141.284 343.099 140.241 341.653 139.47C336.86 136.832 333.127 134.789 330.767 130.64C329.787 129.031 329.239 127.196 329.176 125.312C329.176 123.405 329.644 119.818 331.745 119.057C332.992 118.609 334.531 119.276 335.987 119.902C336.912 120.298 337.027 120.496 338.16 121.059C339.406 121.671 340.708 122.16 342.049 122.518C343.983 123.102 343.775 123.269 349.483 125.646C353.694 127.387 354.12 127.429 357.583 128.93C360.369 130.139 360.244 130.181 361.918 130.879C366.285 132.704 366.951 132.328 371.432 133.944C377.671 136.196 377.764 137.416 381.549 138.021C383.004 138.211 384.422 138.615 385.76 139.22C387.059 139.835 388.258 140.643 389.316 141.617C390.314 142.539 391.185 143.591 391.905 144.745C393.246 146.903 393.724 148.779 394.587 152.303C394.972 153.867 394.816 153.502 395.721 157.516C396.261 159.934 396.511 160.935 396.844 162.061C397.322 163.656 397.613 164.302 398.195 165.939C399.599 169.87 400.649 173.737 401.564 177.052C401.72 177.647 401.959 178.554 402.375 179.773C402.978 181.608 403.581 183.036 403.966 183.943C404.174 183.464 404.455 182.765 404.767 181.858C405.696 179.175 406.392 176.416 406.846 173.612C408.271 166.189 408.291 166.002 408.551 164.97C409.111 162.733 409.806 160.533 410.631 158.381C409.432 157.26 408.384 155.988 407.512 154.597C407.033 153.825 406.69 153.127 405.838 151.876C405.349 151.167 404.975 150.666 404.226 149.707C402.77 147.841 401.762 146.58 401.273 145.954C400.493 144.974 399.381 143.525 398.06 141.69C395.125 140.676 392.42 139.085 390.106 137.009C388.63 135.623 387.07 134.038 387.07 134.038C385.542 132.464 385.136 131.953 383.951 130.911C382.765 129.868 382.474 129.774 381.788 129.045C380.842 128.035 380.097 126.853 379.594 125.563C378.794 123.405 378.315 119.307 380.561 117.525C381.819 116.482 383.462 116.566 384.949 116.618C386.676 116.827 388.367 117.276 389.971 117.952C391.592 118.44 393.168 119.068 394.681 119.829C396.043 120.607 397.337 121.5 398.549 122.498C401.845 124.958 401.159 124.301 404.33 126.668C406.274 128.127 408.645 129.952 411.327 132.141C411.49 131.471 411.783 130.84 412.191 130.285C412.814 129.47 413.638 128.83 414.582 128.429C415.274 128.068 416.03 127.845 416.807 127.773C417.793 127.646 418.794 127.825 419.677 128.284C420.64 128.957 421.347 129.939 421.683 131.067C422.536 133.079 423.68 134.966 424.595 136.957C426.243 140.124 428.087 143.185 430.116 146.121C431.212 147.693 432.195 149.341 433.058 151.052C433.824 152.721 434.45 154.45 434.93 156.223Z" fill="#D1C2FF"/>
<path d="M47.2466 136.926C47.808 134.716 48.172 132.495 48.6191 130.358C48.7253 129.833 48.8712 129.318 49.0558 128.815C49.2078 128.339 49.4973 127.918 49.8876 127.606C50.3153 127.362 50.7991 127.234 51.2912 127.234C51.7834 127.234 52.2671 127.362 52.6949 127.606C54.5459 128.481 56.1109 129.866 57.2074 131.599C58.1748 133.34 58.7131 135.288 58.7775 137.28C59.0403 141.042 58.7495 144.822 57.9145 148.498C57.069 151.855 56.7187 155.318 56.8747 158.777C56.8747 162.04 56.8747 165.116 56.9995 167.993C57.1971 173.737 56.9995 178.731 57.9665 182.713C58.413 184.984 59.0175 187.22 59.7756 189.406C59.7756 189.281 59.7756 189.156 59.7756 189.031C59.0825 186.943 58.5268 184.812 58.112 182.651C57.2178 178.689 57.4154 173.706 57.2594 167.962C57.1763 165.095 57.197 162.019 57.1659 158.767C57.0403 155.333 57.4115 151.898 58.268 148.571C59.1403 144.875 59.4627 141.071 59.2246 137.28C59.1499 135.221 58.5867 133.209 57.5818 131.411C57.039 130.489 56.3587 129.656 55.5646 128.94C54.7737 128.202 53.872 127.594 52.8925 127.137C52.3819 126.86 51.8082 126.723 51.2282 126.737C50.6482 126.752 50.0821 126.918 49.586 127.22C49.1061 127.583 48.7443 128.08 48.5463 128.648C48.3508 129.175 48.1944 129.715 48.0784 130.264C47.6209 132.433 47.2674 134.622 46.7059 136.811C46.4876 137.656 46.2588 138.5 46.0093 139.345L46.5707 139.251C46.8099 138.469 47.0594 137.697 47.2466 136.926Z" fill="#3F00F9"/>
<path d="M8.56765 321.378L6.6441 319.721C5.99945 319.158 5.42758 318.512 4.79333 317.896C4.15908 317.281 3.66 316.593 3.14012 315.874C2.05295 314.404 1.23607 312.752 0.727886 310.995C0.145306 309.184 0.260302 307.22 1.05021 305.491C1.9652 303.791 3.12972 302.134 4.16948 300.351C5.20924 298.568 6.24899 296.754 7.21596 294.857C9.25744 290.952 11.0629 286.928 12.6227 282.805C14.1927 278.541 15.5548 274.079 17.2704 269.628C18.986 265.176 20.9407 260.673 23.0722 256.148C24.1744 253.91 25.2904 251.641 26.4203 249.341C27.512 247.016 28.4998 244.639 29.5395 242.22C30.5793 239.802 31.3799 237.299 32.1701 234.777C32.9603 232.254 33.8441 229.741 34.7903 227.229C36.6411 222.183 38.8349 217.2 40.7689 211.998C41.7693 209.409 42.3858 206.686 42.5989 203.918C42.7236 201.187 42.786 198.487 42.89 195.797C42.9385 194.449 43.0113 193.114 43.1083 191.794C43.1811 190.459 43.3163 189.135 43.3059 187.79C43.3076 186.454 43.2103 185.119 43.0148 183.798C42.8172 182.484 42.4637 181.212 42.1934 179.951C41.5635 177.477 41.3943 174.907 41.6943 172.372C42.0894 169.849 42.4013 167.315 42.5469 164.803C42.6924 162.29 42.786 159.809 42.7548 157.359C42.6004 154.956 42.677 152.544 42.9836 150.156C43.1893 148.998 43.4707 147.856 43.8258 146.736C44.1793 145.631 44.7512 144.651 45.219 143.536C45.7675 142.198 46.2397 140.83 46.6331 139.438L46.082 139.501C45.7066 140.8 45.2588 142.078 44.7408 143.327C44.2138 144.383 43.7418 145.465 43.3267 146.569C42.9564 147.712 42.6646 148.879 42.4533 150.062C42.1415 152.481 42.0579 154.924 42.2038 157.359C42.2038 159.809 42.2038 162.28 41.9958 164.772C41.7879 167.263 41.5383 169.755 41.1432 172.288C40.8274 174.892 40.993 177.532 41.6319 180.076C41.923 181.358 42.2557 182.609 42.4533 183.891C42.641 185.183 42.7348 186.486 42.734 187.79C42.734 189.094 42.6093 190.418 42.5261 191.752C42.4429 193.086 42.3701 194.421 42.3077 195.766C42.2176 198.455 42.1206 201.162 42.0166 203.887C41.8057 206.601 41.2033 209.27 40.2282 211.81C38.3151 216.96 36.0692 221.975 34.2496 227.02C33.3034 229.543 32.43 232.076 31.619 234.599C30.808 237.122 29.9866 239.593 29.0093 242.012C28.0319 244.43 27.0441 246.797 25.9628 249.101L22.6251 255.919C20.4937 260.454 18.5389 264.957 16.8233 269.472C15.1077 273.986 13.704 278.427 12.1964 282.67C10.6544 286.778 8.8662 290.788 6.84165 294.68C5.86428 296.567 4.86611 298.401 3.82636 300.153C2.7866 301.904 1.63247 303.562 0.70709 305.365C0.238434 306.266 -0.00424131 307.268 5.60959e-05 308.284C5.60959e-05 308.774 0.0624416 309.264 0.0936343 309.754C0.124827 310.244 0.280791 310.703 0.374369 311.183C0.906452 312.985 1.75118 314.679 2.86978 316.187C3.44165 316.896 4.00312 317.605 4.60618 318.272C5.20923 318.939 5.83309 319.533 6.48814 320.107L8.03737 321.42C8.67162 321.764 9.32667 322.108 9.99211 322.463L8.56765 321.378Z" fill="#3F00F9"/>
<path d="M119.905 114.095C121.194 113.918 122.618 114.022 123.305 115.065C123.897 116.171 124.089 117.45 123.845 118.682C123.67 119.924 123.341 121.139 122.868 122.3C122.013 124.553 120.691 126.6 118.99 128.305C117.285 129.879 115.33 131.088 113.583 132.412C111.836 133.736 110.131 134.956 108.54 136.176C106.773 137.541 105.119 138.834 103.601 140.116L104.496 139.856C105.826 138.761 107.272 137.656 108.779 136.499C110.287 135.342 112.075 134.049 113.843 132.767C115.736 131.493 117.561 130.122 119.312 128.659C121.078 126.912 122.453 124.808 123.346 122.487C123.849 121.289 124.199 120.031 124.386 118.745C124.657 117.384 124.444 115.971 123.783 114.752C123.349 114.147 122.703 113.729 121.974 113.584C121.285 113.472 120.583 113.472 119.894 113.584C119.447 113.584 119 113.72 118.553 113.814C118.834 113.918 119.125 114.053 119.447 114.21L119.905 114.095Z" fill="#3F00F9"/>
<path d="M58.2475 195.776C57.5513 197.348 56.683 198.838 55.6585 200.217C55.3154 200.686 55.0346 201.041 54.8475 201.26C54.7487 201.375 54.6583 201.497 54.5771 201.625C54.6924 201.528 54.797 201.42 54.8891 201.301C55.097 201.072 55.3882 200.728 55.7521 200.259C56.8227 198.897 57.7301 197.413 58.4554 195.839C58.984 194.7 59.3918 193.508 59.672 192.284C59.8175 191.564 59.9215 190.814 60.0151 190.032C59.9319 189.823 59.8591 189.594 59.7759 189.375C59.672 190.418 59.568 191.345 59.4016 192.232C59.1401 193.45 58.7533 194.638 58.2475 195.776Z" fill="#3F00F9"/>
<path d="M60.254 187.896C60.5867 184.768 60.961 181.109 61.4289 177.126C61.8968 173.144 62.7078 168.786 63.4149 164.157C63.602 162.983 63.7892 161.794 63.9763 160.592C64.1984 159.368 64.3512 158.132 64.4338 156.891C64.4597 155.631 64.5919 154.376 64.8289 153.138C65.1345 151.922 65.8745 150.861 66.9084 150.156C68.0121 149.38 69.0709 148.541 70.0797 147.644C71.1194 146.727 72.0344 145.705 73.0014 144.714C74.925 142.723 76.9837 140.784 79.136 138.866C81.2883 136.948 83.5029 135.03 85.8528 133.216C88.189 131.336 90.7752 129.792 93.5366 128.628C94.9299 128.034 96.3647 127.461 97.6956 126.741C99.0316 126.032 100.323 125.242 101.564 124.375C104.038 122.686 106.253 120.747 108.561 119.037C109.936 118.012 111.394 117.102 112.918 116.316C112.913 116.25 112.913 116.184 112.918 116.118C112.952 115.944 113.001 115.773 113.063 115.607C111.358 116.447 109.732 117.442 108.208 118.579C105.868 120.299 103.653 122.227 101.21 123.906C99.9905 124.759 98.7196 125.535 97.4045 126.231C96.084 126.929 94.6907 127.492 93.2455 128.086C90.4396 129.273 87.8117 130.845 85.4369 132.757C83.0662 134.592 80.8516 136.52 78.6889 138.439C76.5262 140.357 74.5298 142.327 72.5439 144.329C71.5769 145.371 70.6516 146.341 69.6534 147.237C68.6584 148.123 67.6172 148.954 66.5341 149.729C65.9667 150.12 65.4678 150.603 65.0577 151.157C64.668 151.718 64.3794 152.342 64.2051 153.002C63.9697 154.272 63.8376 155.558 63.81 156.849C63.7577 158.082 63.6362 159.311 63.446 160.529C63.2589 161.728 63.0821 162.917 62.895 164.074C62.2087 168.744 61.3353 173.071 60.9818 177.074C60.6283 181.077 60.1916 184.685 59.9421 187.864C59.9421 188.271 59.8589 188.646 59.8277 189.032C59.7965 189.418 59.9837 189.511 60.0564 189.741C60.1188 189.136 60.1812 188.531 60.254 187.896Z" fill="#3F00F9"/>
<path d="M113.198 116.212C114.089 115.75 115.014 115.356 115.964 115.033C116.984 114.694 118.026 114.426 119.083 114.231C118.782 114.074 118.501 113.949 118.241 113.845C117.42 114.022 116.619 114.251 115.808 114.502C114.984 114.781 114.179 115.112 113.396 115.492C113.317 115.705 113.258 115.925 113.219 116.149L113.198 116.212Z" fill="#3F00F9"/>
<path d="M60.0151 190.063V189.74C59.9422 189.511 59.8588 189.281 59.7859 189.031C59.7859 189.156 59.7859 189.281 59.7859 189.407C59.7859 189.532 59.9317 189.855 60.0151 190.063Z" fill="#3F00F9"/>
<path d="M126.674 150.635L126.112 150.937C124.646 151.688 123.294 152.657 121.891 153.356C120.475 154.033 119.024 154.635 117.545 155.159C116.079 155.691 114.623 156.202 113.178 156.588L108.873 157.703L106.794 158.245L105.754 158.506L105.161 158.662C105.244 158.777 105.338 158.881 105.421 159.017C105.504 159.152 105.421 159.131 105.504 159.183C105.587 159.236 105.504 159.069 105.504 159.058L105.868 158.964L106.908 158.704L108.987 158.172L113.354 157.088C114.81 156.661 116.276 156.191 117.742 155.66C119.247 155.135 120.722 154.529 122.161 153.846C123.638 153.116 124.937 152.178 126.403 151.427L126.684 151.281C126.684 151.073 126.684 150.864 126.684 150.645L126.674 150.635Z" fill="#3F00F9"/>
<path d="M134.596 133.757C134.908 133.757 135.22 133.694 135.522 133.632C136.469 133.475 137.398 133.227 138.298 132.892C139.203 132.558 140.045 132.099 140.918 131.849C142.679 131.34 144.563 131.465 146.242 132.204C147.086 132.487 147.852 132.966 148.477 133.602C149.102 134.238 149.569 135.012 149.839 135.863C150.172 137.617 149.846 139.433 148.924 140.961C148.117 142.538 146.995 143.933 145.628 145.058C144.161 146.011 142.587 146.787 140.939 147.372C139.339 148.042 137.704 148.627 136.042 149.124C134.417 149.597 132.764 149.966 131.093 150.229C130.271 150.354 129.439 150.458 128.618 150.51L127.391 150.594H127.079H126.975C126.986 150.774 126.986 150.955 126.975 151.136H127.443L128.691 151.063C129.533 151.063 130.375 150.896 131.207 150.771C132.903 150.515 134.581 150.145 136.229 149.666C137.904 149.164 139.553 148.576 141.168 147.904C142.87 147.312 144.493 146.514 146.003 145.527C147.437 144.352 148.616 142.893 149.465 141.242C150.457 139.587 150.802 137.622 150.432 135.727C150.139 134.788 149.63 133.932 148.945 133.227C148.261 132.522 147.42 131.99 146.491 131.672C144.682 130.884 142.654 130.759 140.762 131.318C139.826 131.63 138.995 132.079 138.121 132.36C137.26 132.69 136.369 132.935 135.459 133.09C134.923 133.179 134.381 133.238 133.837 133.267C134.035 133.382 134.243 133.507 134.472 133.663L134.596 133.757Z" fill="#3F00F9"/>
<path d="M96.9888 142.087C96.1882 142.254 95.3979 142.431 94.6181 142.639C93.0797 143.062 91.5748 143.598 90.116 144.245C88.6569 144.812 87.2929 145.6 86.0713 146.58C84.9686 147.645 84.1315 148.956 83.6279 150.406C81.7545 155.525 80.2499 160.772 79.1258 166.106L75.9233 179.19C75.1813 182.489 74.2332 185.737 73.0848 188.917C72.2432 190.88 71.2344 192.767 70.0695 194.557L69.1337 195.943C69.0218 196.094 68.9177 196.251 68.8218 196.412C68.9518 196.274 69.0733 196.128 69.1857 195.975C69.4144 195.672 69.7472 195.224 70.1631 194.619C71.3716 192.849 72.4157 190.972 73.2823 189.011C74.4725 185.828 75.4588 182.572 76.2352 179.263C77.275 175.427 78.3147 171.048 79.5105 166.2C80.6572 160.887 82.1755 155.662 84.0542 150.563C84.5419 149.187 85.343 147.945 86.3937 146.935C87.5745 145.991 88.8931 145.235 90.3031 144.693C91.7428 144.064 93.2268 143.541 94.7429 143.129C95.5123 142.921 96.2921 142.754 97.0823 142.587C97.8726 142.421 98.6628 142.129 99.4634 141.899L102.583 140.961L103.622 140.096L99.3178 141.451C98.538 141.628 97.7582 141.899 96.9888 142.087Z" fill="#3F00F9"/>
<path d="M119.281 136.123C122.772 135.144 126.336 134.447 129.938 134.038C130.853 133.955 131.768 133.882 132.694 133.872C133.228 133.887 133.763 133.866 134.295 133.809C134.031 133.617 133.757 133.439 133.473 133.277H132.683C131.737 133.277 130.812 133.361 129.886 133.444C126.251 133.866 122.656 134.58 119.135 135.581C114.092 136.968 109.216 138.438 104.495 139.856C104.131 140.148 103.778 140.45 103.456 140.742C108.53 139.22 113.812 137.635 119.281 136.123Z" fill="#3F00F9"/>
<path d="M104.963 158.913V159.059V159.372C105.157 160.762 105.293 162.152 105.369 163.542C105.452 164.897 105.462 166.221 105.421 167.524C105.379 168.827 105.265 170.089 105.14 171.319C104.742 174.726 103.997 178.083 102.915 181.338L103.497 180.504L103.601 180.347C104.527 177.422 105.181 174.417 105.556 171.371C105.681 170.12 105.785 168.848 105.847 167.535C105.91 166.221 105.847 164.887 105.847 163.521C105.795 162.385 105.681 161.238 105.546 160.091C105.423 159.785 105.277 159.489 105.109 159.205L104.963 158.913Z" fill="#3F00F9"/>
<path d="M102.603 140.981L103.435 140.742C103.778 140.45 104.131 140.147 104.474 139.855L103.58 140.116L102.603 140.981Z" fill="#3F00F9"/>
<path d="M93.7966 195.13C92.4761 196.736 91.3532 197.893 90.5734 198.675L89.6896 199.55C89.5803 199.639 89.4825 199.74 89.3984 199.853L89.7312 199.592C89.9391 199.404 90.2614 199.133 90.6565 198.758C91.8237 197.658 92.931 196.496 93.9734 195.276C95.6497 193.369 97.1204 191.29 98.3611 189.073C99.5257 187.113 100.919 184.986 102.52 182.724C102.697 182.255 102.863 181.786 103.019 181.296C101.137 184.038 99.4737 186.581 98.122 188.906C96.9011 191.127 95.4514 193.213 93.7966 195.13Z" fill="#3F00F9"/>
<path d="M164.926 184.799C166.184 185.591 167.484 186.29 168.7 187.03C169.318 187.382 169.885 187.817 170.385 188.323C170.852 188.826 171.184 189.439 171.352 190.105C171.693 191.433 171.545 192.84 170.936 194.067C170.279 195.23 169.227 196.118 167.973 196.569C165.487 197.357 162.881 197.689 160.278 197.549C157.854 197.497 155.449 197.101 153.135 196.371C151.017 195.701 148.988 194.773 147.094 193.608C146.221 193.073 145.38 192.485 144.578 191.846C144.183 191.544 143.809 191.221 143.445 190.908L142.914 190.429L142.54 190.085L141.896 190.22H142.187C145.231 193.22 148.935 195.463 153 196.767C155.354 197.531 157.805 197.948 160.278 198.008C162.95 198.165 165.628 197.833 168.181 197.028C169.589 196.547 170.759 195.542 171.448 194.22C172.137 192.899 172.292 191.362 171.882 189.928C171.709 189.181 171.352 188.489 170.842 187.916C170.308 187.372 169.703 186.902 169.044 186.519C167.765 185.748 166.455 185.049 165.196 184.236L165.092 184.163C165.059 184.266 165.031 184.37 165.009 184.476C164.947 184.591 164.937 184.695 164.926 184.799Z" fill="#3F00F9"/>
<path d="M141.76 189.834L141.251 189.771C140.908 189.771 140.575 189.667 140.211 189.604C139.573 189.486 138.941 189.333 138.319 189.146C137.179 188.81 136.069 188.377 135.002 187.853C134.338 187.518 133.695 187.142 133.078 186.727L133.016 186.987C133.614 187.399 134.235 187.775 134.877 188.113C135.954 188.655 137.074 189.105 138.225 189.458C138.857 189.657 139.499 189.821 140.149 189.949L141.189 190.126L142.228 189.886L141.76 189.834Z" fill="#3F00F9"/>
<path d="M103.892 180.701C104.974 179.179 106.138 177.618 107.386 176.02C108.623 174.414 109.975 172.767 111.285 171.016C112.595 169.264 113.749 167.304 115.267 165.532C115.982 164.607 116.772 163.742 117.628 162.947C118.465 162.131 119.501 161.548 120.633 161.258C121.804 161.002 123.026 161.123 124.126 161.602C125.27 162.061 126.372 162.707 127.526 163.291C129.85 164.536 132.242 165.649 134.69 166.627C139.843 168.594 144.812 171.015 149.538 173.862C152.335 175.373 155.018 177.087 157.565 178.991C158.812 179.929 159.935 180.982 161.089 182.014C162.221 183.001 163.431 183.893 164.708 184.683C164.702 184.614 164.702 184.544 164.708 184.475C164.708 184.339 164.77 184.214 164.812 184.089C163.622 183.344 162.492 182.508 161.433 181.587C160.299 180.544 159.145 179.502 157.887 178.532C155.319 176.598 152.611 174.855 149.787 173.32C145.039 170.449 140.046 168.007 134.867 166.022C132.434 165.057 130.056 163.957 127.744 162.728C126.601 162.154 125.499 161.498 124.292 161.028C123.09 160.508 121.755 160.381 120.477 160.664C119.254 160.984 118.134 161.612 117.222 162.488C116.354 163.31 115.55 164.199 114.82 165.146C114.092 166.064 113.365 166.971 112.741 167.93C112.117 168.889 111.493 169.786 110.838 170.661C109.549 172.423 108.218 174.06 106.981 175.676C105.743 177.292 104.662 178.803 103.612 180.242C103.477 180.701 103.321 181.149 103.175 181.597L103.892 180.701Z" fill="#3F00F9"/>
<path d="M102.956 181.295C102.801 181.785 102.634 182.254 102.458 182.723C102.697 182.369 102.956 182.014 103.206 181.681C103.455 181.347 103.507 180.784 103.643 180.325L103.539 180.482L102.956 181.295Z" fill="#3F00F9"/>
<path d="M172.017 253.656C171.812 251.778 170.878 250.056 169.418 248.861C167.897 247.812 166.055 247.34 164.219 247.526C162.448 247.644 160.7 247.995 159.02 248.569C157.327 249.09 155.737 249.901 154.32 250.967C152.987 252.065 151.71 253.231 150.494 254.459C145.624 258.952 139.702 262.14 133.276 263.727C131.737 264.073 130.164 264.244 128.587 264.238C127.037 264.208 125.505 263.901 124.064 263.331C122.641 262.77 121.31 262.001 120.113 261.048C119.511 260.589 118.935 260.098 118.387 259.578C118.106 259.328 117.846 259.057 117.586 258.796L117.201 258.379L117.014 258.17L116.92 258.066C116.827 258.118 117.118 257.931 116.713 258.191L116.9 258.035C115.86 256.773 115.007 255.387 114.04 254.084C113.073 252.781 112.106 251.519 111.119 250.279L110.744 249.82L110.599 249.632V249.549L110.848 248.392C111.03 247.629 111.165 246.856 111.254 246.077C111.442 244.552 111.501 243.014 111.431 241.48C111.358 238.561 111.686 235.645 112.408 232.816C113.042 230.043 113.832 227.374 114.602 224.799C115.371 222.224 116.276 219.785 116.993 217.366C117.711 214.948 118.355 212.581 119.073 210.381C119.863 208.303 120.979 206.363 122.379 204.637C123.658 202.917 124.885 201.291 126.05 199.737C128.316 196.61 130.5 193.858 131.747 191.064C132.331 189.766 132.801 188.419 133.151 187.039L132.985 186.925C132.624 188.314 132.14 189.667 131.539 190.97C130.281 193.712 128.098 196.433 125.81 199.55L122.109 204.439C121.434 205.305 120.806 206.206 120.227 207.139C119.635 208.134 119.134 209.181 118.73 210.267C118.012 212.508 117.409 214.843 116.65 217.241C115.891 219.639 114.987 222.089 114.228 224.674C113.468 227.26 112.657 229.887 112.002 232.712C111.258 235.577 110.908 238.53 110.963 241.49C111.025 243.004 110.962 244.521 110.776 246.025C110.684 246.789 110.552 247.548 110.38 248.298L110.131 249.434V249.643C110.131 249.643 110.131 249.726 110.131 249.768L110.214 249.872L110.432 250.153L110.796 250.612C111.836 251.842 112.761 253.093 113.708 254.396C114.654 255.7 115.527 257.065 116.567 258.379C117.579 259.561 118.712 260.634 119.946 261.579C121.182 262.562 122.555 263.355 124.022 263.936C125.518 264.523 127.105 264.844 128.711 264.884C130.334 264.902 131.953 264.73 133.536 264.373C136.757 263.628 139.86 262.443 142.758 260.85C145.772 259.287 148.554 257.311 151.024 254.98C152.225 253.765 153.489 252.613 154.809 251.53C156.171 250.503 157.702 249.724 159.332 249.226C160.969 248.662 162.67 248.312 164.396 248.183C166.104 247.995 167.823 248.428 169.241 249.403C170.588 250.502 171.444 252.092 171.622 253.823C171.895 255.584 171.683 257.387 171.009 259.036C170.836 259.442 170.616 259.827 170.354 260.182L170.073 260.725C169.662 261.452 169.2 262.149 168.69 262.81C169.889 261.879 170.863 260.688 171.539 259.328C172.22 257.518 172.385 255.555 172.017 253.656Z" fill="#3F00F9"/>
<path d="M133.889 178.835C133.889 177.792 133.796 177.198 133.796 177.198C133.789 177.334 133.789 177.469 133.796 177.605C133.796 177.886 133.796 178.293 133.796 178.835C133.806 180.421 133.708 182.005 133.504 183.578C133.369 184.506 133.193 185.517 132.922 186.611L133.089 186.726C133.334 185.694 133.525 184.651 133.66 183.599C133.858 182.019 133.934 180.426 133.889 178.835Z" fill="#3F00F9"/>
<path d="M167.796 262.477L167.328 262.873C165.889 264.033 164.54 265.302 163.294 266.667C161.255 268.823 159.718 271.404 158.792 274.226C158.473 275.614 158.013 276.966 157.419 278.26C156.707 279.455 155.733 280.471 154.57 281.231C153.336 281.877 152.021 282.354 150.661 282.649L146.626 283.806C143.933 284.588 141.272 285.422 138.641 286.277C136.013 287.074 133.427 288.007 130.895 289.071C128.457 290.231 126.117 291.587 123.897 293.127C121.683 294.576 119.478 296.004 117.191 297.203C114.903 298.402 112.574 299.548 110.339 300.747C105.868 303.145 101.501 305.47 97.3524 307.92C93.32 310.287 89.4219 312.876 85.6759 315.676C82.2353 318.328 78.5108 320.586 74.5713 322.411C70.9505 324.193 67.5102 326.323 64.2985 328.77C63.5395 329.354 62.7909 329.948 62.0734 330.542C61.3781 331.173 60.6263 331.739 59.8276 332.231C58.2906 333.092 56.6325 333.714 54.9095 334.077C53.5372 334.374 52.1484 334.59 50.7505 334.723L51.7902 334.973C52.83 334.838 53.9425 334.681 55.0343 334.441C56.7944 334.067 58.49 333.434 60.0667 332.565C60.8699 332.086 61.6255 331.531 62.323 330.907C63.0404 330.313 63.789 329.719 64.548 329.146C67.7448 326.733 71.1678 324.638 74.7689 322.89C78.7385 321.059 82.4941 318.794 85.967 316.135C89.7034 313.356 93.5911 310.787 97.6123 308.441C101.771 306.002 106.118 303.687 110.599 301.289C112.834 300.091 115.111 298.933 117.44 297.766C119.769 296.598 121.974 295.118 124.199 293.658C126.399 292.139 128.719 290.8 131.134 289.655C133.645 288.6 136.21 287.678 138.818 286.892C141.438 286.037 144.096 285.217 146.793 284.432L150.785 283.233C152.201 282.916 153.568 282.411 154.851 281.732C156.088 280.936 157.127 279.866 157.887 278.604C158.507 277.269 158.985 275.871 159.311 274.434C160.219 271.707 161.717 269.215 163.699 267.137C164.928 265.788 166.256 264.534 167.671 263.384L167.941 263.154C167.962 262.904 167.879 262.706 167.796 262.477Z" fill="#3F00F9"/>
<path d="M167.869 262.383C167.952 262.612 168.014 262.8 168.056 262.956C168.568 262.293 169.037 261.596 169.459 260.871C168.957 261.404 168.426 261.909 167.869 262.383Z" fill="#3F00F9"/>
<path d="M132.943 186.612L132.881 186.873L133.048 186.988L133.11 186.727L132.943 186.612Z" fill="#3F00F9"/>
<path d="M15.8251 324.986C13.7456 324.172 11.7596 323.286 9.88806 322.358L10.5535 322.848C11.167 323.297 11.7908 323.714 12.4147 324.12C13.4544 324.589 14.4942 325.048 15.6275 325.486C22.5315 328.207 30.4544 330.136 38.6997 332.262C42.1655 333.159 45.5725 334.014 48.9205 334.827L50.7297 334.671C46.8826 333.753 42.9107 332.752 38.8453 331.699C30.6 329.573 22.6875 327.665 15.8251 324.986Z" fill="#3F00F9"/>
<path d="M10.5528 322.848L9.88752 322.358C9.22223 322.024 8.56733 321.68 7.93323 321.315L8.33864 321.649L10.3345 323.13C11.0102 323.463 11.6963 323.786 12.4136 324.099C11.7898 323.713 11.1661 323.296 10.5528 322.848Z" fill="#3F00F9"/>
<path d="M48.8896 334.827L50.0331 335.098C50.5945 335.098 51.1558 334.984 51.7171 334.921L50.6776 334.671L48.8896 334.827Z" fill="#3F00F9"/>
<path d="M147.344 188.061C147.839 187.549 148.222 186.938 148.467 186.268C148.635 185.82 148.734 185.349 148.758 184.871C148.791 184.699 148.791 184.522 148.758 184.35C148.679 184.98 148.529 185.599 148.311 186.195C148.017 186.894 147.574 187.52 147.014 188.029C146.453 188.539 145.789 188.92 145.067 189.145C144.027 189.458 143.112 189.677 142.249 189.885H142.384L142.571 190.073C143.372 189.896 144.245 189.698 145.16 189.406C145.986 189.141 146.735 188.68 147.344 188.061Z" fill="#3F00F9"/>
<path d="M142.352 189.896H142.217L141.178 190.136L141.687 190.209H141.864L142.508 190.073L142.352 189.896Z" fill="#3F00F9"/>
<path d="M126.403 147.07C126.577 148.174 126.674 149.289 126.694 150.407C126.7 150.48 126.7 150.553 126.694 150.626C126.767 150.573 126.913 150.626 126.933 150.626C126.939 150.574 126.939 150.521 126.933 150.469C127.035 149.31 126.853 148.143 126.403 147.07Z" fill="#3F00F9"/>
<path d="M126.924 150.583C126.924 150.583 126.757 150.583 126.684 150.583C126.684 150.801 126.684 151.01 126.684 151.218L126.934 151.082C126.945 150.902 126.945 150.721 126.934 150.541L126.924 150.583Z" fill="#3F00F9"/>
<path d="M103.216 156.713C102.904 156.425 102.554 156.179 102.177 155.983C102.471 156.305 102.79 156.601 103.133 156.87C103.837 157.488 104.465 158.188 105.004 158.955V158.861C105.004 158.861 105.004 158.778 105.004 158.746H105.119H105.191C104.636 157.975 103.97 157.29 103.216 156.713Z" fill="#3F00F9"/>
<path d="M105.13 158.662H105.057H104.943C104.943 158.662 104.943 158.746 104.943 158.777V158.871L105.119 159.121C105.288 159.404 105.434 159.701 105.556 160.007C105.556 159.757 105.504 159.517 105.462 159.267C105.462 159.267 105.462 159.173 105.462 159.142C105.462 159.11 105.462 159.027 105.379 158.975C105.296 158.923 105.213 158.777 105.13 158.662Z" fill="#3F00F9"/>
<path d="M50.1267 138.886C50.7743 138.701 51.3302 138.281 51.6863 137.708C52.0147 137.096 52.2263 136.427 52.3102 135.737C52.5181 134.351 52.7157 133.027 52.8924 131.828C53.0118 131.25 53.0118 130.654 52.8924 130.077C52.8189 129.824 52.6861 129.593 52.5052 129.403C52.3243 129.212 52.1006 129.068 51.8527 128.982C51.1304 128.774 50.3563 128.853 49.69 129.201C49.4425 129.295 49.2083 129.421 48.9934 129.576C49.2447 129.501 49.4913 129.411 49.7316 129.305C50.3858 129.01 51.1243 128.962 51.8111 129.17C52.0308 129.244 52.229 129.372 52.3885 129.541C52.548 129.71 52.6639 129.915 52.7261 130.139C52.8393 130.686 52.8393 131.25 52.7261 131.797C52.5389 132.996 52.3414 134.299 52.123 135.675C52.0412 136.333 51.844 136.972 51.5408 137.562C51.2141 138.068 50.7154 138.439 50.1371 138.604C49.1103 138.861 48.0685 139.052 47.0178 139.178H46.7267L46.6643 139.376H47.049C48.0847 139.282 49.113 139.118 50.1267 138.886Z" fill="#3F00F9"/>
<path d="M46.6222 139.24L46.0613 139.334C46.0613 139.386 46.0613 139.448 46.0613 139.501L46.6118 139.438L46.6222 139.24Z" fill="#3F00F9"/>
<path d="M136.634 135.342C137.688 135.807 138.832 136.031 139.982 135.999C141.121 135.965 142.253 135.815 143.362 135.55C144.267 135.365 145.16 135.121 146.034 134.82C146.342 134.719 146.621 134.543 146.845 134.309C147.07 134.074 147.234 133.788 147.323 133.475C147.359 133.303 147.359 133.126 147.323 132.954C147.323 132.839 147.261 132.787 147.25 132.787C147.287 133.005 147.287 133.227 147.25 133.444C147.146 133.726 146.978 133.979 146.759 134.185C146.541 134.391 146.279 134.545 145.992 134.633C145.118 134.9 144.229 135.12 143.33 135.29C142.24 135.532 141.13 135.671 140.014 135.707C138.905 135.738 137.803 135.532 136.78 135.102C136.021 134.724 135.301 134.273 134.628 133.757C134.527 133.762 134.427 133.762 134.326 133.757C135.043 134.359 135.816 134.89 136.634 135.342Z" fill="#3F00F9"/>
<path d="M134.595 133.756L134.44 133.642C134.211 133.486 134.003 133.361 133.806 133.246H133.474C133.757 133.408 134.031 133.585 134.294 133.777C134.395 133.775 134.495 133.768 134.595 133.756Z" fill="#3F00F9"/>
<path d="M165.114 187.061C165.64 187.99 166.26 188.864 166.964 189.667C167.639 190.499 168.426 191.233 169.304 191.846C169.515 191.985 169.746 192.091 169.99 192.158C170.117 192.2 170.252 192.206 170.382 192.177C170.512 192.148 170.632 192.084 170.728 191.992C170.983 191.639 171.098 191.204 171.051 190.772C171.059 190.168 170.885 189.575 170.551 189.073C170.436 188.884 170.28 188.723 170.094 188.603C170.094 188.603 170.25 188.781 170.447 189.135C170.741 189.628 170.879 190.199 170.843 190.772C170.87 191.141 170.771 191.509 170.562 191.814C170.312 192.065 169.824 191.814 169.449 191.616C168.604 191.002 167.842 190.28 167.183 189.469C166.493 188.681 165.881 187.829 165.353 186.925C165.006 186.288 164.858 185.562 164.926 184.84L164.843 184.788L164.729 184.715C164.603 185.518 164.738 186.34 165.114 187.061Z" fill="#3F00F9"/>
<path d="M164.729 184.673L164.843 184.746L164.927 184.799C164.927 184.694 164.927 184.59 164.927 184.507C164.948 184.401 164.976 184.296 165.01 184.194L164.833 184.079C164.833 184.204 164.76 184.329 164.729 184.465C164.723 184.534 164.723 184.604 164.729 184.673Z" fill="#3F00F9"/>
<path d="M171.206 255.533C171.099 254.487 170.742 253.483 170.166 252.604C169.876 252.139 169.527 251.715 169.127 251.342C168.711 250.924 168.196 250.619 167.629 250.456C167.334 250.386 167.027 250.387 166.732 250.46C166.437 250.532 166.164 250.674 165.935 250.873C165.516 251.248 165.164 251.692 164.895 252.187C164.354 253.135 163.855 254.042 163.481 254.96C163.251 255.417 163.181 255.938 163.283 256.44C163.409 256.903 163.666 257.319 164.022 257.639C164.666 258.254 165.311 258.734 165.82 259.276C166.631 260.115 167.28 261.098 167.733 262.174L167.869 262.476L167.941 262.414L167.837 262.122C167.409 261.014 166.774 259.998 165.966 259.13C165.456 258.577 164.801 258.087 164.188 257.472C163.874 257.174 163.647 256.796 163.533 256.378C163.454 255.93 163.523 255.469 163.73 255.064C164.136 254.188 164.614 253.25 165.134 252.333C165.388 251.867 165.719 251.448 166.111 251.092C166.306 250.921 166.539 250.799 166.791 250.738C167.042 250.676 167.305 250.676 167.557 250.738C168.559 251.126 169.404 251.838 169.959 252.76C170.526 253.597 170.883 254.559 170.998 255.564C171.107 257.291 170.682 259.009 169.782 260.485C169.699 260.641 169.605 260.777 169.522 260.923C169.784 260.651 170.024 260.358 170.239 260.047C171.001 258.672 171.337 257.101 171.206 255.533Z" fill="#3F00F9"/>
<path d="M170.176 260.048C169.961 260.358 169.721 260.651 169.459 260.924C169.037 261.649 168.568 262.345 168.056 263.009L168.503 262.623C169.013 261.962 169.475 261.265 169.885 260.538L170.176 260.048Z" fill="#3F00F9"/>
<path d="M168.014 263.05H168.065V263.101L168.014 263.05Z" fill="#3F00F9"/>
<path d="M167.796 262.476C167.879 262.705 167.962 262.902 168.015 263.038V262.986C168.015 262.83 167.91 262.642 167.827 262.413L167.796 262.476Z" fill="#3F00F9"/>
<path d="M113.177 117.724C113.458 118.295 113.923 118.755 114.498 119.027C115.11 119.329 115.766 119.53 116.442 119.621C117.171 119.732 117.916 119.686 118.626 119.486C119.327 119.256 119.981 118.903 120.56 118.443C120.866 118.266 121.132 118.026 121.34 117.738C121.548 117.451 121.693 117.122 121.766 116.775C121.748 116.454 121.662 116.141 121.513 115.857C121.364 115.573 121.156 115.324 120.903 115.127C120.496 114.778 120.053 114.474 119.582 114.22L119.395 114.137H119.062L119.489 114.356C119.939 114.603 120.358 114.904 120.736 115.252C120.958 115.427 121.14 115.646 121.27 115.896C121.401 116.146 121.478 116.42 121.495 116.702C121.423 117.008 121.287 117.297 121.097 117.548C120.908 117.799 120.668 118.008 120.393 118.162C119.836 118.584 119.21 118.905 118.542 119.11C117.229 119.441 115.841 119.297 114.623 118.704C114.098 118.454 113.667 118.041 113.396 117.526C113.19 117.087 113.121 116.596 113.198 116.118L112.98 116.222C112.895 116.731 112.964 117.254 113.177 117.724Z" fill="#3F00F9"/>
<path d="M119.394 114.179C119.072 114.023 118.781 113.887 118.501 113.783L118.22 113.846C118.48 113.95 118.761 114.075 119.062 114.231L119.394 114.179Z" fill="#3F00F9"/>
<path d="M112.98 116.315L113.199 116.211V116.148C113.238 115.924 113.297 115.704 113.376 115.491L113.147 115.606C113.084 115.772 113.036 115.943 113.001 116.117C112.989 116.182 112.982 116.248 112.98 116.315Z" fill="#3F00F9"/>
<path d="M415.019 341.917C416.058 342.126 417.098 342.303 418.138 342.449C423.738 342.324 429.316 341.696 434.805 340.572C436.635 340.176 438.423 339.717 440.191 339.227L441.439 338.268C439.234 338.924 436.989 339.508 434.68 340.009C428.211 341.336 421.621 341.975 415.019 341.917Z" fill="#3F00F9"/>
<path d="M432.466 220.097C433.245 223.212 433.845 226.369 434.265 229.553C434.452 231.315 434.369 233.202 434.618 235.161C434.868 237.121 435.211 239.123 435.658 241.187C436.531 245.305 437.571 249.663 438.101 254.354C438.382 256.7 438.58 259.118 438.84 261.579C439.1 264.039 439.422 266.562 439.817 269.106C440.638 274.204 441.522 279.448 442.666 284.806C443.794 290.018 445.424 295.109 447.532 300.006C448.542 302.335 449.685 304.604 450.953 306.803C452.18 308.961 453.583 310.973 454.53 313.058C454.992 314.103 455.283 315.215 455.393 316.353C455.476 316.916 455.445 317.479 455.476 318.042C455.507 318.604 455.476 319.147 455.32 319.689C454.967 321.808 454.234 323.846 453.157 325.704C451.144 329.021 448.641 332.012 445.733 334.576C444.454 335.806 443.113 336.849 441.876 337.881L441.46 338.204L442.448 337.901C443.602 336.963 444.829 336.004 446.014 334.878C448.963 332.308 451.508 329.307 453.563 325.975C454.671 324.064 455.431 321.971 455.808 319.793C455.912 319.24 455.912 318.657 455.975 318.083C456.037 317.51 455.975 316.916 455.892 316.332C455.783 315.14 455.481 313.975 454.997 312.881C454.02 310.671 452.616 308.711 451.41 306.543C450.153 304.364 449.028 302.112 448.041 299.797C445.943 294.937 444.327 289.88 443.217 284.702C442.073 279.375 441.189 274.11 440.358 269.064C439.952 266.531 439.63 264.029 439.37 261.568C439.11 259.108 438.902 256.689 438.611 254.333C438.003 249.89 437.167 245.481 436.105 241.125C435.668 239.04 435.294 237.08 435.065 235.151C434.837 233.222 434.889 231.356 434.681 229.553C434.239 226.359 433.607 223.194 432.788 220.076C432.331 217.991 431.956 216.073 431.634 214.426C431.582 214.593 431.52 214.749 431.468 214.916C431.738 216.417 432.071 218.158 432.466 220.097Z" fill="#3F00F9"/>
<path d="M430.48 208.369L430.251 207.191C430.227 207.057 430.192 206.924 430.147 206.795C430.131 206.93 430.131 207.066 430.147 207.201C430.147 207.473 430.251 207.869 430.324 208.39C430.501 209.432 430.761 210.954 431.093 212.935C431.166 213.341 431.239 213.779 431.322 214.227C431.322 214.081 431.415 213.956 431.457 213.81C431.499 213.665 431.457 213.748 431.457 213.727C431.405 213.446 431.343 213.154 431.291 212.893C430.958 210.923 430.657 209.401 430.48 208.369Z" fill="#3F00F9"/>
<path d="M442.426 337.913L441.439 338.215L440.191 339.175L441.106 338.914L442.083 338.184L442.426 337.913Z" fill="#3F00F9"/>
<path d="M424.689 137.729C425.583 139.241 426.508 140.783 427.465 142.379L430.397 147.257C431.476 148.894 432.438 150.604 433.277 152.376C434.024 154.269 434.608 156.222 435.024 158.214C435.492 160.247 436.001 162.291 436.438 164.376C437.311 168.546 438.029 172.716 439.193 176.573C439.484 177.543 439.817 178.481 440.015 179.43C440.234 180.362 440.345 181.317 440.347 182.276C440.346 183.213 440.238 184.147 440.025 185.059C439.786 185.953 439.473 186.824 439.089 187.665C438.359 189.329 437.771 191.052 437.332 192.815C436.895 194.515 436.427 196.141 435.928 197.715C434.961 200.843 433.849 203.699 433.1 206.431C432.352 209.162 432.06 211.643 431.499 213.728L431.624 214.385C431.624 214.218 431.738 214.072 431.79 213.906C432.456 211.748 432.736 209.225 433.495 206.535C434.254 203.845 435.388 201.01 436.386 197.861C437.384 194.713 438.039 191.22 439.578 187.874C439.976 187.01 440.299 186.114 440.545 185.195C440.783 184.24 440.901 183.26 440.898 182.276C440.896 181.276 440.785 180.28 440.566 179.304C440.358 178.314 440.015 177.365 439.734 176.406C438.59 172.559 437.883 168.452 436.999 164.261C436.563 162.176 436.053 160.091 435.585 158.079C435.16 156.057 434.562 154.076 433.797 152.157C432.95 150.349 431.97 148.607 430.865 146.945L427.922 142.087L425.125 137.458C424.637 136.593 424.179 135.738 423.732 134.883C423.645 135.052 423.537 135.21 423.41 135.352C423.815 136.155 424.241 136.937 424.689 137.729Z" fill="#3F00F9"/>
<path d="M421.278 131.027L422.317 133.216C422.64 133.883 422.983 134.55 423.357 135.228C423.481 135.085 423.586 134.928 423.669 134.758C423.367 134.164 423.066 133.581 422.785 133.007C422.421 132.267 422.078 131.537 421.746 130.818C421.579 130.471 421.403 130.123 421.216 129.776C420.966 129.636 420.71 129.511 420.446 129.4C420.767 129.919 421.045 130.463 421.278 131.027Z" fill="#3F00F9"/>
<path d="M411.494 132.068C411.668 131.192 412.125 130.397 412.793 129.806C413.758 128.929 414.952 128.346 416.235 128.127C416.923 128.005 417.627 128.005 418.315 128.127C419.012 128.222 419.659 128.544 420.155 129.045C420.151 129.062 420.151 129.08 420.155 129.097C420.436 129.2 420.708 129.329 420.966 129.483C420.814 129.221 420.64 128.973 420.446 128.742C419.887 128.173 419.156 127.807 418.367 127.7C417.638 127.564 416.891 127.564 416.162 127.7C414.808 127.937 413.551 128.564 412.544 129.503C412.081 129.94 411.704 130.46 411.431 131.036C411.33 131.285 411.253 131.544 411.203 131.808L411.307 131.881L411.494 132.068Z" fill="#3F00F9"/>
<path d="M431.52 213.812C431.52 213.958 431.426 214.083 431.385 214.229C431.343 214.375 431.458 214.656 431.499 214.875C431.551 214.709 431.614 214.552 431.666 214.385L431.541 213.729C431.541 213.729 431.52 213.781 431.52 213.812Z" fill="#3F00F9"/>
<path d="M397.769 141.45L397.281 141.283L396.324 140.897C395.033 140.344 393.798 139.671 392.633 138.885C391.455 138.056 390.355 137.121 389.347 136.091C387.268 134.006 385.095 131.921 382.849 129.774C382.287 129.242 381.715 128.731 381.185 128.168C380.666 127.63 380.275 126.982 380.041 126.271C379.466 124.823 379.16 123.283 379.137 121.725C379.073 120.962 379.198 120.194 379.501 119.49C379.804 118.786 380.275 118.168 380.873 117.691C381.697 117.201 382.64 116.948 383.597 116.961C384.085 116.832 384.582 116.745 385.084 116.7C385.562 116.664 386.042 116.664 386.519 116.7C386.186 116.627 385.854 116.565 385.479 116.513C383.795 116.145 382.035 116.396 380.52 117.222C379.798 117.714 379.248 118.421 378.95 119.244C378.667 120.037 378.53 120.874 378.544 121.715C378.569 123.343 378.886 124.953 379.48 126.469C379.746 127.251 380.183 127.963 380.759 128.554C381.31 129.127 381.882 129.596 382.433 130.18C384.689 132.265 386.841 134.35 388.942 136.435C389.974 137.487 391.102 138.44 392.311 139.281C393.502 140.098 394.769 140.796 396.095 141.366C396.418 141.502 396.74 141.637 397.073 141.752L397.572 141.929L397.707 141.981C397.78 141.825 397.842 141.679 397.925 141.512L397.769 141.45Z" fill="#3F00F9"/>
<path d="M409.591 157.088C409.202 156.659 408.834 156.21 408.489 155.743C407.786 154.777 407.134 153.775 406.535 152.741C405.896 151.648 405.181 150.603 404.393 149.613C403.592 148.623 402.781 147.612 401.97 146.569L399.547 143.369C399.142 142.827 398.726 142.326 398.32 141.732C398.32 141.732 398.258 141.648 398.206 141.586C398.112 141.763 398.029 141.93 397.957 142.097L399.152 143.671L401.596 146.871C402.407 147.914 403.218 148.925 404.029 149.905C404.794 150.872 405.489 151.893 406.108 152.96C406.714 154.009 407.381 155.022 408.105 155.994C408.458 156.473 408.832 156.921 409.217 157.359L410.111 158.402L410.61 158.339L409.591 157.088Z" fill="#3F00F9"/>
<path d="M385.105 116.857L384.554 116.951L385.427 117.045C387.049 117.319 388.641 117.752 390.179 118.338C391.76 118.872 393.291 119.546 394.754 120.35L395.076 120.538C395.056 120.269 394.946 120.016 394.764 119.818C394.691 119.724 394.608 119.662 394.535 119.579C393.195 118.88 391.805 118.28 390.376 117.785C389.493 117.472 388.588 117.18 387.683 116.94C386.83 116.808 385.965 116.78 385.105 116.857Z" fill="#3F00F9"/>
<path d="M395.232 120.6C396.539 121.383 397.8 122.243 399.006 123.175L403.072 126.24C405.765 128.325 408.406 130.285 410.953 132.339L411.13 132.485C411.139 132.261 411.163 132.038 411.203 131.817C408.686 129.784 406.077 127.793 403.415 125.781L399.349 122.706C397.979 121.641 396.538 120.673 395.034 119.808H394.951C395.142 120.015 395.249 120.286 395.253 120.569C395.247 120.58 395.24 120.59 395.232 120.6Z" fill="#3F00F9"/>
<path d="M405.37 180.306C405.824 178.904 406.195 177.477 406.482 176.032C406.794 174.447 407.054 172.706 407.366 170.819C407.678 168.932 408.083 167.003 408.645 164.95C408.894 163.907 409.3 162.865 409.685 161.822C410.069 160.779 410.412 159.664 410.787 158.538L410.329 158.601L409.289 161.728C408.957 162.771 408.551 163.813 408.25 164.856C407.739 166.801 407.326 168.77 407.012 170.756C406.711 172.622 406.472 174.353 406.17 175.969C405.672 178.636 404.895 181.243 403.852 183.746L403.945 183.955C404.485 182.765 404.961 181.547 405.37 180.306Z" fill="#3F00F9"/>
<path d="M417.764 139.032L423.17 146.496C424.907 148.936 426.685 151.281 428.234 153.637C429.01 154.779 429.612 156.03 430.022 157.349C430.347 158.647 430.487 159.984 430.438 161.321C430.366 163.979 430.199 166.533 429.981 169.035C429.866 170.266 429.804 171.485 429.648 172.653C429.492 173.82 429.315 174.978 429.097 176.093C428.182 180.534 427.163 184.527 426.362 188.051C425.572 191.046 425.074 194.112 424.876 197.204C424.666 199.835 424.69 202.48 424.948 205.106C424.948 205.106 424.948 204.929 424.948 204.596V203.063C424.948 201.729 424.948 199.758 425.125 197.225C425.37 194.148 425.903 191.101 426.716 188.124C427.537 184.611 428.588 180.639 429.534 176.166C429.752 175.051 429.95 173.893 430.106 172.715C430.262 171.537 430.334 170.307 430.459 169.077C430.688 166.585 430.865 164.021 430.948 161.331C430.999 159.946 430.859 158.56 430.532 157.213C430.113 155.846 429.493 154.55 428.692 153.366C427.132 150.969 425.364 148.633 423.618 146.173L418.221 138.667C417.314 137.349 416.245 136.152 415.04 135.101C413.917 134.059 412.731 133.016 411.525 132.078C411.482 132.308 411.464 132.543 411.473 132.777C412.565 133.663 413.636 134.57 414.655 135.508C415.838 136.544 416.883 137.728 417.764 139.032Z" fill="#3F00F9"/>
<path d="M411.442 132.778C411.434 132.543 411.451 132.309 411.495 132.079L411.307 131.923L411.203 131.85C411.164 132.07 411.139 132.293 411.13 132.517L411.442 132.778Z" fill="#3F00F9"/>
<path d="M340.77 122.539L342.184 123.113L347.31 125.198L357.333 129.274C360.534 130.653 363.807 131.858 367.138 132.881C370.364 133.663 373.477 134.854 376.402 136.426C377.874 137.115 379.397 137.69 380.956 138.146C382.472 138.475 383.965 138.9 385.427 139.418C388.086 140.717 390.3 142.778 391.791 145.339C393.1 147.788 393.986 150.443 394.411 153.189C394.962 155.816 395.513 158.402 396.168 160.737C396.468 161.909 396.84 163.061 397.28 164.188C397.696 165.282 398.06 166.356 398.403 167.409C399.069 169.494 399.661 171.579 400.202 173.425C401.046 176.672 402.088 179.865 403.321 182.984L403.779 184.027C403.779 183.933 403.862 183.85 403.893 183.756L403.529 182.911C402.342 179.783 401.339 176.587 400.524 173.341C399.994 171.454 399.422 169.442 398.767 167.315C398.435 166.273 398.071 165.157 397.655 164.063C397.243 162.944 396.896 161.802 396.615 160.643C395.97 158.266 395.44 155.743 394.899 153.106C394.475 150.307 393.583 147.6 392.258 145.099C390.72 142.444 388.429 140.307 385.677 138.959C384.196 138.434 382.685 137.996 381.154 137.645C379.623 137.208 378.131 136.643 376.693 135.956C373.737 134.367 370.593 133.155 367.335 132.349C364.024 131.332 360.772 130.131 357.593 128.753L347.601 124.687L342.496 122.602L340.635 121.841C340.722 121.994 340.785 122.159 340.822 122.331C340.809 122.401 340.792 122.471 340.77 122.539Z" fill="#3F00F9"/>
<path d="M379.178 186.832L379.261 186.352L379.324 185.935C379.324 185.654 379.386 185.372 379.407 185.07C379.461 184.464 379.479 183.854 379.459 183.246C379.422 181.914 379.213 180.593 378.835 179.315C378.003 176.615 376.423 173.957 375.404 170.808C375.144 170.027 374.978 169.203 374.77 168.359C374.562 167.514 374.312 166.659 374.031 165.804C373.46 164.095 372.825 162.364 372.16 160.592C371.523 158.706 370.665 156.904 369.602 155.223C368.996 154.357 368.199 153.644 367.273 153.138C366.312 152.655 365.291 152.304 364.237 152.095C362.154 151.567 360.184 150.663 358.425 149.426C357.531 148.801 356.699 148.04 355.805 147.341C354.91 146.643 353.995 145.934 353.018 145.256C351.053 143.974 348.859 143.057 346.779 141.952C344.7 140.847 342.506 139.7 340.364 138.47C338.173 137.274 336.071 135.922 334.074 134.425C333.121 133.6 332.288 132.645 331.599 131.589C330.874 130.541 330.29 129.402 329.863 128.201C329.437 126.994 329.257 125.715 329.332 124.437C329.4 123.151 329.755 121.897 330.372 120.768C330.558 120.451 330.793 120.165 331.069 119.923C331.486 119.428 331.986 119.008 332.545 118.683C332.155 118.71 331.774 118.813 331.422 118.985C330.78 119.322 330.246 119.836 329.883 120.465C329.241 121.673 328.859 123.002 328.762 124.367C328.666 125.732 328.856 127.102 329.322 128.388C330.234 130.874 331.741 133.097 333.71 134.862C335.734 136.379 337.864 137.749 340.083 138.96C342.246 140.179 344.388 141.347 346.53 142.431C348.672 143.515 350.845 144.454 352.768 145.705C353.721 146.328 354.64 146.999 355.524 147.717C356.408 148.415 357.25 149.176 358.175 149.802C359.988 151.065 362.013 151.99 364.154 152.533C365.169 152.71 366.156 153.026 367.086 153.471C367.956 153.946 368.703 154.617 369.269 155.431C370.307 157.065 371.151 158.815 371.786 160.644C372.461 162.427 373.106 164.168 373.688 165.856C373.969 166.701 374.219 167.535 374.427 168.369C374.635 169.203 374.811 170.037 375.082 170.84C376.121 174.03 377.743 176.688 378.565 179.326C379.276 181.691 379.425 184.19 379.002 186.623L378.492 186.842L377.941 187.103C377.587 187.28 377.255 187.468 376.901 187.666C376.305 188.03 375.742 188.445 375.217 188.907C374.817 189.248 374.442 189.618 374.094 190.012L374.219 190.116C375.599 188.655 377.296 187.531 379.178 186.832Z" fill="#3F00F9"/>
<path d="M333.439 119.308C334.717 119.637 335.93 120.18 337.027 120.914C337.422 121.165 337.844 121.371 338.285 121.529L339.595 122.051L340.635 122.468C340.635 122.468 340.635 122.395 340.635 122.353C340.593 122.137 340.508 121.931 340.385 121.748L339.886 121.55L338.586 121.018C338.145 120.866 337.723 120.663 337.328 120.414C336.171 119.642 334.891 119.074 333.543 118.735L333.013 118.683C332.616 118.891 332.243 119.143 331.901 119.433C332.395 119.263 332.924 119.22 333.439 119.308Z" fill="#3F00F9"/>
<path d="M407.137 190.021C407.345 190.323 407.469 190.469 407.469 190.469C407.469 190.469 407.386 190.302 407.189 189.979L406.336 188.572C405.47 187.075 404.682 185.534 403.977 183.954C403.945 184.044 403.907 184.131 403.862 184.215C404.569 185.733 405.364 187.209 406.243 188.635C406.617 189.25 406.929 189.708 407.137 190.021Z" fill="#3F00F9"/>
<path d="M403.862 184.193C403.907 184.109 403.945 184.022 403.977 183.933L403.883 183.725C403.883 183.818 403.81 183.902 403.769 183.995L403.862 184.193Z" fill="#3F00F9"/>
<path d="M295.405 185.373C295.808 184.843 296.337 184.423 296.944 184.153C298.296 183.454 299.71 182.839 301.041 182.067C301.956 181.567 302.85 181.025 303.713 180.43C303.712 180.23 303.733 180.031 303.775 179.836C302.819 180.482 301.841 181.098 300.822 181.661C299.502 182.391 298.108 183.006 296.726 183.746C296.08 184.045 295.511 184.487 295.062 185.039C295.156 185.17 295.272 185.283 295.405 185.373Z" fill="#3F00F9"/>
<path d="M406.784 339.685C404.127 338.746 401.661 337.333 399.506 335.515C397.322 333.607 395.024 331.699 392.612 329.833C390.2 327.967 387.694 326.122 385.032 324.35C382.37 322.577 379.542 320.941 376.714 319.221C371.016 315.801 365.09 312.236 359.038 308.399C355.992 306.512 353.06 304.344 349.857 302.457C346.655 300.57 343.348 298.871 340.156 296.786C338.55 295.75 337.027 294.589 335.602 293.314C334.145 292.058 332.814 290.662 331.63 289.144C330.466 287.58 329.405 285.902 328.22 284.296C327.035 282.691 325.797 281.117 324.518 279.553C321.91 276.395 319.085 273.424 316.065 270.66C314.511 269.311 313.081 267.825 311.792 266.219C310.562 264.562 309.765 262.624 309.473 260.579C309.369 259.539 309.369 258.491 309.473 257.451C309.563 256.384 309.591 255.312 309.556 254.24C309.48 252.068 309.13 249.914 308.517 247.829C307.881 245.965 307.135 244.141 306.281 242.366C306.115 242.439 305.938 242.523 305.761 242.585C306.607 244.339 307.347 246.142 307.976 247.985C308.578 250.02 308.927 252.121 309.016 254.24C309.016 255.283 309.016 256.326 308.933 257.368C308.818 258.439 308.818 259.519 308.933 260.589C309.229 262.725 310.059 264.751 311.345 266.48C312.654 268.117 314.113 269.628 315.701 270.994C318.699 273.742 321.506 276.692 324.103 279.824C325.381 281.377 326.629 282.951 327.794 284.546C328.958 286.142 330.029 287.81 331.214 289.394C332.418 290.953 333.773 292.388 335.259 293.679C336.705 294.969 338.248 296.143 339.876 297.192C343.109 299.277 346.468 300.966 349.629 302.874C352.789 304.782 355.742 306.908 358.799 308.795C364.861 312.632 370.788 316.187 376.475 319.596C379.334 321.306 382.142 322.953 384.793 324.694C387.444 326.435 389.992 328.301 392.363 330.157C394.733 332.012 397.073 333.899 399.256 335.797C401.437 337.637 403.93 339.067 406.618 340.019C408.724 340.777 410.877 341.397 413.064 341.874C413.709 341.874 414.343 341.874 414.988 341.874C412.198 341.372 409.454 340.64 406.784 339.685Z" fill="#3F00F9"/>
<path d="M321.555 188.041C321.222 188.292 320.879 188.531 320.515 188.761C319.819 189.207 319.093 189.605 318.342 189.949C317.595 190.287 316.824 190.566 316.034 190.783C315.24 190.97 314.434 191.099 313.622 191.169C311.999 191.336 310.357 191.377 308.724 191.45C307.122 191.565 305.513 191.565 303.91 191.45C302.349 191.279 300.834 190.819 299.439 190.095C298.017 189.505 296.74 188.612 295.696 187.478C295.472 187.236 295.314 186.94 295.237 186.618C295.161 186.297 295.168 185.961 295.259 185.644C295.119 185.547 294.995 185.428 294.896 185.289V185.341C294.74 185.749 294.7 186.192 294.781 186.621C294.862 187.05 295.06 187.448 295.353 187.77C296.442 188.968 297.78 189.912 299.273 190.533C300.715 191.285 302.284 191.762 303.9 191.94C305.525 192.076 307.158 192.097 308.787 192.003C310.419 191.93 312.062 191.888 313.715 191.721C314.552 191.643 315.382 191.507 316.2 191.315C317.019 191.094 317.818 190.808 318.592 190.46C319.37 190.108 320.121 189.697 320.837 189.23C321.191 189 321.544 188.75 321.877 188.5L322.387 188.093C322.511 188 322.387 188.093 322.501 188.093L321.898 187.874L321.555 188.041Z" fill="#3F00F9"/>
<path d="M380.665 194.859C381.384 195.078 382.122 195.228 382.869 195.307C384.824 195.703 385.989 196.026 385.989 195.995C384.969 195.637 383.927 195.348 382.869 195.13C382.164 195.041 381.469 194.891 380.79 194.681C379.584 194.129 379.75 193.42 377.847 191.762C377.292 191.205 376.631 190.766 375.903 190.47C375.367 190.27 374.801 190.161 374.229 190.146L374.146 190.23C374.119 190.252 374.095 190.276 374.073 190.303C374.691 190.352 375.296 190.507 375.861 190.762C376.497 191.081 377.074 191.508 377.567 192.023C379.76 194.098 379.76 194.473 380.665 194.859Z" fill="#3F00F9"/>
<path d="M308.267 176.761C308.787 176.219 309.307 175.656 309.743 175.134C310.239 174.622 310.778 174.155 311.355 173.738C312.476 172.875 313.711 172.173 315.025 171.652C317.666 170.714 320.349 169.932 322.907 168.994C325.464 168.056 327.949 167.055 330.372 166.096C332.795 165.137 335.238 164.397 337.65 163.74C338.832 163.402 340.034 163.138 341.248 162.947C342.406 162.717 343.602 162.778 344.731 163.125C345.819 163.521 346.826 164.11 347.705 164.866C348.589 165.606 349.431 166.388 350.263 167.149C351.875 168.638 353.409 170.211 354.858 171.861C357.397 174.989 360.178 177.91 363.176 180.597C367.117 184.257 370.746 187.426 373.948 190.178C373.948 190.178 374.052 190.074 374.104 190.022C370.912 187.238 367.304 184.058 363.374 180.389C360.388 177.713 357.621 174.802 355.097 171.684C353.645 170.021 352.103 168.437 350.481 166.94C349.66 166.169 348.817 165.377 347.913 164.636C346.996 163.838 345.938 163.219 344.793 162.812C343.608 162.449 342.352 162.381 341.134 162.614C339.906 162.808 338.691 163.073 337.494 163.406C335.082 164.063 332.639 164.834 330.216 165.762C327.793 166.69 325.319 167.743 322.751 168.64C320.182 169.536 317.552 170.339 314.859 171.288C313.509 171.807 312.235 172.508 311.074 173.373C310.479 173.811 309.923 174.299 309.411 174.832C308.901 175.364 308.444 175.875 307.934 176.438C306.713 177.651 305.383 178.751 303.962 179.722C303.929 179.918 303.908 180.117 303.9 180.316C305.468 179.276 306.93 178.086 308.267 176.761Z" fill="#3F00F9"/>
<path d="M306.051 241.762C305.199 239.768 304.487 237.716 303.92 235.622L303.411 235.914C303.984 237.986 304.696 240.016 305.542 241.991L305.698 242.356C305.872 242.288 306.042 242.212 306.207 242.127C306.155 241.991 306.103 241.877 306.051 241.762Z" fill="#3F00F9"/>
<path d="M333.939 185.039C333.543 185.216 333.148 185.383 332.743 185.529C329.565 186.756 326.197 187.416 322.792 187.478H322.48C322.48 187.478 322.293 187.478 322.221 187.478L322.127 187.562L323.167 187.948C326.521 187.854 329.836 187.195 332.972 185.998C333.374 185.845 333.779 185.678 334.188 185.497C334.188 185.299 334.24 185.101 334.261 184.893L333.939 185.039Z" fill="#3F00F9"/>
<path d="M303.848 234.151C304.047 233.7 304.367 233.314 304.773 233.035C305.683 232.485 306.708 232.156 307.768 232.076C309.934 231.832 312.127 232.081 314.183 232.806C316.238 233.618 318.117 234.821 319.714 236.351C321.41 237.809 322.934 239.456 324.258 241.261C325.554 243.112 326.724 245.049 327.762 247.057C328.856 249.057 329.828 251.122 330.673 253.239L330.829 253.646L330.913 253.844L330.975 254.011C330.978 254.048 330.994 254.082 331.021 254.107C331.048 254.132 331.084 254.146 331.121 254.146L331.568 254.334L331.952 254.511C332.448 254.764 332.918 255.064 333.356 255.408C333.793 255.755 334.197 256.143 334.562 256.565C334.942 257.013 335.352 257.435 335.789 257.826C336.673 258.608 337.567 259.328 338.472 260.057C339.39 260.803 340.392 261.439 341.456 261.955C342.915 262.724 344.325 263.584 345.677 264.53L347.694 265.968C348.359 266.514 349.107 266.951 349.909 267.261C350.382 267.396 350.888 267.344 351.323 267.115C351.686 266.854 352.002 266.533 352.259 266.167C352.785 265.565 353.378 265.026 354.026 264.561C354.661 264.102 355.388 263.664 356.044 263.185L357.988 261.673C359.288 260.633 360.316 259.291 360.982 257.764C361.685 256.303 362.255 254.781 362.688 253.218C363.568 250.162 364.214 247.043 364.622 243.888C364.965 240.917 365.204 238.039 365.329 235.225C365.405 233.835 365.446 232.445 365.453 231.055C365.453 230.356 365.453 229.668 365.453 228.97V226.822L364.622 225.571L363.873 224.362C363.384 223.559 362.906 222.735 362.448 221.912C361.541 220.273 360.732 218.581 360.026 216.845C358.661 213.37 357.12 209.967 355.409 206.649C354.973 205.826 354.472 205.038 353.912 204.293C353.392 203.553 352.924 202.771 352.467 201.989C352.054 201.147 351.53 200.365 350.907 199.664C350.563 199.326 350.171 199.041 349.743 198.82C349.347 198.67 348.992 198.431 348.703 198.121C348.439 197.798 348.257 197.415 348.173 197.006C348.011 196.538 347.744 196.113 347.393 195.765C347.047 195.433 346.65 195.159 346.218 194.952L345.594 194.671C345.411 194.584 345.236 194.48 345.074 194.358C343.743 193.242 342.527 191.898 341.289 190.647C340.052 189.396 338.888 188.051 337.525 186.883C336.847 186.307 336.112 185.8 335.332 185.371L334.76 185.048L334.614 184.965C334.581 184.948 334.549 184.927 334.521 184.902C334.521 185.1 334.469 185.288 334.437 185.476H334.51L335.072 185.788C335.812 186.208 336.509 186.7 337.151 187.258C338.461 188.374 339.626 189.719 340.863 190.98C342.1 192.242 343.296 193.566 344.721 194.744C344.911 194.898 345.121 195.028 345.344 195.129L345.948 195.4C346.331 195.577 346.683 195.816 346.987 196.109C347.281 196.401 347.502 196.758 347.632 197.152C347.742 197.626 347.959 198.068 348.266 198.445C348.598 198.808 349.007 199.093 349.462 199.279C349.843 199.472 350.194 199.722 350.502 200.019C351.081 200.691 351.573 201.434 351.968 202.229C352.436 203.021 352.914 203.814 353.444 204.575C353.985 205.306 354.471 206.076 354.9 206.879C356.6 210.183 358.13 213.572 359.485 217.033C360.202 218.786 361.021 220.495 361.939 222.151C362.396 222.985 362.875 223.809 363.374 224.633L364.133 225.842L364.871 226.978V228.938V231.023C364.871 232.41 364.819 233.796 364.757 235.193C364.622 237.998 364.393 240.865 364.039 243.815H364.299H364.029V243.898V244.044V244.326L363.935 244.91L363.758 246.056C363.627 246.828 363.481 247.599 363.322 248.371C363.02 249.903 362.636 251.498 362.188 252.958C361.76 254.489 361.203 255.982 360.525 257.42C359.888 258.869 358.91 260.142 357.676 261.131L355.763 262.612C355.108 263.102 354.432 263.498 353.735 263.998C353.051 264.494 352.423 265.064 351.864 265.697C351.583 266.01 351.365 266.375 351.094 266.511C350.793 266.667 350.443 266.7 350.117 266.604C349.366 266.315 348.665 265.91 348.037 265.405L346.01 263.956C344.637 262.996 343.207 262.122 341.726 261.34C340.7 260.843 339.734 260.231 338.846 259.515C337.952 258.785 337.037 258.056 336.195 257.305C335.768 256.93 335.372 256.522 335.009 256.085C334.618 255.636 334.187 255.224 333.72 254.855C333.251 254.488 332.746 254.17 332.212 253.907L331.817 253.708L331.474 253.573L331.225 252.937C330.373 250.793 329.39 248.704 328.282 246.682C327.235 244.647 326.05 242.686 324.736 240.812C323.385 238.977 321.833 237.299 320.11 235.808C318.455 234.235 316.513 232.996 314.391 232.16C312.248 231.402 309.962 231.146 307.705 231.409C306.557 231.494 305.445 231.852 304.461 232.452C303.955 232.799 303.558 233.283 303.318 233.848C303.182 234.423 303.2 235.024 303.369 235.589C303.525 235.485 303.702 235.391 303.889 235.287C303.791 234.916 303.777 234.528 303.848 234.151Z" fill="#3F00F9"/>
<path d="M415.019 341.916C414.374 341.916 413.74 341.916 413.095 341.916C414.135 342.135 415.102 342.333 416.09 342.5C416.766 342.5 417.431 342.5 418.107 342.5C417.088 342.319 416.059 342.125 415.019 341.916Z" fill="#3F00F9"/>
<path d="M374.053 190.303C374.053 190.251 374.157 190.199 374.209 190.146L374.084 190.042C374.032 190.042 373.969 190.146 373.927 190.198L374.053 190.303Z" fill="#3F00F9"/>
<path d="M329.717 124.093C329.77 124.34 329.857 124.579 329.977 124.802C330.101 125.044 330.303 125.239 330.549 125.354C331.007 125.562 331.48 125.736 331.963 125.875L334.76 126.741C335.627 127.045 336.517 127.279 337.422 127.439C337.657 127.477 337.898 127.442 338.112 127.337C338.326 127.233 338.503 127.064 338.618 126.855C338.75 126.467 338.841 126.065 338.888 125.656C339.034 124.967 339.369 124.331 339.855 123.822C340.073 123.592 340.323 123.405 340.531 123.175C340.687 123.001 340.772 122.774 340.77 122.539L340.614 122.466C340.619 122.573 340.602 122.68 340.564 122.781C340.527 122.881 340.469 122.973 340.395 123.05C340.208 123.259 339.938 123.446 339.709 123.686C339.188 124.214 338.827 124.879 338.67 125.604C338.613 125.986 338.526 126.363 338.41 126.73C338.316 126.895 338.174 127.026 338.002 127.107C337.831 127.187 337.639 127.212 337.453 127.179C336.571 127.005 335.702 126.768 334.854 126.47L332.067 125.594C331.597 125.465 331.138 125.298 330.695 125.093C330.509 124.983 330.351 124.832 330.232 124.651C330.113 124.471 330.036 124.266 330.008 124.051C329.873 123.175 330.015 122.278 330.414 121.486C330.735 120.681 331.245 119.966 331.901 119.401C331.819 119.426 331.739 119.458 331.662 119.495C331.439 119.605 331.232 119.745 331.048 119.912C330.69 120.338 330.392 120.812 330.164 121.32C329.729 122.174 329.573 123.144 329.717 124.093Z" fill="#3F00F9"/>
<path d="M331.038 119.944C331.222 119.777 331.428 119.637 331.651 119.527C331.728 119.49 331.808 119.458 331.89 119.433C332.232 119.143 332.605 118.891 333.002 118.683C332.84 118.672 332.676 118.672 332.514 118.683C331.953 119.015 331.453 119.441 331.038 119.944Z" fill="#3F00F9"/>
<path d="M340.614 122.465L340.77 122.538C340.775 122.469 340.775 122.399 340.77 122.33C340.733 122.158 340.67 121.993 340.583 121.84L340.364 121.746C340.487 121.929 340.572 122.135 340.614 122.351C340.614 122.351 340.614 122.434 340.614 122.465Z" fill="#3F00F9"/>
<path d="M380.572 118.37C380.396 118.562 380.289 118.808 380.27 119.068C380.273 119.205 380.304 119.339 380.361 119.463C380.418 119.587 380.501 119.698 380.603 119.788C380.963 120.131 381.361 120.431 381.788 120.684C382.631 121.216 383.494 121.727 384.398 122.29C385.273 122.853 386.231 123.275 387.237 123.541C387.733 123.656 388.248 123.656 388.744 123.541C389.181 123.365 390.427 121.931 390.843 121.71C392.486 120.949 392.66 121.241 393.98 120.761C394.261 120.657 394.614 120.448 394.656 120.094L394.5 120C394.5 120.281 394.209 120.448 393.897 120.563C392.348 120.986 391.991 120.903 390.5 121.5C390.074 121.677 389.098 123.124 388.682 123.259C388.227 123.363 387.754 123.363 387.299 123.259C386.326 123.001 385.399 122.589 384.554 122.04C383.66 121.518 382.786 120.997 381.955 120.445C381.546 120.203 381.162 119.92 380.811 119.6C380.734 119.536 380.671 119.457 380.626 119.367C380.581 119.277 380.556 119.179 380.551 119.079C380.569 118.88 380.653 118.692 380.79 118.547C381.413 117.98 382.161 117.569 382.974 117.348C383.497 117.166 384.037 117.033 384.585 116.952C384.267 116.931 383.947 116.931 383.629 116.952C383.39 117.015 383.14 117.067 382.89 117.15C382.032 117.366 381.237 117.784 380.572 118.37Z" fill="#3F00F9"/>
<path d="M395.128 120.537L395.284 120.631C395.29 120.607 395.29 120.582 395.284 120.558C395.28 120.276 395.173 120.005 394.983 119.797L394.567 119.578C394.64 119.662 394.723 119.724 394.796 119.818C394.985 120.012 395.103 120.266 395.128 120.537Z" fill="#3F00F9"/>
<path d="M385.084 116.66C384.582 116.704 384.085 116.791 383.597 116.92C383.916 116.899 384.235 116.899 384.554 116.92L385.105 116.826C385.964 116.749 386.83 116.777 387.683 116.91C387.298 116.806 386.913 116.712 386.518 116.628C386.04 116.602 385.561 116.613 385.084 116.66Z" fill="#3F00F9"/>
<path d="M415.747 128.586C415.336 128.672 414.948 128.844 414.609 129.092C414.27 129.341 413.988 129.658 413.781 130.025C413.716 130.249 413.701 130.485 413.736 130.715C413.772 130.946 413.859 131.166 413.989 131.359C414.205 131.743 414.441 132.116 414.696 132.475C415.169 133.199 415.683 133.895 416.235 134.56C416.786 135.182 417.51 135.625 418.315 135.832C419.03 135.999 419.765 136.062 420.498 136.019C421.144 136.044 421.787 135.938 422.391 135.707C422.796 135.519 422.89 135.217 423.118 134.935C423.118 134.883 423.066 134.821 423.035 134.768C422.806 135.039 422.713 135.342 422.307 135.509C421.729 135.723 421.113 135.815 420.498 135.78C419.799 135.808 419.1 135.741 418.419 135.582C417.668 135.376 416.992 134.956 416.474 134.372C415.937 133.704 415.433 133.008 414.967 132.287C414.717 131.951 414.485 131.604 414.27 131.245C414.16 131.088 414.086 130.908 414.053 130.719C414.021 130.529 414.031 130.335 414.083 130.15C414.271 129.821 414.526 129.537 414.833 129.315C415.14 129.094 415.49 128.942 415.861 128.868C417.144 128.492 418.508 128.492 419.791 128.868C419.989 128.93 420.166 129.003 420.342 129.076C420.275 128.975 420.202 128.878 420.124 128.784L419.854 128.67C418.523 128.237 417.094 128.208 415.747 128.586Z" fill="#3F00F9"/>
<path d="M423.409 135.372C423.537 135.231 423.645 135.073 423.732 134.904L423.639 134.737C423.555 134.906 423.45 135.064 423.326 135.206C423.357 135.268 423.389 135.32 423.409 135.372Z" fill="#3F00F9"/>
<path d="M420.394 129.389C420.657 129.5 420.914 129.625 421.163 129.764C421.111 129.67 421.048 129.577 420.986 129.483C420.728 129.33 420.457 129.201 420.176 129.098L420.394 129.389Z" fill="#3F00F9"/>
<path d="M297.495 185.352C298.036 185.133 298.597 184.893 299.159 184.622C300.207 184.1 301.221 183.512 302.195 182.86C302.637 182.589 303.048 182.271 303.422 181.911C303.736 181.555 303.907 181.094 303.9 180.618C303.9 180.514 303.9 180.42 303.9 180.315L303.702 180.451C303.702 180.503 303.702 180.555 303.702 180.607C303.698 181.031 303.535 181.436 303.245 181.744C302.879 182.081 302.478 182.378 302.049 182.63C301.08 183.267 300.073 183.845 299.034 184.361C298.483 184.632 297.921 184.872 297.391 185.091C296.895 185.314 296.37 185.464 295.831 185.539C295.676 185.527 295.528 185.469 295.405 185.373C295.368 185.413 295.337 185.459 295.312 185.508C295.312 185.508 295.312 185.571 295.312 185.602C295.472 185.716 295.657 185.787 295.852 185.81C296.421 185.749 296.976 185.594 297.495 185.352Z" fill="#3F00F9"/>
<path d="M295.311 185.601C295.311 185.601 295.311 185.538 295.311 185.507C295.336 185.458 295.368 185.413 295.405 185.372C295.271 185.279 295.154 185.163 295.062 185.028C295.008 185.097 294.959 185.17 294.917 185.247C295.026 185.388 295.159 185.508 295.311 185.601Z" fill="#3F00F9"/>
<path d="M303.911 180.316C303.919 180.117 303.94 179.918 303.973 179.722L303.775 179.857C303.733 180.052 303.712 180.252 303.713 180.452L303.911 180.316Z" fill="#3F00F9"/>
<path d="M309.12 240.813L311.698 239.458C312.165 239.225 312.62 238.967 313.06 238.687C313.316 238.541 313.519 238.32 313.643 238.052C313.766 237.785 313.802 237.485 313.746 237.196C313.664 236.641 313.434 236.119 313.081 235.684C312.753 235.268 312.368 234.899 311.937 234.59C311.132 233.98 310.15 233.651 309.14 233.651C308.241 233.68 307.354 233.867 306.52 234.204C305.809 234.464 305.115 234.767 304.441 235.111C304.253 235.205 304.098 235.299 303.931 235.403V235.601L304.503 235.288C305.18 234.964 305.874 234.679 306.583 234.433C307.388 234.116 308.244 233.943 309.109 233.922C310.063 233.925 310.991 234.239 311.75 234.819C312.608 235.368 313.216 236.233 313.445 237.227C313.472 237.468 313.44 237.711 313.351 237.936C313.241 238.147 313.076 238.323 312.873 238.447C312.457 238.728 311.989 238.968 311.553 239.208L308.974 240.584L306.655 241.856L306.177 242.106L306.271 242.325L306.77 242.075L309.12 240.813Z" fill="#3F00F9"/>
<path d="M303.879 235.402C303.692 235.506 303.515 235.6 303.359 235.704C303.365 235.753 303.365 235.802 303.359 235.85L303.868 235.559L303.879 235.402Z" fill="#3F00F9"/>
<path d="M306.197 242.105C306.032 242.19 305.862 242.267 305.688 242.335C305.721 242.402 305.748 242.472 305.772 242.543C305.948 242.48 306.125 242.397 306.291 242.324L306.197 242.105Z" fill="#3F00F9"/>
<path d="M316.533 184.403C315.691 183.777 315.202 183.36 315.171 183.36C315.14 183.36 315.264 183.506 315.472 183.715C315.68 183.923 316.003 184.205 316.408 184.549C317.474 185.419 318.623 186.18 319.839 186.822C320.513 187.176 321.208 187.489 321.919 187.761L322.075 187.635L322.158 187.573C321.482 187.291 320.754 186.958 320.006 186.53C318.793 185.915 317.632 185.204 316.533 184.403Z" fill="#3F00F9"/>
<path d="M322.043 187.655L321.888 187.78L322.49 187.998H322.802H323.124L322.085 187.613L322.043 187.655Z" fill="#3F00F9"/>
<path d="M334.605 180.024C334.584 179.565 334.511 179.111 334.386 178.669C334.351 179.123 334.351 179.58 334.386 180.035C334.386 180.879 334.386 182.036 334.386 183.308C334.386 183.871 334.303 184.413 334.25 184.913L334.355 184.861C334.415 184.868 334.472 184.889 334.521 184.924C334.584 184.423 334.636 183.881 334.667 183.329C334.729 182.227 334.708 181.122 334.605 180.024Z" fill="#3F00F9"/>
<path d="M334.344 184.861L334.24 184.913C334.24 185.121 334.188 185.319 334.167 185.516L334.344 185.444H334.407C334.407 185.256 334.459 185.069 334.49 184.871C334.443 184.858 334.393 184.854 334.344 184.861Z" fill="#3F00F9"/>
<path d="M415.996 156.786C416.932 156.484 417.566 156.515 417.566 156.453C417.418 156.429 417.267 156.429 417.119 156.453C416.719 156.466 416.321 156.525 415.934 156.63C414.946 156.87 413.709 157.548 412.284 158.017C411.751 158.18 411.205 158.299 410.652 158.371L410.787 158.528V158.632C411.341 158.573 411.887 158.461 412.419 158.298C413.844 157.766 415.05 157.089 415.996 156.786Z" fill="#3F00F9"/>
<path d="M410.786 158.485L410.651 158.329L410.153 158.392L410.309 158.579V158.652L410.766 158.589L410.786 158.485Z" fill="#3F00F9"/>
<path d="M401.251 138.021C400.869 138.167 400.517 138.382 400.212 138.657C399.445 139.276 398.791 140.024 398.278 140.867C398.154 141.065 398.05 141.273 397.946 141.472H398.008C398.082 141.487 398.148 141.527 398.195 141.586C398.299 141.388 398.403 141.19 398.528 140.992C399.279 139.868 400.197 138.865 401.251 138.021Z" fill="#3F00F9"/>
<path d="M398.018 141.451H397.956C397.873 141.618 397.811 141.763 397.738 141.92H397.842L397.904 142.003L397.956 142.065C398.029 141.899 398.112 141.732 398.205 141.555C398.157 141.5 398.091 141.464 398.018 141.451Z" fill="#3F00F9"/>
<defs>
<filter id="filter0_f_1127_1856" x="147.17" y="179.706" width="98.1692" height="98.1689" filterUnits="userSpaceOnUse" color-interpolation-filters="sRGB">
<feFlood flood-opacity="0" result="BackgroundImageFix"/>
<feBlend mode="normal" in="SourceGraphic" in2="BackgroundImageFix" result="shape"/>
<feGaussianBlur stdDeviation="1" result="effect1_foregroundBlur_1127_1856"/>
</filter>
<filter id="filter1_f_1127_1856" x="242.16" y="165.55" width="96.1184" height="96.1182" filterUnits="userSpaceOnUse" color-interpolation-filters="sRGB">
<feFlood flood-opacity="0" result="BackgroundImageFix"/>
<feBlend mode="normal" in="SourceGraphic" in2="BackgroundImageFix" result="shape"/>
<feGaussianBlur stdDeviation="1" result="effect1_foregroundBlur_1127_1856"/>
</filter>
<radialGradient id="paint0_radial_1127_1856" cx="0" cy="0" r="1" gradientUnits="userSpaceOnUse" gradientTransform="translate(309 225.02) rotate(-179.815) scale(155.001 141.566)">
<stop stop-color="#0894FF"/>
<stop offset="0.290475" stop-color="#6E53FF"/>
<stop offset="0.609151" stop-color="#B038EA"/>
<stop offset="0.850793" stop-color="#F95088"/>
<stop offset="1" stop-color="#FF6F62"/>
</radialGradient>
<radialGradient id="paint1_radial_1127_1856" cx="0" cy="0" r="1" gradientUnits="userSpaceOnUse" gradientTransform="translate(309 225.02) rotate(-179.815) scale(155.001 141.566)">
<stop stop-color="#0894FF"/>
<stop offset="0.290475" stop-color="#6E53FF"/>
<stop offset="0.609151" stop-color="#B038EA"/>
<stop offset="0.850793" stop-color="#F95088"/>
<stop offset="1" stop-color="#FF6F62"/>
</radialGradient>
<radialGradient id="paint2_radial_1127_1856" cx="0" cy="0" r="1" gradientUnits="userSpaceOnUse" gradientTransform="translate(305.5 227.02) rotate(-179.256) scale(154.013 145.91)">
<stop stop-color="#0894FF"/>
<stop offset="0.290475" stop-color="#6E53FF"/>
<stop offset="0.609151" stop-color="#B038EA"/>
<stop offset="0.850793" stop-color="#F95088"/>
<stop offset="1" stop-color="#FF6F62"/>
</radialGradient>
<linearGradient id="paint3_linear_1127_1856" x1="295.5" y1="174" x2="269.5" y2="250.5" gradientUnits="userSpaceOnUse">
<stop offset="0.237373" stop-color="white" stop-opacity="0"/>
<stop offset="0.4371" stop-color="white"/>
<stop offset="0.596678" stop-color="white" stop-opacity="0"/>
</linearGradient>
<radialGradient id="paint4_radial_1127_1856" cx="0" cy="0" r="1" gradientUnits="userSpaceOnUse" gradientTransform="translate(305.5 227.02) rotate(-179.256) scale(154.013 145.91)">
<stop stop-color="#0894FF"/>
<stop offset="0.290475" stop-color="#6E53FF"/>
<stop offset="0.609151" stop-color="#B038EA"/>
<stop offset="0.850793" stop-color="#F95088"/>
<stop offset="1" stop-color="#FF6F62"/>
</radialGradient>
<linearGradient id="paint5_linear_1127_1856" x1="295.5" y1="174" x2="269.5" y2="250.5" gradientUnits="userSpaceOnUse">
<stop offset="0.237373" stop-color="white" stop-opacity="0"/>
<stop offset="0.4371" stop-color="white"/>
<stop offset="0.596678" stop-color="white" stop-opacity="0"/>
</linearGradient>
</defs>
</svg>
