<svg width="8" height="73.142" viewBox="0 0 8 73.142" fill="none" xmlns="http://www.w3.org/2000/svg"><path d="M7.335 67.986v-1.381l-6.68 2.271v1.407l6.68 2.289v-1.297l-1.434-.466v-2.365l1.434-.458Zm-5.136 1.628 2.577-.813v1.644l-2.577-.83Zm5.136-5.911c0-1.89-1.434-3.102-3.378-3.102-1.945 0-3.302 1.17-3.302 3.102v2.162h6.68v-2.162Zm-5.461.873v-.805c0-1.212.754-1.847 2.084-1.847 1.387 0 2.158.636 2.158 1.847v.805H1.874ZM.655 54.799v1.289l5.034 1.577-5.034 1.542v1.39l6.68-2.187v-1.407l-6.68-2.205Zm5.452-4.79v2.805H4.506v-2.492H3.287v2.492H1.883v-2.746H.655v4.035h6.68v-4.096H6.107Zm1.228-2.285H4.972v-.805l2.364-1.372v-1.534l-2.577 1.569c-.316-.865-1.033-1.372-1.935-1.372-1.386 0-2.167.89-2.167 2.424v2.382h6.68v-1.289Zm-5.508 0V46.69c0-.78.335-1.195.996-1.195.652 0 .987.415.987 1.195v1.034H1.828Zm5.508-7.135H1.93v-1.924H.655v5.127H1.93v-1.916h5.405v-1.289Zm0-3.98H.655v1.289h6.68v-1.289ZM5.26 30.694c-.987 0-1.526.577-1.758 1.644l-.233 1.043c-.093.441-.289.822-.745.822-.466 0-.856-.356-.856-.983 0-.644.475-1.084 1.172-1.127v-1.306c-1.396.085-2.27 1.084-2.27 2.45 0 1.314.856 2.271 2.047 2.271 1.107 0 1.656-.711 1.852-1.636l.214-1c.111-.517.363-.813.781-.813.54 0 .856.466.856 1.118 0 .788-.475 1.22-1.21 1.254v1.306c1.414-.093 2.317-1.051 2.317-2.585 0-1.525-.893-2.458-2.167-2.458Zm.846-5.044v2.805H4.505v-2.492H3.286v2.492H1.882v-2.747H.655v4.035h6.68v-4.094H6.107Zm1.228-3.76v-1.076l-4.475-1.611h4.475v-1.17H.655v1.542l4.949 1.772L.655 23.11v1.542h6.68v-1.17H2.898l4.438-1.594Zm-1.228-9.194v2.805H4.505v-2.494H3.286v2.492H1.882v-2.745H.655v4.035h6.68v-4.095H6.107Zm1.228-4.964V6.47H.655v1.187h4.428l-4.428 2.65v1.39h6.68v-1.178H2.674l4.661-2.788Zm0-5.236H1.93V.572H.655v5.127H1.93V3.784h5.405V2.495Z" fill="#5933CC"/></svg>