<svg width="535" height="255" viewBox="0 0 535 255" fill="none" xmlns="http://www.w3.org/2000/svg">
<path d="M280.982 64.0301C280.824 66.362 280.499 68.6797 280.01 70.9654C279.41 74.0049 278.586 76.9959 277.544 79.9141C276.781 82.0495 275.906 84.143 274.92 86.1856C273.373 89.396 271.547 92.4651 269.464 95.358C267.329 98.2757 264.932 100.994 262.304 103.479C259.772 105.849 257.056 108.013 254.179 109.952C243.627 116.835 231.192 120.277 218.594 119.803C208.2 119.249 198.098 116.177 189.16 110.854C182.659 106.889 176.987 101.708 172.455 95.5966C165.713 86.3299 161.73 75.3515 160.967 63.9257C160.415 51.5891 163.508 39.3626 169.862 28.7648C172.916 23.8127 176.695 19.3437 181.073 15.5058C186.247 11.0923 192.106 7.5485 198.421 5.0135C206.384 1.54577 215.022 -0.105118 223.706 0.181201C231.422 0.582671 238.987 2.47451 245.98 5.75176C249.755 7.53062 253.344 9.68154 256.69 12.1725C260.53 14.9905 264.029 18.2438 267.117 21.8669C270.353 25.7938 273.073 30.1166 275.212 34.7306C276.317 37.1015 277.271 39.5399 278.067 42.0313C278.909 44.6152 279.583 47.2506 280.085 49.921C280.495 52.2208 280.782 54.5408 280.945 56.8712C281.123 59.2538 281.135 61.6458 280.982 64.0301Z" fill="#C097FB"/>
<path d="M161.169 66.7217C161.349 71.7915 162.126 76.8225 163.486 81.7107C164.296 84.6051 165.318 87.4365 166.543 90.1822C168.358 94.2718 170.63 98.1442 173.314 101.726C176.247 105.62 179.663 109.128 183.479 112.166C187.45 115.291 191.802 117.9 196.432 119.929C206.663 124.529 217.998 126.118 229.103 124.508C233.26 123.931 237.347 122.931 241.301 121.525C251.247 118.009 260.036 111.839 266.713 103.687C269.935 99.8866 272.695 95.7189 274.935 91.2709C276.392 88.4044 277.578 85.4085 278.478 82.3222C278.724 81.4199 279.128 79.8091 279.517 77.9299C279.629 77.3557 279.89 76.0432 280.152 74.3355C280.309 73.3064 280.488 72.1431 280.63 70.6069C280.683 70.0551 280.757 69.2124 280.795 68.1833C280.795 67.3556 280.795 67.1915 280.847 66.5203C280.847 66.401 280.847 66.1102 280.847 65.7299C280.847 65.3496 280.847 65.2079 280.81 65.0513C280.72 65.8865 280.586 66.9827 280.384 68.2653C280.026 70.5474 279.552 72.8099 278.964 75.044C278.171 77.9717 277.172 80.8399 275.974 83.6273C274.935 86.0434 273.986 87.8406 273.59 88.5789C271.988 91.5573 270.137 94.3961 268.059 97.0652C264.483 101.657 260.229 105.68 255.442 108.997C251.486 111.725 247.221 113.977 242.736 115.708C234.842 118.685 226.438 120.079 218.003 119.81C215.827 119.67 213.659 119.421 211.508 119.064C205.351 118.071 199.374 116.176 193.772 113.441C188.393 110.814 183.46 107.361 179.152 103.21C175.83 100.032 172.888 96.4808 170.385 92.6282C168.92 90.3587 167.61 87.9945 166.461 85.5512C163.719 79.5898 161.934 73.2359 161.169 66.7217Z" fill="url(#paint0_linear_1108_2578)"/>
<path d="M263.94 47.5864C264.086 51.2171 263.762 54.8514 262.976 58.3994C261.453 65.0034 258.471 71.1843 254.246 76.4907C247.751 84.4774 236.054 92.5238 221.105 92.5685C198.682 92.6356 186.275 74.6711 185.288 73.1797C179.981 65.1222 177.524 55.5262 178.307 45.916C180.079 25.8187 195.745 15.1101 197.673 13.8499C204.735 9.17868 213.029 6.7052 221.501 6.74311C242.362 6.96682 254.523 22.9328 255.666 24.4839C260.601 31.2266 263.475 39.2502 263.94 47.5864Z" fill="#BF96FA"/>
<path d="M255.21 45.2526C257.027 59.2275 249.179 69.3992 247.818 71.0994C246.324 72.9861 237.175 84.0228 221.868 84.2988C203.855 84.6194 193.667 69.7795 192.524 68.0494C188.247 61.7156 186.211 54.1391 186.738 46.5204C188.017 30.6513 200.536 22.0382 202.307 20.86C208.066 17.0463 214.829 15.0245 221.741 15.0508C238.184 15.3789 247.721 28.0488 248.91 29.6819C252.264 34.2747 254.429 39.6236 255.21 45.2526Z" fill="#C8A3FB"/>
<path d="M178.434 55.9089C178.113 59.1827 177.082 73.5006 187.112 86.3792C196.276 98.1319 209.655 102.226 219.416 102.703C224.981 102.974 230.543 102.132 235.777 100.227C246.359 96.2148 254.978 88.2801 259.837 78.0793C261.457 74.7795 262.59 71.263 263.2 67.6392C263.544 65.347 263.747 63.0359 263.806 60.7189C263.918 58.1163 263.881 55.9313 263.806 54.3206C263.32 57.639 260.644 73.3142 246.398 83.8811C238.793 89.5758 229.507 92.5896 219.999 92.4494C211.37 92.1354 203.028 89.2813 196.021 84.2465C186.686 77.4447 180.376 67.2787 178.434 55.9089Z" fill="url(#paint1_linear_1108_2578)"/>
<path d="M179.525 61.8748C179.672 62.4278 179.855 62.9708 180.071 63.5005L180.669 65.1113C182.327 69.2861 184.593 73.1936 187.396 76.7073C190.182 80.0399 193.411 82.9778 196.993 85.4397L199.684 87.1251C200.588 87.6694 201.545 88.0871 202.472 88.5718C202.935 88.7955 203.391 89.049 203.862 89.2504L205.304 89.8097L206.739 90.369C207.209 90.5652 207.691 90.7296 208.182 90.8612L211.104 91.674C211.595 91.8132 212.094 91.9179 212.599 91.9872L214.094 92.2407L215.589 92.4943C216.075 92.5912 216.568 92.5763 217.084 92.6285L219.984 92.8299C223.721 92.9253 227.454 92.5216 231.083 91.6293C237.601 89.9962 243.651 86.8797 248.76 82.524C252.921 78.9415 256.38 74.6204 258.962 69.7795C260.044 67.7967 260.961 65.7291 261.705 63.5975C262.079 62.628 262.318 61.6586 262.602 60.7563C262.886 59.8539 263.073 58.974 263.223 58.1313C263.469 56.886 263.649 55.7375 263.776 54.6935C263.776 53.8732 263.776 52.9709 263.776 51.994C263.622 54.0353 263.328 56.0635 262.894 58.0642C262.729 58.8919 262.468 59.7495 262.243 60.6593C262.019 61.5691 261.698 62.5087 261.317 63.4707C260.555 65.569 259.628 67.6038 258.544 69.5558C255.914 74.3363 252.42 78.5891 248.237 82.0989C243.176 86.3557 237.202 89.3945 230.777 90.9805C227.206 91.8446 223.536 92.2283 219.864 92.1214L217.009 91.9126C216.538 91.8604 216.052 91.8753 215.574 91.7784L214.146 91.5249L212.704 91.2713C212.219 91.2006 211.739 91.0959 211.269 90.9581L208.406 90.1527C207.921 90.0255 207.446 89.8609 206.986 89.6605L205.581 89.1162L204.161 88.5643C203.697 88.363 203.256 88.1169 202.793 87.8857C201.889 87.4159 200.947 86.9983 200.065 86.4688L197.426 84.8059C193.919 82.3824 190.761 79.4921 188.039 76.2151C185.282 72.7579 183.053 68.9131 181.424 64.8055L180.841 63.2321C180.631 62.7107 180.452 62.1779 180.303 61.6362C180.019 60.5475 179.727 59.4512 179.443 58.355C178.988 56.1254 178.706 53.8642 178.599 51.5913V54.0522C178.599 55.3796 178.599 56.707 178.561 58.0269L178.651 58.534C178.935 59.6526 179.234 60.7637 179.525 61.8748Z" fill="#6905F5"/>
<path d="M263.911 48.3776C263.955 48.6311 263.993 48.8698 264.037 49.1234C264.037 48.7952 264.037 48.5118 264.037 48.2881C264.038 48.0556 264.018 47.8234 263.978 47.5945C263.965 47.828 263.965 48.062 263.978 48.2955L263.911 48.3776Z" fill="#6905F5"/>
<path d="M177.814 48.6455V48.198C177.807 48.0232 177.819 47.8481 177.851 47.676L178.068 46.7961C178.367 45.6402 178.613 44.4619 178.965 43.321L179.047 43.0749C180.037 37.0345 182.333 31.2812 185.774 26.2141C190.473 19.262 197.072 13.8011 204.788 10.4793C208.365 8.94242 212.138 7.90842 216 7.4069C217.849 7.17856 219.712 7.07144 221.576 7.08624C222.485 7.08326 223.393 7.13306 224.296 7.23538C225.193 7.31741 226.098 7.3547 226.972 7.48147C233.519 8.45185 239.757 10.9031 245.209 14.6479C249.678 17.779 253.538 21.6958 256.6 26.2066L257.557 27.6981C257.88 28.1778 258.174 28.6757 258.439 29.1895C258.955 30.1813 259.455 31.1284 259.934 32.0456C260.412 32.9629 260.681 33.9025 261.07 34.7675C261.242 35.2075 261.444 35.6251 261.578 36.0502C261.713 36.4752 261.832 36.8928 261.959 37.2955C262.206 38.1084 262.438 38.869 262.662 39.5924C262.886 40.3157 262.953 41.0092 263.088 41.6506C263.222 42.2919 263.342 42.881 263.454 43.4179C263.566 43.9548 263.574 44.4619 263.634 44.9094C263.731 45.7968 263.813 46.4754 263.865 46.9303C263.918 47.3852 263.962 47.6164 263.97 47.6164C263.99 47.3856 263.99 47.1536 263.97 46.9228C263.97 46.4679 263.888 45.7893 263.82 44.8945C263.776 44.447 263.761 43.9399 263.678 43.403C263.596 42.8661 263.469 42.2621 263.357 41.6207C263.245 40.9794 263.103 40.2784 262.961 39.5327L262.288 37.2135L261.922 35.9532C261.795 35.5207 261.601 35.1031 261.436 34.6557C261.077 33.7757 260.733 32.8436 260.322 31.889L258.828 28.9956C258.562 28.4821 258.268 27.9842 257.946 27.5042C257.639 27.0045 257.318 26.4974 256.996 26.0127C253.939 21.4176 250.06 17.4235 245.553 14.2303C240.031 10.3625 233.687 7.8206 227.017 6.80287C226.128 6.66864 225.216 6.62389 224.296 6.53441C223.378 6.42959 222.455 6.3773 221.531 6.3778C219.633 6.35068 217.735 6.45283 215.85 6.68355C211.917 7.17876 208.073 8.22044 204.43 9.77831C196.572 13.1492 189.851 18.7046 185.071 25.7815C179.882 33.3767 177.323 42.4556 177.784 51.6358C177.784 51.248 177.784 50.8901 177.784 50.465L177.814 48.6455Z" fill="#6905F5"/>
<path d="M190.057 64.4554C192.061 68.4071 194.768 71.9623 198.047 74.9478C202.01 78.5955 206.721 81.3409 211.852 82.9941C214.709 83.9258 217.689 84.4284 220.694 84.4856H221.86C222.251 84.5154 222.643 84.5154 223.033 84.4856L225.395 84.2917L227.765 83.8741C228.564 83.7324 229.334 83.4789 230.127 83.2775C236.688 81.26 242.596 77.5446 247.25 72.5092C249.591 69.7458 251.496 66.6428 252.901 63.307C254.374 59.8914 255.324 56.2738 255.719 52.576C256.095 48.8665 255.842 45.1203 254.971 41.4946C254.115 37.9822 252.697 34.6306 250.771 31.569C247.051 25.8082 241.829 21.1676 235.665 18.1459C230.09 15.3851 223.841 14.2676 217.652 14.9244C214.872 15.2452 212.142 15.9116 209.527 16.908C208.291 17.3626 207.083 17.8905 205.91 18.489C205.312 18.7425 204.789 19.1154 204.236 19.4137C203.683 19.712 203.144 20.0252 202.629 20.3682C198.917 22.7931 195.676 25.8677 193.062 29.4437L192.239 30.6219C191.963 30.9919 191.714 31.3806 191.492 31.7852L190.199 34.0224C189.527 35.3867 188.94 36.7914 188.442 38.2283C188.226 38.8771 188.016 39.4886 187.822 40.0628C187.628 40.637 187.56 41.2112 187.441 41.7257C187.321 42.2403 187.217 42.7101 187.119 43.1426C187.022 43.5751 187.015 43.9853 186.963 44.3432C186.888 45.089 186.82 45.5961 186.783 45.9689C186.765 46.1524 186.765 46.3373 186.783 46.5207C186.844 46.3445 186.884 46.1618 186.903 45.9764C186.963 45.6135 187.052 45.0765 187.172 44.3656C187.232 44.0151 187.276 43.6199 187.359 43.1799C187.441 42.7399 187.59 42.285 187.717 41.7779C187.844 41.2708 187.986 40.7265 188.136 40.1448C188.285 39.5631 188.555 38.974 188.786 38.3402C189.302 36.9254 189.903 35.5432 190.588 34.2014C191.006 33.4929 191.447 32.7547 191.896 31.9642C192.121 31.5715 192.371 31.1929 192.643 30.8307C192.92 30.4504 193.189 30.085 193.473 29.6748C196.091 26.1812 199.313 23.1812 202.987 20.8156C203.496 20.4875 204.041 20.2041 204.572 19.8909C205.103 19.5777 205.641 19.2422 206.224 18.9886C207.383 18.4133 208.573 17.9029 209.789 17.4599C212.358 16.5012 215.037 15.8649 217.764 15.5657C223.819 14.9553 229.923 16.0724 235.366 18.7873C238.302 20.2474 241.025 22.0988 243.461 24.2907C246.03 26.5384 248.263 29.1427 250.09 32.0239C251.964 35.0175 253.346 38.2901 254.186 41.7183C255.039 45.2481 255.291 48.8956 254.934 52.5089C254.175 59.6654 251.315 66.4389 246.712 71.9798C242.166 76.9184 236.393 80.5714 229.977 82.5691C229.23 82.763 228.482 83.0165 227.675 83.1582L225.365 83.5758L223.063 83.7697C222.684 83.8119 222.301 83.8244 221.92 83.807H220.776C217.816 83.7538 214.881 83.2586 212.069 82.3379C207.018 80.7348 202.373 78.064 198.45 74.5078C195.196 71.5905 192.494 68.1121 190.475 64.2392C188.952 61.3147 187.871 58.1809 187.269 54.94C186.892 52.8883 186.705 50.8065 186.708 48.7206C186.708 47.9749 186.746 47.4604 186.746 47.095C186.767 46.9091 186.767 46.7215 186.746 46.5357C186.703 46.7168 186.678 46.9016 186.671 47.0875C186.671 47.4529 186.574 47.9973 186.551 48.7206C186.479 50.8221 186.617 52.9255 186.963 54.9996C187.505 58.2904 188.549 61.4791 190.057 64.4554Z" fill="#6905F5"/>
<path d="M264.053 50.3157C264.045 51.7715 263.953 53.2257 263.776 54.6708C263.776 55.9012 263.776 56.9601 263.776 57.8177V59.9356V60.4725C263.765 60.5342 263.765 60.5973 263.776 60.6589C263.785 60.5971 263.785 60.5343 263.776 60.4725V59.9356C263.776 59.4583 263.821 58.7499 263.858 57.8177C263.903 55.946 264.023 53.239 264.06 49.6595C264.06 49.4805 264 49.2866 263.97 49.1077C264.053 49.4507 264.06 49.8534 264.053 50.3157Z" fill="#6905F5"/>
<path d="M177.687 61.2487C177.769 63.6366 178.049 66.0136 178.524 68.3554C178.997 70.6613 179.639 72.9294 180.445 75.1415L181.08 76.7672C181.29 77.3116 181.551 77.8336 181.783 78.363C182.239 79.4294 182.814 80.4287 183.345 81.4429C187.721 89.1941 194.438 95.3689 202.539 99.0867C209.362 102.239 216.886 103.576 224.38 102.968C231.874 102.36 239.084 99.8287 245.307 95.6191C245.987 95.2015 246.585 94.6869 247.213 94.232C247.841 93.7772 248.439 93.285 249.014 92.7928C250.125 91.8232 251.183 90.7951 252.183 89.713C254.024 87.7353 255.682 85.5964 257.139 83.3221C259.47 79.6812 261.234 75.7085 262.371 71.5397C263.082 68.911 263.528 66.218 263.701 63.5007C263.761 62.5686 263.776 61.8602 263.776 61.3754V60.8311C263.786 60.7718 263.786 60.7113 263.776 60.6521C263.738 60.8989 263.718 61.1481 263.716 61.3978C263.716 61.8751 263.649 62.5835 263.567 63.5082C262.95 70.4949 260.614 77.2216 256.765 83.0909C255.309 85.3289 253.656 87.4327 251.825 89.3774C250.824 90.4236 249.771 91.4191 248.67 92.3603C248.102 92.845 247.512 93.3223 246.884 93.7697C246.256 94.2171 245.666 94.7168 245 95.1269C238.852 99.2349 231.747 101.693 224.37 102.264C216.992 102.834 209.592 101.499 202.883 98.3857C194.945 94.7189 188.368 88.6496 184.085 81.0402C183.562 80.0409 182.994 79.064 182.59 78.0125C182.358 77.4905 182.104 76.9834 181.895 76.454L181.282 74.8507C180.49 72.6806 179.86 70.4546 179.399 68.1914C178.933 65.8936 178.658 63.5616 178.576 61.2188C178.576 60.1599 178.576 59.0935 178.576 58.0197C178.162 55.9043 177.912 53.7602 177.829 51.6064V54.0375C177.747 56.4686 177.687 58.8474 177.687 61.2487Z" fill="#6905F5"/>
<path d="M263.881 50.3086C263.881 50.8008 263.836 51.3601 263.791 51.9717C263.791 52.9487 263.791 53.8511 263.791 54.6714C263.968 53.2263 264.061 51.772 264.068 50.316C264.068 49.8536 264.068 49.4509 264.068 49.1078C264.068 48.7648 263.985 48.6305 263.94 48.3621C263.903 48.8394 263.925 49.4807 263.881 50.3086Z" fill="#6905F5"/>
<path d="M178.591 54.0525V51.5916C178.428 48.7505 178.573 45.9001 179.025 43.0903L178.943 43.3364C178.591 44.4774 178.345 45.6556 178.046 46.8115L177.829 47.6915C177.797 47.8636 177.785 48.0386 177.792 48.2135V48.6609V50.4581C177.792 50.8459 177.792 51.2411 177.792 51.6289C177.875 53.7826 178.125 55.9268 178.539 58.0421C178.569 56.7073 178.584 55.3799 178.591 54.0525Z" fill="#6905F5"/>
<path d="M280.87 65.1113C280.802 65.7451 280.69 66.6996 280.503 67.9301C279.949 71.5374 279.084 75.0903 277.917 78.5492C277.723 79.1085 277.521 79.6827 277.319 80.2793C277.118 80.8759 276.856 81.4575 276.617 82.069C276.153 83.3069 275.555 84.5523 274.958 85.8648C274.666 86.5285 274.307 87.1772 273.956 87.8409C273.605 88.5046 273.246 89.1907 272.865 89.8693C272.484 90.5479 272.035 91.2191 271.617 91.9126L270.966 92.9641L270.219 93.9932L268.724 96.0961L267.05 98.1618L266.198 99.2132C265.899 99.5637 265.57 99.8844 265.256 100.227L263.32 102.293C260.436 105.119 257.29 107.665 253.925 109.899C250.189 112.316 246.199 114.317 242.026 115.865C237.499 117.527 232.793 118.658 228.004 119.236C225.482 119.545 222.943 119.692 220.403 119.676C217.782 119.635 215.167 119.411 212.577 119.005C207.161 118.189 201.868 116.701 196.821 114.575C191.512 112.332 186.565 109.316 182.142 105.626C181.036 104.664 179.967 103.65 178.868 102.644C177.769 101.637 176.835 100.481 175.804 99.3922C175.288 98.8483 174.804 98.2757 174.354 97.677L172.941 95.9022L171.633 94.0454C171.416 93.7321 171.192 93.4339 170.983 93.1132L170.385 92.1438C168.732 89.547 167.297 86.8183 166.094 83.9855C164.86 81.1177 163.86 78.155 163.105 75.1263C162.111 71.2928 161.495 67.3715 161.266 63.4185C161.221 65.0889 161.266 66.7593 161.348 68.4148C161.676 70.707 162.128 72.9798 162.701 75.2233C163.473 78.2828 164.49 81.2754 165.743 84.172C166.96 87.0175 168.405 89.7607 170.063 92.3749L170.676 93.3518C170.885 93.6725 171.11 93.9782 171.326 94.2914L172.649 96.1632L174.062 97.9455C174.54 98.5346 174.996 99.1387 175.557 99.6756C176.596 100.764 177.575 101.913 178.644 102.949C179.713 103.986 180.834 104.97 181.947 105.932C186.405 109.627 191.388 112.643 196.732 114.881C201.809 117.024 207.134 118.527 212.585 119.355C215.192 119.756 217.824 119.977 220.462 120.019C223.016 120.03 225.567 119.878 228.101 119.564C232.917 118.976 237.648 117.83 242.198 116.149C246.392 114.59 250.402 112.577 254.157 110.146C257.535 107.894 260.69 105.327 263.582 102.48L265.517 100.399C265.831 100.056 266.16 99.7278 266.459 99.3773C266.758 99.0268 267.035 98.6688 267.319 98.3184L268.993 96.2378L270.488 94.1199L271.235 93.0908L271.878 92.0319L273.126 89.9812C273.508 89.2951 273.874 88.6016 274.21 87.9379C274.546 87.2742 274.958 86.6179 275.212 85.9542C275.81 84.6343 276.4 83.3815 276.856 82.1361C277.095 81.5246 277.342 80.9281 277.559 80.3389C277.775 79.7498 277.955 79.1607 278.142 78.594C279.3 75.1269 280.143 71.5629 280.66 67.945C280.825 66.7817 280.922 65.8868 280.974 65.2529V64.8428C280.892 64.9248 280.885 65.0069 280.87 65.1113Z" fill="#6905F5"/>
<path d="M161.281 57.5869C161.281 57.1171 161.333 56.6473 161.37 56.185C162.283 43.5365 167.139 31.4897 175.258 21.7325C179.128 17.149 183.699 13.2029 188.801 10.0396C193.693 7.02785 198.974 4.69467 204.497 3.10432C209.765 1.57097 215.197 0.672192 220.679 0.427171C225.845 0.285323 231.003 0.908569 235.986 2.27657C244.963 4.71145 253.27 9.14245 260.285 15.2373C263.38 17.8399 266.166 20.7873 268.589 24.0219C269.807 25.5133 270.764 27.0943 271.781 28.5857C272.259 29.3314 272.678 30.1294 273.118 30.8826L273.761 32.0086C273.971 32.3815 274.142 32.7543 274.337 33.1421C274.703 33.8878 275.084 34.6335 275.428 35.3793C275.772 36.125 276.056 36.8707 276.362 37.6164C276.512 37.9843 276.661 38.3423 276.811 38.6903C276.96 39.0383 277.087 39.3962 277.192 39.7641C277.446 40.5099 277.685 41.1736 277.939 41.8522C278.74 44.3615 279.389 46.9164 279.883 49.5033C280.581 53.085 280.966 56.7204 281.034 60.3685C281.034 61.6213 281.034 62.6057 281.034 63.2172C281.034 63.3887 281.034 63.5378 281.034 63.6646C281.034 63.7914 281.034 63.8958 281.034 64.0076C281.071 63.5826 281.153 62.3596 281.138 60.3685C281.107 56.7124 280.749 53.0663 280.07 49.4735C279.58 46.878 278.938 44.3133 278.149 41.7925C277.91 41.1064 277.663 40.4129 277.401 39.697L277.02 38.6157L276.572 37.5419C276.273 36.7962 275.966 36.0504 275.652 35.3047L274.554 33.0675C274.367 32.6947 274.195 32.3218 273.986 31.9266L273.343 30.7931C272.902 30.0473 272.483 29.2494 272.005 28.4813C270.996 26.9899 270.032 25.3791 268.821 23.8877C266.391 20.6361 263.597 17.6714 260.494 15.0508C253.452 8.88392 245.097 4.39357 236.061 1.91862C231.052 0.525496 225.862 -0.115404 220.664 0.0170207C215.16 0.271251 209.706 1.1749 204.415 2.70909C198.848 4.30808 193.525 6.65368 188.592 9.68161C183.45 12.863 178.844 16.8344 174.944 21.4491C166.769 31.2683 161.879 43.3937 160.959 56.1253C160.746 58.5555 160.709 60.9979 160.847 63.4334C160.892 61.8674 160.989 60.2939 161.146 58.7279C161.183 58.355 161.243 57.9747 161.281 57.5869Z" fill="#6905F5"/>
<path d="M280.197 74.3506C279.995 75.5885 279.726 77.1247 279.33 78.9219C278.884 80.9944 278.307 83.0368 277.603 85.0369C275.649 90.5173 272.85 95.66 269.307 100.279C267.126 103.186 264.732 105.928 262.146 108.482C260.764 109.825 259.306 111.167 257.729 112.45C256.982 113.106 256.085 113.65 255.233 114.262L253.925 115.142L252.579 116.014C244.594 120.885 235.591 123.853 226.27 124.687C223.724 124.929 221.164 124.999 218.609 124.896C215.972 124.778 213.345 124.49 210.746 124.031C208.066 123.569 205.421 122.924 202.83 122.099C202.173 121.913 201.515 121.689 200.865 121.443C200.214 121.197 199.557 120.988 198.906 120.735C197.621 120.19 196.305 119.691 195.042 119.049C192.454 117.828 189.957 116.425 187.568 114.851L185.796 113.583C185.213 113.151 184.593 112.763 184.04 112.278C182.926 111.339 181.73 110.466 180.684 109.422C176.224 105.356 172.44 100.608 169.473 95.3577C167.926 92.6735 166.596 89.8707 165.496 86.9757C164.345 84.0536 163.423 81.0468 162.738 77.9823C162.038 74.865 161.579 71.6989 161.363 68.5116C161.124 66.8561 160.952 65.1931 160.862 63.5227C160.817 65.208 160.862 66.8934 160.944 68.5713C161.165 71.7786 161.63 74.9646 162.335 78.1016C163.013 81.1953 163.93 84.232 165.078 87.1845C166.19 90.0987 167.529 92.9213 169.084 95.6261C172.088 100.916 175.912 105.698 180.415 109.795C181.476 110.839 182.657 111.719 183.801 112.666C184.354 113.151 184.974 113.546 185.565 113.978L187.351 115.246C189.759 116.806 192.274 118.194 194.878 119.4C196.148 120.041 197.471 120.541 198.764 121.085C199.422 121.346 200.087 121.562 200.738 121.831C201.388 122.099 202.053 122.293 202.718 122.487C205.327 123.311 207.989 123.957 210.686 124.419C213.3 124.877 215.942 125.166 218.594 125.284C221.164 125.378 223.739 125.304 226.3 125.06C235.682 124.2 244.738 121.186 252.759 116.253L254.119 115.418L255.42 114.508C256.264 113.896 257.146 113.337 257.931 112.673C259.508 111.376 260.973 110.026 262.356 108.676C264.943 106.123 267.336 103.381 269.516 100.473C273.056 95.8281 275.843 90.6569 277.775 85.1487C278.476 83.1425 279.043 81.0923 279.472 79.0114C279.853 77.2068 280.115 75.6706 280.301 74.4177C280.488 73.1649 280.593 72.2179 280.66 71.5765C280.727 70.9352 280.742 70.5996 280.742 70.5996C280.742 70.5996 280.698 70.9277 280.623 71.5691C280.548 72.2104 280.391 73.1053 280.197 74.3506Z" fill="#6905F5"/>
<path d="M280.975 64.1497C280.975 64.1497 280.975 64.53 280.9 65.2535C280.9 65.768 280.9 66.2603 280.9 66.7003C280.9 67.9607 280.825 68.9377 280.78 69.5641C280.735 70.1906 280.728 70.5411 280.728 70.5411C280.728 70.5411 280.9 69.2285 280.982 66.7077C280.982 65.9172 281.019 64.9924 280.982 63.9707C280.982 64.0751 280.975 64.1497 280.975 64.1497Z" fill="#6905F5"/>
<path d="M280.899 65.2527C280.959 64.5069 280.974 64.1489 280.974 64.1489C280.974 64.1489 280.974 64.3876 280.899 64.8425V65.2527Z" fill="#6905F5"/>
<path d="M161.243 63.4481C161.135 61.4958 161.135 59.539 161.243 57.5867C161.198 57.9744 161.146 58.3324 161.109 58.75C160.952 60.316 160.854 61.8895 160.81 63.4555C160.899 65.126 161.071 66.7889 161.31 68.4444C161.243 66.7964 161.243 65.1185 161.243 63.4481Z" fill="#6905F5"/>
<path d="M195.169 46.4838C195.155 45.7913 195.356 45.1115 195.745 44.5375C196.144 43.9613 196.692 43.5029 197.329 43.2101C198.053 42.8774 198.842 42.7117 199.639 42.7254C200.412 42.7124 201.177 42.8703 201.881 43.1877C202.495 43.466 203.015 43.9169 203.376 44.4853C203.73 45.0855 203.909 45.7726 203.892 46.4689H201.246C201.254 46.278 201.218 46.0877 201.14 45.913C201.062 45.7384 200.945 45.5841 200.798 45.4622C200.456 45.1991 200.032 45.0668 199.602 45.0893C199.145 45.0653 198.693 45.1853 198.309 45.4324C198.174 45.5361 198.062 45.6661 197.979 45.8143C197.897 45.9626 197.845 46.126 197.828 46.2948C197.81 46.4635 197.827 46.634 197.878 46.796C197.928 46.958 198.011 47.108 198.122 47.237C198.383 47.4696 198.709 47.6178 199.056 47.6621L200.88 48.0424C201.785 48.1678 202.63 48.5658 203.301 49.1834C203.849 49.7965 204.131 50.6007 204.086 51.4205C204.105 52.144 203.905 52.8562 203.511 53.4638C203.123 54.0771 202.565 54.5643 201.904 54.8658C201.132 55.1969 200.299 55.3596 199.46 55.3431C198.655 55.3516 197.857 55.1889 197.12 54.8658C196.476 54.5977 195.929 54.14 195.553 53.5537C195.176 52.9674 194.988 52.2805 195.012 51.5846H197.658C197.648 51.7799 197.686 51.9747 197.77 52.1516C197.853 52.3286 197.979 52.4822 198.137 52.5988C198.537 52.8683 199.015 52.9969 199.497 52.9642C199.998 52.9902 200.495 52.8738 200.932 52.6286C201.093 52.5377 201.227 52.4053 201.319 52.2452C201.411 52.0852 201.458 51.9033 201.455 51.7188C201.475 51.4326 201.384 51.1496 201.201 50.9284C200.96 50.7097 200.657 50.5715 200.334 50.5331L198.481 50.1603C197.538 50.0217 196.666 49.5791 195.999 48.9C195.423 48.23 195.126 47.3654 195.169 46.4838Z" fill="#9F62F5" stroke="#6905F5" stroke-width="0.149501"/>
<path d="M210.873 55.0967H208.204L208.249 45.5216L204.721 45.4545V42.9563H214.311V45.4172L210.806 45.5141L210.873 55.0967Z" fill="#9F62F5" stroke="#6905F5" stroke-width="0.149501"/>
<path d="M216.508 55.0973H213.735L218.048 42.9346H220.649L224.976 55.075H222.144L221.292 52.5171H217.36L216.508 55.0973ZM219.027 47.7147L218.152 50.3098H220.559L219.685 47.7147C219.617 47.5059 219.55 47.2971 219.49 47.0733C219.433 46.8977 219.388 46.7183 219.356 46.5364C219.327 46.7159 219.285 46.8929 219.229 47.0659C219.169 47.2946 219.102 47.5108 219.027 47.7147Z" fill="#9F62F5" stroke="#6905F5" stroke-width="0.149501"/>
<path d="M229.073 55.0969H226.412V42.9342H231.113C232.344 42.8552 233.561 43.2205 234.544 43.9633C234.953 44.3249 235.274 44.7748 235.482 45.2788C235.691 45.7827 235.781 46.3275 235.747 46.8716C235.769 47.5816 235.593 48.2836 235.239 48.9C234.878 49.4833 234.36 49.9536 233.744 50.2572L235.882 55.082H232.967L231.143 50.8314H229.088L229.073 55.0969ZM229.073 45.3205V48.5196H231.098C231.586 48.5501 232.069 48.3987 232.451 48.0946C232.617 47.9437 232.747 47.7575 232.831 47.5496C232.916 47.3417 232.952 47.1176 232.937 46.894C232.949 46.6763 232.913 46.4587 232.832 46.2564C232.75 46.0542 232.626 45.8721 232.466 45.7232C232.079 45.4296 231.598 45.2865 231.113 45.3205H229.073Z" fill="#9F62F5" stroke="#6905F5" stroke-width="0.149501"/>
<path d="M236.622 42.9346H246.189V45.3955L242.811 45.4924L242.736 55.075H240.075L240.187 45.47L236.607 45.3955L236.622 42.9346Z" fill="#9F62F5" stroke="#6905F5" stroke-width="0.149501"/>
<path d="M216.324 141.215C216.664 141.9 217.233 142.445 217.931 142.758C219.885 143.99 221.48 145.54 224.672 148.648C225.088 149.054 225.419 149.388 225.611 149.587C226.277 151.786 226.75 153.563 227.056 154.781C227.347 156.172 227.832 157.515 228.497 158.771C228.859 159.469 229.322 160.11 229.871 160.673C230.446 161.189 231.059 161.661 231.705 162.085C232.765 162.86 232.977 162.987 233.586 163.445C233.883 163.661 234.482 164.115 235.429 164.903C237.375 166.51 239.737 168.642 240.529 169.356C243.014 171.598 245 173.259 246.088 174.172C248.095 175.854 249.82 177.227 251.058 178.191C252.845 179.596 254.18 180.608 256.21 182.106C257.569 183.129 258.513 183.824 260.34 185.163C262.166 186.503 263.94 187.812 266.149 189.395C268.167 190.857 269.253 191.633 270.266 192.34C275.503 195.919 281.051 199.024 286.842 201.619C288.121 202.189 289.162 202.647 289.865 202.922C290.525 203.453 291.489 204.24 292.743 205.127C293.208 205.469 293.586 205.75 294.729 206.563C298.351 209.13 298.785 209.388 299.925 210.271C300.16 210.454 301.188 211.264 302.483 212.385C304.18 213.812 305.764 215.367 307.223 217.037C308.311 218.294 308.208 218.354 309.093 219.289C310.107 220.434 311.285 221.422 312.59 222.222C313.955 222.968 315.438 223.474 316.976 223.719C318.946 224.135 320.96 224.31 322.974 224.243C325.462 224.121 327.928 223.719 330.327 223.046C332.935 222.453 335.505 221.703 338.022 220.799C341.378 219.585 343.684 218.391 348.295 216.004C349.439 215.434 350.52 214.746 351.521 213.953C352.565 213.085 353.516 212.112 354.358 211.049C355.582 209.487 356.59 207.767 357.353 205.936C358.079 204.482 358.597 202.934 358.891 201.336C359.076 200.167 359.129 198.981 359.051 197.8C359.026 196.489 358.772 195.193 358.299 193.972C357.946 193.126 357.486 192.33 356.93 191.601C356.277 190.721 355.547 189.901 354.747 189.151C353.64 187.93 352.597 186.652 351.623 185.323C348.261 180.995 345.407 176.486 344.687 175.343C343.38 173.274 341.798 170.639 340.094 167.507L339.799 165.576C339.411 162.916 339.343 162.231 339.108 160.912C338.9 159.714 338.714 158.883 338.445 157.67C337.987 155.652 337.586 154.179 337.146 152.564C336.743 151.075 336.074 148.645 335.059 145.468C334.312 143.127 334.316 143.314 333.514 140.789C332.817 138.785 332.237 136.742 331.777 134.671C331.547 133.495 331.494 132.879 331.036 130.397C330.785 129.095 330.656 128.438 330.494 127.799C330.097 126.277 329.556 124.796 328.88 123.375C327.777 121.084 326.539 118.86 325.173 116.715C322.839 112.896 322.69 112.982 321.443 110.688C320.76 109.429 320.044 108.189 319.367 106.927C318.805 105.815 318.144 104.756 317.393 103.762C316.99 103.252 316.562 102.763 316.108 102.299C315.405 101.509 314.573 100.845 313.646 100.336C312.924 99.9762 312.148 99.7378 311.348 99.6306C310.195 99.3496 308.988 99.3622 307.839 99.6672C307.105 99.8557 306.425 100.213 305.853 100.711C305.32 101.316 304.823 101.952 304.362 102.613L303.45 103.829L302.828 104.636C302.279 102.817 301.742 101.259 301.247 100.029C300.483 98.0765 299.778 96.5718 299.433 95.824C299.324 95.6367 298.948 94.8207 298.157 93.2109C297.745 92.257 297.271 91.3311 296.738 90.4394C296.067 89.4079 295.182 88.5328 294.143 87.8732C293.039 87.201 291.792 86.7973 290.502 86.6945C289.286 86.5117 288.045 86.5794 286.854 86.8934C285.664 87.2073 284.551 87.7609 283.582 88.5202C281.936 89.8522 280.877 91.7743 280.631 93.8744C280.596 94.4114 280.61 95.6607 280.643 96.6147C280.676 97.5687 280.717 98.1479 280.754 98.6169C277.93 93.0228 276.689 90.304 276.167 88.952C275.972 88.4386 275.723 87.9474 275.424 87.4863C274.753 86.4513 273.864 85.5747 272.819 84.9174C271.383 83.9639 269.714 83.4186 267.99 83.3398C263.59 83.1934 260.687 86.4457 260.077 87.1246C258.965 88.3932 258.137 89.8843 257.648 91.4978C257.317 92.4458 257.166 93.447 257.204 94.4497C257.303 95.5276 257.554 96.5858 257.948 97.5932C258.359 98.8284 258.438 98.8002 258.81 99.8773C259.411 101.622 259.325 102.086 260.125 105.145C260.323 105.892 260.449 106.319 260.591 106.745C260.985 107.882 261.504 108.971 262.139 109.993C262.533 110.874 263.136 111.646 263.895 112.243C264.169 112.453 264.461 112.639 264.768 112.798C265.402 113.807 265.896 114.898 266.235 116.041C266.301 116.511 266.447 116.965 266.666 117.386C266.88 117.704 267.044 118.054 267.152 118.422C267.185 118.547 267.209 118.674 267.224 118.802C266.56 119.044 265.851 119.133 265.148 119.063C264.749 119.019 264.357 118.927 263.981 118.789C263.457 117.972 262.641 116.678 261.665 115.063C260.544 113.196 260.364 112.809 258.865 110.213C258.511 109.599 257.709 108.211 256.054 105.464C255.025 103.681 254.53 102.899 253.941 101.715C253.595 101.011 253.444 100.659 253.03 99.8819C253.03 99.8819 252.255 98.4349 251.365 97.0885C250.336 95.6515 249.204 94.2905 247.979 93.0163C246.233 90.8887 244.61 88.6628 243.12 86.3496C242.855 85.891 241.833 84.4491 240.588 82.4726C238.83 79.6816 237.563 77.4423 237.039 76.5049C235.547 73.9216 234.817 72.5521 234.127 71.1168C233.557 69.849 232.885 68.63 232.117 67.472C231.542 66.5858 230.87 65.7668 230.112 65.0304C229.226 64.0222 228.089 63.2649 226.816 62.8345C225.363 62.4738 223.829 62.6263 222.474 63.2662C220.692 64.1389 219.316 65.6647 218.632 67.5249C217.683 69.9327 218.205 72.077 218.833 74.7195C219.357 76.8971 220.257 78.8145 222.025 82.5642C222.763 84.1271 223.504 85.6196 224.539 87.6222C226.413 91.2418 227.454 93.0437 229.536 96.8444C230.496 98.5976 232.425 102.134 234.625 106.332C237.073 111.006 237.03 111.126 239.422 115.686C240.942 118.589 240.937 118.506 244.123 124.502C247.681 131.188 248.191 132.236 248.77 133.538C250.108 136.512 251.002 138.898 251.859 141.339C253.536 145.933 253.295 145.995 254.47 149.226C254.902 150.379 255.233 151.568 255.46 152.779C255.606 153.556 255.669 154.157 255.707 154.582C253.672 153.449 252.11 152.492 251.053 151.827C249.922 151.12 248.755 150.472 247.558 149.884C246.888 149.546 246.186 149.276 245.462 149.08C244.882 148.925 244.29 148.821 243.693 148.766C243.532 148.197 243.327 147.642 243.079 147.105C242.717 146.299 241.681 144.236 238.439 141.535C236.006 139.51 233.262 137.887 230.313 136.729C227.339 135.553 225.505 134.829 222.964 135.091C222.389 135.156 218.209 135.675 216.689 138.559C216.449 138.953 216.293 139.392 216.23 139.849C216.168 140.306 216.2 140.771 216.324 141.215Z" fill="#D2B5FB"/>
<path d="M285.673 200.967C282.909 199.678 280.039 198.115 277.071 196.384C271.104 192.984 265.083 188.4 258.686 183.749C252.642 179.391 246.825 174.729 241.257 169.779C238.886 167.542 236.399 165.431 233.807 163.454C233.176 162.958 232.579 162.553 231.972 162.129C231.371 161.744 230.797 161.319 230.253 160.856C229.287 159.923 228.543 158.783 228.078 157.522C227.182 155.103 226.631 152.804 226.072 150.819L225.923 150.276C225.834 150.121 225.702 149.982 225.582 149.836L225.848 150.879C226.388 152.875 226.915 155.163 227.804 157.629C228.273 158.936 229.033 160.12 230.026 161.091C230.58 161.568 231.168 162.006 231.784 162.401C232.385 162.829 232.99 163.263 233.596 163.731C236.17 165.712 238.64 167.824 240.995 170.059C246.563 175.036 252.386 179.722 258.439 184.098C264.847 188.769 270.891 193.348 276.902 196.748C279.876 198.476 282.759 200.032 285.572 201.301C287.138 202.025 288.657 202.654 290.137 203.229L289.287 202.549C288.086 202.054 286.891 201.538 285.673 200.967Z" fill="#6905F5"/>
<path d="M224.123 147.862C224.03 147.929 223.93 147.986 223.826 148.034L223.939 148.14C224.464 148.584 224.953 149.067 225.403 149.585C225.459 149.682 225.515 149.779 225.61 149.854L225.444 149.192C225.031 148.723 224.59 148.279 224.123 147.862Z" fill="#6905F5"/>
<path d="M216.722 139.124C216.753 139.038 216.788 138.955 216.828 138.873C217.519 137.08 219.366 136.108 221.263 135.598C223.159 135.155 225.135 135.199 227.007 135.726C228.768 136.202 230.471 136.867 232.088 137.709C233.572 138.434 235.008 139.253 236.387 140.162C237.581 140.965 238.704 141.87 239.743 142.865C241.297 144.256 242.521 145.977 243.324 147.902C243.434 148.183 243.529 148.438 243.61 148.667L243.751 148.671C243.676 148.422 243.586 148.147 243.471 147.843C242.719 145.86 241.51 144.083 239.941 142.656C238.915 141.627 237.798 140.693 236.603 139.864C235.218 138.937 233.774 138.099 232.281 137.357C230.644 136.491 228.916 135.808 227.127 135.321C225.19 134.767 223.142 134.72 221.178 135.182C220.184 135.43 219.237 135.84 218.375 136.396C217.942 136.669 217.556 137.01 217.233 137.408C216.927 137.808 216.672 138.245 216.474 138.708C216.322 139.045 216.21 139.398 216.141 139.761C216.307 139.524 216.502 139.31 216.722 139.124Z" fill="#6905F5"/>
<path d="M218.685 143.062C218.513 142.929 218.342 142.796 218.143 142.661C217.944 142.526 217.761 142.433 217.583 142.304C217.227 142.066 216.927 141.755 216.702 141.391C216.55 141.085 216.465 140.751 216.453 140.409C216.44 140.068 216.5 139.727 216.629 139.41C216.429 139.575 216.246 139.759 216.082 139.958C216.076 140.022 216.056 140.077 216.049 140.141C215.988 140.648 216.094 141.162 216.35 141.603C216.601 142.016 216.942 142.367 217.348 142.629C217.53 142.765 217.744 142.882 217.918 142.989C218.091 143.095 218.271 143.241 218.436 143.378C219.802 144.458 221.046 145.566 222.211 146.598C222.639 146.98 223.035 147.337 223.434 147.7C223.541 147.647 223.645 147.587 223.745 147.521C223.314 147.132 222.885 146.734 222.429 146.317C221.3 145.29 220.066 144.168 218.685 143.062Z" fill="#6905F5"/>
<path d="M225.719 149.533L225.611 149.346C225.566 149.268 225.482 149.213 225.425 149.143L225.591 149.805C225.684 149.966 225.829 150.098 225.932 150.245L225.719 149.533Z" fill="#6905F5"/>
<path d="M244.59 149.048C246.262 149.475 247.858 150.157 249.321 151.07C251.025 152.032 252.915 153.094 254.839 154.273C255.148 154.465 255.442 154.675 255.732 154.878C255.707 154.685 255.679 154.503 255.648 154.314C255.449 154.179 255.261 154.047 255.059 153.922C253.111 152.731 251.232 151.689 249.506 150.731C248 149.814 246.356 149.146 244.636 148.755C244.329 148.717 244.036 148.688 243.735 148.689C243.787 148.78 243.793 148.88 243.819 148.968C244.077 148.979 244.335 149.006 244.59 149.048Z" fill="#6905F5"/>
<path d="M240.164 149.305C240.056 149.346 239.956 149.404 239.866 149.476C239.884 149.509 240.317 149.345 241.123 149.173C241.969 148.99 242.835 148.921 243.698 148.969C243.653 148.891 243.641 148.795 243.602 148.697C242.752 148.683 241.904 148.79 241.084 149.014C240.772 149.094 240.465 149.191 240.164 149.305Z" fill="#6905F5"/>
<path d="M243.71 148.944L243.838 148.957C243.793 148.879 243.787 148.779 243.755 148.678L243.614 148.673C243.653 148.771 243.678 148.859 243.71 148.944Z" fill="#6905F5"/>
<path d="M254.736 149.596C254.141 147.684 253.523 145.656 252.816 143.55C251.291 138.935 249.468 134.425 247.359 130.047C246.127 127.718 244.774 125.391 243.471 122.923C242.167 120.455 240.829 117.93 239.477 115.318C236.795 110.09 234.035 104.562 230.903 98.9731C227.771 93.3844 224.57 87.5861 221.701 81.4499C220.314 78.3756 218.947 75.29 218.427 72.0425C218.163 70.4492 218.37 68.8127 219.022 67.3332C219.587 65.8514 220.624 64.5957 221.974 63.7605C223.338 63.0125 224.916 62.7546 226.446 63.03C227.983 63.2706 229.148 64.3462 230.177 65.4567C231.191 66.5693 232.09 67.7811 232.861 69.0738C233.639 70.3467 234.158 71.7691 234.878 73.0757C236.285 75.7076 237.786 78.1131 239.216 80.4996C240.646 82.886 242.119 85.1695 243.586 87.3365C245.053 89.5034 246.533 91.5592 248.081 93.4471C248.84 94.4036 249.683 95.2514 250.396 96.1573C251.104 97.0404 251.75 97.9703 252.331 98.9408C252.883 99.8967 253.372 100.863 253.833 101.811C254.294 102.759 254.881 103.626 255.38 104.491C256.383 106.228 257.331 107.869 258.214 109.399C260.027 112.434 261.503 115.095 262.858 117.189C263.142 117.68 263.452 118.112 263.725 118.54L263.93 118.611C263.654 118.133 263.355 117.617 262.997 117.1C261.678 114.994 260.234 112.315 258.415 109.283C257.53 107.751 256.588 106.119 255.589 104.388C255.089 103.523 254.574 102.632 254.045 101.714C253.515 100.797 253.117 99.7788 252.545 98.8175C251.964 97.8297 251.314 96.8841 250.601 95.9878C249.876 95.0625 249.04 94.211 248.288 93.2674C246.761 91.3849 245.297 89.3281 243.834 87.1676C242.371 85.0071 240.924 82.7253 239.491 80.3324C238.057 77.9395 236.554 75.5006 235.203 72.9055C234.457 71.6139 233.992 70.2115 233.192 68.8998C232.413 67.5745 231.497 66.3341 230.46 65.1988C229.941 64.6113 229.362 64.0797 228.733 63.6127C228.079 63.1273 227.322 62.7983 226.52 62.6511C224.902 62.359 223.231 62.6307 221.787 63.4209C220.357 64.2968 219.258 65.6219 218.662 67.188C217.98 68.7305 217.766 70.4381 218.046 72.0992C218.57 75.43 219.955 78.5312 221.353 81.6249C224.227 87.7841 227.417 93.6233 230.577 99.1702C233.736 104.717 236.441 110.285 239.146 115.508C240.499 118.12 241.84 120.652 243.157 123.113C244.474 125.573 245.838 127.92 247.057 130.212C249.17 134.572 251.002 139.062 252.541 143.657C253.254 145.759 253.886 147.78 254.487 149.689C254.984 151.206 255.374 152.756 255.655 154.327L255.917 154.512C255.65 152.845 255.255 151.202 254.736 149.596Z" fill="#6905F5"/>
<path d="M266.778 123.245C266.61 122.954 266.36 122.521 266.032 121.953C265.603 121.21 264.985 120.258 264.26 119.092L264.072 119.037C264.85 120.25 265.478 121.248 265.961 121.994C266.322 122.544 266.591 122.965 266.778 123.245Z" fill="#6905F5"/>
<path d="M256.542 160.033C256.849 161.382 257.244 162.711 257.724 164.009C258.393 165.804 259.243 167.526 260.26 169.149C260.606 169.718 260.981 170.269 261.385 170.798C261.385 170.798 261.299 170.65 261.132 170.359C260.964 170.069 260.679 169.665 260.341 169.094C259.361 167.458 258.541 165.731 257.89 163.938C257.425 162.643 257.042 161.32 256.743 159.977C256.395 158.507 256.245 156.872 256.017 155.117C256.007 155.095 255.995 155.073 255.98 155.053L255.715 154.878L255.765 155.16C255.939 156.796 256.199 158.423 256.542 160.033Z" fill="#6905F5"/>
<path d="M255.996 155.052C255.975 154.866 255.937 154.681 255.91 154.499L255.648 154.314C255.679 154.503 255.706 154.685 255.731 154.878L255.996 155.052Z" fill="#6905F5"/>
<path d="M262.493 107.377C262.011 106.303 261.607 105.305 261.308 104.487C260.69 102.82 260.38 101.759 260.321 101.776C260.326 102.042 260.373 102.306 260.461 102.557C260.574 103.051 260.769 103.748 261.043 104.597C261.318 105.446 261.679 106.46 262.148 107.542C262.616 108.623 263.198 109.794 263.779 111.026L264.509 112.559C264.733 112.722 264.953 112.879 265.18 113.033C264.853 112.337 264.512 111.613 264.158 110.859C263.568 109.598 262.984 108.437 262.493 107.377Z" fill="#6905F5"/>
<path d="M267.31 118.381C267.193 117.989 267.032 117.611 266.832 117.254C266.739 117.051 266.674 116.837 266.637 116.617C266.577 116.368 266.504 116.123 266.419 115.882C266.236 115.385 266.04 114.852 265.785 114.319C265.606 114.009 265.463 113.644 265.31 113.319C265.106 113.204 264.901 113.073 264.692 112.935C264.948 113.468 265.192 113.981 265.432 114.471C265.672 114.961 265.899 115.519 266.092 116.002C266.188 116.236 266.271 116.476 266.341 116.719C266.391 116.968 266.477 117.208 266.598 117.432C266.803 117.766 266.976 118.119 267.112 118.487C267.133 118.557 267.148 118.629 267.158 118.701L267.365 118.642C267.354 118.554 267.335 118.466 267.31 118.381Z" fill="#6905F5"/>
<path d="M267.01 120.044C267.01 120.044 267.225 119.834 267.335 119.322C267.364 119.182 267.377 119.039 267.374 118.895C267.317 118.936 267.256 118.972 267.192 119C267.198 119.109 267.198 119.219 267.192 119.328C267.131 119.776 266.976 120.029 267.01 120.044Z" fill="#6905F5"/>
<path d="M282.177 101.618C282.21 101.676 282.248 101.74 282.281 101.799C282.635 102.555 282.91 103.346 283.1 104.159C283.292 104.909 283.483 105.66 283.694 106.339C284.052 107.494 284.505 108.618 285.047 109.699C285.394 110.38 285.776 111.042 286.192 111.682C286.323 111.908 286.423 112.082 286.525 112.17C286.628 112.257 286.626 112.344 286.626 112.344C286.603 112.281 286.569 112.222 286.525 112.17C286.458 112.053 286.361 111.886 286.231 111.659C285.97 111.207 285.586 110.542 285.19 109.677C284.682 108.589 284.257 107.464 283.92 106.312C283.723 105.642 283.543 104.911 283.353 104.133C283.17 103.301 282.899 102.49 282.544 101.716C282.343 101.367 282.17 100.993 281.98 100.62L282.01 100.672C282.031 100.961 282.097 101.285 282.177 101.618Z" fill="#6905F5"/>
<path d="M281.378 99.4269C281.237 99.1815 281.095 98.936 280.999 98.6644C281.043 99.0262 281.1 99.3637 281.159 99.6911C281.219 100.019 281.409 100.124 281.532 100.337C281.451 100.031 281.435 99.7043 281.378 99.4269Z" fill="#6905F5"/>
<path d="M263.505 111.701C262.986 111.155 262.556 110.532 262.231 109.853C261.815 109.128 261.45 108.375 261.137 107.6C260.465 105.794 259.943 103.935 259.577 102.043C259.336 101.028 259.056 99.9752 258.696 98.9175C258.336 97.8598 257.856 96.8193 257.569 95.7103C257.357 94.5445 257.398 93.3461 257.69 92.1965C257.957 90.9922 258.415 89.838 259.047 88.7778C260.485 86.599 262.584 84.9373 265.036 84.0372C266.266 83.5861 267.587 83.4379 268.886 83.6054C270.145 83.7956 271.352 84.242 272.431 84.917C273.5 85.517 274.416 86.3557 275.106 87.3679C275.699 88.4013 276.23 89.4696 276.694 90.567C278.073 93.6285 279.46 96.4187 280.748 98.9041C280.692 98.5832 280.649 98.2549 280.609 97.9164C279.467 95.6394 278.255 93.1361 277.049 90.405C276.576 89.2925 276.041 88.2069 275.448 87.1532C274.721 86.0911 273.763 85.2078 272.645 84.5697C271.52 83.8588 270.257 83.3935 268.939 83.2044C267.571 83.0179 266.178 83.1717 264.882 83.6521C262.34 84.5862 260.166 86.3128 258.681 88.5761C258.027 89.6775 257.554 90.8754 257.277 92.1247C256.978 93.3221 256.938 94.5692 257.162 95.7819C257.469 96.9566 257.984 97.9681 258.317 99.0241C258.651 100.08 258.962 101.097 259.229 102.097C259.61 104.001 260.151 105.869 260.847 107.681C261.173 108.467 261.555 109.228 261.989 109.958C262.191 110.307 262.385 110.643 262.575 110.972C262.787 111.278 263.029 111.563 263.298 111.821C263.716 112.213 264.167 112.569 264.646 112.885L264.433 112.517C264.108 112.264 263.798 111.991 263.505 111.701Z" fill="#6905F5"/>
<path d="M265.165 113.006C264.946 112.866 264.725 112.709 264.494 112.532L264.706 112.901C264.916 113.038 265.121 113.169 265.325 113.284L265.165 113.006Z" fill="#6905F5"/>
<path d="M281.616 98.2988C281.54 97.705 281.465 97.3353 281.405 97.3356C281.344 97.3359 281.32 97.7118 281.326 98.3198C281.32 98.6894 281.338 99.059 281.378 99.4264C281.59 99.7945 281.77 100.181 281.96 100.554C281.801 99.6814 281.683 98.8796 281.616 98.2988Z" fill="#6905F5"/>
<path d="M282.177 101.618C282.112 101.311 282.046 100.987 281.986 100.643L281.956 100.592C281.747 100.23 281.534 99.8618 281.374 99.4637C281.404 99.7561 281.446 100.068 281.498 100.382C281.725 100.776 281.947 101.191 282.177 101.618Z" fill="#6905F5"/>
<path d="M305.528 113.228C305.956 114.104 306.521 114.906 307.202 115.603C307.453 115.853 307.718 116.088 307.996 116.307L308.654 116.728C308.827 116.85 309.01 116.957 309.201 117.049C309.048 116.902 308.88 116.771 308.7 116.659C308.535 116.538 308.325 116.384 308.077 116.209C307.812 115.984 307.561 115.744 307.325 115.489C306.677 114.788 306.141 113.991 305.736 113.126C305.227 111.973 304.782 110.792 304.403 109.59C303.91 108.153 303.495 106.523 303.023 104.764L302.772 105.15C303.229 106.78 303.641 108.316 304.121 109.684C304.522 110.891 304.992 112.075 305.528 113.228Z" fill="#6905F5"/>
<path d="M280.815 96.4792C280.66 94.9578 280.828 93.4201 281.308 91.9667C281.966 90.3447 283.151 88.9901 284.672 88.1215C286.34 87.1292 288.279 86.6881 290.21 86.8614C292.28 87.0428 294.221 87.9372 295.702 89.3914C296.397 90.1768 296.969 91.0626 297.4 92.0189C297.867 92.9632 298.321 93.8982 298.77 94.8102C299.661 96.6378 300.476 98.4233 301.148 100.171C301.74 101.71 302.254 103.279 302.688 104.87L302.942 104.474C302.547 103.057 302.098 101.517 301.508 100.032C300.839 98.2741 300.029 96.4683 299.141 94.6305C298.688 93.7121 298.234 92.777 297.767 91.8328C297.326 90.8367 296.73 89.9165 296.003 89.1057C294.45 87.5806 292.414 86.6435 290.243 86.4549C288.231 86.2802 286.213 86.7484 284.482 87.7921C282.891 88.7096 281.659 90.1405 280.99 91.849C280.507 93.3496 280.348 94.9351 280.525 96.5003C280.545 97.0138 280.591 97.4957 280.642 97.9739C280.773 98.2 280.903 98.426 280.983 98.6384C280.889 97.9223 280.833 97.2015 280.815 96.4792Z" fill="#6905F5"/>
<path d="M281.159 99.6911C281.1 99.3637 281.043 99.0261 280.999 98.6644C280.868 98.4383 280.738 98.2123 280.658 97.9998C280.698 98.3384 280.741 98.6668 280.796 98.9878C280.852 99.3087 281.038 99.4511 281.159 99.6911Z" fill="#6905F5"/>
<path d="M304.069 103.212C304.629 102.375 305.267 101.592 305.973 100.873C306.373 100.512 306.845 100.24 307.358 100.073C307.891 99.8726 308.448 99.7421 309.015 99.6848C310.249 99.5815 311.489 99.7465 312.652 100.169C313.892 100.665 315.006 101.431 315.914 102.41C316.929 103.424 317.807 104.568 318.524 105.811C319.27 107.102 319.97 108.464 320.728 109.852C321.486 111.239 322.282 112.648 323.159 114.062C324.036 115.476 324.989 116.829 325.87 118.309C327.758 121.291 329.261 124.5 330.34 127.861C330.81 129.587 330.941 131.398 331.285 133.145C331.581 134.875 331.973 136.586 332.458 138.272C332.964 139.925 333.576 141.493 334.094 143.062C334.611 144.632 335.107 146.163 335.561 147.666C336.45 150.7 337.288 153.558 337.955 156.298C338.58 158.818 339.076 161.368 339.441 163.939C339.556 164.915 339.677 165.843 339.84 166.723L340.245 167.514C340.047 166.379 339.857 165.154 339.73 163.901C339.387 161.316 338.905 158.751 338.288 156.217C337.625 153.484 336.811 150.595 335.89 147.579C335.437 146.067 334.95 144.525 334.429 142.955C333.911 141.385 333.302 139.808 332.807 138.173C332.334 136.503 331.949 134.808 331.654 133.096C331.31 131.365 331.19 129.558 330.703 127.772C329.612 124.376 328.093 121.133 326.183 118.12C325.329 116.641 324.414 115.189 323.455 113.857C322.496 112.525 321.758 111.082 321.003 109.701C320.249 108.32 319.552 106.948 318.78 105.655C318.041 104.388 317.137 103.224 316.092 102.195C315.146 101.189 313.988 100.405 312.703 99.898C311.496 99.4762 310.211 99.3218 308.937 99.4455C308.344 99.5109 307.762 99.6531 307.205 99.8686C306.666 100.059 306.173 100.361 305.758 100.756C305.049 101.493 304.407 102.293 303.841 103.146C303.502 103.634 303.198 104.094 302.919 104.539C302.964 104.616 302.964 104.72 302.989 104.809C303.337 104.246 303.686 103.743 304.069 103.212Z" fill="#6905F5"/>
<path d="M302.757 105.124L303.009 104.737C302.964 104.66 302.958 104.56 302.939 104.467L302.685 104.864L302.757 105.124Z" fill="#6905F5"/>
<path d="M342.787 218.633C344.588 217.915 346.338 217.075 348.024 216.118C348.949 215.584 349.834 214.984 350.672 214.322C350.472 214.438 350.271 214.554 350.064 214.673C348.461 215.708 346.798 216.646 345.082 217.48C341.485 219.283 337.743 220.784 333.897 221.966C330.083 223.166 326.127 223.854 322.134 224.013C320.236 224.058 318.341 223.868 316.491 223.448C314.724 223.043 313.055 222.295 311.578 221.247C310.222 220.174 308.999 218.944 307.934 217.581C306.833 216.288 305.72 215.062 304.57 213.952C302.428 211.911 300.114 210.058 297.653 208.414C294.983 206.614 292.691 204.932 290.776 203.455L290.105 203.205C292.108 204.804 294.567 206.656 297.483 208.658C299.915 210.303 302.203 212.151 304.323 214.181C305.444 215.256 306.532 216.514 307.646 217.8C308.721 219.188 309.96 220.442 311.337 221.532C312.847 222.613 314.558 223.382 316.371 223.793C318.254 224.225 320.185 224.421 322.118 224.375C325.44 224.268 328.738 223.769 331.944 222.887C333.778 222.207 335.66 221.491 337.599 220.724C339.306 220.092 341.042 219.391 342.787 218.633Z" fill="#6905F5"/>
<path d="M289.921 202.794L289.249 202.528L290.099 203.208L290.77 203.458C290.475 203.232 290.169 203.03 289.921 202.794Z" fill="#6905F5"/>
<path d="M341.273 169.968C342.336 171.809 343.526 173.765 344.816 175.836C346.107 177.907 347.551 180.035 349.111 182.243C350.671 184.451 352.343 186.706 354.298 188.97C355.435 190.137 356.477 191.392 357.415 192.724C357.85 193.428 358.18 194.192 358.396 194.991C358.653 195.794 358.816 196.624 358.883 197.465C359.171 200.864 358.124 204.387 356.437 207.549C355.024 210.19 353.06 212.498 350.679 214.317C351.586 213.751 352.45 213.14 353.287 212.527C354.684 211.102 355.864 209.48 356.791 207.714C358.587 204.581 359.449 201.003 359.278 197.401C359.203 196.532 359.033 195.675 358.769 194.845C358.543 194.015 358.198 193.222 357.746 192.49C356.792 191.138 355.731 189.864 354.572 188.682L354.442 188.801C354.673 188.529 354.497 188.717 354.547 188.654L354.502 188.576L354.435 188.46L354.262 188.25L353.913 187.84C353.682 187.56 353.443 187.25 353.231 187.002L351.917 185.324C351.054 184.204 350.242 183.097 349.455 182.001C347.886 179.807 346.451 177.665 345.142 175.622C343.833 173.579 342.62 171.628 341.567 169.79C341.105 168.989 340.661 168.22 340.304 167.437C340.358 167.75 340.413 168.054 340.468 168.349C340.688 168.894 340.969 169.412 341.273 169.968Z" fill="#6905F5"/>
<path d="M340.007 167.566C340.156 167.824 340.273 168.101 340.419 168.369C340.36 168.077 340.305 167.772 340.255 167.457L339.85 166.666C339.905 166.97 339.957 167.284 340.007 167.566Z" fill="#6905F5"/>
<path d="M350.672 214.321C349.834 214.983 348.949 215.583 348.024 216.117C346.338 217.074 344.588 217.915 342.787 218.632C341.035 219.394 339.312 220.087 337.611 220.759C335.672 221.526 333.79 222.242 331.956 222.922C332.655 222.743 333.346 222.55 334.04 222.347C335.684 221.846 337.281 221.278 338.842 220.678C340.006 220.212 341.179 219.733 342.332 219.248C343.32 218.807 344.294 218.356 345.243 217.877C346.97 217.038 348.643 216.092 350.253 215.045C350.505 214.899 350.745 214.761 350.991 214.619C351.791 213.986 352.549 213.301 353.259 212.569C352.443 213.143 351.592 213.747 350.672 214.321Z" fill="#6905F5"/>
<path d="M265.231 119.28C265.898 119.342 266.571 119.248 267.196 119.007C267.187 118.9 267.172 118.794 267.15 118.689C266.548 118.875 265.917 118.947 265.289 118.902C264.842 118.87 264.402 118.777 263.98 118.625C264.085 118.805 264.182 118.973 264.275 119.135C264.587 119.218 264.908 119.266 265.231 119.28Z" fill="#6905F5"/>
<path d="M264.105 119.018L264.292 119.074C264.199 118.912 264.102 118.745 263.997 118.564L263.792 118.492L264.105 119.018Z" fill="#6905F5"/>
<path d="M267.374 118.896C267.369 118.795 267.357 118.696 267.34 118.597L267.132 118.656C267.153 118.762 267.169 118.868 267.177 118.975C267.246 118.955 267.311 118.929 267.374 118.896Z" fill="#6905F5"/>
<path d="M228.854 64.9894C228.78 64.8602 228.702 64.7246 228.572 64.6189C228.46 64.4986 228.334 64.3918 228.198 64.3007C227.501 63.8122 226.699 63.4923 225.857 63.3662C225.014 63.24 224.153 63.3111 223.342 63.5737C222.427 63.8899 221.627 64.4718 221.045 65.2447C220.21 66.3578 219.779 67.7211 219.824 69.1097C219.828 69.4776 219.874 69.8438 219.962 70.201C219.982 70.3297 220.024 70.4538 220.087 70.5678C220.025 70.0842 219.992 69.5974 219.988 69.1097C220 67.784 220.44 66.4967 221.243 65.4398C221.803 64.7328 222.559 64.2064 223.417 63.9269C224.4 63.6166 225.454 63.6083 226.441 63.903C226.972 64.0649 227.475 64.3096 227.929 64.6279C228.36 65.0081 228.714 65.4678 228.97 65.9818C229.578 67.0345 230.287 68.0977 230.834 69.2109C231.11 69.7662 231.289 70.3645 231.364 70.9803C231.487 71.5535 231.439 72.1505 231.224 72.6969C230.769 73.7609 229.629 74.2984 228.701 74.9031C227.872 75.5403 226.854 75.8824 225.81 75.8749C224.917 75.7645 224.084 75.3699 223.434 74.7494C222.805 74.1994 222.293 73.6256 221.829 73.1358C221.426 72.7295 221.053 72.2941 220.714 71.8332C220.447 71.427 220.219 70.9966 220.033 70.5477C220.033 70.5477 220.034 70.6847 220.105 70.9277C220.219 71.2805 220.379 71.6168 220.579 71.9283C220.901 72.4124 221.26 72.87 221.654 73.2968C222.152 73.8812 222.681 74.4382 223.239 74.9652C223.928 75.6441 224.819 76.0812 225.779 76.211C226.322 76.2635 226.87 76.1889 227.38 75.9931C227.9 75.7871 228.401 75.5327 228.874 75.2335C229.366 74.9495 229.865 74.6617 230.352 74.2944C230.882 73.9397 231.305 73.4454 231.573 72.8663C231.824 72.2527 231.885 71.5782 231.749 70.9301C231.669 70.2709 231.477 69.6304 231.182 69.0359C230.593 67.8517 229.896 66.8079 229.281 65.7423C229.193 65.5003 229.033 65.2392 228.854 64.9894Z" fill="#6905F5"/>
<path d="M224.898 147.156C224.848 146.979 224.807 146.804 224.76 146.633C224.522 147.021 224.18 147.335 223.773 147.539L224.092 147.837C224.4 147.661 224.673 147.43 224.898 147.156Z" fill="#6905F5"/>
<path d="M218.088 138.619C218.361 138.532 218.64 138.466 218.923 138.421C218.982 138.388 219.085 138.388 219.093 138.401L219.305 138.485L219.762 138.678C221.209 139.351 222.555 140.223 223.761 141.269C224.446 141.879 224.917 142.694 225.103 143.594C225.334 144.543 225.247 145.543 224.856 146.44L225.01 147.006C225.088 146.889 225.159 146.767 225.223 146.642C225.643 145.691 225.749 144.632 225.526 143.618C225.302 142.604 224.76 141.689 223.979 141.005C222.739 139.946 221.348 139.077 219.851 138.428L219.371 138.24L219.132 138.155C219.035 138.144 218.937 138.151 218.842 138.176C218.55 138.239 218.262 138.319 217.979 138.415C217.527 138.582 217.107 138.825 216.736 139.133L216.698 139.155L216.604 139.442L216.83 139.251C217.214 138.976 217.639 138.762 218.088 138.619Z" fill="#6905F5"/>
<path d="M224.886 146.431C224.848 146.501 224.807 146.568 224.76 146.633C224.807 146.804 224.848 146.979 224.898 147.156L225.043 146.987L224.889 146.421L224.886 146.431Z" fill="#6905F5"/>
<path d="M223.773 147.539C223.673 147.605 223.569 147.665 223.462 147.718L223.802 148.022C223.906 147.974 224.006 147.917 224.1 147.85L223.773 147.539Z" fill="#6905F5"/>
<path d="M216.629 139.41L216.722 139.124C216.504 139.309 216.311 139.522 216.147 139.757L216.11 139.916C216.267 139.732 216.441 139.563 216.629 139.41Z" fill="#6905F5"/>
<defs>
<linearGradient id="paint0_linear_1108_2578" x1="170.334" y1="95.0828" x2="278.266" y2="80.2163" gradientUnits="userSpaceOnUse">
<stop offset="0.389441" stop-color="#9F62F5"/>
<stop offset="1" stop-color="#C097FB"/>
</linearGradient>
<linearGradient id="paint1_linear_1108_2578" x1="183.789" y1="80.4317" x2="262.127" y2="66.6776" gradientUnits="userSpaceOnUse">
<stop offset="0.488806" stop-color="#9F62F5"/>
<stop offset="1" stop-color="#C097FB"/>
</linearGradient>
</defs>
</svg>
