<svg width="40" height="6.316" viewBox="0 0 40 6.316" fill="none" xmlns="http://www.w3.org/2000/svg"><path d="M4.587 4.407c0 -0.667 -0.376 -1.147 -1.06 -1.385 0.547 -0.278 0.863 -0.726 0.863 -1.284C4.39 0.7 3.596 0.126 2.307 0.126H0v6.063h2.4c1.349 0 2.187 -0.66 2.187 -1.782ZM2.204 1.14c0.632 0 0.956 0.27 0.956 0.7 0 0.438 -0.324 0.708 -0.956 0.708H1.18v-1.412h1.025Zm0.093 2.432c0.7 0 1.067 0.304 1.067 0.785 0 0.516 -0.367 0.82 -1.067 0.82H1.18V3.572h1.118ZM10.503 0.126H9.205v3.783c0 0.752 -0.368 1.258 -1.22 1.258 -0.863 0 -1.232 -0.507 -1.232 -1.258V0.126H5.456v3.758c0 1.435 0.905 2.432 2.528 2.432 1.598 0 2.52 -0.996 2.52 -2.432V0.126ZM14.632 3.908 16.82 0.126h-1.307L14.025 2.737 12.565 0.126h-1.402l2.17 3.783V6.189h1.3V3.908Zm8.653 2.28h1.272V0.126h-1.196v4.02L20.686 0.126h-1.4v6.063h1.187V1.958l2.812 4.23Zm5.309 0.126c1.777 0 3.152 -1.35 3.152 -3.166S30.371 0 28.594 0c-1.768 0 -3.135 1.333 -3.135 3.149S26.825 6.316 28.594 6.316Zm0 -1.147c-1.118 0 -1.802 -0.905 -1.802 -2.02 0 -1.115 0.684 -2.002 1.802 -2.002 1.127 0 1.812 0.886 1.812 2.002 0 1.115 -0.684 2.018 -1.812 2.018Zm8.512 1.02h1.315L40 0.126h-1.274l-0.998 4.13L36.634 0.126h-1.324l-1.127 4.113L33.193 0.126h-1.265l1.572 6.063h1.316l1.145 -4.238 1.145 4.238Z" fill="#5933CC"/></svg>