<svg width="535" height="250" viewBox="0 0 535 250" fill="none" xmlns="http://www.w3.org/2000/svg">
<path d="M228.554 239.584L203.225 245.959L234.228 246.225L332.22 246.15L306.529 239.382L228.554 239.584Z" fill="#FED5E3"/>
<path d="M419.511 170.653L115.465 169.94L115.295 190.278C115.295 190.278 115.933 194.652 118.489 196.376C121.044 198.1 121.959 199.749 126.686 199.813C131.414 199.877 407.981 199.813 408.311 199.813C410.716 199.485 412.998 198.551 414.944 197.099C416.476 195.814 417.696 194.198 418.513 192.373C419.33 190.548 419.722 188.562 419.66 186.563C419.575 181.242 419.511 170.653 419.511 170.653Z" fill="#FED5E3"/>
<mask id="mask0_1108_2673" style="mask-type:alpha" maskUnits="userSpaceOnUse" x="126" y="10" width="283" height="151">
<path d="M126.601 10.6103L126.782 149.644L126.804 160.159L145.297 160.095L408.428 160.223L408.396 10.4081L127.187 10.1633L126.601 10.6103Z" fill="white"/>
<path d="M126.601 10.6103L126.782 149.644L126.804 160.159L145.297 160.095L408.428 160.223L408.396 10.4081L127.187 10.1633L126.601 10.6103Z" fill="white"/>
</mask>
<g mask="url(#mask0_1108_2673)">
<path d="M126.601 10.6106L126.782 149.644L126.803 160.159L145.297 160.095L408.428 160.223L408.396 10.4084L127.187 10.1636L126.601 10.6106Z" fill="white"/>
<path d="M126.601 10.6106L126.782 149.644L126.803 160.159L145.297 160.095L408.428 160.223L408.396 10.4084L127.187 10.1636L126.601 10.6106Z" fill="white"/>
<rect width="25.099" height="286.187" transform="matrix(0.805779 -0.592216 0.592342 0.805687 255.264 -47.9316)" fill="#EEBAE4" fill-opacity="0.08"/>
<rect width="185.135" height="298.311" transform="matrix(0.805779 -0.592216 0.592342 0.805687 72.1766 36.0977)" fill="#EEBAE4" fill-opacity="0.08"/>
</g>
<path d="M234.27 199.93L228.468 239.51L306.593 239.435L300.077 199.792L234.27 199.93Z" fill="#FE8EB4"/>
<path d="M201.49 246.098L201.554 249.216L333.199 249.546L333.103 246.109L201.49 246.098Z" fill="#FE8EB4"/>
<path d="M267.584 178.284C266.427 178.297 265.3 178.649 264.343 179.297C263.385 179.946 262.639 180.861 262.198 181.93C261.757 182.998 261.64 184.173 261.861 185.307C262.082 186.442 262.632 187.487 263.443 188.311C264.253 189.136 265.288 189.704 266.419 189.945C267.55 190.187 268.727 190.09 269.804 189.668C270.88 189.246 271.809 188.517 272.474 187.571C273.14 186.626 273.512 185.505 273.546 184.35C273.557 183.559 273.411 182.774 273.117 182.04C272.823 181.306 272.386 180.637 271.831 180.073C271.277 179.509 270.616 179.06 269.887 178.753C269.158 178.446 268.375 178.286 267.584 178.284Z" fill="#FE8EB4"/>
<path d="M416.306 3.6929C414.495 1.99363 412.213 0.880786 409.759 0.500144L128.251 0.255371C125.267 0.417408 122.415 1.53706 120.117 3.44813C117.957 5.26447 116.416 7.7084 115.71 10.4403C115.518 11.2704 115.401 12.2069 115.401 12.2069C115.274 13.3873 115.242 14.576 115.305 15.7615C115.305 16.6981 115.369 18.1455 115.39 20.0185V169.972L419.5 170.621C419.543 119.139 419.578 67.658 419.607 16.1766C419.681 15.6764 421.225 8.45011 416.306 3.6929ZM126.803 160.138L126.463 10.1955L408.321 10.3658C408.321 60.3005 408.321 110.235 408.321 160.17L126.803 160.138Z" fill="#FE8EB4"/>
<path d="M126.005 12.5156V13.5799C126.005 15.006 126.005 16.4214 126.005 17.8369C126.005 20.6571 126.005 23.4348 126.005 26.1912C126.005 31.697 126.027 37.0608 126.069 42.2827C126.069 52.723 126.154 62.5886 126.186 71.8264C126.271 90.3018 126.346 106.276 126.41 119.356C126.474 132.436 126.559 142.642 126.601 149.57C126.601 153.039 126.665 155.679 126.687 157.456C126.687 158.35 126.687 159.021 126.687 159.478C126.687 159.936 126.687 160.159 126.687 160.159C126.687 160.159 126.687 159.925 126.687 159.478C126.687 159.031 126.687 158.35 126.687 157.456C126.687 155.679 126.687 153.039 126.687 149.57C126.687 142.642 126.687 132.446 126.687 119.356V71.837C126.687 62.5993 126.687 52.7337 126.687 42.2934C126.687 37.0643 126.687 31.7005 126.687 26.2019C126.687 23.4455 126.687 20.6571 126.687 17.8369V12.5156C126.717 12.1402 126.717 11.7629 126.687 11.3875C126.663 11.275 126.669 11.1583 126.704 11.0489C126.74 10.9396 126.803 10.8413 126.888 10.7639C126.973 10.6865 127.077 10.6326 127.189 10.6076C127.301 10.5825 127.418 10.5873 127.528 10.6212L407.757 10.866C407.757 63.1953 407.757 113.322 407.757 159.659L205.951 159.893L147.682 160.042L132.159 160.127L147.682 160.223L205.951 160.393L408.992 160.638C408.992 137.129 409.056 112.651 409.088 87.407C409.088 74.8914 409.088 62.1878 409.088 49.2961C409.088 42.8681 409.088 36.3939 409.088 29.8735C409.088 26.6063 409.088 23.339 409.088 20.0718V10.8979C409.079 10.7123 409.032 10.5304 408.95 10.3638C408.867 10.1971 408.751 10.0493 408.609 9.92946C408.339 9.70055 407.994 9.57929 407.64 9.58891H256.149L127.804 9.6634C127.559 9.6214 127.308 9.63843 127.07 9.71308C126.833 9.78772 126.617 9.91783 126.44 10.0926C126.263 10.2674 126.13 10.4818 126.053 10.7181C125.975 10.9544 125.955 11.2058 125.995 11.4514C126.036 11.8047 126.039 12.1615 126.005 12.5156Z" fill="#F95088"/>
<path d="M420.107 185.339V170.759H418.926V186.127V186.936C418.936 187.44 418.915 187.945 418.862 188.447C418.756 189.456 418.531 190.449 418.191 191.406C417.522 193.324 416.358 195.031 414.816 196.354C413.266 197.678 411.405 198.586 409.407 198.994C408.415 199.208 407.399 199.301 406.384 199.27H300.354C300.432 199.646 300.507 200.03 300.578 200.42H406.426C409.791 200.524 413.076 199.388 415.657 197.227C417.357 195.765 418.642 193.883 419.383 191.767C419.753 190.736 419.999 189.664 420.118 188.575C420.171 188.026 420.193 187.476 420.182 186.925C420.182 186.67 420.182 186.308 420.182 186.137L420.107 185.339Z" fill="#F95088"/>
<path d="M122.002 2.18172C124.169 0.953171 126.623 0.321495 129.114 0.351205C135.683 0.489558 145.382 0.468281 157.86 0.542779L263.623 0.830115L336.659 0.97911L377.34 1.05362H398.633H409.461C411.653 1.18719 413.744 2.02325 415.424 3.43794C417.104 4.85262 418.283 6.77065 418.787 8.9078C418.893 9.31608 418.964 9.73264 419 10.153V28.4581C419 36.0143 419 43.6556 419 51.3821C419 66.8279 419 82.586 419 98.6562C419 114.726 419 131.045 419 147.612V170.536H420.107V147.633C420.107 131.052 420.107 114.733 420.107 98.6775C420.107 82.6214 420.107 66.8421 420.107 51.3395C420.107 43.6131 420.107 35.9717 420.107 28.4155V10.2168C420.076 9.70972 419.994 9.20701 419.862 8.71623C419.624 7.77004 419.267 6.85806 418.798 6.00238C417.896 4.26901 416.556 2.80149 414.912 1.74537C413.278 0.722381 411.416 0.122505 409.493 0C405.777 0 402.21 0 398.601 0H263.602L157.838 0.0745054C145.361 0.0745054 135.661 0.170288 129.093 0.0745054C126.568 0.0780168 124.09 0.757879 121.917 2.04336C121.366 2.35376 120.843 2.70976 120.352 3.10761L119.873 3.53332C119.873 3.53332 120.054 3.41626 120.394 3.15019C120.904 2.78579 121.441 2.46197 122.002 2.18172Z" fill="#F95088"/>
<path d="M223.922 199.27H140.091H127.921C127.139 199.298 126.356 199.266 125.579 199.175C124.059 198.98 122.591 198.492 121.257 197.738C118.613 196.211 116.675 193.708 115.859 190.767L115.72 190.235C115.72 190.235 115.72 189.916 115.72 189.756V181.689C115.72 177.719 115.72 173.813 115.72 169.982H114.837C114.837 173.845 114.837 177.751 114.837 181.689V190.203C114.824 190.281 114.824 190.36 114.837 190.437L114.986 191.022C115.859 194.205 117.951 196.916 120.81 198.568C122.252 199.386 123.839 199.918 125.483 200.132C126.296 200.226 127.114 200.261 127.932 200.239H140.101L223.922 200.292H233.791C233.866 199.898 233.93 199.536 233.994 199.228L223.922 199.27Z" fill="#F95088"/>
<path d="M234.526 200.398H299.79C299.736 200.005 299.694 199.622 299.641 199.249H234.643C234.6 199.643 234.568 200.005 234.526 200.398Z" fill="#F95088"/>
<path d="M115.688 146.739C115.688 102.104 115.582 65.9834 115.55 41.0267C115.55 28.5536 115.486 18.8689 115.465 12.2919C115.771 9.81916 116.722 7.47033 118.222 5.48065C118.607 4.97952 119.022 4.50321 119.467 4.05456C119.776 3.75657 119.914 3.59692 119.914 3.59692C119.247 4.12519 118.646 4.73273 118.126 5.40615C116.562 7.38879 115.562 9.75656 115.231 12.2599C115.231 18.837 115.145 28.5323 115.092 40.9947C115.039 65.9515 114.954 102.072 114.847 146.707C114.847 154.192 114.847 161.908 114.847 169.854H115.731C115.71 161.936 115.695 154.231 115.688 146.739Z" fill="#F95088"/>
<path d="M271.235 170.014C196.209 169.844 133.213 169.801 115.699 169.887V170.036C133.213 170.195 196.209 170.44 271.235 170.61C337.628 170.759 394.598 170.812 418.968 170.759V170.536C394.555 170.365 337.628 170.163 271.235 170.014Z" fill="#F95088"/>
<path d="M418.968 170.759H420.106V170.536H418.926L418.968 170.759Z" fill="#F95088"/>
<path d="M115.698 169.886H114.815V170.025H115.698V169.886Z" fill="#F95088"/>
<path d="M271.512 179.518C270.793 178.907 269.945 178.467 269.032 178.23C267.975 177.986 266.872 178.03 265.838 178.358C264.651 178.764 263.612 179.514 262.853 180.513C262.095 181.512 261.651 182.714 261.579 183.967C261.543 185.225 261.893 186.464 262.582 187.518C263.271 188.572 264.266 189.39 265.433 189.862C266.219 190.181 267.063 190.328 267.91 190.295C268.757 190.262 269.587 190.049 270.345 189.671C271.104 189.292 271.773 188.757 272.308 188.1C272.843 187.443 273.233 186.68 273.45 185.861C273.54 185.513 273.593 185.156 273.61 184.797C273.61 184.541 273.61 184.414 273.61 184.414C273.556 184.414 273.546 184.935 273.258 185.797C272.853 187.017 272.061 188.07 271.001 188.798C270.147 189.387 269.146 189.728 268.11 189.782C267.073 189.837 266.042 189.603 265.131 189.107C264.22 188.61 263.464 187.871 262.948 186.971C262.432 186.071 262.175 185.046 262.207 184.009C262.273 182.871 262.674 181.778 263.36 180.867C264.045 179.956 264.985 179.268 266.061 178.89C267.004 178.571 268.016 178.512 268.989 178.72C269.841 178.916 270.638 179.302 271.321 179.848C272.33 180.662 273.048 181.783 273.365 183.041C273.578 183.924 273.546 184.445 273.61 184.445C273.674 184.445 273.61 184.318 273.663 184.073C273.683 183.716 273.658 183.359 273.588 183.009C273.327 181.638 272.593 180.402 271.512 179.518Z" fill="#F95088"/>
<path d="M228.926 239.127C229.703 234.87 230.832 227.739 231.992 219.683C233.153 211.627 234.047 204.783 234.526 200.399H233.792C233.025 204.709 231.928 211.658 230.789 219.555C229.618 227.739 228.66 234.966 228.213 239.276H228.372L228.926 239.127Z" fill="#F95088"/>
<path d="M234.643 199.271H234.015C233.951 199.622 233.887 199.983 233.813 200.334H234.526C234.568 200.005 234.6 199.643 234.643 199.271Z" fill="#F95088"/>
<path d="M302.547 218.587C303.963 227.282 305.315 234.87 306.167 239.031L306.604 239.116H306.795C306.295 234.944 305.156 227.228 303.718 218.395C302.547 211.211 301.419 204.783 300.578 200.42H299.8C300.386 204.826 301.365 211.339 302.547 218.587Z" fill="#F95088"/>
<path d="M299.641 199.271C299.641 199.643 299.736 200.026 299.79 200.419H300.577C300.499 200.022 300.424 199.639 300.353 199.271H299.641Z" fill="#F95088"/>
<path d="M228.787 239.936C237.454 240.063 251.145 240.127 266.551 240.106C283.202 240.106 297.852 239.936 306.316 239.755V239.648C305.603 239.414 305.049 239.233 304.698 239.084C296.042 238.956 282.191 238.882 266.562 238.914C252.508 238.914 239.881 239.042 231.194 239.18C230.597 239.382 229.788 239.627 228.809 239.904L228.787 239.936Z" fill="#F95088"/>
<path d="M306.614 239.712L306.295 239.605V239.712H306.614Z" fill="#F95088"/>
<path d="M204.396 245.885L202.267 246.321C211.764 246.566 237.507 246.747 267.808 246.779C297.054 246.779 322.105 246.683 332.294 246.47L330.165 245.991C318.858 245.778 295.18 245.619 267.797 245.597C239.541 245.565 215.245 245.682 204.396 245.885Z" fill="#F95088"/>
<path d="M268.478 248.79C237.401 248.705 211.061 248.79 201.852 249.024C201.852 249.152 201.852 249.269 201.852 249.397C211.061 249.652 237.39 249.897 268.457 249.971C297.384 250.046 322.212 249.971 332.933 249.78C332.933 249.631 332.933 249.471 332.933 249.312C322.158 249.077 297.373 248.865 268.478 248.79Z" fill="#F95088"/>
<path d="M201.851 247.587C201.851 247.183 201.851 246.789 201.851 246.406L201.277 246.523C201.277 246.874 201.277 247.236 201.277 247.587C201.277 247.938 201.277 248.555 201.33 249.013H201.851C201.851 248.566 201.851 248.087 201.851 247.587Z" fill="#F95088"/>
<path d="M201.287 249.035C201.287 249.152 201.287 249.269 201.287 249.375H201.841C201.841 249.248 201.841 249.131 201.841 249.003L201.287 249.035Z" fill="#F95088"/>
<path d="M332.89 248.417C332.89 248.73 332.89 249.028 332.89 249.311H333.476C333.476 249.013 333.476 248.705 333.476 248.396C333.476 247.8 333.476 247.236 333.412 246.715L332.858 246.587C332.869 247.162 332.879 247.779 332.89 248.417Z" fill="#F95088"/>
<path d="M332.943 249.78H333.507V249.29H332.922C332.933 249.471 332.933 249.631 332.943 249.78Z" fill="#F95088"/>
<path d="M306.881 239.829C309.84 240.766 314.961 242.181 320.817 243.692C324.267 244.576 327.482 245.363 330.165 245.991L332.869 246.044V245.736C329.856 244.852 325.715 243.724 321.105 242.543C316.495 241.362 312.364 240.361 309.308 239.68L306.87 239.744L306.881 239.829Z" fill="#F95088"/>
<path d="M306.603 239.116L306.167 239.031V239.105L306.603 239.116Z" fill="#F95088"/>
<path d="M306.88 239.829V239.712H306.625L306.88 239.829Z" fill="#F95088"/>
<path d="M306.187 239.105H304.687C305.038 239.254 305.591 239.435 306.304 239.669C306.262 239.478 306.187 239.297 306.187 239.105Z" fill="#F95088"/>
<path d="M306.87 239.712L309.308 239.648L306.795 239.116C306.817 239.361 306.849 239.552 306.87 239.712Z" fill="#F95088"/>
<path d="M306.295 239.648L306.614 239.754H306.869C306.869 239.563 306.816 239.371 306.795 239.158H306.603H306.188C306.188 239.297 306.263 239.478 306.295 239.648Z" fill="#F95088"/>
<path d="M332.868 246.459V246.097L330.164 246.044L332.293 246.523L332.868 246.459Z" fill="#F95088"/>
<path d="M332.869 246.459V246.598L333.422 246.725C333.422 246.63 333.422 246.534 333.422 246.449L332.869 246.459Z" fill="#F95088"/>
<path d="M333.39 246.097C333.385 246.041 333.385 245.984 333.39 245.927L332.88 245.778V246.097H333.39Z" fill="#F95088"/>
<path d="M333.411 246.449C333.411 246.31 333.411 246.183 333.411 246.055H332.89V246.47L333.411 246.449Z" fill="#F95088"/>
<path d="M204.396 245.885C207.398 245.257 211.327 244.363 215.628 243.32C220.621 242.107 225.072 240.957 228.148 240.127V239.968H225.263C222.463 240.574 219.035 241.351 215.33 242.256C209.73 243.607 204.79 244.906 201.745 245.789C201.75 245.867 201.75 245.945 201.745 246.023L204.396 245.885Z" fill="#F95088"/>
<path d="M228.16 239.925V240.084L228.681 239.935L228.16 239.925Z" fill="#F95088"/>
<path d="M228.926 239.127L228.394 239.233H228.915L228.926 239.127Z" fill="#F95088"/>
<path d="M228.233 239.265C227.361 239.435 226.36 239.648 225.274 239.882H228.159C228.18 239.712 228.202 239.489 228.233 239.265Z" fill="#F95088"/>
<path d="M228.787 239.904C229.767 239.627 230.576 239.382 231.172 239.18H228.915C228.873 239.457 228.83 239.712 228.787 239.904Z" fill="#F95088"/>
<path d="M228.787 239.903C228.787 239.691 228.872 239.457 228.915 239.223H228.394H228.234C228.234 239.446 228.181 239.669 228.16 239.882H228.67L228.787 239.903Z" fill="#F95088"/>
<path d="M204.396 245.885L201.766 245.938C201.766 246.066 201.766 246.183 201.766 246.31H202.235L204.396 245.885Z" fill="#F95088"/>
<path d="M201.787 246.31H201.213V246.544L201.787 246.427V246.31Z" fill="#F95088"/>
<path d="M201.766 245.938C201.771 245.86 201.771 245.782 201.766 245.704L201.224 245.864V245.959L201.766 245.938Z" fill="#F95088"/>
<path d="M201.213 245.959V246.289H201.787C201.787 246.161 201.787 246.044 201.787 245.917L201.213 245.959Z" fill="#F95088"/>
<path d="M307.466 93.6973L293.529 101.998L305.113 106.756L309.19 122.624L323.18 114.291L319.113 98.4332L307.466 93.6973Z" fill="#8FB1FF"/>
<path d="M267.051 75.7859L253.115 84.0871L264.688 88.8443L268.776 104.712L282.755 96.3898L278.699 80.5325L267.051 75.7859Z" fill="#8FB1FF"/>
<path d="M231.481 96.1877L217.544 104.489L229.128 109.246L233.216 125.114L247.195 116.781L243.139 100.924L231.481 96.1877Z" fill="#8FB1FF"/>
<path d="M254.222 31.6833L240.286 39.9739L251.869 44.7311L255.947 60.6097L269.937 52.2766L265.87 36.4193L254.222 31.6833Z" fill="#8FB1FF"/>
<path d="M293.412 101.987L297.373 117.791L309.084 122.591L305.123 106.766L293.412 101.987Z" fill="#5789FF"/>
<path d="M253.115 84.1294L257.075 99.9335L268.787 104.733L264.773 88.9079L253.115 84.1294Z" fill="#5789FF"/>
<path d="M217.47 104.552L221.43 120.356L233.142 125.146L229.096 109.331L217.47 104.552Z" fill="#5789FF"/>
<path d="M240.179 40.0161L244.139 55.8096L255.851 60.6094L251.805 44.784L240.179 40.0161Z" fill="#5789FF"/>
<path d="M232.971 124.9C231.374 124.187 228.904 123.144 226.115 122.005C224.422 121.303 222.846 120.664 221.494 120.132C221.494 120.296 221.526 120.444 221.59 120.579C222.878 121.122 224.358 121.75 225.955 122.399C228.744 123.538 231.278 124.528 232.875 125.145L233.014 125.06L232.971 124.9Z" fill="#4B4B4C"/>
<path d="M220.504 106.042C221.484 106.467 222.634 106.893 223.698 107.351C225.625 108.117 227.393 108.798 228.809 109.33L228.937 109.256L228.873 108.99C227.489 108.404 225.753 107.702 223.858 106.957L220.664 105.68L218.045 104.552L217.758 104.435L217.555 104.541V104.669L217.875 104.828L220.504 106.042Z" fill="#4B4B4C"/>
<path d="M242.99 100.646C241.638 100.082 239.998 99.4007 238.22 98.6876C235.601 97.6234 233.259 96.7187 231.705 96.144L231.428 96.3143C232.94 96.9848 235.335 97.9852 238.061 99.0814C239.817 99.7944 241.446 100.433 242.809 100.954L243.022 100.827L242.99 100.646Z" fill="#4B4B4C"/>
<path d="M246.759 116.812C245.077 117.791 242.958 119.036 240.648 120.409C237.677 122.176 235.037 123.793 233.27 124.9V125.049L233.419 125.113C235.229 124.049 237.88 122.538 240.871 120.782C243.235 119.366 245.396 118.057 247.068 117.025V116.961L246.759 116.812Z" fill="#4B4B4C"/>
<path d="M233.344 125.188L233.461 125.113L233.312 125.049L233.344 125.188Z" fill="#4B4B4C"/>
<path d="M232.875 125.145L233.067 125.219V125.06L232.875 125.145Z" fill="#4B4B4C"/>
<path d="M242.809 100.955C241.063 101.966 238.774 103.307 236.261 104.807C233.472 106.478 230.938 108 229.213 109.064L229.554 109.213C231.342 108.149 233.812 106.744 236.485 105.137C239.157 103.53 241.371 102.189 243.096 101.114V101.018L242.809 100.955Z" fill="#4B4B4C"/>
<path d="M228.851 109.33H229.011V109.202L228.851 109.33Z" fill="#4B4B4C"/>
<path d="M229.192 109.117C229.192 109.202 229.192 109.309 229.277 109.405L229.554 109.256L229.213 109.107L229.192 109.117Z" fill="#4B4B4C"/>
<path d="M243.022 100.827L242.809 100.954L243.075 101.061C243.054 100.986 243.043 100.901 243.022 100.827Z" fill="#4B4B4C"/>
<path d="M231.087 96.1653L228.287 97.7723L228.383 98.1767C229.532 97.485 230.565 96.8464 231.427 96.3143L231.087 96.1653Z" fill="#4B4B4C"/>
<path d="M217.758 104.445C219.514 103.381 221.825 102.093 224.369 100.582C225.572 99.8691 226.711 99.188 227.776 98.5388L227.67 98.145C226.605 98.7836 225.381 99.4753 224.146 100.21C221.548 101.753 219.205 103.168 217.47 104.243V104.339L217.758 104.445Z" fill="#4B4B4C"/>
<path d="M217.491 104.339L217.555 104.552L217.757 104.445L217.491 104.339Z" fill="#4B4B4C"/>
<path d="M231.353 96.0378L231.087 96.1868L231.427 96.3357L231.704 96.1655L231.353 96.0378Z" fill="#4B4B4C"/>
<path d="M219.695 112.672C218.865 109.383 218.098 106.489 217.566 104.679L217.417 104.615L217.3 104.679C217.704 106.499 218.364 109.447 219.237 112.778C219.961 115.63 220.632 118.206 221.132 120.005L221.462 120.132C221.079 118.302 220.44 115.641 219.695 112.672Z" fill="#4B4B4C"/>
<path d="M221.165 120.005C221.165 120.154 221.239 120.303 221.282 120.441L221.59 120.579C221.59 120.444 221.558 120.295 221.494 120.132L221.165 120.005Z" fill="#4B4B4C"/>
<path d="M217.449 104.616L217.598 104.679V104.552L217.449 104.616Z" fill="#4B4B4C"/>
<path d="M217.3 104.552V104.69L217.417 104.626L217.3 104.552Z" fill="#4B4B4C"/>
<path d="M217.469 104.243H217.385L217.49 104.296L217.469 104.243Z" fill="#4B4B4C"/>
<path d="M217.555 104.552L217.491 104.339L217.385 104.286L217.268 104.371V104.541L217.417 104.615L217.555 104.552Z" fill="#4B4B4C"/>
<path d="M229.298 109.49H229.192L229.043 109.575C229.469 111.427 230.182 114.332 231.023 117.61C231.768 120.505 232.46 123.102 232.971 124.932L233.152 125.007L233.269 124.932C232.843 123.08 232.204 120.43 231.438 117.482C230.597 114.204 229.831 111.32 229.298 109.49Z" fill="#4B4B4C"/>
<path d="M233.014 125.06L233.152 124.975L232.971 124.9L233.014 125.06Z" fill="#4B4B4C"/>
<path d="M229.192 109.096L228.915 108.99L228.979 109.255L229.192 109.117V109.096Z" fill="#4B4B4C"/>
<path d="M229.298 109.489V109.405L229.213 109.457L229.298 109.489Z" fill="#4B4B4C"/>
<path d="M233.312 125.049V124.9L233.195 124.975L233.312 125.049Z" fill="#4B4B4C"/>
<path d="M233.152 124.975L233.014 125.06V125.22L233.131 125.273L233.291 125.188V125.049L233.152 124.975Z" fill="#4B4B4C"/>
<path d="M229.043 109.543L229.192 109.458L229.011 109.384L229.043 109.543Z" fill="#4B4B4C"/>
<path d="M228.979 109.256V109.383L229.16 109.458L229.245 109.405C229.245 109.309 229.245 109.203 229.16 109.117L228.979 109.256Z" fill="#4B4B4C"/>
<path d="M243.288 101.146H243.182L243.096 101.199C243.245 101.923 243.49 102.977 243.788 104.254L244.097 104.062C243.778 102.828 243.501 101.827 243.288 101.146Z" fill="#4B4B4C"/>
<path d="M244.267 104.658L243.937 104.839C244.321 106.404 244.778 108.255 245.279 110.246C245.779 112.236 246.343 114.279 246.758 115.897L247.173 116.099C246.769 114.417 246.269 112.363 245.704 110.139C245.183 108.117 244.693 106.233 244.267 104.658Z" fill="#4B4B4C"/>
<path d="M243.287 101.145V101.05H243.203L243.287 101.145Z" fill="#4B4B4C"/>
<path d="M243.171 100.752L243 100.678V100.859L243.171 100.752Z" fill="#4B4B4C"/>
<path d="M243.075 101.061V101.156L243.159 101.103L243.075 101.061Z" fill="#4B4B4C"/>
<path d="M243.075 101.061H243.181H243.267C243.267 100.954 243.203 100.848 243.171 100.763L243.022 100.837C243.043 100.901 243.054 100.986 243.075 101.061Z" fill="#4B4B4C"/>
<path d="M273.748 141.992C272.151 141.279 269.681 140.236 266.892 139.097C265.199 138.395 263.612 137.756 262.26 137.224C262.26 137.384 262.335 137.533 262.367 137.671C263.644 138.214 265.135 138.842 266.732 139.491C269.521 140.63 272.055 141.62 273.652 142.237L273.791 142.152L273.748 141.992Z" fill="#0550FF"/>
<path d="M269.692 126.081C268.308 125.496 266.572 124.794 264.677 124.049L261.43 122.772L258.811 121.654L258.523 121.537L258.332 121.644V121.782L258.662 121.931L261.238 123.133C262.228 123.559 263.368 123.985 264.486 124.443C266.402 125.209 268.18 125.89 269.596 126.422L269.724 126.348L269.692 126.081Z" fill="#0550FF"/>
<path d="M278.827 116.173C280.594 116.886 282.223 117.525 283.575 118.046L283.799 117.919V117.738C282.446 117.174 280.807 116.492 279.029 115.779C276.41 114.715 274.068 113.811 272.513 113.236L272.236 113.406C273.716 114.13 276.112 115.077 278.827 116.173Z" fill="#0550FF"/>
<path d="M281.424 137.544C278.454 139.31 275.813 140.928 274.046 142.035V142.184L274.195 142.248C276.016 141.183 278.667 139.672 281.648 137.916C284.011 136.501 286.162 135.192 287.834 134.159C287.834 134.053 287.78 133.946 287.748 133.829C286.034 134.777 283.83 136.064 281.424 137.544Z" fill="#0550FF"/>
<path d="M274.11 142.279L274.227 142.205L274.078 142.141L274.11 142.279Z" fill="#0550FF"/>
<path d="M273.652 142.237L273.833 142.311V142.152L273.652 142.237Z" fill="#0550FF"/>
<path d="M283.575 118.046C281.829 119.057 279.54 120.398 277.038 121.899C274.248 123.57 271.714 125.092 269.979 126.156L270.33 126.305C272.119 125.241 274.589 123.836 277.261 122.229C279.934 120.622 282.137 119.281 283.862 118.206V118.11L283.575 118.046Z" fill="#0550FF"/>
<path d="M269.628 126.422L269.787 126.475V126.348L269.628 126.422Z" fill="#0550FF"/>
<path d="M269.99 126.209C269.99 126.294 269.99 126.401 270.075 126.496L270.352 126.347L270.001 126.198L269.99 126.209Z" fill="#0550FF"/>
<path d="M283.83 117.918L283.607 118.046L283.883 118.153C283.861 118.076 283.843 117.998 283.83 117.918Z" fill="#0550FF"/>
<path d="M258.523 121.58C260.291 120.569 262.601 119.228 265.135 117.717C267.935 116.067 270.458 114.524 272.204 113.46L271.864 113.311C270.064 114.375 267.605 115.758 264.922 117.355C262.239 118.951 259.982 120.313 258.247 121.388V121.484L258.523 121.58Z" fill="#0550FF"/>
<path d="M258.278 121.431L258.342 121.643L258.534 121.537L258.278 121.431Z" fill="#0550FF"/>
<path d="M272.481 113.236L272.119 113.066L271.853 113.215L272.193 113.364L272.481 113.236Z" fill="#0550FF"/>
<path d="M260.461 129.764C259.747 126.922 259.088 124.368 258.587 122.57L258.247 122.41C258.662 124.251 259.311 126.901 260.046 129.86C260.78 132.818 261.44 135.287 261.93 137.086L262.26 137.214C261.845 135.415 261.206 132.733 260.461 129.764Z" fill="#0550FF"/>
<path d="M261.93 137.096L262.058 137.533L262.367 137.671C262.367 137.533 262.303 137.384 262.26 137.224L261.93 137.096Z" fill="#0550FF"/>
<path d="M258.278 121.707L258.417 121.782V121.643L258.278 121.707Z" fill="#0550FF"/>
<path d="M258.278 121.335L258.194 121.388H258.299L258.278 121.335Z" fill="#0550FF"/>
<path d="M258.332 121.643L258.268 121.431H258.161L258.034 121.505V121.675L258.183 121.75L258.332 121.643Z" fill="#0550FF"/>
<path d="M270.075 126.582H269.968L269.819 126.667C270.245 128.519 270.958 131.424 271.789 134.702C272.534 137.597 273.236 140.194 273.747 142.024L273.918 142.099L274.045 142.024C273.62 140.172 272.981 137.522 272.214 134.574C271.373 131.296 270.596 128.412 270.075 126.582Z" fill="#0550FF"/>
<path d="M273.79 142.152L273.918 142.067L273.748 141.992L273.79 142.152Z" fill="#0550FF"/>
<path d="M269.692 126.082L269.756 126.348L269.968 126.209L269.692 126.082Z" fill="#0550FF"/>
<path d="M270.074 126.581V126.497L269.99 126.549L270.074 126.581Z" fill="#0550FF"/>
<path d="M274.078 142.141V141.992L273.95 142.067L274.078 142.141Z" fill="#0550FF"/>
<path d="M273.918 142.067L273.791 142.152V142.311H273.918L274.067 142.226V142.088L273.918 142.067Z" fill="#0550FF"/>
<path d="M269.82 126.635L269.969 126.55L269.788 126.475L269.82 126.635Z" fill="#0550FF"/>
<path d="M269.756 126.348V126.475L269.936 126.55L270.022 126.496C270.022 126.401 269.958 126.294 269.936 126.209L269.756 126.348Z" fill="#0550FF"/>
<path d="M286.055 127.337C286.683 129.796 287.269 132.041 287.748 133.787L288.046 133.616C287.631 131.86 287.088 129.647 286.47 127.231C286.14 125.901 285.81 124.655 285.512 123.495L285.14 123.687C285.427 124.826 285.725 126.05 286.055 127.337Z" fill="#0550FF"/>
<path d="M283.958 118.196L283.862 118.249C284.086 119.313 284.48 120.995 284.991 123.07L285.342 122.857C284.81 120.867 284.362 119.239 284.064 118.238L283.958 118.196Z" fill="#0550FF"/>
<path d="M284.064 118.237V118.142H283.99L284.064 118.237Z" fill="#0550FF"/>
<path d="M283.948 117.844L283.777 117.77V117.951L283.948 117.844Z" fill="#0550FF"/>
<path d="M287.834 134.116L288.121 133.936C288.121 133.829 288.121 133.723 288.046 133.616L287.748 133.787C287.78 133.904 287.812 134.01 287.834 134.116Z" fill="#0550FF"/>
<path d="M283.83 118.248L283.925 118.196H283.82L283.83 118.248Z" fill="#0550FF"/>
<path d="M283.831 118.153H283.937H284.012C284.012 118.046 283.948 117.94 283.926 117.855L283.777 117.929C283.791 118.005 283.808 118.08 283.831 118.153Z" fill="#0550FF"/>
<path d="M308.999 122.399C307.391 121.697 304.932 120.643 302.142 119.505C300.449 118.813 298.863 118.174 297.511 117.642C297.511 117.791 297.586 117.94 297.617 118.078C298.895 118.621 300.386 119.249 301.983 119.898C304.772 121.048 307.306 122.027 308.903 122.655L309.041 122.559L308.999 122.399Z" fill="#4B4B4C"/>
<path d="M304.943 106.489C303.559 105.914 301.823 105.201 299.928 104.456L296.681 103.179L294.062 102.061L293.775 101.944L293.583 102.051V102.189L293.902 102.338L296.489 103.541C297.48 103.966 298.619 104.392 299.683 104.85C301.61 105.616 303.388 106.297 304.804 106.829L304.932 106.755L304.943 106.489Z" fill="#4B4B4C"/>
<path d="M314.077 96.5806C315.834 97.2937 317.474 97.9429 318.826 98.4644L319.049 98.3367C319.049 98.2622 319.049 98.209 319.049 98.1557C317.697 97.581 316.058 96.8999 314.269 96.1869C311.661 95.1226 309.318 94.218 307.764 93.6433L307.487 93.8136C308.956 94.4841 311.363 95.4845 314.077 96.5806Z" fill="#4B4B4C"/>
<path d="M316.675 117.908C313.705 119.685 311.064 121.292 309.297 122.399V122.548L309.446 122.622C311.266 121.558 313.917 120.036 316.899 118.28C319.262 116.865 321.413 115.556 323.084 114.524C323.084 114.417 323.031 114.311 322.999 114.194C321.285 115.194 319.07 116.482 316.675 117.908Z" fill="#4B4B4C"/>
<path d="M309.382 122.644L309.499 122.58L309.35 122.506L309.382 122.644Z" fill="#4B4B4C"/>
<path d="M308.903 122.644L309.084 122.708V122.548L308.903 122.644Z" fill="#4B4B4C"/>
<path d="M305.23 106.606L305.571 106.755C307.36 105.691 309.83 104.286 312.513 102.679C315.195 101.072 317.389 99.7308 319.113 98.6559V98.5601L318.847 98.4644C317.101 99.4648 314.812 100.806 312.31 102.306C309.5 103.977 306.998 105.51 305.23 106.606Z" fill="#4B4B4C"/>
<path d="M304.879 106.829L305.028 106.883V106.755L304.879 106.829Z" fill="#4B4B4C"/>
<path d="M305.22 106.616C305.22 106.712 305.273 106.808 305.305 106.914L305.571 106.755L305.23 106.606L305.22 106.616Z" fill="#4B4B4C"/>
<path d="M319.049 98.3364L318.826 98.4641L319.092 98.5598C319.081 98.4854 319.06 98.4003 319.049 98.3364Z" fill="#4B4B4C"/>
<path d="M293.519 101.838L293.774 101.944L294.625 101.455L294.2 101.306L293.498 101.742L293.519 101.838Z" fill="#4B4B4C"/>
<path d="M307.454 93.8135L307.114 93.6646L306.05 94.2603L306.135 94.622L307.454 93.8135Z" fill="#4B4B4C"/>
<path d="M300.386 98.0812C302.313 96.9424 304.08 95.8782 305.581 94.9629L305.486 94.6011C303.942 95.495 302.121 96.5593 300.162 97.7193C298.203 98.8794 296.266 100.039 294.722 100.997L295.105 101.178C296.606 100.295 298.448 99.2306 300.386 98.0812Z" fill="#4B4B4C"/>
<path d="M293.774 101.944L293.519 101.838L293.583 102.051L293.774 101.944Z" fill="#4B4B4C"/>
<path d="M307.732 93.643L307.38 93.5154L307.115 93.6643L307.455 93.8133L307.732 93.643Z" fill="#4B4B4C"/>
<path d="M293.615 102.189L293.476 102.115L293.359 102.178C293.753 103.998 294.424 106.946 295.296 110.277C295.861 112.534 296.361 114.598 296.84 116.258L297.159 116.088C296.765 114.439 296.265 112.385 295.712 110.171C294.892 106.882 294.126 103.988 293.615 102.189Z" fill="#4B4B4C"/>
<path d="M297.341 116.865L297.054 117.035L297.181 117.504L297.511 117.642C297.458 117.397 297.405 117.142 297.341 116.865Z" fill="#4B4B4C"/>
<path d="M297.181 117.504C297.181 117.653 297.266 117.812 297.309 117.95L297.618 118.078C297.618 117.94 297.554 117.791 297.511 117.642L297.181 117.504Z" fill="#4B4B4C"/>
<path d="M293.476 102.115L293.614 102.189V102.051L293.476 102.115Z" fill="#4B4B4C"/>
<path d="M293.412 102.178L293.529 102.115L293.38 102.051L293.412 102.178Z" fill="#4B4B4C"/>
<path d="M293.519 101.838H293.412L293.285 101.912V102.093L293.433 102.157L293.54 102.093L293.519 101.838Z" fill="#4B4B4C"/>
<path d="M305.326 107H305.22L305.071 107.085C305.496 108.936 306.199 111.842 307.04 115.12C307.785 118.015 308.477 120.611 308.999 122.442L309.169 122.527L309.297 122.442C308.86 120.59 308.232 117.951 307.455 114.992C306.625 111.703 305.848 108.809 305.326 107Z" fill="#4B4B4C"/>
<path d="M309.042 122.559L309.169 122.484L308.999 122.399L309.042 122.559Z" fill="#4B4B4C"/>
<path d="M305.219 106.616L304.953 106.51L305.017 106.776L305.219 106.616Z" fill="#4B4B4C"/>
<path d="M305.325 106.999V106.914H305.241L305.325 106.999Z" fill="#4B4B4C"/>
<path d="M309.382 122.548V122.399L309.255 122.484L309.382 122.548Z" fill="#4B4B4C"/>
<path d="M309.169 122.484L309.042 122.559V122.718L309.169 122.772L309.382 122.644V122.506L309.169 122.484Z" fill="#4B4B4C"/>
<path d="M305.124 107.042L305.273 106.957L305.081 106.882L305.124 107.042Z" fill="#4B4B4C"/>
<path d="M305.007 106.755V106.882L305.198 106.957H305.283C305.283 106.85 305.219 106.755 305.198 106.659L305.007 106.755Z" fill="#4B4B4C"/>
<path d="M319.113 98.6557C319.475 100.348 320.295 103.785 321.306 107.744C321.934 110.203 322.52 112.448 322.999 114.194L323.297 114.023C322.882 112.278 322.339 110.054 321.721 107.638C320.721 103.7 319.805 100.316 319.316 98.645H319.209L319.113 98.6557Z" fill="#4B4B4C"/>
<path d="M319.315 98.6442V98.5491H319.241L319.315 98.6442Z" fill="#4B4B4C"/>
<path d="M319.198 98.2512L319.028 98.1768C319.028 98.1768 319.028 98.2831 319.028 98.3576L319.198 98.2512Z" fill="#4B4B4C"/>
<path d="M323.297 114.023L322.999 114.194C322.999 114.311 322.999 114.417 323.084 114.523L323.371 114.353C323.353 114.242 323.328 114.132 323.297 114.023Z" fill="#4B4B4C"/>
<path d="M319.208 98.6025H319.092V98.6976L319.208 98.6025Z" fill="#4B4B4C"/>
<path d="M319.092 98.5598H319.209H319.283C319.283 98.4535 319.22 98.3471 319.198 98.262L319.049 98.3471C319.06 98.4003 319.081 98.4854 319.092 98.5598Z" fill="#4B4B4C"/>
<path d="M268.617 104.552C267.02 103.839 264.55 102.796 261.76 101.657C260.067 100.955 258.492 100.327 257.14 99.7947L257.235 100.231C258.513 100.774 260.003 101.402 261.6 102.051C264.39 103.2 266.924 104.179 268.521 104.807L268.659 104.712L268.617 104.552Z" fill="#4B4B4C"/>
<path d="M253.243 84.331L253.562 84.48L256.149 85.6826C257.129 86.1083 258.279 86.534 259.343 86.9916C261.26 87.7579 263.038 88.439 264.454 88.9711L264.581 88.8966L264.518 88.6305C263.133 88.0452 261.398 87.3428 259.503 86.5978L256.256 85.3207L253.637 84.2565L253.36 84.1394L253.158 84.2458L253.243 84.331Z" fill="#4B4B4C"/>
<path d="M273.705 78.701C275.462 79.4141 277.091 80.0526 278.454 80.5741L278.667 80.457C278.667 80.3825 278.667 80.3293 278.667 80.2761C277.315 79.7014 275.675 79.0203 273.897 78.3072C271.278 77.243 268.936 76.3384 267.381 75.7637L267.105 75.934C268.584 76.6044 270.98 77.6048 273.705 78.701Z" fill="#4B4B4C"/>
<path d="M276.293 100.029C273.322 101.806 270.682 103.413 268.914 104.52V104.669L269.063 104.733C270.873 103.669 273.524 102.157 276.516 100.401C278.816 99.0284 280.924 97.7406 282.585 96.719L282.191 96.5593C280.541 97.5172 278.507 98.7091 276.293 100.029Z" fill="#4B4B4C"/>
<path d="M268.989 104.807L269.106 104.733L268.957 104.669L268.989 104.807Z" fill="#4B4B4C"/>
<path d="M268.521 104.775L268.701 104.839V104.679L268.521 104.775Z" fill="#4B4B4C"/>
<path d="M264.858 88.7264L265.199 88.8754C266.988 87.8111 269.458 86.4063 272.13 84.7993C274.802 83.1923 277.017 81.8513 278.742 80.7764V80.6807L278.475 80.5742C276.729 81.5853 274.44 82.9262 271.928 84.4268C269.117 86.0977 266.615 87.6302 264.858 88.7264Z" fill="#4B4B4C"/>
<path d="M264.666 88.8755L264.539 88.9499H264.698L264.666 88.8755Z" fill="#4B4B4C"/>
<path d="M264.922 89.0239L265.199 88.875L264.858 88.7261C264.869 88.8325 264.89 88.9282 264.922 89.0239Z" fill="#4B4B4C"/>
<path d="M278.667 80.457L278.454 80.5741L278.72 80.6804C278.699 80.606 278.688 80.5209 278.667 80.457Z" fill="#4B4B4C"/>
<path d="M253.115 83.8629V83.9587L253.381 84.0652C255.138 83.0541 257.448 81.7132 259.982 80.2019C261.388 79.3718 262.719 78.5843 263.911 77.8606L263.804 77.4668C262.569 78.1798 261.207 78.978 259.769 79.8401C257.214 81.3726 254.851 82.7881 253.115 83.8629Z" fill="#4B4B4C"/>
<path d="M267.072 75.9339L266.732 75.7849L264.454 77.0939C264.454 77.2323 264.518 77.36 264.539 77.4877C265.486 76.8811 266.348 76.3915 267.072 75.9339Z" fill="#4B4B4C"/>
<path d="M253.402 84.0646L253.136 83.9583L253.2 84.171L253.402 84.0646Z" fill="#4B4B4C"/>
<path d="M267.349 75.8169L266.998 75.6892L266.732 75.8381L267.072 75.9871L267.349 75.8169Z" fill="#4B4B4C"/>
<path d="M255.34 92.2915C254.509 89.0029 253.743 86.1082 253.211 84.3096L253.062 84.2351L252.955 84.3309C253.36 86.1508 254.02 89.0987 254.893 92.4298C255.329 94.1539 255.744 95.761 256.117 97.1764L256.457 96.9848C256.149 95.5587 255.755 93.973 255.34 92.2915Z" fill="#4B4B4C"/>
<path d="M256.66 97.6978L256.33 97.8893L256.798 99.6233L257.139 99.7616C257 99.1552 256.841 98.4637 256.66 97.6978Z" fill="#4B4B4C"/>
<path d="M256.798 99.624L256.926 100.071L257.235 100.199L257.139 99.7623L256.798 99.624Z" fill="#4B4B4C"/>
<path d="M253.094 84.235L253.243 84.3094V84.1711L253.094 84.235Z" fill="#4B4B4C"/>
<path d="M252.955 84.1606V84.2989L253.072 84.2351L252.955 84.1606Z" fill="#4B4B4C"/>
<path d="M253.114 83.8625L253.03 83.9154H253.136L253.114 83.8625Z" fill="#4B4B4C"/>
<path d="M253.2 84.171L253.136 83.9583H253.03L252.913 84.0327V84.2029L253.062 84.2774L253.2 84.171Z" fill="#4B4B4C"/>
<path d="M264.667 89.1628C265.092 91.0146 265.806 93.92 266.647 97.1979C267.392 100.093 268.084 102.689 268.595 104.52L268.776 104.594L268.925 104.552C268.499 102.7 267.86 100.061 267.094 97.1021C266.253 93.8349 265.476 90.9614 264.965 89.1309H264.858L264.667 89.1628Z" fill="#4B4B4C"/>
<path d="M268.659 104.679L268.797 104.594L268.616 104.52L268.659 104.679Z" fill="#4B4B4C"/>
<path d="M264.837 88.737L264.56 88.6306L264.624 88.8966L264.837 88.737Z" fill="#4B4B4C"/>
<path d="M264.943 89.1193V89.0242L264.858 89.077L264.943 89.1193Z" fill="#4B4B4C"/>
<path d="M268.925 104.669V104.52L268.808 104.594L268.925 104.669Z" fill="#4B4B4C"/>
<path d="M268.797 104.552L268.659 104.637V104.796H268.787L268.946 104.711V104.573L268.797 104.552Z" fill="#4B4B4C"/>
<path d="M264.837 89.0774L264.656 89.0029V89.1625L264.837 89.0774Z" fill="#4B4B4C"/>
<path d="M264.667 88.8751V89.0028L264.847 89.0772L264.933 89.0241C264.933 88.9283 264.879 88.8326 264.847 88.7368L264.667 88.8751Z" fill="#4B4B4C"/>
<path d="M278.741 80.7763C279.092 82.4684 279.923 85.906 280.87 89.865C281.434 92.068 281.935 94.122 282.414 95.7716L282.818 95.9312C282.403 94.2071 281.881 92.0786 281.285 89.7586C280.285 85.8208 279.38 82.4259 278.88 80.7656H278.773L278.741 80.7763Z" fill="#4B4B4C"/>
<path d="M278.932 80.7648V80.6697L278.848 80.7225L278.932 80.7648Z" fill="#4B4B4C"/>
<path d="M278.816 80.3719L278.645 80.3081C278.645 80.3613 278.645 80.4145 278.645 80.489L278.816 80.3719Z" fill="#4B4B4C"/>
<path d="M278.826 80.7229H278.72V80.818L278.826 80.7229Z" fill="#4B4B4C"/>
<path d="M278.72 80.6804H278.826L278.911 80.6272C278.911 80.5208 278.847 80.4145 278.816 80.3293L278.667 80.4145C278.688 80.5208 278.699 80.6059 278.72 80.6804Z" fill="#4B4B4C"/>
<path d="M219.163 81.2445C217.566 80.5421 215.096 79.4885 212.306 78.3497L207.686 76.4873L207.781 76.9236C209.059 77.477 210.549 78.0943 212.146 78.7435C214.936 79.8929 217.47 80.872 219.067 81.4999L219.205 81.4148L219.163 81.2445Z" fill="#0550FF"/>
<path d="M206.696 62.386C207.675 62.8117 208.825 63.2373 209.89 63.7056C211.806 64.4612 213.584 65.1424 215 65.6745L215.128 65.6L215.064 65.3339C213.68 64.7592 211.944 64.0568 210.049 63.3012L206.802 62.0241L204.183 60.9598L203.896 60.8428L203.704 60.9598V61.0876L204.023 61.2366L206.696 62.386Z" fill="#0550FF"/>
<path d="M224.209 55.4363C225.966 56.1387 227.595 56.7879 228.958 57.3093L229.171 57.1816V57.0007C227.819 56.426 226.179 55.7555 224.401 55.0318C221.782 53.9676 219.44 53.063 217.885 52.4883L217.609 52.6692C219.131 53.329 221.526 54.3294 224.209 55.4363Z" fill="#0550FF"/>
<path d="M233.259 73.369L233.163 73.0391C231.449 74.0288 229.245 75.3272 226.839 76.7533L223.741 78.6264C223.741 78.7328 223.815 78.8712 223.869 79.0202L227.063 77.1258C229.426 75.721 231.577 74.4119 233.259 73.369Z" fill="#0550FF"/>
<path d="M219.461 81.2448V81.3938L219.61 81.4682L223.517 79.2014C223.517 79.0311 223.517 78.8821 223.517 78.7544C221.92 79.7229 220.536 80.5743 219.461 81.2448Z" fill="#0550FF"/>
<path d="M219.525 81.5318L219.653 81.468L219.504 81.3936L219.525 81.5318Z" fill="#0550FF"/>
<path d="M219.067 81.4999L219.248 81.5744V81.4148L219.067 81.4999Z" fill="#0550FF"/>
<path d="M215.394 65.4508L215.745 65.5998C217.534 64.5356 220.004 63.1414 222.676 61.5238C225.348 59.9061 227.563 58.5758 229.288 57.5009V57.4051L229.021 57.3093C227.265 58.3097 224.986 59.6613 222.474 61.1513C219.663 62.8328 217.161 64.3547 215.394 65.4508Z" fill="#0550FF"/>
<path d="M215.043 65.6746L215.202 65.7384V65.6001L215.043 65.6746Z" fill="#0550FF"/>
<path d="M215.383 65.4618C215.383 65.5576 215.383 65.6639 215.468 65.7597L215.745 65.6001L215.394 65.4512L215.383 65.4618Z" fill="#0550FF"/>
<path d="M229.213 57.1819L229 57.3095L229.266 57.4053C229.245 57.3308 229.234 57.2457 229.213 57.1819Z" fill="#0550FF"/>
<path d="M203.981 60.7896C205.748 59.7892 208.058 58.4376 210.592 56.937C213.392 55.2768 215.916 53.7443 217.662 52.68L217.321 52.531C215.522 53.542 213.062 54.9788 210.379 56.5752C207.696 58.1715 205.439 59.5338 203.704 60.598V60.6938L203.981 60.7896Z" fill="#0550FF"/>
<path d="M203.682 60.6833L203.746 60.9068L203.938 60.7897L203.682 60.6833Z" fill="#0550FF"/>
<path d="M217.895 52.4885L217.544 52.3608L217.278 52.5204L217.619 52.6693L217.895 52.4885Z" fill="#0550FF"/>
<path d="M205.875 69.0164C205.056 65.7278 204.289 62.8331 203.746 61.0345L203.597 60.96L203.48 61.0345C203.885 62.8543 204.545 65.7917 205.418 69.1228C206.141 71.9856 206.812 74.5505 207.302 76.3597L207.642 76.4874C207.27 74.6569 206.62 71.9856 205.875 69.0164Z" fill="#0550FF"/>
<path d="M207.345 76.3596L207.473 76.7958L207.782 76.9234L207.686 76.4873L207.345 76.3596Z" fill="#0550FF"/>
<path d="M203.64 60.9175L203.789 60.9919V60.8643L203.64 60.9175Z" fill="#0550FF"/>
<path d="M203.491 60.9175V61.0558L203.608 60.9813L203.491 60.9175Z" fill="#0550FF"/>
<path d="M203.661 60.5874L203.576 60.6402H203.682L203.661 60.5874Z" fill="#0550FF"/>
<path d="M203.746 60.9175L203.683 60.6941H203.576L203.459 60.7686V60.9494L203.608 61.0132L203.746 60.9175Z" fill="#0550FF"/>
<path d="M215.49 65.8447H215.383L215.234 65.9299C215.66 67.7923 216.373 70.6977 217.214 73.965C217.949 76.8597 218.651 79.4565 219.162 81.287L219.333 81.3722L219.46 81.287C219.034 79.4352 218.396 76.7959 217.629 73.8373C216.756 70.5594 216.011 67.6752 215.49 65.8447Z" fill="#0550FF"/>
<path d="M219.205 81.4148L219.333 81.3297L219.163 81.2446L219.205 81.4148Z" fill="#0550FF"/>
<path d="M215.383 65.451L215.107 65.334L215.17 65.5999L215.383 65.4617V65.451Z" fill="#0550FF"/>
<path d="M215.489 65.8445V65.76H215.404L215.489 65.8445Z" fill="#0550FF"/>
<path d="M219.504 81.3936V81.2446L219.376 81.3297L219.504 81.3936Z" fill="#0550FF"/>
<path d="M219.333 81.3296L219.205 81.4147V81.5743H219.333L219.482 81.4892V81.3509L219.333 81.3296Z" fill="#0550FF"/>
<path d="M215.234 65.8875L215.383 65.8024L215.202 65.7385L215.234 65.8875Z" fill="#0550FF"/>
<path d="M215.17 65.6001V65.7384L215.351 65.8023H215.436C215.436 65.7065 215.436 65.6001 215.351 65.5044L215.17 65.6001Z" fill="#0550FF"/>
<path d="M233.163 73.0392L233.461 72.8689C233.045 71.1235 232.503 68.8993 231.885 66.4834C231.47 64.8232 231.065 63.2907 230.693 61.8965L230.352 62.0774C230.682 63.4396 231.055 64.9615 231.417 66.5898C232.098 69.0483 232.726 71.2938 233.163 73.0392Z" fill="#0550FF"/>
<path d="M229.287 57.5011C229.468 58.4057 229.798 59.8105 230.214 61.5133L230.544 61.3005C230.107 59.6828 229.735 58.3525 229.479 57.4905H229.373L229.287 57.5011Z" fill="#0550FF"/>
<path d="M229.532 57.4899V57.3948L229.447 57.4476L229.532 57.4899Z" fill="#0550FF"/>
<path d="M229.362 57.0967L229.192 57.0222V57.2031L229.362 57.0967Z" fill="#0550FF"/>
<path d="M233.259 73.3689L233.536 73.1987C233.536 73.0923 233.536 72.9859 233.461 72.8689L233.163 73.0391L233.259 73.3689Z" fill="#0550FF"/>
<path d="M229.372 57.448H229.266V57.5431L229.372 57.448Z" fill="#0550FF"/>
<path d="M229.266 57.405H229.373L229.458 57.3518L229.362 57.054L229.213 57.1391C229.234 57.2454 229.245 57.3306 229.266 57.405Z" fill="#0550FF"/>
<path d="M255.723 60.4703C254.126 59.7679 251.656 58.7143 248.877 57.5756C247.174 56.8838 245.598 56.2453 244.246 55.7131L244.342 56.1495C245.63 56.7029 247.121 57.3202 248.707 57.98C251.497 59.1187 254.03 60.1085 255.627 60.7258L255.776 60.6406L255.723 60.4703Z" fill="#4B4B4C"/>
<path d="M243.256 41.6224C244.246 42.0375 245.385 42.4632 246.45 42.9314C248.377 43.6871 250.144 44.3682 251.571 44.9003L251.688 44.8258C251.688 44.73 251.688 44.6449 251.688 44.5597C250.293 43.985 248.558 43.2826 246.663 42.527L243.469 41.2499L240.85 40.1324L240.562 40.0154L240.371 40.1324V40.2602L240.69 40.4091L243.256 41.6224Z" fill="#4B4B4C"/>
<path d="M260.812 34.6621C262.569 35.3645 264.208 36.0137 265.561 36.5352L265.784 36.4075C265.78 36.3472 265.78 36.2868 265.784 36.2265C264.443 35.6518 262.792 34.9814 261.014 34.2577C258.406 33.1934 256.053 32.2888 254.509 31.7141L254.222 31.895C255.691 32.5549 258.087 33.5659 260.812 34.6621Z" fill="#4B4B4C"/>
<path d="M263.399 55.9898C262.175 56.7135 261.004 57.4159 259.929 58.1183C259.929 58.2248 260.014 58.3631 260.056 58.5121L263.623 56.3836C265.987 54.9788 268.148 53.6698 269.819 52.6268L269.723 52.2969C268.009 53.2547 265.806 54.5318 263.399 55.9898Z" fill="#4B4B4C"/>
<path d="M256.064 60.6301L256.213 60.694L259.758 58.64C259.758 58.4803 259.758 58.3313 259.758 58.2036C258.321 59.0763 257.054 59.8532 256.075 60.4705L256.064 60.6301Z" fill="#4B4B4C"/>
<path d="M256.149 60.7576L256.266 60.6937L256.117 60.6299L256.149 60.7576Z" fill="#4B4B4C"/>
<path d="M255.628 60.726L255.819 60.8004V60.6409L255.628 60.726Z" fill="#4B4B4C"/>
<path d="M251.965 44.6876L252.306 44.8259C254.095 43.7617 256.565 42.3675 259.237 40.7498C261.909 39.1322 264.124 37.8019 265.848 36.7376V36.6312L265.582 36.5354C263.836 37.5358 261.547 38.8874 259.045 40.3774C256.224 42.0589 253.722 43.5808 251.965 44.6876Z" fill="#4B4B4C"/>
<path d="M251.614 44.9534L251.763 45.0172V44.8789L251.614 44.9534Z" fill="#4B4B4C"/>
<path d="M252.029 44.9536L252.306 44.7941L251.965 44.6558C251.976 44.7834 252.008 44.8898 252.029 44.9536Z" fill="#4B4B4C"/>
<path d="M265.784 36.4397L265.561 36.5674L265.827 36.6631C265.816 36.5567 265.795 36.4397 265.784 36.4397Z" fill="#4B4B4C"/>
<path d="M240.509 40.0154C242.266 39.015 244.587 37.6634 247.121 36.1628C249.91 34.5026 252.444 32.9701 254.179 31.9058L253.839 31.7568C252.05 32.8211 249.58 34.2046 246.897 35.801C244.214 37.3974 241.957 38.7596 240.222 39.8239V39.9196L240.509 40.0154Z" fill="#4B4B4C"/>
<path d="M240.254 39.9092L240.318 40.1326L240.509 40.0156L240.254 39.9092Z" fill="#4B4B4C"/>
<path d="M254.467 31.7141L254.116 31.5864L253.839 31.746L254.179 31.8949L254.467 31.7141Z" fill="#4B4B4C"/>
<path d="M244.246 55.7126C244.161 55.3296 244.065 54.9041 243.959 54.4573L243.661 54.6381C243.746 54.9679 243.831 55.2871 243.916 55.5849L244.246 55.7126Z" fill="#4B4B4C"/>
<path d="M242.447 48.2422C241.616 44.9536 240.861 42.0589 240.318 40.2603L240.169 40.1858L240.052 40.2603C240.456 42.0802 241.116 45.0281 242 48.3486C242.51 50.4133 243.011 52.3183 243.426 53.904L243.756 53.7231C243.373 52.148 242.958 50.2749 242.447 48.2422Z" fill="#4B4B4C"/>
<path d="M243.916 55.5962C243.916 55.7451 244.001 55.8941 244.033 56.0324L244.342 56.16L244.246 55.7238L243.916 55.5962Z" fill="#4B4B4C"/>
<path d="M240.179 40.1858L240.328 40.2602V40.1326L240.179 40.1858Z" fill="#4B4B4C"/>
<path d="M240.062 40.1218V40.2601L240.179 40.1857L240.062 40.1218Z" fill="#4B4B4C"/>
<path d="M240.179 39.8132L240.105 39.8661H240.211L240.179 39.8132Z" fill="#4B4B4C"/>
<path d="M240.317 40.1326L240.254 39.9092H240.147L240.02 39.9837V40.1645L240.158 40.2283L240.317 40.1326Z" fill="#4B4B4C"/>
<path d="M256.031 60.4703C255.595 58.6185 254.967 55.9792 254.19 53.0206C253.36 49.764 252.583 46.8798 252.061 45.0493H251.954L251.795 45.1345C252.221 46.9969 252.934 49.9023 253.775 53.1696C254.52 56.0643 255.212 58.6718 255.723 60.4916L255.904 60.5767L256.031 60.4703Z" fill="#4B4B4C"/>
<path d="M255.904 60.5553L255.723 60.4702L255.776 60.6404L255.904 60.5553Z" fill="#4B4B4C"/>
<path d="M251.944 44.6768L251.678 44.5598C251.678 44.6449 251.678 44.73 251.678 44.8258L251.89 44.6875L251.944 44.6768Z" fill="#4B4B4C"/>
<path d="M252.06 45.0701V44.9856H251.986L252.06 45.0701Z" fill="#4B4B4C"/>
<path d="M256.064 60.6298V60.4702L255.936 60.5553L256.064 60.6298Z" fill="#4B4B4C"/>
<path d="M255.904 60.5554L255.776 60.6405V60.8001H255.904L256.053 60.715V60.5873L255.904 60.5554Z" fill="#4B4B4C"/>
<path d="M251.763 44.9536V45.1025L251.922 45.0174L251.763 44.9536Z" fill="#4B4B4C"/>
<path d="M252.029 44.9536C252.029 44.8579 252.029 44.7515 251.943 44.6558L251.731 44.7941V44.9324L251.922 44.9962L252.029 44.9536Z" fill="#4B4B4C"/>
<path d="M265.849 36.7376C266.21 38.4191 267.03 41.8566 268.041 45.8157C268.659 48.2741 269.255 50.5197 269.723 52.265L270.032 52.0948C269.617 50.3494 269.063 48.1251 268.457 45.7093C267.456 41.7822 266.54 38.3872 266.051 36.7163H265.934L265.849 36.7376Z" fill="#4B4B4C"/>
<path d="M266.05 36.7156V36.6311H265.965L266.05 36.7156Z" fill="#4B4B4C"/>
<path d="M265.923 36.3228L265.742 36.2483C265.738 36.3085 265.738 36.3689 265.742 36.4291L265.923 36.3228Z" fill="#4B4B4C"/>
<path d="M269.819 52.5947L270.107 52.4245C270.076 52.3161 270.051 52.206 270.032 52.0947L269.724 52.2649L269.819 52.5947Z" fill="#4B4B4C"/>
<path d="M265.933 36.6738H265.827V36.7795L265.933 36.6738Z" fill="#4B4B4C"/>
<path d="M265.827 36.631H265.933H266.019C266.019 36.514 265.955 36.4183 265.923 36.3225L265.785 36.4076C265.795 36.4395 265.816 36.5565 265.827 36.631Z" fill="#4B4B4C"/>
<path d="M299.13 77.5621C297.533 76.8597 295.063 75.8061 292.273 74.6674C290.58 73.9756 289.005 73.3371 287.653 72.8049L287.748 73.2413C289.037 73.7947 290.517 74.412 292.114 75.0718C294.903 76.2105 297.437 77.2003 299.034 77.8176L299.172 77.7324L299.13 77.5621Z" fill="#0550FF"/>
<path d="M286.662 58.7144C287.642 59.1295 288.792 59.5552 289.856 60.0235C291.784 60.7791 293.551 61.4602 294.977 61.9923L295.095 61.9178C295.095 61.8221 295.095 61.7369 295.041 61.6518C293.647 61.0771 291.911 60.3747 290.016 59.6191L286.822 58.342L284.203 57.2245L283.916 57.1074L283.713 57.2245V57.3522L284.033 57.5012L286.662 58.7144Z" fill="#0550FF"/>
<path d="M304.219 51.7541C305.976 52.4565 307.605 53.1057 308.967 53.6272L309.18 53.4995V53.3186C307.839 52.7439 306.189 52.0734 304.411 51.3497C301.791 50.2855 299.449 49.3808 297.895 48.8062L297.618 48.9871C299.098 49.6469 301.493 50.658 304.219 51.7541Z" fill="#0550FF"/>
<path d="M306.806 73.0818C304.985 74.1461 303.293 75.2103 301.845 76.0724L301.941 76.4449C303.431 75.5828 305.135 74.5505 307.03 73.4437C309.393 72.0389 311.554 70.7298 313.226 69.6869L313.13 69.3569C311.416 70.3467 309.212 71.6451 306.806 73.0818Z" fill="#0550FF"/>
<path d="M299.428 77.5624V77.722L299.577 77.7859L301.418 76.7216L301.355 76.3491L299.428 77.5624Z" fill="#0550FF"/>
<path d="M299.502 77.8498L299.619 77.786L299.47 77.7222L299.502 77.8498Z" fill="#4B4B4C"/>
<path d="M299.034 77.8178L299.225 77.8922V77.7327L299.034 77.8178Z" fill="#4B4B4C"/>
<path d="M295.371 61.7794L295.712 61.9177C297.5 60.8535 299.97 59.4593 302.643 57.8416C305.315 56.224 307.53 54.8937 309.254 53.8294V53.723L308.988 53.6272C307.242 54.6276 304.953 55.9792 302.451 57.4691C299.63 59.1507 297.128 60.6725 295.371 61.7794Z" fill="#0550FF"/>
<path d="M295.02 61.9817L295.169 62.0455V61.9072L295.02 61.9817Z" fill="#0550FF"/>
<path d="M295.35 61.7795C295.35 61.8753 295.403 61.9817 295.435 62.0774L295.712 61.9178L295.371 61.7795H295.35Z" fill="#0550FF"/>
<path d="M309.18 53.4678L308.967 53.5954L309.233 53.6912C309.212 53.6486 309.201 53.5742 309.18 53.4678Z" fill="#0550FF"/>
<path d="M283.916 57.1075C285.673 56.1071 287.983 54.7555 290.527 53.2549C293.317 51.5946 295.851 50.0621 297.586 48.9979L297.245 48.8489C295.457 49.9131 292.987 51.2967 290.304 52.893C287.621 54.4894 285.364 55.8517 283.628 56.9159V57.0117L283.916 57.1075Z" fill="#0550FF"/>
<path d="M283.649 57.001L283.713 57.2244L283.915 57.1073L283.649 57.001Z" fill="#0550FF"/>
<path d="M297.862 48.8064L297.511 48.6787L297.245 48.8383L297.586 48.9872L297.862 48.8064Z" fill="#0550FF"/>
<path d="M285.853 65.3338C285.023 62.0453 284.256 59.1505 283.724 57.3519L283.575 57.2881L283.458 57.3519C283.862 59.1718 284.522 62.1198 285.395 65.4403C286.119 68.3031 286.79 70.8679 287.29 72.6772L287.62 72.8049C287.237 70.9744 286.598 68.3031 285.853 65.3338Z" fill="#0550FF"/>
<path d="M287.323 72.6775C287.323 72.8264 287.397 72.9754 287.44 73.1137L287.748 73.2413L287.652 72.8051L287.323 72.6775Z" fill="#0550FF"/>
<path d="M283.607 57.2884L283.756 57.3523V57.2246L283.607 57.2884Z" fill="#0550FF"/>
<path d="M283.458 57.2139V57.3522L283.575 57.2883L283.458 57.2139Z" fill="#4B4B4C"/>
<path d="M283.628 56.905L283.543 56.9579H283.649L283.628 56.905Z" fill="#0550FF"/>
<path d="M283.713 57.2244L283.649 57.001H283.543L283.426 57.0754V57.2563L283.575 57.3308L283.713 57.2244Z" fill="#0550FF"/>
<path d="M295.457 62.1626H295.35L295.201 62.2477C295.627 64.1102 296.34 67.0156 297.181 70.2828C297.926 73.1776 298.618 75.785 299.129 77.6049L299.31 77.69L299.427 77.6049C299.001 75.7531 298.363 73.1137 297.596 70.1551C296.755 66.8772 295.989 63.9931 295.457 62.1626Z" fill="#0550FF"/>
<path d="M299.172 77.7325L299.311 77.6474L299.13 77.5623L299.172 77.7325Z" fill="#4B4B4C"/>
<path d="M295.35 61.7686L295.084 61.6516C295.084 61.7367 295.084 61.8218 295.137 61.9176L295.35 61.7793V61.7686Z" fill="#0550FF"/>
<path d="M295.456 62.1619V62.0774H295.371L295.456 62.1619Z" fill="#0550FF"/>
<path d="M299.47 77.7218V77.5623L299.353 77.6474L299.47 77.7218Z" fill="#4B4B4C"/>
<path d="M299.31 77.6475L299.172 77.7326V77.8921H299.3L299.449 77.807V77.6794L299.31 77.6475Z" fill="#4B4B4C"/>
<path d="M295.201 62.2053L295.35 62.1202L295.169 62.0564L295.201 62.2053Z" fill="#0550FF"/>
<path d="M295.137 61.9175V62.0558L295.318 62.1196H295.403C295.403 62.0239 295.403 61.9175 295.318 61.8218L295.137 61.9175Z" fill="#0550FF"/>
<path d="M309.255 53.8294C309.606 55.5109 310.436 58.9484 311.437 62.9074C312.065 65.3659 312.661 67.6114 313.129 69.3568L313.427 69.1865C313.023 67.4412 312.469 65.2169 311.863 62.801C310.862 58.8739 309.947 55.479 309.446 53.8081H309.34L309.255 53.8294Z" fill="#0550FF"/>
<path d="M309.445 53.8077V53.7231H309.361L309.445 53.8077Z" fill="#0550FF"/>
<path d="M309.382 53.4675L309.212 53.3931V53.5739L309.382 53.4675Z" fill="#0550FF"/>
<path d="M313.225 69.6868L313.513 69.5166C313.513 69.4102 313.459 69.3038 313.428 69.1868L313.13 69.357L313.225 69.6868Z" fill="#0550FF"/>
<path d="M309.381 53.7656H309.276V53.8713L309.381 53.7656Z" fill="#0550FF"/>
<path d="M309.233 53.7228H309.339H309.425C309.425 53.6058 309.361 53.5101 309.329 53.4143L309.18 53.4994C309.201 53.5739 309.212 53.6484 309.233 53.7228Z" fill="#0550FF"/>
<path d="M230.128 103.019C230.085 102.894 230.003 102.786 229.894 102.712C229.784 102.637 229.654 102.599 229.522 102.604L228.787 99.2305L228.553 98.1663L227.946 98.5281L228.074 98.9751C228.074 98.9751 228.127 99.1879 228.191 99.4114C228.255 99.6349 228.659 101.029 229.16 102.785C229.054 102.871 228.979 102.99 228.949 103.123C228.919 103.257 228.935 103.396 228.994 103.519C229.053 103.642 229.152 103.742 229.275 103.802C229.398 103.862 229.537 103.878 229.671 103.849C229.759 103.832 229.843 103.796 229.916 103.742C229.99 103.689 230.05 103.621 230.094 103.541C230.137 103.462 230.163 103.374 230.169 103.284C230.175 103.194 230.161 103.103 230.128 103.019Z" fill="#4B4B4C"/>
<path d="M226.828 90.3866C226.04 86.9703 225.316 83.8733 224.699 81.6278C224.411 80.4677 224.167 79.4993 223.986 78.9246L223.688 79.0948C223.762 79.7334 223.911 80.638 224.103 81.7555C224.507 84.033 225.167 87.1512 225.934 90.5888C226.583 93.3984 227.232 95.9739 227.786 98.0385L228.414 97.6767C228.02 95.6227 227.456 93.111 226.828 90.3866Z" fill="#4B4B4C"/>
<path d="M228.382 98.166L228.286 97.7617L227.669 98.1341L227.776 98.5277L228.382 98.166Z" fill="#4B4B4C"/>
<path d="M223.74 78.6265L223.517 78.7541C223.517 78.8818 223.517 79.0307 223.517 79.2009L223.826 79.0201C223.815 78.8711 223.772 78.7328 223.74 78.6265Z" fill="#0550FF"/>
<path d="M265.986 83.7139C266.12 83.6578 266.23 83.5572 266.298 83.4292C266.366 83.3011 266.387 83.1536 266.359 83.0115C266.329 82.8612 266.248 82.726 266.13 82.6289C266.011 82.5318 265.863 82.4789 265.71 82.4794C265.401 81.2768 265.092 80.0422 264.815 78.7651C264.72 78.3394 264.634 77.9137 264.539 77.488L263.932 77.8605C263.985 78.0414 264.028 78.2224 264.081 78.4033C264.081 78.4033 264.155 78.68 264.23 78.9141C264.304 79.1483 264.805 80.6808 265.486 82.5539C265.354 82.639 265.257 82.7676 265.21 82.9174C265.163 83.0671 265.171 83.2284 265.231 83.3733C265.294 83.5122 265.405 83.6233 265.544 83.686C265.683 83.7487 265.84 83.7586 265.986 83.7139Z" fill="#4B4B4C"/>
<path d="M260.195 61.3536C260.599 63.6205 261.259 66.7494 262.015 70.1763C262.643 72.9114 263.282 75.423 263.825 77.4664L264.453 77.0939C264.016 75.0718 263.463 72.624 262.856 69.9847C262.068 66.5578 261.344 63.4608 260.791 61.2259C260.493 60.0233 260.237 59.0974 260.056 58.4695L259.758 58.6398C259.844 59.2783 259.993 60.2042 260.195 61.3536Z" fill="#4B4B4C"/>
<path d="M263.932 77.86L264.538 77.4876C264.538 77.36 264.485 77.2323 264.453 77.094L263.825 77.4663L263.932 77.86Z" fill="#4B4B4C"/>
<path d="M259.716 58.2033C259.716 58.331 259.716 58.4799 259.716 58.6395L260.014 58.4693C260.014 58.3204 259.929 58.1821 259.886 58.0757L259.716 58.2033Z" fill="#4B4B4C"/>
<path d="M304.282 86.2889C303.505 82.862 302.77 79.765 302.217 77.5301C302.121 77.1363 302.025 76.7851 301.94 76.4658L301.461 76.7425C301.514 77.0405 301.568 77.3385 301.621 77.6791C302.025 79.9459 302.685 83.0642 303.452 86.5017C304.165 89.6306 304.889 92.4615 305.485 94.622L306.07 94.2814C305.613 92.0997 304.985 89.322 304.282 86.2889Z" fill="#4B4B4C"/>
<path d="M307.05 100.188C307.193 100.163 307.322 100.086 307.412 99.9722C307.502 99.8585 307.548 99.7159 307.54 99.5711C307.531 99.4197 307.468 99.2765 307.362 99.1673C307.257 99.0581 307.116 98.99 306.965 98.9751L306.784 97.7619C306.614 96.8679 306.433 95.9739 306.252 95.0693L306.156 94.6223L305.581 94.9629V95.0906V95.2183C305.581 95.2928 305.784 95.9739 306.273 97.8576L306.582 99.0496C306.475 99.12 306.391 99.2198 306.34 99.3369C306.289 99.454 306.274 99.5834 306.295 99.7094C306.312 99.7908 306.346 99.8679 306.394 99.9361C306.441 100.004 306.502 100.062 306.572 100.107C306.643 100.152 306.721 100.182 306.803 100.196C306.885 100.21 306.969 100.207 307.05 100.188Z" fill="#4B4B4C"/>
<path d="M306.188 94.622L306.102 94.2603L305.517 94.6007L305.613 94.9624L306.188 94.622Z" fill="#4B4B4C"/>
<path d="M301.844 76.0725L301.397 76.3491L301.461 76.7214L301.94 76.4448L301.844 76.0725Z" fill="#0550FF"/>
<path d="M283 96.4635L282.712 96.6445L282.585 96.7189L284.767 97.6342C288.632 99.2093 292.071 100.55 294.2 101.306C294.37 101.199 294.541 101.093 294.722 100.997C292.71 100.039 289.164 98.5069 285.14 96.836L282.915 95.9314C282.915 95.9953 282.915 96.0698 282.915 96.1443C282.915 96.2188 282.968 96.3571 283 96.4635Z" fill="#4B4B4C"/>
<path d="M273.067 92.43C273.023 92.5826 273.037 92.746 273.105 92.8891C273.174 93.0323 273.293 93.1453 273.439 93.2069C273.571 93.2585 273.716 93.2678 273.853 93.2335C273.99 93.1992 274.114 93.1229 274.206 93.0153L275.845 93.7922C277.975 94.8565 280.104 95.7292 282.233 96.5593L282.659 96.3145C282.659 96.1336 282.563 95.9526 282.51 95.7717L274.365 92.7067C274.361 92.5559 274.307 92.4109 274.21 92.295C274.114 92.1791 273.981 92.0992 273.833 92.0681C273.683 92.0243 273.522 92.0369 273.381 92.1036C273.24 92.1703 273.128 92.2864 273.067 92.43Z" fill="#4B4B4C"/>
<path d="M294.626 101.455L295.104 101.178L294.721 100.997C294.541 101.093 294.37 101.199 294.2 101.306L294.626 101.455Z" fill="#4B4B4C"/>
<path d="M282.584 96.7187L282.712 96.6443L282.616 96.3145L282.191 96.5591L282.584 96.7187Z" fill="#4B4B4C"/>
<path d="M282.617 96.3143L282.915 96.1441C282.915 96.0696 282.915 95.9951 282.915 95.9313L282.51 95.7717C282.521 95.9526 282.574 96.1334 282.617 96.3143Z" fill="#4B4B4C"/>
<path d="M283 96.4632C283 96.3568 282.947 96.2504 282.915 96.144L282.617 96.3142L282.712 96.644L283 96.4632Z" fill="#4B4B4C"/>
<path d="M250.9 99.9753C248.271 101.465 245.896 102.859 244.087 103.956C244.14 104.168 244.193 104.381 244.257 104.605C246.152 103.604 248.622 102.253 251.326 100.72C253.147 99.6561 254.85 98.7089 256.32 97.8255C256.256 97.5914 256.192 97.336 256.117 97.0806C254.573 97.9107 252.795 98.9004 250.9 99.9753Z" fill="#4B4B4C"/>
<path d="M260.407 94.2495C260.279 94.3264 260.178 94.4418 260.118 94.5794C260.059 94.7169 260.045 94.8696 260.077 95.0158L256.415 96.8782C256.479 97.1336 256.532 97.3784 256.596 97.6125L260.279 95.3457C260.427 95.4267 260.597 95.454 260.762 95.4229C260.927 95.3918 261.077 95.3044 261.184 95.1754C261.277 95.0571 261.328 94.9109 261.328 94.7604C261.328 94.6098 261.277 94.4636 261.184 94.3453C261.082 94.2485 260.951 94.187 260.811 94.1698C260.672 94.1525 260.53 94.1805 260.407 94.2495Z" fill="#4B4B4C"/>
<path d="M243.788 104.211C243.841 104.413 243.884 104.615 243.937 104.839L244.267 104.658C244.214 104.434 244.15 104.232 244.097 104.02L243.788 104.211Z" fill="#4B4B4C"/>
<path d="M256.479 96.9529L256.149 97.1018L256.341 97.8465L256.67 97.655C256.596 97.4529 256.543 97.2082 256.479 96.9529Z" fill="#4B4B4C"/>
<path d="M292.209 118.834C289.548 120.345 287.152 121.75 285.342 122.857C285.396 123.07 285.449 123.283 285.513 123.495C287.408 122.506 289.91 121.133 292.635 119.59C294.222 118.685 295.712 117.823 297.054 117.035C296.99 116.791 296.915 116.535 296.841 116.259C295.435 117.025 293.87 117.898 292.209 118.834Z" fill="#4B4B4C"/>
<path d="M302.771 113.289C302.716 113.202 302.643 113.128 302.555 113.073C302.468 113.018 302.369 112.983 302.267 112.972C302.164 112.961 302.061 112.973 301.964 113.008C301.866 113.042 301.778 113.098 301.706 113.172C301.642 113.256 301.597 113.353 301.575 113.456C301.553 113.559 301.554 113.665 301.578 113.768L301.206 113.949C299.786 114.658 298.423 115.368 297.117 116.077C297.181 116.354 297.235 116.61 297.298 116.854L301.781 114.087C301.871 114.141 301.972 114.175 302.077 114.186C302.182 114.197 302.288 114.185 302.387 114.151C302.552 114.087 302.685 113.96 302.756 113.799C302.828 113.637 302.833 113.454 302.771 113.289Z" fill="#4B4B4C"/>
<path d="M284.991 123.07C285.044 123.272 285.097 123.485 285.14 123.687L285.512 123.495C285.448 123.282 285.395 123.07 285.342 122.857L284.991 123.07Z" fill="#0550FF"/>
<path d="M297.159 116.088L296.84 116.258C296.915 116.535 296.989 116.79 297.053 117.035L297.34 116.865C297.277 116.62 297.223 116.365 297.159 116.088Z" fill="#4B4B4C"/>
<path d="M238.444 57.6606C240.36 56.5964 242.138 55.5321 243.661 54.6381C243.597 54.404 243.533 54.1592 243.458 53.9038C241.861 54.7659 239.998 55.7875 238.018 56.9156C235.058 58.5972 232.407 60.1084 230.565 61.3004C230.565 61.4919 230.661 61.6941 230.714 61.8963C232.652 60.9172 235.409 59.3847 238.444 57.6606Z" fill="#4B4B4C"/>
<path d="M249.644 50.9986C249.565 50.8863 249.451 50.8033 249.32 50.7628C249.189 50.7224 249.048 50.7267 248.92 50.7751C248.805 50.8237 248.707 50.9053 248.639 51.0095C248.571 51.1137 248.535 51.2359 248.537 51.3605L247.312 51.9032C246.035 52.4886 244.864 53.1058 243.788 53.7231C243.841 53.9785 243.905 54.2233 243.959 54.4574L248.622 51.6159C248.699 51.7592 248.829 51.8665 248.984 51.9143C249.14 51.9621 249.308 51.9467 249.452 51.8713C249.523 51.8269 249.583 51.7691 249.631 51.701C249.679 51.633 249.713 51.5562 249.73 51.475C249.748 51.3938 249.75 51.3099 249.735 51.2281C249.72 51.1464 249.689 51.0683 249.644 50.9986Z" fill="#4B4B4C"/>
<path d="M230.352 62.0771L230.692 61.8963C230.639 61.6942 230.586 61.492 230.544 61.3005L230.214 61.5133C230.256 61.6942 230.299 61.8856 230.352 62.0771Z" fill="#0550FF"/>
<path d="M243.958 54.4572C243.905 54.2231 243.841 53.9785 243.788 53.7231L243.458 53.904C243.533 54.1593 243.597 54.404 243.661 54.638L243.958 54.4572Z" fill="#4B4B4C"/>
<path d="M258.076 121.654C256.064 120.59 253.328 119.142 250.283 117.631C249.218 117.088 248.154 116.567 247.174 116.099L247.27 116.524C247.27 116.631 247.323 116.737 247.355 116.844L247.11 116.993L249.9 118.397C253.168 120.026 256.128 121.452 258.247 122.41C258.247 122.186 258.151 121.973 258.108 121.771L258.076 121.654Z" fill="#4B4B4C"/>
<path d="M238.455 112.512C238.418 112.651 238.431 112.798 238.491 112.928C238.552 113.058 238.655 113.163 238.785 113.225C238.898 113.282 239.026 113.305 239.152 113.291C239.278 113.278 239.398 113.23 239.498 113.151L240.871 113.821C241.595 114.151 242.319 114.492 243.065 114.886C244.363 115.524 245.598 116.184 246.759 116.833L246.972 116.716C246.908 116.461 246.833 116.195 246.759 115.918C243.65 114.449 241.361 113.385 240.925 113.193L240.52 113.023C240.19 112.896 239.924 112.789 239.721 112.725C239.702 112.619 239.659 112.518 239.597 112.43C239.534 112.342 239.453 112.268 239.359 112.214C239.2 112.136 239.015 112.123 238.846 112.179C238.677 112.235 238.537 112.354 238.455 112.512Z" fill="#4B4B4C"/>
<path d="M247.046 116.961C247.046 116.876 247.046 116.791 246.972 116.695L246.759 116.812L247.046 116.961Z" fill="#4B4B4C"/>
<path d="M246.972 116.695L247.27 116.524L247.174 116.099L246.759 115.897C246.833 116.173 246.908 116.439 246.972 116.695Z" fill="#4B4B4C"/>
<path d="M247.27 116.525L246.972 116.695C246.972 116.791 247.025 116.876 247.046 116.961H247.11L247.355 116.812C247.323 116.737 247.302 116.631 247.27 116.525Z" fill="#4B4B4C"/>
<path d="M258.374 121.814L258.204 121.718L258.108 121.771C258.108 121.973 258.204 122.186 258.246 122.41L258.587 122.569C258.512 122.303 258.449 122.048 258.374 121.814Z" fill="#0550FF"/>
<path d="M258.108 121.771L258.204 121.718L258.076 121.654L258.108 121.771Z" fill="#0550FF"/>
</svg>
