<svg width="43" height="19" viewBox="0 0 43 19" fill="none" xmlns="http://www.w3.org/2000/svg">
<g clip-path="url(#clip0_2616_8407)">
<path d="M6.50245 10.3648C6.54031 10.5061 7.96716 10.2674 9.11308 9.96553C10.3036 9.64653 11.6339 9.14902 11.5967 9.01017C11.5595 8.87131 10.2609 9.09116 9.25895 9.33633C7.9046 9.66688 6.46298 10.2175 6.50245 10.3648Z" fill="#7F66CC"/>
<path d="M0.342297 12.0154C0.380149 12.1567 1.807 11.918 2.95292 11.6162C4.14343 11.2972 5.47374 10.7997 5.43654 10.6608C5.39933 10.5219 4.10073 10.7418 3.09879 10.987C1.74444 11.3175 0.302826 11.8681 0.342297 12.0154Z" fill="#7F66CC"/>
<path d="M35.7517 2.52764C35.7892 2.6677 37.2164 2.43023 38.3619 2.12715C39.5525 1.80815 40.8828 1.31064 40.8471 1.17267C40.8114 1.0347 39.5098 1.25278 38.5081 1.49916C37.1541 1.83091 35.7122 2.38034 35.7517 2.52764Z" fill="#7F66CC"/>
<path d="M29.5691 4.18439C29.607 4.32566 31.0338 4.08698 32.1794 3.7839C33.3711 3.46458 34.7014 2.96707 34.6646 2.82942C34.6277 2.69178 33.3272 2.90953 32.3268 3.15559C30.9712 3.48646 29.5296 4.03709 29.5691 4.18439Z" fill="#7F66CC"/>
<path d="M19.2097 6.3908C19.3077 6.16557 19.4548 5.96503 19.6401 5.80382C19.8254 5.6426 20.0443 5.52475 20.281 5.45887C20.5176 5.39298 20.7659 5.38072 21.0079 5.42297C21.2499 5.46522 21.4794 5.56092 21.6797 5.7031C21.7517 5.84009 21.7954 5.99022 21.8081 6.14449C21.8207 6.29876 21.8021 6.45399 21.7533 6.60089C21.57 7.07577 21.0696 7.2176 20.8339 7.28464C20.6564 7.3322 19.9585 7.53344 19.5146 7.09852C19.3315 6.90671 19.2234 6.65559 19.2097 6.3908Z" fill="#7F66CC"/>
<path d="M5.03725 11.9411C4.98492 11.9835 4.94868 12.0425 4.93455 12.1083C4.91963 12.1774 4.93067 12.2495 4.96555 12.311C4.98655 12.3448 5.01418 12.374 5.04677 12.3968C5.07936 12.4197 5.11623 12.4357 5.15517 12.4439L15.9472 11.1854C15.8156 11.6354 15.7506 12.1024 15.7543 12.5713C15.7617 12.9642 15.8122 13.3551 15.9049 13.737C15.9645 14.008 16.0412 14.2748 16.1346 14.5361C16.1345 14.5843 16.1456 14.6319 16.1668 14.6752C16.188 14.7186 16.2188 14.7565 16.257 14.786C16.2951 14.8156 16.3395 14.8361 16.3867 14.8458C16.434 14.8556 16.4828 14.8545 16.5295 14.8425C16.5763 14.8304 16.6196 14.8079 16.6563 14.7766C16.693 14.7452 16.722 14.7059 16.7411 14.6616C16.7603 14.6173 16.769 14.5692 16.7667 14.521C16.7644 14.4728 16.7511 14.4258 16.7278 14.3836C16.6025 14.0156 16.5187 13.6348 16.478 13.2483C16.4035 12.5245 16.4775 11.7931 16.6953 11.0988L17.4191 11.0135C17.7193 11.248 18.0517 11.4379 18.4062 11.5773C18.6046 11.6579 18.8125 11.7131 19.0248 11.7415C19.1809 11.7606 19.3384 11.7648 19.4953 11.7539C20.0625 11.7009 20.6255 11.6088 21.1801 11.4785C21.2241 11.6427 21.2681 11.8069 21.3121 11.9711C21.228 11.9959 21.1497 12.0372 21.0817 12.0926C21.0137 12.148 20.9574 12.2164 20.9161 12.2937C20.8748 12.3711 20.8493 12.4559 20.841 12.5432C20.8328 12.6305 20.842 12.7185 20.8681 12.8023C20.8942 12.886 20.9367 12.9637 20.9932 13.0308C21.0496 13.0979 21.1188 13.1531 21.1968 13.1933C21.2748 13.2334 21.36 13.2576 21.4474 13.2645C21.5348 13.2714 21.6227 13.2608 21.706 13.2334C21.7644 13.3231 21.8509 13.3909 21.9518 13.4264C22.0579 13.4601 22.1723 13.4281 22.3944 13.3634C22.6165 13.2988 22.7347 13.2619 22.8038 13.1722C22.8594 13.0939 22.8886 13 22.8873 12.904C23.0084 12.8926 23.1241 12.8482 23.2217 12.7755C23.307 12.7075 23.3753 12.6204 23.4208 12.5212C23.4664 12.422 23.488 12.3135 23.484 12.2044C23.4681 12.0879 23.4244 11.977 23.3565 11.881C23.2887 11.785 23.1987 11.7067 23.0942 11.6528C22.9973 11.597 22.8859 11.5714 22.7743 11.5793L22.6958 11.6003L22.6222 11.6201L22.5123 11.1422C22.8981 11.0367 23.2759 10.9039 23.6429 10.7448C24.1065 10.5429 24.4058 10.4188 24.6873 10.1751C25.0921 9.81378 25.3818 9.3415 25.5204 8.81692L26.1439 8.55022C26.282 8.68404 26.4008 8.78938 26.4857 8.85981C26.5949 8.94641 26.6992 9.039 26.7981 9.13715C26.8902 9.23645 26.9724 9.34443 27.0437 9.45958C27.2352 9.77524 27.3885 10.1125 27.5005 10.4643C27.585 10.707 27.6891 11.0233 27.7931 11.4018C27.7908 11.4532 27.8004 11.5045 27.8212 11.5516C27.8419 11.5987 27.8733 11.6404 27.9129 11.6734C27.9524 11.7063 27.9991 11.7297 28.0492 11.7416C28.0993 11.7536 28.1514 11.7538 28.2016 11.7422C28.2518 11.7306 28.2986 11.7076 28.3384 11.6749C28.3782 11.6422 28.4099 11.6008 28.431 11.5538C28.4521 11.5069 28.462 11.4556 28.4601 11.4042C28.4581 11.3527 28.4442 11.3024 28.4196 11.2572C28.332 10.9238 28.2275 10.595 28.1065 10.2722C27.9831 9.89927 27.8214 9.54014 27.6239 9.20058C27.4095 8.85044 27.1461 8.53273 26.8418 8.2571L36.9435 3.9392C36.9682 3.89929 36.9846 3.85482 36.9917 3.80845C36.9988 3.76207 36.9966 3.71474 36.9851 3.66925C36.9709 3.62216 36.947 3.57862 36.9147 3.54152C36.8825 3.50442 36.8427 3.47461 36.798 3.45408L36.3706 3.56861L36.2991 3.35484L35.7497 3.50204C35.6574 3.15753 35.5624 2.81417 35.4646 2.47197C35.4396 2.40028 35.3882 2.34083 35.3209 2.30568C35.2536 2.27054 35.1754 2.26234 35.1022 2.28276C35.0291 2.30318 34.9665 2.35069 34.9271 2.41562C34.8878 2.48055 34.8746 2.55804 34.8903 2.63233L35.1529 3.66065L34.5927 3.81077L34.6509 4.02811L25.9061 6.32985C24.6039 5.67196 23.1238 5.45256 21.6867 5.70434C21.8229 5.96324 21.8536 6.2648 21.7724 6.54584C21.5917 7.0886 20.9842 7.24102 20.7904 7.29037C20.6395 7.33081 19.8377 7.50682 19.4196 7.00415C19.2835 6.82764 19.2076 6.61211 19.2031 6.38924C17.833 6.8613 16.6613 7.78005 15.8761 8.99796L10.5774 10.4346L7.10844 11.3783L7.05048 11.1959L6.51181 11.3298C6.42316 10.999 6.33484 10.6694 6.24619 10.3386C6.22387 10.2631 6.17411 10.1987 6.1067 10.1581C6.0393 10.1175 5.95913 10.1036 5.88198 10.1191C5.84039 10.1307 5.8016 10.1506 5.76794 10.1776C5.73428 10.2047 5.70647 10.2383 5.68619 10.2764C5.6659 10.3145 5.65357 10.3563 5.64994 10.3993C5.64631 10.4423 5.65145 10.4856 5.66506 10.5266L5.92162 11.4841L5.34327 11.6391L5.39665 11.8383L5.03725 11.9411Z" fill="#5933CC"/>
</g>
<defs>
<clipPath id="clip0_2616_8407">
<rect width="41.9726" height="8.24628" fill="white" transform="translate(0 10.8633) rotate(-15)"/>
</clipPath>
</defs>
</svg>
