<svg width="47" height="19" viewBox="0 0 47 19" fill="none" xmlns="http://www.w3.org/2000/svg">
<path d="M24.3975 1.95462C22.5814 1.92553 20.7658 2.1015 18.9896 2.47879C17.9301 2.68492 17.0712 2.9132 16.4782 3.08419L5.11332 9.00159L1.77534 10.9611C1.4266 11.4668 1.19138 12.0338 1.08434 12.6267C0.943854 13.3294 1.00715 14.0529 1.26753 14.7206C1.47843 15.2393 1.80916 15.7062 2.23591 16.0878L4.52388 15.8876L4.64059 17.2216C4.66671 17.5202 4.81764 17.7955 5.06017 17.987C5.30271 18.1786 5.61697 18.2706 5.93385 18.2429L11.9973 17.7124C12.3142 17.6846 12.6077 17.5395 12.8133 17.3087C13.0189 17.078 13.1197 16.7807 13.0936 16.4821L12.966 15.0243L25.8874 13.8938L26.0352 15.5824C26.0613 15.8809 26.2122 16.1563 26.4548 16.3478C26.6973 16.5393 27.0116 16.6313 27.3284 16.6036L33.595 16.0553C33.9119 16.0276 34.2054 15.8824 34.411 15.6517C34.6166 15.421 34.7174 15.1236 34.6913 14.8251L34.4628 12.2134L43.6001 9.45718C44.3502 9.24129 44.9869 8.7634 45.3795 8.12178C45.6487 7.6218 45.6005 7.00212 45.5046 5.76839C45.4091 4.67642 45.3604 4.11919 44.9939 3.71452C44.5909 3.32533 44.0505 3.0885 43.4728 3.04788L24.3975 1.95462Z" fill="#9583CC"/>
<path d="M1.70655 11.0994C1.75285 11.0297 1.81539 10.9725 1.88722 10.9296L5.11331 9.00138L16.4472 3.087C16.4824 3.06863 16.5193 3.05379 16.5575 3.0428C17.1429 2.87426 17.986 2.6535 19.0115 2.45398C20.7878 2.07669 22.6033 1.90071 24.4194 1.9298L30.9658 2.34169C31.4172 2.37009 31.6738 2.86767 31.4164 3.23964C30.5405 4.50518 29.5011 5.66548 28.3214 6.69301C27.0388 7.85689 25.5653 8.81728 23.9592 9.53621C21.9419 10.4217 20.7088 10.4331 15.2837 10.8284C11.7048 11.0906 8.85196 11.5756 2.7441 12.0944C2.71107 12.0972 2.67711 12.0973 2.64407 12.0947L2.04606 12.046C1.64979 12.0138 1.39488 11.6101 1.59937 11.2691C1.63373 11.2118 1.66946 11.1552 1.70655 11.0994Z" fill="#AA99DD"/>
<path d="M45.4277 4.98041C45.4445 5.17178 45.4632 5.38567 45.4844 5.6277C34.546 6.51285 29.0719 6.89913 29.0621 6.78656C29.0522 6.67398 34.5074 6.07194 45.4277 4.98041Z" fill="#AA99DD"/>
</svg>
