<svg width="62" height="26" viewBox="0 0 62 26" fill="none" xmlns="http://www.w3.org/2000/svg">
<path d="M29.47 2.6059C31.8915 2.56712 34.3122 2.80175 36.6805 3.3048C38.0932 3.57963 39.2383 3.88401 40.029 4.112L55.1823 12.0018L59.6329 14.6145C60.0979 15.2888 60.4115 16.0448 60.5543 16.8353C60.7416 17.7722 60.6572 18.7369 60.31 19.6271C60.0288 20.3187 59.5878 20.9413 59.0188 21.4501L55.9682 21.1832L55.8126 22.9619C55.7778 23.36 55.5765 23.7271 55.2531 23.9824C54.9298 24.2378 54.5107 24.3604 54.0882 24.3235L46.0036 23.6162C45.5811 23.5792 45.1898 23.3856 44.9157 23.078C44.6415 22.7704 44.5071 22.3739 44.5419 21.9758L44.712 20.032L27.4834 18.5247L27.2864 20.7762C27.2516 21.1743 27.0503 21.5414 26.727 21.7967C26.4036 22.0521 25.9846 22.1748 25.5621 22.1378L17.2066 21.4068C16.7841 21.3698 16.3928 21.1762 16.1187 20.8686C15.8445 20.561 15.7101 20.1645 15.7449 19.7664L16.0496 16.2842L3.86643 12.6093C2.86637 12.3214 2.01733 11.6842 1.49397 10.8288C1.13494 10.1621 1.19921 9.33588 1.32707 7.69092C1.45445 6.23497 1.51945 5.49199 2.00809 4.95244C2.54538 4.43351 3.2659 4.11774 4.0362 4.06358L29.47 2.6059Z" fill="#7F66CC"/>
<path d="M59.724 14.7993C59.6622 14.7064 59.5788 14.6301 59.4831 14.5729L55.1816 12.002L40.0697 4.11615C40.0228 4.09166 39.9735 4.07187 39.9227 4.05722C39.1422 3.8325 38.0179 3.53816 36.6506 3.27214C34.2823 2.76908 31.8616 2.53444 29.4401 2.57323L20.7116 3.12241C20.1096 3.16028 19.7675 3.82372 20.1108 4.31968C21.2786 6.00706 22.6645 7.55411 24.2374 8.92415C25.9475 10.476 27.9122 11.7565 30.0537 12.7151C32.7435 13.8957 34.3875 13.911 41.6211 14.4379C46.393 14.7876 50.1967 15.4343 58.3406 16.126C58.3846 16.1297 58.4299 16.1299 58.4739 16.1263L59.2713 16.0615C59.7996 16.0185 60.1395 15.4802 59.8669 15.0256C59.8211 14.9492 59.7734 14.8737 59.724 14.7993Z" fill="#9583CC"/>
<path d="M1.42712 6.64087C1.4048 6.89604 1.37985 7.18122 1.35162 7.50393C15.9361 8.68412 23.235 9.19916 23.2481 9.04906C23.2612 8.89896 15.9876 8.09624 1.42712 6.64087Z" fill="#9583CC"/>
</svg>
