<svg width="156" height="83" viewBox="0 0 156 83" fill="none" xmlns="http://www.w3.org/2000/svg">
<path d="M17.4958 64.6077C18.2401 65.5849 19.054 66.5073 19.9313 67.3679C21.7539 69.1644 25.2655 72.0666 33.1737 74.5781C38.0788 76.0973 43.1467 77.036 48.2727 77.3749C55.5754 77.9422 62.9199 77.6695 70.1609 76.5621C73.6724 76.0146 77.1527 75.2837 80.5874 74.3722C81.7753 74.0563 85.208 73.1383 89.5443 71.572C92.303 70.6294 95.0052 69.5296 97.6375 68.2782C99.4914 67.3772 100.136 66.9636 104.759 64.4397C107.283 63.0623 109.349 61.949 110.708 61.2245C113.829 60.5921 117.017 59.9822 120.272 59.3946C122.865 58.9296 125.42 58.4941 127.938 58.0881C128.532 57.682 128.962 57.0778 129.15 56.3842C129.338 55.6906 129.271 54.9532 128.962 54.3046L124.979 54.9074C126.718 53.8975 128.396 52.7882 130.006 51.5851C130.943 50.8976 131.813 50.2159 132.62 49.5035C124.05 52.627 116.61 54.9796 110.69 56.7147C104.77 58.4498 100.326 59.6197 98.2841 60.1072C95.4063 60.8374 89.2518 62.3932 83.0466 63.5779C73.978 65.2785 64.7924 66.2845 55.5705 66.5873C46.7114 67.0943 37.8268 66.9343 28.9927 66.1089C24.3345 65.6626 20.4139 65.1033 17.4958 64.6077Z" fill="url(#paint0_radial_2596_10366)"/>
<path d="M110.822 28.9747C112.322 31.5321 113.833 34.2824 115.317 37.2167C116.91 40.3533 118.288 43.3877 119.537 46.2759C123.386 45.9392 127.317 45.6478 131.331 45.4016C133.447 45.2709 135.535 45.167 137.605 45.0707C140.416 42.0776 142.805 38.717 144.705 35.0815C146.446 31.6884 147.782 28.1043 148.688 24.4023C149.584 21.0363 150.188 17.6001 150.494 14.1315C149.365 14.0473 148.231 14.0453 147.102 14.1255C147.102 14.1255 145.896 14.231 144.618 14.4275C138.379 15.5002 128.038 20.2684 128.038 20.2684C124.089 22.0854 121.092 23.6132 118.509 24.9292C115.332 26.5515 112.702 27.9624 110.822 28.9747Z" fill="url(#paint1_radial_2596_10366)"/>
<path d="M21.8985 54.7698C21.8546 55.5185 21.8052 56.2737 21.7613 57.0224C26.9117 58.6566 32.2136 59.7731 37.5879 60.355C43.4224 60.977 47.9968 60.8129 53.546 60.606C58.3929 60.4302 62.501 60.0769 67.0657 59.5927C82.5293 57.9431 91.5737 56.9762 102.9 53.6781C108.7 51.9883 114.376 49.9014 119.888 47.4322L119.406 46.3722L130.567 45.5533C140.543 44.8197 141.041 45.5029 141.091 45.7346C141.279 46.5659 136.692 48.245 131.536 50.0283C118.781 54.4324 110.674 57.2308 95.9263 60.7374C89.3772 62.2974 83.9501 63.5534 76.377 64.6641C74.6247 64.9203 68.7661 65.7599 60.9545 66.298C57.656 66.526 50.019 66.9762 39.7185 66.7147C27.2611 66.3936 20.0757 65.2661 14.4782 64.0179C9.35824 62.8793 4.55775 61.7793 4.54378 60.2303C4.49008 58.0187 13.6586 56.1084 21.8985 54.7698Z" fill="#A081FF"/>
<path d="M21.8453 54.8593L21.7026 57.1184C25.0322 58.1292 28.4195 58.941 31.8465 59.5493C42.3417 61.4106 50.9429 60.7974 67.768 59.4949C75.8639 58.8714 80.4868 58.4973 87.0279 57.3315C92.3881 56.3699 97.6919 55.1175 102.915 53.5799C109.167 51.7431 113.722 49.964 115.225 49.3661C117.097 48.5968 118.663 47.9451 119.809 47.4331L119.461 46.3735L111.247 47.0376C97.2973 48.1127 83.5348 48.9676 69.9597 49.6022C67.9794 44.6827 66.7704 43.1595 66.0009 42.8393C65.887 42.7887 65.0632 42.4732 65.086 42.1079C65.0744 41.9757 65.2074 41.8975 65.4659 41.6568C65.7244 41.4162 65.9266 41.1563 66.167 40.9173C66.726 40.3597 67.7719 38.0034 67.1543 35.4596C67.0678 34.8817 66.8089 34.3431 66.4112 33.9138C66.172 33.6804 65.8499 33.4725 64.3217 33.1641C63.2538 32.8662 62.1452 32.7384 61.0369 32.7854C60.3598 32.8394 59.6965 33.0059 59.0743 33.278C58.4508 33.5142 58.1107 33.7257 58.058 34.027C58.0675 34.1352 58.0727 34.1953 58.1486 34.4369C58.2474 34.9169 58.3822 35.3889 58.5517 35.8489C58.7158 36.1172 58.9442 36.3406 59.2164 36.4993C59.2018 36.7209 59.207 36.9433 59.232 37.164C59.2656 37.5486 59.3393 37.627 59.3494 37.8804C59.3412 38.2091 59.2617 38.5321 59.1162 38.8273C58.8991 39.4034 58.708 39.6502 58.8182 39.7981C58.9284 39.9459 59.1053 39.8153 59.2533 39.978C59.4012 40.1406 59.268 40.1463 59.3971 40.3711C59.5262 40.596 59.5734 40.5797 59.6374 40.7558C59.7014 40.9319 59.6574 40.9842 59.6763 41.2005C59.6952 41.4169 59.8675 41.5108 59.9623 41.8295C60.057 42.1482 59.9293 42.2865 60.0175 42.4605C60.1056 42.6345 60.316 42.6766 60.7385 42.7123C61.2275 42.7549 61.7198 42.7423 62.206 42.6748C62.3309 42.9081 62.3936 43.1695 62.3879 43.434C62.3649 43.7897 62.231 44.1296 62.005 44.4061C61.766 44.701 61.4803 44.9551 61.1591 45.1583C60.7514 45.5015 60.3777 45.883 60.0432 46.2975C59.3972 47.0378 58.824 47.8382 58.3317 48.6878L58.3961 49.0758L57.0717 50.4027L56.372 50.464C53.6879 50.6988 45.9251 51.3779 35.251 52.8205C29.85 53.5413 25.2768 54.2744 21.8453 54.8593Z" fill="#5933CC"/>
<path d="M119.147 46.2618L119.72 46.2117C117.31 40.2358 114.461 34.4454 111.196 28.8876L110.614 29.1747C113.867 34.6583 116.718 40.3688 119.147 46.2618Z" fill="#3F00F9"/>
<path d="M21.9752 56.8465C21.9801 56.3011 21.9926 55.7489 22.0126 55.1901L21.5634 55.2657C21.5517 55.7572 21.5455 56.2422 21.5388 56.7212L21.9752 56.8465Z" fill="#3F00F9"/>
<path d="M119.233 46.4783L119.583 47.356L120.08 47.1369C119.993 46.9023 119.9 46.6742 119.806 46.4342L119.233 46.4783Z" fill="#3F00F9"/>
<path d="M22.4127 49.2689C22.9454 44.1134 23.9989 39.0243 25.5571 34.0789C26.4223 31.3262 27.4398 28.6233 28.6048 25.9825C28.9105 25.3078 29.2151 24.6211 29.5448 23.9443L30.0628 22.9179L30.1147 22.8165L30.3363 22.6397L30.792 22.291C32.0184 21.3723 33.2765 20.4689 34.5996 19.6144C40.1087 16.0011 46.1289 13.2292 52.4602 11.3906C59.254 9.41554 66.3241 8.55362 73.394 8.83857C80.4629 9.14544 87.4359 10.5799 94.0475 13.0872C95.6442 13.6923 97.198 14.3618 98.7302 15.0634C99.4853 15.4273 100.24 15.7912 100.973 16.1752C101.342 16.3669 101.712 16.5587 102.069 16.7575L102.343 16.9031L102.478 16.9821L102.837 17.4715C104.803 20.1254 106.629 22.7754 108.316 25.4215C109.024 26.5707 109.732 27.7198 110.437 28.8329L111.02 28.5397C110.311 27.3906 109.633 26.2388 108.895 25.0923C107.21 22.4138 105.382 19.7478 103.412 17.0942L103.033 16.5884C102.982 16.5067 102.906 16.4433 102.817 16.4075L102.683 16.3344L102.402 16.1834C102.038 15.9851 101.668 15.7873 101.293 15.5961C100.553 15.2006 99.7923 14.8373 99.0306 14.4679C97.4913 13.7548 95.9184 13.0749 94.3026 12.4593C87.625 9.91284 80.5796 8.45195 73.4355 8.13249C66.2915 7.84829 59.1482 8.72893 52.2878 10.7396C45.8893 12.6028 39.8083 15.415 34.2492 19.0819C32.9145 19.9435 31.6454 20.8599 30.4145 21.7972L29.9533 22.1524L29.7257 22.3298C29.6806 22.3701 29.5757 22.4216 29.5529 22.5084L29.4816 22.666L28.9642 23.6984C28.6354 24.3872 28.3248 25.0744 28.0263 25.7606C24.7696 33.2162 22.7099 41.1351 21.9228 49.227C21.7399 51.096 21.6351 52.8855 21.5799 54.6162L22.0351 54.54C22.0995 52.8449 22.219 51.0844 22.4127 49.2689Z" fill="#3F00F9"/>
<path d="M34.8006 66.9211C39.6295 67.1647 44.4067 67.1646 49.1031 67.0747C53.7995 66.9847 58.4384 66.8635 62.9769 66.4967C71.7148 65.8796 80.3948 64.6142 88.9446 62.7109C93.0274 61.7906 96.9762 60.7971 100.81 59.8077L103.574 59.0996C104.808 58.5059 106.078 57.9903 107.378 57.5558C107.696 57.4491 108.034 57.3529 108.366 57.2573L108.428 57.1974C105.905 57.8784 103.311 58.5291 100.66 59.2032C96.8219 60.1445 92.8757 61.168 88.8023 62.0573C80.2796 63.9385 71.6285 65.1852 62.9209 65.787C58.3974 66.1162 53.7802 66.2779 49.0887 66.3553C44.3973 66.4327 39.6393 66.4433 34.8345 66.1975C30.586 65.9879 26.405 65.5785 22.2917 64.9695L22.3538 65.6786C26.4393 66.2941 30.5882 66.7083 34.8006 66.9211Z" fill="#3F00F9"/>
<path d="M122.053 46.2689L122.777 45.9321L122.174 45.9849L119.689 46.2023L119.781 46.4251L122.053 46.2689Z" fill="#3F00F9"/>
<path d="M21.9994 65.6552C21.9789 65.4208 21.9584 65.1864 21.9374 64.946C21.5249 64.8852 21.1068 64.831 20.7058 64.7631C19.6025 64.5871 18.5096 64.3921 17.4163 64.191C17.6219 64.4576 17.8221 64.7308 18.0398 64.9964C18.8922 65.1519 19.738 65.3019 20.5953 65.4449L21.9994 65.6552Z" fill="#3F00F9"/>
<path d="M110.157 56.8099C111.141 56.6026 112.161 56.4408 113.222 56.2753L114.194 56.1297C116.855 55.2913 119.427 54.4608 121.91 53.5956C121.852 53.425 121.795 53.2544 121.731 53.0844C118.556 54.1676 115.235 55.2454 111.781 56.2682C111.005 56.4995 110.216 56.72 109.409 56.942L109.335 57.0089C109.621 56.9416 109.882 56.8702 110.157 56.8099Z" fill="#3F00F9"/>
<path d="M49.862 51.3667C52.1637 51.137 54.4155 50.94 56.6175 50.7756L57.1729 50.176C54.7581 50.363 52.2931 50.5787 49.778 50.823C42.3703 51.5316 34.4841 52.5364 26.2305 53.858C24.8335 54.0771 23.4195 54.3099 22.0065 54.5546C22.0254 54.7709 21.9901 54.992 21.9854 55.2165C23.4401 54.9621 24.8958 54.7197 26.3279 54.4854C34.6025 53.1256 42.469 52.1043 49.862 51.3667Z" fill="#3F00F9"/>
<path d="M110.554 47.0439L108.438 47.1745L100.321 47.6909C96.791 47.915 92.4602 48.1546 87.4633 48.4222L70.4315 49.3067L70.0273 49.3421L70.2338 49.8266L70.457 49.8071L87.487 48.8319C92.4993 48.5327 96.8139 48.246 100.341 47.9859C103.867 47.7258 106.601 47.5048 108.452 47.3368L110.564 47.1521L111.1 47.1051C111.161 47.1089 111.222 47.1036 111.281 47.0893L111.1 47.1051L110.554 47.0439Z" fill="#3F00F9"/>
<path d="M13.7714 56.7768C15.0952 56.4854 16.409 56.2191 17.7244 55.9708L16.5371 55.5296C15.5694 55.7233 14.6018 55.917 13.6296 56.1292L13.1885 56.2283L13.4197 56.856L13.7714 56.7768Z" fill="#3F00F9"/>
<path d="M111.979 46.9378L111.442 46.9848L111.261 47.0006C111.322 47.0032 111.383 46.9978 111.442 46.9848L111.979 46.9378L114.095 46.8013L119.221 46.4136L119.129 46.1968L114.08 46.6385L111.979 46.9378Z" fill="#3F00F9"/>
<path d="M138.939 45.402C139.275 45.4211 139.606 45.4467 139.932 45.4908C140.249 45.519 140.56 45.5981 140.852 45.7252C141.049 45.823 140.985 45.9315 140.701 46.1502C140.415 46.3341 140.116 46.4978 139.807 46.6401C138.527 47.2184 137.141 47.703 135.733 48.2077L134.176 48.7557C133.86 49.0316 133.538 49.3081 133.208 49.5731L133.135 49.634L135.893 48.6479C137.306 48.1306 138.686 47.6406 140.006 47.0345C140.341 46.8836 140.663 46.7056 140.968 46.5022C141.109 46.3688 141.29 46.2924 141.392 45.9928C141.427 45.8637 141.413 45.7264 141.353 45.6068C141.293 45.4872 141.192 45.3934 141.068 45.343C140.731 45.1947 140.372 45.1034 140.005 45.0727C139.654 45.0246 139.312 45.0001 138.976 44.987L138.117 44.9653L137.739 45.3677C138.129 45.376 138.537 45.3827 138.939 45.402Z" fill="#3F00F9"/>
<path d="M108.551 57.7624L108.524 57.7952L109.746 57.4513C109.352 57.5404 108.959 57.6295 108.585 57.7352L108.551 57.7624Z" fill="#3F00F9"/>
<path d="M123.832 45.8398L123.12 46.1867C126.471 45.9298 130.472 45.598 135.069 45.4138C135.632 45.3948 136.202 45.3752 136.785 45.3726L137.058 45.0884C137.1 45.0496 137.139 45.0077 137.175 44.9631C136.452 44.9718 135.743 44.9975 135.053 45.0276C130.774 45.2324 127.052 45.558 123.832 45.8398Z" fill="#3F00F9"/>
<path d="M13.8193 63.5126C11.5801 63.1075 9.37346 62.5416 7.21644 61.8194C6.70428 61.6352 6.21011 61.4048 5.74008 61.1311C5.2976 60.867 4.90492 60.4775 4.98826 60.1795C5.07159 59.8815 5.53517 59.4837 5.95655 59.2288C6.42931 58.9641 6.92122 58.7348 7.42817 58.543C9.32661 57.8654 11.2684 57.3152 13.2404 56.896C13.1667 56.6784 13.0934 56.4668 13.0273 56.2667C11.0445 56.6851 9.09262 57.2383 7.18546 57.9223C6.64445 58.1262 6.12135 58.3745 5.62155 58.6647C5.35718 58.8157 5.10798 58.9916 4.87738 59.19C4.61183 59.4188 4.42587 59.7255 4.34624 60.0661C4.31664 60.2554 4.33094 60.4489 4.38803 60.6318C4.44512 60.8147 4.54348 60.9821 4.67559 61.1212C4.88483 61.3588 5.13027 61.5621 5.40294 61.7237C5.90967 62.0229 6.44443 62.2722 6.99969 62.4681C9.19111 63.2065 11.4335 63.7855 13.7093 64.2004C14.9954 64.4512 16.2876 64.7015 17.5847 64.9392C17.3785 64.6666 17.1702 64.3699 16.9793 64.1323L13.8193 63.5126Z" fill="#3F00F9"/>
<path d="M122.227 52.9199L122.399 53.4257C125.438 52.3787 128.343 51.3373 131.131 50.3485C131.534 50.0428 131.932 49.7294 132.325 49.4084L131.382 49.7452C128.456 50.7581 125.402 51.8368 122.227 52.9199Z" fill="#3F00F9"/>
<path d="M107.529 58.0329L107.11 58.1729L107.567 58.0478L107.607 58.014L107.529 58.0329Z" fill="#3F00F9"/>
<path d="M21.5397 55.2676C21.5207 55.0513 21.544 54.8312 21.5547 54.6062C20.1895 54.8407 18.8253 55.0873 17.4506 55.3529C17.8524 55.4994 18.2482 55.6464 18.6676 55.7853L21.5397 55.2676Z" fill="#3F00F9"/>
<path d="M22.3563 65.7087L22.2943 64.9996L21.925 64.9471C21.9461 65.1875 21.9666 65.4219 21.9871 65.6563L22.3563 65.7087Z" fill="#3F00F9"/>
<path d="M122.388 53.4266L122.216 52.9209L121.732 53.0843C121.795 53.2544 121.853 53.425 121.91 53.5956L122.388 53.4266Z" fill="#3F00F9"/>
<path d="M22.0133 55.1898C21.9939 54.9674 22.0232 54.7469 22.0345 54.5279L21.5792 54.604C21.5987 54.8264 21.5693 55.047 21.5641 55.2654L22.0133 55.1898Z" fill="#3F00F9"/>
<path d="M119.836 46.4326L119.743 46.2097L119.17 46.2599L119.262 46.4767L119.836 46.4326Z" fill="#3F00F9"/>
<path d="M114.083 49.5933C107.14 52.2712 99.9918 54.3851 92.7075 55.9143C88.5892 56.7772 84.225 57.4678 79.6837 58.0105C75.1423 58.5531 70.4059 58.9494 65.5635 59.3851C60.7211 59.8209 55.9885 60.1926 51.4136 60.3506C47.0222 60.5211 42.6246 60.4185 38.2463 60.0432C32.7361 59.5388 27.2935 58.4666 22.0059 56.8436L22.0005 57.4073C27.2664 59.0565 32.6911 60.1528 38.1864 60.6782C42.5908 61.0764 47.0165 61.1928 51.4363 61.0268C56.0304 60.8792 60.7745 60.5005 65.6239 60.0762C70.4734 59.652 75.2023 59.2382 79.7606 58.682C84.319 58.1257 88.7063 57.4209 92.835 56.539C100.157 54.9772 107.335 52.8057 114.293 50.0473C116.267 49.269 118.097 48.5034 119.775 47.751C119.727 47.6219 119.673 47.4874 119.619 47.3589C117.903 48.0964 116.068 48.8626 114.083 49.5933Z" fill="#3F00F9"/>
<path d="M21.5402 56.7208C21.5565 56.9071 21.5728 57.0934 21.5403 57.2779L21.9712 57.4098L21.9766 56.8461L21.5402 56.7208Z" fill="#3F00F9"/>
<path d="M119.744 47.7477L120.241 47.5286C120.187 47.394 120.139 47.265 120.085 47.1365L119.588 47.3556C119.642 47.4841 119.696 47.6186 119.744 47.7477Z" fill="#3F00F9"/>
<path d="M122.251 46.2507L123.144 46.1726L123.855 45.8258L122.8 45.9181L122.075 46.254L122.251 46.2507Z" fill="#3F00F9"/>
<path d="M18.6928 55.7833C18.2735 55.6444 17.8777 55.4973 17.4759 55.3508L16.5253 55.5309L17.7126 55.972L18.6928 55.7833Z" fill="#3F00F9"/>
<path d="M18.0149 64.9984L17.5586 64.9233C18.9865 66.7791 20.6691 68.4258 22.5571 69.8149L22.4741 69.2832C20.8136 68.0465 19.3155 66.607 18.0149 64.9984Z" fill="#3F00F9"/>
<path d="M108.778 62.0234C107.886 62.4587 106.988 62.8945 106.109 63.3347C104.311 64.243 102.538 65.1732 100.812 66.1477C99.121 67.135 97.3718 68.0201 95.5741 68.7981C88.7481 71.8261 81.6094 74.0976 74.2864 75.5716C70.8805 76.2535 67.4411 76.7565 63.9825 77.0787C60.7203 77.3773 57.4445 77.5022 54.1691 77.4528C48.2843 77.3929 42.4253 76.6745 36.7024 75.3112C31.4937 73.9926 26.8573 72.2667 23.3075 69.9007C23.1265 69.7773 22.957 69.6468 22.7816 69.5168C22.7979 69.7031 22.8131 69.8774 22.8289 70.0577C22.9065 70.1114 22.9787 70.1717 23.0623 70.225C26.6546 72.6599 31.331 74.4247 36.5559 75.7903C42.3088 77.1971 48.2041 77.947 54.128 78.0256C57.4261 78.0908 60.7254 77.978 64.0115 77.6877C67.4925 77.3668 70.9542 76.8618 74.3817 76.1749C81.7746 74.713 88.9831 72.4414 95.876 69.4015C97.6854 68.6145 99.446 67.7204 101.148 66.7239C102.887 65.7543 104.63 64.8328 106.417 63.9316C108.035 63.1178 109.679 62.32 111.329 61.5216L110.301 61.7205L108.778 62.0234Z" fill="#3F00F9"/>
<path d="M131.12 50.3495C130.112 51.1279 129.084 51.884 127.995 52.5666C126.906 53.2493 125.609 53.9865 124.364 54.6223L126.374 54.3253C127.053 53.9511 127.717 53.5598 128.368 53.1457C130.026 52.0712 131.618 50.8985 133.136 49.6341L131.539 50.2038L131.12 50.3495Z" fill="#3F00F9"/>
<path d="M150.574 13.8157L149.738 13.7798C148.898 13.7565 148.06 13.7692 147.231 13.8115C145.594 13.8761 143.969 14.1117 142.382 14.5143C136.172 16.1354 130.786 18.6898 125.887 20.9895C120.232 23.7976 115.247 26.3652 111.01 28.5708C111.073 28.6742 111.138 28.7836 111.195 28.8876C115.453 26.6984 120.443 24.1969 126.102 21.4309C130.987 19.1869 136.393 16.643 142.521 15.0713C144.073 14.686 145.661 14.4619 147.258 14.4025C148.069 14.3618 148.895 14.3562 149.688 14.3837L150.103 14.4019C150.133 14.3993 150.133 14.3993 150.103 14.4019L150.085 14.5488C150.03 14.9594 149.981 15.3754 149.925 15.7739C149.572 19.213 148.901 22.6125 147.92 25.9289C145.878 33.0228 142.175 39.5336 137.117 44.9257L138.047 44.9291C142.952 39.5392 146.548 33.0978 148.556 26.1034C149.547 22.7646 150.229 19.3421 150.591 15.8792C150.645 15.4566 150.693 15.0406 150.742 14.6245L150.803 14.1408L150.839 13.8531C150.786 13.8092 150.661 13.8323 150.574 13.8157Z" fill="#3F00F9"/>
<path d="M110.638 29.1726L111.221 28.8854C111.163 28.7815 111.099 28.6721 111.035 28.5686L110.453 28.8618C110.511 28.9657 110.574 29.0692 110.638 29.1726Z" fill="#3F00F9"/>
<path d="M22.4749 69.2831L22.5578 69.8148L22.8962 70.0698C22.8804 69.8895 22.8652 69.7153 22.8489 69.529C22.7023 69.451 22.5858 69.3703 22.4749 69.2831Z" fill="#3F00F9"/>
<path d="M13.4071 56.8573L13.1759 56.2295L13.0251 56.2427C13.0913 56.4428 13.1645 56.6544 13.2382 56.872L13.4071 56.8573Z" fill="#3F00F9"/>
<path d="M134.177 48.7558L132.313 49.4094C131.936 49.729 131.538 50.0424 131.119 50.3495L131.538 50.2039L133.135 49.6342L133.209 49.5732C133.538 49.3083 133.86 49.0318 134.177 48.7558Z" fill="#3F00F9"/>
<path d="M137.058 45.0885L136.785 45.3728L137.727 45.3691L138.105 44.9667L137.175 44.9633C137.139 45.0079 137.1 45.0497 137.058 45.0885Z" fill="#3F00F9"/>
<path d="M17.3911 64.1933L16.9529 64.1165C17.1465 64.3842 17.3521 64.6508 17.5583 64.9235L18.0147 64.9986C17.7964 64.727 17.5968 64.4599 17.3911 64.1933Z" fill="#3F00F9"/>
<path d="M127.53 54.8418L128.508 54.7017L128.762 54.6796C128.762 54.6796 128.758 54.6315 128.806 54.8332C128.971 55.4048 128.933 56.0162 128.696 56.5626C128.578 56.8392 128.413 57.0934 128.208 57.3137C128.107 57.4273 127.996 57.5322 127.877 57.6273L127.774 57.7029L127.563 57.7214L125.531 58.1112L123.959 58.4182C124.021 58.6369 124.089 58.861 124.151 59.0797L125.663 58.7899L127.695 58.4001L127.988 58.3442C128.073 58.3369 128.15 58.2513 128.197 58.2291L128.305 58.1409C128.455 58.0244 128.594 57.8947 128.721 57.7533C129.103 57.3387 129.373 56.8333 129.504 56.2854C129.635 55.7375 129.622 55.1655 129.468 54.6239C129.44 54.5135 129.404 54.4053 129.361 54.3002L129.262 54.0787L129.216 53.9677L129.211 53.9136L129.151 53.9188C128.994 53.9326 128.819 53.9479 128.669 53.9611L128.421 53.9827L127.449 54.1283L126.387 54.2818C125.807 54.599 125.226 54.9102 124.645 55.2093L127.53 54.8418Z" fill="#3F00F9"/>
<path d="M106.734 61.7904L105.085 62.1163L104.84 62.168L104.804 62.1711L104.842 62.1194L105.189 61.6349L105.655 60.9885C105.966 60.5859 106.285 60.2007 106.605 59.8275C107.227 59.0888 107.867 58.4152 108.499 57.7906L107.543 58.0439C107.09 58.5013 106.639 58.9707 106.197 59.4757C105.865 59.8499 105.541 60.2416 105.212 60.6518L104.731 61.2692L104.491 61.5869L104.145 62.0714L103.729 62.6649L103.512 62.9684C103.512 62.9684 103.515 62.9985 103.515 63.0045L103.66 62.9918L103.841 62.976L105.205 62.7235L106.861 62.409L108.786 62.0468C109.503 61.6934 110.217 61.316 110.942 60.9862L110.189 61.1308L106.734 61.7904Z" fill="#3F00F9"/>
<path d="M114.193 56.1297C113.448 56.3645 112.702 56.5932 111.944 56.817C111.186 57.0408 110.48 57.2478 109.745 57.4515C109.92 57.4362 110.084 57.3673 110.263 57.3334C111.231 57.1458 112.251 56.996 113.302 56.8435L120.057 55.9013L122.458 55.558L122.546 55.5201C122.48 55.32 122.408 55.1204 122.342 54.9323L119.942 55.2816L114.193 56.1297Z" fill="#3F00F9"/>
<path d="M123.002 55.2987L124.365 54.6223L122.853 54.8454L123.002 55.2987Z" fill="#3F00F9"/>
<path d="M113.664 60.433L111.329 61.5395L123.692 59.1802C123.63 58.9616 123.562 58.7374 123.494 58.5193L113.664 60.433Z" fill="#3F00F9"/>
<path d="M123.494 58.5074C123.562 58.7256 123.63 58.9497 123.692 59.1683L124.152 59.0796C124.091 58.861 124.022 58.6368 123.961 58.4182L123.494 58.5074Z" fill="#3F00F9"/>
<path d="M122.353 54.9193C122.419 55.1194 122.491 55.319 122.556 55.5071L122.999 55.2867L122.85 54.8334L122.353 54.9193Z" fill="#3F00F9"/>
<path d="M107.606 58.014C107.806 57.8087 108.007 57.6034 108.209 57.4101L108.367 57.2691C108.035 57.3648 107.697 57.461 107.378 57.5676C106.079 58.0022 104.809 58.5178 103.575 59.1115C104.763 58.8016 105.952 58.4977 107.111 58.1965L107.53 58.0569L107.606 58.014Z" fill="#3F00F9"/>
<path d="M107.606 58.0143C107.925 57.9137 108.252 57.8245 108.584 57.7349C108.842 57.4823 109.1 57.2416 109.353 57.0076C109.02 57.0912 108.687 57.1748 108.367 57.2694L108.209 57.4104C108.008 57.6037 107.807 57.809 107.606 58.0143Z" fill="#3F00F9"/>
<path d="M108.584 57.7346C108.251 57.8245 107.925 57.9139 107.605 58.0147L107.566 58.0486L108.522 57.7947L108.549 57.7619L108.584 57.7346Z" fill="#3F00F9"/>
<path d="M109.354 57.0075L109.427 56.9403L108.43 57.2099L108.368 57.27C108.688 57.1751 109.021 57.0913 109.354 57.0075Z" fill="#3F00F9"/>
<path d="M114.195 56.1296L113.223 56.2752C112.161 56.4407 111.142 56.6025 110.158 56.8098C109.883 56.8701 109.622 56.9414 109.354 57.0072C109.101 57.2413 108.843 57.4819 108.585 57.7346C108.959 57.6292 109.352 57.5403 109.746 57.4514C110.482 57.2477 111.217 57.0381 111.945 56.8169C112.673 56.5958 113.449 56.3584 114.195 56.1296Z" fill="#3F00F9"/>
<path d="M123 55.2988C123.017 55.3431 123.031 55.3883 123.042 55.4344L123.046 55.4764L124.643 55.2519C125.225 54.9528 125.805 54.6416 126.385 54.3244L124.375 54.6214L123 55.2988Z" fill="#3F00F9"/>
<path d="M110.932 60.9629C110.209 61.3107 109.495 61.6942 108.776 62.0235L110.301 61.7387L111.329 61.5397L113.664 60.4332L110.932 60.9629Z" fill="#3F00F9"/>
<path d="M122.568 55.5613L123.063 55.518L123.059 55.4758C123.048 55.4296 123.034 55.3841 123.017 55.3397L122.574 55.5607L122.568 55.5613Z" fill="#3F00F9"/>
<path d="M58.7878 36.0645C58.6249 35.8796 58.5131 35.6556 58.4635 35.4146C58.4128 35.0712 58.3384 34.7317 58.2409 34.3986C57.9775 34.028 58.369 33.7092 58.771 33.5105C59.2274 33.2893 59.7087 33.1232 60.2046 33.0157C61.4387 32.8154 62.7006 32.8678 63.9134 33.1696C64.6279 33.2489 65.3254 33.4391 65.9806 33.7336C66.2832 33.9632 66.5367 34.2508 66.7261 34.5795C66.9156 34.9081 67.0373 35.2712 67.084 35.6475C67.2452 36.4691 67.2717 37.3113 67.1625 38.1416C67.0321 39.0165 66.704 39.8507 66.2029 40.5811C65.9392 40.9557 65.6276 41.2944 65.276 41.5887C65.1408 41.6702 65.04 41.798 64.9927 41.9483C64.9454 42.0985 64.9548 42.2607 65.0192 42.4045C65.1851 42.6357 65.4278 42.8011 65.7043 42.8713C66.1486 43.0167 66.535 43.2988 66.808 43.6771C67.1172 44.062 67.3949 44.471 67.6383 44.9003C68.1341 45.7999 68.5708 46.7306 68.9457 47.6866L69.6549 49.3322L70.0228 49.3C69.7712 48.7164 69.5136 48.1334 69.2619 47.5499C68.8779 46.5844 68.4322 45.6445 67.9278 44.7357C67.675 44.2879 67.3856 43.8615 67.0626 43.461C66.7514 43.0362 66.3132 42.7205 65.8107 42.5593C65.6115 42.5097 65.4335 42.398 65.3026 42.2404C65.2813 42.2123 65.2684 42.1788 65.2653 42.1437C65.2622 42.1087 65.2691 42.0734 65.2853 42.0421C65.3191 41.9422 65.3537 41.921 65.4675 41.8323C65.8372 41.5155 66.165 41.1531 66.4429 40.7539C66.9669 39.9824 67.3057 39.1011 67.4331 38.1784C67.5445 37.3158 67.511 36.4408 67.3342 35.5892C67.2789 35.1775 67.1406 34.7812 66.9276 34.4242C66.7146 34.0672 66.4314 33.7568 66.0949 33.5116C65.7524 33.3241 65.3818 33.193 64.9973 33.1232C64.632 33.0462 64.2748 32.9926 63.9291 32.932C63.2709 32.8075 62.6059 32.7221 61.9375 32.6763C61.33 32.6497 60.7216 32.703 60.128 32.8346C59.619 32.9521 59.1264 33.1315 58.6613 33.3687C58.443 33.4734 58.249 33.6223 58.0918 33.8061C58.0142 33.9018 57.9711 34.0208 57.9694 34.1438C57.9891 34.2477 58.0225 34.3487 58.0686 34.4439C58.1757 34.7694 58.2596 35.102 58.3198 35.4393C58.3804 35.6934 58.5078 35.9268 58.6889 36.1155C58.8306 36.27 58.9982 36.3987 59.1841 36.4961C59.1841 36.4961 59.0514 36.3684 58.7878 36.0645Z" fill="#3F00F9"/>
<path d="M58.6185 49.1292L58.5489 48.8204L58.5394 48.7122L58.7809 48.3459C58.96 48.1001 59.1325 47.8489 59.3236 47.6021C59.6767 47.123 60.0315 46.6621 60.4195 46.2345C60.773 45.8122 61.1665 45.4249 61.5947 45.078C62.0509 44.7646 62.3895 44.3089 62.5571 43.7827C62.619 43.5177 62.6178 43.242 62.5536 42.9776C62.5478 42.9115 62.5431 42.8574 62.494 42.783C62.4449 42.7086 62.4735 42.5486 62.3198 42.5984L61.9157 42.6338C61.4652 42.6679 61.0121 42.6465 60.5669 42.5701C60.3686 42.5269 60.1667 42.4416 60.148 42.2979C60.1639 42.0965 60.1605 41.894 60.1377 41.6933C60.1167 41.4529 59.8843 41.2976 59.8305 41.1691C59.8027 41.0942 59.7957 41.0133 59.81 40.9347C59.8251 40.8208 59.7999 40.7053 59.7388 40.6079C59.5959 40.4327 59.4986 40.3625 59.4773 40.1887C59.4606 40.0863 59.4096 39.9925 59.3325 39.9228C59.2568 39.8586 59.1614 39.8221 59.0621 39.8193C58.9173 39.832 58.9073 39.7178 58.9671 39.5672L59.1445 39.1642C59.3816 38.7267 59.4819 38.2286 59.4327 37.734C59.3342 37.3423 59.2847 36.9398 59.2853 36.5358C59.26 36.6378 59.2487 36.7426 59.2518 36.8476C59.2358 37.1483 59.2622 37.4497 59.3302 37.743C59.3552 38.2181 59.2425 38.6905 59.0055 39.1037C58.9442 39.2362 58.8829 39.3687 58.8226 39.5133C58.7758 39.5974 58.7607 39.6953 58.7799 39.7895C58.7899 39.9037 58.9475 39.9686 59.0264 39.9678C59.0606 39.9663 59.0948 39.9716 59.1269 39.9833C59.1591 39.9951 59.1886 40.013 59.2137 40.0361C59.2389 40.0592 59.2592 40.0871 59.2736 40.118C59.288 40.149 59.296 40.1825 59.2974 40.2165C59.3395 40.4023 59.4369 40.5711 59.5768 40.7008C59.6105 40.7657 59.6171 40.8413 59.5952 40.9111C59.5746 41.0198 59.5844 41.1321 59.6236 41.2356C59.7285 41.4626 59.8828 41.5581 59.9106 41.7374C59.9242 41.939 59.9237 42.1414 59.9089 42.3431C59.9239 42.4101 59.9532 42.4732 59.9947 42.528C60.0362 42.5829 60.0889 42.6282 60.1494 42.6611C60.253 42.7213 60.3655 42.7646 60.4828 42.7894C60.9457 42.8762 61.4179 42.9041 61.888 42.8724L62.2016 42.8449C62.2318 42.8423 62.2016 42.8449 62.2349 42.8783C62.2436 42.932 62.2483 42.9862 62.2491 43.0406C62.3067 43.2651 62.3064 43.5005 62.2482 43.7249C62.0851 44.1949 61.7696 44.5975 61.3515 44.8692C60.9084 45.2234 60.4993 45.618 60.1297 46.0479C59.7477 46.4749 59.3874 46.9425 59.0348 47.4275L58.4921 48.1714L58.2176 48.5769C58.1555 48.6308 58.1799 48.7013 58.1982 48.7723L58.2088 48.8925L58.2219 49.0428L57.1039 50.1579L57.5744 50.1168L58.6185 49.1292Z" fill="#3F00F9"/>
<path d="M69.6443 49.3331C69.7133 49.4966 69.7818 49.6541 69.8568 49.8171L70.2187 49.7855L70.0122 49.3009L69.6443 49.3331Z" fill="#3F00F9"/>
<path d="M57.6723 50.1141L57.2018 50.1553L56.6465 50.7549L57.123 50.7133L57.6723 50.1141Z" fill="#3F00F9"/>
<defs>
<radialGradient id="paint0_radial_2596_10366" cx="0" cy="0" r="1" gradientUnits="userSpaceOnUse" gradientTransform="translate(17.6202 66.0305) rotate(-19.9345) scale(141.023 91.5436)">
<stop stop-color="#0894FF"/>
<stop offset="0.259525" stop-color="#6E53FF"/>
<stop offset="0.480322" stop-color="#B038EA"/>
<stop offset="0.748548" stop-color="#F95088"/>
<stop offset="1" stop-color="#FF6F62"/>
</radialGradient>
<radialGradient id="paint1_radial_2596_10366" cx="0" cy="0" r="1" gradientUnits="userSpaceOnUse" gradientTransform="translate(18.9325 66.5744) rotate(-21.001) scale(141.481 67.6745)">
<stop stop-color="#0894FF"/>
<stop offset="0.259525" stop-color="#6E53FF"/>
<stop offset="0.480322" stop-color="#B038EA"/>
<stop offset="0.748548" stop-color="#F95088"/>
<stop offset="1" stop-color="#FF6F62"/>
</radialGradient>
</defs>
</svg>
