<svg width="209" height="49" viewBox="0 0 209 49" fill="none" xmlns="http://www.w3.org/2000/svg">
<path d="M15.1836 48L0.975625 0.639999H11.7916L17.9996 21.184C18.4263 22.592 18.8316 24.0853 19.2156 25.664C19.5996 27.2 19.9836 29.1413 20.3676 31.488C20.7516 29.1413 21.1356 27.2 21.5196 25.664C21.9036 24.128 22.309 22.6347 22.7356 21.184L28.5596 0.639999H40.1436L45.7116 21.184C46.0956 22.6347 46.4796 24.1493 46.8636 25.728C47.2476 27.3067 47.653 29.2267 48.0796 31.488C48.549 29.0987 48.9756 27.1573 49.3596 25.664C49.7436 24.128 50.149 22.6773 50.5756 21.312L56.9116 0.639999H67.4716L53.0076 48H42.8956L34.2556 16.896L25.3596 48H15.1836ZM103.077 0.639999V48H93.2851V0.639999H103.077ZM69.7331 30.528L90.1491 0.639999H101.093L80.2291 31.296L69.7331 30.528ZM108.901 39.616H69.7331V30.528H108.901V39.616ZM121.908 48H111.092L127.988 0.639999H138.1L154.932 48H143.924L140.596 38.016H125.3L121.908 48ZM131.7 19.2L128.308 29.312H137.652L134.26 19.2C134.004 18.3893 133.748 17.5573 133.492 16.704C133.236 15.8507 133.065 15.1467 132.98 14.592C132.894 15.1467 132.724 15.8507 132.468 16.704C132.254 17.5147 131.998 18.3467 131.7 19.2ZM162.476 48.576C161.42 48.576 160.508 48.208 159.74 47.472C158.972 46.736 158.588 45.84 158.588 44.784C158.588 43.728 158.972 42.832 159.74 42.096C160.508 41.328 161.42 40.944 162.476 40.944C163.532 40.944 164.444 41.328 165.212 42.096C165.98 42.832 166.364 43.728 166.364 44.784C166.364 45.84 165.98 46.736 165.212 47.472C164.444 48.208 163.532 48.576 162.476 48.576ZM172.508 48V24.288H178.364V48H172.508ZM175.388 19.536C174.396 19.536 173.548 19.2 172.844 18.528C172.172 17.824 171.836 16.976 171.836 15.984C171.836 14.992 172.172 14.16 172.844 13.488C173.548 12.816 174.396 12.48 175.388 12.48C176.38 12.48 177.212 12.816 177.884 13.488C178.588 14.16 178.94 14.992 178.94 15.984C178.94 16.976 178.588 17.824 177.884 18.528C177.212 19.2 176.38 19.536 175.388 19.536ZM183.023 36.096C183.023 33.632 183.567 31.472 184.655 29.616C185.743 27.728 187.247 26.256 189.167 25.2C191.087 24.144 193.263 23.616 195.695 23.616C198.159 23.616 200.335 24.144 202.223 25.2C204.143 26.256 205.647 27.728 206.735 29.616C207.823 31.472 208.367 33.632 208.367 36.096C208.367 38.56 207.823 40.736 206.735 42.624C205.647 44.48 204.143 45.936 202.223 46.992C200.335 48.048 198.159 48.576 195.695 48.576C193.263 48.576 191.087 48.048 189.167 46.992C187.247 45.936 185.743 44.48 184.655 42.624C183.567 40.736 183.023 38.56 183.023 36.096ZM188.879 36.096C188.879 37.536 189.167 38.8 189.743 39.888C190.351 40.976 191.151 41.824 192.143 42.432C193.167 43.04 194.351 43.344 195.695 43.344C197.039 43.344 198.223 43.04 199.247 42.432C200.271 41.824 201.071 40.976 201.647 39.888C202.223 38.8 202.511 37.536 202.511 36.096C202.511 34.624 202.223 33.36 201.647 32.304C201.071 31.216 200.271 30.368 199.247 29.76C198.223 29.152 197.039 28.848 195.695 28.848C194.351 28.848 193.167 29.152 192.143 29.76C191.151 30.368 190.351 31.216 189.743 32.304C189.167 33.36 188.879 34.624 188.879 36.096Z" fill="url(#paint0_radial_56_813)"/>
<defs>
<radialGradient id="paint0_radial_56_813" cx="0" cy="0" r="1" gradientUnits="userSpaceOnUse" gradientTransform="translate(154.843 3.74922) rotate(159.126) scale(160.509 106.956)">
<stop stop-color="#0894FF"/>
<stop offset="0.290475" stop-color="#6E53FF"/>
<stop offset="0.609151" stop-color="#B038EA"/>
<stop offset="0.850793" stop-color="#F95088"/>
<stop offset="1" stop-color="#FF6F62"/>
</radialGradient>
</defs>
</svg>
