<svg width="535" height="250" viewBox="0 0 535 250" fill="none" xmlns="http://www.w3.org/2000/svg">
<g opacity="0.5">
<line x1="135.52" y1="127.324" x2="186.202" y2="181.76" stroke="#2929CC" stroke-width="1.33934" stroke-linecap="round" stroke-dasharray="10.71 10.71"/>
<line x1="134.521" y1="127.3" x2="182.357" y2="73.8369" stroke="#2929CC" stroke-width="1.33934" stroke-linecap="round" stroke-dasharray="10.71 10.71"/>
<line x1="0.669669" y1="-0.669669" x2="106.368" y2="-0.669669" transform="matrix(0.017851 0.999841 -0.999841 0.0178576 183.297 73.7798)" stroke="#2929CC" stroke-width="1.33934" stroke-linecap="round" stroke-dasharray="10.71 10.71"/>
<line x1="0.669669" y1="-0.669669" x2="201.095" y2="-0.669669" transform="matrix(0.9991 0.0424225 -0.0424068 0.9991 185.208 181.756)" stroke="#2929CC" stroke-width="1.33934" stroke-linecap="round" stroke-dasharray="10.71 10.71"/>
<line x1="0.669669" y1="-0.669669" x2="68.6646" y2="-0.669669" transform="matrix(0.124012 0.992281 -0.992275 0.124057 378.191 121.557)" stroke="#2929CC" stroke-width="1.33934" stroke-linecap="round" stroke-dasharray="10.71 10.71"/>
<line x1="0.669669" y1="-0.669669" x2="87.2391" y2="-0.669669" transform="matrix(-0.608589 -0.793486 0.793377 -0.60873 379.146 121.557)" stroke="#2929CC" stroke-width="1.33934" stroke-linecap="round" stroke-dasharray="10.71 10.71"/>
<line x1="0.669669" y1="-0.669669" x2="143.366" y2="-0.669669" transform="matrix(0.988291 -0.152583 0.152528 0.988299 183.297 73.7798)" stroke="#2929CC" stroke-width="1.33934" stroke-linecap="round" stroke-dasharray="10.71 10.71"/>
<line x1="0.669669" y1="-0.669669" x2="151.163" y2="-0.669669" transform="matrix(0.408993 0.912538 -0.912481 0.409119 324.691 50.8469)" stroke="#2929CC" stroke-width="1.33934" stroke-linecap="round" stroke-dasharray="10.71 10.71"/>
<line x1="0.669669" y1="-0.669669" x2="189.32" y2="-0.669669" transform="matrix(-0.734162 0.678974 -0.678839 -0.734287 324.691 50.8469)" stroke="#2929CC" stroke-width="1.33934" stroke-linecap="round" stroke-dasharray="10.71 10.71"/>
<line x1="0.669669" y1="-0.669669" x2="233.376" y2="-0.669669" transform="matrix(0.869457 0.494008 -0.49387 0.869536 183.297 72.8245)" stroke="#2929CC" stroke-width="1.33934" stroke-linecap="round" stroke-dasharray="10.71 10.71"/>
</g>
<path d="M164.133 153.158H205.563C206.753 153.133 207.934 153.365 209.027 153.837C210.12 154.31 211.098 155.012 211.896 155.895C213.184 157.428 213.859 159.384 213.789 161.386V201.047C213.73 202.873 213.046 204.623 211.851 206.005C211.128 206.809 210.252 207.462 209.274 207.924C208.296 208.387 207.235 208.65 206.155 208.698H164.799C163.702 208.756 162.604 208.582 161.578 208.188C160.553 207.794 159.621 207.189 158.844 206.412C158.067 205.634 157.462 204.702 157.068 203.676C156.674 202.65 156.5 201.553 156.558 200.455V160.217C156.706 158.403 157.495 156.702 158.783 155.417C160.07 154.132 161.773 153.347 163.586 153.202L164.133 153.158Z" fill="#8585FF"/>
<path d="M205.903 153.157L162.994 153.379C163.083 155.333 163.586 159.521 166.471 162.259C168.088 163.672 169.915 164.826 171.887 165.677C172.345 165.885 172.981 166.136 174.047 166.625C174.594 166.876 176.385 167.705 177.613 168.4C180.169 169.852 182.309 171.936 183.827 174.453C184.452 175.458 184.949 176.537 185.307 177.665C185.638 178.946 185.816 180.263 185.839 181.586C186.002 184.102 185.736 184.546 186.002 186.159C186.199 187.256 186.516 188.329 186.949 189.356C188.606 193.159 192.616 195.142 193.977 195.779C195.339 196.415 195.131 196.089 204.542 198.472C206.579 198.904 208.526 199.685 210.298 200.781C211.438 201.516 212.478 202.396 213.39 203.4C213.643 202.66 213.788 201.888 213.819 201.106V161.445C213.889 159.443 213.214 157.487 211.925 155.955C211.169 155.098 210.243 154.408 209.207 153.926C208.17 153.445 207.045 153.183 205.903 153.157Z" fill="#6363F6"/>
<path d="M196.803 162.762C198.621 162.734 200.375 163.427 201.684 164.688C202.992 165.95 203.748 167.678 203.787 169.495C203.787 177.388 203.787 185.281 203.787 193.174C203.741 194.685 203.178 196.136 202.193 197.283C201.208 198.43 199.859 199.205 198.372 199.478L172.878 199.596C171.937 199.602 171.006 199.402 170.15 199.011C169.294 198.62 168.533 198.047 167.921 197.332C167.013 196.195 166.531 194.776 166.56 193.322C166.56 185.064 166.56 176.816 166.56 168.578C166.689 167.13 167.323 165.774 168.351 164.746C169.379 163.718 170.735 163.084 172.182 162.954L196.803 162.762Z" fill="#ADADFF"/>
<path d="M196.803 162.762L172.108 163.014C171.009 163.118 169.958 163.511 169.06 164.153C169.921 164.711 170.821 165.206 171.753 165.633C172.212 165.825 172.848 166.092 173.913 166.58C174.461 166.832 176.251 167.646 177.464 168.356C180.026 169.805 182.171 171.89 183.693 174.409C184.321 175.412 184.818 176.491 185.173 177.62C185.503 178.897 185.682 180.208 185.706 181.527C185.854 184.043 185.602 184.487 185.868 186.115C186.066 187.207 186.384 188.274 186.815 189.297C188.458 193.115 192.482 195.083 193.844 195.734C195.205 196.385 195.072 196.119 201.819 197.776L202.07 197.54C203.123 196.369 203.731 194.866 203.787 193.292C203.787 185.399 203.787 177.507 203.787 169.614C203.748 167.797 202.992 166.068 201.683 164.807C200.375 163.545 198.62 162.853 196.803 162.88V162.762Z" fill="#8585FF"/>
<path d="M218.283 92.7951C218.442 102.987 218.49 113.279 218.426 123.669C218.426 126.344 218.378 129 218.35 131.657C218.305 136.383 219.201 141.07 220.987 145.445C222.064 148.039 223.419 150.51 225.028 152.813C226.759 155.376 228.675 157.809 230.76 160.094C231.4 160.81 234.123 163.916 238.173 167.681C241.651 170.92 244.46 173.118 245.157 173.662C246.896 175.019 248.979 176.405 253.039 179.176C257.099 181.947 258.714 182.922 261.16 183.629C262.351 183.979 263.573 184.216 264.809 184.336C266.192 184.341 267.571 184.184 268.917 183.868C270.32 183.509 271.678 182.996 272.968 182.339C274.972 181.268 276.869 180.007 278.633 178.574C281.26 176.663 282.579 175.65 283.286 175.096C287.663 171.608 291.753 167.774 295.514 163.629C297.75 161.237 299.837 158.709 301.762 156.061C304.566 152.427 306.837 148.411 308.507 144.136C309.56 141.318 310.297 138.392 310.705 135.412C310.807 129.679 310.87 123.876 310.896 118.002C310.896 111.313 310.873 104.707 310.829 98.1843C310.988 97.0483 311.043 95.9 310.991 94.7539C310.754 90.8834 309.403 87.1638 307.103 84.0423C305.102 81.7435 302.824 79.7021 300.32 77.9651C297.002 75.7132 293.362 73.9767 289.524 72.8147C280.859 69.9481 273.694 69.6806 266.596 69.3844C260.391 69.0911 254.172 69.3887 248.023 70.273C245.876 70.5904 243.748 71.0307 241.651 71.5917C238.243 72.4478 234.942 73.6851 231.811 75.28C228.857 76.7934 226.082 78.6331 223.537 80.7648C220.375 84.0067 218.515 88.2988 218.311 92.8237L218.283 92.7951Z" fill="#D1C2FF"/>
<path d="M234.457 89.9476C234.001 90.7172 233.639 91.5383 233.377 92.3937C233.144 93.1268 232.99 93.8828 232.919 94.6488L233.205 133.826C233.301 134.485 233.454 135.383 233.693 136.425C234.141 138.496 234.781 140.521 235.603 142.474C236.242 143.929 236.989 145.335 237.839 146.678C238.565 147.853 240.208 150.338 245.262 155.44C247.173 157.351 248.825 159.033 251.3 161.173C255.67 164.964 260.421 168.291 265.477 171.102C266.299 171.551 266.987 171.914 267.436 172.143C268.697 171.36 270.56 170.165 272.757 168.636C279.3 164.29 285.228 159.083 290.384 153.157C293.164 149.869 295.944 146.544 298.151 141.308C299.094 139.081 299.826 136.772 300.339 134.409C300.195 129.163 300.148 124.739 300.119 121.423C300.119 115.164 300.119 110.243 300.195 104.816C300.243 100.669 300.3 97.1714 300.348 94.6775C300.021 92.7331 299.191 90.9081 297.941 89.3838C295.6 86.5745 292.209 85.5616 290.565 85.0265C290.135 84.8928 290.279 84.9596 287.518 84.2048L283.247 83.0103C283.247 83.0103 279.999 82.1121 275.929 81.4528C271.21 80.7672 266.429 80.6102 261.675 80.9846C257.241 81.3069 252.835 81.9455 248.491 82.8957C248.147 82.9626 246.045 83.4308 243.351 84.3003C241.727 84.785 240.153 85.4249 238.651 86.2114C237.425 86.8038 236.328 87.6318 235.422 88.648C235.064 89.0531 234.741 89.4879 234.457 89.9476Z" fill="#A97FFF"/>
<path d="M255.437 116.579L263.567 128.819L275.844 105.561C276.678 104.285 277.906 103.316 279.34 102.8C279.954 102.534 280.616 102.397 281.284 102.397C281.953 102.397 282.615 102.534 283.229 102.8C283.733 103.044 284.177 103.398 284.528 103.837C284.878 104.275 285.126 104.786 285.254 105.332C285.396 106.143 285.258 106.979 284.862 107.702L267.666 138.375C267.298 138.957 266.802 139.448 266.215 139.809C265.629 140.17 264.967 140.391 264.281 140.456C263.595 140.52 262.904 140.426 262.26 140.182C261.616 139.937 261.037 139.547 260.567 139.043L249.361 121.624C248.857 120.825 248.638 119.878 248.74 118.939C248.799 118.42 248.96 117.918 249.214 117.462C249.468 117.006 249.809 116.604 250.218 116.28C250.627 115.956 251.096 115.716 251.598 115.574C252.101 115.432 252.626 115.39 253.144 115.451C254.011 115.566 254.816 115.962 255.437 116.579Z" fill="white"/>
<path d="M233.349 93.1773C233.627 91.8679 234.176 90.6309 234.958 89.5452C235.741 88.4594 236.742 87.5486 237.896 86.8707C239.182 86.0954 240.554 85.4732 241.985 85.017C243.447 84.4914 244.985 84.0614 246.571 83.6028C253.503 81.8593 260.632 81.021 267.78 81.1088C271.474 81.1088 275.159 81.4866 278.776 82.2364C282.282 82.9626 285.607 83.9372 288.798 84.7876C291.989 85.6381 294.931 86.7943 297.052 88.7818C298.076 89.7257 298.884 90.8795 299.421 92.1644C299.669 92.784 299.864 93.4233 300.004 94.0755L300.176 94.7444C300.176 94.2379 300.176 93.7411 300.176 93.2633C300.064 92.8457 299.93 92.4342 299.775 92.0306C299.22 90.6889 298.386 89.4806 297.329 88.4856C295.132 86.4121 292.075 85.2176 288.903 84.3385C285.731 83.4594 282.387 82.4944 278.852 81.749C275.204 80.9918 271.487 80.6108 267.761 80.6119C260.592 80.5101 253.441 81.3584 246.494 83.1346C244.899 83.555 243.351 84.0328 241.87 84.5774C240.412 85.0484 239.013 85.6899 237.705 86.4885C236.471 87.2461 235.405 88.2476 234.571 89.4316C233.892 90.4147 233.402 91.5168 233.129 92.6804C233.129 93.3174 233.129 94.0054 233.129 94.7444C233.186 94.2379 233.272 93.7219 233.349 93.1773Z" fill="#3F00F9"/>
<path d="M300.176 94.7158C300.176 95.9294 300.128 97.2193 300.1 98.5953C300.042 103.153 299.966 108.6 299.88 114.667C299.813 117.706 299.88 120.898 299.88 124.223C299.88 127.548 299.956 130.912 299.995 134.485C299.784 135.556 299.498 136.731 299.163 137.839C298.099 141.298 296.486 144.562 294.387 147.509C292.466 150.284 290.339 152.909 288.024 155.364C284.074 159.506 279.779 163.304 275.184 166.716C272.203 168.942 269.547 170.7 267.417 172.038L267.675 172.172C269.815 170.882 272.452 169.181 275.404 167.022C280.057 163.642 284.399 159.852 288.377 155.698C290.725 153.238 292.878 150.599 294.817 147.806C296.947 144.816 298.583 141.502 299.66 137.992C300.002 136.854 300.286 135.7 300.511 134.533C300.463 130.988 300.415 127.539 300.377 124.213C300.339 120.888 300.272 117.716 300.329 114.658C300.329 108.59 300.405 103.191 300.444 98.5953V95.8911C300.377 95.5185 300.272 95.1171 300.176 94.7158Z" fill="#3F00F9"/>
<path d="M300.386 93.9132C300.329 93.6743 300.262 93.4354 300.205 93.1965C300.205 93.6743 300.205 94.1521 300.205 94.6776C300.205 95.2032 300.405 95.4803 300.501 95.8625C300.501 95.3274 300.501 94.8114 300.501 94.305L300.386 93.9132Z" fill="#3F00F9"/>
<path d="M259.363 167.108C254.522 163.809 250.025 160.031 245.94 155.832C243.493 153.395 241.205 150.804 239.09 148.073C236.968 145.047 235.373 141.684 234.371 138.126C234.103 137.171 233.884 136.301 233.692 135.384C233.587 134.944 233.514 134.497 233.473 134.046C233.473 133.578 233.473 133.09 233.473 132.641C233.473 130.778 233.473 128.943 233.473 127.147C233.473 123.535 233.444 120.07 233.387 116.751C233.32 110.129 233.263 104.157 233.215 99.1496C233.215 97.5825 233.215 96.1301 233.157 94.7542C233.052 95.4039 232.947 96.0441 232.842 96.6652V99.1592C232.842 104.176 232.842 110.138 232.899 116.76C232.899 120.076 232.899 123.554 232.947 127.156C232.947 128.962 232.947 130.797 232.947 132.651C232.947 133.119 232.947 133.606 232.947 134.055C232.983 134.541 233.056 135.024 233.167 135.498C233.358 136.454 233.587 137.409 233.855 138.279C234.869 141.893 236.483 145.311 238.632 148.389C240.767 151.134 243.078 153.738 245.548 156.186C249.669 160.388 254.212 164.153 259.105 167.423C261.699 169.163 264.388 170.758 267.159 172.201L267.407 172.048C264.643 170.54 261.958 168.891 259.363 167.108Z" fill="#3F00F9"/>
<path d="M233.119 92.6902C233.119 92.824 233.043 92.9673 233.014 93.1011C232.957 93.5502 232.899 93.9706 232.833 94.4006V96.6557C232.938 96.0441 233.043 95.4039 233.148 94.7446C233.253 94.0853 233.119 93.3495 233.119 92.6902Z" fill="#3F00F9"/>
<path d="M267.197 172.181L267.455 172.315L267.704 172.162L267.446 172.029L267.197 172.181Z" fill="#3F00F9"/>
<path d="M223.881 80.6694L224.282 80.335C226.715 78.3897 229.348 76.7081 232.135 75.3184C235.356 73.7561 238.735 72.5452 242.214 71.7064C246.056 70.7621 249.966 70.1231 253.908 69.7954C258.155 69.5362 262.412 69.4979 266.662 69.6807C270.912 69.6921 275.155 70.0114 279.359 70.6362C281.352 70.9681 283.326 71.405 285.273 71.9453C287.183 72.4804 289.094 73.0155 290.833 73.6366C294.219 74.7898 297.433 76.397 300.386 78.4143C302.711 80.0175 304.84 81.8871 306.73 83.9851C306.329 83.3481 305.918 82.727 305.498 82.1218C303.998 80.6265 302.371 79.2645 300.635 78.0512C297.655 76.0022 294.409 74.3721 290.986 73.2066C289.18 72.5664 287.308 72.0218 285.397 71.4867C283.435 70.9358 281.445 70.4893 279.435 70.1489C275.206 69.5207 270.937 69.2014 266.662 69.1934C262.395 69.0186 258.123 69.06 253.86 69.3176C249.89 69.671 245.955 70.3388 242.09 71.3147C238.582 72.1755 235.177 73.4121 231.935 75.0031C230.037 75.9697 228.21 77.0714 226.47 78.2997C225.559 79.0353 224.694 79.8267 223.881 80.6694Z" fill="#3F00F9"/>
<path d="M264.78 184.135L263.691 184.021L262.955 183.906L262.592 183.829H262.401H262.315H262.239V183.982V183.82C261.186 183.574 260.159 183.228 259.172 182.788C251.1 178.229 243.631 172.676 236.941 166.257C233.05 162.553 229.495 158.511 226.317 154.179C223.098 149.679 220.27 144.538 219.276 138.738C218.72 135.704 218.509 132.617 218.646 129.536C218.703 126.468 218.693 123.458 218.646 120.496C218.646 114.572 218.54 108.867 218.493 103.421C218.493 100.707 218.493 98.0507 218.493 95.4707C218.493 94.1712 218.407 92.9194 218.55 91.6964C218.677 90.4884 218.93 89.2971 219.305 88.1418C220.265 85.3503 221.82 82.8007 223.862 80.6694C223.18 81.2236 222.543 81.7779 221.951 82.3321C220.626 84.0391 219.593 85.9538 218.894 87.9984C218.501 89.1829 218.238 90.4069 218.111 91.6486C218.018 92.9204 217.993 94.1962 218.034 95.4707C218.034 98.0411 218.034 100.698 218.034 103.421C218.034 108.858 218.111 114.572 218.158 120.487C218.158 123.449 218.158 126.459 218.158 129.517C218.013 132.633 218.224 135.755 218.789 138.824C219.792 144.719 222.677 149.946 225.925 154.475C229.127 158.826 232.708 162.883 236.625 166.601C243.367 173.019 250.898 178.552 259.038 183.065C259.497 183.266 259.994 183.438 260.404 183.591C260.815 183.743 261.36 183.791 261.885 183.868C262.844 184.016 263.811 184.105 264.78 184.135Z" fill="#3F00F9"/>
<path d="M226.48 78.2136C225.629 78.8156 224.798 79.4271 224.043 80.0387L223.394 80.5929C222.897 81.1376 222.438 81.7205 221.961 82.332C222.559 81.7778 223.196 81.2236 223.871 80.6694C224.688 79.7966 225.559 78.9764 226.48 78.2136Z" fill="#3F00F9"/>
<path d="M280.142 177.733C284.482 174.549 288.571 171.035 292.371 167.222C296.639 163.024 300.48 158.411 303.835 153.453C305.602 150.803 307.124 147.998 308.383 145.073C309.63 142.004 310.499 138.795 310.972 135.517C311.029 131.934 311.086 128.293 311.144 124.614C311.214 119.123 311.214 113.74 311.144 108.466C311.144 105.838 311.077 103.239 311.039 100.669C311.039 99.3883 311.039 98.1174 311.086 96.8465C311.217 95.5758 311.217 94.295 311.086 93.0244C310.914 91.6746 310.594 90.3479 310.131 89.0684C309.733 88.0618 309.263 87.0847 308.727 86.1445C308.278 85.5616 307.771 84.9787 307.294 84.3958C307.112 84.1761 306.902 83.9658 306.701 83.7556C307.131 84.4149 307.552 85.0934 307.953 85.7814C308.618 86.885 309.19 88.042 309.663 89.2404C309.885 89.8652 310.067 90.5035 310.208 91.1515C310.274 91.4764 310.341 91.7917 310.399 92.107L310.485 92.5944V92.8428V92.967V93.053H310.704H310.475C310.599 94.2889 310.599 95.5342 310.475 96.7701C310.408 98.0409 310.418 99.3214 310.427 100.592C310.427 103.153 310.494 105.752 310.523 108.38C310.523 113.645 310.523 119.034 310.523 124.519C310.465 128.188 310.399 131.81 310.341 135.383C309.876 138.599 309.023 141.747 307.8 144.757C306.56 147.656 305.057 150.436 303.31 153.061C299.994 157.994 296.199 162.587 291.979 166.773C288.238 170.614 284.211 174.166 279.932 177.398C277.926 178.889 275.9 180.265 273.971 181.517C272.124 182.724 270.049 183.54 267.875 183.915C266.866 184.087 265.842 184.16 264.818 184.135H265.22C266.149 184.221 267.086 184.166 268 183.973C269.363 183.701 270.712 183.359 272.041 182.95C272.781 182.624 273.496 182.244 274.181 181.813C276.111 180.561 278.117 179.233 280.142 177.733Z" fill="#3F00F9"/>
<path d="M307.332 84.5489C307.848 85.1318 308.288 85.7147 308.765 86.2976L308.421 85.686C308.087 85.1127 307.724 84.5776 307.37 84.0234C306.784 83.3863 306.147 82.727 305.459 82.0454C305.88 82.6824 306.291 83.3035 306.692 83.9087C306.94 84.1189 307.151 84.3578 307.332 84.5489Z" fill="#3F00F9"/>
<path d="M265.181 184.173H264.78C263.801 184.148 262.825 184.061 261.857 183.916C261.341 183.839 260.901 183.734 260.376 183.638C260.962 183.841 261.558 184.013 262.162 184.154C262.888 184.307 263.576 184.403 264.255 184.479C265.477 184.559 266.704 184.501 267.914 184.307C269.335 184.069 270.717 183.639 272.022 183.027C270.693 183.436 269.344 183.777 267.98 184.049C267.059 184.232 266.115 184.274 265.181 184.173Z" fill="#3F00F9"/>
<path d="M282.263 102.284C281.348 102.1 280.401 102.14 279.504 102.401C278.608 102.663 277.788 103.137 277.114 103.784C276.77 104.076 276.45 104.395 276.159 104.739C276.01 104.919 275.873 105.107 275.748 105.303L275.442 105.877C275.041 106.641 274.63 107.405 274.238 108.16L271.879 112.613L263.548 128.389L257.644 119.732L256.325 117.821C256.23 117.677 256.096 117.505 256.029 117.381C255.942 117.212 255.843 117.049 255.733 116.894C255.52 116.596 255.269 116.326 254.988 116.091C254.477 115.673 253.859 115.405 253.205 115.317C252.55 115.23 251.884 115.326 251.281 115.594C250.308 115.999 249.512 116.738 249.036 117.677C248.767 118.236 248.634 118.849 248.648 119.469C248.661 120.088 248.82 120.695 249.112 121.242C249.18 121.384 249.266 121.515 249.37 121.633C249.075 121.094 248.884 120.504 248.806 119.894C248.729 119.161 248.865 118.421 249.198 117.763C249.675 116.892 250.443 116.216 251.367 115.852C251.929 115.611 252.546 115.529 253.152 115.617C253.757 115.705 254.326 115.958 254.797 116.349C255.06 116.568 255.291 116.822 255.484 117.104C255.585 117.247 255.674 117.397 255.752 117.553C255.857 117.744 255.962 117.869 256.067 118.031C256.478 118.652 256.908 119.302 257.357 119.942L263.595 129.23C266.223 124.318 269.156 118.805 272.328 112.862C273.101 111.409 273.894 109.928 274.687 108.418C275.089 107.663 275.499 106.909 275.901 106.144L276.206 105.571C276.302 105.447 276.436 105.236 276.569 105.083C276.83 104.74 277.121 104.42 277.439 104.128C278.049 103.536 278.794 103.101 279.609 102.861C280.425 102.621 281.287 102.584 282.12 102.752C282.962 102.913 283.737 103.323 284.346 103.927C284.63 104.236 284.838 104.606 284.956 105.009C285.074 105.412 285.097 105.836 285.024 106.249C284.942 106.777 284.757 107.284 284.48 107.74L283.658 109.202L282.034 112.068L278.891 117.802L272.891 128.532C270.98 131.953 269.175 135.221 267.474 138.25C267.055 138.934 266.449 139.483 265.728 139.834C265.007 140.184 264.201 140.321 263.404 140.228C262.652 140.124 261.941 139.825 261.341 139.359C261.047 139.146 260.789 138.888 260.577 138.594L259.965 137.639L252.322 125.895L250.211 122.713C249.962 122.36 249.771 122.083 249.647 121.891C249.56 121.793 249.464 121.704 249.361 121.624C249.403 121.732 249.457 121.834 249.523 121.93L250.039 122.771L252.064 126.01C253.851 128.8 256.43 132.842 259.612 137.839L260.214 138.795C260.441 139.132 260.725 139.426 261.054 139.664C261.71 140.173 262.487 140.503 263.309 140.62C264.192 140.728 265.087 140.58 265.888 140.194C266.689 139.807 267.362 139.199 267.828 138.441L273.283 128.752L279.302 118.031C280.353 116.177 281.416 114.288 282.493 112.365L284.117 109.498L284.938 108.036C285.247 107.524 285.451 106.955 285.54 106.364C285.625 105.872 285.596 105.367 285.456 104.889C285.315 104.41 285.066 103.97 284.728 103.602C284.054 102.931 283.196 102.472 282.263 102.284Z" fill="#3F00F9"/>
<path d="M170.044 56.5812H196.794C197.562 56.5654 198.325 56.7151 199.03 57.0201C199.736 57.3251 200.368 57.7783 200.883 58.349C201.715 59.3387 202.15 60.6017 202.106 61.894V87.5025C202.067 88.6814 201.625 89.8113 200.854 90.7036C200.387 91.223 199.821 91.6443 199.19 91.9429C198.558 92.2414 197.874 92.4113 197.176 92.4426H170.473C169.765 92.4797 169.056 92.3675 168.394 92.1132C167.732 91.8588 167.13 91.4681 166.628 90.9662C166.126 90.4644 165.736 89.8627 165.481 89.2002C165.227 88.5376 165.115 87.829 165.152 87.1203V61.1392C165.248 59.9684 165.757 58.87 166.589 58.0402C167.42 57.2105 168.519 56.7035 169.69 56.6099L170.044 56.5812Z" fill="#8585FF"/>
<path d="M197.013 56.5813L169.308 56.7247C169.365 57.986 169.69 60.6901 171.553 62.4579C172.597 63.3705 173.777 64.1151 175.05 64.6652C175.346 64.799 175.757 64.9614 176.444 65.2767C176.798 65.4392 177.954 65.9743 178.747 66.4234C180.397 67.3603 181.779 68.7061 182.759 70.3315C183.163 70.9804 183.483 71.6769 183.715 72.405C183.928 73.2327 184.044 74.0826 184.059 74.9372C184.164 76.5617 183.992 76.8483 184.164 77.8898C184.291 78.5983 184.496 79.2905 184.775 79.9538C185.845 82.4096 188.434 83.69 189.313 84.1009C190.192 84.5117 190.058 84.3015 196.134 85.8399C197.45 86.1191 198.707 86.6234 199.851 87.3306C200.587 87.8051 201.258 88.3737 201.848 89.0219C202.011 88.5442 202.105 88.0453 202.125 87.5408V61.9323C202.169 60.64 201.734 59.377 200.902 58.3873C200.413 57.8344 199.815 57.3885 199.146 57.0777C198.477 56.7669 197.751 56.5979 197.013 56.5813Z" fill="#6363F6"/>
<path d="M191.138 62.7827C192.311 62.7648 193.444 63.2119 194.289 64.0265C195.134 64.8411 195.622 65.957 195.647 67.1304C195.647 72.2266 195.647 77.3229 195.647 82.4191C195.618 83.3951 195.254 84.3315 194.618 85.0722C193.982 85.8129 193.111 86.3132 192.151 86.4897L175.69 86.5661C175.082 86.5694 174.481 86.4404 173.929 86.1879C173.376 85.9355 172.885 85.5656 172.489 85.1041C171.903 84.3701 171.592 83.454 171.611 82.5146C171.611 77.1827 171.611 71.8572 171.611 66.538C171.694 65.6031 172.103 64.7274 172.767 64.0637C173.431 63.4 174.306 62.9906 175.241 62.907L191.138 62.7827Z" fill="#ADADFF"/>
<path d="M191.138 62.7827L175.193 62.9451C174.484 63.0126 173.805 63.2664 173.225 63.6809C173.781 64.0411 174.362 64.3605 174.964 64.6365C175.26 64.7607 175.671 64.9327 176.359 65.248C176.712 65.4104 177.868 65.936 178.651 66.3947C180.305 67.3303 181.691 68.6762 182.674 70.3028C183.078 70.9507 183.4 71.6475 183.629 72.3763C183.842 73.2008 183.957 74.0475 183.973 74.8989C184.068 76.5234 183.906 76.81 184.078 77.8611C184.205 78.5663 184.411 79.2553 184.689 79.9155C185.75 82.3808 188.348 83.6517 189.227 84.0721C190.106 84.4926 190.02 84.3206 194.377 85.3908L194.539 85.2379C195.219 84.4823 195.611 83.5114 195.647 82.4955C195.647 77.3993 195.647 72.3031 195.647 67.2069C195.622 66.0334 195.134 64.9175 194.289 64.1029C193.444 63.2883 192.311 62.8412 191.138 62.8591V62.7827Z" fill="#8585FF"/>
<path d="M317.948 41.2922H333.296C333.737 41.2831 334.175 41.369 334.579 41.544C334.984 41.719 335.347 41.979 335.642 42.3064C336.12 42.8743 336.37 43.599 336.344 44.3405V59.0339C336.322 59.7103 336.068 60.3586 335.626 60.8705C335.358 61.1686 335.033 61.4103 334.671 61.5816C334.309 61.7529 333.916 61.8504 333.515 61.8684H318.194C317.788 61.8897 317.381 61.8253 317.001 61.6793C316.621 61.5334 316.276 61.3092 315.988 61.0213C315.7 60.7333 315.476 60.3881 315.33 60.0079C315.184 59.6278 315.12 59.2212 315.141 58.8146V43.9074C315.196 43.2356 315.488 42.6054 315.965 42.1293C316.442 41.6532 317.073 41.3623 317.745 41.3086L317.948 41.2922Z" fill="#8585FF"/>
<path d="M333.422 41.2922L317.526 41.3745C317.559 42.0982 317.745 43.6498 318.814 44.6641C319.413 45.1877 320.09 45.6149 320.82 45.9305C320.99 46.0073 321.226 46.1005 321.62 46.2814C321.823 46.3746 322.486 46.6816 322.941 46.9393C323.888 47.4769 324.681 48.2491 325.244 49.1817C325.475 49.554 325.659 49.9536 325.792 50.3714C325.914 50.8463 325.981 51.334 325.989 51.8243C326.05 52.7564 325.951 52.9208 326.05 53.5184C326.122 53.925 326.24 54.3221 326.4 54.7027C327.014 56.1117 328.5 56.8464 329.004 57.0821C329.508 57.3179 329.432 57.1973 332.918 58.08C333.673 58.2401 334.394 58.5295 335.05 58.9353C335.473 59.2075 335.858 59.5337 336.196 59.9057C336.29 59.6316 336.343 59.3454 336.355 59.0559V44.3625C336.381 43.621 336.131 42.8963 335.653 42.3285C335.373 42.0112 335.03 41.7554 334.646 41.5771C334.262 41.3987 333.845 41.3018 333.422 41.2922Z" fill="#6363F6"/>
<path d="M330.051 44.8504C330.724 44.8401 331.374 45.0967 331.859 45.564C332.344 46.0314 332.624 46.6717 332.638 47.345C332.638 50.269 332.638 53.1931 332.638 56.1171C332.621 56.6772 332.413 57.2144 332.048 57.6394C331.683 58.0644 331.183 58.3515 330.632 58.4527L321.187 58.4966C320.839 58.4985 320.494 58.4245 320.177 58.2796C319.859 58.1347 319.578 57.9225 319.351 57.6577C319.014 57.2366 318.836 56.7109 318.847 56.172C318.847 53.1127 318.847 50.057 318.847 47.0051C318.894 46.4687 319.129 45.9662 319.51 45.5854C319.891 45.2046 320.393 44.9697 320.93 44.9217L330.051 44.8504Z" fill="#ADADFF"/>
<path d="M330.051 44.8506L320.902 44.9438C320.495 44.9825 320.105 45.1281 319.773 45.366C320.092 45.5726 320.425 45.7559 320.77 45.9142C320.94 45.9855 321.176 46.0842 321.571 46.2651C321.774 46.3583 322.437 46.6598 322.886 46.923C323.835 47.4598 324.63 48.2321 325.194 49.1654C325.426 49.5371 325.611 49.9369 325.742 50.3551C325.865 50.8282 325.931 51.314 325.94 51.8025C325.994 52.7346 325.901 52.899 326 53.5021C326.073 53.9068 326.191 54.3021 326.351 54.6809C326.959 56.0954 328.45 56.8246 328.954 57.0658C329.459 57.3071 329.409 57.2084 331.909 57.8224L332.002 57.7347C332.392 57.3011 332.617 56.7441 332.638 56.1612C332.638 53.2371 332.638 50.3131 332.638 47.389C332.624 46.7157 332.344 46.0755 331.859 45.6081C331.374 45.1407 330.724 44.8841 330.051 44.8944V44.8506Z" fill="#8585FF"/>
<path d="M362.133 93.5274H402.904C404.075 93.5033 405.238 93.7314 406.313 94.1963C407.388 94.6611 408.351 95.3519 409.136 96.2217C410.404 97.7301 411.068 99.6551 411 101.625V140.655C410.941 142.452 410.268 144.174 409.092 145.534C408.38 146.326 407.518 146.968 406.556 147.423C405.593 147.878 404.55 148.137 403.486 148.185H362.788C361.708 148.241 360.628 148.07 359.619 147.683C358.609 147.295 357.692 146.7 356.928 145.935C356.163 145.17 355.567 144.253 355.18 143.243C354.792 142.233 354.621 141.153 354.678 140.073V100.474C354.824 98.6899 355.6 97.0157 356.867 95.7511C358.134 94.4864 359.81 93.7137 361.594 93.5711L362.133 93.5274Z" fill="#8585FF"/>
<path d="M403.239 93.5276L361.012 93.7461C361.1 95.6685 361.595 99.79 364.434 102.484C366.025 103.875 367.823 105.01 369.763 105.848C370.215 106.052 370.841 106.3 371.889 106.781C372.428 107.028 374.19 107.844 375.398 108.528C377.914 109.956 380.02 112.007 381.514 114.485C382.129 115.474 382.618 116.535 382.97 117.645C383.296 118.906 383.472 120.202 383.494 121.504C383.655 123.98 383.392 124.417 383.655 126.005C383.848 127.084 384.161 128.139 384.586 129.15C386.217 132.893 390.163 134.845 391.503 135.471C392.843 136.097 392.639 135.777 401.899 138.122C403.904 138.547 405.821 139.316 407.564 140.394C408.686 141.117 409.709 141.983 410.607 142.971C410.856 142.243 410.999 141.483 411.029 140.714V101.683C411.098 99.7136 410.434 97.7886 409.165 96.2801C408.421 95.4374 407.51 94.7579 406.49 94.2842C405.47 93.8105 404.363 93.5529 403.239 93.5276Z" fill="#6363F6"/>
<path d="M394.284 102.979C396.072 102.952 397.799 103.633 399.087 104.875C400.374 106.117 401.119 107.817 401.157 109.606C401.157 117.373 401.157 125.14 401.157 132.908C401.111 134.395 400.558 135.822 399.588 136.951C398.618 138.08 397.291 138.843 395.828 139.112L370.739 139.228C369.813 139.233 368.897 139.037 368.054 138.652C367.212 138.267 366.464 137.703 365.861 137C364.967 135.881 364.493 134.485 364.521 133.053C364.521 124.927 364.521 116.81 364.521 108.703C364.649 107.278 365.273 105.943 366.284 104.932C367.295 103.92 368.63 103.296 370.055 103.169L394.284 102.979Z" fill="#ADADFF"/>
<path d="M394.284 102.979L369.981 103.227C368.9 103.33 367.865 103.716 366.982 104.348C367.829 104.897 368.714 105.384 369.632 105.805C370.083 105.994 370.709 106.256 371.758 106.737C372.296 106.984 374.058 107.785 375.252 108.484C377.773 109.91 379.884 111.962 381.383 114.441C382 115.428 382.489 116.49 382.839 117.601C383.163 118.858 383.339 120.148 383.363 121.446C383.508 123.922 383.261 124.359 383.523 125.961C383.717 127.036 384.03 128.086 384.455 129.092C386.071 132.849 390.032 134.786 391.371 135.427C392.711 136.068 392.58 135.806 399.22 137.437L399.467 137.204C400.504 136.052 401.102 134.573 401.156 133.024C401.156 125.257 401.156 117.49 401.156 109.722C401.118 107.934 400.374 106.233 399.086 104.991C397.798 103.75 396.072 103.068 394.284 103.096V102.979Z" fill="#8585FF"/>
<path d="M373.536 172.202H400.286C401.054 172.186 401.817 172.335 402.523 172.64C403.228 172.945 403.86 173.399 404.375 173.969C405.207 174.959 405.643 176.222 405.598 177.514V203.123C405.559 204.302 405.118 205.432 404.346 206.324C403.879 206.843 403.313 207.265 402.682 207.563C402.05 207.862 401.366 208.032 400.668 208.063H373.966C373.257 208.1 372.549 207.988 371.886 207.734C371.224 207.479 370.622 207.088 370.12 206.587C369.619 206.085 369.228 205.483 368.974 204.821C368.719 204.158 368.607 203.449 368.644 202.741V176.76C368.74 175.589 369.249 174.49 370.081 173.661C370.912 172.831 372.011 172.324 373.182 172.23L373.536 172.202Z" fill="#8585FF"/>
<path d="M400.506 172.201L372.8 172.345C372.857 173.606 373.182 176.31 375.045 178.078C376.089 178.991 377.269 179.735 378.542 180.285C378.838 180.419 379.249 180.582 379.937 180.897C380.29 181.059 381.446 181.594 382.239 182.043C383.89 182.98 385.271 184.326 386.252 185.952C386.655 186.601 386.976 187.297 387.207 188.025C387.421 188.853 387.536 189.703 387.551 190.557C387.656 192.182 387.484 192.468 387.656 193.51C387.783 194.218 387.988 194.911 388.267 195.574C389.337 198.03 391.926 199.31 392.805 199.721C393.684 200.132 393.551 199.922 399.627 201.46C400.942 201.739 402.199 202.243 403.343 202.951C404.079 203.425 404.751 203.994 405.34 204.642C405.503 204.164 405.597 203.665 405.617 203.161V177.552C405.662 176.26 405.226 174.997 404.394 174.007C403.905 173.454 403.308 173.009 402.639 172.698C401.969 172.387 401.243 172.218 400.506 172.201Z" fill="#6363F6"/>
<path d="M394.63 178.403C395.804 178.385 396.936 178.832 397.781 179.647C398.626 180.461 399.115 181.577 399.14 182.751C399.14 187.847 399.14 192.943 399.14 198.039C399.11 199.015 398.747 199.952 398.11 200.693C397.474 201.433 396.603 201.934 395.643 202.11L379.182 202.186C378.575 202.19 377.973 202.061 377.421 201.808C376.868 201.556 376.377 201.186 375.982 200.724C375.395 199.99 375.084 199.074 375.103 198.135C375.103 192.803 375.103 187.478 375.103 182.158C375.186 181.224 375.596 180.348 376.259 179.684C376.923 179.02 377.798 178.611 378.733 178.527L394.63 178.403Z" fill="#ADADFF"/>
<path d="M394.63 178.403L378.685 178.566C377.976 178.633 377.297 178.887 376.717 179.301C377.273 179.661 377.854 179.981 378.456 180.257C378.752 180.381 379.163 180.553 379.851 180.868C380.204 181.031 381.36 181.556 382.144 182.015C383.798 182.951 385.183 184.297 386.166 185.923C386.571 186.571 386.892 187.268 387.121 187.997C387.334 188.821 387.45 189.668 387.465 190.519C387.561 192.144 387.398 192.43 387.57 193.481C387.698 194.187 387.903 194.876 388.182 195.536C389.242 198.001 391.841 199.272 392.719 199.692C393.598 200.113 393.512 199.941 397.869 201.011L398.031 200.858C398.711 200.103 399.104 199.132 399.14 198.116C399.14 193.02 399.14 187.923 399.14 182.827C399.114 181.654 398.626 180.538 397.781 179.723C396.936 178.909 395.804 178.462 394.63 178.48V178.403Z" fill="#8585FF"/>
<path d="M126.46 119.643H140.081C140.472 119.635 140.861 119.712 141.22 119.867C141.579 120.022 141.901 120.253 142.163 120.544C142.587 121.047 142.809 121.691 142.786 122.349V135.388C142.766 135.988 142.541 136.563 142.148 137.018C141.911 137.282 141.623 137.497 141.301 137.649C140.979 137.801 140.631 137.887 140.276 137.903H126.679C126.319 137.922 125.958 137.865 125.621 137.735C125.283 137.606 124.977 137.407 124.721 137.151C124.466 136.896 124.267 136.59 124.138 136.252C124.008 135.915 123.951 135.554 123.97 135.193V121.964C124.019 121.368 124.278 120.809 124.701 120.386C125.125 119.964 125.684 119.706 126.28 119.658L126.46 119.643Z" fill="#8585FF"/>
<path d="M140.193 119.643L126.086 119.716C126.115 120.359 126.281 121.735 127.229 122.636C127.761 123.1 128.361 123.479 129.01 123.759C129.16 123.828 129.37 123.91 129.72 124.071C129.9 124.154 130.488 124.426 130.892 124.655C131.733 125.132 132.436 125.817 132.935 126.645C133.141 126.975 133.304 127.33 133.422 127.7C133.531 128.122 133.589 128.555 133.597 128.99C133.65 129.817 133.563 129.963 133.65 130.493C133.715 130.854 133.819 131.206 133.962 131.544C134.507 132.794 135.825 133.446 136.272 133.656C136.72 133.865 136.652 133.758 139.746 134.541C140.415 134.683 141.055 134.94 141.638 135.3C142.013 135.542 142.355 135.831 142.655 136.161C142.738 135.918 142.785 135.664 142.796 135.407V122.368C142.818 121.71 142.597 121.067 142.173 120.563C141.924 120.281 141.62 120.054 141.279 119.896C140.938 119.738 140.569 119.652 140.193 119.643Z" fill="#6363F6"/>
<path d="M137.201 122.801C137.799 122.792 138.376 123.02 138.806 123.434C139.236 123.849 139.485 124.417 139.498 125.015C139.498 127.61 139.498 130.205 139.498 132.799C139.482 133.296 139.297 133.773 138.973 134.15C138.649 134.527 138.206 134.782 137.717 134.872L129.336 134.911C129.026 134.913 128.72 134.847 128.439 134.718C128.157 134.59 127.907 134.402 127.706 134.167C127.407 133.793 127.249 133.326 127.258 132.848C127.258 130.133 127.258 127.422 127.258 124.713C127.301 124.237 127.509 123.791 127.847 123.453C128.185 123.115 128.631 122.907 129.107 122.864L137.201 122.801Z" fill="#ADADFF"/>
<path d="M137.201 122.801L129.082 122.884C128.721 122.918 128.375 123.047 128.08 123.258C128.363 123.442 128.659 123.604 128.966 123.745C129.116 123.808 129.326 123.896 129.676 124.056C129.856 124.139 130.444 124.407 130.843 124.64C131.685 125.117 132.391 125.802 132.891 126.63C133.097 126.96 133.261 127.315 133.378 127.686C133.486 128.106 133.545 128.537 133.553 128.97C133.601 129.797 133.519 129.943 133.606 130.479C133.671 130.838 133.776 131.189 133.918 131.525C134.458 132.78 135.781 133.427 136.228 133.641C136.676 133.855 136.632 133.768 138.85 134.313L138.933 134.235C139.279 133.85 139.479 133.356 139.497 132.838C139.497 130.243 139.497 127.649 139.497 125.054C139.484 124.456 139.236 123.888 138.806 123.473C138.375 123.058 137.799 122.831 137.201 122.84V122.801Z" fill="#8585FF"/>
</svg>
