<svg width="535" height="250" viewBox="0 0 535 250" fill="none" xmlns="http://www.w3.org/2000/svg">
<path d="M97.4924 185.984L97.7827 196.127C98.1932 197.213 98.9423 198.138 99.9192 198.765C100.735 199.278 101.636 199.638 102.58 199.83C103.372 200.05 104.181 200.204 104.999 200.29C165.402 210.458 208.455 217.809 237.327 222.739C301.624 233.746 288.821 231.696 304.14 234.238C317.951 236.522 335.865 239.435 360.657 244.05C370.542 245.89 378.636 247.463 383.941 248.504C388.545 249.416 393.228 249.873 397.921 249.868C403.75 249.868 406.492 249.11 407.717 248.738C410.174 247.972 412.512 246.87 414.667 245.462C416.218 244.447 417.665 243.283 418.988 241.984C423.482 235.626 427.97 229.262 432.453 222.892C433.756 221.56 434.844 220.033 435.678 218.366C436.488 216.724 437.048 214.969 437.338 213.161C437.338 209.998 437.338 206.832 437.338 203.663C437.217 203.978 437.016 204.47 436.742 205.043C435.42 207.152 434.019 209.285 432.541 211.442C429.139 216.421 425.688 220.988 422.278 225.16C421.6 226.723 420.656 228.157 419.488 229.396C417.703 231.241 415.486 232.611 413.038 233.383C411.754 233.791 410.434 234.078 409.096 234.238C402.646 235.271 399.421 235.795 396.462 235.852C394.077 235.882 391.692 235.742 389.327 235.432L104.402 189.211C104.136 189.211 103.805 189.211 103.418 189.139C102.905 189.086 102.395 188.997 101.895 188.872C101.173 188.711 100.475 188.462 99.8144 188.13C99.2103 187.87 98.6626 187.494 98.2019 187.024C97.9166 186.714 97.6776 186.363 97.4924 185.984Z" fill="#638EF6"/>
<path d="M100.612 182.312C100.046 182.518 99.5048 182.789 99 183.119C98.5733 183.381 98.1943 183.714 97.8793 184.104C97.7131 184.337 97.575 184.589 97.4681 184.854V186.056C97.7142 186.457 98.0124 186.824 98.355 187.146C98.7908 187.553 99.2889 187.888 99.8304 188.138C101.296 188.764 102.859 189.127 104.45 189.212L389.295 235.416C390.952 235.713 392.627 235.896 394.309 235.965C396.156 236.038 397.647 235.965 404.347 235.013C411.442 234.012 412.869 233.673 414.715 232.753C416.255 232.004 417.671 231.024 418.916 229.848C420.27 228.562 421.394 227.053 422.237 225.386C426.537 219.512 430.864 213.64 435.218 207.771C435.986 206.665 436.607 205.463 437.064 204.196C437.361 203.603 437.471 202.933 437.379 202.276C437.098 201.406 436.503 200.672 435.71 200.218C434.947 199.72 434.116 199.337 433.243 199.08C431.179 198.273 430.147 197.926 429.897 197.846C428.601 197.452 427.281 197.139 425.946 196.91L192.258 166.246L146.754 165.948L100.612 182.312Z" fill="#85A8FF"/>
<path d="M144.351 125.771L144.464 127.384C145.729 127.858 147.021 128.254 148.334 128.57C150.828 129.154 153.376 129.479 155.937 129.539C161.04 129.773 163.693 129.966 167.659 129.878C172.626 129.757 176.286 129.345 177.286 129.224L182.93 128.417C185.563 128.008 188.163 127.409 190.71 126.626C191.159 126.465 191.595 126.271 192.016 126.045C192.242 125.916 192.443 125.779 192.443 125.779C192.588 125.684 192.728 125.581 192.863 125.472V124.407C192.773 124.296 192.67 124.195 192.556 124.108C192.313 123.924 192.04 123.782 191.75 123.689C189.89 123.054 187.984 122.561 186.05 122.212C183.728 121.873 182.567 121.704 181.914 121.639C178.577 121.278 175.224 121.092 171.868 121.083C167.772 121.071 163.678 121.319 159.613 121.825C158.38 121.986 156.259 122.366 152.026 123.132C150.281 123.395 148.571 123.858 146.931 124.512C146.043 124.87 145.18 125.291 144.351 125.771Z" fill="#D1C2FF"/>
<path d="M202.578 93.7516V94.9377C203.916 95.325 205.891 95.8576 208.318 96.3256C212.426 97.053 216.587 97.4336 220.758 97.4632C223.322 97.5601 226.918 97.673 231.707 97.4632C236.027 97.257 240.333 96.8207 244.607 96.1561C248.517 95.5267 251.5 94.7844 252.315 94.6473C252.587 94.5996 252.856 94.5349 253.121 94.4536L253.548 94.3084V93.5983C253.498 93.5452 253.441 93.499 253.379 93.4612L253.201 93.3724C249.756 92.0871 246.14 91.3151 242.47 91.0809C240.382 90.976 240.987 91.0809 237.859 90.9921C234.432 90.863 233.142 90.6936 230.772 90.5726C227.353 90.4112 224.781 90.5161 222.58 90.5726C218.985 90.6656 215.4 90.9998 211.849 91.5731C208.714 92.0938 205.617 92.8216 202.578 93.7516Z" fill="#D1C2FF"/>
<path d="M269.189 130.475V132.621C270.66 133.258 272.181 133.771 273.736 134.154C275.23 134.509 276.743 134.778 278.267 134.961C280.098 135.211 281.492 135.356 284.072 135.607C287.434 135.929 289.119 136.099 290.176 136.179C294.939 136.649 299.734 136.73 304.511 136.422C309.507 136 314.45 135.081 319.265 133.678C319.821 133.509 320.337 133.307 320.337 133.307C320.917 133.087 321.482 132.831 322.03 132.54L322.078 130.37C321.772 130.209 321.272 129.967 320.724 129.725C319.494 129.266 318.226 128.918 316.935 128.684L314.709 128.191C314.056 128.054 311.356 127.514 307.373 127.046C306.937 126.997 303.583 126.61 299.867 126.441C296.948 126.303 293.788 126.303 293.554 126.303C293.554 126.303 288.112 126.247 284.137 126.521C282.524 126.626 281.041 126.836 281.041 126.836C280.694 126.884 279.751 127.03 278.082 127.401C276.108 127.766 274.171 128.306 272.293 129.014C271.225 129.426 270.187 129.914 269.189 130.475Z" fill="#D1C2FF"/>
<path d="M343.984 52.2109V53.1066C344.79 53.2599 346.08 53.4696 347.604 53.6472C350.208 53.9618 352.192 54.0345 353.143 54.0667C362.189 54.3814 366.712 54.5428 370.074 54.5751C379.063 54.6799 385.513 54.5751 388.867 54.4379C389.924 54.4379 391.149 54.3491 393.592 54.2442C396.583 54.1232 397.623 54.0667 399.002 53.9457C400.38 53.8247 401.275 53.7278 401.969 53.6391L402.049 52.34C401.461 52.2109 400.638 52.0415 399.631 51.864C398.187 51.6138 397.059 51.4686 396.115 51.3556C393.745 51.0732 392.084 50.8715 389.44 50.6456C387.376 50.4762 382.643 50.1131 376.395 50.0001C372.098 49.9194 368.727 50.0001 367.075 50.0001C361.971 50.1292 358.504 50.4116 353.369 50.807C352.006 50.9199 350.144 51.0732 347.725 51.4605C346.185 51.7429 344.887 52.0334 343.984 52.2109Z" fill="#D1C2FF"/>
<path d="M144.496 127.498L146.915 177.229C147.907 177.839 148.952 178.36 150.035 178.786C152.192 179.568 154.453 180.025 156.743 180.142C161.008 180.562 163.137 180.771 166.966 180.949C169.336 181.105 171.712 181.14 174.085 181.054C176.833 180.876 179.561 180.477 182.245 179.86C184.026 179.472 185.873 178.867 189.557 177.665C190.414 177.4 191.229 177.015 191.976 176.519C192.64 176.061 193.242 175.519 193.766 174.905L192.871 125.368C192.767 125.471 192.656 125.568 192.54 125.658C192.275 125.873 191.982 126.053 191.67 126.191C191.234 126.392 190.863 126.513 190.863 126.538C189.251 127.07 188.445 127.272 188.445 127.272C184.55 128.192 182.277 128.523 182.277 128.523C175.23 129.556 169.571 129.79 169.571 129.79C165.306 129.975 162.113 129.862 160.009 129.79C153.188 129.556 150.14 128.983 148.641 128.611C146.883 128.24 145.472 127.813 144.496 127.498Z" fill="#A97FFF"/>
<path d="M202.642 95.0431C202.844 111.141 204.803 168.345 205.004 184.443C205.506 185.179 206.151 185.807 206.899 186.291C207.844 186.828 208.867 187.214 209.931 187.436C210.737 187.67 211.543 187.856 212.672 188.09C214.728 188.502 216.316 188.744 216.638 188.792C221.952 189.599 226.813 189.801 226.813 189.801C229.199 189.95 231.592 189.972 233.981 189.865C236.959 189.706 239.923 189.337 242.849 188.76C244.809 188.367 246.735 187.828 248.614 187.146C249.885 186.732 251.082 186.119 252.161 185.33C252.909 184.76 253.584 184.098 254.169 183.361C254.169 182.232 254.024 160.767 253.887 138.173C253.75 116.225 253.629 95.3416 253.621 94.2765C252.951 94.454 252.008 94.688 250.928 94.9301C249.847 95.1722 248.614 95.4223 246.687 95.737C244.921 96.0356 242.922 96.3745 240.237 96.6973C236.367 97.1624 232.476 97.4317 228.579 97.5042C226.612 97.5446 224.983 97.5042 224.177 97.5042C222.79 97.5042 220.662 97.4639 218.122 97.3105C214.581 97.1343 211.056 96.7272 207.568 96.0921C205.52 95.7532 203.827 95.3497 202.642 95.0431Z" fill="#A97FFF"/>
<path d="M269.205 193.004V132.614C269.617 132.807 270.253 133.082 271.035 133.372C272.962 134.07 274.965 134.533 277.002 134.752C283.218 135.486 286.322 135.849 288.765 136.011C295.545 136.471 298.931 136.705 301.931 136.568C305.293 136.384 308.643 136.002 311.96 135.422C314.586 134.972 317.177 134.341 319.716 133.533C320.429 133.303 321.12 133.009 321.78 132.654L322.006 132.525L321.2 193.448C320.675 194.077 320.092 194.655 319.458 195.175C318.555 195.891 317.577 196.505 316.54 197.007C312.815 198.774 306.357 199.379 305.672 199.427C302.571 199.759 299.454 199.918 296.335 199.903C292.643 199.863 288.579 199.274 280.452 198.088C278.602 197.77 276.772 197.347 274.97 196.821C273.802 196.56 272.685 196.108 271.664 195.481C270.694 194.821 269.859 193.98 269.205 193.004Z" fill="#A97FFF"/>
<path d="M343.976 53.0989L341.13 201.937C341.496 202.763 341.994 203.523 342.605 204.188C343.57 205.177 344.74 205.943 346.032 206.432C347.755 207.211 349.547 207.827 351.385 208.271C359.004 209.885 365.559 210.539 365.559 210.539C368.771 210.913 372 211.112 375.234 211.136C378.201 211.136 380.555 210.967 381.684 210.878C383.417 210.733 384.28 210.668 385.433 210.474C388.392 209.99 391.931 209.401 394.761 206.787C395.567 206.037 396.262 205.175 396.825 204.229L401.952 53.6476C401.34 53.7202 400.429 53.8251 399.316 53.93C396.325 54.2124 394.051 54.2609 392.866 54.2931C386.215 54.4464 382.893 54.5191 380.692 54.5271C377.556 54.5271 373.307 54.5675 367.147 54.5271C356.335 54.4222 352.788 54.1963 349.176 53.8009C346.975 53.5427 345.185 53.2845 343.976 53.0989Z" fill="#A97FFF"/>
<path d="M133.926 105.88C133.513 106.098 133.147 106.396 132.85 106.758C132.554 107.12 132.333 107.537 132.201 107.986C132.074 108.554 132.086 109.144 132.236 109.706C132.387 110.268 132.67 110.785 133.064 111.213L168.974 114.28C168.339 113.502 167.897 112.584 167.686 111.602C167.474 110.62 167.498 109.602 167.756 108.631L133.926 105.88Z" fill="#638EF6"/>
<path d="M175.69 106.098C175.608 107.093 175.854 108.088 176.391 108.93C176.951 109.787 177.779 110.435 178.745 110.77L225.185 66.7439C223.242 66.2191 221.576 64.9648 220.533 63.2418L175.69 106.098Z" fill="#638EF6"/>
<path d="M232.9 58.8441C232.546 58.9774 232.217 59.1682 231.925 59.409C231.131 60.1872 230.639 61.2226 230.538 62.33C230.364 63.2096 230.332 64.1112 230.441 65.001L282.79 116.136C282.936 115.166 283.288 114.239 283.822 113.417C284.434 112.479 285.264 111.704 286.241 111.157L232.9 58.8441Z" fill="#638EF6"/>
<path d="M291.796 110.818C291.952 111.947 292.465 112.995 293.261 113.81C294.056 114.625 295.091 115.163 296.214 115.345L360.028 16.2464C358.743 15.9513 357.545 15.3599 356.529 14.5195C355.708 13.8285 355.029 12.9844 354.53 12.0342L291.796 110.818Z" fill="#638EF6"/>
<path d="M127.251 102.305C128.01 102.006 128.821 101.863 129.636 101.885C130.452 101.906 131.254 102.092 131.996 102.431C132.738 102.77 133.404 103.255 133.955 103.857C134.505 104.46 134.929 105.167 135.2 105.937L133.927 105.872C133.353 106.201 132.881 106.682 132.562 107.261C132.242 107.84 132.086 108.495 132.112 109.156C132.183 109.907 132.504 110.612 133.024 111.157L134.273 111.295C133.65 112.046 132.863 112.645 131.973 113.045C131.083 113.446 130.113 113.636 129.137 113.602C128.079 113.54 127.056 113.196 126.175 112.604C125.295 112.012 124.589 111.195 124.131 110.237C123.511 108.77 123.49 107.117 124.074 105.634C124.657 104.151 125.798 102.956 127.251 102.305Z" fill="#A6FBF5"/>
<path d="M168.24 107.502C168.633 106.785 169.165 106.155 169.805 105.647C170.445 105.14 171.179 104.766 171.966 104.547C172.753 104.328 173.575 104.269 174.385 104.373C175.195 104.478 175.975 104.743 176.681 105.154L175.617 106.195C175.674 107.212 175.985 108.2 176.52 109.067C176.87 109.774 177.467 110.328 178.197 110.625C178.39 110.693 178.59 110.736 178.794 110.754L179.705 109.947C179.734 110.285 179.734 110.625 179.705 110.964C179.61 111.855 179.319 112.715 178.854 113.481C178.39 114.248 177.762 114.902 177.015 115.398C176.269 115.894 175.423 116.219 174.537 116.351C173.65 116.482 172.746 116.416 171.888 116.158C171.03 115.9 170.24 115.455 169.573 114.856C168.906 114.258 168.38 113.519 168.031 112.693C167.681 111.868 167.519 110.975 167.553 110.079C167.588 109.183 167.82 108.306 168.232 107.51L168.24 107.502Z" fill="#A6FBF5"/>
<path d="M227.12 53.0666C228.746 53.2034 230.272 53.9051 231.436 55.0502C232.599 56.1953 233.325 57.7116 233.489 59.3364L232.86 58.7877C232.573 58.9123 232.302 59.0722 232.054 59.2638C231.163 60.1153 230.612 61.2629 230.506 62.4915C230.358 63.314 230.323 64.1529 230.401 64.9849L230.828 65.3722C229.763 66.1762 228.49 66.6607 227.16 66.7692C225.83 66.8778 224.496 66.606 223.314 65.9855C221.911 65.2466 220.807 64.0454 220.187 62.585C219.567 61.1246 219.471 59.4948 219.914 57.9713C220.357 56.4479 221.312 55.1244 222.617 54.2247C223.923 53.3251 225.499 52.9045 227.079 53.0343L227.12 53.0666Z" fill="#A6FBF5"/>
<path d="M283.758 113.635C284.269 112.802 284.944 112.081 285.74 111.515C286.537 110.949 287.439 110.55 288.394 110.342C289.594 110.082 290.841 110.124 292.022 110.463L291.723 110.988C291.988 112.063 292.532 113.049 293.299 113.847C294.066 114.644 295.03 115.225 296.093 115.531L296.529 114.909C296.775 115.557 296.912 116.242 296.932 116.935C296.965 118.103 296.707 119.26 296.181 120.303C295.654 121.346 294.876 122.241 293.916 122.906C292.606 123.832 291.019 124.283 289.418 124.183C287.817 124.083 286.299 123.439 285.113 122.357C283.928 121.276 283.148 119.821 282.901 118.235C282.655 116.648 282.957 115.025 283.758 113.635Z" fill="#A6FBF5"/>
<path d="M369.171 8.39485C369.155 6.85111 368.682 5.34672 367.812 4.07168C366.943 2.79664 365.715 1.80813 364.284 1.231C362.854 0.65387 361.284 0.514003 359.774 0.829052C358.264 1.1441 356.881 1.89994 355.8 3.00112C354.719 4.1023 353.988 5.49943 353.7 7.01606C353.412 8.53269 353.579 10.1008 354.181 11.5224C354.782 12.9439 355.791 14.1551 357.08 15.0031C358.369 15.8511 359.88 16.2977 361.423 16.2866C363.479 16.2165 365.43 15.3584 366.872 13.8897C368.314 12.4209 369.137 10.4538 369.171 8.39485Z" fill="#A6FBF5"/>
<path d="M146.996 175.929C146.867 172.959 146.714 169.692 146.553 166.19L146.125 166.343C146.302 169.804 146.472 173.032 146.633 175.985L146.996 175.929Z" fill="#3F00F9"/>
<path d="M147.012 176.196L146.641 176.244C146.641 176.486 146.641 176.736 146.641 176.962L147.012 177.196C147.044 176.873 147.028 176.526 147.012 176.196Z" fill="#3F00F9"/>
<path d="M145.996 154.764C145.48 144.128 144.98 134.534 144.601 127.675L144.48 127.619L144.278 127.498C144.577 134.373 145.02 144.048 145.552 154.78C145.746 158.726 145.931 162.51 146.117 166.077L146.536 165.924C146.375 162.397 146.189 158.653 145.996 154.764Z" fill="#3F00F9"/>
<path d="M144.504 125.908C144.405 125.991 144.31 126.08 144.222 126.174C144.222 126.416 144.222 126.658 144.222 126.909C144.322 126.993 144.427 127.071 144.537 127.143C144.553 126.723 144.529 126.312 144.504 125.908Z" fill="#3F00F9"/>
<path d="M192.685 124.254C192.685 124.657 192.685 125.061 192.685 125.496C192.813 125.398 192.922 125.278 193.008 125.141V124.593C192.922 124.461 192.812 124.346 192.685 124.254Z" fill="#3F00F9"/>
<path d="M193.943 174.533C193.943 172.112 193.871 169.474 193.822 166.65L193.411 166.593C193.475 169.603 193.532 172.419 193.596 174.968L193.943 174.533Z" fill="#3F00F9"/>
<path d="M193.137 151.463C193.234 156.725 193.331 161.711 193.427 166.262L193.839 166.319C193.766 161.752 193.686 156.733 193.581 151.455C193.395 141.272 193.201 132.033 193.032 125.23C192.947 125.37 192.841 125.495 192.717 125.601C192.79 132.371 192.935 141.466 193.137 151.463Z" fill="#3F00F9"/>
<path d="M205.005 178.947L204.674 178.899C204.73 180.714 204.787 182.417 204.835 183.966C204.924 184.103 205.021 184.248 205.126 184.394C205.085 182.756 205.045 180.916 205.005 178.947Z" fill="#3F00F9"/>
<path d="M204.997 178.608C204.924 175.445 204.844 171.903 204.747 168.078L204.351 168.03C204.464 171.862 204.569 175.397 204.666 178.56L204.997 178.608Z" fill="#3F00F9"/>
<path d="M204.117 143.217C203.537 121.365 202.981 102.701 202.698 95.1641L202.529 95.0753C202.65 102.556 203.085 121.292 203.666 143.233C203.9 152.109 204.133 160.404 204.343 167.683L204.738 167.731C204.561 160.445 204.351 152.093 204.117 143.217Z" fill="#3F00F9"/>
<path d="M202.675 94.6475C202.675 94.4135 202.675 94.1876 202.675 93.9778L202.537 94.0665C202.537 94.2199 202.537 94.3812 202.537 94.5426L202.675 94.6475Z" fill="#3F00F9"/>
<path d="M253.604 139.408C253.685 152.956 253.782 165.23 253.879 174.146L254.194 174.187C254.194 165.254 254.137 152.972 254.056 139.4C253.935 119.283 253.782 101.974 253.653 94.2683C253.594 94.3055 253.532 94.3379 253.467 94.3652C253.467 102.128 253.516 119.364 253.604 139.408Z" fill="#3F00F9"/>
<path d="M254.226 183.094C254.226 180.827 254.226 177.938 254.226 174.566L253.911 174.525C253.951 178.059 253.984 181.061 254.016 183.401L254.226 183.094Z" fill="#3F00F9"/>
<path d="M253.508 94.2924L253.685 94.2117C253.685 94.0181 253.685 93.8325 253.685 93.655C253.633 93.6118 253.576 93.5739 253.516 93.542L253.508 94.2924Z" fill="#3F00F9"/>
<path d="M269.44 187.008C269.44 183.821 269.44 180.311 269.44 176.559L269.012 176.502C269.012 180.254 269.012 183.765 269.06 186.992L269.44 187.008Z" fill="#3F00F9"/>
<path d="M269.44 165.552C269.44 151.891 269.351 139.868 269.278 132.872C269.237 132.844 269.194 132.82 269.149 132.799L269.036 132.71C268.988 139.69 268.963 151.786 268.988 165.552C268.988 169.216 268.988 172.75 268.988 176.115L269.415 176.171C269.448 172.79 269.448 169.232 269.44 165.552Z" fill="#3F00F9"/>
<path d="M269.44 187.38L269.068 187.331C269.068 189.209 269.068 190.965 269.068 192.6C269.173 192.762 269.27 192.915 269.391 193.076C269.431 191.333 269.44 189.421 269.44 187.38Z" fill="#3F00F9"/>
<path d="M269.254 130.685L269.052 130.87C269.052 131.274 269.052 131.677 269.052 132.145L269.294 132.339C269.27 131.742 269.262 131.193 269.254 130.685Z" fill="#3F00F9"/>
<path d="M321.377 165.004C321.296 171.459 321.224 177.519 321.167 182.877L321.571 182.934C321.652 177.559 321.74 171.467 321.829 165.012C322.007 151.447 322.12 139.48 322.16 132.412L321.902 132.581C321.748 139.706 321.555 151.576 321.377 165.004Z" fill="#3F00F9"/>
<path d="M321.393 192.906C321.45 190.123 321.506 186.911 321.563 183.385L321.167 183.337C321.127 187.056 321.095 190.437 321.079 193.334C321.184 193.189 321.329 193.052 321.393 192.906Z" fill="#3F00F9"/>
<path d="M321.901 132.484L322.159 132.331V130.427C322.103 130.427 322.022 130.354 321.949 130.314C321.933 130.975 321.917 131.701 321.901 132.484Z" fill="#3F00F9"/>
<path d="M344.056 52.8405V52.4855L343.871 52.5581V52.8405L343.976 52.8809L344.056 52.8405Z" fill="#3F00F9"/>
<path d="M341.275 201.888C341.275 200.322 341.348 198.66 341.388 196.805L341.114 196.764C341.114 198.289 341.065 199.733 341.049 201.081L341.122 201.404C341.162 201.568 341.213 201.73 341.275 201.888Z" fill="#3F00F9"/>
<path d="M341.396 196.393C341.469 193.27 341.542 189.792 341.622 186.016L341.283 185.967C341.227 189.752 341.17 193.23 341.122 196.361L341.396 196.393Z" fill="#3F00F9"/>
<path d="M342.742 129.789C343.371 96.0436 343.871 66.9215 344.048 53.3328L343.863 53.2925C343.532 66.8489 342.928 95.9952 342.291 129.781C341.888 151.141 341.541 170.644 341.291 185.54L341.63 185.58C341.944 170.693 342.339 151.165 342.742 129.789Z" fill="#3F00F9"/>
<path d="M401.88 53.5989H402.05C402.05 53.1955 402.05 52.8082 402.05 52.437H401.904C401.953 52.7598 401.896 53.1632 401.88 53.5989Z" fill="#3F00F9"/>
<path d="M399.155 128.74C398.26 154.828 397.494 178.02 397.042 192.811L397.317 192.851C397.873 178.06 398.703 154.861 399.606 128.756C400.775 94.7444 401.711 65.6385 402.025 53.712H401.856C401.38 65.6869 400.34 94.8009 399.155 128.74Z" fill="#3F00F9"/>
<path d="M396.89 203.631C397.003 200.968 397.14 197.482 397.301 193.294H397.027C396.898 197.482 396.793 200.976 396.72 203.639L396.89 203.631Z" fill="#3F00F9"/>
<path d="M148.269 128.788C149.962 129.119 151.647 129.345 153.308 129.523C156.622 129.87 159.831 130.023 162.894 130.079C168.318 130.171 173.74 129.853 179.116 129.127C182.75 128.709 186.343 127.983 189.855 126.957C190.816 126.682 191.732 126.266 192.572 125.722L192.701 125.601V125.464L192.524 125.617C191.676 126.122 190.761 126.505 189.807 126.755C186.291 127.713 182.706 128.39 179.084 128.78C173.72 129.453 168.315 129.739 162.91 129.636C159.863 129.571 156.662 129.402 153.365 129.047C151.752 128.869 150.035 128.651 148.366 128.312C147.524 128.151 146.692 127.941 145.875 127.683C145.471 127.562 145.081 127.397 144.714 127.191L144.577 127.11C144.577 127.288 144.577 127.465 144.577 127.643C144.94 127.827 145.318 127.984 145.705 128.111C146.546 128.388 147.402 128.614 148.269 128.788Z" fill="#3F00F9"/>
<path d="M144.811 125.69C145.176 125.471 145.556 125.277 145.947 125.109C146.736 124.78 147.544 124.497 148.366 124.262C149.979 123.769 151.656 123.398 153.276 123.076C156.501 122.43 159.726 121.994 162.741 121.704C168.123 121.187 173.539 121.127 178.931 121.526C182.566 121.724 186.177 122.231 189.726 123.043C190.691 123.258 191.622 123.605 192.492 124.076L192.685 124.229V124.116L192.548 124.003C191.69 123.486 190.757 123.105 189.783 122.874C186.232 121.984 182.608 121.419 178.955 121.187C170.346 120.493 161.683 120.974 153.203 122.616C151.591 122.938 149.906 123.318 148.253 123.802C147.413 124.046 146.586 124.337 145.778 124.673C145.366 124.848 144.967 125.053 144.585 125.286C144.547 125.303 144.512 125.325 144.48 125.351C144.48 125.528 144.48 125.706 144.48 125.883L144.811 125.69Z" fill="#3F00F9"/>
<path d="M144.601 127.675C144.601 127.498 144.601 127.32 144.601 127.143C144.492 127.071 144.387 126.993 144.287 126.909C144.287 127.094 144.287 127.296 144.287 127.498L144.488 127.619L144.601 127.675Z" fill="#3F00F9"/>
<path d="M144.472 125.375L144.198 125.577V126.174C144.286 126.08 144.381 125.991 144.48 125.908C144.496 125.731 144.48 125.553 144.472 125.375Z" fill="#3F00F9"/>
<path d="M193 124.593V124.472C192.91 124.346 192.801 124.234 192.677 124.141V124.254C192.804 124.346 192.914 124.461 193 124.593Z" fill="#3F00F9"/>
<path d="M192.693 125.464V125.569C192.817 125.463 192.923 125.338 193.008 125.198V125.109C192.924 125.245 192.818 125.365 192.693 125.464Z" fill="#3F00F9"/>
<path d="M202.731 93.9291C202.922 93.8319 203.119 93.7457 203.319 93.6709C203.731 93.5095 204.166 93.3885 204.593 93.2674C205.456 93.0334 206.327 92.8398 207.197 92.6623C208.931 92.2911 210.656 91.9845 212.349 91.7344C215.618 91.2595 218.909 90.9525 222.21 90.8145C225.362 90.6854 228.377 90.6451 231.175 90.7258C232.578 90.7742 233.924 90.9356 235.206 91.0001C236.488 91.0647 237.77 91.097 238.963 91.1212C242.737 91.07 246.502 91.5121 250.162 92.4364C251.162 92.6639 252.143 92.9687 253.097 93.3481C253.226 93.4061 253.353 93.4707 253.476 93.5418V93.4611C253.364 93.3897 253.248 93.325 253.129 93.2674C252.187 92.8505 251.21 92.5157 250.21 92.2669C246.547 91.2732 242.766 90.7819 238.971 90.8065C237.778 90.8065 236.553 90.7339 235.222 90.6532C233.892 90.5725 232.578 90.4111 231.191 90.3546C228.369 90.2578 225.362 90.282 222.194 90.3546C218.877 90.4828 215.57 90.7845 212.285 91.2583C210.584 91.5085 208.85 91.8151 207.101 92.1782C206.23 92.3637 205.351 92.5574 204.48 92.7995C204.033 92.9145 203.592 93.0518 203.158 93.211C202.979 93.2745 202.804 93.35 202.634 93.4369C202.634 93.5982 202.634 93.7596 202.634 93.9371L202.731 93.9291Z" fill="#3F00F9"/>
<path d="M204.255 95.7127C205.133 95.9467 206.02 96.1242 206.899 96.2856C208.657 96.5922 210.39 96.8342 212.107 97.0521C215.402 97.4462 218.715 97.6644 222.032 97.7057C227.644 97.8888 233.262 97.6677 238.842 97.044C242.605 96.6468 246.344 96.0434 250.041 95.2366C251.355 94.9542 252.355 94.6799 253.04 94.5185C253.197 94.4784 253.35 94.4272 253.5 94.3652V94.2926C253.339 94.3494 253.175 94.3952 253.008 94.4298C252.323 94.5669 251.307 94.809 250.001 95.0672C247.38 95.5997 243.551 96.2452 238.802 96.7294C233.232 97.3013 227.628 97.4873 222.032 97.2861C218.731 97.2356 215.434 97.0121 212.156 96.6164C210.447 96.3985 208.713 96.1484 206.972 95.8095C206.101 95.6481 205.222 95.4787 204.359 95.2447C203.931 95.1368 203.511 94.9993 203.102 94.8332C202.952 94.7704 202.807 94.6976 202.666 94.6154C202.666 94.7767 202.666 94.9623 202.666 95.1398L202.908 95.2528C203.347 95.4341 203.797 95.5877 204.255 95.7127Z" fill="#3F00F9"/>
<path d="M202.674 94.6476L202.553 94.575C202.553 94.7444 202.553 94.93 202.553 95.1156L202.723 95.2044C202.69 94.9946 202.682 94.8009 202.674 94.6476Z" fill="#3F00F9"/>
<path d="M202.634 93.4775L202.513 93.5421V94.0666L202.65 93.9778C202.642 93.8003 202.634 93.6389 202.634 93.4775Z" fill="#3F00F9"/>
<path d="M253.677 93.6551V93.5825L253.508 93.4614V93.5421C253.568 93.5741 253.625 93.6119 253.677 93.6551Z" fill="#3F00F9"/>
<path d="M253.5 94.3651C253.564 94.3379 253.626 94.3055 253.685 94.2683V94.2118L253.508 94.2925L253.5 94.3651Z" fill="#3F00F9"/>
<path d="M269.455 130.532C269.847 130.27 270.26 130.041 270.689 129.846C271.558 129.461 272.449 129.127 273.357 128.845C275.163 128.28 276.993 127.829 278.783 127.409C282.261 126.783 285.788 126.475 289.321 126.489C295.319 126.363 301.32 126.59 307.292 127.167C309.84 127.425 312.129 127.837 314.121 128.2C316.112 128.563 317.837 128.926 319.216 129.305C320.163 129.533 321.081 129.871 321.949 130.314V130.193C321.097 129.735 320.193 129.38 319.256 129.136C317.878 128.724 316.16 128.329 314.161 127.958C312.161 127.586 309.872 127.151 307.316 126.852C301.334 126.219 295.319 125.95 289.305 126.045C285.742 126.027 282.186 126.332 278.678 126.957C276.872 127.377 275.05 127.82 273.22 128.401C272.29 128.679 271.38 129.019 270.495 129.418C270.057 129.613 269.636 129.845 269.237 130.112C269.237 130.289 269.237 130.475 269.237 130.661L269.455 130.532Z" fill="#3F00F9"/>
<path d="M273.293 134.259C275.163 134.687 277.026 134.977 278.856 135.236C282.516 135.736 286.064 136.043 289.45 136.301C292.836 136.559 296.053 136.72 299.076 136.777C301.882 136.791 304.686 136.621 307.469 136.268C310.017 135.946 312.307 135.462 314.29 135.05C315.999 134.69 317.689 134.243 319.353 133.711C320.241 133.441 321.095 133.073 321.901 132.613V132.484C321.076 132.934 320.202 133.289 319.297 133.541C317.934 133.969 316.233 134.388 314.242 134.808C312.25 135.228 309.969 135.655 307.429 135.954C304.66 136.282 301.873 136.433 299.084 136.406C296.077 136.325 292.86 136.131 289.482 135.889C286.104 135.647 282.565 135.3 278.912 134.8C277.09 134.542 275.236 134.251 273.39 133.824C272.463 133.611 271.55 133.342 270.656 133.017C270.218 132.853 269.797 132.648 269.399 132.404L269.278 132.323V132.855C269.669 133.083 270.079 133.277 270.503 133.436C271.414 133.772 272.346 134.047 273.293 134.259Z" fill="#3F00F9"/>
<path d="M269.246 130.136H269.197L269.052 130.249V130.846L269.254 130.661C269.254 130.499 269.254 130.306 269.246 130.136Z" fill="#3F00F9"/>
<path d="M269.278 132.872V132.339L269.036 132.145V132.71L269.149 132.799C269.194 132.82 269.237 132.844 269.278 132.872Z" fill="#3F00F9"/>
<path d="M322.135 130.427V130.306L321.933 130.177V130.306C322.022 130.354 322.135 130.386 322.135 130.427Z" fill="#3F00F9"/>
<path d="M321.901 132.613L322.159 132.444V132.331L321.901 132.484V132.613Z" fill="#3F00F9"/>
<path d="M346.177 53.7281C347.209 53.8572 348.233 53.9459 349.257 54.0347C351.297 54.188 353.288 54.3009 355.287 54.3897C359.246 54.5672 363.068 54.656 366.704 54.7205C373.96 54.8335 380.531 54.7205 386.054 54.6318C391.576 54.543 396.003 54.309 399.074 54.0427C400.211 53.9379 401.162 53.833 401.896 53.7119V53.599C401.154 53.6958 400.203 53.7845 399.05 53.8652C395.986 54.0831 391.536 54.2283 386.037 54.3171C380.539 54.4058 373.992 54.4462 366.728 54.3171C363.092 54.2525 359.278 54.1476 355.328 53.9621C353.352 53.8733 351.345 53.7603 349.305 53.599C348.289 53.5183 347.273 53.4295 346.249 53.2924C345.733 53.2278 345.226 53.1552 344.726 53.0584C344.5 53.01 344.282 52.9535 344.073 52.8889C344.073 53.0422 344.073 53.1955 344.073 53.3488C344.266 53.4053 344.452 53.4537 344.645 53.4941C345.137 53.5828 345.661 53.6474 346.177 53.7281Z" fill="#3F00F9"/>
<path d="M344.21 52.4612C344.452 52.3805 344.702 52.3159 344.943 52.2595C345.443 52.1384 345.951 52.0335 346.459 51.9448C347.475 51.7673 348.491 51.622 349.507 51.4929C351.522 51.2428 353.538 51.0492 355.497 50.8878C359.44 50.565 363.245 50.3633 366.881 50.2584C374.137 50.0406 380.692 50.2584 386.174 50.5892C391.657 50.9201 396.083 51.3961 399.123 51.8641C400.26 52.0335 401.203 52.203 401.928 52.3724V52.2514C401.203 52.0658 400.268 51.8802 399.147 51.6866C396.107 51.1783 391.681 50.6538 386.183 50.2746C380.684 49.8953 374.137 49.6452 366.833 49.8469C363.197 49.9437 359.375 50.1293 355.433 50.444C353.457 50.6054 351.45 50.799 349.418 51.0492C348.402 51.1783 347.378 51.3235 346.346 51.501C345.838 51.5978 345.322 51.6946 344.806 51.8157C344.548 51.8802 344.298 51.9528 344 52.0335C344 52.1949 344 52.3563 344 52.5177L344.21 52.4612Z" fill="#3F00F9"/>
<path d="M344.057 52.8406H343.976H343.903V53.3167L344.089 53.357C344.057 53.1795 344.057 53.0262 344.057 52.8406Z" fill="#3F00F9"/>
<path d="M344.073 52.0336L343.887 52.1062C343.887 52.2676 343.887 52.4209 343.887 52.5904L344.073 52.5177C344.065 52.3563 344.065 52.195 344.073 52.0336Z" fill="#3F00F9"/>
<path d="M401.872 53.7121H402.041V53.5991H401.872V53.7121Z" fill="#3F00F9"/>
<path d="M402.074 52.4047V52.2917H401.929V52.4128L402.074 52.4047Z" fill="#3F00F9"/>
<path d="M183.986 179.27C182.658 179.598 181.25 179.883 179.761 180.125C179.019 180.246 178.261 180.359 177.487 180.456L176.318 180.601L175.722 180.658H175.423H175.27H175.149C175.149 180.746 175.149 180.456 175.149 180.859V180.658C173.701 180.766 172.248 180.801 170.795 180.763C167.055 180.658 163.475 180.512 160.242 180.246C157.378 180.029 154.531 179.625 151.72 179.036C150.08 178.659 148.512 178.018 147.076 177.14V177.382C148.473 178.287 150.013 178.95 151.631 179.343C154.451 179.983 157.312 180.422 160.193 180.658C163.418 180.948 167.014 181.101 170.771 181.214C172.237 181.25 173.703 181.213 175.165 181.102C178.18 180.828 181.169 180.324 184.107 179.593C186.436 178.988 188.708 178.178 190.895 177.172H190.186C188.179 178.038 186.105 178.74 183.986 179.27Z" fill="#3F00F9"/>
<path d="M190.879 176.922H191.516C192.152 176.596 192.731 176.171 193.233 175.663C193.37 175.526 193.491 175.389 193.612 175.251V174.937C192.885 175.821 191.944 176.504 190.879 176.922Z" fill="#3F00F9"/>
<path d="M146.681 176.962C146.677 177.04 146.677 177.118 146.681 177.196L147.052 177.438V177.196L146.681 176.962Z" fill="#3F00F9"/>
<path d="M193.612 175.284C193.731 175.139 193.844 174.993 193.951 174.848V174.533L193.604 174.969L193.612 175.284Z" fill="#3F00F9"/>
<path d="M249.646 186.508C246.678 187.779 243.541 188.613 240.334 188.985C236.413 189.525 232.456 189.762 228.498 189.695C220.154 189.09 212.374 188.477 207.302 186.403C206.431 185.911 205.686 185.224 205.125 184.394V184.862C205.662 185.605 206.349 186.226 207.141 186.685C208.515 187.349 209.975 187.816 211.479 188.073C213.091 188.42 214.784 188.783 216.606 189.009L222.315 189.655C224.298 189.864 226.346 190.09 228.482 190.147C232.462 190.21 236.441 189.959 240.382 189.397C243.627 188.994 246.794 188.116 249.783 186.79C250.793 186.369 251.749 185.827 252.629 185.177L252.266 185.136C251.437 185.674 250.56 186.133 249.646 186.508Z" fill="#3F00F9"/>
<path d="M252.847 184.684L252.669 184.821L253.016 184.87C253.389 184.528 253.727 184.15 254.024 183.74C254.024 183.627 254.024 183.506 254.024 183.385C253.677 183.858 253.283 184.293 252.847 184.684Z" fill="#3F00F9"/>
<path d="M204.835 183.966C204.835 184.128 204.835 184.305 204.835 184.466C204.835 184.627 205.013 184.732 205.118 184.861V184.369C205.021 184.248 204.924 184.103 204.835 183.966Z" fill="#3F00F9"/>
<path d="M254.024 183.741L254.225 183.45V183.095L254.016 183.385C254.024 183.506 254.024 183.628 254.024 183.741Z" fill="#3F00F9"/>
<path d="M319.886 194.658C319.287 195.182 318.639 195.646 317.951 196.046C317.214 196.496 316.439 196.882 315.637 197.2C313.833 197.852 311.973 198.341 310.082 198.66C307.984 199.005 305.868 199.232 303.745 199.338C301.536 199.499 299.246 199.628 296.908 199.62C292.207 199.677 287.789 198.918 283.75 198.345C281.734 198.031 279.807 197.813 278.05 197.417C276.408 197.046 274.793 196.569 273.212 195.989C271.916 195.545 270.765 194.755 269.883 193.706C269.705 193.496 269.544 193.286 269.391 193.076V193.464C269.487 193.601 269.576 193.73 269.689 193.867C270.582 194.972 271.762 195.81 273.099 196.288C274.676 196.894 276.293 197.393 277.937 197.78C279.719 198.2 281.646 198.434 283.653 198.757C288.015 199.553 292.434 199.993 296.867 200.072C299.23 200.072 301.536 199.951 303.745 199.782C305.882 199.665 308.012 199.425 310.122 199.063C312.046 198.734 313.936 198.226 315.766 197.546C316.585 197.213 317.375 196.81 318.128 196.344C318.833 195.927 319.492 195.438 320.095 194.884C320.352 194.631 320.592 194.362 320.813 194.077L320.458 194.029C320.281 194.263 320.095 194.464 319.886 194.658Z" fill="#3F00F9"/>
<path d="M321.079 193.335C320.982 193.456 320.869 193.577 320.772 193.706L321.071 193.746L321.079 193.335Z" fill="#3F00F9"/>
<path d="M269.101 192.6V193.02C269.197 193.173 269.31 193.318 269.423 193.463V193.076C269.302 192.915 269.205 192.762 269.101 192.6Z" fill="#3F00F9"/>
<path d="M321.071 193.746H321.127L321.385 193.407C321.385 193.246 321.385 193.077 321.385 192.907C321.289 193.052 321.176 193.19 321.071 193.335V193.746Z" fill="#3F00F9"/>
<path d="M393.818 207.286C392.374 208.353 390.752 209.153 389.028 209.65C387.018 210.136 384.967 210.43 382.901 210.53C380.716 210.723 378.418 210.885 376.032 210.909C373.645 210.933 371.194 210.844 368.663 210.651C366.131 210.457 363.696 210.11 361.326 209.771C358.956 209.432 356.682 209.11 354.538 208.682C350.232 207.956 346.378 206.762 343.694 204.849C342.594 204.144 341.748 203.107 341.275 201.888C341.275 202.106 341.275 202.316 341.275 202.526C341.785 203.569 342.561 204.46 343.524 205.108C346.257 207.101 350.152 208.335 354.473 209.085C356.634 209.529 358.915 209.892 361.286 210.207C363.656 210.522 366.123 210.893 368.639 211.095C371.154 211.296 373.662 211.385 376.056 211.353C378.451 211.321 380.765 211.151 382.949 210.941C385.039 210.832 387.113 210.519 389.141 210.005C390.906 209.487 392.562 208.65 394.027 207.536C395.098 206.715 396.008 205.703 396.712 204.551C396.712 204.381 396.712 204.22 396.712 204.051C395.975 205.313 394.99 206.414 393.818 207.286Z" fill="#3F00F9"/>
<path d="M341.122 201.404L341.049 201.081C341.049 201.388 341.049 201.694 341.049 201.993C341.111 202.176 341.187 202.354 341.275 202.525C341.275 202.316 341.275 202.106 341.275 201.888C341.213 201.73 341.162 201.569 341.122 201.404Z" fill="#3F00F9"/>
<path d="M396.712 204.051C396.712 204.22 396.712 204.382 396.712 204.551C396.769 204.454 396.833 204.366 396.881 204.277V204.067H396.72L396.712 204.051Z" fill="#3F00F9"/>
<path d="M151.833 107.51C158.428 108.034 164.233 108.454 167.563 108.664C167.563 108.575 167.619 108.502 167.643 108.422C164.338 108.099 158.509 107.615 151.865 107.058C144.657 106.485 138.409 106.033 135.281 105.856C135.306 105.927 135.327 106 135.345 106.074C138.498 106.396 144.69 106.905 151.833 107.51Z" fill="#3F00F9"/>
<path d="M133.999 105.929L135.105 106.05C135.084 105.978 135.06 105.908 135.032 105.84L134.16 105.799L133.999 105.929Z" fill="#3F00F9"/>
<path d="M151.131 112.505C144.254 111.908 138.175 111.432 134.523 111.173L134.346 111.416C137.974 111.787 144.117 112.351 151.099 112.949C158.726 113.602 165.37 114.127 168.836 114.353C168.772 114.28 168.724 114.191 168.667 114.119C165.16 113.747 158.63 113.142 151.131 112.505Z" fill="#3F00F9"/>
<path d="M133.088 111.077C133.144 111.165 133.201 111.238 133.241 111.295L134.047 111.383C134.112 111.303 134.184 111.23 134.241 111.149L133.088 111.077Z" fill="#3F00F9"/>
<path d="M292.006 110.649L291.893 110.609C291.889 110.676 291.889 110.743 291.893 110.81L292.006 110.649Z" fill="#3F00F9"/>
<path d="M323.344 61.5957C337.663 39.0582 349.813 19.8129 354.465 12.373L354.376 12.2197C349.62 19.5466 337.324 38.7838 322.933 61.394C308.808 83.6169 296.803 102.636 292.014 110.326L292.167 110.383C297.141 102.725 309.235 83.7944 323.344 61.5957Z" fill="#3F00F9"/>
<path d="M327.698 66.0662C313.29 88.4262 301.092 107.494 296.577 114.659C296.577 114.724 296.617 114.78 296.641 114.837C301.245 107.849 313.572 88.7812 328.085 66.3083C343.484 42.3909 356.368 22.258 360.028 16.3916H359.907C356.045 22.1773 343.097 42.2053 327.698 66.0662Z" fill="#3F00F9"/>
<path d="M296.384 115.224L296.505 115.039C296.505 114.982 296.505 114.926 296.448 114.869L296.214 115.232L296.384 115.224Z" fill="#3F00F9"/>
<path d="M256.676 90.3063C245.727 79.6145 236.149 70.3187 231.046 65.4287L230.941 65.5255L230.868 65.574C235.875 70.5527 245.381 79.9212 256.362 90.6291C267.794 101.789 277.719 111.424 282.629 116.12L282.677 115.87C277.832 111.036 268.028 101.394 256.676 90.3063Z" fill="#3F00F9"/>
<path d="M230.482 65.1866L230.643 65.3399L230.748 65.2753L230.821 65.2108L230.514 64.9203C230.511 65.0098 230.501 65.099 230.482 65.1866Z" fill="#3F00F9"/>
<path d="M233.562 59.5542C237.923 63.9438 247.59 73.514 258.861 84.569C271.858 97.3346 282.823 107.97 286.015 111.004L286.112 110.939C283.081 107.825 272.188 97.036 259.176 84.2542C247.792 73.0702 237.964 63.5 233.562 59.2798V59.5461V59.5542Z" fill="#3F00F9"/>
<path d="M233.15 58.957H232.989L233.473 59.4493C233.473 59.3605 233.473 59.2637 233.433 59.1507L233.215 58.949L233.15 58.957Z" fill="#3F00F9"/>
<path d="M201.57 88.8538C191.968 97.9559 183.704 105.872 179.753 109.713V109.971C183.784 106.275 192.161 98.3675 201.852 89.1765C212.857 78.7429 222.113 69.8748 225.112 66.8972H224.959C221.798 69.786 212.486 78.4847 201.57 88.8538Z" fill="#3F00F9"/>
<path d="M179.044 110.641L179.641 110.092V109.85L178.834 110.657C178.904 110.659 178.974 110.654 179.044 110.641Z" fill="#3F00F9"/>
<path d="M175.843 106.042L176.65 105.315L176.48 105.227L175.972 105.727C175.92 105.828 175.877 105.933 175.843 106.042Z" fill="#3F00F9"/>
<path d="M199.587 83.6007C208.375 75.2167 216.066 67.8171 220.484 63.5162C220.436 63.4436 220.387 63.3871 220.347 63.3145C215.848 67.5186 208.084 74.8697 199.28 83.2698C189.267 92.8239 180.672 101.103 176.705 104.968L176.867 105.081C180.954 101.305 189.605 93.1224 199.587 83.6007Z" fill="#3F00F9"/>
<path d="M126.872 113.15C127.85 113.629 128.939 113.835 130.024 113.748C130.96 113.665 131.864 113.37 132.669 112.884C133.311 112.502 133.877 112.004 134.338 111.416H134.031C133.592 111.904 133.078 112.318 132.508 112.642C131.683 113.121 130.752 113.387 129.799 113.415C128.846 113.443 127.901 113.233 127.049 112.803C126.038 112.301 125.19 111.52 124.606 110.552C123.954 109.538 123.67 108.33 123.8 107.131C123.937 105.933 124.468 104.815 125.308 103.951C126.085 103.14 127.074 102.561 128.162 102.281C129.094 102.057 130.067 102.068 130.994 102.311C131.921 102.555 132.773 103.024 133.475 103.677C134.149 104.283 134.678 105.034 135.023 105.872H135.273C134.938 104.947 134.385 104.117 133.66 103.451C132.972 102.801 132.145 102.315 131.242 102.031C130.197 101.698 129.082 101.659 128.017 101.918C126.873 102.215 125.835 102.824 125.018 103.677C124.116 104.614 123.549 105.822 123.405 107.115C123.258 108.411 123.56 109.718 124.26 110.818C124.897 111.824 125.801 112.631 126.872 113.15Z" fill="#3F00F9"/>
<path d="M135.088 106.05H135.33C135.312 105.976 135.29 105.903 135.265 105.832H135.015C135.043 105.903 135.067 105.976 135.088 106.05Z" fill="#3F00F9"/>
<path d="M134.233 111.149C134.176 111.23 134.104 111.303 134.039 111.383H134.346L134.523 111.141L134.233 111.149Z" fill="#3F00F9"/>
<path d="M168.272 113.61C168.385 113.787 168.514 113.949 168.643 114.118L169.24 114.183C169.019 113.933 168.822 113.663 168.651 113.376C167.992 112.318 167.69 111.076 167.789 109.834C167.825 109.445 167.904 109.06 168.022 108.688H167.563C167.453 109.056 167.38 109.435 167.345 109.818C167.242 111.148 167.567 112.477 168.272 113.61Z" fill="#3F00F9"/>
<path d="M179.704 110.939C179.742 110.813 179.761 110.683 179.761 110.552C179.778 110.358 179.778 110.164 179.761 109.971L179.624 110.092C179.635 110.376 179.661 110.658 179.704 110.939Z" fill="#3F00F9"/>
<path d="M172.174 104.686C173.632 104.29 175.188 104.484 176.504 105.226L176.77 104.968C176.33 104.708 175.862 104.5 175.375 104.347C174.3 104.02 173.155 104.001 172.069 104.29C171.056 104.566 170.126 105.087 169.361 105.808C168.596 106.528 168.02 107.426 167.683 108.422L168.143 108.47C168.465 107.563 168.999 106.747 169.7 106.089C170.401 105.43 171.25 104.949 172.174 104.686Z" fill="#3F00F9"/>
<path d="M176.778 115.402C175.994 115.881 175.112 116.179 174.198 116.273C173.151 116.35 172.103 116.149 171.158 115.692C170.515 115.361 169.934 114.922 169.441 114.393H168.812C169.408 115.108 170.147 115.691 170.981 116.103C171.985 116.583 173.098 116.784 174.206 116.684C175.171 116.567 176.097 116.234 176.915 115.708C178.09 114.946 178.974 113.808 179.422 112.481C179.495 112.276 179.552 112.065 179.592 111.851C179.628 111.695 179.652 111.536 179.664 111.375C179.687 111.247 179.687 111.116 179.664 110.988C179.616 110.988 179.592 111.529 179.253 112.416C178.766 113.649 177.899 114.695 176.778 115.402Z" fill="#3F00F9"/>
<path d="M168.023 108.688L168.103 108.47L167.643 108.422C167.643 108.503 167.587 108.575 167.563 108.664L168.023 108.688Z" fill="#3F00F9"/>
<path d="M169.24 114.167L168.643 114.103C168.699 114.175 168.748 114.264 168.812 114.337H169.442L169.24 114.167Z" fill="#3F00F9"/>
<path d="M179.616 109.85V110.092L179.753 109.971V109.713L179.616 109.85Z" fill="#3F00F9"/>
<path d="M176.633 105.291L176.891 105.057L176.73 104.944L176.464 105.202L176.633 105.291Z" fill="#3F00F9"/>
<path d="M220.291 62.104C220.049 61.428 219.924 60.7159 219.92 59.9979C219.906 58.5768 220.353 57.1896 221.194 56.044C221.972 54.9711 223.045 54.147 224.281 53.6716C225.403 53.2402 226.621 53.1231 227.805 53.3327C228.835 53.5129 229.809 53.93 230.651 54.5512C231.886 55.4603 232.79 56.7501 233.223 58.2227C233.271 58.3841 233.303 58.5374 233.336 58.6746L233.497 58.7149C233.475 58.535 233.44 58.357 233.392 58.1823C233.016 56.633 232.116 55.2617 230.844 54.301C229.972 53.6264 228.952 53.1675 227.869 52.9615C226.619 52.7225 225.327 52.8342 224.136 53.2843C222.817 53.7738 221.67 54.6409 220.839 55.7777C219.937 57.0016 219.456 58.4853 219.468 60.006C219.47 60.7716 219.607 61.5309 219.871 62.2493C220 62.6169 220.159 62.9732 220.347 63.3144L220.686 62.9916C220.533 62.7057 220.401 62.409 220.291 62.104Z" fill="#3F00F9"/>
<path d="M233.448 59.1668L233.578 59.2879V59.0216H233.44C233.448 59.0458 233.448 59.1104 233.448 59.1668Z" fill="#3F00F9"/>
<path d="M227.917 66.5581C227.119 66.7133 226.298 66.7133 225.499 66.5581C225.394 66.663 225.281 66.784 225.152 66.9051C226.092 67.1107 227.066 67.1107 228.006 66.9051C229.057 66.6885 230.042 66.2299 230.884 65.5657L230.659 65.3317C229.851 65.9462 228.913 66.366 227.917 66.5581Z" fill="#3F00F9"/>
<path d="M222.451 65.6948C223.002 66.1011 223.611 66.4221 224.257 66.6469C224.495 66.7316 224.737 66.8017 224.983 66.8567L225.346 66.5339C225.022 66.4698 224.703 66.378 224.395 66.2596C223.788 66.0411 223.218 65.7339 222.701 65.3478C222.158 64.9479 221.677 64.4693 221.274 63.9277C221.103 63.6962 220.947 63.4536 220.807 63.2015L220.484 63.5162C220.615 63.7529 220.763 63.9794 220.928 64.194C221.357 64.7687 221.87 65.2747 222.451 65.6948Z" fill="#3F00F9"/>
<path d="M231.03 65.4287L230.804 65.2108L230.732 65.2754L230.627 65.3399L230.853 65.5739L230.925 65.5255L231.03 65.4287Z" fill="#3F00F9"/>
<path d="M233.449 59.4654L233.537 59.5542V59.296L233.408 59.1749C233.449 59.296 233.449 59.3767 233.449 59.4654Z" fill="#3F00F9"/>
<path d="M225.386 66.5584L225.023 66.8812H225.177C225.306 66.7601 225.419 66.6391 225.523 66.5342L225.386 66.5584Z" fill="#3F00F9"/>
<path d="M220.807 63.2015C220.762 63.1344 220.722 63.0643 220.686 62.9917L220.347 63.3145C220.388 63.3871 220.436 63.4436 220.484 63.5162L220.807 63.2015Z" fill="#3F00F9"/>
<path d="M292.046 110.286L291.909 110.237C291.909 110.326 291.909 110.423 291.909 110.528C291.941 110.447 291.99 110.367 292.046 110.286Z" fill="#3F00F9"/>
<path d="M294.166 122.454C293.328 123.115 292.349 123.574 291.304 123.793C290.111 124.057 288.869 123.982 287.716 123.575C286.437 123.139 285.314 122.333 284.492 121.26C284.043 120.704 283.686 120.08 283.435 119.412C283.165 118.733 283.018 118.012 283 117.282C282.98 117.027 282.98 116.77 283 116.515L282.581 116.12C282.532 116.511 282.516 116.905 282.532 117.298C282.551 118.078 282.71 118.849 283 119.573C283.386 120.595 283.992 121.518 284.775 122.279C285.558 123.039 286.499 123.616 287.531 123.971C288.757 124.387 290.076 124.451 291.336 124.156C292.43 123.909 293.451 123.412 294.32 122.704C295.58 121.682 296.451 120.258 296.787 118.67C296.88 118.246 296.926 117.813 296.924 117.379C296.934 117.23 296.92 117.08 296.883 116.935C296.825 117.504 296.736 118.07 296.617 118.629C296.243 120.139 295.381 121.483 294.166 122.454Z" fill="#3F00F9"/>
<path d="M287.362 110.778C288.496 110.318 289.734 110.179 290.942 110.374C291.173 110.416 291.401 110.47 291.627 110.536C291.642 110.416 291.663 110.298 291.691 110.181C291.466 110.116 291.24 110.052 290.998 110.003C289.309 109.701 287.567 110.037 286.112 110.947L286.41 111.254C286.714 111.07 287.032 110.91 287.362 110.778Z" fill="#3F00F9"/>
<path d="M283.895 112.981C283.276 113.839 282.859 114.827 282.677 115.869L283.072 116.265C283.202 115.173 283.607 114.132 284.249 113.239C284.803 112.458 285.511 111.798 286.33 111.303L286.015 111.012C285.185 111.521 284.464 112.19 283.895 112.981Z" fill="#3F00F9"/>
<path d="M296.932 116.935C296.955 116.785 296.955 116.633 296.932 116.483C296.919 116.154 296.876 115.828 296.803 115.507L296.65 115.555C296.892 116.427 296.884 116.935 296.932 116.935Z" fill="#3F00F9"/>
<path d="M296.561 115.208L296.73 115.16C296.73 115.063 296.674 114.95 296.641 114.837L296.504 115.039C296.527 115.094 296.546 115.15 296.561 115.208Z" fill="#3F00F9"/>
<path d="M291.893 110.609L292.006 110.649L292.199 110.342L292.046 110.286C291.99 110.366 291.941 110.447 291.893 110.528V110.609Z" fill="#3F00F9"/>
<path d="M296.448 114.869C296.448 114.926 296.489 114.982 296.505 115.039L296.642 114.837C296.642 114.78 296.602 114.724 296.577 114.659L296.448 114.869Z" fill="#3F00F9"/>
<path d="M283.073 116.265L282.677 115.87L282.629 116.12L283.049 116.515C283.052 116.432 283.06 116.348 283.073 116.265Z" fill="#3F00F9"/>
<path d="M286.33 111.303L286.411 111.254L286.112 110.948L286.015 111.012L286.33 111.303Z" fill="#3F00F9"/>
<path d="M353.836 8.17711C353.866 6.54078 354.401 4.95378 355.368 3.63411C356.252 2.39874 357.476 1.4481 358.891 0.898618C360.175 0.400057 361.576 0.287859 362.922 0.575839C364.111 0.821168 365.219 1.35922 366.147 2.14128C367.503 3.26621 368.468 4.79145 368.905 6.49871C369.203 7.70104 369.155 8.41113 369.211 8.41113C369.232 8.24231 369.232 8.07158 369.211 7.90276C369.229 7.69875 369.229 7.49351 369.211 7.2895C369.186 7.0179 369.143 6.7483 369.082 6.48257C368.697 4.70733 367.743 3.10655 366.365 1.92341C365.416 1.09687 364.278 0.517582 363.051 0.23693C361.634 -0.0878933 360.153 0.0160207 358.794 0.53549C357.297 1.10372 355.999 2.09983 355.062 3.40009C354.043 4.79286 353.479 6.46723 353.449 8.19325C353.422 9.60172 353.764 10.9927 354.441 12.2279L354.715 11.8002C354.122 10.6857 353.82 9.43958 353.836 8.17711Z" fill="#3F00F9"/>
<path d="M365.946 14.5917C365.002 15.327 363.897 15.8251 362.721 16.0441C361.907 16.185 361.076 16.185 360.262 16.0441L360.036 16.4072C360.947 16.5763 361.882 16.5763 362.793 16.4072C364.032 16.153 365.189 15.5989 366.164 14.7934C367.573 13.6476 368.569 12.0722 369.002 10.3072C369.071 10.0425 369.119 9.77268 369.147 9.50033C369.182 9.29512 369.201 9.08734 369.203 8.87905C369.226 8.71309 369.226 8.54475 369.203 8.37878C369.147 8.37878 369.203 9.08076 368.848 10.283C368.364 11.9918 367.347 13.5013 365.946 14.5917Z" fill="#3F00F9"/>
<path d="M358.528 15.9716C358.972 16.1477 359.431 16.2827 359.899 16.375L360.141 16.0038C359.644 15.9205 359.157 15.7824 358.69 15.5923C357.293 14.9929 356.096 14.0077 355.239 12.7521C355.053 12.4776 354.883 12.1919 354.731 11.8969C354.642 12.0421 354.554 12.1793 354.465 12.3326C354.594 12.5585 354.723 12.7844 354.876 13.0023C355.784 14.3219 357.052 15.3525 358.528 15.9716Z" fill="#3F00F9"/>
<path d="M354.731 11.897L354.651 11.7517L354.376 12.1794L354.465 12.3327C354.554 12.1794 354.643 12.0422 354.731 11.897Z" fill="#3F00F9"/>
<path d="M360.141 16.0043L359.899 16.3755H360.02L360.246 16.0123L360.141 16.0043Z" fill="#3F00F9"/>
<path d="M132.386 108.365C132.51 107.586 132.894 106.873 133.475 106.34C133.628 106.191 133.793 106.053 133.967 105.928L133.612 105.88C133.507 105.936 133.394 106.009 133.273 106.09C132.912 106.349 132.606 106.677 132.372 107.055C132.138 107.433 131.982 107.854 131.911 108.293C131.772 109.178 131.986 110.082 132.507 110.81C132.58 110.907 132.652 110.979 132.717 111.052H133.056C132.954 110.913 132.863 110.768 132.781 110.616C132.405 109.93 132.266 109.139 132.386 108.365Z" fill="#3F00F9"/>
<path d="M134.161 105.799H133.838L133.644 105.896L133.999 105.945L134.161 105.799Z" fill="#3F00F9"/>
<path d="M132.959 111.27H133.241C133.241 111.214 133.144 111.141 133.088 111.052H132.749L132.959 111.27Z" fill="#3F00F9"/>
<path d="M178.366 110.576C177.586 110.126 176.946 109.466 176.52 108.672C176.022 107.918 175.778 107.024 175.827 106.122C175.824 106.095 175.824 106.068 175.827 106.041L175.432 106.404C175.413 107.282 175.651 108.146 176.117 108.89C176.58 109.775 177.331 110.475 178.245 110.874C178.329 110.902 178.416 110.919 178.503 110.923L178.753 110.673C178.619 110.665 178.488 110.632 178.366 110.576Z" fill="#3F00F9"/>
<path d="M178.519 110.94H178.729L179.044 110.657C178.953 110.67 178.86 110.67 178.769 110.657L178.519 110.94Z" fill="#3F00F9"/>
<path d="M175.956 105.727C175.786 105.896 175.625 106.049 175.488 106.195C175.47 106.264 175.456 106.334 175.448 106.405L175.843 106.041C175.872 105.934 175.91 105.828 175.956 105.727Z" fill="#3F00F9"/>
<path d="M230.554 63.9595C230.6 62.9301 230.827 61.9169 231.223 60.9661C231.651 59.9575 232.288 59.0538 232.989 58.9731L232.699 58.6826C232.336 58.7729 232.009 58.973 231.764 59.2555C231.36 59.7077 231.038 60.2264 230.812 60.7886C230.386 61.7893 230.191 62.873 230.24 63.9595C230.251 64.2161 230.275 64.472 230.312 64.7261L230.514 64.9197C230.53 64.6938 230.538 64.3711 230.554 63.9595Z" fill="#3F00F9"/>
<path d="M230.312 64.7266C230.312 64.8718 230.312 64.9848 230.368 65.0735L230.481 65.1865C230.489 65.0979 230.489 65.0088 230.481 64.9202L230.312 64.7266Z" fill="#3F00F9"/>
<path d="M233.151 58.9571H233.215L232.885 58.6343L232.699 58.6746L232.989 58.9651L233.151 58.9571Z" fill="#3F00F9"/>
<path d="M233.4 58.9894H233.537C233.537 58.9894 233.537 58.9168 233.537 58.8765V58.6828L233.376 58.6425C233.36 58.7877 233.384 58.8926 233.4 58.9894Z" fill="#3F00F9"/>
<path d="M295.682 115.143C295.038 114.93 294.44 114.599 293.917 114.167C293.399 113.695 292.951 113.152 292.586 112.553C292.256 112.104 292.033 111.585 291.933 111.036C291.933 110.956 291.933 110.883 291.933 110.81L291.651 111.238C291.742 111.789 291.948 112.314 292.256 112.779C292.623 113.418 293.091 113.993 293.642 114.482C294.194 114.958 294.835 115.317 295.529 115.539C295.665 115.583 295.806 115.608 295.948 115.611L296.182 115.232C296.012 115.226 295.844 115.196 295.682 115.143Z" fill="#3F00F9"/>
<path d="M291.602 111.069C291.602 111.125 291.602 111.182 291.602 111.238L291.885 110.81C291.881 110.743 291.881 110.676 291.885 110.609H291.845L291.594 111.012L291.602 111.069Z" fill="#3F00F9"/>
<path d="M295.98 115.611H296.117L296.384 115.208H296.214L295.98 115.611Z" fill="#3F00F9"/>
<path d="M296.577 115.248C296.577 115.353 296.642 115.458 296.666 115.555L296.819 115.507L296.747 115.2L296.577 115.248Z" fill="#3F00F9"/>
<path d="M291.853 110.592L291.893 110.528C291.893 110.423 291.893 110.326 291.893 110.237L291.675 110.181C291.647 110.298 291.625 110.416 291.611 110.536L291.853 110.592Z" fill="#3F00F9"/>
<path d="M291.893 110.528L291.852 110.592H291.893V110.528Z" fill="#3F00F9"/>
<path d="M269.02 176.502V176.115L254.225 174.186V174.566L269.02 176.502Z" fill="#3F00F9"/>
<path d="M100.806 182.28L104.595 180.948L146.125 166.343V166.085C128.525 172.314 114.44 177.309 104.555 180.819C103.217 181.295 101.951 181.739 100.774 182.167C100.564 182.248 100.355 182.344 100.153 182.433L100.597 182.377L100.806 182.28Z" fill="#3F00F9"/>
<path d="M436.274 200.904C436.678 201.24 436.961 201.699 437.08 202.211C437.08 201.864 437.08 201.509 437.08 201.162C436.931 200.933 436.746 200.728 436.532 200.557C436.066 200.187 435.557 199.876 435.016 199.629L434.629 199.952C435.214 200.202 435.766 200.521 436.274 200.904Z" fill="#3F00F9"/>
<path d="M401.799 193.883L419.311 196.175L423.729 196.756C425.2 196.923 426.657 197.193 428.091 197.563C429.526 197.941 430.935 198.416 432.307 198.983C432.936 199.241 433.581 199.483 434.202 199.749L434.589 199.427C433.896 199.12 433.194 198.846 432.501 198.571C431.112 197.995 429.684 197.518 428.228 197.143C426.775 196.775 425.299 196.505 423.81 196.336L419.4 195.763L401.88 193.472L397.341 192.883V193.327L401.799 193.883Z" fill="#3F00F9"/>
<path d="M204.351 168.029V167.691L193.83 166.319C193.83 166.424 193.83 166.537 193.83 166.65L204.351 168.029Z" fill="#3F00F9"/>
<path d="M412.578 233.294C412.578 233.447 412.578 233.6 412.578 233.762C413.991 233.363 415.346 232.783 416.61 232.035C416.61 231.849 416.61 231.664 416.61 231.494C415.355 232.276 413.998 232.882 412.578 233.294Z" fill="#3F00F9"/>
<path d="M392.753 235.641C391.665 235.553 390.584 235.367 389.528 235.19V235.633C390.592 235.811 391.657 235.996 392.753 236.085L393.696 236.141C393.696 235.98 393.696 235.827 393.696 235.682C393.358 235.666 393.084 235.666 392.753 235.641Z" fill="#3F00F9"/>
<path d="M403.283 234.964C403.283 235.109 403.283 235.255 403.283 235.416C404.718 235.198 406.161 234.98 407.596 234.738C407.596 234.585 407.596 234.44 407.596 234.286C406.169 234.528 404.726 234.746 403.283 234.964Z" fill="#3F00F9"/>
<path d="M388.456 235.021L384.167 234.327L318.402 223.683L207.036 205.681L131.943 193.577L111.521 190.309L106.208 189.502L104.402 189.211C104.402 189.211 105.007 189.332 106.208 189.534L111.513 190.414L131.919 193.762L206.988 206.004L318.337 224.095L384.094 234.771L388.384 235.465L389.141 235.586C389.141 235.44 389.141 235.287 389.141 235.142L388.456 235.021Z" fill="#3F00F9"/>
<path d="M436.621 204.834C436.297 205.514 435.937 206.177 435.54 206.819C435.137 207.464 434.734 208.11 434.307 208.715C432.42 211.136 430.663 213.556 428.849 215.977L423.463 223.24L422.125 225.047C421.73 225.773 421.431 226.387 421.012 227.016C420.61 227.628 420.169 228.213 419.69 228.767V229.421C420.317 228.751 420.883 228.027 421.383 227.258C421.784 226.629 422.153 225.98 422.487 225.313L423.826 223.506C425.616 221.09 427.411 218.67 429.212 216.244C431.026 213.823 432.783 211.345 434.67 208.981C435.129 208.36 435.524 207.698 435.919 207.053C436.328 206.396 436.7 205.717 437.032 205.019C437.032 204.963 437.08 204.906 437.097 204.858V203.405C437.001 203.9 436.841 204.38 436.621 204.834Z" fill="#3F00F9"/>
<path d="M401.452 235.206C400.582 235.319 399.703 235.416 398.832 235.496V236.012C399.727 235.932 400.622 235.827 401.509 235.714L402.936 235.496C402.936 235.343 402.936 235.198 402.936 235.045C402.452 235.085 401.952 235.206 401.452 235.206Z" fill="#3F00F9"/>
<path d="M418.142 230.365C417.758 230.687 417.357 230.989 416.941 231.268C416.941 231.438 416.941 231.615 416.941 231.801C417.456 231.468 417.949 231.102 418.416 230.703C418.743 230.435 419.055 230.15 419.351 229.848C419.351 229.614 419.351 229.388 419.351 229.17C418.972 229.592 418.568 229.991 418.142 230.365Z" fill="#3F00F9"/>
<path d="M394.027 235.691C394.027 235.844 394.027 235.997 394.027 236.151C395.507 236.194 396.987 236.148 398.461 236.013C398.461 235.86 398.461 235.707 398.461 235.562C396.987 235.688 395.506 235.731 394.027 235.691Z" fill="#3F00F9"/>
<path d="M410.176 233.867L407.951 234.23C407.951 234.383 407.951 234.528 407.951 234.682L410.249 234.302C410.91 234.189 411.571 234.036 412.224 233.859C412.224 233.697 412.224 233.544 412.224 233.399C411.563 233.592 410.878 233.746 410.176 233.867Z" fill="#3F00F9"/>
<path d="M341.283 185.983V185.556L321.562 182.982C321.562 183.119 321.562 183.264 321.562 183.401L341.283 185.983Z" fill="#3F00F9"/>
<path d="M103.265 189.098C102.151 188.965 101.064 188.663 100.04 188.202C99.2955 187.87 98.6262 187.39 98.073 186.79C97.8562 186.553 97.6817 186.28 97.557 185.984V186.226C97.6767 186.449 97.8229 186.658 97.9924 186.847C98.5632 187.457 99.2552 187.941 100.024 188.267C101.046 188.725 102.135 189.017 103.249 189.13C103.626 189.176 104.006 189.2 104.386 189.203H104.096C103.926 189.163 103.644 189.155 103.265 189.098Z" fill="#3F00F9"/>
<path d="M97.9117 184.144C98.5053 183.485 99.2341 182.962 100.048 182.611L99.6934 182.659C98.9843 183.004 98.3511 183.486 97.831 184.079C97.7083 184.229 97.6053 184.395 97.5247 184.571V184.805C97.6188 184.566 97.7493 184.343 97.9117 184.144Z" fill="#3F00F9"/>
<path d="M146.553 166.19C146.553 166.109 146.553 166.02 146.553 165.932L146.133 166.085V166.343L146.553 166.19Z" fill="#3F00F9"/>
<path d="M193.419 166.617L193.83 166.674C193.83 166.561 193.83 166.448 193.83 166.343L193.419 166.287V166.617Z" fill="#3F00F9"/>
<path d="M204.747 168.078V167.739L204.351 167.691V168.029L204.747 168.078Z" fill="#3F00F9"/>
<path d="M253.911 174.525L254.226 174.566V174.186L253.911 174.146V174.525Z" fill="#3F00F9"/>
<path d="M269.447 176.559V176.171L269.02 176.115V176.502L269.447 176.559Z" fill="#3F00F9"/>
<path d="M321.167 183.337L321.563 183.385C321.563 183.248 321.563 183.103 321.563 182.966L321.159 182.909L321.167 183.337Z" fill="#3F00F9"/>
<path d="M341.622 185.984C341.622 185.839 341.622 185.693 341.622 185.548L341.283 185.508V185.984H341.622Z" fill="#3F00F9"/>
<path d="M397.026 193.246H397.301V192.802L397.026 192.762V193.246Z" fill="#3F00F9"/>
<path d="M103.579 200.008C103.12 199.911 102.547 199.758 101.87 199.556C101.086 199.337 100.347 198.982 99.6852 198.507C98.8506 197.892 98.2076 197.053 97.8309 196.086C97.7986 194.93 97.7664 193.671 97.7341 192.31C97.6857 190.47 97.6293 188.421 97.5648 186.202C97.5055 186.081 97.4543 185.957 97.4116 185.83C97.4922 188.195 97.5567 190.365 97.6132 192.286C97.6616 193.658 97.7019 194.908 97.7341 196.062C98.1035 197.064 98.7562 197.936 99.6127 198.572C100.286 199.045 101.036 199.397 101.83 199.613C102.507 199.806 103.079 199.952 103.547 200.048C104.015 200.145 104.489 200.21 104.966 200.242L104.611 200.194C104.394 200.161 104.039 200.105 103.579 200.008Z" fill="#3F00F9"/>
<path d="M395.567 249.513C395.003 249.513 394.43 249.473 393.866 249.441C393.866 249.594 393.866 249.739 393.866 249.884C394.43 249.884 395.003 249.941 395.575 249.957C396.51 249.957 397.446 249.957 398.381 249.957C398.381 249.82 398.381 249.675 398.381 249.521C397.43 249.545 396.494 249.545 395.567 249.513Z" fill="#3F00F9"/>
<path d="M413.063 246.164C412.869 246.277 412.66 246.366 412.466 246.471C412.466 246.64 412.466 246.81 412.466 246.971C412.74 246.834 413.031 246.705 413.273 246.551C414.381 245.917 415.445 245.208 416.457 244.429V243.873C415.385 244.72 414.25 245.486 413.063 246.164Z" fill="#3F00F9"/>
<path d="M398.671 249.529C398.671 249.682 398.671 249.828 398.671 249.973C400.058 249.973 401.444 249.884 402.831 249.747V249.303C401.444 249.44 400.058 249.505 398.671 249.529Z" fill="#3F00F9"/>
<path d="M404.565 249.101C404.089 249.166 403.613 249.214 403.138 249.263C403.138 249.416 403.138 249.569 403.138 249.707C403.638 249.658 404.137 249.61 404.645 249.537C405.609 249.396 406.565 249.202 407.508 248.956C407.508 248.811 407.508 248.658 407.508 248.496C406.539 248.755 405.557 248.957 404.565 249.101Z" fill="#3F00F9"/>
<path d="M389.343 249.085C389.343 249.239 389.343 249.384 389.343 249.521C390.754 249.674 392.165 249.795 393.583 249.868C393.583 249.731 393.583 249.578 393.583 249.432C392.148 249.352 390.746 249.239 389.343 249.085Z" fill="#3F00F9"/>
<path d="M386.634 248.755C385.167 248.545 383.707 248.295 382.264 247.948C380.821 247.601 379.362 247.326 377.919 247.036C372.122 245.914 366.373 244.881 360.689 243.865L327.279 237.982C283.742 230.429 244.534 223.764 211.608 218.164L133.612 205.011L112.392 201.453L106.869 200.508L104.982 200.21L106.861 200.549L112.368 201.509L133.572 205.148L211.567 218.487L327.23 238.434L360.633 244.325C366.325 245.349 372.073 246.382 377.862 247.504C379.305 247.794 380.74 248.093 382.192 248.416C383.643 248.739 385.118 248.973 386.602 249.223C387.408 249.336 388.214 249.433 389.021 249.529C389.021 249.384 389.021 249.239 389.021 249.086C388.247 248.965 387.44 248.868 386.634 248.755Z" fill="#3F00F9"/>
<path d="M418.883 241.71L418.803 241.831L418.73 241.904L418.521 242.097C417.972 242.622 417.408 243.114 416.819 243.59C416.819 243.784 416.819 243.969 416.819 244.155L417.094 243.953C417.698 243.469 418.279 242.953 418.843 242.42L419.053 242.226C419.099 242.184 419.143 242.138 419.182 242.089L419.238 242.009C419.238 241.767 419.238 241.508 419.238 241.242L418.883 241.71Z" fill="#3F00F9"/>
<path d="M437.604 208.142C437.604 206.585 437.604 205.011 437.604 203.446C437.514 203.933 437.365 204.407 437.161 204.858V208.15V210.531C437.161 211.337 437.112 212.088 437.088 212.871C436.916 214.418 436.511 215.931 435.887 217.357C435.25 218.777 434.437 220.11 433.468 221.327C433.226 221.634 432.976 221.932 432.718 222.223L432.525 222.441L432.412 222.562L432.323 222.691L431.985 223.167L430.63 225.088C428.83 227.637 427.032 230.182 425.236 232.721L419.883 240.298L419.609 240.685C419.609 240.96 419.609 241.226 419.609 241.492L420.262 240.564L425.623 232.987L431.017 225.354L432.372 223.433L432.71 222.957L432.791 222.836L432.872 222.747L433.073 222.53C433.331 222.231 433.589 221.924 433.831 221.618C434.822 220.384 435.651 219.028 436.298 217.583C436.94 216.115 437.359 214.559 437.54 212.967C437.54 212.161 437.604 211.354 437.612 210.547L437.604 208.142Z" fill="#3F00F9"/>
<path d="M408.942 248.052C408.564 248.19 408.185 248.303 407.806 248.415C407.806 248.577 407.806 248.73 407.806 248.875C408.241 248.754 408.676 248.625 409.112 248.472C410.141 248.087 411.147 247.646 412.127 247.149V246.648C411.097 247.184 410.033 247.653 408.942 248.052Z" fill="#3F00F9"/>
<path d="M97.444 185.548C97.4644 185.697 97.5023 185.843 97.5569 185.984C97.5569 185.596 97.5569 185.177 97.5569 184.806C97.4552 185.039 97.4163 185.295 97.444 185.548Z" fill="#3F00F9"/>
<path d="M146.996 175.929L146.633 175.986V176.244L147.004 176.196L146.996 175.929Z" fill="#3F00F9"/>
<path d="M204.997 178.608L204.666 178.56V178.899L204.997 178.947V178.608Z" fill="#3F00F9"/>
<path d="M269.44 187.008L269.068 186.96V187.331L269.44 187.38V187.008Z" fill="#3F00F9"/>
<path d="M341.396 196.393H341.122V196.797L341.396 196.837V196.393Z" fill="#3F00F9"/>
<path d="M396.712 204.043V204.002C396.768 203.906 396.817 203.809 396.865 203.712V203.631H396.696L396.712 204.043Z" fill="#3F00F9"/>
<path d="M190.807 176.962L190.162 177.22H190.871H190.919C191.129 177.14 191.323 177.043 191.516 176.946H190.879L190.807 176.962Z" fill="#3F00F9"/>
<path d="M252.266 185.177L252.629 185.217C252.763 185.124 252.889 185.021 253.008 184.91L252.661 184.862C252.54 184.927 252.411 185.032 252.266 185.177Z" fill="#3F00F9"/>
<path d="M320.772 193.706L320.466 194.061L320.821 194.11L321.071 193.819V193.746L320.772 193.706Z" fill="#3F00F9"/>
<path d="M321.071 193.819L321.127 193.746H321.071V193.819Z" fill="#3F00F9"/>
<path d="M396.712 204.043H396.873V203.688C396.825 203.784 396.777 203.881 396.72 203.978L396.712 204.043Z" fill="#3F00F9"/>
<path d="M437.185 202.727C437.184 202.955 437.162 203.181 437.121 203.405V204.857C437.325 204.406 437.474 203.932 437.565 203.445C437.565 203.026 437.565 202.638 437.565 202.187C437.479 201.819 437.323 201.471 437.105 201.162C437.105 201.509 437.105 201.864 437.105 202.211C437.148 202.38 437.175 202.553 437.185 202.727Z" fill="#3F00F9"/>
<path d="M434.654 199.952L435.041 199.629L434.589 199.419L434.202 199.742L434.654 199.952Z" fill="#3F00F9"/>
<path d="M97.557 185.984C97.5024 185.843 97.4645 185.697 97.4441 185.548C97.4062 185.298 97.434 185.042 97.5248 184.806V184.572C97.4633 184.692 97.4173 184.819 97.3876 184.951V185.854C97.4303 185.981 97.4815 186.105 97.5409 186.226L97.557 185.984Z" fill="#3F00F9"/>
<path d="M100.589 182.377L100.145 182.433L99.6935 182.659L100.049 182.611C100.226 182.522 100.42 182.449 100.589 182.377Z" fill="#3F00F9"/>
<path d="M416.949 231.801L416.586 232.035C416.586 233.762 416.505 235.892 416.481 238.208C416.481 240.306 416.481 242.243 416.481 243.857L416.844 243.59C416.844 242.025 416.909 240.185 416.933 238.216C416.957 235.787 416.957 233.592 416.949 231.801Z" fill="#3F00F9"/>
<path d="M416.602 231.494C416.602 231.664 416.602 231.85 416.602 232.035L416.965 231.801C416.965 231.616 416.965 231.438 416.965 231.269L416.602 231.494Z" fill="#3F00F9"/>
<path d="M416.828 243.606L416.465 243.873V244.43L416.828 244.155C416.828 243.97 416.828 243.784 416.828 243.59V243.606Z" fill="#3F00F9"/>
<path d="M394.036 236.151H393.657C393.657 237.764 393.584 239.725 393.56 241.799C393.56 244.817 393.56 247.52 393.56 249.416H393.891C393.947 247.528 394.004 244.817 394.036 241.791C394.036 239.725 394.036 237.781 394.036 236.151Z" fill="#3F00F9"/>
<path d="M393.664 235.682C393.664 235.828 393.664 235.981 393.664 236.142H394.043C394.043 235.989 394.043 235.836 394.043 235.682H393.664Z" fill="#3F00F9"/>
<path d="M393.56 249.433C393.56 249.578 393.56 249.731 393.56 249.868H393.842C393.842 249.723 393.842 249.578 393.842 249.424L393.56 249.433Z" fill="#3F00F9"/>
<path d="M389.496 235.634L389.141 235.577C389.093 237.304 389.061 239.451 389.036 241.783C389.036 244.615 389.036 247.181 389.036 249.045H389.351C389.416 247.173 389.464 244.591 389.488 241.742C389.504 239.475 389.512 237.361 389.496 235.634Z" fill="#3F00F9"/>
<path d="M389.496 235.206L389.149 235.15C389.149 235.295 389.149 235.448 389.149 235.593L389.504 235.65L389.496 235.206Z" fill="#3F00F9"/>
<path d="M389.053 249.053C389.053 249.207 389.053 249.352 389.053 249.497H389.343C389.343 249.36 389.343 249.215 389.343 249.061L389.053 249.053Z" fill="#3F00F9"/>
<path d="M398.833 236.013H398.469C398.429 237.732 398.389 239.854 398.365 242.154C398.365 245.051 398.365 247.657 398.365 249.537H398.679C398.744 247.665 398.792 245.059 398.824 242.17C398.841 239.838 398.841 237.708 398.833 236.013Z" fill="#3F00F9"/>
<path d="M398.485 235.562C398.485 235.707 398.485 235.86 398.485 236.013H398.849V235.562H398.485Z" fill="#3F00F9"/>
<path d="M398.357 249.537C398.357 249.691 398.357 249.836 398.357 249.973H398.655C398.655 249.828 398.655 249.682 398.655 249.529L398.357 249.537Z" fill="#3F00F9"/>
<path d="M403.291 235.416L402.936 235.464C402.888 237.232 402.847 239.459 402.823 241.88C402.823 244.793 402.823 247.423 402.823 249.303L403.138 249.263C403.194 247.391 403.243 244.776 403.275 241.888C403.299 239.435 403.307 237.183 403.291 235.416Z" fill="#3F00F9"/>
<path d="M402.952 235.013C402.952 235.166 402.952 235.311 402.952 235.464L403.307 235.416C403.307 235.255 403.307 235.109 403.307 234.964L402.952 235.013Z" fill="#3F00F9"/>
<path d="M402.823 249.303V249.731H403.122C403.122 249.594 403.122 249.44 403.122 249.287L402.823 249.303Z" fill="#3F00F9"/>
<path d="M407.96 234.682L407.605 234.738C407.556 236.497 407.516 238.716 407.492 241.129C407.492 244.018 407.492 246.624 407.492 248.496L407.814 248.416C407.871 246.552 407.919 243.978 407.952 241.153C407.968 238.692 407.968 236.449 407.96 234.682Z" fill="#3F00F9"/>
<path d="M407.596 234.286C407.596 234.44 407.596 234.585 407.596 234.738L407.951 234.682C407.951 234.528 407.951 234.383 407.951 234.23L407.596 234.286Z" fill="#3F00F9"/>
<path d="M407.483 248.496C407.483 248.658 407.483 248.811 407.483 248.956L407.782 248.876C407.782 248.73 407.782 248.577 407.782 248.416L407.483 248.496Z" fill="#3F00F9"/>
<path d="M412.587 233.762L412.232 233.859C412.192 235.626 412.143 237.845 412.127 240.266C412.111 242.686 412.127 244.889 412.127 246.649L412.434 246.503C412.482 244.776 412.515 242.63 412.539 240.306C412.595 237.805 412.603 235.537 412.587 233.762Z" fill="#3F00F9"/>
<path d="M412.248 233.399C412.248 233.544 412.248 233.697 412.248 233.859L412.603 233.762C412.603 233.601 412.603 233.447 412.603 233.294L412.248 233.399Z" fill="#3F00F9"/>
<path d="M412.111 246.648V247.149L412.45 246.971C412.45 246.81 412.45 246.64 412.45 246.471L412.111 246.648Z" fill="#3F00F9"/>
<path d="M419.69 229.461C419.569 229.59 419.456 229.719 419.327 229.848C419.327 231.527 419.246 233.56 419.23 235.771C419.23 237.781 419.23 239.653 419.23 241.242L419.626 240.685C419.626 239.225 419.682 237.555 419.698 235.771C419.73 233.391 419.738 231.172 419.69 229.461Z" fill="#3F00F9"/>
<path d="M419.359 229.848C419.488 229.719 419.601 229.59 419.722 229.461V228.807C419.609 228.936 419.488 229.049 419.375 229.17C419.262 229.291 419.367 229.614 419.359 229.848Z" fill="#3F00F9"/>
<path d="M419.238 241.242C419.238 241.508 419.238 241.767 419.238 242.009V241.968L419.577 241.5C419.577 241.242 419.577 240.976 419.577 240.693L419.238 241.242Z" fill="#3F00F9"/>
</svg>
