<svg width="535" height="250" viewBox="0 0 535 250" fill="none" xmlns="http://www.w3.org/2000/svg">
<path d="M206.467 181.327C206.499 181.586 206.544 181.843 206.602 182.097C207.045 184.086 207.971 184.501 209.195 186.906C209.666 187.838 209.784 188.277 210.351 188.709C210.867 189.077 211.467 189.309 212.096 189.383C212.685 189.454 213.28 189.454 213.869 189.383C214.378 189.296 214.898 189.296 215.407 189.383C215.768 189.48 216.103 189.654 216.389 189.895C216.967 190.795 217.483 191.733 217.933 192.704C218.996 195.047 219.709 197.534 220.048 200.085C220.677 204.158 220.245 204.473 220.711 209.214C221.055 212.634 221.617 216.029 222.394 219.377C222.607 220.355 222.854 221.394 224.112 225.961C225.695 231.706 227.568 237.367 229.724 242.921C230.523 245.222 231.981 247.237 233.916 248.714C234.427 249.078 234.97 249.396 235.538 249.663C238.864 249.996 242.223 249.716 245.449 248.837C248.851 247.982 252.029 246.401 254.765 244.202C256.485 242.788 257.996 241.136 259.255 239.298C259.221 238.95 259.157 238.606 259.064 238.27C258.813 237.391 258.392 236.57 257.823 235.854C257.419 235.337 256.701 233.798 255.292 230.72C254.316 228.602 254.636 228.972 252.486 223.568C251.364 220.686 250.932 219.782 250.359 217.877C250.152 217.197 249.866 216.192 249.377 214.057C249.142 213.001 248.597 210.546 247.767 205.692C246.813 200.13 246.509 197.434 246.397 196.293C246.313 195.473 246.234 194.709 246.167 193.653C246.038 191.591 246.122 191.069 245.988 189.49C245.943 188.928 245.802 187.99 245.533 186.17C245.134 183.462 245.022 182.973 244.927 181.676C244.775 180.469 244.869 179.244 245.202 178.075C245.349 177.582 245.566 177.112 245.847 176.681C246.235 176.172 246.664 175.696 247.132 175.26C248.255 174.069 248.361 173.693 248.406 173.541C248.517 173.045 248.517 172.531 248.406 172.035C248.238 170.704 248.159 170.041 248.03 169.451C247.735 168.022 247.548 166.572 247.469 165.114C245.814 165.59 244.101 165.832 242.379 165.833C239.612 165.833 238.742 165.743 238.742 165.743C238.012 165.645 237.272 165.645 236.542 165.743C235.8 165.857 235.081 166.086 234.41 166.423C232.838 167.176 231.188 167.772 229.645 168.592C227.754 169.597 228.736 168.951 222.804 171.783C219.437 173.395 217.691 174.226 215.508 175.429C214.638 175.901 213.521 176.552 211.293 177.878C210.21 178.491 209.167 179.174 208.173 179.923C207.427 180.457 206.86 180.968 206.467 181.327Z" fill="#C4E5FF"/>
<path d="M165.274 123.964C164.849 126.245 164.616 128.559 164.578 130.879C164.551 133.002 164.683 135.124 164.971 137.227C166.537 149.132 172.267 159.317 172.491 159.749C173.84 162.092 175.34 164.343 176.981 166.491C179.383 169.642 182.239 173.395 186.92 176.749C190.807 179.516 195.189 181.511 199.828 182.625C195.269 182.287 190.798 181.19 186.6 179.378C173.266 173.586 167.249 162.395 165.751 159.39C162.277 152.666 160.774 145.096 161.418 137.553C161.865 132.826 163.172 128.22 165.274 123.964Z" fill="#C4E5FF"/>
<path d="M270.041 1.80897C265.574 3.02856 261.256 4.74128 257.167 6.9156C255.394 7.85713 253.691 8.92542 252.071 10.1122C251.173 10.7751 250.326 11.4604 249.383 12.2245C247.952 13.3874 247.233 13.9716 246.386 14.7581C245.278 15.7943 244.229 16.8915 243.243 18.0446C242.721 18.6569 242.031 19.5108 241.863 19.7299C241.694 19.949 241.043 20.7467 240.645 21.2636C239.839 22.3337 239.112 23.4602 238.467 24.6343C237.415 26.4944 236.478 28.4175 235.661 30.3926C235.661 30.3926 234.932 32.078 234.331 33.7296C230.363 44.5103 229.841 58.6785 229.841 58.6785C229.594 66.7424 230.258 74.8085 231.822 82.7229C234.219 95.8743 238.119 105.397 240.633 111.447C243.281 118.081 246.472 124.485 250.174 130.593C254.721 138.139 260.149 145.116 266.343 151.379C268.823 153.802 271.429 156.094 274.149 158.244C277.932 161.221 281.91 163.941 286.058 166.384C289.917 168.686 293.912 170.75 298.023 172.564C303.197 174.811 307.603 176.755 313.737 177.979C318.451 178.929 326.297 180.412 335.562 177.861C338.998 176.886 342.302 175.493 345.4 173.715C349.601 171.264 353.396 168.172 356.647 164.553C359.21 161.791 361.49 158.78 363.455 155.564C366.286 151.149 368.568 146.404 370.251 141.435C371.391 137.884 372.206 134.236 372.686 130.536C375.15 112.728 371.491 95.29 371.194 93.908C368.511 81.5488 364.201 72.2119 360.912 65.0828C359.262 61.5099 357.814 58.701 356.984 57.0999C353.42 50.3585 348.695 41.4991 340.552 32.106C337.241 28.2712 333.645 24.6936 329.793 21.404C326.098 18.3193 322.196 15.4925 318.114 12.9436C315.308 11.1627 312.85 9.73576 311.195 8.82005C309.685 7.98299 307.507 6.77515 305.173 5.67405C299.914 3.1234 294.288 1.41717 288.499 0.617986C285.639 0.231617 282.751 0.100017 279.868 0.224735C276.545 0.401121 273.251 0.932211 270.041 1.80897ZM349.11 152.929C346.236 156.487 342.669 159.423 338.627 161.558C330.859 165.547 323.474 165.047 319.882 164.76C313.108 164.199 308.287 162.064 301.446 159.002C297.586 157.337 293.877 155.338 290.362 153.03C285.104 149.518 280.314 145.35 276.108 140.626C273.302 137.525 270.686 134.199 269.16 132.233C269.16 132.233 266.842 129.261 264.895 126.531C258.822 118.025 248.21 97.3181 244.871 78.5544C244.213 74.7816 243.775 70.9738 243.557 67.1502C243.374 63.6154 243.421 60.0724 243.698 56.5437C243.912 52.667 244.525 48.8228 245.527 45.072C246.695 40.897 248.393 36.8888 250.578 33.1453C252.612 29.3892 255.224 25.9768 258.317 23.0332C262.128 19.2995 266.792 16.5534 271.904 15.0334C275.476 14.0545 279.184 13.6636 282.881 13.8761C284.601 13.986 286.312 14.2018 288.005 14.5222C290.483 15.0089 292.932 15.6335 295.34 16.3929C295.868 16.5502 296.581 16.7693 297.456 17.0558C300.856 18.1679 304.165 19.5447 307.35 21.1737C309.511 22.2955 311.606 23.541 313.625 24.904C316.605 26.8863 319.446 29.0712 322.127 31.4431C327.293 36.1015 331.951 41.2952 336.023 46.9372C338.914 50.9051 341.559 55.0477 343.941 59.3414C347.516 65.6165 352.466 74.4085 356.226 86.8689C357.936 92.5522 359.202 98.3597 360.014 104.239C361.019 111.503 361.861 117.554 360.682 125.587C359.825 131.236 358.177 136.735 355.788 141.924C354.234 145.289 352.528 148.935 349.11 152.935V152.929Z" fill="#C4E5FF"/>
<path d="M310.628 87.9587C311.673 90.5958 312.312 93.3765 312.525 96.2057C312.709 97.6002 312.687 99.0144 312.457 100.402C312.289 101.239 311.335 105.666 307.367 108.003C302.591 110.812 297.125 108.351 296.047 107.863C292.54 106.267 290.643 103.644 288.847 101.155C287.125 98.7546 285.784 96.1014 284.874 93.29C283.755 90.2629 283.22 87.0507 283.297 83.8239C283.386 81.2285 283.493 78.9083 285.16 76.9027C286.181 75.736 287.489 74.8567 288.954 74.3522C291.099 73.5702 293.422 73.4106 295.655 73.8916C303.164 75.2342 308.523 82.8071 310.628 87.9587Z" fill="#C4E5FF"/>
<path d="M229.814 63.2008C228.427 68.5569 226.677 73.8124 224.577 78.9308C223.416 81.7397 222.204 84.4138 220.969 86.8913C219.416 86.881 217.871 87.1025 216.384 87.5486C214.704 88.059 213.12 88.8409 211.692 89.8631C208.022 92.3968 207.668 91.5485 197.162 97.1663C194.356 98.6663 195.254 98.2562 187.347 102.593C185.31 103.717 183.312 104.902 181.241 105.964C178.435 107.385 176.987 107.964 174.899 109.514C173.799 110.34 172.751 111.233 171.762 112.188C171.043 112.847 170.375 113.559 169.764 114.318C168.887 115.512 168.171 116.817 167.637 118.2C166.826 120.026 166.133 121.903 165.56 123.817C164.393 128.121 164.09 136.626 166.683 146.087C169.427 155.759 174.537 164.594 181.549 171.794C183.477 173.844 185.578 175.724 187.829 177.412C190.445 179.282 196.59 182.985 206.967 183.249C206.597 182.791 206.422 182.206 206.478 181.62C206.63 180.738 207.489 180.226 207.853 180.007C210.373 178.496 212.708 176.636 215.402 175.44C217.057 174.715 218.915 173.816 222.636 172.019C225.661 170.552 228.73 169.182 231.716 167.642C233.77 166.581 234.797 165.991 236.537 165.721C238.456 165.423 239.343 165.811 241.728 165.805C243.697 165.799 245.657 165.539 247.559 165.03C248.94 163.802 250.502 162.794 252.189 162.041C252.941 161.704 253.278 161.62 253.873 161.322C255.691 160.357 257.197 158.893 258.216 157.103C261.154 157.206 264.075 157.583 266.943 158.227C269.284 158.755 271.22 159.384 273.313 160.064C275.631 160.817 277.55 161.53 278.925 162.069C274.106 158.616 269.599 154.745 265.456 150.502C260.306 145.195 255.731 139.358 251.807 133.087C247.26 125.962 243.417 118.412 240.331 110.542C236.997 102.732 234.411 94.6231 232.608 86.3239C230.975 78.7174 230.04 70.9776 229.814 63.2008Z" fill="#8FCEFF"/>
<path d="M269.34 15.8817C264.761 17.6989 260.65 20.5253 257.313 24.1511C255.346 26.1791 253.588 28.3999 252.066 30.7802C250.383 33.3339 248.936 36.0361 247.744 38.8531C246.124 42.739 244.958 46.7996 244.27 50.9539C243.501 55.51 243.501 58.8751 243.501 62.8918C243.475 67.7553 243.85 72.6126 244.624 77.414C245.185 80.6555 245.859 83.3801 246.15 84.515C246.796 87.0879 247.458 89.2957 248.03 91.0541C252.924 89.5205 257.161 87.9418 260.658 86.5261C265.748 84.4588 269.53 82.5937 270.849 81.9701C271.854 81.4757 273.06 80.8465 275.468 79.605C283.022 75.6725 284.071 74.9871 286.659 74.2624C288.786 73.5506 291.032 73.2643 293.27 73.4197C295.414 73.6319 297.497 74.2577 299.404 75.2624C301.134 76.1525 302.728 77.2877 304.135 78.6331C306.053 80.3835 307.71 82.4002 309.057 84.6217C311.924 89.5036 314.669 98.8124 310.493 105.593C308.855 108.245 306.295 110.29 304.662 111.593C302.87 113.016 300.941 114.258 298.904 115.301C295.705 116.986 290.817 120.037 281.047 126.11C278.471 127.711 274.643 130.149 270.036 133.323C272.431 136.598 275.056 139.697 277.893 142.598C281.204 145.995 284.804 149.098 288.651 151.873C294.483 156.012 300.876 159.294 307.637 161.62C313.013 163.463 317.374 164.963 323.53 164.951C327.551 165.103 331.561 164.45 335.327 163.03C339.092 161.61 342.536 159.452 345.457 156.682C348.29 154.128 350.737 151.173 352.719 147.912C355.726 143.066 357.927 137.763 359.234 132.211C360.09 128.999 360.69 125.725 361.03 122.419C361.592 116.666 361.126 112.408 360.565 107.396C359.845 101.043 358.595 94.7606 356.827 88.616C355.373 83.5608 353.562 78.6158 351.406 73.8186C350.407 71.6051 349.598 70.0209 348.487 67.8299C346.804 64.4592 344.357 59.7402 340.692 53.9538C338.627 50.6146 336.393 47.3838 333.997 44.2743C331.758 41.32 329.34 38.5058 326.757 35.8475C324.412 33.4288 321.925 31.1515 319.31 29.0274C313.305 24.1386 306.518 20.3001 299.235 17.6738C298.444 17.3929 297.58 17.112 297.434 17.0558C295.022 16.2101 292.564 15.5048 290.071 14.9435C288.434 14.5726 286.778 14.2932 285.11 14.1064C283.393 13.9192 281.667 13.8366 279.941 13.8592C276.321 13.9557 272.741 14.6387 269.34 15.8817Z" fill="url(#paint0_linear_1108_2444)"/>
<path d="M290.363 73.6163C289.214 73.6703 288.074 73.8455 286.962 74.1388C285.693 74.5081 284.459 74.9894 283.275 75.577C281.731 76.2736 280.614 76.8747 280.469 76.9646C280.469 76.9646 279.206 77.6443 271.45 81.7397C268.287 83.3675 265.041 84.8264 261.724 86.1104C257.992 87.6497 253.418 89.3688 248.092 91.0317C252.674 106.399 260.161 120.743 270.148 133.284C271.977 132.048 274.789 130.166 278.274 127.924C283.69 124.441 288.432 121.576 290.952 120.059C294.072 118.177 297.125 116.217 300.296 114.391C300.296 114.391 302.098 113.351 305.139 111.335C305.809 110.919 306.45 110.46 307.059 109.958C308.437 108.783 309.539 107.317 310.286 105.666C309.461 106.47 306.189 109.458 301.486 109.351C298.074 109.278 295.694 107.593 293.926 106.38C290.262 103.857 288.533 100.689 287.063 97.9922C285.706 95.4732 284.696 92.7822 284.06 89.9924C283.499 87.4475 282.938 84.9363 283.465 81.7622C283.746 80.1387 284.072 78.3578 285.475 76.6444C286.74 75.14 288.453 74.0792 290.363 73.6163Z" fill="url(#paint1_linear_1108_2444)"/>
<path d="M205.777 183.08C205.777 183.159 205.721 183.238 205.698 183.311H206.748L206.636 183.103L205.777 183.08Z" fill="#0894FF"/>
<path d="M169.624 114.902C169.044 115.561 168.496 116.216 167.979 116.868L167.699 117.396C167.418 118.025 167.087 118.649 166.823 119.317C166.56 119.986 166.262 120.66 166.043 121.368C165.824 122.076 165.605 122.733 165.415 123.441C165.779 122.784 166.15 122.166 166.537 121.581C167.301 119.242 168.337 117 169.624 114.902Z" fill="#0894FF"/>
<path d="M202.92 182.805C202.567 182.858 202.211 182.885 201.854 182.883H201.192C202.552 183.099 203.924 183.236 205.3 183.294C205.3 183.209 205.35 183.131 205.373 183.052C204.626 183.007 203.813 182.934 202.92 182.805Z" fill="#0894FF"/>
<path d="M168.956 151.676C168.256 149.929 167.651 148.146 167.143 146.334C166.677 144.542 166.234 142.75 165.875 140.991C165.516 139.264 165.245 137.521 165.061 135.767C164.902 134.086 164.846 132.398 164.892 130.711C164.984 128.128 165.38 125.566 166.071 123.076C165.712 123.722 165.358 124.413 165.016 125.138C164.629 126.965 164.396 128.822 164.32 130.688C164.263 132.401 164.312 134.116 164.466 135.823C164.644 137.6 164.914 139.366 165.274 141.115C165.639 142.896 166.071 144.682 166.542 146.502C167.054 148.336 167.666 150.141 168.378 151.907C169.772 155.391 171.49 158.737 173.507 161.901C174.489 163.435 175.516 164.884 176.538 166.294C177.559 167.704 178.597 169.069 179.686 170.333C181.723 172.764 184.044 174.941 186.6 176.816C188.827 178.447 191.248 179.794 193.806 180.827C195.484 181.505 197.212 182.049 198.975 182.457C200.019 182.563 200.956 182.625 201.781 182.648C199.102 182.206 196.484 181.452 193.98 180.4C184.496 176.872 174.865 165.659 168.956 151.676Z" fill="#0894FF"/>
<path d="M191.606 180.985C186.68 179.472 182.079 177.054 178.036 173.856C173.086 169.935 169.044 164.986 166.189 159.35C163.356 153.702 161.796 147.5 161.621 141.182C161.568 138.433 161.818 135.686 162.367 132.991C162.866 130.648 163.593 128.36 164.539 126.16C164.696 125.806 164.853 125.475 165.016 125.138C165.134 124.576 165.269 124.014 165.415 123.452C164.977 124.244 164.545 125.087 164.135 125.992C163.148 128.211 162.384 130.524 161.856 132.896C161.278 135.627 161.005 138.413 161.043 141.205C161.19 147.614 162.756 153.912 165.628 159.642C168.526 165.354 172.639 170.361 177.677 174.311C181.79 177.529 186.474 179.938 191.483 181.412C194.644 182.313 197.906 182.81 201.192 182.889C200.49 182.771 199.749 182.631 198.981 182.457C196.482 182.194 194.014 181.701 191.606 180.985Z" fill="#0894FF"/>
<path d="M202.92 182.805C202.544 182.76 202.163 182.704 201.764 182.636C200.945 182.636 200.008 182.552 198.958 182.445C199.727 182.619 200.468 182.76 201.169 182.878H201.848C202.207 182.881 202.565 182.857 202.92 182.805Z" fill="#0894FF"/>
<path d="M166.071 123.076C166.211 122.57 166.357 122.07 166.52 121.582C166.15 122.143 165.779 122.784 165.398 123.441C165.252 124.003 165.117 124.565 164.999 125.126C165.358 124.413 165.712 123.722 166.071 123.076Z" fill="#0894FF"/>
<path d="M206.709 181.417C206.536 181.634 206.38 181.863 206.243 182.103C206.269 182.238 206.31 182.37 206.366 182.496C206.444 182.709 206.534 182.917 206.636 183.119H207.259C207.104 182.853 206.967 182.578 206.849 182.294C206.718 182.021 206.669 181.717 206.709 181.417Z" fill="#0894FF"/>
<path d="M210.934 188.782H211.024C210.559 188.535 210.19 188.14 209.975 187.659C209.717 187.159 209.464 186.664 209.212 186.181C208.942 185.709 208.648 185.252 208.33 184.811C207.982 184.311 207.651 183.827 207.365 183.344H206.748C207.091 183.959 207.465 184.555 207.87 185.131C208.156 185.563 208.465 186.001 208.701 186.451C208.937 186.9 209.178 187.428 209.453 187.945C209.581 188.197 209.735 188.434 209.913 188.653C210.235 188.788 210.589 188.833 210.934 188.782Z" fill="#0894FF"/>
<path d="M214.313 188.985C213.701 189.03 213.134 189.131 212.568 189.125C212.255 189.13 211.943 189.09 211.642 189.007C211.42 189.069 211.192 189.111 210.962 189.131C210.774 189.14 210.586 189.127 210.401 189.091C210.502 189.164 210.603 189.237 210.704 189.299C211.276 189.608 211.918 189.763 212.568 189.749C213.202 189.749 213.808 189.647 214.358 189.608C214.874 189.573 215.389 189.696 215.834 189.962C216.154 190.151 216.45 190.38 216.715 190.642C216.445 190.164 216.154 189.726 215.918 189.316C215.422 189.065 214.868 188.951 214.313 188.985Z" fill="#0894FF"/>
<path d="M207.259 183.136H206.636L206.748 183.344H207.365L207.259 183.136Z" fill="#0894FF"/>
<path d="M235.543 249.219C235.297 249.101 235.05 248.983 234.814 248.848C234.459 248.655 234.12 248.435 233.798 248.191C233.462 247.959 233.146 247.698 232.855 247.41C232.25 246.852 231.737 246.202 231.334 245.483C230.489 243.972 229.761 242.398 229.157 240.776C228.517 239.13 227.933 237.405 227.367 235.719C226.244 232.259 225.234 228.843 224.28 225.546C223.326 222.248 222.467 219.051 221.9 215.956C221.38 213.016 221.024 210.048 220.834 207.068C220.632 204.26 220.531 201.647 220.155 199.265C219.978 198.126 219.727 197.001 219.403 195.895C219.104 194.916 218.74 193.959 218.314 193.029C218.129 192.608 217.938 192.215 217.753 191.833C217.452 191.401 217.114 190.997 216.743 190.625C217.211 191.449 217.632 192.299 218.006 193.17C218.411 194.092 218.754 195.039 219.033 196.007C219.335 197.092 219.569 198.196 219.734 199.31C220.071 201.658 220.149 204.271 220.329 207.08C220.504 210.076 220.851 213.061 221.367 216.018C221.99 219.274 222.777 222.497 223.724 225.675C224.673 228.978 225.666 232.416 226.805 235.871C227.367 237.607 227.967 239.315 228.613 240.978C229.237 242.632 229.988 244.236 230.857 245.775C231.291 246.543 231.844 247.238 232.496 247.832C232.804 248.134 233.139 248.408 233.495 248.652L233.978 248.994C234.455 249.084 234.949 249.169 235.459 249.23L235.543 249.219Z" fill="#0894FF"/>
<path d="M216.423 189.631C216.332 189.56 216.236 189.497 216.137 189.44C216.064 189.395 215.985 189.361 215.912 189.322C216.171 189.732 216.44 190.17 216.709 190.647C217.081 191.02 217.419 191.424 217.719 191.855C217.325 191.092 216.892 190.35 216.423 189.631Z" fill="#0894FF"/>
<path d="M249.809 243.051C250.983 242.061 252.07 240.973 253.059 239.798C253.115 239.736 253.165 239.669 253.222 239.601C253.278 239.534 253.222 239.36 253.222 239.236L252.739 239.264L252.604 239.427C250.562 241.784 248.14 243.782 245.438 245.337C242.709 246.861 239.805 248.046 236.789 248.865L235.527 249.219L235.667 249.286C236.099 249.337 236.542 249.382 236.997 249.41C240.05 248.606 242.989 247.421 245.746 245.882C247.184 245.065 248.544 244.117 249.809 243.051Z" fill="#0894FF"/>
<path d="M235.426 249.253L235.701 249.287L235.56 249.219L235.426 249.253Z" fill="#0894FF"/>
<path d="M257.638 241.332C257.936 240.922 258.239 240.478 258.531 240.006L258.632 239.826C257.697 241.074 256.634 242.221 255.461 243.247C253.081 245.272 250.347 246.836 247.396 247.86C244.46 248.932 241.357 249.47 238.232 249.45C237.816 249.45 237.407 249.45 237.003 249.41H236.952L236.357 249.568C236.75 249.725 237.148 249.865 237.558 249.989C237.777 249.989 238.002 249.989 238.226 249.989C241.42 250.043 244.597 249.508 247.598 248.41C250.608 247.369 253.391 245.762 255.798 243.674L256 243.416C256.477 242.86 257.038 242.152 257.638 241.332Z" fill="#0894FF"/>
<path d="M233.927 249.017C234.106 249.146 234.294 249.262 234.489 249.365L234.651 249.455L235.381 249.253C234.898 249.191 234.404 249.095 233.927 249.017Z" fill="#0894FF"/>
<path d="M235.493 249.809C236.161 249.904 236.851 249.966 237.57 250C237.16 249.876 236.761 249.736 236.369 249.579L235.493 249.809Z" fill="#0894FF"/>
<path d="M236.369 249.579L236.963 249.421H237.014C236.559 249.393 236.116 249.348 235.684 249.298C235.908 249.393 236.133 249.489 236.369 249.579Z" fill="#0894FF"/>
<path d="M235.684 249.287L235.409 249.253L234.679 249.455C234.898 249.573 235.117 249.685 235.341 249.792H235.493L236.368 249.562C236.133 249.489 235.908 249.393 235.684 249.287Z" fill="#0894FF"/>
<path d="M214.605 187.44L214.296 187.046C213.768 187.417 213.291 187.777 212.814 188.058C212.27 188.409 211.662 188.65 211.024 188.765C211.218 188.874 211.426 188.957 211.641 189.013C212.127 188.885 212.595 188.696 213.033 188.451C213.538 188.159 214.06 187.799 214.605 187.44Z" fill="#0894FF"/>
<path d="M237.671 175.434C236.679 175.976 235.636 176.417 234.556 176.749C232.783 177.278 231.068 177.986 229.438 178.861C227.574 179.783 225.548 180.827 223.421 181.923C221.294 183.018 219.274 184.08 217.461 185.097C216.558 185.608 215.699 186.108 214.925 186.619C214.751 186.726 214.588 186.839 214.431 186.951L214.756 187.339C214.902 187.243 215.048 187.148 215.2 187.058C215.98 186.575 216.833 186.091 217.742 185.603C219.56 184.62 221.586 183.58 223.708 182.479L229.696 179.372C231.29 178.488 232.962 177.751 234.691 177.17C235.834 176.779 236.924 176.245 237.934 175.58L237.968 175.462L237.671 175.434Z" fill="#0894FF"/>
<path d="M210.963 189.136C211.192 189.116 211.42 189.075 211.642 189.013C211.426 188.957 211.219 188.874 211.024 188.765H210.934C210.582 188.814 210.222 188.763 209.896 188.619C209.896 188.619 209.924 188.664 209.947 188.681C210.079 188.833 210.229 188.967 210.396 189.08C210.582 189.122 210.772 189.141 210.963 189.136Z" fill="#0894FF"/>
<path d="M214.296 187.046L214.605 187.44L214.757 187.338L214.431 186.951L214.296 187.046Z" fill="#0894FF"/>
<path d="M245.146 174.086C243.142 174.434 241.217 174.743 239.461 174.901C239.236 174.901 239.012 174.934 238.793 174.94L238.664 175.041C238.636 175.181 238.608 175.316 238.568 175.451C238.571 175.466 238.571 175.481 238.568 175.496C238.882 175.513 239.197 175.513 239.511 175.496C241.313 175.361 243.226 175.075 245.264 174.721C246.145 174.558 247.009 174.451 247.845 174.238L248.098 173.912C248.098 173.783 248.131 173.648 248.143 173.519L248.053 173.547C247.094 173.779 246.124 173.959 245.146 174.086Z" fill="#0894FF"/>
<path d="M238.013 175.305V175.226L237.901 175.294L237.654 175.434L237.951 175.462C237.98 175.412 238.002 175.361 238.013 175.305Z" fill="#0894FF"/>
<path d="M238.793 174.94H238.686C238.689 174.974 238.689 175.007 238.686 175.041L238.793 174.94Z" fill="#0894FF"/>
<path d="M257.61 238.287C257.049 238.365 256.477 238.433 255.893 238.489C255.259 238.545 254.636 238.568 254.019 238.59L253.659 239.062V239.219C254.389 239.219 255.169 239.186 255.949 239.113C256.55 239.056 257.133 238.983 257.7 238.899L258.531 238.764C258.655 238.744 258.781 238.731 258.907 238.725C258.931 238.722 258.955 238.722 258.98 238.725C258.946 238.52 258.901 238.318 258.845 238.118L258.441 238.163L257.61 238.287Z" fill="#0894FF"/>
<path d="M258.632 239.826C258.772 239.646 258.901 239.461 259.031 239.264C259.031 239.174 259.031 239.085 259.031 238.989C259.004 239.081 258.972 239.171 258.935 239.259C258.847 239.455 258.746 239.644 258.632 239.826Z" fill="#0894FF"/>
<path d="M252.756 239.264L253.239 239.236C253.235 239.067 253.22 238.898 253.194 238.731C253.053 238.91 252.907 239.085 252.756 239.264Z" fill="#0894FF"/>
<path d="M254.019 238.59H253.62C253.641 238.743 253.655 238.897 253.66 239.051L254.019 238.59Z" fill="#0894FF"/>
<path d="M259.03 239.281C258.901 239.461 258.772 239.646 258.632 239.843L258.531 240.023C258.239 240.495 257.936 240.938 257.639 241.348C257.038 242.169 256.477 242.877 256.011 243.466L255.809 243.725L255.837 243.697C257.002 242.662 258.052 241.503 258.969 240.242C258.969 240.146 259.002 240.056 259.013 239.961C259.037 239.735 259.042 239.508 259.03 239.281Z" fill="#0894FF"/>
<path d="M246.521 86.7397C246.914 88.1554 247.329 89.5767 247.755 91.0036H247.84L248.289 90.8576C247.858 89.4344 247.445 88.0224 247.048 86.6217C245.442 81.0964 244.406 75.4207 243.956 69.6839C243.743 66.9086 243.732 64.1784 243.788 61.4874C243.844 58.7965 243.928 56.1617 244.203 53.6224C244.681 48.6918 245.901 43.8619 247.823 39.2969C248.743 37.1796 249.783 35.1164 250.937 33.1173C252.016 31.2117 253.219 29.38 254.54 27.6342C256.948 24.416 259.861 21.61 263.166 19.3254C268.529 15.7127 274.876 13.8485 281.338 13.9885C285.405 14.1016 289.441 14.7321 293.348 15.8648C294.689 16.2412 295.705 16.5446 296.396 16.7525L297.17 16.9884C297.344 17.039 297.434 17.0558 297.434 17.0558L297.181 16.9547L296.412 16.6907C295.733 16.466 294.729 16.1289 293.382 15.7413C289.472 14.5521 285.423 13.8816 281.338 13.7469C274.817 13.5656 268.399 15.4125 262.97 19.0333C259.625 21.3187 256.67 24.1302 254.221 27.359C252.883 29.1162 251.664 30.9611 250.573 32.8813C249.405 34.89 248.35 36.9625 247.413 39.089C245.46 43.6908 244.217 48.5627 243.726 53.5382C243.44 56.1224 243.339 58.774 243.283 61.4706C243.226 64.1671 243.232 66.9255 243.44 69.7176C243.883 75.4821 244.915 81.186 246.521 86.7397Z" fill="#0894FF"/>
<path d="M261.803 121.009C258.447 115.546 255.513 109.834 253.025 103.925C251.785 101.048 250.724 98.1439 249.72 95.2619C249.271 93.8687 248.827 92.483 248.39 91.1047L247.941 91.2396H247.856C248.294 92.6216 248.738 94.0129 249.187 95.4136C250.191 98.3068 251.257 101.228 252.492 104.121C254.985 110.062 257.929 115.804 261.297 121.295C263.015 124.104 264.867 126.874 266.91 129.559C267.864 130.817 268.823 132.076 269.8 133.329L270.305 132.986C267.227 129.173 264.387 125.173 261.803 121.009Z" fill="#0894FF"/>
<path d="M298.444 17.4434C299.118 17.6906 300.128 18.0052 301.413 18.567C305.181 20.1011 308.804 21.9699 312.239 24.1511C317.655 27.6341 322.627 31.7656 327.043 36.4542C332.871 42.6922 337.972 49.5734 342.247 56.965C344.649 61.0436 347 65.4367 349.301 70.0602C351.653 74.8936 353.676 79.8805 355.357 84.9868C357.154 90.4518 358.504 96.0546 359.392 101.739C360.261 107.61 361.176 113.688 360.912 119.935C360.649 126.183 359.139 132.475 356.877 138.604C354.616 144.733 351.265 150.665 346.444 155.457C345.244 156.659 343.951 157.766 342.578 158.766C341.2 159.782 339.737 160.677 338.206 161.44C335.106 163.003 331.761 164.023 328.317 164.457C324.817 164.87 321.275 164.762 317.806 164.137C314.285 163.503 310.833 162.534 307.496 161.244C305.813 160.598 304.129 159.918 302.507 159.187L300.055 158.086L297.642 156.929C294.485 155.341 291.457 153.509 288.584 151.452C282.991 147.361 277.951 142.562 273.588 137.177C272.511 135.862 271.448 134.551 270.4 133.244L269.895 133.581C270.939 134.924 272.011 136.267 273.117 137.592C277.502 143.017 282.571 147.851 288.196 151.974C291.097 154.054 294.156 155.904 297.344 157.508L299.797 158.648L302.26 159.772C303.907 160.502 305.577 161.193 307.272 161.845C310.65 163.146 314.143 164.124 317.705 164.766C321.233 165.4 324.836 165.508 328.396 165.086C331.916 164.649 335.333 163.606 338.498 162.002C340.063 161.226 341.556 160.313 342.959 159.272C344.354 158.252 345.668 157.125 346.888 155.901C351.776 151.013 355.115 144.969 357.444 138.817C358.589 135.76 359.526 132.63 360.25 129.447C360.969 126.331 361.39 123.154 361.507 119.958C361.76 113.638 360.834 107.531 359.953 101.655C359.05 95.9354 357.684 90.299 355.867 84.8015C354.172 79.6771 352.128 74.6749 349.75 69.8299C347.427 65.1858 345.058 60.8151 342.645 56.7178C338.331 49.3203 333.187 42.4406 327.313 36.2127C322.859 31.5243 317.845 27.4034 312.385 23.9433C308.924 21.7806 305.272 19.9414 301.475 18.449C300.178 17.9209 299.162 17.6063 298.483 17.376L297.72 17.1288C297.634 17.0995 297.546 17.0752 297.456 17.0558C297.456 17.0558 297.541 17.0951 297.709 17.1569L298.444 17.4434Z" fill="#0894FF"/>
<path d="M260.293 144.272C255.867 138.948 251.937 133.23 248.552 127.188C245.393 121.542 242.616 115.69 240.241 109.672C239.68 108.222 239.119 106.784 238.557 105.357L237.766 103.222C237.519 102.507 237.272 101.799 237.025 101.099L236.296 98.9922C236.172 98.6439 236.054 98.2956 235.931 97.9529C235.807 97.6102 235.723 97.2506 235.617 96.9023C235.196 95.5035 234.786 94.1215 234.376 92.7564C231.726 83.2627 230.264 73.4765 230.021 63.6222C229.909 64.0211 229.802 64.4199 229.69 64.8244C229.999 74.3099 231.429 83.7254 233.95 92.8743C234.354 94.2451 234.769 95.6327 235.184 97.0372C235.291 97.3855 235.392 97.7394 235.499 98.0933L235.858 99.1382C236.099 99.8405 236.346 100.543 236.587 101.251L237.328 103.385L238.114 105.526C238.675 106.958 239.203 108.396 239.798 109.851C242.165 115.898 244.94 121.776 248.104 127.447C251.498 133.528 255.443 139.284 259.889 144.643C264.598 150.319 269.928 155.45 275.777 159.94C276.338 160.367 276.899 160.777 277.46 161.187C278.364 161.524 279.11 161.822 279.705 162.075C278.476 161.232 277.264 160.39 276.091 159.48C270.274 155.018 264.974 149.917 260.293 144.272Z" fill="#0894FF"/>
<path d="M373.731 109.177C373.469 105.098 372.952 101.04 372.182 97.026C371.449 93.0877 370.487 89.1954 369.303 85.3689C368.146 81.5769 366.811 77.8859 365.34 74.3018C363.87 70.7176 362.259 67.2401 360.649 63.8188C359.038 60.3976 357.382 57.0774 355.643 53.8022C354.745 52.1899 353.875 50.5776 352.926 49.027C351.978 47.4765 351.041 45.9316 350.081 44.4204C346.311 38.5648 341.989 33.0848 337.173 28.0556C332.701 23.3467 327.755 19.1128 322.413 15.421C317.463 12.0557 312.3 9.01389 306.958 6.31451C304.452 5.07435 301.877 3.97894 299.247 3.03368C296.742 2.15495 294.18 1.44551 291.58 0.910133C286.799 -0.00850407 281.908 -0.209204 277.068 0.31464C274.887 0.579827 272.726 0.994651 270.602 1.55618C269.581 1.81461 268.582 2.11797 267.611 2.40448C266.64 2.69099 265.697 3.01121 264.805 3.37637C261.467 4.59716 258.255 6.13799 255.214 7.97739C254.872 8.18525 254.524 8.37064 254.204 8.58412L253.238 9.21332L251.42 10.4436C250.298 11.3312 249.237 12.129 248.305 12.9211L245.791 15.2188L243.844 17.2693C243.558 17.5783 243.283 17.8311 243.041 18.1457L242.401 18.9603L241.431 20.2243C241.167 20.567 240.97 20.8254 240.836 20.994C240.701 21.1625 240.645 21.2636 240.645 21.2636L240.864 21.0164L241.481 20.2636L242.497 19.0165L243.148 18.2019C243.384 17.921 243.67 17.6401 243.956 17.3367L245.903 15.3031L248.429 13.0559C249.361 12.2638 250.438 11.4885 251.544 10.6178L253.384 9.39309L254.338 8.75827C254.658 8.54479 255.012 8.36502 255.354 8.15716C258.382 6.34412 261.577 4.82776 264.895 3.62917C265.793 3.26963 266.752 3.00559 267.701 2.67414C268.649 2.34268 269.66 2.11235 270.675 1.8427C272.785 1.29196 274.93 0.888374 277.096 0.634857C281.901 0.129415 286.755 0.345275 291.496 1.27529C294.077 1.80949 296.618 2.52089 299.101 3.40446C301.708 4.35889 304.258 5.46179 306.739 6.70776C312.054 9.41305 317.19 12.4567 322.116 15.8199C327.433 19.4997 332.355 23.7206 336.803 28.4151C341.581 33.4242 345.87 38.8797 349.61 44.7069C350.569 46.2125 351.546 47.7237 352.416 49.2967C353.286 50.8697 354.223 52.4539 355.11 54.0606C356.844 57.2965 358.477 60.6335 360.093 64.0548C361.709 67.4761 363.303 70.9367 364.762 74.5096C366.222 78.0826 367.568 81.7566 368.691 85.5318C369.867 89.338 370.821 93.2097 371.547 97.1271C372.309 101.117 372.821 105.151 373.08 109.205C373.259 111.25 373.248 113.306 373.315 115.385C373.315 116.419 373.276 117.452 373.259 118.492C373.242 119.531 373.214 120.57 373.152 121.61C373.017 125.806 372.565 129.987 371.8 134.115C371.398 136.202 370.881 138.265 370.251 140.295C369.62 142.337 368.87 144.34 368.006 146.295C366.275 150.247 364.186 154.032 361.765 157.603C359.341 161.168 356.536 164.457 353.398 167.412C350.291 170.313 346.787 172.757 342.993 174.67C339.25 176.547 335.235 177.819 331.095 178.44C329.05 178.734 326.988 178.892 324.922 178.912C322.872 178.91 320.824 178.786 318.788 178.541C310.662 177.541 303.012 174.738 295.924 171.328C294.151 170.474 292.405 169.575 290.682 168.654C288.96 167.732 287.259 166.8 285.592 165.845C284.318 165.097 283.067 164.317 281.838 163.519L281.232 163.255C280.373 162.878 280.07 162.749 279.728 162.609L279.004 162.317C279.509 162.671 280.014 163.03 280.536 163.373L280.614 163.418L281.877 164.21C282.354 164.491 282.775 164.772 283.173 165.064C283.877 165.502 284.586 165.931 285.3 166.35C286.984 167.328 288.668 168.266 290.407 169.159C292.147 170.052 293.881 170.985 295.666 171.85C302.788 175.283 310.499 178.12 318.715 179.153C320.774 179.405 322.847 179.532 324.922 179.535C327.018 179.514 329.11 179.353 331.185 179.052C335.387 178.426 339.464 177.137 343.262 175.232C347.123 173.293 350.686 170.809 353.841 167.856C357.017 164.871 359.855 161.546 362.304 157.94C364.747 154.336 366.855 150.515 368.601 146.525C369.467 144.55 370.216 142.526 370.846 140.463C371.483 138.419 372.006 136.341 372.412 134.239C373.191 130.081 373.656 125.871 373.803 121.643C373.865 120.598 373.888 119.554 373.904 118.509C373.921 117.464 373.961 116.424 373.961 115.385C373.904 113.306 373.916 111.234 373.731 109.177Z" fill="#0894FF"/>
<path d="M230.723 49.7517C230.958 47.8248 231.284 45.9933 231.632 44.2574C231.795 43.3867 231.98 42.5721 232.193 41.7294C232.289 41.3193 232.384 40.9092 232.474 40.5103C232.564 40.1114 232.681 39.7238 232.782 39.3418C233.986 34.5874 235.737 29.9891 238.002 25.6399C238.787 24.1567 239.466 23.0669 239.938 22.3478L240.499 21.5388C240.623 21.3591 240.679 21.2635 240.679 21.2635C239.627 22.6157 238.699 24.0597 237.906 25.5781C235.59 29.9153 233.799 34.5131 232.569 39.2744C232.464 39.6489 232.358 40.0422 232.249 40.4541C232.141 40.8661 232.045 41.2706 231.963 41.6676C231.761 42.4878 231.57 43.3529 231.402 44.2069C231.026 45.9428 230.706 47.7798 230.459 49.7124C229.923 53.9039 229.67 58.1269 229.701 62.3525C229.701 62.4424 229.701 62.5323 229.701 62.6222C229.819 62.1728 229.937 61.7289 230.049 61.2907C230.032 57.4341 230.257 53.5801 230.723 49.7517Z" fill="#0894FF"/>
<path d="M294.168 73.695C293.696 73.695 293.225 73.7568 292.753 73.7849H292.596C294.908 73.9195 297.168 74.5275 299.235 75.5713C300.354 76.1208 301.414 76.7814 302.401 77.5432C303.414 78.3071 304.362 79.1546 305.235 80.0768C307.047 81.9398 308.541 84.0882 309.657 86.4363C310.792 88.7755 311.581 91.268 311.997 93.835C312.425 96.3172 312.364 98.8591 311.818 101.318C311.644 101.88 311.509 102.509 311.313 103.088L311.279 103.172C311.515 102.739 311.734 102.307 311.93 101.868C312.093 101.515 312.205 101.149 312.345 100.795C312.486 100.442 312.631 100.093 312.721 99.7281C312.721 99.7281 312.721 99.6719 312.721 99.6438C312.953 97.6793 312.91 95.692 312.592 93.7395C312.173 91.1173 311.375 88.5701 310.224 86.1778C309.078 83.7694 307.544 81.5659 305.684 79.6555C304.786 78.7113 303.812 77.8432 302.771 77.0601C301.753 76.2782 300.661 75.5989 299.51 75.032C298.372 74.4567 297.173 74.0102 295.935 73.7006C295.346 73.6893 294.762 73.6837 294.168 73.695Z" fill="#0894FF"/>
<path d="M309.736 106.34C309.401 106.83 309.037 107.299 308.647 107.745C307.071 109.476 305.271 110.988 303.293 112.239C301.385 113.52 299.46 114.672 297.591 115.79L292.108 119.031C288.589 121.132 285.34 123.138 282.399 125.008C277.427 128.154 273.324 130.89 270.238 133.003L270.406 133.222C273.526 131.166 277.651 128.48 282.635 125.385C285.587 123.542 288.847 121.559 292.377 119.475L297.849 116.256C299.724 115.132 301.66 114.009 303.59 112.711C305.613 111.442 307.457 109.907 309.073 108.149C309.907 107.222 310.602 106.179 311.139 105.054C311.416 104.488 311.66 103.907 311.868 103.312C311.936 103.127 311.986 102.936 312.037 102.75C311.436 104.029 310.67 105.223 309.758 106.301L309.736 106.34Z" fill="#0894FF"/>
<path d="M248.362 91.0935C252.066 89.9699 257.262 88.2171 263.447 85.6217C266.663 84.2678 270.142 82.6779 273.796 80.8072C275.625 79.8746 277.488 78.8522 279.408 77.8185C281.362 76.7446 283.387 75.8061 285.469 75.0095C286.548 74.6134 287.657 74.3035 288.786 74.0826H288.842C289.618 73.7864 290.423 73.5699 291.244 73.4366C291.715 73.3354 292.198 73.3017 292.669 73.2399H292.299C291.085 73.2194 289.873 73.3192 288.679 73.5377C287.518 73.7676 286.376 74.0907 285.267 74.5039C283.162 75.3212 281.118 76.2861 279.15 77.3915C277.23 78.4364 275.384 79.4645 273.566 80.4027C269.934 82.2903 266.477 83.897 263.279 85.2734C257.105 87.9137 251.97 89.7002 248.294 90.8912V90.9586L248.362 91.0935Z" fill="#0894FF"/>
<path d="M270.254 133.003L269.749 133.345L269.918 133.559L270.423 133.222L270.254 133.003Z" fill="#0894FF"/>
<path d="M248.362 91.0935L248.305 90.9193V90.8519L247.857 90.998H247.772V91.0542L247.828 91.2283H247.913L248.362 91.0935Z" fill="#0894FF"/>
<path d="M285.727 75.914C284.966 76.665 284.367 77.5635 283.965 78.5544C283.557 79.5453 283.284 80.5863 283.151 81.6498C283.01 82.7204 282.961 83.8011 283.005 84.8801C283.1 87.0711 283.452 89.2434 284.055 91.3518C284.64 93.4611 285.429 95.5082 286.412 97.4641C287.349 99.374 288.493 101.175 289.824 102.835C291.104 104.457 292.617 105.88 294.314 107.059C295.947 108.195 297.79 108.995 299.735 109.413C301.588 109.847 303.522 109.791 305.347 109.25C307.041 108.689 308.555 107.684 309.73 106.34C310.053 105.84 310.346 105.32 310.606 104.784C310.863 104.269 311.086 103.738 311.273 103.194C310.745 104.18 310.111 105.105 309.382 105.953C308.256 107.236 306.806 108.193 305.184 108.722C303.443 109.23 301.599 109.273 299.836 108.846C297.968 108.437 296.2 107.662 294.633 106.565C292.992 105.414 291.53 104.027 290.295 102.447C288.996 100.819 287.878 99.0543 286.962 97.1832C286.002 95.2616 285.227 93.2525 284.65 91.1833C284.064 89.1216 283.719 86.9988 283.623 84.8576C283.574 83.8145 283.619 82.7691 283.757 81.7341C283.879 80.7244 284.138 79.736 284.526 78.7959C284.891 77.8787 285.441 77.0467 286.142 76.3522C286.851 75.6883 287.674 75.1591 288.572 74.7904C289.459 74.4183 290.386 74.1488 291.334 73.9871C291.749 73.8972 292.175 73.8578 292.591 73.8073C292.484 73.8017 292.377 73.8017 292.271 73.8073C291.118 73.7837 289.966 73.8741 288.831 74.0769C288.668 74.1387 288.499 74.1949 288.337 74.2623C287.374 74.6504 286.49 75.21 285.727 75.914Z" fill="#0894FF"/>
<path d="M288.836 74.0546C289.971 73.8517 291.123 73.7614 292.276 73.7849C292.383 73.7794 292.49 73.7794 292.596 73.7849H292.753C293.225 73.7569 293.696 73.7063 294.168 73.6951C294.762 73.6951 295.346 73.6951 295.935 73.6951C294.863 73.4264 293.767 73.259 292.664 73.1951C292.192 73.2569 291.709 73.2906 291.238 73.3917C290.417 73.5305 289.612 73.7526 288.836 74.0546Z" fill="#0894FF"/>
<path d="M312.345 100.818C312.205 101.172 312.093 101.537 311.93 101.891C311.734 102.329 311.515 102.762 311.279 103.194C311.091 103.738 310.868 104.269 310.611 104.784C310.351 105.32 310.059 105.84 309.736 106.34L309.775 106.301C310.687 105.223 311.453 104.029 312.053 102.75C312.177 102.329 312.295 101.902 312.418 101.481C312.558 100.882 312.667 100.276 312.744 99.6663C312.744 99.6943 312.744 99.7224 312.744 99.7505C312.631 100.116 312.469 100.458 312.345 100.818Z" fill="#0894FF"/>
<path d="M242.721 161.94C237.558 161.176 231.615 158.682 226.177 154.395C223.346 152.13 220.782 149.55 218.533 146.705C216.152 143.614 214.017 140.342 212.147 136.918C208.257 129.924 205.631 122.593 205.014 115.677C204.707 112.413 204.883 109.121 205.536 105.908C206.135 103.116 207.129 100.424 208.487 97.9136C209.627 95.8465 210.995 93.9148 212.567 92.1553C213.753 90.8217 215.038 89.5803 216.412 88.4419C216.872 88.0542 217.293 87.7284 217.68 87.4307L217.169 87.5543L216.255 88.2509C214.85 89.367 213.536 90.5937 212.326 91.9193C210.706 93.6777 209.293 95.6175 208.117 97.7001C206.705 100.238 205.665 102.966 205.03 105.801C204.35 109.063 204.161 112.409 204.469 115.728C205.064 122.756 207.707 130.171 211.63 137.222C213.515 140.676 215.671 143.975 218.079 147.087C220.363 149.963 222.969 152.568 225.846 154.85C231.39 159.171 237.424 161.654 242.682 162.378C245.053 162.716 247.461 162.699 249.826 162.328C250.586 162.206 251.336 162.029 252.071 161.8H252.105C252.492 161.642 252.913 161.513 253.261 161.373C253.614 161.232 253.951 161.053 254.265 160.839C254.439 160.727 254.597 160.598 254.759 160.474C253.185 161.216 251.512 161.729 249.793 161.996C247.445 162.321 245.063 162.302 242.721 161.94Z" fill="#0894FF"/>
<path d="M276.68 160.895C273.951 159.858 271.162 158.984 268.329 158.277C265.686 157.595 262.99 157.133 260.27 156.895L258.716 156.794C258.604 156.968 258.48 157.142 258.357 157.322L260.22 157.468C262.899 157.761 265.556 158.234 268.172 158.884C269.469 159.204 271.433 159.811 275.356 161.019C276.209 161.283 277.46 161.676 279.037 162.288C278.51 161.929 277.993 161.564 277.477 161.165L276.68 160.895Z" fill="#0894FF"/>
<path d="M281.265 163.227L281.872 163.491C281.153 163.03 280.444 162.558 279.745 162.075C279.127 161.822 278.381 161.513 277.5 161.187C278.016 161.564 278.532 161.929 279.06 162.311L279.761 162.581C280.104 162.721 280.407 162.85 281.265 163.227Z" fill="#0894FF"/>
<path d="M255.068 156.732L253.575 156.805C252.627 156.805 251.774 156.957 251.022 157.036C250.646 157.081 250.298 157.114 249.978 157.159L249.108 157.317C248.562 157.38 248.024 157.501 247.503 157.676C247.503 157.8 249.832 157.373 253.592 157.249L255.074 157.216C255.584 157.216 256.118 157.244 256.673 157.255C257.027 157.255 257.391 157.255 257.762 157.289L258.16 156.766C257.655 156.766 257.161 156.727 256.684 156.732C256.207 156.738 255.629 156.716 255.068 156.732Z" fill="#0894FF"/>
<path d="M280.648 163.39L280.569 163.345C281.434 163.921 282.313 164.483 283.207 165.03C282.809 164.749 282.388 164.468 281.911 164.176L280.648 163.39Z" fill="#0894FF"/>
<path d="M215.222 97.1158C214.829 97.8124 214.52 98.3461 214.313 98.7112C214.197 98.8875 214.101 99.0759 214.027 99.273C214.183 99.1235 214.315 98.9511 214.419 98.7618C214.661 98.4191 214.981 97.9023 215.43 97.2281C216.288 95.8799 217.489 93.9024 218.87 91.3968C219.588 90.0878 220.351 88.6272 221.115 87.043H220.554C219.83 88.5429 219.128 89.9305 218.471 91.1889C217.164 93.7282 216.025 95.7282 215.222 97.1158Z" fill="#0894FF"/>
<path d="M221.317 86.7396C223.836 81.6364 226.005 76.3679 227.81 70.9703C228.517 68.8805 229.146 66.8187 229.707 64.8188C229.707 64.0828 229.673 63.3525 229.673 62.6334C228.972 65.2457 228.164 67.976 227.215 70.7737C225.39 76.2171 223.229 81.5419 220.745 86.7172H220.991C221.104 86.7059 221.205 86.7396 221.317 86.7396Z" fill="#0894FF"/>
<path d="M230.038 63.6054C230.038 63.184 230.038 62.7627 230.038 62.3526C230.038 61.9425 230.038 61.6447 230.038 61.2908C229.926 61.729 229.808 62.1728 229.69 62.6222C229.69 63.3413 229.69 64.0717 229.724 64.8076C229.814 64.4031 229.926 64.0043 230.038 63.6054Z" fill="#0894FF"/>
<path d="M169.624 114.902C170.96 113.382 172.407 111.963 173.951 110.655C174.444 110.234 174.95 109.812 175.477 109.43C176.011 109.05 176.574 108.712 177.161 108.419C178.373 107.801 179.624 107.177 180.882 106.514C183.396 105.189 185.972 103.762 188.593 102.279C191.213 100.796 193.739 99.2731 196.214 97.936C198.689 96.599 201.192 95.4529 203.549 94.3294C205.906 93.2058 208.14 92.1272 210.177 91.0036C211.198 90.4418 212.169 89.88 213.084 89.3182C213.963 88.801 214.883 88.3558 215.834 87.9868C216.288 87.8183 216.737 87.6722 217.175 87.5542L218.039 86.9363C217.238 87.0844 216.45 87.2966 215.682 87.5711C214.713 87.9364 213.774 88.3798 212.876 88.8969C211.933 89.4587 210.979 90.0205 209.958 90.5486C207.926 91.644 205.693 92.7058 203.33 93.8069C200.967 94.908 198.476 96.0541 195.956 97.3911C193.436 98.7281 190.938 100.267 188.312 101.734C185.686 103.2 183.126 104.644 180.623 105.97L176.914 107.891C176.298 108.199 175.707 108.554 175.146 108.953C174.585 109.357 174.085 109.784 173.586 110.211C172.896 110.807 172.25 111.413 171.622 112.026C171.1 112.705 170.583 113.43 170.078 114.211C169.915 114.436 169.764 114.666 169.624 114.902Z" fill="#0894FF"/>
<path d="M220.57 87.0598C220.632 86.9419 220.688 86.8239 220.744 86.7059C219.976 86.6958 219.208 86.7503 218.449 86.8688C218.219 87.0317 217.972 87.2227 217.703 87.4306C218.643 87.209 219.604 87.0848 220.57 87.0598Z" fill="#0894FF"/>
<path d="M170.067 114.211C170.572 113.43 171.088 112.705 171.61 112.026C170.903 112.717 170.224 113.419 169.596 114.121C169.27 114.599 168.984 115.104 168.67 115.61C168.434 116.02 168.204 116.441 167.979 116.868C168.496 116.217 169.044 115.561 169.624 114.902C169.764 114.666 169.916 114.436 170.067 114.211Z" fill="#0894FF"/>
<path d="M217.703 87.4306C217.972 87.2227 218.219 87.0317 218.449 86.8688L218.056 86.9362L217.192 87.5542L217.703 87.4306Z" fill="#0894FF"/>
<path d="M220.986 87.0542H221.148L221.317 86.7228C221.205 86.7228 221.104 86.7228 220.991 86.7228H220.744C220.688 86.8408 220.632 86.9587 220.57 87.0767L220.986 87.0542Z" fill="#0894FF"/>
<path d="M237.631 166.013C238.12 166.013 238.63 166.075 239.141 166.103C241.058 166.217 242.982 166.134 244.882 165.856L245.443 165.766C245.166 165.743 244.891 165.703 244.618 165.648C244.353 165.588 244.106 165.521 243.878 165.446C242.324 165.602 240.76 165.629 239.203 165.524C238.709 165.496 238.209 165.429 237.665 165.423C237.403 165.418 237.14 165.429 236.879 165.457C236.963 165.642 237.053 165.833 237.132 166.019C237.283 166.024 237.457 166.007 237.631 166.013Z" fill="#0894FF"/>
<path d="M206.765 181.187C206.739 181.262 206.72 181.339 206.708 181.417C206.898 181.182 207.107 180.962 207.331 180.76C207.861 180.318 208.424 179.918 209.015 179.563C209.621 179.17 210.261 178.777 210.912 178.367C212.225 177.558 213.628 176.732 215.115 175.912C215.862 175.507 216.625 175.097 217.411 174.693L218.612 174.103L219.224 173.811L219.527 173.67L219.684 173.603L219.762 173.569H219.796C219.757 173.445 219.891 173.844 219.712 173.288L219.824 173.558C222.181 172.552 224.628 171.451 227.12 170.243C229.213 169.232 231.217 168.165 233.181 167.243C234.124 166.777 235.116 166.419 236.138 166.176L236.537 166.12C236.464 165.929 236.391 165.732 236.307 165.558L236.021 165.597C234.951 165.842 233.914 166.21 232.928 166.693C230.93 167.62 228.932 168.676 226.845 169.682C224.375 170.889 221.945 171.99 219.6 173.002C217.854 173.783 216.322 174.608 214.812 175.445C213.303 176.282 211.922 177.131 210.609 177.957C209.958 178.372 209.324 178.777 208.718 179.181C208.443 179.367 208.156 179.546 207.893 179.743C207.755 179.963 207.591 180.164 207.404 180.344C207.126 180.569 206.907 180.858 206.765 181.187Z" fill="#0894FF"/>
<path d="M247.25 164.906C246.605 165.052 245.932 165.17 245.241 165.277C245.933 165.347 246.629 165.219 247.25 164.906Z" fill="#0894FF"/>
<path d="M205.44 183.063H205.356C205.356 183.142 205.306 183.221 205.283 183.305H205.682C205.682 183.232 205.733 183.153 205.761 183.075L205.44 183.063Z" fill="#0894FF"/>
<path d="M206.765 181.187C206.909 180.841 207.139 180.538 207.432 180.305C207.619 180.125 207.783 179.923 207.921 179.704C207.602 179.919 207.3 180.158 207.017 180.417C206.724 180.691 206.458 180.994 206.226 181.322C206.175 181.58 206.175 181.845 206.226 182.103C206.363 181.863 206.519 181.634 206.692 181.417C206.708 181.338 206.733 181.261 206.765 181.187Z" fill="#0894FF"/>
<path d="M252.037 161.8C250.546 162.381 249.176 163.234 247.997 164.317C247.877 164.45 247.746 164.572 247.604 164.682V164.833C247.89 164.777 248.165 164.715 248.451 164.67C249.585 163.689 250.88 162.912 252.279 162.373C252.66 162.215 253.031 162.103 253.44 161.94C253.835 161.78 254.211 161.579 254.563 161.339C255.174 160.92 255.739 160.436 256.247 159.895C255.854 160.137 255.41 160.384 254.916 160.631C253.99 161.097 253.027 161.488 252.037 161.8Z" fill="#0894FF"/>
<path d="M255.927 159.418C255.551 159.794 255.15 160.143 254.726 160.463L254.832 160.412C255.482 160.11 256.113 159.77 256.724 159.395C257.31 158.738 257.855 158.046 258.357 157.322L257.796 157.289C257.218 158.037 256.594 158.748 255.927 159.418Z" fill="#0894FF"/>
<path d="M254.726 160.463C254.563 160.586 254.406 160.715 254.232 160.828C253.917 161.042 253.581 161.221 253.227 161.362C252.879 161.502 252.458 161.631 252.071 161.788H252.037C253.035 161.478 254.005 161.087 254.939 160.62C255.433 160.373 255.876 160.126 256.269 159.884L256.342 159.811C256.477 159.671 256.595 159.53 256.724 159.384C256.113 159.759 255.482 160.098 254.832 160.401L254.726 160.463Z" fill="#0894FF"/>
<path d="M258.183 156.766L257.784 157.289L258.346 157.322C258.469 157.143 258.593 156.968 258.705 156.794L258.183 156.766Z" fill="#0894FF"/>
<path d="M245.241 165.277C245.095 165.277 244.961 165.322 244.815 165.345C244.495 165.384 244.175 165.412 243.849 165.446C244.081 165.517 244.328 165.584 244.59 165.648C244.863 165.703 245.138 165.743 245.415 165.766C246.055 165.659 246.684 165.536 247.284 165.395C247.284 165.221 247.284 165.058 247.284 164.906C246.653 165.225 245.944 165.354 245.241 165.277Z" fill="#0894FF"/>
<path d="M247.688 165.3C247.939 165.135 248.174 164.947 248.39 164.738L248.474 164.665C248.199 164.71 247.913 164.772 247.626 164.828C247.643 164.979 247.666 165.137 247.688 165.3Z" fill="#0894FF"/>
<path d="M247.48 165.39C247.419 165.423 247.351 165.44 247.29 165.468C247.228 165.496 247.29 165.642 247.29 165.743C247.34 166.513 247.424 167.429 247.553 168.44C247.682 169.451 247.885 170.569 248.07 171.704C248.159 172.292 248.176 172.888 248.12 173.479L248.435 173.373C248.547 173.204 248.659 173.035 248.76 172.873C248.775 172.452 248.75 172.03 248.687 171.614C248.199 169.092 247.89 166.828 247.677 165.288H247.643C247.591 165.325 247.537 165.359 247.48 165.39Z" fill="#0894FF"/>
<path d="M248.446 173.395L248.132 173.502C248.132 173.631 248.132 173.766 248.087 173.895L248.446 173.395Z" fill="#0894FF"/>
<path d="M247.481 165.39C247.541 165.361 247.599 165.329 247.655 165.294L247.441 165.339L247.284 165.373V165.468C247.351 165.463 247.419 165.446 247.481 165.39Z" fill="#0894FF"/>
<path d="M247.262 164.906H247.335L247.627 164.85V164.698C247.519 164.781 247.404 164.854 247.284 164.918L247.262 164.906Z" fill="#0894FF"/>
<path d="M247.335 164.89H247.262C247.262 165.041 247.262 165.204 247.262 165.378L247.419 165.345L247.633 165.3H247.666C247.666 165.137 247.621 164.979 247.604 164.833L247.335 164.89Z" fill="#0894FF"/>
<path d="M238.406 175.945C238.464 175.798 238.514 175.648 238.557 175.496H238.451C238.434 175.636 238.422 175.794 238.406 175.945Z" fill="#0894FF"/>
<path d="M238.518 174.94L238.703 174.833C238.776 174.357 238.788 173.874 238.737 173.395C238.737 173.53 238.692 173.659 238.67 173.8C238.619 174.148 238.569 174.535 238.518 174.94Z" fill="#0894FF"/>
<path d="M236.924 167.243C237.244 168.463 237.486 169.856 237.772 171.311C238.013 172.614 238.288 173.839 238.097 174.929H238.232C238.299 174.513 238.361 174.114 238.428 173.755C238.496 173.395 238.574 173.035 238.647 172.726C238.574 172.215 238.485 171.704 238.383 171.182C238.097 169.732 237.822 168.345 237.48 167.086C237.368 166.71 237.239 166.361 237.104 166.03C236.919 166.03 236.728 166.064 236.543 166.092C236.691 166.468 236.818 166.853 236.924 167.243Z" fill="#0894FF"/>
<path d="M238.686 174.94V174.833L238.501 174.94H238.686Z" fill="#0894FF"/>
<path d="M237.934 175.58L238.047 175.502L238.08 175.474H237.968L237.934 175.58Z" fill="#0894FF"/>
<path d="M238.232 174.94H238.097C238.08 175.04 238.058 175.14 238.03 175.238L238.204 175.131C238.232 175.058 238.232 174.996 238.232 174.94Z" fill="#0894FF"/>
<path d="M238.08 175.502H238.153C238.153 175.474 238.153 175.457 238.153 175.434L238.08 175.502Z" fill="#0894FF"/>
<path d="M238.451 175.502H238.557C238.56 175.487 238.56 175.472 238.557 175.457C238.597 175.322 238.625 175.187 238.653 175.047L238.479 175.181C238.473 175.283 238.462 175.384 238.451 175.502Z" fill="#0894FF"/>
<path d="M238.232 175.12L238.058 175.226V175.305C238.058 175.361 238.024 175.412 238.013 175.462H238.125L238.204 175.406C238.176 175.316 238.192 175.221 238.232 175.12Z" fill="#0894FF"/>
<path d="M238.518 174.94C238.518 175.013 238.518 175.097 238.518 175.176L238.692 175.041C238.695 175.007 238.695 174.974 238.692 174.94H238.518Z" fill="#0894FF"/>
<path d="M237.109 166.036C237.031 165.833 236.941 165.642 236.857 165.474C236.677 165.474 236.498 165.519 236.296 165.547C236.38 165.727 236.453 165.923 236.526 166.109C236.728 166.069 236.919 166.047 237.109 166.036Z" fill="#0894FF"/>
<path d="M257.313 235.287C257.56 235.708 257.818 236.107 258.071 236.495C258.318 236.846 258.527 237.222 258.693 237.618C258.761 237.781 258.811 237.944 258.862 238.107H258.907C258.998 238.094 259.091 238.094 259.182 238.107C259.214 238.116 259.246 238.127 259.277 238.141C259.221 237.906 259.15 237.675 259.064 237.45C258.894 237.019 258.677 236.609 258.418 236.225C258.177 235.843 257.93 235.45 257.695 235.034C257.459 234.618 257.206 234.141 256.965 233.669C256.886 233.837 256.808 234.012 256.718 234.186C256.898 234.585 257.094 234.944 257.313 235.287Z" fill="#0894FF"/>
<path d="M259.036 238.91C259.057 238.852 259.057 238.789 259.036 238.731H258.997C258.997 238.826 258.997 238.922 259.03 239.011C258.997 238.983 259.03 238.944 259.036 238.91Z" fill="#0894FF"/>
<path d="M247.834 174.221C247.699 174.389 247.553 174.558 247.407 174.721C246.742 175.368 246.128 176.067 245.572 176.811C245.024 177.711 244.711 178.735 244.663 179.788C244.62 180.898 244.676 182.009 244.832 183.108C245.135 185.355 245.584 187.743 245.78 190.271C245.892 191.529 245.875 192.827 245.954 194.175C246.033 195.524 246.184 196.883 246.375 198.265C246.751 201.024 247.25 203.883 247.727 206.759C248.204 209.636 248.698 212.501 249.338 215.22C249.65 216.556 250.051 217.87 250.539 219.152L251.903 222.821C253.216 226.53 254.73 230.164 256.437 233.708C256.527 233.528 256.611 233.354 256.696 233.174C255.225 230.158 253.889 226.545 252.447 222.619C252.009 221.422 251.555 220.197 251.1 218.944C250.625 217.68 250.235 216.385 249.933 215.068C249.31 212.383 248.839 209.546 248.345 206.641C247.851 203.737 247.363 200.906 246.981 198.17C246.79 196.799 246.633 195.451 246.549 194.13C246.465 192.81 246.476 191.496 246.358 190.198C246.145 187.636 245.662 185.237 245.348 183.013C245.186 181.946 245.118 180.867 245.146 179.788C245.176 178.812 245.452 177.859 245.948 177.018C246.481 176.288 247.068 175.598 247.705 174.957L247.929 174.687C247.974 174.507 248.019 174.322 248.047 174.125L247.834 174.221Z" fill="#0894FF"/>
<path d="M256.701 234.219C256.791 234.045 256.87 233.871 256.949 233.703L256.696 233.18C256.612 233.36 256.527 233.534 256.437 233.714L256.701 234.219Z" fill="#0894FF"/>
<path d="M248.048 174.159C248.048 174.075 248.048 173.985 248.087 173.895L247.834 174.221L248.048 174.159Z" fill="#0894FF"/>
<path d="M258.89 238.118H258.845C258.901 238.318 258.946 238.52 258.98 238.725H259.042C259.063 238.783 259.063 238.847 259.042 238.905C259.042 238.938 259.042 238.972 259.042 239C259.042 239.028 259.042 239.186 259.042 239.276C259.16 239.113 259.272 238.95 259.379 238.792C259.357 238.582 259.321 238.374 259.272 238.169C259.241 238.155 259.209 238.144 259.177 238.135C259.082 238.116 258.986 238.11 258.89 238.118Z" fill="#0894FF"/>
<path d="M258.997 239.944C258.997 240.04 258.969 240.13 258.952 240.225L259.362 239.663C259.387 239.383 259.387 239.101 259.362 238.821C259.255 238.978 259.143 239.141 259.025 239.304C259.031 239.518 259.022 239.732 258.997 239.944Z" fill="#0894FF"/>
<path d="M248.76 173.288C248.76 173.159 248.76 173.024 248.76 172.895C248.659 173.058 248.547 173.226 248.434 173.395L248.76 173.288Z" fill="#0894FF"/>
<path d="M248.047 174.159C248.019 174.35 247.974 174.535 247.929 174.721C248.109 174.496 248.289 174.271 248.446 174.047L248.222 174.12C248.165 174.138 248.107 174.151 248.047 174.159Z" fill="#0894FF"/>
<path d="M248.087 173.895C248.087 173.985 248.087 174.075 248.047 174.159C248.107 174.149 248.165 174.134 248.221 174.114L248.446 174.041C248.547 173.901 248.637 173.766 248.726 173.625C248.816 173.485 248.754 173.401 248.76 173.288L248.446 173.395L248.087 173.895Z" fill="#0894FF"/>
<path d="M237.94 182.614C238.075 184.49 238.366 186.518 238.625 188.698C238.883 190.878 239.186 193.192 239.444 195.659C239.702 198.125 239.899 200.715 240.359 203.366C240.819 206.018 241.33 208.754 241.902 211.557C242.442 214.291 243.167 216.984 244.074 219.619C244.972 222.158 245.825 224.602 246.734 226.922C247.564 229.13 248.618 231.248 249.877 233.242C250.483 234.169 251.134 235.012 251.729 235.832C252.331 236.569 252.797 237.408 253.104 238.309C253.136 238.418 253.162 238.529 253.182 238.641H253.289L253.553 238.292V238.197C253.243 237.239 252.764 236.345 252.139 235.557C251.544 234.72 250.91 233.871 250.326 232.961C249.107 230.988 248.089 228.897 247.29 226.72C246.403 224.422 245.556 221.973 244.674 219.416C243.775 216.815 243.053 214.155 242.514 211.456C241.953 208.675 241.442 205.928 240.965 203.293C240.488 200.658 240.325 198.074 240.016 195.619C239.708 193.164 239.427 190.838 239.141 188.659C238.855 186.479 238.54 184.457 238.378 182.608C238.182 180.401 238.191 178.18 238.406 175.974C238.277 176.311 238.125 176.614 237.996 176.901C237.816 178.8 237.797 180.711 237.94 182.614Z" fill="#0894FF"/>
<path d="M253.525 238.607H253.621C253.621 238.5 253.581 238.394 253.553 238.281L253.289 238.63L253.525 238.607Z" fill="#0894FF"/>
<path d="M253.222 239.601C253.329 239.478 253.43 239.349 253.531 239.219H253.239C253.239 239.36 253.233 239.483 253.222 239.601Z" fill="#0894FF"/>
<path d="M253.182 238.63C253.182 238.663 253.182 238.697 253.182 238.731L253.278 238.624L253.182 238.63Z" fill="#0894FF"/>
<path d="M253.547 239.219H253.659V239.062L253.53 239.219H253.547Z" fill="#0894FF"/>
<path d="M253.289 238.624L253.194 238.731C253.22 238.898 253.235 239.067 253.239 239.236H253.531L253.66 239.079C253.655 238.925 253.642 238.771 253.621 238.618H253.525L253.289 238.624Z" fill="#0894FF"/>
<path d="M238.153 175.502C238.092 175.934 238.041 176.4 237.996 176.889C238.125 176.603 238.277 176.299 238.406 175.962C238.406 175.811 238.434 175.653 238.451 175.507L238.153 175.502Z" fill="#0894FF"/>
<path d="M238.232 174.94H238.518C238.569 174.535 238.619 174.148 238.67 173.816C238.67 173.676 238.715 173.547 238.737 173.412V173.367C238.737 173.159 238.676 172.951 238.648 172.749C238.575 173.058 238.501 173.395 238.428 173.777C238.355 174.159 238.299 174.519 238.232 174.94Z" fill="#0894FF"/>
<path d="M238.49 175.176L238.159 175.417C238.159 175.417 238.159 175.457 238.159 175.485H238.456C238.462 175.384 238.473 175.283 238.49 175.176Z" fill="#0894FF"/>
<path d="M238.518 174.94H238.232C238.232 175.002 238.232 175.064 238.204 175.125L238.518 174.94Z" fill="#0894FF"/>
<path d="M238.159 175.417L238.49 175.176C238.49 175.097 238.49 175.013 238.49 174.94L238.176 175.12C238.192 175.221 238.176 175.316 238.159 175.417Z" fill="#0894FF"/>
<defs>
<linearGradient id="paint0_linear_1108_2444" x1="348.961" y1="66.573" x2="208.792" y2="131.742" gradientUnits="userSpaceOnUse">
<stop offset="0.28581" stop-color="#8FCEFF"/>
<stop offset="1" stop-color="#0894FF"/>
</linearGradient>
<linearGradient id="paint1_linear_1108_2444" x1="285.477" y1="97.7528" x2="242.4" y2="115.692" gradientUnits="userSpaceOnUse">
<stop stop-color="#8FCEFF"/>
<stop offset="1" stop-color="#0894FF"/>
</linearGradient>
</defs>
</svg>
