<svg width="535" height="250" viewBox="0 0 535 250" fill="none" xmlns="http://www.w3.org/2000/svg">
<path d="M260.042 70.6938C259.888 72.9689 259.57 75.2301 259.092 77.4601C258.506 80.4256 257.699 83.3438 256.68 86.1908C255.935 88.2742 255.079 90.3167 254.115 92.3095C252.602 95.4417 250.817 98.4361 248.78 101.258C246.693 104.105 244.349 106.757 241.779 109.182C239.304 111.494 236.648 113.606 233.835 115.497C223.518 122.212 211.36 125.57 199.042 125.108C188.879 124.567 179.002 121.57 170.263 116.377C163.907 112.508 158.361 107.454 153.93 101.491C147.337 92.4503 143.443 81.7394 142.697 70.592C142.158 58.5559 145.182 46.6272 151.394 36.2877C154.38 31.4562 158.075 27.0961 162.356 23.3517C167.414 19.0457 173.143 15.5882 179.318 13.115C187.104 9.73173 195.55 8.12105 204.041 8.4004C211.585 8.79209 218.981 10.6378 225.819 13.8352C229.51 15.5708 233.019 17.6693 236.291 20.0995C240.045 22.8489 243.467 26.0229 246.486 29.5578C249.649 33.389 252.309 37.6065 254.4 42.1081C255.481 44.4212 256.414 46.8002 257.192 49.2309C258.015 51.7519 258.674 54.323 259.165 56.9284C259.566 59.1722 259.847 61.4357 260.006 63.7093C260.18 66.0338 260.192 68.3676 260.042 70.6938Z" fill="#85A8FF"/>
<path d="M142.895 73.3199C143.07 78.2662 143.831 83.1746 145.16 87.9438C145.953 90.7677 146.952 93.53 148.149 96.2089C149.924 100.199 152.145 103.977 154.77 107.471C157.638 111.271 160.977 114.694 164.709 117.657C168.591 120.706 172.847 123.251 177.374 125.231C187.377 129.719 198.459 131.269 209.317 129.698C213.382 129.135 217.378 128.16 221.244 126.788C230.969 123.358 239.563 117.338 246.091 109.385C249.241 105.677 251.94 101.611 254.13 97.2711C255.555 94.4744 256.714 91.5515 257.594 88.5404C257.835 87.6601 258.23 86.0885 258.61 84.2551C258.719 83.6949 258.975 82.4144 259.231 80.7483C259.384 79.7442 259.56 78.6092 259.699 77.1105C259.75 76.5721 259.823 75.75 259.859 74.7459C259.859 73.9383 259.859 73.7783 259.911 73.1235C259.911 73.0071 259.911 72.7233 259.911 72.3523C259.911 71.9812 259.911 71.843 259.874 71.6902C259.786 72.505 259.655 73.5746 259.457 74.826C259.107 77.0524 258.644 79.2598 258.069 81.4394C257.294 84.2959 256.317 87.0942 255.146 89.8136C254.13 92.1709 253.202 93.9243 252.814 94.6446C251.248 97.5505 249.439 100.32 247.407 102.924C243.91 107.404 239.751 111.329 235.071 114.565C231.202 117.227 227.032 119.424 222.647 121.113C214.929 124.017 206.711 125.377 198.465 125.115C196.337 124.978 194.217 124.735 192.114 124.387C186.094 123.418 180.25 121.57 174.772 118.901C169.513 116.338 164.69 112.969 160.478 108.919C157.23 105.818 154.354 102.354 151.905 98.5952C150.474 96.3811 149.192 94.0745 148.069 91.6907C145.389 85.8745 143.643 79.6754 142.895 73.3199Z" fill="#638EF6"/>
<path d="M243.38 54.6507C243.523 58.193 243.206 61.7387 242.437 65.2003C240.948 71.6433 238.032 77.6737 233.901 82.8508C227.551 90.643 216.114 98.4933 201.498 98.5369C179.574 98.6024 167.442 81.0756 166.478 79.6205C161.288 71.7593 158.885 62.3971 159.652 53.021C161.384 33.4133 176.702 22.9656 178.587 21.736C185.492 17.1787 193.601 14.7654 201.885 14.8024C222.282 15.0207 234.172 30.5977 235.29 32.111C240.115 38.6894 242.925 46.5176 243.38 54.6507Z" fill="#BF96FA"/>
<path d="M234.844 52.374C236.62 66.0084 228.947 75.9323 227.617 77.5911C226.155 79.4319 217.21 90.1997 202.243 90.4689C184.631 90.7818 174.67 76.3034 173.552 74.6154C169.371 68.436 167.38 61.044 167.896 53.6109C169.145 38.1285 181.386 29.7252 183.118 28.5756C188.748 24.8549 195.361 22.8823 202.119 22.908C218.197 23.2281 227.522 35.5893 228.684 37.1826C231.964 41.6635 234.08 46.8821 234.844 52.374Z" fill="#E7D6FF"/>
<path d="M159.777 62.7706C159.462 65.9646 158.454 79.9337 168.261 92.4986C177.221 103.965 190.302 107.959 199.846 108.425C205.287 108.689 210.726 107.868 215.844 106.009C226.19 102.095 234.617 94.3532 239.368 84.4009C240.952 81.1814 242.06 77.7506 242.657 74.2151C242.993 71.9788 243.191 69.7239 243.249 67.4634C243.358 64.9242 243.322 62.7925 243.249 61.2209C242.774 64.4586 240.157 79.7518 226.228 90.0613C218.792 95.6173 209.713 98.5577 200.416 98.4209C191.98 98.1146 183.823 95.33 176.972 90.4178C167.844 83.7818 161.675 73.8634 159.777 62.7706Z" fill="url(#paint0_linear_2213_17940)"/>
<path d="M160.843 68.5909C160.986 69.1303 161.165 69.6601 161.376 70.1769L161.961 71.7485C163.582 75.8216 165.798 79.6339 168.538 83.062C171.262 86.3134 174.419 89.1797 177.921 91.5817L180.552 93.2259C181.437 93.7571 182.372 94.1645 183.278 94.6374C183.731 94.8557 184.177 95.103 184.638 95.2995L186.048 95.8451L187.451 96.3908C187.91 96.5822 188.381 96.7427 188.862 96.871L191.719 97.664C192.198 97.7999 192.687 97.902 193.181 97.9696L194.642 98.217L196.104 98.4644C196.579 98.5589 197.061 98.5444 197.565 98.5953L200.401 98.7918C204.055 98.8849 207.705 98.491 211.253 97.6204C217.626 96.0271 223.542 92.9865 228.537 88.7369C232.605 85.2418 235.988 81.0259 238.512 76.303C239.569 74.3684 240.466 72.3513 241.194 70.2715C241.56 69.3257 241.794 68.3799 242.071 67.4995C242.349 66.6192 242.532 65.7607 242.678 64.9385C242.919 63.7235 243.094 62.6031 243.219 61.5845C243.219 60.7842 243.219 59.9038 243.219 58.9507C243.069 60.9423 242.78 62.9211 242.356 64.873C242.196 65.6806 241.94 66.5173 241.72 67.405C241.501 68.2926 241.187 69.2093 240.814 70.1478C240.07 72.195 239.163 74.1802 238.103 76.0847C235.532 80.7487 232.115 84.8979 228.025 88.3222C223.077 92.4753 217.236 95.4401 210.954 96.9874C207.463 97.8305 203.875 98.2049 200.284 98.1006L197.492 97.8969C197.032 97.8459 196.557 97.8605 196.089 97.7659L194.693 97.5185L193.283 97.2712C192.809 97.2022 192.34 97.1 191.88 96.9656L189.081 96.1798C188.606 96.0557 188.142 95.8952 187.692 95.6996L186.318 95.1685L184.93 94.6301C184.477 94.4337 184.046 94.1936 183.593 93.9681C182.708 93.5097 181.787 93.1023 180.925 92.5857L178.345 90.9632C174.916 88.5989 171.828 85.7789 169.166 82.5818C166.472 79.2087 164.292 75.4577 162.699 71.4502L162.129 69.915C161.924 69.4064 161.748 68.8865 161.603 68.3581C161.325 67.2958 161.04 66.2263 160.762 65.1568C160.317 62.9815 160.041 60.7753 159.936 58.5579V60.9588C159.936 62.2539 159.936 63.5489 159.9 64.8367L159.988 65.3314C160.265 66.4227 160.558 67.5068 160.843 68.5909Z" fill="#6905F5"/>
<path d="M243.35 55.4227C243.394 55.6701 243.431 55.9029 243.474 56.1503C243.474 55.8302 243.474 55.5537 243.474 55.3354C243.475 55.1085 243.456 54.8821 243.416 54.6587C243.403 54.8865 243.403 55.1148 243.416 55.3427L243.35 55.4227Z" fill="#6905F5"/>
<path d="M159.169 55.6842V55.2477C159.162 55.0771 159.175 54.9063 159.206 54.7384L159.417 53.8799C159.71 52.7522 159.951 51.6026 160.294 50.4895L160.375 50.2494C161.343 44.3561 163.588 38.743 166.952 33.7993C171.546 27.0167 177.999 21.6887 185.544 18.4479C189.041 16.9484 192.73 15.9396 196.506 15.4503C198.314 15.2275 200.135 15.123 201.957 15.1375C202.846 15.1346 203.734 15.1832 204.618 15.283C205.495 15.363 206.379 15.3994 207.234 15.5231C213.635 16.4698 219.735 18.8614 225.065 22.5149C229.435 25.5698 233.209 29.3911 236.203 33.792L237.138 35.2472C237.454 35.7152 237.742 36.201 238.001 36.7023C238.505 37.6699 238.995 38.5939 239.462 39.4888C239.93 40.3837 240.193 41.3004 240.573 42.1444C240.741 42.5737 240.938 42.9811 241.07 43.3958C241.202 43.8105 241.318 44.2179 241.443 44.6108C241.684 45.4038 241.91 46.146 242.13 46.8517C242.349 47.5574 242.415 48.234 242.546 48.8597C242.678 49.4854 242.795 50.0602 242.904 50.584C243.014 51.1079 243.021 51.6026 243.08 52.0392C243.175 52.905 243.255 53.567 243.306 54.0108C243.357 54.4547 243.401 54.6802 243.409 54.6802C243.428 54.4551 243.428 54.2287 243.409 54.0036C243.409 53.5598 243.328 52.8977 243.262 52.0246C243.219 51.5881 243.204 51.0933 243.124 50.5695C243.043 50.0457 242.919 49.4563 242.809 48.8306C242.7 48.2049 242.561 47.521 242.422 46.7935L241.764 44.5308L241.406 43.3012C241.282 42.8792 241.092 42.4718 240.931 42.0353C240.58 41.1767 240.244 40.2673 239.842 39.336L238.381 36.5131C238.121 36.0121 237.833 35.5263 237.518 35.058C237.219 34.5705 236.904 34.0758 236.59 33.6029C233.601 29.1197 229.808 25.2229 225.402 22.1075C220.002 18.334 213.799 15.8539 207.278 14.861C206.408 14.7301 205.516 14.6864 204.618 14.5991C203.72 14.4968 202.817 14.4458 201.914 14.4463C200.058 14.4198 198.202 14.5195 196.36 14.7446C192.514 15.2277 188.755 16.244 185.193 17.764C177.51 21.0527 170.939 26.4728 166.265 33.3773C161.192 40.7875 158.69 49.6451 159.14 58.6017C159.14 58.2234 159.14 57.8742 159.14 57.4595L159.169 55.6842Z" fill="#6905F5"/>
<path d="M171.14 71.1088C173.099 74.9641 175.746 78.4328 178.952 81.3455C182.827 84.9044 187.433 87.5829 192.45 89.1958C195.243 90.1048 198.157 90.5952 201.095 90.651H202.235C202.617 90.68 203.001 90.68 203.383 90.651L205.692 90.4618L208.009 90.0544C208.791 89.9161 209.543 89.6688 210.318 89.4723C216.733 87.504 222.51 83.8791 227.061 78.9664C229.349 76.2703 231.212 73.2429 232.585 69.9883C234.026 66.6559 234.955 63.1265 235.341 59.5188C235.709 55.8997 235.462 52.2447 234.61 48.7073C233.773 45.2805 232.386 42.0106 230.503 39.0235C226.866 33.4031 221.76 28.8756 215.733 25.9275C210.282 23.2339 204.172 22.1436 198.121 22.7844C195.402 23.0974 192.734 23.7476 190.177 24.7198C188.968 25.1632 187.787 25.6783 186.64 26.2622C186.055 26.5095 185.544 26.8733 185.003 27.1643C184.462 27.4554 183.936 27.7609 183.432 28.0956C179.803 30.4614 176.634 33.4612 174.077 36.95L173.274 38.0995C173.004 38.4605 172.76 38.8398 172.543 39.2345L171.278 41.4172C170.621 42.7483 170.048 44.1187 169.561 45.5206C169.349 46.1536 169.145 46.7502 168.955 47.3104C168.764 47.8706 168.699 48.4308 168.582 48.9328C168.465 49.4349 168.363 49.8932 168.268 50.3152C168.173 50.7372 168.165 51.1373 168.114 51.4866C168.041 52.2141 167.975 52.7089 167.939 53.0726C167.921 53.2517 167.921 53.432 167.939 53.611C167.998 53.4391 168.037 53.2609 168.056 53.0799C168.114 52.7258 168.202 52.202 168.319 51.5084C168.377 51.1664 168.421 50.7808 168.501 50.3516C168.582 49.9223 168.728 49.4785 168.852 48.9838C168.976 48.489 169.115 47.9579 169.261 47.3904C169.408 46.8229 169.671 46.2482 169.897 45.6297C170.401 44.2494 170.99 42.9009 171.658 41.5918C172.068 40.9006 172.499 40.1803 172.937 39.4091C173.158 39.0259 173.402 38.6566 173.668 38.3032C173.939 37.9322 174.202 37.5757 174.479 37.1755C177.04 33.767 180.19 30.8401 183.782 28.5321C184.279 28.212 184.813 27.9356 185.332 27.63C185.851 27.3244 186.377 26.997 186.947 26.7496C188.08 26.1883 189.244 25.6904 190.433 25.2581C192.945 24.3228 195.564 23.702 198.23 23.4101C204.15 22.8146 210.119 23.9045 215.441 26.5532C218.311 27.9778 220.974 29.7841 223.355 31.9226C225.868 34.1155 228.051 36.6563 229.838 39.4673C231.669 42.3881 233.021 45.5809 233.842 48.9256C234.676 52.3694 234.923 55.9281 234.573 59.4533C233.831 66.4354 231.034 73.0439 226.534 78.4498C222.089 83.2682 216.445 86.8321 210.172 88.7811C209.441 88.9703 208.71 89.2177 207.921 89.3559L205.663 89.7633L203.412 89.9525C203.041 89.9937 202.667 90.0059 202.294 89.9889H201.176C198.282 89.937 195.412 89.4539 192.662 88.5556C187.723 86.9915 183.182 84.3859 179.347 80.9162C176.164 78.07 173.523 74.6764 171.549 70.8978C170.059 68.0446 169.002 64.9871 168.414 61.8252C168.046 59.8234 167.862 57.7923 167.866 55.7573C167.866 55.0298 167.902 54.5278 167.902 54.1713C167.923 53.9899 167.923 53.8069 167.902 53.6256C167.861 53.8023 167.836 53.9826 167.829 54.164C167.829 54.5205 167.734 55.0516 167.712 55.7573C167.641 57.8076 167.776 59.8597 168.114 61.8834C168.645 65.094 169.665 68.205 171.14 71.1088Z" fill="#6905F5"/>
<path d="M243.489 57.3136C243.482 58.734 243.392 60.1527 243.219 61.5626C243.219 62.7631 243.219 63.7962 243.219 64.6329V66.6991V67.223C243.208 67.2831 243.208 67.3447 243.219 67.4049C243.228 67.3446 243.228 67.2833 243.219 67.223V66.6991C243.219 66.2335 243.263 65.5423 243.299 64.6329C243.343 62.8067 243.46 60.1657 243.497 56.6734C243.497 56.4988 243.438 56.3096 243.409 56.135C243.489 56.4697 243.497 56.8626 243.489 57.3136Z" fill="#6905F5"/>
<path d="M159.045 67.9801C159.125 70.3098 159.399 72.6289 159.864 74.9137C160.326 77.1634 160.954 79.3762 161.742 81.5345L162.363 83.1205C162.568 83.6516 162.823 84.1609 163.05 84.6775C163.496 85.7179 164.058 86.6928 164.577 87.6823C168.856 95.2447 175.424 101.269 183.344 104.896C190.016 107.971 197.372 109.276 204.7 108.683C212.027 108.09 219.076 105.62 225.161 101.513C225.826 101.106 226.41 100.604 227.024 100.16C227.638 99.7161 228.223 99.2359 228.786 98.7557C229.871 97.8097 230.906 96.8067 231.884 95.7509C233.684 93.8214 235.305 91.7346 236.729 89.5158C239.009 85.9636 240.734 82.0877 241.845 78.0203C242.54 75.4558 242.976 72.8283 243.146 70.1773C243.204 69.2678 243.219 68.5767 243.219 68.1037V67.5726C243.228 67.5148 243.228 67.4558 243.219 67.398C243.182 67.6388 243.162 67.882 243.16 68.1256C243.16 68.5912 243.095 69.2824 243.014 70.1846C242.411 77.0011 240.127 83.5639 236.364 89.2902C234.94 91.4737 233.324 93.5262 231.533 95.4235C230.555 96.4442 229.526 97.4155 228.449 98.3337C227.894 98.8067 227.317 99.2723 226.703 99.7088C226.089 100.145 225.512 100.633 224.861 101.033C218.85 105.041 211.903 107.439 204.689 107.996C197.476 108.553 190.241 107.25 183.681 104.212C175.92 100.635 169.488 94.7135 165.301 87.2894C164.789 86.3145 164.234 85.3614 163.839 84.3355C163.613 83.8262 163.364 83.3315 163.16 82.8149L162.56 81.2507C161.786 79.1335 161.17 76.9618 160.719 74.7536C160.264 72.5119 159.995 70.2366 159.915 67.951C159.915 66.9178 159.915 65.8774 159.915 64.8297C159.51 62.7659 159.265 60.674 159.184 58.5728V60.9446C159.104 63.3164 159.045 65.6373 159.045 67.9801Z" fill="#6905F5"/>
<path d="M243.321 57.3068C243.321 57.787 243.277 58.3327 243.233 58.9294C243.233 59.8826 243.233 60.763 243.233 61.5634C243.407 60.1534 243.497 58.7345 243.504 57.3141C243.504 56.863 243.504 56.47 243.504 56.1353C243.504 55.8006 243.424 55.6697 243.38 55.4077C243.343 55.8734 243.365 56.4991 243.321 57.3068Z" fill="#6905F5"/>
<path d="M159.929 60.9592V58.5583C159.769 55.7865 159.911 53.0055 160.353 50.2642L160.273 50.5042C159.929 51.6174 159.688 52.7669 159.396 53.8947L159.184 54.7532C159.153 54.9211 159.141 55.0919 159.148 55.2625V55.699V57.4524C159.148 57.8307 159.148 58.2164 159.148 58.5947C159.229 60.696 159.473 62.7879 159.878 64.8517C159.908 63.5493 159.922 62.2543 159.929 60.9592Z" fill="#6905F5"/>
<path d="M259.932 71.7487C259.866 72.3671 259.757 73.2984 259.574 74.4989C259.032 78.0183 258.186 81.4846 257.046 84.8593C256.856 85.405 256.658 85.9652 256.461 86.5472C256.264 87.1293 256.008 87.6968 255.774 88.2934C255.321 89.5011 254.736 90.7161 254.152 91.9966C253.867 92.6442 253.516 93.2771 253.172 93.9247C252.829 94.5722 252.478 95.2415 252.105 95.9036C251.733 96.5657 251.294 97.2205 250.885 97.8971L250.249 98.923L249.518 99.927L248.057 101.979L246.42 103.994L245.587 105.02C245.294 105.362 244.973 105.675 244.666 106.009L242.773 108.025C239.953 110.781 236.877 113.266 233.587 115.446C229.934 117.804 226.033 119.756 221.952 121.266C217.526 122.888 212.925 123.991 208.243 124.555C205.777 124.856 203.294 125 200.81 124.984C198.248 124.944 195.691 124.726 193.159 124.329C187.863 123.533 182.688 122.081 177.754 120.008C172.562 117.819 167.725 114.877 163.401 111.277C162.319 110.338 161.274 109.349 160.2 108.367C159.125 107.384 158.212 106.257 157.203 105.195C156.699 104.664 156.226 104.105 155.786 103.521L154.404 101.79L153.125 99.9779C152.914 99.6723 152.694 99.3813 152.49 99.0685L151.905 98.1227C150.289 95.5892 148.886 92.927 147.71 90.1632C146.503 87.3652 145.526 84.4747 144.787 81.5198C143.816 77.7796 143.213 73.9539 142.989 70.0972C142.945 71.7269 142.989 73.3566 143.07 74.9718C143.39 77.2081 143.832 79.4255 144.392 81.6144C145.147 84.5994 146.142 87.519 147.367 90.3451C148.557 93.1213 149.969 95.7977 151.591 98.3482L152.19 99.3013C152.395 99.6142 152.614 99.9124 152.826 100.218L154.119 102.044L155.501 103.783C155.968 104.358 156.414 104.947 156.962 105.471C157.978 106.533 158.935 107.654 159.98 108.665C161.025 109.676 162.122 110.637 163.211 111.575C167.569 115.18 172.441 118.122 177.666 120.306C182.63 122.397 187.837 123.863 193.166 124.671C195.716 125.062 198.289 125.278 200.869 125.319C203.365 125.33 205.86 125.182 208.338 124.875C213.046 124.301 217.672 123.183 222.12 121.543C226.221 120.022 230.142 118.058 233.813 115.686C237.116 113.489 240.202 110.985 243.029 108.207L244.922 106.177C245.228 105.842 245.55 105.522 245.842 105.18C246.135 104.838 246.405 104.489 246.683 104.147L248.32 102.117L249.781 100.051L250.512 99.0467L251.141 98.0135L252.361 96.0127C252.734 95.3434 253.092 94.6668 253.421 94.0192C253.75 93.3717 254.152 92.7315 254.4 92.0839C254.985 90.7962 255.562 89.5739 256.008 88.3589C256.242 87.7623 256.483 87.1802 256.695 86.6054C256.907 86.0307 257.082 85.4559 257.265 84.903C258.397 81.5204 259.221 78.0432 259.728 74.5134C259.888 73.3784 259.983 72.5054 260.034 71.887V71.4868C259.954 71.5668 259.947 71.6469 259.932 71.7487Z" fill="#6905F5"/>
<path d="M143.004 64.4076C143.004 63.9493 143.055 63.4909 143.091 63.0398C143.984 50.6994 148.732 38.9462 156.67 29.4267C160.454 24.9548 164.923 21.1049 169.912 18.0186C174.695 15.0803 179.858 12.8039 185.259 11.2523C190.409 9.75633 195.721 8.87945 201.081 8.6404C206.132 8.50201 211.176 9.11007 216.047 10.4447C224.824 12.8203 232.947 17.1434 239.806 23.0897C242.832 25.629 245.556 28.5045 247.925 31.6603C249.116 33.1154 250.052 34.6578 251.046 36.1129C251.513 36.8405 251.922 37.619 252.354 38.3538L252.982 39.4524C253.187 39.8162 253.355 40.18 253.545 40.5583C253.903 41.2859 254.276 42.0134 254.612 42.741C254.948 43.4685 255.226 44.1961 255.525 44.9237C255.672 45.2826 255.818 45.6318 255.964 45.9713C256.11 46.3109 256.234 46.6601 256.337 47.019C256.585 47.7466 256.819 48.3941 257.067 49.0562C257.85 51.5044 258.485 53.9971 258.967 56.5209C259.65 60.0153 260.027 63.5622 260.093 67.1214C260.093 68.3437 260.093 69.3041 260.093 69.9007C260.093 70.068 260.093 70.2135 260.093 70.3372C260.093 70.4609 260.093 70.5628 260.093 70.6719C260.129 70.2572 260.21 69.064 260.195 67.1214C260.164 63.5544 259.814 59.9971 259.15 56.4918C258.671 53.9596 258.044 51.4574 257.272 48.998C257.038 48.3286 256.797 47.652 256.541 46.9535L256.168 45.8986L255.73 44.8509C255.438 44.1233 255.138 43.3958 254.831 42.6682L253.757 40.4856C253.574 40.1218 253.406 39.758 253.201 39.3724L252.573 38.2665C252.142 37.539 251.732 36.7605 251.265 36.0111C250.278 34.556 249.335 32.9845 248.152 31.5293C245.776 28.357 243.044 25.4645 240.01 22.9078C233.124 16.8911 224.956 12.5102 216.121 10.0955C211.223 8.73633 206.149 8.11104 201.066 8.24024C195.685 8.48828 190.352 9.36991 185.178 10.8667C179.736 12.4268 174.531 14.7152 169.707 17.6694C164.68 20.7733 160.176 24.6479 156.363 29.1502C148.37 38.7302 143.589 50.5601 142.69 62.9816C142.482 65.3526 142.445 67.7355 142.58 70.1117C142.624 68.5838 142.719 67.0487 142.872 65.5208C142.909 65.157 142.967 64.786 143.004 64.4076Z" fill="#6905F5"/>
<path d="M259.275 80.7631C259.077 81.9708 258.814 83.4696 258.427 85.223C257.991 87.2451 257.427 89.2377 256.739 91.189C254.828 96.5359 252.091 101.553 248.627 106.06C246.494 108.896 244.154 111.571 241.626 114.063C240.274 115.373 238.849 116.683 237.307 117.934C236.576 118.574 235.699 119.105 234.866 119.702L233.587 120.56L232.271 121.412C224.464 126.164 215.661 129.059 206.547 129.873C204.058 130.109 201.555 130.177 199.056 130.077C196.478 129.962 193.91 129.681 191.368 129.233C188.748 128.782 186.163 128.153 183.629 127.349C182.986 127.167 182.343 126.948 181.707 126.708C181.071 126.468 180.428 126.264 179.793 126.017C178.536 125.486 177.249 124.999 176.014 124.373C173.484 123.181 171.042 121.812 168.706 120.277L166.974 119.04C166.404 118.618 165.798 118.24 165.257 117.767C164.168 116.85 162.999 115.999 161.976 114.98C157.615 111.013 153.915 106.381 151.014 101.258C149.501 98.6396 148.201 95.905 147.126 93.0806C146 90.2297 145.099 87.2961 144.429 84.3063C143.745 81.265 143.295 78.176 143.084 75.0663C142.851 73.4512 142.682 71.8287 142.595 70.199C142.551 71.8433 142.595 73.4875 142.675 75.1245C142.891 78.2538 143.345 81.3621 144.034 84.4227C144.698 87.441 145.594 90.4038 146.716 93.2844C147.804 96.1275 149.113 98.8813 150.634 101.52C153.571 106.681 157.31 111.347 161.713 115.344C162.75 116.362 163.905 117.221 165.023 118.145C165.564 118.618 166.17 119.003 166.748 119.425L168.494 120.662C170.848 122.184 173.308 123.538 175.854 124.715C177.096 125.341 178.389 125.828 179.654 126.359C180.297 126.614 180.947 126.825 181.583 127.087C182.219 127.349 182.869 127.538 183.52 127.727C186.07 128.531 188.673 129.161 191.31 129.611C193.866 130.059 196.449 130.341 199.042 130.455C201.555 130.548 204.072 130.475 206.576 130.237C215.75 129.398 224.605 126.458 232.447 121.645L233.777 120.83L235.048 119.942C235.874 119.345 236.737 118.8 237.504 118.152C239.046 116.886 240.478 115.569 241.83 114.253C244.36 111.761 246.7 109.086 248.831 106.249C252.293 101.717 255.018 96.6721 256.907 91.2981C257.592 89.3408 258.146 87.3405 258.566 85.3103C258.938 83.5496 259.194 82.0509 259.377 80.8286C259.56 79.6063 259.662 78.6823 259.728 78.0566C259.793 77.4309 259.808 77.1035 259.808 77.1035C259.808 77.1035 259.764 77.4236 259.691 78.0493C259.618 78.675 259.465 79.5481 259.275 80.7631Z" fill="#6905F5"/>
<path d="M260.035 70.8104C260.035 70.8104 260.035 71.1814 259.962 71.8872C259.962 72.3893 259.962 72.8695 259.962 73.2988C259.962 74.5285 259.889 75.4817 259.845 76.0929C259.801 76.7041 259.793 77.0461 259.793 77.0461C259.793 77.0461 259.962 75.7655 260.042 73.3061C260.042 72.5348 260.079 71.6326 260.042 70.6357C260.042 70.7376 260.035 70.8104 260.035 70.8104Z" fill="#6905F5"/>
<path d="M259.961 71.8867C260.02 71.1591 260.034 70.8098 260.034 70.8098C260.034 70.8098 260.034 71.0427 259.961 71.4865V71.8867Z" fill="#6905F5"/>
<path d="M142.967 70.1261C142.861 68.2213 142.861 66.3122 142.967 64.4075C142.923 64.7858 142.872 65.135 142.835 65.5425C142.682 67.0703 142.587 68.6055 142.543 70.1334C142.631 71.7631 142.799 73.3855 143.033 75.0007C142.967 73.3928 142.967 71.7558 142.967 70.1261Z" fill="#6905F5"/>
<path d="M176.139 53.5751C176.125 52.8995 176.321 52.2362 176.701 51.6762C177.092 51.1141 177.627 50.6668 178.251 50.3811C178.958 50.0565 179.73 49.8949 180.509 49.9082C181.264 49.8956 182.013 50.0496 182.701 50.3593C183.302 50.6308 183.81 51.0708 184.163 51.6253C184.509 52.2108 184.684 52.8812 184.667 53.5606H182.08C182.088 53.3743 182.053 53.1886 181.977 53.0182C181.9 52.8478 181.786 52.6973 181.641 52.5784C181.308 52.3217 180.893 52.1926 180.472 52.2146C180.026 52.1911 179.584 52.3082 179.208 52.5493C179.076 52.6505 178.967 52.7773 178.886 52.9219C178.805 53.0665 178.755 53.226 178.738 53.3906C178.721 53.5553 178.737 53.7217 178.787 53.8797C178.836 54.0377 178.917 54.1841 179.025 54.31C179.281 54.5368 179.599 54.6814 179.939 54.7247L181.722 55.0957C182.607 55.218 183.433 55.6064 184.09 56.2089C184.625 56.8071 184.901 57.5917 184.857 58.3916C184.876 59.0974 184.68 59.7923 184.294 60.3851C183.915 60.9834 183.369 61.4587 182.723 61.7529C181.969 62.0759 181.154 62.2346 180.333 62.2185C179.546 62.2268 178.766 62.0681 178.046 61.7529C177.416 61.4913 176.881 61.0447 176.513 60.4727C176.145 59.9008 175.961 59.2306 175.985 58.5516H178.572C178.562 58.7422 178.599 58.9322 178.681 59.1048C178.763 59.2775 178.886 59.4274 179.04 59.5411C179.431 59.8041 179.899 59.9295 180.37 59.8976C180.859 59.923 181.346 59.8094 181.773 59.5702C181.93 59.4815 182.061 59.3523 182.151 59.1961C182.241 59.04 182.287 58.8626 182.285 58.6826C182.304 58.4033 182.215 58.1272 182.036 57.9114C181.801 57.698 181.504 57.5632 181.188 57.5258L179.376 57.162C178.454 57.0268 177.602 56.595 176.95 55.9324C176.387 55.2788 176.096 54.4352 176.139 53.5751Z" fill="#9F62F5" stroke="#6905F5" stroke-width="0.146175"/>
<path d="M191.493 61.9779H188.884L188.927 52.6361L185.478 52.5706V50.1333H194.854V52.5342L191.427 52.6288L191.493 61.9779Z" fill="#9F62F5" stroke="#6905F5" stroke-width="0.146175"/>
<path d="M197.003 61.9785H194.291L198.508 50.1121H201.051L205.283 61.9567H202.513L201.68 59.4612H197.836L197.003 61.9785ZM199.465 54.7757L198.61 57.3076H200.963L200.108 54.7757C200.043 54.572 199.977 54.3683 199.918 54.15C199.862 53.9786 199.818 53.8036 199.787 53.6262C199.759 53.8013 199.717 53.974 199.663 54.1427C199.604 54.3658 199.538 54.5768 199.465 54.7757Z" fill="#9F62F5" stroke="#6905F5" stroke-width="0.146175"/>
<path d="M209.288 61.9781H206.686V50.1116H211.283C212.486 50.0346 213.677 50.391 214.637 51.1157C215.037 51.4685 215.351 51.9074 215.555 52.3991C215.759 52.8908 215.847 53.4223 215.814 53.9531C215.835 54.6458 215.663 55.3308 215.317 55.9321C214.964 56.5012 214.458 56.9601 213.855 57.2563L215.946 61.9635H213.095L211.312 57.8165H209.303L209.288 61.9781ZM209.288 52.4398V55.561H211.268C211.746 55.5908 212.217 55.443 212.591 55.1463C212.754 54.9992 212.881 54.8174 212.963 54.6146C213.045 54.4118 213.081 54.1932 213.066 53.975C213.078 53.7626 213.043 53.5503 212.963 53.353C212.884 53.1556 212.762 52.978 212.606 52.8327C212.227 52.5463 211.757 52.4066 211.283 52.4398H209.288Z" fill="#9F62F5" stroke="#6905F5" stroke-width="0.146175"/>
<path d="M216.669 50.1121H226.023V52.513L222.72 52.6076L222.647 61.9567H220.045L220.155 52.5857L216.655 52.513L216.669 50.1121Z" fill="#9F62F5" stroke="#6905F5" stroke-width="0.146175"/>
<path d="M228.519 149.58C229.003 150.149 229.67 150.533 230.407 150.665C232.551 151.374 234.428 152.469 238.188 154.664C238.678 154.951 239.07 155.19 239.3 155.334C240.448 157.26 241.314 158.832 241.89 159.914C242.493 161.163 243.269 162.322 244.195 163.355C244.702 163.932 245.292 164.43 245.946 164.835C246.612 165.189 247.305 165.492 248.018 165.743C249.206 166.228 249.437 166.299 250.122 166.59C250.455 166.724 251.131 167.015 252.214 167.539C254.438 168.605 257.181 170.071 258.1 170.562C260.985 172.103 263.26 173.21 264.507 173.82C266.807 174.944 268.766 175.839 270.168 176.462C272.194 177.375 273.699 178.02 275.977 178.963C277.507 179.614 278.567 180.051 280.615 180.891C282.662 181.732 284.654 182.556 287.122 183.539C289.38 184.45 290.594 184.931 291.721 185.363C297.533 187.526 303.527 189.167 309.633 190.267C310.981 190.508 312.077 190.698 312.808 190.794C313.56 191.142 314.659 191.662 316.057 192.207C316.579 192.423 317.004 192.601 318.279 193.103C322.32 194.685 322.792 194.828 324.082 195.397C324.348 195.515 325.514 196.041 327.006 196.8C328.951 197.754 330.821 198.856 332.597 200.095C333.925 201.031 333.841 201.112 334.901 201.79C336.132 202.637 337.482 203.297 338.908 203.748C340.379 204.135 341.906 204.267 343.423 204.139C345.391 204.071 347.344 203.766 349.239 203.23C351.571 202.531 353.818 201.573 355.937 200.374C358.273 199.201 360.536 197.889 362.714 196.443C365.613 194.507 367.522 192.836 371.338 189.495C372.29 188.687 373.154 187.783 373.918 186.796C374.705 185.731 375.379 184.586 375.929 183.382C376.725 181.615 377.277 179.75 377.571 177.838C377.92 176.29 378.048 174.702 377.952 173.121C377.852 171.97 377.625 170.834 377.273 169.734C376.942 168.499 376.396 167.331 375.66 166.285C375.127 165.567 374.503 164.92 373.805 164.36C372.978 163.679 372.092 163.074 371.157 162.551C369.82 161.654 368.53 160.688 367.293 159.658C363.086 156.346 359.319 152.744 358.367 151.831C356.641 150.177 354.521 148.052 352.168 145.485L351.434 143.726C350.441 141.297 350.217 140.664 349.684 139.47C349.205 138.384 348.833 137.641 348.293 136.555C347.385 134.751 346.658 133.45 345.861 132.024C345.129 130.707 343.924 128.563 342.215 125.792C340.956 123.749 341.004 123.925 339.65 121.722C338.518 119.987 337.488 118.188 336.565 116.334C336.07 115.274 335.875 114.704 334.858 112.46C334.314 111.286 334.037 110.694 333.733 110.127C332.999 108.778 332.138 107.502 331.163 106.315C329.578 104.404 327.881 102.587 326.081 100.876C322.969 97.8058 322.848 97.9221 321.126 96.0415C320.181 95.0096 319.211 94.003 318.272 92.966C317.477 92.0446 316.601 91.196 315.655 90.4304C315.153 90.0418 314.632 89.6799 314.092 89.3461C313.24 88.7627 312.293 88.3292 311.294 88.0642C310.525 87.8922 309.732 87.8482 308.948 87.9341C307.787 87.9382 306.645 88.2328 305.626 88.7908C304.973 89.1413 304.411 89.6392 303.986 90.2447C303.622 90.9429 303.299 91.6611 303.017 92.3958L302.437 93.7607L302.036 94.6704C301.088 93.0769 300.212 91.7268 299.454 90.6777C298.27 89.0078 297.248 87.7478 296.744 87.1205C296.598 86.9684 296.049 86.2837 294.92 84.9445C294.305 84.1375 293.638 83.3716 292.923 82.652C292.044 81.8322 290.998 81.2107 289.857 80.8295C288.651 80.4515 287.373 80.3613 286.125 80.5661C284.927 80.6779 283.765 81.0329 282.709 81.609C281.653 82.1852 280.726 82.9704 279.985 83.9165C278.735 85.5636 278.181 87.6322 278.442 89.6786C278.534 90.1954 278.841 91.3755 279.096 92.2713C279.351 93.1671 279.526 93.706 279.672 94.1413C275.678 89.5049 273.861 87.2208 273.048 86.0625C272.743 85.6221 272.391 85.2151 271.999 84.8484C271.119 84.0254 270.07 83.4035 268.924 83.0257C267.337 82.4591 265.625 82.3337 263.97 82.6629C259.759 83.555 257.767 87.3154 257.348 88.1011C256.59 89.5632 256.154 91.1695 256.069 92.812C255.978 93.7875 256.07 94.771 256.34 95.712C256.687 96.7096 257.174 97.6531 257.785 98.5147C258.465 99.5882 258.533 99.5431 259.139 100.476C260.12 101.988 260.147 102.447 261.624 105.157C261.988 105.818 262.207 106.193 262.442 106.563C263.083 107.548 263.831 108.458 264.674 109.277C265.255 110.019 266.008 110.609 266.869 110.996C267.178 111.131 267.499 111.239 267.828 111.318C268.667 112.125 269.391 113.042 269.981 114.046C270.155 114.474 270.4 114.871 270.706 115.218C270.984 115.469 271.222 115.762 271.411 116.086C271.471 116.196 271.524 116.311 271.569 116.428C270.995 116.813 270.343 117.063 269.659 117.161C269.27 117.214 268.877 117.218 268.487 117.176C267.798 116.525 266.72 115.491 265.415 114.189C263.912 112.684 263.65 112.36 261.618 110.252C261.138 109.754 260.051 108.627 257.835 106.413C256.44 104.966 255.787 104.341 254.95 103.357C254.456 102.771 254.23 102.473 253.654 101.835C253.654 101.835 252.579 100.646 251.418 99.579C250.104 98.4591 248.71 97.4353 247.248 96.5156C245.091 94.9096 243.029 93.1815 241.071 91.3399C240.712 90.9676 239.403 89.8415 237.757 88.2611C235.434 86.0297 233.705 84.2057 232.988 83.4406C230.966 81.3434 229.951 80.2175 228.959 79.0198C228.121 77.9525 227.197 76.9554 226.196 76.0386C225.442 75.3341 224.611 74.716 223.719 74.1959C222.641 73.4488 221.385 72.9978 220.075 72.8884C218.612 72.8872 217.191 73.3911 216.055 74.3146C214.569 75.5584 213.621 77.326 213.409 79.2479C213.074 81.7506 214.072 83.6592 215.289 86.0148C216.297 87.9545 217.601 89.5596 220.16 92.6968C221.227 94.004 222.281 95.2439 223.734 96.8981C226.363 99.8872 227.773 101.35 230.642 104.462C231.965 105.897 234.626 108.794 237.699 112.255C241.121 116.108 241.108 116.232 244.449 119.991C246.573 122.384 246.549 122.306 250.981 127.239C255.927 132.737 256.658 133.611 257.513 134.708C259.481 137.211 260.889 139.261 262.276 141.373C264.947 145.331 264.733 145.446 266.606 148.23C267.287 149.222 267.881 150.27 268.38 151.364C268.701 152.065 268.902 152.62 269.038 153.014C266.841 152.418 265.133 151.877 263.974 151.495C262.734 151.09 261.475 150.749 260.2 150.474C259.485 150.31 258.755 150.219 258.022 150.202C257.435 150.192 256.849 150.231 256.269 150.32C255.983 149.819 255.658 149.341 255.297 148.891C254.763 148.211 253.296 146.5 249.585 144.702C246.799 143.354 243.815 142.46 240.744 142.054C237.644 141.637 235.734 141.381 233.383 142.224C232.853 142.421 229.007 143.891 228.242 146.979C228.107 147.408 228.062 147.861 228.11 148.309C228.157 148.756 228.297 149.189 228.519 149.58Z" fill="#FEC1A7"/>
<path d="M308.37 189.925C305.444 189.351 302.353 188.543 299.13 187.599C292.667 185.777 285.877 182.846 278.714 179.94C271.954 177.228 265.337 174.175 258.89 170.792C256.115 169.229 253.259 167.812 250.335 166.547C249.619 166.225 248.958 165.981 248.282 165.722C247.621 165.498 246.976 165.23 246.352 164.919C245.215 164.261 244.242 163.356 243.504 162.271C242.086 160.19 241.023 158.141 240.027 156.392L239.758 155.913C239.636 155.788 239.478 155.687 239.331 155.576L239.828 156.502C240.809 158.266 241.846 160.309 243.269 162.437C244.021 163.565 245.02 164.508 246.191 165.194C246.829 165.517 247.489 165.794 248.167 166.023C248.838 166.288 249.514 166.558 250.199 166.859C253.108 168.132 255.948 169.553 258.708 171.119C265.161 174.528 271.788 177.602 278.561 180.328C285.739 183.251 292.551 186.171 299.055 187.984C302.283 188.923 305.385 189.721 308.353 190.264C310.009 190.583 311.599 190.823 313.139 191.021L312.172 190.576C310.916 190.388 309.661 190.18 308.37 189.925Z" fill="#6905F5"/>
<path d="M237.482 154.048C237.41 154.133 237.328 154.211 237.24 154.281L237.373 154.355C237.975 154.652 238.553 154.995 239.102 155.381C239.178 155.459 239.254 155.538 239.361 155.586L239.048 154.999C238.546 154.651 238.023 154.334 237.482 154.048Z" fill="#6905F5"/>
<path d="M228.406 147.506C228.415 147.418 228.429 147.331 228.448 147.244C228.682 145.384 230.207 144.031 231.888 143.103C233.584 142.239 235.47 141.818 237.371 141.879C239.153 141.917 240.926 142.148 242.659 142.567C244.237 142.906 245.792 143.345 247.314 143.883C248.636 144.364 249.915 144.957 251.134 145.657C252.937 146.61 254.502 147.953 255.716 149.588C255.886 149.828 256.037 150.047 256.167 150.245L256.302 150.217C256.172 149.998 256.022 149.758 255.841 149.498C254.663 147.796 253.098 146.396 251.274 145.412C250.058 144.678 248.778 144.055 247.45 143.55C245.917 142.996 244.351 142.541 242.759 142.188C241.002 141.751 239.201 141.509 237.389 141.467C235.42 141.397 233.465 141.831 231.71 142.729C230.824 143.197 230.022 143.807 229.334 144.535C228.987 144.895 228.701 145.31 228.488 145.762C228.292 146.212 228.152 146.686 228.072 147.171C228.007 147.525 227.984 147.886 228.004 148.246C228.106 147.983 228.241 147.735 228.406 147.506Z" fill="#6905F5"/>
<path d="M231.194 150.777C231 150.691 230.805 150.605 230.585 150.524C230.365 150.442 230.17 150.398 229.97 150.317C229.576 150.175 229.218 149.951 228.92 149.659C228.704 149.405 228.545 149.107 228.452 148.787C228.36 148.467 228.337 148.13 228.385 147.8C228.235 148.003 228.104 148.219 227.995 148.447C228.004 148.509 227.997 148.566 228.006 148.627C228.068 149.122 228.288 149.584 228.635 149.942C228.97 150.274 229.376 150.526 229.823 150.68C230.028 150.766 230.259 150.827 230.449 150.887C230.638 150.947 230.843 151.043 231.032 151.134C232.582 151.837 234.022 152.595 235.371 153.299C235.866 153.561 236.326 153.806 236.791 154.057C236.88 153.981 236.964 153.9 237.043 153.814C236.543 153.547 236.043 153.27 235.512 152.982C234.199 152.274 232.764 151.501 231.194 150.777Z" fill="#6905F5"/>
<path d="M239.389 155.257L239.243 155.105C239.182 155.042 239.09 155.01 239.019 154.957L239.332 155.545C239.458 155.676 239.627 155.767 239.758 155.882L239.389 155.257Z" fill="#6905F5"/>
<path d="M257.187 150.377C258.874 150.389 260.549 150.661 262.152 151.183C263.995 151.696 266.038 152.258 268.141 152.925C268.48 153.034 268.808 153.164 269.13 153.288C269.062 153.112 268.993 152.945 268.919 152.774C268.699 152.693 268.489 152.612 268.268 152.541C266.139 151.869 264.111 151.322 262.247 150.819C260.603 150.303 258.886 150.057 257.162 150.088C256.862 150.124 256.577 150.165 256.291 150.237C256.362 150.311 256.391 150.404 256.436 150.482C256.684 150.432 256.935 150.397 257.187 150.377Z" fill="#6905F5"/>
<path d="M253.046 151.657C252.953 151.721 252.871 151.8 252.803 151.889C252.829 151.916 253.2 151.66 253.925 151.307C254.685 150.936 255.491 150.668 256.322 150.511C256.261 150.448 256.227 150.36 256.166 150.276C255.356 150.462 254.577 150.762 253.851 151.167C253.573 151.315 253.304 151.478 253.046 151.657Z" fill="#6905F5"/>
<path d="M256.327 150.485L256.452 150.467C256.391 150.404 256.362 150.31 256.307 150.222L256.172 150.25C256.232 150.334 256.277 150.412 256.327 150.485Z" fill="#6905F5"/>
<path d="M266.946 148.519C265.932 146.847 264.869 145.072 263.703 143.242C261.173 139.229 258.384 135.384 255.354 131.732C253.638 129.816 251.808 127.928 249.991 125.896C248.174 123.865 246.311 121.786 244.414 119.629C240.641 115.306 236.724 110.717 232.439 106.158C228.155 101.599 223.755 96.8568 219.591 91.7176C217.553 89.1307 215.531 86.5287 214.275 83.5748C213.65 82.1277 213.463 80.5293 213.734 78.9752C213.922 77.4395 214.612 76.0073 215.697 74.9C216.816 73.8721 218.254 73.2581 219.77 73.1606C221.285 73.0284 222.643 73.7742 223.881 74.5848C225.105 75.401 226.243 76.338 227.278 77.3817C228.315 78.405 229.142 79.6306 230.132 80.6994C232.085 82.8623 234.075 84.7889 235.992 86.7142C237.909 88.6395 239.844 90.4569 241.745 92.1655C243.646 93.8742 245.534 95.4744 247.446 96.8999C248.391 97.6279 249.391 98.2333 250.28 98.9243C251.159 99.5949 251.991 100.324 252.77 101.107C253.518 101.883 254.209 102.684 254.869 103.474C255.53 104.263 256.29 104.947 256.967 105.649C258.327 107.06 259.611 108.392 260.809 109.634C263.242 112.084 265.268 114.258 267.046 115.924C267.43 116.322 267.826 116.659 268.186 117L268.397 117.02C268.023 116.632 267.618 116.212 267.157 115.807C265.41 114.122 263.411 111.922 260.973 109.477C259.773 108.233 258.496 106.908 257.141 105.503C256.463 104.801 255.766 104.077 255.048 103.333C254.33 102.588 253.713 101.717 252.944 100.94C252.161 100.141 251.322 99.3975 250.434 98.7158C249.53 98.0092 248.535 97.3987 247.6 96.6812C245.709 95.2561 243.837 93.651 241.941 91.9476C240.045 90.2442 238.136 88.4221 236.214 86.4915C234.291 84.561 232.292 82.6033 230.4 80.4621C229.389 79.4135 228.619 78.1942 227.551 77.1394C226.5 76.0668 225.34 75.1066 224.089 74.2743C223.459 73.8394 222.784 73.4715 222.077 73.1767C221.343 72.8701 220.547 72.7359 219.752 72.7842C218.147 72.8868 216.625 73.5356 215.439 74.6223C214.288 75.7869 213.556 77.2994 213.358 78.922C213.073 80.5427 213.271 82.2102 213.926 83.7179C215.206 86.7495 217.249 89.3622 219.302 91.9648C223.476 97.1248 227.875 101.908 232.176 106.421C236.477 110.934 240.352 115.574 244.146 119.887C246.043 122.044 247.91 124.128 249.738 126.149C251.565 128.171 253.41 130.074 255.106 131.96C258.136 135.594 260.928 139.418 263.468 143.408C264.638 145.232 265.712 146.998 266.731 148.665C267.558 149.986 268.293 151.362 268.929 152.785L269.221 152.898C268.575 151.383 267.815 149.919 266.946 148.519Z" fill="#6905F5"/>
<path d="M272.188 120.741C271.961 120.505 271.622 120.153 271.177 119.692C270.596 119.089 269.785 118.333 268.823 117.398L268.632 117.39C269.656 118.356 270.486 119.154 271.119 119.748C271.591 120.184 271.945 120.52 272.188 120.741Z" fill="#6905F5"/>
<path d="M271.109 157.981C271.718 159.187 272.404 160.352 273.165 161.469C274.221 163.012 275.432 164.445 276.779 165.743C277.241 166.202 277.726 166.635 278.234 167.042C278.234 167.042 278.118 166.922 277.89 166.686C277.663 166.45 277.298 166.134 276.842 165.672C275.529 164.352 274.345 162.909 273.306 161.364C272.561 160.246 271.886 159.083 271.287 157.881C270.612 156.57 270.085 155.057 269.457 153.448C269.443 153.429 269.426 153.411 269.407 153.396L269.115 153.293L269.228 153.547C269.778 155.057 270.406 156.536 271.109 157.981Z" fill="#6905F5"/>
<path d="M269.422 153.391C269.359 153.22 269.28 153.054 269.211 152.887L268.919 152.774C268.993 152.945 269.061 153.112 269.13 153.288L269.422 153.391Z" fill="#6905F5"/>
<path d="M264.396 106.716C263.686 105.812 263.069 104.961 262.593 104.257C261.615 102.823 261.072 101.891 261.019 101.921C261.087 102.172 261.194 102.41 261.335 102.627C261.559 103.069 261.907 103.683 262.367 104.423C262.827 105.163 263.408 106.039 264.107 106.953C264.806 107.867 265.633 108.841 266.474 109.871L267.526 111.152C267.777 111.254 268.023 111.351 268.274 111.443C267.801 110.861 267.307 110.255 266.794 109.624C265.938 108.568 265.111 107.605 264.396 106.716Z" fill="#6905F5"/>
<path d="M271.551 116.01C271.348 115.666 271.107 115.345 270.833 115.054C270.697 114.884 270.585 114.697 270.498 114.497C270.383 114.276 270.256 114.06 270.119 113.851C269.828 113.424 269.518 112.965 269.15 112.52C268.907 112.269 268.686 111.956 268.465 111.684C268.244 111.623 268.019 111.547 267.788 111.465C268.156 111.91 268.508 112.339 268.851 112.747C269.194 113.155 269.54 113.63 269.836 114.042C269.983 114.241 270.118 114.449 270.242 114.662C270.347 114.887 270.485 115.094 270.652 115.278C270.926 115.546 271.173 115.84 271.388 116.157C271.425 116.218 271.456 116.282 271.482 116.349L271.665 116.244C271.634 116.163 271.596 116.085 271.551 116.01Z" fill="#6905F5"/>
<path d="M271.657 117.655C271.657 117.655 271.812 117.405 271.796 116.895C271.791 116.755 271.769 116.617 271.733 116.482C271.689 116.534 271.639 116.582 271.585 116.623C271.616 116.726 271.641 116.829 271.661 116.934C271.709 117.373 271.621 117.649 271.657 117.655Z" fill="#6905F5"/>
<path d="M281.726 96.6506C281.772 96.6978 281.823 96.7502 281.868 96.7974C282.382 97.4304 282.828 98.1152 283.199 98.8408C283.557 99.5067 283.916 100.173 284.275 100.766C284.886 101.777 285.58 102.735 286.349 103.632C286.837 104.196 287.355 104.733 287.901 105.242C288.077 105.425 288.214 105.567 288.332 105.625C288.449 105.684 288.468 105.767 288.468 105.767C288.431 105.712 288.385 105.665 288.332 105.625C288.241 105.531 288.109 105.395 287.932 105.211C287.578 104.844 287.058 104.304 286.479 103.578C285.741 102.666 285.074 101.7 284.483 100.688C284.139 100.099 283.796 99.4492 283.433 98.7575C283.065 98.0117 282.617 97.3076 282.098 96.6573C281.825 96.3742 281.573 96.0605 281.306 95.7518L281.346 95.7937C281.434 96.0632 281.572 96.3542 281.726 96.6506Z" fill="#6905F5"/>
<path d="M280.454 94.7626C280.262 94.5633 280.07 94.3641 279.915 94.1294C280.042 94.4615 280.175 94.768 280.308 95.0641C280.442 95.3603 280.647 95.4155 280.814 95.5885C280.665 95.3178 280.573 95.0121 280.454 94.7626Z" fill="#6905F5"/>
<path d="M266.371 110.575C265.751 110.179 265.197 109.689 264.728 109.123C264.164 108.533 263.64 107.906 263.161 107.245C262.099 105.692 261.167 104.054 260.376 102.347C259.909 101.443 259.396 100.511 258.806 99.5939C258.215 98.6766 257.516 97.8036 256.983 96.8204C256.508 95.7661 256.265 94.6214 256.273 93.4643C256.243 92.2611 256.407 91.0606 256.759 89.9084C257.612 87.508 259.214 85.4424 261.33 84.0157C262.392 83.3001 263.61 82.8504 264.883 82.7047C266.123 82.5898 267.373 82.7299 268.555 83.1164C269.711 83.4342 270.777 84.0141 271.67 84.811C272.476 85.6506 273.23 86.5382 273.928 87.4688C275.956 90.0451 277.927 92.3629 279.733 94.415C279.605 94.1242 279.487 93.8233 279.37 93.5121C277.751 91.6231 276.013 89.5362 274.227 87.2321C273.517 86.2893 272.754 85.3865 271.944 84.5275C271.005 83.6918 269.888 83.0798 268.677 82.7374C267.442 82.3276 266.135 82.1828 264.839 82.3124C263.497 82.4563 262.21 82.9284 261.094 83.6869C258.9 85.167 257.241 87.3118 256.363 89.8033C256.002 90.9994 255.833 92.2449 255.864 93.4929C255.861 94.6971 256.117 95.8874 256.614 96.9837C257.181 98.0242 257.907 98.8616 258.472 99.7836C259.036 100.706 259.57 101.596 260.058 102.481C260.867 104.195 261.819 105.837 262.905 107.39C263.399 108.057 263.94 108.689 264.524 109.279C264.797 109.562 265.06 109.835 265.317 110.102C265.591 110.342 265.887 110.555 266.203 110.736C266.692 111.01 267.204 111.241 267.732 111.429L267.444 111.13C267.076 110.966 266.717 110.781 266.371 110.575Z" fill="#6905F5"/>
<path d="M268.254 111.422C268.012 111.34 267.766 111.243 267.505 111.13L267.794 111.429C268.024 111.511 268.25 111.587 268.471 111.647L268.254 111.422Z" fill="#6905F5"/>
<path d="M280.414 93.6386C280.204 93.0939 280.045 92.7614 279.988 92.7758C279.931 92.7902 279.996 93.152 280.144 93.7265C280.226 94.0777 280.329 94.4237 280.453 94.7623C280.742 95.0612 281.003 95.3853 281.271 95.6941C280.915 94.9046 280.615 94.1729 280.414 93.6386Z" fill="#6905F5"/>
<path d="M281.726 96.6504C281.593 96.3749 281.454 96.0837 281.316 95.772L281.276 95.7301C280.993 95.4365 280.704 95.1376 280.458 94.7982C280.556 95.068 280.669 95.3535 280.792 95.6391C281.1 95.959 281.408 96.2995 281.726 96.6504Z" fill="#6905F5"/>
<path d="M306.616 102.176C307.228 102.906 307.952 103.533 308.762 104.034C309.059 104.211 309.366 104.371 309.682 104.514L310.405 104.759C310.598 104.833 310.797 104.892 311 104.934C310.82 104.831 310.629 104.747 310.432 104.682C310.248 104.607 310.012 104.51 309.736 104.401C309.431 104.251 309.137 104.082 308.853 103.896C308.073 103.384 307.377 102.755 306.79 102.03C306.036 101.057 305.336 100.044 304.694 98.9939C303.888 97.7481 303.113 96.302 302.251 94.7462L302.103 95.171C302.92 96.6076 303.672 97.9657 304.448 99.1492C305.113 100.198 305.837 101.209 306.616 102.176Z" fill="#6905F5"/>
<path d="M279.227 92.103C278.722 90.6984 278.521 89.2027 278.636 87.7136C278.879 86.0234 279.686 84.4629 280.926 83.2838C282.276 81.9532 284.012 81.0814 285.886 80.7929C287.894 80.4798 289.946 80.8721 291.692 81.9027C292.537 82.4837 293.288 83.1885 293.921 83.9933C294.587 84.7781 295.237 85.5574 295.877 86.316C297.152 87.8381 298.345 89.3382 299.393 90.8356C300.316 92.1552 301.172 93.5203 301.957 94.9259L302.106 94.4907C301.398 93.2415 300.61 91.8879 299.702 90.6197C298.654 89.1119 297.461 87.5913 296.187 86.0589C295.541 85.2951 294.891 84.5157 294.226 83.731C293.573 82.891 292.792 82.1589 291.911 81.5615C290.08 80.4808 287.927 80.0702 285.822 80.4003C283.871 80.7063 282.066 81.6224 280.668 83.0164C279.373 84.2581 278.54 85.9018 278.306 87.6768C278.2 89.2112 278.421 90.7499 278.957 92.1908C279.097 92.6724 279.253 93.1183 279.414 93.5591C279.591 93.7426 279.768 93.9261 279.893 94.1086C279.636 93.4524 279.413 92.7829 279.227 92.103Z" fill="#6905F5"/>
<path d="M280.308 95.0641C280.175 94.7679 280.042 94.4615 279.915 94.1293C279.738 93.9458 279.561 93.7623 279.435 93.5797C279.553 93.891 279.67 94.192 279.799 94.483C279.927 94.7739 280.137 94.8652 280.308 95.0641Z" fill="#6905F5"/>
<path d="M302.88 93.0315C303.215 92.1073 303.636 91.2164 304.138 90.3704C304.433 89.9349 304.817 89.5662 305.265 89.2885C305.724 88.9735 306.222 88.7193 306.746 88.5323C307.893 88.1455 309.109 88.0112 310.311 88.1385C311.605 88.3185 312.842 88.7825 313.934 89.4971C315.136 90.2199 316.237 91.0971 317.21 92.1064C318.221 93.155 319.205 94.2804 320.25 95.4172C321.296 96.554 322.382 97.7018 323.546 98.8356C324.71 99.9694 325.933 101.027 327.117 102.223C329.609 104.604 331.788 107.292 333.602 110.222C334.454 111.747 335.003 113.431 335.74 115.005C336.426 116.574 337.2 118.103 338.057 119.585C338.925 121.033 339.874 122.374 340.734 123.74C341.594 125.105 342.423 126.439 343.207 127.756C344.763 130.422 346.229 132.931 347.506 135.37C348.691 137.611 349.76 139.91 350.711 142.259C351.048 143.156 351.382 144.007 351.743 144.802L352.313 145.456C351.859 144.428 351.391 143.312 350.976 142.156C350.043 139.788 348.984 137.471 347.804 135.216C346.532 132.782 345.082 130.237 343.499 127.597C342.714 126.27 341.89 124.925 341.026 123.559C340.166 122.194 339.218 120.843 338.365 119.411C337.523 117.939 336.76 116.424 336.078 114.872C335.346 113.314 334.807 111.63 333.926 110.053C332.092 107.092 329.889 104.376 327.37 101.97C326.212 100.769 325.002 99.6089 323.779 98.572C322.556 97.535 321.517 96.3416 320.476 95.2101C319.436 94.0785 318.453 92.9429 317.416 91.899C316.417 90.8717 315.286 89.9817 314.052 89.252C312.918 88.5209 311.636 88.049 310.296 87.8703C309.052 87.7536 307.796 87.9084 306.616 88.3239C306.069 88.5248 305.549 88.7959 305.072 89.1304C304.604 89.4372 304.207 89.839 303.906 90.3096C303.406 91.1742 302.985 92.0821 302.648 93.0221C302.441 93.5644 302.26 94.0711 302.1 94.5576C302.161 94.6205 302.185 94.7188 302.23 94.7969C302.428 94.1823 302.641 93.6247 302.88 93.0315Z" fill="#6905F5"/>
<path d="M302.083 95.1502L302.232 94.7244C302.171 94.6615 302.142 94.5681 302.102 94.4848L301.954 94.9208L302.083 95.1502Z" fill="#6905F5"/>
<path d="M366.728 193.275C368.269 192.174 369.732 190.968 371.108 189.666C371.861 188.944 372.56 188.168 373.2 187.345C373.036 187.501 372.873 187.658 372.705 187.82C371.427 189.176 370.068 190.453 368.635 191.646C365.644 194.196 362.445 196.494 359.073 198.514C355.734 200.544 352.141 202.123 348.388 203.209C346.597 203.696 344.754 203.96 342.899 203.996C341.127 204.026 339.367 203.709 337.719 203.062C336.18 202.364 334.73 201.485 333.4 200.444C332.052 199.477 330.707 198.577 329.355 197.795C326.843 196.364 324.211 195.151 321.489 194.17C318.532 193.092 315.962 192.035 313.798 191.084L313.103 191.005C315.379 192.051 318.148 193.229 321.386 194.442C324.08 195.429 326.686 196.643 329.174 198.07C330.491 198.826 331.819 199.761 333.178 200.718C334.524 201.782 335.995 202.679 337.558 203.389C339.245 204.059 341.049 204.386 342.866 204.351C344.755 204.319 346.634 204.052 348.458 203.556C351.586 202.676 354.599 201.43 357.435 199.845C359.016 198.771 360.634 197.651 362.295 196.471C363.766 195.473 365.249 194.402 366.728 193.275Z" fill="#6905F5"/>
<path d="M312.831 190.66L312.131 190.565L313.097 191.01L313.793 191.089C313.46 190.944 313.122 190.825 312.831 190.66Z" fill="#6905F5"/>
<path d="M353.865 147.54C355.306 149.034 356.894 150.608 358.605 152.267C360.316 153.926 362.187 155.603 364.186 157.329C366.185 159.055 368.302 160.798 370.688 162.485C372.042 163.323 373.326 164.268 374.528 165.31C375.107 165.875 375.599 166.521 375.991 167.228C376.424 167.928 376.774 168.676 377.035 169.456C378.106 172.608 377.94 176.19 377.081 179.58C376.36 182.412 375.038 185.058 373.204 187.339C373.932 186.59 374.609 185.809 375.26 185.033C376.251 183.355 376.991 181.543 377.456 179.653C378.424 176.266 378.403 172.675 377.394 169.303C377.12 168.498 376.757 167.726 376.311 167.001C375.902 166.268 375.389 165.598 374.787 165.011C373.565 163.953 372.259 162.996 370.881 162.148L370.785 162.291C370.941 161.979 370.818 162.199 370.851 162.127L370.79 162.064L370.699 161.97L370.485 161.812L370.058 161.505C369.773 161.294 369.473 161.057 369.214 160.872L367.573 159.59C366.491 158.731 365.46 157.872 364.455 157.02C362.451 155.309 360.586 153.617 358.864 151.988C357.142 150.36 355.532 148.796 354.102 147.302C353.475 146.652 352.874 146.028 352.35 145.369C352.475 145.653 352.599 145.929 352.72 146.195C353.057 146.66 353.446 147.084 353.865 147.54Z" fill="#6905F5"/>
<path d="M352.099 145.561C352.301 145.771 352.477 146.006 352.679 146.226C352.554 145.962 352.43 145.687 352.309 145.4L351.739 144.745C351.862 145.021 351.985 145.306 352.099 145.561Z" fill="#6905F5"/>
<path d="M373.199 187.344C372.559 188.168 371.86 188.944 371.107 189.666C369.732 190.967 368.268 192.173 366.727 193.275C365.243 194.407 363.771 195.467 362.314 196.502C360.653 197.682 359.035 198.802 357.454 199.875C358.075 199.541 358.686 199.197 359.298 198.842C360.74 197.982 362.122 197.07 363.463 196.136C364.458 195.423 365.459 194.694 366.44 193.965C367.274 193.315 368.093 192.66 368.881 191.984C370.323 190.785 371.689 189.497 372.971 188.128C373.177 187.931 373.372 187.744 373.572 187.552C374.183 186.765 374.741 185.939 375.244 185.079C374.604 185.814 373.937 186.585 373.199 187.344Z" fill="#6905F5"/>
<path d="M269.789 117.348C270.437 117.25 271.053 117.004 271.59 116.629C271.556 116.53 271.517 116.433 271.472 116.338C270.944 116.656 270.362 116.872 269.755 116.977C269.324 117.051 268.884 117.066 268.448 117.02C268.59 117.167 268.721 117.303 268.848 117.434C269.164 117.44 269.479 117.411 269.789 117.348Z" fill="#6905F5"/>
<path d="M268.659 117.364L268.849 117.373C268.723 117.242 268.591 117.106 268.45 116.959L268.239 116.939L268.659 117.364Z" fill="#6905F5"/>
<path d="M271.733 116.482C271.705 116.389 271.671 116.297 271.63 116.207L271.447 116.312C271.492 116.407 271.532 116.504 271.565 116.603C271.625 116.569 271.682 116.528 271.733 116.482Z" fill="#6905F5"/>
<path d="M222.516 74.4518C222.415 74.3469 222.309 74.2368 222.161 74.1672C222.026 74.0795 221.882 74.0077 221.731 73.9533C220.955 73.654 220.119 73.5388 219.29 73.6167C218.46 73.6947 217.66 73.9636 216.952 74.4024C216.157 74.9163 215.535 75.6548 215.163 76.5233C214.632 77.773 214.544 79.1651 214.912 80.4698C215.002 80.8173 215.132 81.1533 215.299 81.471C215.349 81.5881 215.418 81.6957 215.504 81.789C215.332 81.3456 215.186 80.8923 215.068 80.4314C214.768 79.173 214.883 77.8506 215.398 76.6615C215.763 75.8608 216.357 75.1851 217.105 74.7194C217.966 74.1952 218.964 73.9405 219.97 73.9884C220.513 74.0172 221.047 74.1312 221.553 74.3262C222.051 74.5853 222.495 74.9379 222.859 75.3646C223.683 76.2192 224.605 77.0602 225.386 77.9861C225.779 78.4474 226.089 78.9721 226.305 79.5379C226.556 80.0518 226.65 80.6286 226.575 81.1963C226.392 82.3109 225.437 83.0868 224.698 83.877C224.061 84.6747 223.175 85.2371 222.182 85.4747C221.308 85.5794 220.425 85.4008 219.662 84.9654C218.937 84.5917 218.316 84.1683 217.76 83.8131C217.283 83.5227 216.827 83.1977 216.397 82.8405C216.048 82.5184 215.73 82.1643 215.448 81.7828C215.448 81.7828 215.481 81.9122 215.606 82.1256C215.797 82.4331 216.027 82.7143 216.291 82.9623C216.71 83.3454 217.158 83.6946 217.633 84.0065C218.242 84.4435 218.875 84.847 219.528 85.2154C220.342 85.6969 221.29 85.9021 222.232 85.8002C222.76 85.7227 223.262 85.5237 223.7 85.2189C224.146 84.9017 224.561 84.5436 224.94 84.1493C225.34 83.7651 225.746 83.3758 226.122 82.9138C226.542 82.4535 226.827 81.8864 226.945 81.2752C227.04 80.6351 226.94 79.982 226.658 79.4C226.428 78.7945 226.095 78.2328 225.675 77.7389C224.839 76.7553 223.931 75.9301 223.097 75.065C222.957 74.8564 222.744 74.6465 222.516 74.4518Z" fill="#6905F5"/>
<path d="M238.052 153.198C237.962 153.042 237.883 152.886 237.798 152.735C237.663 153.159 237.412 153.536 237.074 153.825L237.446 154.032C237.697 153.793 237.902 153.511 238.052 153.198Z" fill="#6905F5"/>
<path d="M229.584 146.709C229.823 146.562 230.073 146.434 230.331 146.326C230.378 146.28 230.477 146.256 230.487 146.267L230.708 146.296L231.187 146.372C232.719 146.671 234.201 147.181 235.59 147.889C236.385 148.307 237.023 148.968 237.41 149.776C237.852 150.622 238.005 151.589 237.844 152.53L238.123 153.03C238.17 152.9 238.209 152.769 238.24 152.635C238.416 151.636 238.268 150.608 237.817 149.7C237.367 148.793 236.638 148.052 235.736 147.588C234.31 146.875 232.786 146.379 231.213 146.115L230.713 146.049L230.466 146.024C230.371 146.037 230.28 146.067 230.196 146.112C229.933 146.24 229.679 146.384 229.433 146.541C229.043 146.805 228.701 147.133 228.422 147.512L228.39 147.542L228.369 147.835L228.539 147.601C228.838 147.251 229.191 146.95 229.584 146.709Z" fill="#6905F5"/>
<path d="M237.871 152.515C237.851 152.59 237.827 152.663 237.799 152.735C237.883 152.886 237.963 153.042 238.052 153.198L238.15 153.004L237.871 152.504L237.871 152.515Z" fill="#6905F5"/>
<path d="M237.074 153.824C236.995 153.91 236.91 153.991 236.821 154.067L237.215 154.275C237.303 154.206 237.385 154.128 237.458 154.042L237.074 153.824Z" fill="#6905F5"/>
<path d="M228.385 147.799L228.406 147.506C228.243 147.733 228.11 147.98 228.009 148.241L228.011 148.4C228.117 148.189 228.242 147.988 228.385 147.799Z" fill="#6905F5"/>
<defs>
<linearGradient id="paint0_linear_2213_17940" x1="165.012" y1="86.696" x2="241.598" y2="73.2204" gradientUnits="userSpaceOnUse">
<stop offset="0.488806" stop-color="#9F62F5"/>
<stop offset="1" stop-color="#C097FB"/>
</linearGradient>
</defs>
</svg>
