<svg width="456" height="456" viewBox="0 0 456 456" fill="none" xmlns="http://www.w3.org/2000/svg">
<path d="M448.584 154.028C448.584 154.888 448.484 155.778 448.374 156.678C447.994 159.628 443.374 165.858 432.554 170.028C419.604 175.028 403.554 177.128 392.484 168.748C393.324 175.958 385.254 180.618 378.484 183.268C371.294 186.068 363.964 188.898 356.264 189.268C348.564 189.638 340.264 186.968 335.814 180.718C329.474 191.718 313.314 195.648 302.654 188.718C299.353 193.434 294.607 196.948 289.133 198.73C283.659 200.512 277.754 200.465 272.31 198.597C266.865 196.728 262.175 193.14 258.949 188.372C255.722 183.605 254.134 177.917 254.424 172.168C248.424 175.448 239.784 169.828 240.364 162.998C234.484 168.348 224.364 167.098 218.954 161.258C213.544 155.418 212.794 146.258 215.854 138.908C218.015 134.003 221.429 129.754 225.754 126.588C225.607 124.77 225.752 122.94 226.184 121.168C226.62 119.418 227.361 117.76 228.374 116.268C230.448 113.408 233.394 111.297 236.769 110.253C240.144 109.209 243.767 109.288 247.094 110.478C244.454 102.238 250.954 92.4179 259.564 91.6379C267.894 90.8779 275.794 98.7879 275.294 107.078C275.704 103.288 278.804 100.388 281.934 98.1479C289.264 92.9179 295.454 97.6879 296.884 98.2579C298.994 88.0779 308.604 80.2579 322.684 80.6879C336.764 81.1179 345.684 90.4279 346.364 99.6879C348.074 97.2835 350.639 95.6239 353.533 95.0492C356.426 94.4744 359.431 95.028 361.93 96.5964C364.429 98.1649 366.233 100.629 366.974 103.485C367.715 106.341 367.336 109.373 365.914 111.958C370.127 107.956 375.384 105.223 381.08 104.073C386.776 102.923 392.681 103.402 398.117 105.456C403.553 107.51 408.299 111.055 411.812 115.684C415.324 120.314 417.46 125.84 417.974 131.628C427.644 128.668 449.164 134.558 448.584 154.028Z" fill="#C2DBFF"/>
<path d="M215.854 138.918C218.015 134.013 221.429 129.764 225.754 126.598C231.754 122.508 237.134 123.038 241.694 125.598C228.074 131.088 230.274 145.968 230.274 145.968C234.054 134.968 239.974 131.648 245.174 129.968C250.844 128.168 256.734 129.658 260.124 133.348C262.634 136.088 262.944 140.398 261.854 143.998C271.324 133.908 281.324 133.368 285.594 136.308C282.851 136.919 280.32 138.25 278.262 140.164C276.204 142.078 274.693 144.506 273.884 147.198C298.394 135.198 312.164 147.518 312.164 147.518C312.164 147.518 311.244 135.378 294.594 134.868C295.504 126.238 301.464 116.948 311.594 116.318C324.124 115.548 334.464 124.468 333.964 137.858C338.444 136.858 343.084 141.728 341.884 146.158C344.984 143.708 348.284 141.158 352.194 140.528C356.104 139.898 360.734 141.938 361.544 145.808C364.271 146.181 366.758 147.569 368.506 149.696C370.254 151.822 371.135 154.53 370.974 157.278C374.757 153.841 379.517 151.667 384.593 151.06C389.668 150.452 394.806 151.441 399.294 153.888C395.034 141.098 378.614 134.028 366.384 139.698C366.664 130.698 375.574 122.928 384.534 123.868C393.494 124.808 400.624 134.318 399.004 143.168C405.424 141.168 412.744 147.998 411.154 154.538C413.684 146.158 423.334 144.078 429.004 145.618C421.004 147.718 417.794 157.438 418.814 164.228C421.414 158.068 429.404 145.348 448.584 154.018C448.584 154.878 448.484 155.768 448.374 156.668C447.994 159.618 443.374 165.848 432.554 170.018C419.604 175.018 403.554 177.118 392.484 168.738C393.324 175.948 385.254 180.608 378.484 183.258C371.294 186.058 363.964 188.888 356.264 189.258C348.564 189.628 340.264 186.958 335.814 180.708C329.474 191.708 313.314 195.638 302.654 188.708C299.353 193.423 294.608 196.936 289.136 198.718C283.663 200.501 277.759 200.455 272.315 198.588C266.87 196.72 262.181 193.134 258.954 188.368C255.727 183.602 254.137 177.916 254.424 172.168C248.424 175.448 239.784 169.828 240.364 162.998C234.484 168.348 224.364 167.098 218.954 161.258C213.544 155.418 212.794 146.248 215.854 138.918Z" fill="#A4CAFF"/>
<path d="M168.46 298.342C169.104 293.872 168.305 289.314 166.179 285.33L165.688 284.497C162.358 278.936 155.032 275.448 146.907 277.504C146.275 276.039 145.354 274.716 144.199 273.615C143.043 272.515 141.678 271.659 140.183 271.099C138.689 270.539 137.097 270.287 135.503 270.358C133.908 270.428 132.345 270.82 130.906 271.51C124.546 263.618 111.134 251.264 90.2132 255.551C69.2923 259.839 59.6935 281.051 59.6935 281.051C52.459 274.341 37.4239 277.23 30.0978 284.198C22.3805 291.54 22.522 297.127 22.522 297.127C17.4104 293.846 9.20192 297.127 7.78666 302.013C7.20585 303.856 7.28927 305.843 8.02242 307.631C8.75556 309.418 10.092 310.892 11.7993 311.795L12.457 312.103C19.3002 315.45 23.5127 313.61 23.5127 313.61C31.663 331.193 47.0727 326.622 54.1157 323.034C56.3218 321.919 60.859 319.97 60.859 319.97C60.859 319.97 73.5047 331.984 91.0706 332.65C101.56 333.058 119.467 327.605 123.655 317.972C142.47 328.795 175.695 320.47 180.016 309.714C181.739 305.46 180.066 295.162 168.46 298.342Z" fill="#C2DBFF"/>
<path d="M180.024 309.714C175.703 320.537 142.478 328.795 123.663 317.972C119.501 327.605 101.568 333.058 91.0789 332.65C73.513 331.984 60.8672 319.971 60.8672 319.971C60.8672 319.971 56.3301 321.919 54.1239 323.034C47.0809 326.622 31.6463 331.193 23.521 313.61C23.521 313.61 19.3085 315.475 12.4653 312.103L11.8076 311.795C12.5902 311.662 13.3561 311.504 14.097 311.321C24.1703 308.94 37.6569 299.333 46.6064 308.324C46.5315 301.314 39.4635 296.502 32.8201 297.318C34.3734 295.23 36.5497 293.69 39.035 292.92C41.5203 292.149 44.1862 292.188 46.648 293.031C49.1342 293.981 51.2536 295.697 52.6994 297.932C54.1452 300.166 54.8424 302.803 54.69 305.46C59.9194 302.758 65.919 301.938 71.6815 303.137C77.9752 304.261 82.0962 308.191 84.6769 314.035C82.7622 303.687 77.3009 297.801 66.8113 298.409C66.4617 292.498 67.1194 288.477 70.6825 283.74C74.2456 279.003 80.5727 276.089 86.2837 277.654C91.9947 279.219 96.1072 285.929 93.9094 291.432C94.8335 290.025 98.1885 289.201 100.153 290.541C101.702 291.59 102.11 294.554 101.743 295.77C102.543 293.466 104.065 291.484 106.084 290.117C108.103 288.751 110.51 288.075 112.945 288.189C115.381 288.303 117.713 289.202 119.596 290.751C121.478 292.301 122.808 294.417 123.388 296.785C124.221 288.011 115.896 279.594 107.096 280.268C119.251 273.517 135.651 277.987 137.483 291.807C142.186 276.331 162.974 279.452 166.179 285.33C168.527 289.492 169.176 295.245 168.46 298.342C180.066 295.162 181.739 305.46 180.024 309.714Z" fill="#A4CAFF"/>
<path d="M401.408 251.695C400.228 250.592 398.957 249.59 397.609 248.699C396.287 247.857 394.923 247.083 393.521 246.382C392.084 245.613 391.293 245.123 387.672 242.828L378.414 236.98C373.634 233.927 368.9 230.986 359.475 225.104C356.389 223.177 353.826 221.595 352.055 220.504C350.871 221.287 349.622 221.969 348.323 222.542C346.091 223.699 343.592 224.245 341.081 224.124C340.253 224.419 339.404 224.65 338.541 224.815C336.443 225.246 334.278 225.246 332.18 224.815C330.741 224.47 329.354 223.934 328.058 223.222C325.759 222.114 323.557 220.817 321.473 219.345C320.27 219.534 319.245 219.679 318.454 219.791C316.694 220.024 315.948 220.08 315.469 220.102C314.8 220.102 314.243 220.158 313.864 220.158C313.942 225.015 313.998 229.371 314.043 233.159C314.121 238.851 314.121 239.62 313.942 241.035C313.231 245.985 311.46 250.723 308.751 254.926C306.971 257.795 304.87 260.453 302.49 262.847C300.613 264.721 298.59 266.442 296.44 267.993C293.05 270.535 289.441 272.772 285.656 274.677C283.539 275.791 278.058 278.365 267.697 280.882C260.188 282.685 252.547 283.884 244.847 284.469C236.878 285.04 228.88 285.084 220.906 284.603C211.993 284.224 204.473 283.489 198.713 282.731C203.227 286.562 207.313 290.868 210.901 295.576C213.464 299.029 215.792 302.917 216.539 304.165C217.519 305.802 218.254 307.106 218.956 308.476C219.996 310.536 220.929 312.648 221.752 314.804C222.385 316.137 222.763 317.576 222.866 319.048C222.922 320.162 222.989 321.465 222.231 322.078C221.117 322.98 218.956 321.978 217.508 321.298C216.289 320.699 215.163 319.926 214.166 319.003C212.951 317.96 211.883 316.757 210.99 315.427C210.057 314.018 209.354 312.468 208.907 310.838C208.617 309.724 208.651 309.334 208.228 307.707C208.228 307.707 207.849 306.237 207.303 304.755C205.654 300.232 201.265 295.197 201.265 295.197C197.392 290.887 192.937 287.138 188.029 284.057C183.473 282.33 179.729 280.938 177.156 279.98C171.073 277.752 167.965 276.638 162.406 274.51C159.331 273.341 156.835 272.36 155.175 271.725C152.848 271.631 150.517 271.705 148.201 271.948C148.201 271.948 145.973 272.193 142.764 272.85C142.419 272.917 141.884 273.04 141.238 273.207C140.753 273.312 140.276 273.454 139.812 273.63C139.054 273.969 138.371 274.458 137.807 275.067C137.378 275.503 137.004 275.99 136.693 276.515C138.318 275.756 140.166 275.621 141.884 276.137C143.494 276.782 144.866 277.906 145.817 279.356C146.821 280.704 147.642 282.18 148.257 283.745C149.15 285.764 149.895 287.845 150.485 289.972C151.126 293.04 151.31 296.186 151.031 299.308C150.972 302.152 150.233 304.94 148.877 307.44C147.52 309.94 145.585 312.079 143.232 313.678C141.825 314.787 140.296 315.733 138.676 316.497L131.312 315.383C131.044 314.458 130.777 313.522 130.476 312.587C129.336 308.927 128.001 305.331 126.477 301.814L125.452 301.124C122.812 299.411 119.991 297.995 117.04 296.902C113.337 295.609 109.548 294.582 105.699 293.827C101.243 292.835 97.8448 292.167 96.0177 291.822C86.1915 289.95 85.5453 290.117 77.6243 288.547C77.6243 288.547 70.6724 287.176 64.2553 285.283C62.328 284.703 61.1136 284.269 59.0303 283.5C58.0193 283.151 57.0329 282.734 56.078 282.252C54.9727 281.683 53.9276 281.004 52.9586 280.225C51.9715 279.647 51.0292 278.995 50.14 278.276C47.66 276.212 45.6118 273.68 44.1128 270.823C42.9286 268.468 42.0632 265.965 41.5393 263.381C41.012 261.084 40.6398 258.755 40.4252 256.408C39.9908 252.732 39.9016 249.902 39.8348 247.262C39.7457 244.076 39.8348 241.692 39.8348 239.865C39.9462 234.584 40.2693 230.619 40.3473 229.583C40.5144 227.589 40.7929 224.325 41.4613 220.069C42.1855 215.323 42.9876 211.792 43.5781 209.263C44.4545 205.07 45.5704 200.93 46.9203 196.864C48.0495 193.584 49.3473 190.364 50.8084 187.217C52.5774 183.107 54.7022 179.16 57.1587 175.42C58.444 173.473 59.8939 171.639 61.4924 169.939C63.5762 168.131 65.7635 166.446 68.0432 164.893C71.1236 162.817 74.3435 160.956 77.68 159.323C81.9357 157.184 85.2891 155.769 87.2165 154.967C99.0257 150.043 109.052 146.333 111.982 145.253C113.096 144.83 117.987 143.025 127.724 139.56C130.521 138.547 140.191 135.104 151.9 131.016C155.521 129.768 158.161 128.866 161.748 127.808C166.205 126.493 169.948 125.58 173.357 124.677C175.864 124.042 178.225 123.452 181.434 122.728C186.341 121.476 191.335 120.593 196.374 120.088C201.82 119.506 207.327 119.914 212.628 121.291C215.269 121.938 217.855 122.794 220.36 123.853C223.209 125.084 225.939 126.576 228.515 128.309C234.361 132.193 239.614 136.902 244.112 142.29L244.914 143.259C245.028 142.991 245.158 142.731 245.304 142.479C245.827 141.545 246.598 140.774 247.532 140.251C247.991 139.98 248.498 139.802 249.025 139.727C249.83 139.673 250.635 139.839 251.353 140.206C254.696 141.911 293.243 169.739 302.133 175.654L309.753 180.667C315.524 184.432 320.27 187.518 323.479 189.579L323.646 190.893C325.228 191.851 327.423 193.177 330.03 194.781C330.03 194.781 334.196 197.332 338.519 200.062C354.116 209.843 370.348 220.504 370.348 220.504C397.409 238.261 403.77 242.928 409.096 249.312C412.967 253.991 416.329 259.069 419.122 264.462C421.35 268.985 423.222 274.198 423.222 274.198C424.269 277.128 424.893 279.312 425.45 281.083C425.45 281.172 426.063 283.233 426.653 286.029C427.031 287.706 427.192 289.424 427.132 291.142C427.194 291.646 427.145 292.157 426.989 292.64C426.833 293.122 426.574 293.566 426.23 293.938C425.846 294.236 425.379 294.407 424.893 294.428C424.392 294.428 423.645 294.429 421.818 293.025C420.937 292.406 420.123 291.697 419.39 290.908C418.225 289.696 417.269 288.299 416.56 286.775C415.718 284.741 415.224 282.579 415.1 280.381C414.844 278.398 414.967 278.209 414.788 276.582C414.483 273.954 413.847 271.375 412.895 268.907C411.848 266.166 410.499 263.551 408.873 261.109C407.547 259.026 406.411 257.544 405.285 256.085C404.124 254.511 402.827 253.042 401.408 251.695Z" fill="#D1C2FF"/>
<path d="M154.395 130.147C150.463 149.765 146.898 170.73 143.99 192.954C140.737 217.774 138.665 241.291 137.45 263.303C127.579 265.799 119.837 268.339 114.589 270.177C108.83 272.215 105.053 273.786 98.2235 275.869C91.7285 277.852 86.3252 279.133 82.827 279.891C78.5636 280.732 74.2566 281.335 69.926 281.695C60.4786 282.509 57.3926 281.629 56.0223 281.172C53.1161 280.269 50.4507 278.723 48.2238 276.649C46.159 274.631 44.5155 272.222 43.3887 269.564C42.675 267.958 42.1046 266.291 41.6841 264.584C40.6128 260.606 39.9704 256.524 39.7679 252.408C39.6565 250.86 39.6231 249.735 39.5785 247.952C39.5785 247.952 39.456 243.652 39.5785 239.486C39.8986 227.992 41.4448 216.564 44.1908 205.398C45.6835 199.433 47.7235 193.62 50.2848 188.03C53.1257 181.926 56.1337 175.453 62.1386 169.449C66.4501 165.138 71.0512 162.832 80.1086 158.209C88.8319 153.753 95.8505 151.157 106.846 147.069C108.339 146.512 113.353 144.718 123.379 141.131C133.841 137.388 140.091 135.205 142.631 134.291L154.395 130.147Z" fill="#C8ADFF"/>
<path d="M313.797 220.269L299.158 211.235C299.033 214.663 298.71 218.082 298.189 221.473C297.541 225.317 296.53 229.092 295.17 232.746C293.644 236.3 291.326 242.661 286.391 247.351C282.335 251.415 277.545 254.673 272.276 256.953C267.819 258.736 258.974 262 253.927 263.359C248.88 264.718 237.037 267.692 230.074 268.795C223.111 269.898 209.341 271.213 204.451 271.279C199.56 271.346 187.461 271.068 184.186 270.288C178.177 268.921 172.066 268.053 165.915 267.692C160.188 267.581 153.003 268.116 148.023 269.653C143.043 271.19 138.553 272.839 136.381 274.733C134.208 276.627 132.704 278.52 133.038 281.127C133.373 283.734 134.275 285.683 136.381 288.792C138.486 291.9 140.269 294.618 140.837 296.701C141.405 298.784 141.951 301.825 141.026 304.22C140.276 306.022 139.307 307.725 138.141 309.289C137.101 310.475 135.984 311.591 134.799 312.631C133.395 313.745 131.456 315.216 131.456 315.216L138.531 316.564C138.531 316.564 145.973 313.054 148.479 307.885C150.986 302.717 150.997 301.491 150.997 295.899C150.908 291.721 150.008 287.601 148.346 283.767C147.722 282.464 144.502 277.083 142.675 276.437C140.848 275.791 138.698 275.234 136.871 276.348C137.325 275.551 137.944 274.859 138.687 274.321C139.96 273.604 141.353 273.124 142.798 272.906C144.313 272.527 145.46 272.327 145.973 272.238C145.973 272.238 147.332 272.026 148.758 271.892C151.974 271.648 155.206 271.678 158.417 271.981C163.089 272.564 167.7 273.555 172.198 274.945C173.39 275.268 176.822 276.214 181.411 277.718C186.291 279.323 190.324 280.871 193.499 282.174C196.585 282.631 200.841 283.222 205.943 283.734C216.039 284.874 226.202 285.302 236.358 285.015C244.051 284.863 251.722 284.136 259.308 282.843C264.528 281.97 269.681 280.73 274.727 279.133C278.885 277.911 282.924 276.311 286.792 274.354C292.013 271.677 296.82 268.259 301.063 264.206C303.968 261.44 306.53 258.336 308.695 254.959C310.489 252.167 311.901 249.147 312.895 245.981C313.35 244.456 313.693 242.899 313.92 241.324C313.987 238.038 314.031 234.696 314.031 231.298C313.972 227.533 313.894 223.857 313.797 220.269Z" fill="#A97FFF"/>
<path d="M251.843 140.674L251.955 176.824L245.449 178.138L245.059 142.991C245.059 142.991 246.418 140.396 248 140.062C249.582 139.727 251.119 139.895 251.843 140.674Z" fill="#A97FFF"/>
<path d="M136.86 276.18C137.423 275.278 138.185 274.516 139.088 273.953C140.71 273.25 142.425 272.785 144.179 272.572C143.247 273.078 142.26 273.478 141.238 273.764C140.852 273.861 140.478 274.003 140.124 274.187C139.812 274.365 139.266 274.655 139.311 274.877C139.355 275.1 140.369 274.966 141.383 275.356C142.143 275.683 142.785 276.235 143.221 276.938L143.021 276.804C142.12 276.271 141.118 275.93 140.079 275.802C138.991 275.691 137.892 275.82 136.86 276.18Z" fill="#C8ADFF"/>
<path d="M159.487 128.487L169.213 125.736L177.1 123.73C173.335 147.247 170.16 172.535 167.976 199.404C166.394 218.922 165.458 237.659 165.035 255.528L146.686 260.797C147.354 243.173 148.457 224.859 150.106 205.899C152.468 178.628 155.699 152.783 159.487 128.487Z" fill="#C8ADFF"/>
<path d="M155.197 271.792L187.829 284.046C188.753 284.625 190.257 285.617 192.018 286.965C196.418 290.307 204.785 296.734 207.704 306.515C208.517 309.256 208.328 310.314 209.587 313.021C211.032 316.468 213.6 319.326 216.873 321.131C218.165 321.788 220.939 323.192 222.22 322.134C223.825 320.808 222.142 316.319 220.85 312.876C219.48 309.303 217.74 305.883 215.658 302.672C211.037 295.272 205.341 288.601 198.758 282.876L192.909 281.941C186.648 279.401 181.3 277.585 177.223 276.371C173.613 275.257 171.363 274.688 166.851 273.552C164.115 272.818 161.324 272.304 158.506 272.015C157.114 271.859 155.988 271.814 155.197 271.792Z" fill="#8766CC"/>
<path d="M323.405 218.671V216.171V215.671L326.405 217.671L334.405 222.171L340.905 224.171L339.405 224.671L332.405 225.171L327.405 223.171L321.405 219.171L323.405 218.671Z" fill="#A97FFF"/>
<path d="M226.643 127.384C225.44 126.627 224.114 125.981 222.777 125.268C221.441 124.555 219.981 123.964 218.466 123.418C215.293 122.181 212 121.277 208.64 120.723C204.957 120.135 201.215 120 197.499 120.322C193.452 120.692 189.433 121.325 185.467 122.215C181.334 123.084 177.089 124.109 172.722 125.156C168.355 126.203 163.898 127.44 159.353 128.899C141.327 134.826 121.686 141.967 101.154 149.597C96.0512 151.58 91.0601 153.649 86.1805 155.802C81.354 157.884 76.6355 160.208 72.0428 162.765C67.5869 165.137 63.555 168.231 60.1111 171.922C56.953 175.61 54.3484 179.738 52.3794 184.176C48.4151 192.233 45.4232 200.733 43.4668 209.497C41.7371 217.123 40.6195 224.875 40.1245 232.68C39.7294 238.438 39.6439 244.213 39.8683 249.98C39.8683 248.532 39.6789 247.095 39.7123 245.669C39.7123 242.817 39.7123 240.021 39.8349 237.28C39.9574 234.54 40.0354 231.844 40.2694 229.226C40.5033 226.608 40.6259 224.024 40.8932 221.517C40.9601 220.793 41.0269 220.069 41.1049 219.356C41.6063 216.103 42.219 212.784 42.9766 209.33C44.9163 200.515 47.9086 191.965 51.8892 183.864C53.8777 179.391 56.5046 175.229 59.6877 171.51C63.1715 167.763 67.2524 164.62 71.7643 162.208C76.3584 159.637 81.0808 157.302 85.9131 155.212C90.8076 153.051 95.8098 150.975 100.92 148.985C121.474 141.365 141.116 134.202 159.164 128.331C163.687 126.883 168.165 125.613 172.533 124.61C176.9 123.608 181.156 122.55 185.3 121.692C189.288 120.811 193.33 120.189 197.399 119.831C201.168 119.516 204.962 119.666 208.696 120.277C212.08 120.852 215.396 121.778 218.589 123.04C220.115 123.597 221.53 124.287 222.922 124.934C224.315 125.58 225.596 126.315 226.81 127.072L227.145 127.284L228.014 128.231C227.579 127.952 227.122 127.663 226.643 127.384Z" fill="#3F00F9"/>
<path d="M244.524 142.969C242.559 140.599 240.457 138.344 238.23 136.218C235.341 133.465 232.213 130.975 228.883 128.777C228.638 128.476 228.392 128.175 228.147 127.897C231.83 130.259 235.264 132.987 238.397 136.04C240.616 138.189 242.696 140.478 244.625 142.891V143.114L244.524 142.969Z" fill="#3F00F9"/>
<path d="M70.4162 281.395C73.7585 281.038 77.2121 280.593 80.6323 279.947C87.6098 278.654 94.489 276.878 101.22 274.633C104.663 273.519 108.094 272.26 111.548 270.968C113.249 270.322 114.972 269.698 116.717 269.096L117.831 269.397C115.781 270.08 113.754 270.804 111.748 271.569C108.284 272.85 104.852 274.098 101.399 275.223C94.6343 277.475 87.7215 279.255 80.7103 280.548C77.279 281.194 73.8476 281.662 70.4497 281.996C67.0831 282.411 63.6847 282.505 60.3004 282.275C58.03 282.062 55.8056 281.502 53.7051 280.615C52.8407 280.036 52.0248 279.388 51.2653 278.677C54.016 280.391 57.1368 281.422 60.3673 281.684C63.7185 281.91 67.0836 281.813 70.4162 281.395Z" fill="#3F00F9"/>
<path d="M144.168 261.733L135.322 264.206C135.178 264.206 134.933 263.972 134.821 264.206L134.665 264.373C130.499 265.546 126.373 266.742 122.288 267.96C121.018 268.339 119.759 268.762 118.511 269.174L117.397 268.873C118.957 268.35 120.539 267.826 122.132 267.358C129.306 265.13 136.615 263.158 144.023 261.098L149.538 259.594L150.507 259.984L144.168 261.733Z" fill="#3F00F9"/>
<path d="M238.62 149.33C239.864 153.963 240.794 158.675 241.405 163.433C242.013 168.687 242.158 173.984 241.839 179.263C241.516 184.766 240.725 190.403 239.856 196.296C239.12 202.405 237.503 208.375 235.055 214.02C232.28 219.945 228.418 225.295 223.669 229.794C218.76 234.57 213.273 238.712 207.336 242.126C201.276 245.602 194.38 247.83 187.428 249.857L151.265 259.783L150.285 259.393L187.261 249.256C194.201 247.262 201.008 245.067 207.036 241.603C212.927 238.203 218.376 234.087 223.257 229.349C227.961 224.902 231.789 219.612 234.542 213.753C236.979 208.159 238.592 202.241 239.333 196.185C240.168 190.325 241.015 184.666 241.338 179.196C241.677 173.948 241.546 168.681 240.948 163.456C240.361 158.71 239.453 154.009 238.23 149.386C237.266 145.235 235.873 141.195 234.074 137.332C232.469 134.037 230.439 130.966 228.036 128.198L228.883 128.743C231.076 131.317 232.947 134.149 234.453 137.176C236.263 141.071 237.659 145.144 238.62 149.33Z" fill="#3F00F9"/>
<path d="M39.8794 249.935C39.9797 251.384 39.9685 252.854 40.1691 254.313C40.3696 255.773 40.5478 257.254 40.7261 258.769C40.9043 260.285 41.2497 261.744 41.5951 263.225C42.2638 266.236 43.3672 269.133 44.8705 271.826C45.9345 273.711 47.2921 275.414 48.8923 276.872C49.6282 277.761 50.4248 278.599 51.2764 279.378L50.931 279.178C48.2115 277.384 45.9644 274.962 44.3803 272.115C42.8516 269.368 41.726 266.415 41.038 263.348C40.9266 262.847 40.8264 262.357 40.715 261.855C40.403 258.914 40.1356 255.628 39.9462 252.019C39.9351 251.317 39.9128 250.637 39.8794 249.935Z" fill="#3F00F9"/>
<path d="M39.7346 232.613C39.9908 228.391 40.4587 223.935 41.1718 219.311C41.0938 220.024 41.0269 220.749 40.9601 221.473C40.6927 223.979 40.5256 226.552 40.3362 229.182C40.1468 231.811 40.0131 234.484 39.9017 237.236C39.7903 239.987 39.8126 242.806 39.7792 245.624C39.7792 247.05 39.8794 248.487 39.9351 249.935C39.9351 250.637 39.9908 251.317 40.0243 251.985C40.2136 255.594 40.481 258.881 40.793 261.822C40.5924 260.819 40.3919 259.828 40.2582 258.825L40.0243 256.998C39.8906 255.416 39.768 253.756 39.6677 252.007C39.2958 245.547 39.3181 239.07 39.7346 232.613Z" fill="#3F00F9"/>
<path d="M228.014 128.231L227.145 127.284L228.125 127.897C228.37 128.175 228.615 128.476 228.86 128.776L228.014 128.231Z" fill="#3F00F9"/>
<path d="M130.966 313.834C131.089 314.258 131.2 314.659 131.301 315.049L130.844 314.96L130.532 313.968C129.217 309.806 127.685 305.716 125.942 301.714C126.276 301.937 126.599 302.149 126.911 302.371C128.487 306.109 129.841 309.937 130.966 313.834Z" fill="#3F00F9"/>
<path d="M54.0393 280.838C56.7131 282.371 59.5639 283.572 62.5286 284.414C69.3117 286.459 76.2085 288.107 83.1836 289.349C90.6145 290.686 97.7334 291.855 104.139 293.27C107.337 293.983 110.378 294.64 113.197 295.442C115.81 296.183 118.352 297.152 120.795 298.339C122.469 299.153 124.088 300.076 125.641 301.101C125.741 301.313 125.83 301.525 125.92 301.725C124.217 300.615 122.442 299.621 120.605 298.751C118.173 297.602 115.646 296.667 113.052 295.955C110.256 295.186 107.203 294.54 104.017 293.849C97.6109 292.468 90.5142 291.321 83.061 289.984C76.0563 288.732 69.1329 287.062 62.3281 284.982C59.3241 284.111 56.4392 282.872 53.7385 281.295C52.8558 280.718 52.0245 280.065 51.2542 279.345C52.0403 279.825 52.8593 280.25 53.7051 280.615C53.8388 280.682 53.9279 280.771 54.0393 280.838Z" fill="#3F00F9"/>
<path d="M48.8925 276.794C49.6236 277.464 50.4099 278.071 51.2432 278.609C52.0027 279.32 52.8186 279.968 53.683 280.547C52.8372 280.182 52.0182 279.758 51.232 279.278C50.3966 278.504 49.6149 277.674 48.8925 276.794Z" fill="#3F00F9"/>
<path d="M126.633 301.77C126.722 301.97 126.8 302.171 126.889 302.382C126.577 302.159 126.254 301.948 125.92 301.725C125.831 301.525 125.741 301.313 125.641 301.101C126.009 301.302 126.343 301.547 126.633 301.77Z" fill="#3F00F9"/>
<path d="M138.888 316.096C140.905 315.007 142.777 313.667 144.458 312.108C146.536 310.201 148.201 307.888 149.349 305.312C149.902 303.972 150.252 302.556 150.385 301.113C150.538 299.759 150.605 298.397 150.585 297.035C150.558 294.713 150.383 292.395 150.062 290.095C150.067 290.036 150.067 289.976 150.062 289.917L150.808 291.956C151.028 293.637 151.158 295.329 151.198 297.024C151.235 298.415 151.179 299.807 151.031 301.191C150.887 302.699 150.511 304.175 149.917 305.569C148.731 308.224 147 310.6 144.837 312.542C143.195 314.013 141.372 315.267 139.411 316.274L138.598 316.196L138.888 316.096Z" fill="#3F00F9"/>
<path d="M131.635 315.127C132.749 315.349 133.863 315.55 134.977 315.728C136.091 315.906 137.45 316.073 138.62 316.196L137.595 316.719C136.715 316.619 135.813 316.508 134.888 316.363C133.696 316.185 132.548 315.962 131.457 315.717C131.457 315.583 131.39 315.45 131.345 315.305L131.635 315.127Z" fill="#3F00F9"/>
<path d="M131.312 315.071L130.955 315.316L130.844 314.96L131.301 315.049L131.312 315.071Z" fill="#3F00F9"/>
<path d="M131.479 315.717L131.044 315.628V315.539L131.39 315.305C131.412 315.45 131.446 315.584 131.479 315.717Z" fill="#3F00F9"/>
<path d="M139.456 316.274L139.043 316.497L138.408 316.798L137.617 316.72L138.642 316.196L139.456 316.274Z" fill="#3F00F9"/>
<path d="M193.177 281.785C194.603 281.996 196.073 282.197 197.633 282.386L198.357 282.987L194.87 282.497L193.177 281.785Z" fill="#3F00F9"/>
<path d="M223.468 284.592C229.819 284.793 236.492 284.826 243.388 284.369C250.511 283.967 257.59 282.991 264.555 281.45C271.525 279.975 278.321 277.772 284.832 274.878C287.898 273.46 290.826 271.759 293.577 269.798C296.23 267.929 298.75 265.878 301.119 263.66C305.533 259.59 309.041 254.637 311.413 249.122C312.464 246.626 313.19 244.005 313.575 241.324C313.809 238.74 313.731 236.2 313.753 233.805C313.753 228.87 313.697 224.436 313.686 220.537L314.02 220.749C314.076 224.592 314.132 228.959 314.21 233.805C314.21 236.211 314.288 238.718 314.065 241.369C313.691 244.099 312.965 246.769 311.904 249.312C309.529 254.897 305.998 259.917 301.543 264.039C299.17 266.286 296.638 268.36 293.967 270.244C291.185 272.234 288.224 273.961 285.121 275.401C278.575 278.325 271.737 280.547 264.723 282.03C257.727 283.574 250.619 284.55 243.466 284.948C236.536 285.394 229.852 285.361 223.479 285.138C214.778 284.815 206.768 284.024 199.449 283.133C199.215 282.921 198.959 282.732 198.725 282.531C206.156 283.478 214.478 284.236 223.468 284.592Z" fill="#3F00F9"/>
<path d="M151.555 268.584C154.908 267.932 158.311 267.559 161.726 267.47C164.194 267.409 166.663 267.476 169.124 267.67L170.995 268.45C167.921 268.122 164.828 267.992 161.737 268.06C158.37 268.153 155.016 268.526 151.711 269.174C151.064 269.307 150.418 269.441 149.772 269.597L148.825 269.241C149.694 268.996 150.619 268.773 151.555 268.584Z" fill="#3F00F9"/>
<path d="M172.399 267.971C176.009 268.394 179.64 269.085 183.306 269.843L183.25 270.143C183.339 269.887 183.373 269.787 183.361 269.854H183.562H183.774L184.253 269.932L185.2 270.065L187.105 270.299C188.386 270.433 189.678 270.567 190.982 270.645C192.285 270.723 193.589 270.823 194.903 270.867C196.218 270.912 197.544 270.968 198.869 270.968C201.532 271.035 204.206 270.968 206.913 270.879C209.62 270.79 212.339 270.645 215.068 270.344C224.187 269.536 233.24 268.103 242.162 266.055C250.459 264.098 258.642 261.685 266.672 258.825C270.434 257.589 274.059 255.969 277.49 253.99C280.712 252.11 283.659 249.793 286.246 247.106C286.87 246.449 287.472 245.791 288.029 245.101C288.599 244.434 289.134 243.739 289.633 243.018C290.602 241.614 291.484 240.152 292.274 238.64C293.752 235.781 294.979 232.799 295.939 229.728C296.809 226.933 297.505 224.087 298.022 221.205C298.461 218.624 298.762 216.021 298.925 213.407C298.925 212.717 298.992 212.037 299.014 211.369L299.348 211.58C299.348 212.182 299.348 212.806 299.281 213.43C299.132 216.042 298.845 218.645 298.423 221.228C297.922 224.127 297.238 226.993 296.373 229.805C295.417 232.907 294.19 235.919 292.708 238.807C291.917 240.345 291.032 241.833 290.057 243.263C289.555 243.987 289.009 244.7 288.43 245.379C287.851 246.059 287.26 246.749 286.636 247.418C284.019 250.145 281.039 252.499 277.779 254.414C274.323 256.423 270.668 258.069 266.873 259.326C258.825 262.261 250.62 264.745 242.296 266.768C233.349 268.831 224.27 270.271 215.124 271.079C212.383 271.38 209.643 271.447 206.935 271.614C204.228 271.781 201.532 271.77 198.858 271.703C197.521 271.703 196.196 271.703 194.881 271.592C193.566 271.48 192.241 271.48 190.937 271.369C188.324 271.205 185.721 270.907 183.139 270.478C179.663 269.787 176.265 269.119 172.889 268.684L170.884 267.837L172.399 267.971Z" fill="#3F00F9"/>
<path d="M142.386 271.792C140.639 272.462 138.97 273.318 137.406 274.343C136.804 274.566 136.292 274.789 135.69 275.012C137.641 273.431 139.834 272.174 142.185 271.291C144.063 270.546 145.987 269.92 147.945 269.419L148.847 269.765C146.648 270.286 144.489 270.963 142.386 271.792Z" fill="#3F00F9"/>
<path d="M137.773 309.367C139.037 307.889 140.022 306.195 140.681 304.365C141.359 302.287 141.436 300.058 140.904 297.938C140.224 295.608 139.167 293.407 137.773 291.421C136.205 289.25 134.805 286.964 133.584 284.581C132.956 283.269 132.661 281.823 132.726 280.37C132.731 279.993 132.787 279.618 132.894 279.256C132.951 278.875 133.048 278.502 133.183 278.142C133.49 277.444 133.904 276.797 134.409 276.226C134.666 275.927 134.942 275.645 135.233 275.379C135.712 275.179 136.214 274.978 136.748 274.789C136.042 275.31 135.389 275.9 134.799 276.549C134.336 277.08 133.96 277.682 133.685 278.331C133.558 278.659 133.465 278.999 133.406 279.345C133.31 279.678 133.258 280.023 133.25 280.37C133.189 281.745 133.464 283.114 134.052 284.358C135.254 286.72 136.632 288.987 138.174 291.142C139.584 293.181 140.646 295.44 141.316 297.826C141.867 300.034 141.774 302.353 141.049 304.51C140.37 306.376 139.354 308.102 138.052 309.601C136.172 311.725 134.027 313.597 131.668 315.171L131.367 315.104C133.745 313.481 135.899 311.552 137.773 309.367Z" fill="#3F00F9"/>
<path d="M131.635 315.127L131.368 315.305L131.312 315.071L131.635 315.127Z" fill="#3F00F9"/>
<path d="M131.368 315.305L131.022 315.539L130.955 315.316L131.312 315.071L131.368 315.305Z" fill="#3F00F9"/>
<path d="M272.12 194.859L252.334 182.605V182.282L272.387 194.536L299.058 210.912C299.058 211.112 299.058 211.313 299.058 211.513L272.12 194.859Z" fill="#3F00F9"/>
<path d="M250.028 181.145L245.571 178.35H245.828L250.139 180.956L251.877 182.003V182.326L250.028 181.145Z" fill="#3F00F9"/>
<path d="M312.427 219.289L310.857 218.61L310.01 218.253L299.315 211.67C299.315 211.458 299.315 211.268 299.315 211.057L313.619 219.846C313.503 219.802 313.391 219.746 313.285 219.679C312.973 219.523 312.684 219.423 312.427 219.289Z" fill="#3F00F9"/>
<path d="M313.675 220.459C313.784 220.501 313.896 220.534 314.01 220.559V220.715L313.675 220.504V220.459Z" fill="#3F00F9"/>
<path d="M299.025 210.856L299.36 211.057C299.36 211.269 299.36 211.458 299.36 211.67L299.025 211.458C299.014 211.258 299.014 211.068 299.025 210.856Z" fill="#3F00F9"/>
<path d="M136.136 276.404C136.793 275.68 137.127 275.29 137.317 275.145C138.013 274.464 138.834 273.923 139.734 273.552C140.625 273.274 141.583 273.018 142.597 272.772H142.709L143.333 272.639C146.668 271.944 150.063 271.571 153.471 271.525L154.518 271.915H153.538C150.151 271.888 146.771 272.224 143.455 272.917L142.854 273.051C141.628 273.329 140.625 273.608 139.801 273.842C139.157 274.102 138.568 274.48 138.063 274.956C137.768 275.261 137.489 275.581 137.227 275.914L137.116 276.048C136.559 276.297 136.044 276.632 135.59 277.039L136.136 276.404Z" fill="#3F00F9"/>
<path d="M170.137 274.187L171.764 274.633C179.003 276.536 186.111 278.906 193.043 281.729L193.176 281.785L190.948 281.45C184.626 278.973 178.173 276.842 171.619 275.067C166.601 273.52 161.439 272.486 156.211 271.982L155.242 271.625L155.031 271.547C159.711 271.829 164.348 272.602 168.867 273.853L170.137 274.187Z" fill="#3F00F9"/>
<path d="M168.889 273.853C164.371 272.602 159.733 271.829 155.053 271.547C159.739 271.776 164.382 272.549 168.889 273.853Z" fill="#3F00F9"/>
<path d="M143.344 272.605L142.72 272.739H142.82L143.344 272.605Z" fill="#3F00F9"/>
<path d="M139.734 273.552C140.447 273.329 141.427 273.051 142.597 272.772C141.583 273.017 140.625 273.274 139.734 273.552Z" fill="#3F00F9"/>
<path d="M192.809 282.208C192.196 281.94 191.583 281.695 190.971 281.45L193.199 281.785L194.837 282.497L192.809 282.208Z" fill="#3F00F9"/>
<path d="M136.749 274.822C136.214 275.011 135.712 275.212 135.233 275.412C135.378 275.268 135.534 275.145 135.69 275.011C136.236 274.789 136.804 274.566 137.406 274.343L136.749 274.822Z" fill="#3F00F9"/>
<path d="M255.865 156.772C255.865 164.926 255.754 172.033 255.643 175.71L255.331 175.509C255.242 171.788 255.208 164.792 255.23 156.76C255.23 154.31 255.23 151.97 255.23 149.765L255.832 150.166C255.865 152.249 255.865 154.466 255.865 156.772Z" fill="#3F00F9"/>
<path d="M255.286 149.586C255.286 147.358 255.286 145.309 255.353 143.482L255.855 143.883C255.855 145.71 255.855 147.759 255.855 149.976L255.286 149.586Z" fill="#3F00F9"/>
<path d="M255.866 150.166L255.264 149.765V149.586L255.866 149.977V150.166Z" fill="#3F00F9"/>
<path d="M244.725 143.114C244.761 143.146 244.791 143.184 244.814 143.226C244.814 143.281 244.814 143.337 244.725 143.404V143.114Z" fill="#3F00F9"/>
<path d="M244.97 143.315C245.051 143.162 245.14 143.013 245.238 142.869C245.238 143.125 245.238 143.404 245.238 143.672L244.97 143.315Z" fill="#3F00F9"/>
<path d="M245.427 156.07C245.527 164.882 245.583 172.78 245.572 177.86L245.204 177.938C245.07 172.813 244.925 164.937 244.825 156.103C244.769 151.725 244.736 147.57 244.703 143.849L244.937 143.415L245.282 143.838C245.315 147.57 245.371 151.692 245.427 156.07Z" fill="#3F00F9"/>
<path d="M245.249 143.85L244.903 143.426L244.97 143.314L245.249 143.671V143.85Z" fill="#3F00F9"/>
<path d="M244.725 143.114V142.913L244.881 143.103L244.814 143.226C244.791 143.184 244.761 143.146 244.725 143.114Z" fill="#3F00F9"/>
<path d="M245.572 177.859C246.686 177.625 248.201 177.347 249.816 177.046L251.677 176.634C251.677 176.846 251.677 177.057 251.677 177.269C251.12 177.403 250.563 177.548 249.928 177.67C248.39 177.96 246.964 178.171 245.828 178.327L245.538 178.149L245.572 177.859Z" fill="#3F00F9"/>
<path d="M245.56 178.339V178.149L245.85 178.328H245.594L245.56 178.339Z" fill="#3F00F9"/>
<path d="M245.204 177.938L245.572 177.86V178.15L245.204 177.938Z" fill="#3F00F9"/>
<path d="M245.561 178.339L245.17 178.094V177.949L245.527 178.161L245.561 178.339Z" fill="#3F00F9"/>
<path d="M323.167 215.814L323.679 216.137C323.679 216.794 323.679 217.429 323.679 218.052L323.468 217.139C323.323 216.638 323.245 216.226 323.167 215.814Z" fill="#3F00F9"/>
<path d="M323.067 218.499V217.919L323.122 218.164C323.132 218.279 323.113 218.394 323.067 218.499Z" fill="#3F00F9"/>
<path d="M323.078 215.335C323.078 212.55 323.078 209.597 323.078 206.5C323.078 202.045 323.145 197.912 323.189 194.247L323.769 194.625C323.769 198.246 323.769 202.278 323.769 206.556C323.769 209.809 323.769 212.928 323.691 215.836L323.1 215.446L323.078 215.335Z" fill="#3F00F9"/>
<path d="M323.824 194.012L323.256 193.633C323.256 192.675 323.256 191.762 323.256 190.86L323.791 191.183L323.824 194.012Z" fill="#3F00F9"/>
<path d="M323.289 189.735C323.48 189.989 323.651 190.257 323.802 190.537V190.927L323.278 190.615C323.278 190.325 323.278 190.024 323.289 189.735Z" fill="#3F00F9"/>
<path d="M323.234 193.634L323.802 194.013V194.581L323.223 194.202C323.234 194.013 323.234 193.823 323.234 193.634Z" fill="#3F00F9"/>
<path d="M305.52 207.726L313.63 212.795V213.385L305.208 208.227L299.181 204.518C299.181 204.261 299.181 204.005 299.125 203.749L305.52 207.726Z" fill="#3F00F9"/>
<path d="M317.942 215.524L322.955 218.699C322.955 218.699 322.9 218.799 322.855 218.821C322.791 218.862 322.718 218.885 322.643 218.888L317.708 215.914L313.909 213.597C313.909 213.396 313.909 213.196 313.909 213.006L317.942 215.524Z" fill="#3F00F9"/>
<path d="M263.04 180.411L290.402 198.09L298.2 203.147L298.858 203.56C298.858 203.805 298.858 204.072 298.858 204.328L297.822 203.682L290.023 198.625L262.762 180.801C259.898 178.896 257.492 177.303 255.654 176.066L255.966 175.944L263.04 180.411Z" fill="#3F00F9"/>
<path d="M313.898 212.951C313.898 213.14 313.898 213.341 313.898 213.542L313.619 213.375V212.783L313.898 212.951Z" fill="#3F00F9"/>
<path d="M299.125 203.738C299.125 203.994 299.125 204.25 299.181 204.506L298.88 204.328C298.88 204.072 298.88 203.805 298.88 203.56L299.125 203.738Z" fill="#3F00F9"/>
<path d="M255.654 175.743L255.342 175.81V175.509L255.654 175.71V175.743Z" fill="#3F00F9"/>
<path d="M255.698 175.732L255.999 175.933L255.687 176.055C255.687 175.955 255.687 175.866 255.687 175.765L255.698 175.732Z" fill="#3F00F9"/>
<path d="M255.643 176.033L255.342 175.832L255.654 175.765C255.654 175.843 255.643 175.933 255.643 176.033Z" fill="#3F00F9"/>
<path d="M249.337 140.017C248.507 140.018 247.701 140.292 247.042 140.797C246.481 141.224 245.989 141.735 245.583 142.311C245.449 142.501 245.349 142.679 245.237 142.868V142.434L245.393 142.178C245.797 141.559 246.297 141.01 246.875 140.552C247.576 139.986 248.447 139.672 249.348 139.661C250.167 139.675 250.971 139.877 251.699 140.251C251.699 140.407 251.699 140.54 251.699 140.696C250.978 140.283 250.168 140.05 249.337 140.017Z" fill="#3F00F9"/>
<path d="M254.607 142.891C253.796 142.159 252.932 141.489 252.022 140.886V140.429L252.222 140.529C253.161 141.136 254.055 141.809 254.896 142.545C255.041 142.668 255.208 142.779 255.364 142.902C255.52 143.024 255.364 143.292 255.364 143.481C255.108 143.28 254.84 143.113 254.607 142.891Z" fill="#3F00F9"/>
<path d="M323.278 189.735C323.17 189.574 323.03 189.438 322.866 189.334L322.287 189C314.99 184.544 300.484 175.253 284.308 163.723C278.548 159.623 272.967 155.758 268.187 151.926C265.692 150.166 263.174 148.695 260.857 147.247C259.041 146.133 257.359 145.019 255.843 143.905V143.303C257.425 144.495 259.186 145.643 261.135 146.824C263.453 148.238 265.993 149.698 268.533 151.469C273.357 155.29 278.905 159.111 284.687 163.222C292.753 169.003 300.418 174.206 306.968 178.573L315.814 184.443L319.446 186.827L321.028 187.863L321.763 188.331L322.109 188.554L322.287 188.654H322.365L322.309 188.777L322.387 188.654L322.955 189C323.058 189.07 323.151 189.152 323.234 189.245V189.646L323.278 189.735Z" fill="#3F00F9"/>
<path d="M255.353 143.481C255.353 143.292 255.353 143.092 255.353 142.902L255.843 143.281V143.882L255.353 143.481Z" fill="#3F00F9"/>
<path d="M244.725 143.437C244.725 143.37 244.792 143.315 244.814 143.259L244.959 143.426L244.725 143.861V143.437Z" fill="#3F00F9"/>
<path d="M244.97 143.315C244.918 143.259 244.87 143.199 244.825 143.137C244.947 142.896 245.081 142.662 245.226 142.435V142.869C245.133 143.013 245.047 143.162 244.97 143.315Z" fill="#3F00F9"/>
<path d="M244.903 143.426L244.758 143.259L244.825 143.136C244.87 143.198 244.918 143.258 244.97 143.315L244.903 143.426Z" fill="#3F00F9"/>
<path d="M323.289 189.334C323.365 189.408 323.433 189.49 323.49 189.579C323.605 189.727 323.71 189.883 323.802 190.047V190.537C323.651 190.257 323.48 189.989 323.289 189.735V189.334Z" fill="#3F00F9"/>
<path d="M149.939 289.594H150.017C150.017 289.683 150.017 289.772 150.017 289.873L149.961 289.716L149.939 289.594Z" fill="#3F00F9"/>
<path d="M149.883 289.415L148.914 286.82C148.548 285.682 148.116 284.566 147.622 283.478C147.061 282.314 146.409 281.197 145.672 280.136C144.917 278.975 143.958 277.959 142.842 277.139C141.712 276.388 140.363 276.035 139.01 276.137C137.751 276.272 136.575 276.825 135.668 277.707C135.259 278.091 134.937 278.558 134.726 279.077C134.514 279.596 134.417 280.155 134.442 280.715C134.551 281.727 134.807 282.717 135.2 283.656C135.93 285.572 136.908 287.385 138.107 289.048C137.675 288.69 137.3 288.27 136.993 287.8C136.065 286.579 135.315 285.233 134.765 283.801C134.329 282.823 134.037 281.788 133.896 280.726C133.857 280.087 133.956 279.446 134.187 278.848C134.417 278.25 134.774 277.709 135.233 277.262L135.545 277.006L135.055 277.551L136.815 276.337L137.071 276.014C137.662 275.748 138.289 275.571 138.932 275.49C140.436 275.371 141.935 275.764 143.188 276.604C144.371 277.469 145.383 278.545 146.173 279.779C146.929 280.887 147.589 282.057 148.145 283.277C148.635 284.364 149.055 285.48 149.404 286.619L149.549 287.076C149.683 287.778 149.816 288.569 149.95 289.46L149.883 289.415Z" fill="#3F00F9"/>
<path d="M135.1 277.551L135.59 277.005C136.044 276.598 136.559 276.264 137.116 276.014L136.86 276.337L135.1 277.551Z" fill="#3F00F9"/>
<path d="M150.028 289.482C149.895 288.591 149.761 287.8 149.627 287.098C149.928 287.989 150.207 288.836 150.463 289.616V289.738C150.377 289.683 150.288 289.635 150.195 289.593L150.028 289.482Z" fill="#3F00F9"/>
<path d="M150.028 289.638L150.151 289.705L150.529 289.906C150.529 289.906 150.529 289.984 150.529 290.028C150.641 290.63 150.73 291.276 150.808 291.955L150.061 289.917C150.028 289.817 150.028 289.727 150.028 289.638Z" fill="#3F00F9"/>
<path d="M149.883 289.416L149.995 289.483C149.995 289.483 149.995 289.583 149.995 289.639H149.917L149.883 289.416Z" fill="#3F00F9"/>
<path d="M150.028 289.639C150.028 289.639 150.028 289.527 150.028 289.482L150.229 289.594C150.321 289.635 150.411 289.684 150.496 289.739V289.828C150.496 289.828 150.496 289.884 150.496 289.906L150.117 289.705L150.028 289.639Z" fill="#3F00F9"/>
<path d="M252.055 162.765C252.055 167.811 252.156 172.501 252.223 176.512L251.677 176.634C251.554 172.602 251.454 167.867 251.409 162.765C251.354 155.446 251.409 148.818 251.565 144.027C251.565 142.78 251.632 141.677 251.665 140.685L252.011 140.875V144.016C252.011 148.829 252 155.446 252.055 162.765Z" fill="#3F00F9"/>
<path d="M251.911 182.305V181.981L252.346 182.249V182.572L251.911 182.305Z" fill="#3F00F9"/>
<path d="M252.223 176.534C252.223 176.746 252.223 176.947 252.223 177.147L251.688 177.292C251.688 177.08 251.688 176.869 251.688 176.657L252.223 176.534Z" fill="#3F00F9"/>
<path d="M252.011 140.887L251.666 140.697C251.666 140.541 251.666 140.407 251.666 140.251L252 140.429V140.887H252.011Z" fill="#3F00F9"/>
<path d="M344.747 223.623C346.036 223.327 347.285 222.879 348.468 222.286C349.079 221.992 349.674 221.665 350.25 221.306C350.54 221.116 350.841 220.938 351.119 220.737L351.542 220.437L351.877 220.214C351.988 220.214 352.144 220.359 352.233 220.392L359.675 225.015L393.732 246.181C398.318 248.289 402.26 251.581 405.152 255.717C408.49 259.733 411.185 264.242 413.14 269.085C414.108 271.592 414.752 274.213 415.056 276.883C415.138 279.574 415.512 282.249 416.17 284.859C416.963 287.45 418.441 289.779 420.448 291.599C421.425 292.544 422.555 293.316 423.79 293.883C424.349 294.163 424.992 294.227 425.595 294.061C426.13 293.894 426.419 293.27 426.587 292.646C426.832 291.304 426.855 289.93 426.653 288.58C426.497 287.21 426.252 285.851 425.963 284.514C425.354 281.838 424.61 279.194 423.735 276.593C422.106 271.498 419.987 266.574 417.407 261.889C414.872 257.369 411.885 253.118 408.494 249.2C405.131 245.551 401.43 242.228 397.442 239.274C381.511 228.134 366.872 218.509 354.528 210.533C342.184 202.557 332.068 196.274 325.072 191.963L323.813 191.183V190.927L325.194 191.751C332.235 196.007 342.385 202.234 354.773 210.166C367.162 218.097 381.801 227.7 397.777 238.818C406.143 244.763 413.027 252.554 417.897 261.588C420.517 266.315 422.674 271.284 424.336 276.426C425.215 279.045 425.958 281.707 426.564 284.402C426.872 285.767 427.107 287.146 427.266 288.535C427.474 289.96 427.447 291.408 427.188 292.824C427.128 293.22 426.971 293.594 426.732 293.914C426.493 294.235 426.179 294.492 425.818 294.662C425.078 294.881 424.282 294.814 423.59 294.473C422.291 293.883 421.104 293.072 420.08 292.078C417.987 290.185 416.447 287.759 415.624 285.06C414.966 282.411 414.592 279.7 414.51 276.972C414.221 274.343 413.592 271.763 412.638 269.297C410.701 264.5 408.033 260.032 404.728 256.051C401.87 251.99 397.977 248.767 393.454 246.716L359.475 225.416L352.055 220.771C351.943 220.715 352.055 220.704 351.865 220.771L351.431 221.072C351.141 221.283 350.841 221.462 350.54 221.64C349.954 222.015 349.344 222.35 348.713 222.642C347.498 223.244 346.215 223.697 344.891 223.99C343.916 224.216 342.918 224.328 341.917 224.325C342.541 224.157 343.153 223.979 343.733 223.779C344.033 223.768 344.39 223.701 344.747 223.623Z" fill="#3F00F9"/>
<path d="M331.055 220.47C328.314 219.033 325.863 217.574 323.679 216.137V215.791C326.112 217.378 328.626 218.835 331.211 220.158C333.16 221.139 335.21 222.23 337.438 223.11C338.658 223.595 339.949 223.874 341.26 223.935L340.435 224.124L340.034 224.213C339.094 224.077 338.173 223.826 337.293 223.467C335.032 222.564 333.004 221.462 331.055 220.47Z" fill="#3F00F9"/>
<path d="M323.1 215.524V215.457L323.691 215.847V216.193L323.178 215.87C323.145 215.691 323.122 215.524 323.1 215.524Z" fill="#3F00F9"/>
<path d="M323.267 190.86V190.615L323.791 190.927V191.184L323.267 190.86Z" fill="#3F00F9"/>
<path d="M181.144 281.25L188.063 283.834C190.291 285.283 192.229 286.709 194.235 288.29C198.393 291.48 202.011 295.316 204.952 299.653C206.436 301.916 207.545 304.402 208.239 307.017C208.562 308.354 208.785 309.657 209.197 310.938C209.592 312.218 210.119 313.453 210.768 314.625C212.096 316.991 214.015 318.971 216.338 320.374C217.476 321.107 218.731 321.642 220.048 321.956C220.654 322.122 221.301 322.059 221.864 321.777C222.098 321.589 222.282 321.347 222.4 321.071C222.519 320.795 222.568 320.494 222.543 320.195C222.513 318.831 222.26 317.48 221.797 316.196C221.365 314.887 220.867 313.6 220.304 312.342C216.96 304.951 212.611 298.057 207.381 291.855C204.593 288.647 201.553 285.667 198.29 282.943L199.404 283.088C202.417 285.67 205.236 288.47 207.838 291.465C211.357 295.568 214.462 300.008 217.107 304.722C218.488 307.118 219.745 309.583 220.872 312.108C221.446 313.383 221.952 314.689 222.387 316.018C222.879 317.372 223.143 318.799 223.167 320.24C223.187 320.638 223.11 321.035 222.941 321.397C222.772 321.758 222.517 322.072 222.198 322.312C221.512 322.668 220.72 322.763 219.97 322.579C218.578 322.252 217.252 321.69 216.048 320.919C213.632 319.461 211.636 317.399 210.255 314.937C209.586 313.725 209.041 312.449 208.629 311.127C208.205 309.824 207.971 308.454 207.659 307.184C206.992 304.627 205.912 302.196 204.462 299.987C201.561 295.706 197.991 291.919 193.889 288.769C192.909 287.956 191.895 287.221 190.892 286.463C190.391 286.085 189.868 285.739 189.355 285.349L187.873 284.325L180.966 281.729L155.108 272.026L154.54 271.814C155.108 271.814 155.654 271.814 156.256 271.903L181.144 281.25Z" fill="#3F00F9"/>
<path d="M134.821 264.217C134.933 263.972 135.178 264.217 135.323 264.217L134.665 264.395L134.821 264.217Z" fill="#3F00F9"/>
<path d="M117.854 269.397L116.74 269.096L117.386 268.884L118.5 269.185L117.854 269.397Z" fill="#3F00F9"/>
<path d="M150.474 259.995L149.505 259.605L150.284 259.393L151.265 259.783L150.474 259.995Z" fill="#3F00F9"/>
<path d="M197.577 282.364L198.691 282.509C198.925 282.709 199.181 282.899 199.415 283.11L198.301 282.965L197.577 282.364Z" fill="#3F00F9"/>
<path d="M149.716 269.564L148.847 269.764L147.945 269.419L148.769 269.208L149.716 269.564Z" fill="#3F00F9"/>
<path d="M170.939 267.815L172.945 268.662L172.321 268.572L170.995 268.428L169.124 267.648L170.939 267.815Z" fill="#3F00F9"/>
<path d="M153.538 271.502C154.039 271.502 154.54 271.502 155.053 271.502L155.264 271.58L156.234 271.937C155.654 271.937 155.12 271.87 154.518 271.848L153.471 271.458L153.538 271.502Z" fill="#3F00F9"/>
<path d="M322.51 218.866C322.554 218.876 322.599 218.876 322.643 218.866L323.067 219.133L323.234 219.222L323.178 219.278C322.986 219.408 322.763 219.484 322.532 219.501L322.03 219.579H321.897L321.217 219.167L321.083 219.089L321.941 218.966L322.51 218.866Z" fill="#3F00F9"/>
<path d="M313.798 219.902C313.932 219.951 314.069 219.988 314.21 220.013C314.53 220.055 314.855 220.036 315.168 219.958L316.282 219.79L318.588 219.445L320.482 219.167L321.05 219.534L321.262 219.668H320.995L318.688 220.013L316.382 220.347L315.268 220.503C314.9 220.57 314.522 220.57 314.154 220.503H314.087C314.087 220.336 314.087 220.169 314.087 220.002L313.798 219.902Z" fill="#3F00F9"/>
<path d="M322.955 218.643C323.002 218.603 323.04 218.554 323.067 218.498V218.71L322.955 218.643Z" fill="#3F00F9"/>
<path d="M310.01 218.253L310.856 218.61L312.427 219.289C312.717 219.423 312.973 219.523 313.33 219.701C313.435 219.768 313.547 219.824 313.664 219.868C313.664 220.069 313.664 220.258 313.664 220.458H313.519L310.01 218.253Z" fill="#3F00F9"/>
<path d="M313.664 219.868H313.753L313.998 220.025C313.998 220.192 313.998 220.359 313.998 220.526C313.885 220.501 313.773 220.468 313.664 220.426C313.675 220.259 313.664 220.069 313.664 219.868Z" fill="#3F00F9"/>
<path d="M323.067 218.709V218.498C323.113 218.393 323.132 218.278 323.122 218.164L323.067 217.918C323.067 217.206 323.067 216.493 323.067 215.691L323.156 215.758C323.234 216.17 323.312 216.615 323.434 217.083L323.646 217.996C323.646 218.141 323.646 218.286 323.646 218.42C323.621 218.592 323.556 218.756 323.457 218.899L323.067 218.709Z" fill="#3F00F9"/>
<path d="M322.956 218.643L323.067 218.71V219.1L322.643 218.833C322.719 218.829 322.792 218.806 322.855 218.766C322.855 218.766 322.922 218.688 322.956 218.643Z" fill="#3F00F9"/>
<path d="M323.457 218.955C323.391 219.041 323.317 219.12 323.234 219.19L323.067 219.1V218.71L323.457 218.955Z" fill="#3F00F9"/>
<path d="M323.089 215.401V215.524C323.089 215.625 323.089 215.747 323.156 215.87L323.067 215.803V215.446L323.089 215.401Z" fill="#3F00F9"/>
<path d="M326.442 222.208C327.434 222.765 328.47 223.322 329.584 223.823C330.735 224.31 331.951 224.626 333.194 224.759C335.487 224.974 337.8 224.797 340.034 224.235C340.639 224.329 341.249 224.378 341.861 224.38L340.569 224.703C338.149 225.376 335.627 225.603 333.127 225.372C331.824 225.242 330.549 224.908 329.35 224.38C328.256 223.88 327.188 223.322 326.153 222.709C324.27 221.595 322.61 220.604 321.206 219.69L321.897 219.59C323.223 220.359 324.738 221.25 326.442 222.208Z" fill="#3F00F9"/>
<path d="M340.435 224.124L341.259 223.935C342.067 223.971 342.877 223.93 343.677 223.812C343.098 224.013 342.485 224.191 341.861 224.358C341.249 224.355 340.638 224.307 340.034 224.213L340.435 224.124Z" fill="#3F00F9"/>
<path d="M320.482 219.167L320.906 219.111H321.139L321.273 219.189L321.953 219.601L321.262 219.701L321.05 219.568L320.482 219.167Z" fill="#3F00F9"/>
<g filter="url(#filter0_i_1108_2439)">
<path d="M63.9037 269.828L63.3775 261.666L65.0388 261.053L65.3987 268.262L65.5697 268.199L68.8255 259.656L70.4867 259.043L66.6644 268.809L63.9037 269.828ZM69.8668 267.628L71.5148 258.664L75.2282 257.293C75.7657 257.095 76.2159 257.021 76.5788 257.07C76.9418 257.119 77.2002 257.282 77.3542 257.559C77.5081 257.837 77.5403 258.219 77.4509 258.705L77.4226 258.859C77.3237 259.397 77.1215 259.877 76.816 260.301C76.5105 260.724 76.1645 261.078 75.7779 261.364L75.7355 261.595C76.0581 261.491 76.2886 261.518 76.4269 261.674C76.5669 261.821 76.6039 262.074 76.5379 262.432L75.9988 265.365L74.3864 265.96L74.8808 263.271C74.9185 263.066 74.8961 262.919 74.8138 262.83C74.7396 262.738 74.5845 262.735 74.3483 262.823L72.1007 263.652L71.4792 267.033L69.8668 267.628ZM72.3832 262.115L74.3132 261.403C74.696 261.262 75.0128 261.046 75.2638 260.754C75.5245 260.451 75.6878 260.12 75.7537 259.761L75.7773 259.633C75.8432 259.275 75.7899 259.028 75.6174 258.893C75.4465 258.749 75.1656 258.749 74.7747 258.893L72.8447 259.605L72.3832 262.115Z" fill="#9866FF"/>
</g>
<path d="M272.418 347.159C272.418 347.743 278.182 348.298 282.924 348.318C287.857 348.318 293.515 347.773 293.515 347.199C293.515 346.624 288.267 346.13 284.14 346.04C278.562 345.915 272.418 346.549 272.418 347.159Z" fill="#E74A9F"/>
<path d="M246.894 347.159C246.894 347.743 252.657 348.298 257.4 348.318C262.332 348.318 267.991 347.773 267.991 347.199C267.991 346.624 262.743 346.13 258.615 346.04C253.037 345.915 246.894 346.549 246.894 347.159Z" fill="#FF6E61"/>
<path d="M393.612 347.159C393.612 347.738 399.376 348.298 404.118 348.313C409.051 348.313 414.709 347.768 414.714 347.199C414.719 346.629 409.461 346.125 405.334 346.04C399.756 345.92 393.612 346.549 393.612 347.159Z" fill="#0894FF"/>
<path d="M367.993 347.159C367.993 347.743 373.756 348.298 378.499 348.313C383.437 348.313 389.095 347.768 389.095 347.199C389.095 346.629 383.842 346.125 379.719 346.04C374.136 345.915 367.993 346.549 367.993 347.159Z" fill="#5463FF"/>
<path d="M325.659 344.961C326.271 344.193 327.047 343.571 327.93 343.14C328.814 342.709 329.782 342.481 330.765 342.471C331.748 342.462 332.721 342.671 333.613 343.085C334.504 343.498 335.293 344.105 335.92 344.861C336.056 345.464 336.07 346.089 335.959 346.698C335.848 347.306 335.615 347.886 335.274 348.403C334.074 350.047 331.992 350.076 331.012 350.091C330.276 350.091 327.37 350.146 326.104 348.008C325.595 347.078 325.437 345.997 325.659 344.961Z" fill="#D1C2FF"/>
<path d="M265.124 351.73C264.878 351.84 264.677 352.03 264.554 352.27C264.425 352.521 264.393 352.811 264.464 353.084C264.51 353.236 264.586 353.378 264.689 353.499C264.791 353.621 264.917 353.721 265.059 353.793L308.084 360.098C307.109 361.699 306.374 363.435 305.902 365.249C305.524 366.773 305.314 368.335 305.277 369.905C305.227 371.012 305.247 372.122 305.337 373.227C305.287 373.413 305.28 373.609 305.317 373.798C305.355 373.987 305.435 374.165 305.551 374.319C305.668 374.472 305.818 374.597 305.991 374.684C306.163 374.77 306.354 374.817 306.547 374.819C306.74 374.82 306.931 374.778 307.105 374.695C307.279 374.612 307.432 374.49 307.552 374.339C307.672 374.188 307.755 374.011 307.796 373.823C307.837 373.635 307.835 373.439 307.788 373.252C307.685 371.702 307.756 370.145 307.999 368.611C308.461 365.74 309.504 362.993 311.065 360.538L313.952 360.957C314.869 362.173 315.958 363.25 317.184 364.155C317.868 364.671 318.614 365.099 319.405 365.429C319.989 365.664 320.593 365.843 321.211 365.963C323.459 366.345 325.731 366.572 328.01 366.643C328.01 367.322 328.01 368.001 328.01 368.681C327.659 368.69 327.314 368.768 326.993 368.912C326.673 369.055 326.385 369.261 326.145 369.517C325.905 369.773 325.718 370.073 325.596 370.402C325.474 370.731 325.418 371.08 325.432 371.43C325.447 371.78 325.531 372.124 325.679 372.442C325.828 372.759 326.038 373.044 326.298 373.28C326.558 373.515 326.862 373.697 327.193 373.814C327.524 373.931 327.875 373.981 328.225 373.961C328.358 374.368 328.622 374.719 328.976 374.961C329.351 375.2 329.826 375.195 330.752 375.175C331.677 375.155 332.172 375.135 332.533 374.861C332.828 374.616 333.039 374.283 333.133 373.911C333.613 373.993 334.106 373.941 334.559 373.762C334.959 373.587 335.313 373.322 335.592 372.986C335.871 372.65 336.067 372.254 336.165 371.828C336.224 371.362 336.17 370.889 336.007 370.448C335.844 370.007 335.577 369.612 335.229 369.295C334.912 368.98 334.508 368.766 334.068 368.681H333.743H333.438L333.508 366.723C335.109 366.714 336.707 366.592 338.291 366.358C340.292 366.058 341.578 365.888 342.918 365.239C344.858 364.263 346.467 362.739 347.546 360.857L350.233 360.473C350.628 361.132 350.978 361.662 351.233 362.021C351.566 362.469 351.873 362.934 352.154 363.415C352.407 363.894 352.613 364.396 352.769 364.914C353.182 366.331 353.426 367.791 353.495 369.265C353.57 370.29 353.645 371.618 353.655 373.187C353.592 373.383 353.576 373.591 353.608 373.795C353.639 373.998 353.717 374.191 353.836 374.359C353.955 374.528 354.111 374.666 354.292 374.764C354.474 374.862 354.675 374.917 354.881 374.924C355.087 374.931 355.292 374.89 355.479 374.805C355.667 374.72 355.833 374.593 355.963 374.434C356.093 374.274 356.185 374.087 356.23 373.886C356.276 373.686 356.275 373.477 356.226 373.277C356.233 371.899 356.169 370.522 356.036 369.15C355.945 367.583 355.692 366.03 355.281 364.514C354.814 362.941 354.125 361.442 353.234 360.063L396.759 353.843C396.896 353.715 397.005 353.56 397.081 353.388C397.157 353.217 397.197 353.032 397.199 352.844C397.194 352.648 397.146 352.455 397.06 352.278C396.974 352.102 396.851 351.946 396.699 351.82H394.928L394.873 350.921H392.597C392.597 349.495 392.585 348.072 392.562 346.649C392.539 346.347 392.402 346.064 392.178 345.859C391.954 345.653 391.661 345.541 391.357 345.544C391.053 345.547 390.762 345.666 390.542 345.876C390.323 346.086 390.192 346.371 390.175 346.674L390.125 350.916H387.804V351.815L351.613 351.655C347.26 347.768 341.766 345.39 335.95 344.876C336.208 346.016 336.014 347.212 335.409 348.213C334.148 350.121 331.642 350.082 330.842 350.072C330.216 350.072 326.934 349.922 325.839 347.549C325.495 346.726 325.425 345.816 325.639 344.951C319.853 345.356 314.372 347.691 310.075 351.58L288.102 351.645L273.714 351.7L273.679 350.936L271.458 350.896C271.458 349.527 271.458 348.163 271.458 346.794C271.45 346.48 271.324 346.18 271.105 345.953C270.887 345.727 270.591 345.59 270.277 345.57C270.104 345.572 269.934 345.609 269.776 345.678C269.617 345.748 269.475 345.849 269.357 345.975C269.239 346.101 269.148 346.25 269.09 346.412C269.031 346.574 269.006 346.747 269.016 346.919V350.881H266.62V351.705L265.124 351.73Z" fill="url(#paint0_radial_1108_2439)"/>
<path d="M347.476 360.708L347.276 361.027L347.101 361.292C346.981 361.467 346.856 361.637 346.731 361.792C346.48 362.126 346.213 362.448 345.93 362.756C345.369 363.369 344.746 363.922 344.069 364.404C343.395 364.87 342.65 365.224 341.863 365.454C341.083 365.694 340.287 365.881 339.481 366.013C337.529 366.319 335.559 366.501 333.583 366.558V366.802C335.57 366.753 337.552 366.576 339.517 366.273C340.333 366.136 341.14 365.948 341.933 365.708C342.747 365.477 343.519 365.118 344.219 364.644C344.91 364.151 345.547 363.587 346.12 362.961C346.41 362.646 346.681 362.321 346.941 361.962C347.066 361.792 347.191 361.617 347.311 361.462L347.491 361.192L347.631 360.972L350.213 360.603L350.033 360.368L347.476 360.708Z" fill="#3F00F9"/>
<path d="M266.555 351.745V351.705H265.924H265.129C265.129 351.705 265.399 351.705 265.924 351.705L266.555 351.745Z" fill="#3F00F9"/>
<path d="M276.451 355.397L266.115 353.898L265.279 353.778L265.084 353.753C265.014 353.753 264.969 353.753 264.924 353.698C264.829 353.631 264.746 353.548 264.679 353.454C264.563 353.304 264.488 353.127 264.459 352.94C264.43 352.753 264.449 352.562 264.514 352.385C264.633 352.099 264.849 351.864 265.124 351.72C265.05 351.748 264.981 351.787 264.919 351.835C264.724 351.968 264.572 352.156 264.484 352.375C264.415 352.558 264.392 352.755 264.42 352.949C264.447 353.143 264.522 353.327 264.639 353.484C264.71 353.579 264.794 353.665 264.889 353.738C264.942 353.78 265.007 353.803 265.074 353.803L265.269 353.833L266.105 353.958L276.435 355.507L308.004 360.178L308.124 359.993L276.451 355.397Z" fill="#3F00F9"/>
<path d="M328.055 366.578C328.055 366.633 328.055 366.693 328.055 366.753V366.817C328.675 366.817 329.296 366.852 329.921 366.857C331.087 366.857 332.267 366.857 333.458 366.812V366.723C333.458 366.668 333.458 366.618 333.458 366.573C332.262 366.608 331.082 366.618 329.911 366.618C329.306 366.613 328.68 366.598 328.055 366.578Z" fill="#3F00F9"/>
<path d="M350.383 360.553L353.229 360.148L353.069 359.903L350.198 360.318L350.383 360.553Z" fill="#3F00F9"/>
<path d="M308.154 360.213L311 360.648L311.13 360.453L308.299 360.043L308.154 360.213Z" fill="#3F00F9"/>
<path d="M394.848 351.655H387.844V351.74C387.844 351.82 387.844 351.88 387.844 351.93H394.898C394.898 351.89 394.898 351.845 394.898 351.79L394.848 351.655Z" fill="#3F00F9"/>
<path d="M336.215 345.046H336.445L337.295 345.151C337.861 345.231 338.426 345.325 338.991 345.44C342.458 346.151 345.752 347.532 348.687 349.507C349.187 349.842 349.687 350.191 350.153 350.561C350.393 350.746 350.628 350.936 350.863 351.126L351.208 351.42L351.588 351.75L387.749 351.86C387.749 351.81 387.749 351.75 387.749 351.665V351.585L351.698 351.485L351.393 351.221L351.038 350.926C350.803 350.731 350.563 350.541 350.323 350.356C349.822 349.982 349.347 349.627 348.847 349.292C347.848 348.62 346.805 348.016 345.725 347.484C343.609 346.436 341.366 345.667 339.051 345.196C338.481 345.081 337.911 344.981 337.34 344.901L336.48 344.796L335.979 344.746L336.18 344.981C336.188 345.004 336.2 345.026 336.215 345.046Z" fill="#3F00F9"/>
<path d="M335.824 344.896V345.006L335.864 345.256C335.957 345.798 335.938 346.354 335.809 346.889C335.68 347.424 335.444 347.927 335.114 348.368C334.398 349.194 333.402 349.728 332.317 349.867C331.249 350.039 330.158 350.01 329.101 349.782C328.059 349.597 327.11 349.069 326.404 348.283C326.087 347.878 325.859 347.412 325.734 346.914C325.609 346.415 325.59 345.896 325.679 345.39C325.679 345.256 325.709 345.196 325.759 344.971C325.644 345.101 325.544 345.231 325.448 345.36C325.355 345.897 325.375 346.447 325.508 346.976C325.64 347.504 325.883 347.999 326.219 348.428C326.958 349.258 327.952 349.819 329.046 350.022C330.134 350.256 331.257 350.286 332.357 350.111C333.504 349.962 334.555 349.394 335.309 348.518C335.655 348.058 335.905 347.534 336.044 346.976C336.183 346.418 336.209 345.838 336.12 345.271L336.014 345.131C335.969 345.051 335.894 344.976 335.824 344.896Z" fill="#3F00F9"/>
<path d="M396.959 351.845C396.901 351.785 396.839 351.728 396.774 351.675C396.729 351.615 396.614 351.635 396.594 351.635H394.963V351.77C394.963 351.825 394.963 351.87 394.963 351.91H396.634C396.683 351.947 396.728 351.989 396.769 352.035C396.859 352.128 396.933 352.234 396.989 352.35C397.099 352.584 397.124 352.849 397.059 353.099C397.027 353.223 396.974 353.341 396.904 353.449L396.784 353.599C396.704 353.669 396.784 353.624 396.684 353.649L395.834 353.768L392.437 354.268L385.713 355.232L372.535 357.111L353.229 359.883L353.389 360.128L372.575 357.38L385.748 355.497L392.472 354.533L395.869 354.033L396.719 353.913H396.774C396.806 353.917 396.838 353.917 396.869 353.913L396.984 353.803C397.037 353.744 397.085 353.68 397.129 353.614C397.217 353.482 397.283 353.337 397.325 353.184C397.406 352.872 397.374 352.541 397.234 352.25C397.166 352.101 397.073 351.964 396.959 351.845Z" fill="#3F00F9"/>
<path d="M268.256 351.69H266.655V351.73H273.659V351.655L268.256 351.69Z" fill="#3F00F9"/>
<path d="M327.96 366.578C325.582 366.545 323.213 366.27 320.891 365.758C320.182 365.591 319.492 365.353 318.83 365.049C318.189 364.725 317.581 364.34 317.014 363.9C316.452 363.469 315.922 362.998 315.428 362.491C315.183 362.241 314.927 361.992 314.717 361.717L314.387 361.312L314.042 360.867L311.27 360.463L311.145 360.658L313.922 361.067L314.217 361.447L314.552 361.857C314.782 362.126 315.022 362.391 315.268 362.646C315.77 363.16 316.308 363.637 316.879 364.075C317.456 364.526 318.076 364.921 318.73 365.254C319.407 365.561 320.112 365.804 320.836 365.978C323.174 366.499 325.56 366.778 327.955 366.812V366.758C327.955 366.693 327.96 366.643 327.96 366.578Z" fill="#3F00F9"/>
<path d="M277.226 351.74L310.125 351.66L310.67 351.161L311.2 350.716C311.56 350.426 311.931 350.146 312.311 349.867C314.669 348.155 317.301 346.856 320.095 346.025C321.068 345.741 322.055 345.511 323.052 345.335C323.552 345.251 324.053 345.181 324.553 345.121L325.323 345.046H325.413C325.472 344.961 325.536 344.879 325.604 344.801H325.548H325.308L324.528 344.876C324.028 344.936 323.497 345.011 322.987 345.101C321.982 345.274 320.987 345.507 320.01 345.8C318.121 346.378 316.303 347.169 314.592 348.158C313.763 348.632 312.959 349.151 312.186 349.712C311.806 349.992 311.43 350.276 311.07 350.571L310.535 351.021L310.035 351.455L277.216 351.62L273.769 351.645V351.74H277.226Z" fill="#3F00F9"/>
<path d="M309.865 362.536C308.975 364.305 308.346 366.193 307.998 368.141C307.791 369.288 307.669 370.449 307.633 371.613C307.633 372.218 307.633 372.837 307.633 373.457C307.659 373.74 307.576 374.022 307.4 374.245C307.224 374.468 306.969 374.615 306.688 374.656C306.407 374.684 306.126 374.601 305.906 374.424C305.686 374.247 305.545 373.992 305.512 373.712C305.462 373.102 305.422 372.488 305.407 371.888C305.381 370.736 305.42 369.584 305.522 368.436C305.645 366.485 306.085 364.567 306.823 362.756C307.191 361.878 307.629 361.031 308.134 360.223H307.983C307.465 361.016 307.015 361.852 306.638 362.721C305.867 364.542 305.403 366.478 305.267 368.451C305.154 369.613 305.11 370.781 305.137 371.948C305.137 372.553 305.187 373.162 305.237 373.797C305.278 374.153 305.46 374.478 305.741 374.701C306.022 374.924 306.381 375.026 306.738 374.986C307.09 374.936 307.41 374.752 307.631 374.473C307.852 374.194 307.956 373.841 307.923 373.487C307.893 372.862 307.893 372.253 307.923 371.653C307.956 370.503 308.071 369.356 308.269 368.221C308.594 366.289 309.19 364.412 310.04 362.646C310.369 361.97 310.738 361.315 311.145 360.683L311 360.648C310.585 361.254 310.205 361.885 309.865 362.536Z" fill="#3F00F9"/>
<path d="M308.273 360.028H308.123L308.003 360.213H308.153L308.273 360.028Z" fill="#3F00F9"/>
<path d="M311.105 360.438L311 360.648L311.17 360.673L311.295 360.478L311.105 360.438Z" fill="#3F00F9"/>
<path d="M354.6 362.781C355.325 364.607 355.755 366.536 355.876 368.496C355.981 369.6 356.061 370.759 356.071 371.993C356.071 372.293 356.071 372.598 356.071 372.907C356.072 373.208 356.057 373.508 356.026 373.807C355.958 374.081 355.79 374.321 355.554 374.478C355.319 374.636 355.033 374.699 354.752 374.657C354.472 374.614 354.218 374.468 354.04 374.248C353.862 374.028 353.773 373.749 353.79 373.467C353.79 372.837 353.79 372.218 353.79 371.613C353.765 370.444 353.681 369.277 353.54 368.116C353.419 367.063 353.209 366.022 352.914 365.004C352.665 364.106 352.257 363.26 351.709 362.506L350.433 360.618L350.393 360.573L350.223 360.598L350.303 360.713L351.543 362.611C352.544 363.965 353.014 365.953 353.284 368.146C353.422 369.297 353.499 370.455 353.515 371.613C353.515 372.216 353.515 372.831 353.515 373.457C353.486 373.814 353.594 374.168 353.817 374.449C354.041 374.729 354.363 374.913 354.718 374.965C355.073 375.016 355.434 374.931 355.728 374.726C356.022 374.521 356.227 374.212 356.301 373.862C356.339 373.545 356.356 373.226 356.351 372.907V371.983C356.351 370.769 356.256 369.595 356.141 368.486C356.042 367.431 355.875 366.383 355.641 365.349C355.431 364.447 355.141 363.566 354.775 362.716C354.388 361.818 353.919 360.956 353.374 360.143H353.224C353.756 360.982 354.216 361.865 354.6 362.781Z" fill="#3F00F9"/>
<path d="M353.069 359.903L353.229 360.148H353.379L353.219 359.903H353.069Z" fill="#3F00F9"/>
<path d="M350.197 360.318H350.032L350.212 360.553L350.382 360.528L350.197 360.318Z" fill="#3F00F9"/>
<path d="M332.707 374.551C332.292 375.135 331.477 375.001 330.706 375.051C329.936 375.1 329.125 375.16 328.705 374.591C328.586 374.448 328.487 374.29 328.41 374.121H328.12C328.209 374.356 328.338 374.574 328.5 374.766C328.631 374.918 328.789 375.045 328.965 375.14C329.151 375.227 329.351 375.28 329.556 375.295C329.94 375.325 330.326 375.335 330.711 375.325C331.097 375.325 331.477 375.325 331.867 375.28C332.071 375.266 332.27 375.212 332.452 375.12C332.629 375.023 332.785 374.892 332.913 374.736C333.08 374.535 333.209 374.304 333.293 374.056H333.013C332.938 374.236 332.835 374.403 332.707 374.551Z" fill="#3F00F9"/>
<path d="M328.12 368.586C328.12 367.867 328.08 367.267 328.065 366.817H327.955C327.955 367.267 327.955 367.867 327.955 368.586H328.13H328.12Z" fill="#3F00F9"/>
<path d="M333.373 368.641H333.553C333.553 367.897 333.553 367.272 333.553 366.807H333.443C333.443 367.277 333.413 367.897 333.373 368.641Z" fill="#3F00F9"/>
<path d="M333.583 366.568H333.483C333.483 366.613 333.483 366.663 333.483 366.718V366.808H333.593V366.563L333.583 366.568Z" fill="#3F00F9"/>
<path d="M328.065 366.753C328.065 366.693 328.065 366.633 328.065 366.578H327.97C327.97 366.633 327.97 366.693 327.97 366.758V366.813H328.08L328.065 366.753Z" fill="#3F00F9"/>
<path d="M330.046 368.596H328.12V368.821H330.036L333.003 368.771H333.358V368.641H332.998L330.046 368.596Z" fill="#3F00F9"/>
<path d="M328.31 373.832C328.34 373.925 328.375 374.017 328.415 374.106H328.915H330.291L332.888 374.071H333.013C333.047 373.988 333.077 373.903 333.103 373.817H332.893L328.31 373.832Z" fill="#3F00F9"/>
<path d="M327.535 373.837C327.104 373.728 326.708 373.514 326.383 373.213C326.058 372.911 325.814 372.533 325.674 372.113C325.543 371.721 325.511 371.303 325.582 370.895C325.653 370.488 325.823 370.105 326.079 369.78C326.316 369.476 326.614 369.226 326.954 369.046C327.115 368.964 327.282 368.897 327.455 368.846L327.565 368.816H327.93V368.581H327.565C327.507 368.585 327.45 368.597 327.395 368.616C327.199 368.666 327.009 368.738 326.829 368.831C326.45 369.02 326.119 369.291 325.859 369.625C325.576 369.983 325.386 370.405 325.306 370.854C325.226 371.303 325.257 371.764 325.398 372.198C325.552 372.663 325.822 373.082 326.181 373.416C326.541 373.75 326.979 373.987 327.455 374.106C327.479 374.111 327.505 374.111 327.53 374.106H328.11C328.075 374.011 328.045 373.921 328.02 373.827L327.535 373.837Z" fill="#3F00F9"/>
<path d="M335.039 369.2C335.368 369.456 335.638 369.78 335.829 370.15C336.084 370.634 336.172 371.189 336.08 371.728C335.964 372.375 335.607 372.954 335.079 373.347C334.934 373.455 334.778 373.547 334.614 373.622C334.533 373.663 334.449 373.7 334.364 373.732C334.285 373.762 334.202 373.782 334.118 373.792H333.398C333.378 373.876 333.353 373.96 333.323 374.041H334.123C334.332 374.011 334.534 373.943 334.719 373.842C334.896 373.758 335.064 373.656 335.219 373.537C335.797 373.11 336.186 372.476 336.305 371.768C336.39 371.187 336.281 370.593 335.995 370.08C335.784 369.698 335.49 369.368 335.134 369.116C334.909 368.96 334.663 368.837 334.404 368.751C334.316 368.714 334.223 368.694 334.128 368.691C334.45 368.826 334.756 368.997 335.039 369.2Z" fill="#3F00F9"/>
<path d="M333.818 368.711C333.912 368.71 334.006 368.702 334.098 368.686C334.007 368.663 333.912 368.653 333.818 368.656H333.553V368.731L333.818 368.711Z" fill="#3F00F9"/>
<path d="M333.098 373.797C333.072 373.883 333.042 373.968 333.008 374.052H333.298C333.327 373.97 333.352 373.886 333.373 373.802L333.098 373.797Z" fill="#3F00F9"/>
<path d="M333.368 368.726H333.553V368.641H333.373L333.368 368.726Z" fill="#3F00F9"/>
<path d="M328.01 368.816H328.145V368.591H327.97V368.826L328.01 368.816Z" fill="#3F00F9"/>
<path d="M328.415 374.107C328.375 374.017 328.34 373.925 328.31 373.832H328.035C328.035 373.927 328.09 374.017 328.125 374.112H328.415V374.107Z" fill="#3F00F9"/>
<path d="M325.789 344.911C325.787 344.931 325.787 344.951 325.789 344.971C326.249 344.44 326.787 343.982 327.385 343.612C327.857 343.328 328.361 343.1 328.885 342.933C329.447 342.76 330.029 342.661 330.616 342.638C331.758 342.599 332.89 342.855 333.903 343.382C334.637 343.759 335.295 344.267 335.844 344.881V344.791V344.741H335.894H335.994H336.014C335.356 343.956 334.528 343.331 333.592 342.914C332.655 342.496 331.636 342.298 330.611 342.333C329.998 342.356 329.391 342.46 328.805 342.643C328.264 342.823 327.745 343.064 327.259 343.362C326.656 343.753 326.114 344.233 325.654 344.786C325.729 344.806 325.864 344.766 325.789 344.911Z" fill="#3F00F9"/>
<path d="M335.849 344.761H335.799V344.811V344.901C335.869 344.981 335.944 345.056 336.009 345.136L336.114 345.276C336.112 345.259 336.112 345.243 336.114 345.226L336.084 345.056H336.184C336.175 345.043 336.167 345.03 336.159 345.016L335.959 344.781H335.919L335.849 344.761Z" fill="#3F00F9"/>
<path d="M325.508 345.066C325.508 345.036 325.473 345.246 325.458 345.356C325.553 345.226 325.653 345.096 325.768 344.966C325.766 344.946 325.766 344.926 325.768 344.906C325.843 344.761 325.708 344.801 325.608 344.811C325.541 344.889 325.477 344.971 325.418 345.056C325.508 345.056 325.508 345.046 325.508 345.066Z" fill="#3F00F9"/>
<path d="M266.72 350.991H266.975H267.355H268.211H268.991C268.991 350.921 268.991 350.831 268.991 350.726H268.236L266.565 350.756C266.565 350.881 266.565 350.996 266.565 351.106V351.335C266.565 351.46 266.565 351.565 266.565 351.655H266.67C266.675 351.525 266.695 351.286 266.72 350.991Z" fill="#3F00F9"/>
<path d="M272.158 351.036H272.994H273.619L273.659 351.68H273.779V351.465V351.216C273.779 351.101 273.779 350.976 273.779 350.846L272.128 350.811H271.503C271.503 350.916 271.503 351.001 271.503 351.071L272.158 351.036Z" fill="#3F00F9"/>
<path d="M271.443 351.041C271.443 350.966 271.443 350.881 271.443 350.776H270.232H269.091C269.091 350.881 269.091 350.971 269.091 351.041H270.252H271.443Z" fill="#3F00F9"/>
<path d="M266.655 351.745V351.705H266.55V351.745H266.655Z" fill="#3F00F9"/>
<path d="M273.664 351.745H273.779V351.655H273.659L273.664 351.745Z" fill="#3F00F9"/>
<path d="M269.126 349.347C269.126 348.778 269.126 348.098 269.166 347.349C269.166 347.164 269.166 346.959 269.166 346.779C269.18 346.602 269.237 346.43 269.331 346.28C269.432 346.121 269.572 345.992 269.738 345.904C269.903 345.817 270.089 345.774 270.277 345.78C270.464 345.788 270.647 345.844 270.806 345.943C270.966 346.042 271.097 346.18 271.187 346.345C271.273 346.498 271.319 346.669 271.322 346.844C271.322 347.044 271.322 347.234 271.322 347.424C271.322 348.178 271.322 348.853 271.358 349.422C271.393 349.992 271.388 350.461 271.408 350.781H271.518C271.518 350.461 271.548 349.997 271.558 349.422C271.568 348.848 271.558 348.178 271.558 347.424V346.844C271.558 346.62 271.503 346.398 271.398 346.2C271.288 345.99 271.124 345.814 270.923 345.688C270.722 345.563 270.492 345.493 270.255 345.486C270.018 345.479 269.784 345.535 269.576 345.648C269.368 345.761 269.194 345.927 269.071 346.13C268.952 346.321 268.883 346.539 268.871 346.764C268.871 346.974 268.871 347.159 268.871 347.349C268.871 348.103 268.871 348.778 268.871 349.347C268.871 349.917 268.871 350.456 268.911 350.776H269.011C269.091 350.451 269.111 349.967 269.126 349.347Z" fill="#3F00F9"/>
<path d="M271.443 351.041H271.513C271.513 350.971 271.513 350.886 271.513 350.781H271.403C271.428 350.881 271.433 350.966 271.443 351.041Z" fill="#3F00F9"/>
<path d="M269.051 351.036C269.051 350.966 269.051 350.876 269.051 350.771H268.976C268.976 350.876 268.976 350.966 268.976 351.036H269.051Z" fill="#3F00F9"/>
<path d="M393.342 350.971H394.183H394.558H394.808C394.808 351.246 394.838 351.47 394.848 351.66H394.963V351.4V351.156C394.963 351.036 394.963 350.916 394.963 350.781L393.312 350.746H392.622C392.622 350.856 392.622 350.941 392.622 351.011L393.342 350.971Z" fill="#3F00F9"/>
<path d="M392.547 350.976C392.547 350.906 392.547 350.816 392.547 350.711H391.401H390.19C390.19 350.826 390.19 350.916 390.165 350.976H391.401H392.547Z" fill="#3F00F9"/>
<path d="M387.904 350.926H388.164H388.544H389.4H390.115C390.115 350.866 390.115 350.776 390.115 350.661H389.42L387.749 350.691V351.271V351.56H387.854C387.859 351.435 387.884 351.206 387.904 350.926Z" fill="#3F00F9"/>
<path d="M387.749 351.885H387.814C387.814 351.835 387.814 351.775 387.814 351.695V351.61H387.709V351.69C387.744 351.775 387.749 351.835 387.749 351.885Z" fill="#3F00F9"/>
<path d="M394.853 351.765C394.853 351.82 394.853 351.865 394.853 351.905H394.933C394.933 351.865 394.933 351.82 394.933 351.765V351.655H394.818L394.853 351.765Z" fill="#3F00F9"/>
<path d="M390.25 349.227C390.25 348.658 390.25 347.978 390.29 347.229C390.29 347.044 390.29 346.839 390.29 346.659C390.3 346.481 390.357 346.309 390.456 346.16C390.555 346.002 390.694 345.873 390.859 345.785C391.024 345.697 391.209 345.654 391.396 345.66C391.585 345.669 391.768 345.726 391.929 345.825C392.089 345.925 392.221 346.064 392.312 346.23C392.393 346.384 392.439 346.555 392.447 346.729C392.447 346.924 392.447 347.119 392.447 347.304C392.447 348.058 392.472 348.738 392.482 349.302C392.492 349.867 392.517 350.391 392.532 350.711H392.637C392.637 350.391 392.667 349.912 392.677 349.302C392.687 348.693 392.677 348.053 392.677 347.304C392.677 347.114 392.677 346.919 392.677 346.724C392.676 346.5 392.621 346.279 392.517 346.08C392.405 345.871 392.24 345.695 392.039 345.57C391.838 345.445 391.608 345.374 391.371 345.365C391.134 345.359 390.899 345.415 390.691 345.528C390.483 345.641 390.308 345.807 390.185 346.01C390.084 346.211 390.035 346.434 390.045 346.659C390.045 346.874 390.045 347.054 390.045 347.249C390.045 347.998 390.045 348.678 390.045 349.247C390.045 349.907 390.075 350.411 390.09 350.746H390.185C390.21 350.391 390.23 349.887 390.25 349.227Z" fill="#3F00F9"/>
<path d="M390.165 350.971C390.165 350.911 390.165 350.821 390.19 350.706H390.095C390.095 350.821 390.095 350.911 390.095 350.971H390.165Z" fill="#3F00F9"/>
<path d="M392.547 350.976H392.612C392.612 350.906 392.612 350.821 392.612 350.711H392.547C392.547 350.816 392.547 350.906 392.547 350.976Z" fill="#3F00F9"/>
<path d="M367.988 347.374C368.034 347.408 368.085 347.436 368.138 347.459C368.233 347.504 368.332 347.541 368.433 347.569C368.623 347.629 368.818 347.674 369.003 347.713C369.384 347.788 369.759 347.848 370.119 347.898C370.844 347.998 371.54 348.063 372.19 348.118C373.491 348.228 374.627 348.283 375.567 348.308C376.508 348.333 377.243 348.343 377.743 348.338H378.319H378.519C378.453 348.327 378.385 348.327 378.319 348.338H377.748L375.572 348.243C374.637 348.193 373.501 348.123 372.205 347.998C371.56 347.933 370.869 347.858 370.149 347.753C369.794 347.699 369.424 347.639 369.053 347.559C368.868 347.519 368.683 347.474 368.503 347.419C368.414 347.392 368.327 347.358 368.243 347.319C368.204 347.304 368.167 347.284 368.133 347.259C368.103 347.229 368.133 347.259 368.133 347.234C368.133 347.209 368.133 347.234 368.133 347.209L368.243 347.149C368.329 347.109 368.417 347.075 368.508 347.049C368.693 346.994 368.888 346.949 369.088 346.909C369.489 346.824 369.899 346.764 370.319 346.704C371.16 346.594 372.035 346.51 372.936 346.44C374.732 346.305 376.633 346.225 378.594 346.225C381.375 346.219 384.153 346.386 386.914 346.724C387.526 346.798 388.132 346.921 388.725 347.094L388.915 347.179L388.99 347.224C388.99 347.224 388.87 347.324 388.75 347.359C388.481 347.453 388.205 347.524 387.924 347.574C386.813 347.788 385.753 347.898 384.787 347.988C382.856 348.168 381.285 348.238 380.2 348.278L378.949 348.323C378.803 348.32 378.658 348.33 378.514 348.353C378.658 348.367 378.804 348.367 378.949 348.353C379.234 348.353 379.659 348.353 380.2 348.353C381.29 348.353 382.861 348.303 384.802 348.153C385.773 348.068 386.839 347.973 387.969 347.768C388.263 347.718 388.552 347.644 388.835 347.549C388.91 347.519 388.984 347.484 389.055 347.444C389.098 347.421 389.137 347.39 389.17 347.354C389.198 347.331 389.217 347.299 389.225 347.264C389.225 347.229 389.255 347.199 389.225 347.169L389.195 347.069C389.195 347.044 389.145 347.009 389.125 346.994C389.09 346.963 389.051 346.936 389.01 346.914C388.937 346.877 388.861 346.843 388.785 346.814C388.178 346.631 387.557 346.499 386.929 346.42C384.158 346.06 381.367 345.879 378.574 345.88C376.603 345.88 374.697 345.965 372.891 346.105C371.99 346.18 371.11 346.27 370.264 346.385C369.839 346.445 369.424 346.515 369.018 346.599C368.814 346.639 368.611 346.69 368.413 346.754C368.312 346.784 368.214 346.821 368.118 346.864L367.968 346.954C367.933 346.978 367.904 347.008 367.883 347.044C367.863 347.084 367.848 347.126 367.838 347.169C367.847 347.212 367.862 347.254 367.883 347.294C367.938 347.324 367.963 347.364 367.988 347.374Z" fill="#3F00F9"/>
<path d="M414.749 347.159L414.719 347.059C414.694 347.034 414.669 346.999 414.649 346.984C414.614 346.953 414.576 346.926 414.534 346.904C414.461 346.867 414.386 346.833 414.309 346.804C413.703 346.621 413.082 346.489 412.453 346.41C409.683 346.05 406.892 345.869 404.098 345.87C402.127 345.87 400.221 345.955 398.415 346.095C397.515 346.17 396.634 346.26 395.789 346.375C395.363 346.435 394.948 346.505 394.543 346.589C394.338 346.629 394.136 346.68 393.938 346.744C393.837 346.774 393.738 346.811 393.642 346.854L393.492 346.944C393.457 346.969 393.427 346.999 393.402 347.034C393.387 347.075 393.373 347.117 393.362 347.159C393.372 347.202 393.387 347.244 393.407 347.284C393.442 347.324 393.467 347.364 393.492 347.374C393.539 347.408 393.589 347.436 393.642 347.459C393.736 347.503 393.833 347.54 393.933 347.569C394.128 347.629 394.318 347.674 394.508 347.714C394.888 347.788 395.258 347.848 395.623 347.898C396.349 347.998 397.039 348.063 397.69 348.118C398.995 348.228 400.131 348.283 401.067 348.308C402.002 348.333 402.748 348.343 403.248 348.338H403.823H404.023C403.957 348.327 403.889 348.327 403.823 348.338H403.248L401.077 348.243C400.141 348.193 399.005 348.123 397.71 347.998C397.064 347.933 396.374 347.858 395.653 347.753C395.293 347.699 394.928 347.639 394.558 347.559C394.373 347.519 394.188 347.474 394.008 347.419C393.919 347.392 393.832 347.358 393.747 347.319C393.708 347.304 393.671 347.284 393.637 347.259C393.607 347.229 393.637 347.259 393.637 347.234C393.637 347.209 393.637 347.234 393.637 347.209L393.747 347.149C393.833 347.109 393.922 347.075 394.013 347.049C394.198 346.994 394.393 346.949 394.593 346.909C394.993 346.824 395.403 346.764 395.824 346.704C396.664 346.594 397.54 346.51 398.435 346.44C400.236 346.305 402.137 346.225 404.093 346.225C406.874 346.219 409.653 346.385 412.413 346.724C413.026 346.797 413.632 346.92 414.224 347.094C414.291 347.118 414.356 347.147 414.419 347.179L414.489 347.224C414.529 347.224 414.369 347.324 414.249 347.359C413.98 347.453 413.704 347.524 413.424 347.574C412.313 347.788 411.252 347.898 410.287 347.988C408.356 348.168 406.785 348.238 405.699 348.278L404.449 348.323C404.303 348.32 404.157 348.33 404.013 348.353C404.158 348.367 404.304 348.367 404.449 348.353C404.734 348.353 405.159 348.353 405.699 348.353C406.79 348.353 408.361 348.303 410.302 348.153C411.272 348.068 412.338 347.973 413.469 347.768C413.761 347.718 414.049 347.645 414.329 347.549C414.407 347.52 414.482 347.485 414.554 347.444C414.598 347.421 414.636 347.39 414.669 347.354C414.697 347.331 414.717 347.299 414.724 347.264C414.734 347.219 414.764 347.189 414.749 347.159Z" fill="#3F00F9"/>
<path d="M267.746 347.539C267.823 347.51 267.899 347.475 267.971 347.434C268.014 347.411 268.053 347.38 268.086 347.344C268.114 347.321 268.133 347.289 268.141 347.254C268.141 347.219 268.171 347.189 268.141 347.159L268.111 347.059C268.111 347.034 268.061 346.999 268.041 346.984C268.006 346.953 267.967 346.926 267.926 346.904C267.852 346.867 267.777 346.833 267.7 346.804C267.094 346.622 266.473 346.49 265.844 346.41C263.072 346.05 260.28 345.869 257.485 345.87C255.519 345.87 253.612 345.955 251.806 346.095C250.906 346.17 250.025 346.26 249.18 346.375C248.755 346.435 248.339 346.505 247.934 346.589C247.729 346.629 247.527 346.68 247.329 346.744C247.228 346.774 247.129 346.81 247.034 346.854L246.879 346.944C246.847 346.971 246.818 347.001 246.794 347.034C246.778 347.075 246.765 347.117 246.754 347.159C246.763 347.202 246.778 347.244 246.799 347.284C246.82 347.32 246.849 347.35 246.884 347.374C246.93 347.408 246.981 347.436 247.034 347.459C247.127 347.503 247.224 347.54 247.324 347.569C247.519 347.629 247.709 347.674 247.899 347.714C248.279 347.788 248.65 347.848 249.015 347.898C249.74 347.998 250.431 348.063 251.081 348.118C252.382 348.228 253.522 348.283 254.458 348.308C255.393 348.333 256.134 348.343 256.639 348.338H257.215H257.41C257.41 348.338 257.345 348.338 257.215 348.338H256.639L254.468 348.158C253.532 348.108 252.397 348.038 251.101 347.913C250.456 347.848 249.765 347.773 249.045 347.669C248.685 347.614 248.319 347.554 247.949 347.474C247.764 347.434 247.579 347.389 247.394 347.334C247.306 347.307 247.221 347.274 247.139 347.234C247.099 347.219 247.062 347.199 247.029 347.174C246.994 347.144 247.029 347.174 247.029 347.149C247.029 347.124 247.029 347.149 247.029 347.124L247.139 347.064C247.224 347.024 247.313 346.991 247.404 346.964C247.589 346.909 247.784 346.864 247.984 346.824C248.384 346.739 248.795 346.679 249.215 346.619C250.055 346.51 250.931 346.425 251.826 346.355C253.627 346.22 255.529 346.14 257.485 346.14C260.266 346.134 263.044 346.3 265.804 346.639C266.417 346.712 267.023 346.836 267.615 347.009C267.682 347.033 267.747 347.062 267.811 347.094L267.881 347.139C267.811 347.203 267.727 347.249 267.635 347.274C267.368 347.368 267.094 347.44 266.815 347.489C265.704 347.704 264.644 347.813 263.678 347.903C261.742 348.083 260.176 348.153 259.091 348.193L257.84 348.238C257.693 348.235 257.545 348.245 257.4 348.268C257.546 348.282 257.693 348.282 257.84 348.268C258.125 348.268 258.545 348.268 259.091 348.268C260.176 348.268 261.752 348.218 263.693 348.068C264.664 347.983 265.724 347.888 266.86 347.684C267.159 347.659 267.455 347.611 267.746 347.539Z" fill="#1D0D0B"/>
<path d="M272.403 347.374C272.45 347.408 272.5 347.436 272.553 347.459C272.646 347.504 272.744 347.541 272.843 347.569C273.038 347.629 273.229 347.674 273.419 347.713C273.799 347.788 274.169 347.848 274.534 347.898C275.26 347.998 275.95 348.063 276.601 348.118C277.901 348.228 279.042 348.283 279.977 348.308C280.913 348.333 281.653 348.343 282.159 348.338H282.734H282.929C282.929 348.338 282.864 348.338 282.734 348.338H282.159L279.982 348.158C279.047 348.108 277.916 348.038 276.621 347.913C275.97 347.848 275.285 347.773 274.564 347.669C274.204 347.614 273.839 347.554 273.469 347.474C273.284 347.434 273.094 347.389 272.913 347.334C272.824 347.307 272.738 347.273 272.653 347.234C272.616 347.218 272.581 347.198 272.548 347.174C272.513 347.144 272.548 347.174 272.548 347.149C272.548 347.124 272.548 347.149 272.548 347.124L272.658 347.064C272.744 347.024 272.833 346.991 272.923 346.964C273.109 346.909 273.304 346.864 273.504 346.824C273.899 346.739 274.314 346.679 274.734 346.619C275.575 346.51 276.445 346.425 277.346 346.355C279.147 346.22 281.043 346.14 283.004 346.14C285.785 346.134 288.564 346.301 291.324 346.639C291.937 346.712 292.543 346.836 293.135 347.009C293.2 347.032 293.264 347.061 293.325 347.094L293.4 347.139C293.33 347.203 293.246 347.249 293.155 347.274C292.888 347.368 292.614 347.44 292.335 347.489C291.219 347.704 290.158 347.813 289.198 347.903C287.262 348.083 285.696 348.153 284.605 348.193L283.359 348.238C283.212 348.235 283.065 348.245 282.919 348.268C283.066 348.282 283.213 348.282 283.359 348.268C283.645 348.268 284.065 348.268 284.61 348.268C285.696 348.268 287.272 348.218 289.213 348.068C290.183 347.983 291.244 347.888 292.38 347.684C292.672 347.633 292.959 347.559 293.24 347.464C293.316 347.435 293.39 347.4 293.46 347.359C293.505 347.336 293.546 347.305 293.58 347.269C293.594 347.258 293.606 347.245 293.615 347.229C293.623 347.214 293.628 347.197 293.63 347.179C293.63 347.144 293.665 347.114 293.63 347.084C293.624 347.05 293.616 347.017 293.605 346.984C293.58 346.959 293.555 346.924 293.535 346.909C293.499 346.879 293.461 346.852 293.42 346.829C293.347 346.792 293.272 346.758 293.195 346.729C292.588 346.547 291.968 346.415 291.339 346.335C288.567 346 285.776 345.845 282.984 345.87C281.018 345.87 279.112 345.955 277.306 346.095C276.405 346.17 275.525 346.26 274.679 346.375C274.254 346.435 273.839 346.505 273.434 346.589C273.229 346.629 273.027 346.68 272.828 346.744C272.726 346.774 272.626 346.811 272.528 346.854L272.378 346.944C272.346 346.97 272.318 347.001 272.293 347.034C272.277 347.075 272.264 347.117 272.253 347.159C272.263 347.201 272.277 347.243 272.293 347.284C272.324 347.321 272.361 347.351 272.403 347.374Z" fill="#3F00F9"/>
<defs>
<filter id="filter0_i_1108_2439" x="61.7295" y="256.311" width="16.1616" height="14.3195" filterUnits="userSpaceOnUse" color-interpolation-filters="sRGB">
<feFlood flood-opacity="0" result="BackgroundImageFix"/>
<feBlend mode="normal" in="SourceGraphic" in2="BackgroundImageFix" result="shape"/>
<feColorMatrix in="SourceAlpha" type="matrix" values="0 0 0 0 0 0 0 0 0 0 0 0 0 0 0 0 0 0 127 0" result="hardAlpha"/>
<feOffset dx="0.25" dy="0.5"/>
<feComposite in2="hardAlpha" operator="arithmetic" k2="-1" k3="1"/>
<feColorMatrix type="matrix" values="0 0 0 0 0 0 0 0 0 0 0 0 0 0 0 0 0 0 0.25 0"/>
<feBlend mode="normal" in2="shape" result="effect1_innerShadow_1108_2439"/>
</filter>
<radialGradient id="paint0_radial_1108_2439" cx="0" cy="0" r="1" gradientUnits="userSpaceOnUse" gradientTransform="translate(414.254 352.829) rotate(-179.829) scale(167.501 50.8457)">
<stop stop-color="#0894FF"/>
<stop offset="0.290475" stop-color="#6E53FF"/>
<stop offset="0.609151" stop-color="#B038EA"/>
<stop offset="0.850793" stop-color="#F95088"/>
<stop offset="1" stop-color="#FF6F62"/>
</radialGradient>
</defs>
</svg>
