<svg width="435" height="300" viewBox="0 0 442 330" fill="none" xmlns="http://www.w3.org/2000/svg">
<path d="M441.584 74.0279C441.584 74.8879 441.484 75.7779 441.374 76.6779C440.994 79.6279 436.374 85.8579 425.554 90.0279C412.604 95.0279 396.554 97.1279 385.484 88.7479C386.324 95.9579 378.254 100.618 371.484 103.268C364.294 106.068 356.964 108.898 349.264 109.268C341.564 109.638 333.264 106.968 328.814 100.718C322.474 111.718 306.314 115.648 295.654 108.718C292.353 113.434 287.607 116.948 282.133 118.73C276.659 120.512 270.754 120.465 265.31 118.597C259.865 116.728 255.175 113.14 251.949 108.372C248.722 103.605 247.134 97.9172 247.424 92.1679C241.424 95.4479 232.784 89.8279 233.364 82.9979C227.484 88.3479 217.364 87.0979 211.954 81.2579C206.544 75.4179 205.794 66.2579 208.854 58.9079C211.015 54.0032 214.429 49.754 218.754 46.5879C218.607 44.7698 218.752 42.9399 219.184 41.1679C219.62 39.4184 220.361 37.7596 221.374 36.2679C223.448 33.4076 226.394 31.2971 229.769 30.2531C233.144 29.2091 236.767 29.288 240.094 30.4779C237.454 22.2379 243.954 12.4179 252.564 11.6379C260.894 10.8779 268.794 18.7879 268.294 27.0779C268.704 23.2879 271.804 20.3879 274.934 18.1479C282.264 12.9179 288.454 17.6879 289.884 18.2579C291.994 8.07787 301.604 0.257874 315.684 0.687874C329.764 1.11787 338.684 10.4279 339.364 19.6879C341.074 17.2835 343.639 15.6239 346.533 15.0492C349.426 14.4744 352.431 15.028 354.93 16.5964C357.429 18.1649 359.233 20.6295 359.974 23.4855C360.715 26.3414 360.336 29.3725 358.914 31.9579C363.127 27.9557 368.384 25.2228 374.08 24.0727C379.776 22.9226 385.681 23.4021 391.117 25.4559C396.553 27.5098 401.299 31.0549 404.812 35.6843C408.324 40.3136 410.46 45.8396 410.974 51.6279C420.644 48.6679 442.164 54.5579 441.584 74.0279Z" fill="#C2DBFF"/>
<path d="M208.854 58.9178C211.015 54.0131 214.429 49.764 218.754 46.5978C224.754 42.5078 230.134 43.0378 234.694 45.5978C221.074 51.0878 223.274 65.9678 223.274 65.9678C227.054 54.9678 232.974 51.6478 238.174 49.9678C243.844 48.1678 249.734 49.6578 253.124 53.3478C255.634 56.0878 255.944 60.3978 254.854 63.9978C264.324 53.9078 274.324 53.3678 278.594 56.3078C275.851 56.9192 273.32 58.2503 271.262 60.1643C269.204 62.0783 267.693 64.5061 266.884 67.1978C291.394 55.1978 305.164 67.5178 305.164 67.5178C305.164 67.5178 304.244 55.3778 287.594 54.8678C288.504 46.2378 294.464 36.9478 304.594 36.3178C317.124 35.5478 327.464 44.4678 326.964 57.8578C331.444 56.8578 336.084 61.7278 334.884 66.1578C337.984 63.7078 341.284 61.1578 345.194 60.5278C349.104 59.8978 353.734 61.9378 354.544 65.8078C357.271 66.1809 359.758 67.5693 361.506 69.6957C363.254 71.8221 364.135 74.5298 363.974 77.2778C367.757 73.8406 372.517 71.6671 377.593 71.0596C382.668 70.4521 387.806 71.4406 392.294 73.8878C388.034 61.0978 371.614 54.0278 359.384 59.6978C359.664 50.6978 368.574 42.9278 377.534 43.8678C386.494 44.8078 393.624 54.3178 392.004 63.1678C398.424 61.1678 405.744 67.9978 404.154 74.5378C406.684 66.1578 416.334 64.0778 422.004 65.6178C414.004 67.7178 410.794 77.4378 411.814 84.2278C414.414 78.0678 422.404 65.3478 441.584 74.0178C441.584 74.8778 441.484 75.7678 441.374 76.6678C440.994 79.6178 436.374 85.8478 425.554 90.0178C412.604 95.0178 396.554 97.1178 385.484 88.7378C386.324 95.9478 378.254 100.608 371.484 103.258C364.294 106.058 356.964 108.888 349.264 109.258C341.564 109.628 333.264 106.958 328.814 100.708C322.474 111.708 306.314 115.638 295.654 108.708C292.353 113.423 287.608 116.936 282.136 118.718C276.663 120.501 270.759 120.455 265.315 118.588C259.87 116.72 255.181 113.134 251.954 108.368C248.727 103.602 247.137 97.9162 247.424 92.1678C241.424 95.4478 232.784 89.8278 233.364 82.9978C227.484 88.3478 217.364 87.0978 211.954 81.2578C206.544 75.4178 205.794 66.2478 208.854 58.9178Z" fill="#A4CAFF"/>
<path d="M161.46 218.342C162.104 213.872 161.305 209.314 159.179 205.33L158.688 204.497C155.358 198.936 148.032 195.448 139.907 197.504C139.275 196.039 138.354 194.716 137.199 193.615C136.043 192.515 134.678 191.659 133.183 191.099C131.689 190.539 130.097 190.287 128.503 190.358C126.908 190.428 125.345 190.82 123.906 191.51C117.546 183.618 104.134 171.264 83.2132 175.551C62.2923 179.839 52.6935 201.051 52.6935 201.051C45.459 194.341 30.4239 197.23 23.0978 204.198C15.3805 211.54 15.522 217.127 15.522 217.127C10.4104 213.846 2.20192 217.127 0.786662 222.013C0.205851 223.856 0.289273 225.843 1.02242 227.631C1.75556 229.418 3.09203 230.892 4.79934 231.795L5.45703 232.103C12.3002 235.45 16.5127 233.61 16.5127 233.61C24.663 251.193 40.0727 246.622 47.1157 243.034C49.3218 241.919 53.859 239.97 53.859 239.97C53.859 239.97 66.5047 251.984 84.0706 252.65C94.5602 253.058 112.467 247.605 116.655 237.972C135.47 248.795 168.695 240.47 173.016 229.714C174.739 225.46 173.066 215.162 161.46 218.342Z" fill="#C2DBFF"/>
<path d="M173.024 229.714C168.703 240.537 135.478 248.795 116.663 237.972C112.501 247.605 94.5685 253.058 84.0789 252.65C66.513 251.984 53.8672 239.971 53.8672 239.971C53.8672 239.971 49.3301 241.919 47.1239 243.034C40.0809 246.622 24.6463 251.193 16.521 233.61C16.521 233.61 12.3085 235.475 5.4653 232.103L4.80762 231.795C5.59017 231.662 6.35608 231.504 7.09701 231.321C17.1703 228.94 30.6569 219.333 39.6064 228.324C39.5315 221.314 32.4635 216.502 25.8201 217.318C27.3734 215.23 29.5497 213.69 32.035 212.92C34.5203 212.149 37.1862 212.188 39.648 213.031C42.1342 213.981 44.2536 215.697 45.6994 217.932C47.1452 220.166 47.8424 222.803 47.69 225.46C52.9194 222.758 58.919 221.938 64.6815 223.137C70.9752 224.261 75.0962 228.191 77.6769 234.035C75.7622 223.687 70.3009 217.801 59.8113 218.409C59.4617 212.498 60.1194 208.477 63.6825 203.74C67.2456 199.003 73.5727 196.089 79.2837 197.654C84.9947 199.219 89.1072 205.929 86.9094 211.432C87.8335 210.025 91.1885 209.201 93.1532 210.541C94.7017 211.59 95.1096 214.554 94.7433 215.77C95.5426 213.466 97.0655 211.484 99.0845 210.117C101.103 208.751 103.51 208.075 105.945 208.189C108.381 208.303 110.713 209.202 112.596 210.751C114.478 212.301 115.808 214.417 116.388 216.785C117.221 208.011 108.896 199.594 100.096 200.268C112.251 193.517 128.651 197.987 130.483 211.807C135.186 196.331 155.974 199.452 159.179 205.33C161.527 209.492 162.176 215.245 161.46 218.342C173.066 215.162 174.739 225.46 173.024 229.714Z" fill="#A4CAFF"/>
<path d="M394.408 171.695C393.228 170.592 391.957 169.59 390.609 168.699C389.287 167.857 387.923 167.083 386.521 166.382C385.084 165.613 384.293 165.123 380.672 162.828L371.414 156.98C366.634 153.927 361.9 150.986 352.475 145.104C349.389 143.177 346.826 141.595 345.055 140.504C343.871 141.287 342.622 141.969 341.323 142.542C339.091 143.699 336.592 144.245 334.081 144.124C333.253 144.419 332.404 144.65 331.541 144.815C329.443 145.246 327.278 145.246 325.18 144.815C323.741 144.47 322.354 143.934 321.058 143.222C318.759 142.114 316.557 140.817 314.473 139.345C313.27 139.534 312.245 139.679 311.454 139.791C309.694 140.024 308.948 140.08 308.469 140.102C307.8 140.102 307.243 140.158 306.864 140.158C306.942 145.015 306.998 149.371 307.043 153.159C307.121 158.851 307.121 159.62 306.942 161.035C306.231 165.985 304.46 170.723 301.751 174.926C299.971 177.795 297.87 180.453 295.49 182.847C293.613 184.721 291.59 186.442 289.44 187.993C286.05 190.535 282.441 192.772 278.656 194.677C276.539 195.791 271.058 198.365 260.697 200.882C253.188 202.685 245.547 203.884 237.847 204.469C229.878 205.04 221.88 205.084 213.906 204.603C204.993 204.224 197.473 203.489 191.713 202.731C196.227 206.562 200.313 210.868 203.901 215.576C206.464 219.029 208.792 222.917 209.539 224.165C210.519 225.802 211.254 227.106 211.956 228.476C212.996 230.536 213.929 232.648 214.752 234.804C215.385 236.137 215.763 237.576 215.866 239.048C215.922 240.162 215.989 241.465 215.231 242.078C214.117 242.98 211.956 241.978 210.508 241.298C209.289 240.699 208.163 239.926 207.166 239.003C205.951 237.96 204.883 236.757 203.99 235.427C203.057 234.018 202.354 232.468 201.907 230.838C201.617 229.724 201.651 229.334 201.228 227.707C201.228 227.707 200.849 226.237 200.303 224.755C198.654 220.232 194.265 215.197 194.265 215.197C190.392 210.887 185.937 207.138 181.029 204.057C176.473 202.33 172.729 200.938 170.156 199.98C164.073 197.752 160.965 196.638 155.406 194.51C152.331 193.341 149.835 192.36 148.175 191.725C145.848 191.631 143.517 191.705 141.201 191.948C141.201 191.948 138.973 192.193 135.764 192.85C135.419 192.917 134.884 193.04 134.238 193.207C133.753 193.312 133.276 193.454 132.812 193.63C132.054 193.969 131.371 194.458 130.807 195.067C130.378 195.503 130.004 195.99 129.693 196.515C131.318 195.756 133.166 195.621 134.884 196.137C136.494 196.782 137.866 197.906 138.817 199.356C139.821 200.704 140.642 202.18 141.257 203.745C142.15 205.764 142.895 207.845 143.485 209.972C144.126 213.04 144.31 216.186 144.031 219.308C143.972 222.152 143.233 224.94 141.877 227.44C140.52 229.94 138.585 232.079 136.232 233.678C134.825 234.787 133.296 235.733 131.676 236.497L124.312 235.383C124.044 234.458 123.777 233.522 123.476 232.587C122.336 228.927 121.001 225.331 119.477 221.814L118.452 221.124C115.812 219.411 112.991 217.995 110.04 216.902C106.337 215.609 102.548 214.582 98.699 213.827C94.2427 212.835 90.8448 212.167 89.0177 211.822C79.1915 209.95 78.5453 210.117 70.6243 208.547C70.6243 208.547 63.6724 207.176 57.2553 205.283C55.328 204.703 54.1136 204.269 52.0303 203.5C51.0193 203.151 50.0329 202.734 49.078 202.252C47.9727 201.683 46.9276 201.004 45.9586 200.225C44.9715 199.647 44.0292 198.995 43.14 198.276C40.66 196.212 38.6118 193.68 37.1128 190.823C35.9286 188.468 35.0632 185.965 34.5393 183.381C34.012 181.084 33.6398 178.755 33.4252 176.408C32.9908 172.732 32.9016 169.902 32.8348 167.262C32.7457 164.076 32.8348 161.692 32.8348 159.865C32.9462 154.584 33.2693 150.619 33.3473 149.583C33.5144 147.589 33.7929 144.325 34.4613 140.069C35.1855 135.323 35.9876 131.792 36.5781 129.263C37.4545 125.07 38.5704 120.93 39.9203 116.864C41.0495 113.584 42.3473 110.364 43.8084 107.217C45.5774 103.107 47.7022 99.1598 50.1587 95.42C51.444 93.4725 52.8939 91.6389 54.4924 89.9391C56.5762 88.1312 58.7635 86.4462 61.0432 84.8927C64.1236 82.8167 67.3435 80.9556 70.68 79.3227C74.9357 77.1838 78.2891 75.769 80.2165 74.9669C92.0257 70.0431 102.052 66.3334 104.982 65.2529C106.096 64.8295 110.987 63.0249 120.724 59.5603C123.521 58.5466 133.191 55.1043 144.9 51.016C148.521 49.7683 151.161 48.8659 154.748 47.8076C159.205 46.4931 162.948 45.5796 166.357 44.6773C168.864 44.0423 171.225 43.4519 174.434 42.7278C179.341 41.4759 184.335 40.5933 189.374 40.0876C194.82 39.5061 200.327 39.9137 205.628 41.2907C208.269 41.9377 210.855 42.7945 213.36 43.8529C216.209 45.0843 218.939 46.5759 221.515 48.3089C227.361 52.1926 232.614 56.9016 237.112 62.2896L237.914 63.2588C238.028 62.9912 238.158 62.7307 238.304 62.479C238.827 61.5451 239.598 60.774 240.532 60.251C240.991 59.9802 241.498 59.8023 242.025 59.7274C242.83 59.6733 243.635 59.8389 244.353 60.2064C247.696 61.9109 286.243 89.7386 295.133 95.6539L302.753 100.667C308.524 104.432 313.27 107.518 316.479 109.579L316.646 110.893C318.228 111.851 320.423 113.177 323.03 114.781C323.03 114.781 327.196 117.332 331.519 120.062C347.116 129.843 363.348 140.504 363.348 140.504C390.409 158.261 396.77 162.928 402.096 169.312C405.967 173.991 409.329 179.069 412.122 184.462C414.35 188.985 416.222 194.198 416.222 194.198C417.269 197.128 417.893 199.312 418.45 201.083C418.45 201.172 419.063 203.233 419.653 206.029C420.031 207.706 420.192 209.424 420.132 211.142C420.194 211.646 420.145 212.157 419.989 212.64C419.833 213.122 419.574 213.566 419.23 213.938C418.846 214.236 418.379 214.407 417.893 214.428C417.392 214.428 416.645 214.429 414.818 213.025C413.937 212.406 413.123 211.697 412.39 210.908C411.225 209.696 410.269 208.299 409.56 206.775C408.718 204.741 408.224 202.579 408.1 200.381C407.844 198.398 407.967 198.209 407.788 196.582C407.483 193.954 406.847 191.375 405.895 188.907C404.848 186.166 403.499 183.551 401.873 181.109C400.547 179.026 399.411 177.544 398.285 176.085C397.124 174.511 395.827 173.042 394.408 171.695Z" fill="#D1C2FF"/>
<path d="M147.395 50.147C143.463 69.7645 139.898 90.73 136.99 112.954C133.737 137.774 131.665 161.291 130.45 183.303C120.579 185.799 112.837 188.339 107.589 190.177C101.83 192.215 98.0528 193.786 91.2235 195.869C84.7285 197.852 79.3252 199.133 75.827 199.891C71.5636 200.732 67.2566 201.335 62.926 201.695C53.4786 202.509 50.3926 201.629 49.0223 201.172C46.1161 200.269 43.4507 198.723 41.2238 196.649C39.159 194.631 37.5155 192.222 36.3887 189.564C35.675 187.958 35.1046 186.291 34.6841 184.584C33.6128 180.606 32.9704 176.524 32.7679 172.408C32.6565 170.86 32.6231 169.735 32.5785 167.952C32.5785 167.952 32.456 163.652 32.5785 159.486C32.8986 147.992 34.4448 136.564 37.1908 125.398C38.6835 119.433 40.7235 113.62 43.2848 108.03C46.1257 101.926 49.1337 95.4533 55.1386 89.4489C59.4501 85.1377 64.0512 82.8317 73.1086 78.2086C81.8319 73.7526 88.8505 71.157 99.8465 67.0686C101.339 66.5116 106.353 64.7181 116.379 61.131C126.841 57.388 133.091 55.2045 135.631 54.2911L147.395 50.147Z" fill="#C8ADFF"/>
<path d="M306.797 140.269L292.158 131.235C292.033 134.663 291.71 138.082 291.189 141.473C290.541 145.317 289.53 149.092 288.17 152.746C286.644 156.3 284.326 162.661 279.391 167.351C275.335 171.415 270.545 174.673 265.276 176.953C260.819 178.736 251.974 182 246.927 183.359C241.88 184.718 230.037 187.692 223.074 188.795C216.111 189.898 202.341 191.213 197.451 191.279C192.56 191.346 180.461 191.068 177.186 190.288C171.177 188.921 165.066 188.053 158.915 187.692C153.188 187.581 146.003 188.116 141.023 189.653C136.043 191.19 131.553 192.839 129.381 194.733C127.208 196.627 125.704 198.52 126.038 201.127C126.373 203.734 127.275 205.683 129.381 208.792C131.486 211.9 133.269 214.618 133.837 216.701C134.405 218.784 134.951 221.825 134.026 224.22C133.276 226.022 132.307 227.725 131.141 229.289C130.101 230.475 128.984 231.591 127.799 232.631C126.395 233.745 124.456 235.216 124.456 235.216L131.531 236.564C131.531 236.564 138.973 233.054 141.479 227.885C143.986 222.717 143.997 221.491 143.997 215.899C143.908 211.721 143.008 207.601 141.346 203.767C140.722 202.464 137.502 197.083 135.675 196.437C133.848 195.791 131.698 195.234 129.871 196.348C130.325 195.551 130.944 194.859 131.687 194.321C132.96 193.604 134.353 193.124 135.798 192.906C137.313 192.527 138.46 192.327 138.973 192.238C138.973 192.238 140.332 192.026 141.758 191.892C144.974 191.648 148.206 191.678 151.417 191.981C156.089 192.564 160.7 193.555 165.198 194.945C166.39 195.268 169.822 196.214 174.411 197.718C179.291 199.323 183.324 200.871 186.499 202.174C189.585 202.631 193.841 203.222 198.943 203.734C209.039 204.874 219.202 205.302 229.358 205.015C237.051 204.863 244.722 204.136 252.308 202.843C257.528 201.97 262.681 200.73 267.727 199.133C271.885 197.911 275.924 196.311 279.792 194.354C285.013 191.677 289.82 188.259 294.063 184.206C296.968 181.44 299.53 178.336 301.695 174.959C303.489 172.167 304.901 169.147 305.895 165.981C306.35 164.456 306.693 162.899 306.92 161.324C306.987 158.038 307.031 154.696 307.031 151.298C306.972 147.533 306.894 143.857 306.797 140.269Z" fill="#A97FFF"/>
<path d="M244.843 60.6744L244.955 96.8236L238.449 98.1382L238.059 62.9915C238.059 62.9915 239.418 60.3959 241 60.0617C242.582 59.7275 244.119 59.8946 244.843 60.6744Z" fill="#A97FFF"/>
<path d="M129.86 196.18C130.423 195.278 131.185 194.516 132.088 193.953C133.71 193.25 135.425 192.785 137.179 192.572C136.247 193.078 135.26 193.478 134.238 193.764C133.852 193.861 133.478 194.003 133.124 194.187C132.812 194.365 132.266 194.655 132.311 194.877C132.355 195.1 133.369 194.966 134.383 195.356C135.143 195.683 135.785 196.235 136.221 196.938L136.021 196.804C135.12 196.271 134.118 195.93 133.079 195.802C131.991 195.691 130.892 195.82 129.86 196.18Z" fill="#C8ADFF"/>
<path d="M152.487 48.4871L162.213 45.7356L170.1 43.7304C166.335 67.2469 163.16 92.5347 160.976 119.404C159.394 138.922 158.458 157.659 158.035 175.528L139.686 180.797C140.354 163.173 141.457 144.859 143.106 125.899C145.468 98.6283 148.699 72.7835 152.487 48.4871Z" fill="#C8ADFF"/>
<path d="M148.197 191.792L180.829 204.046C181.753 204.625 183.257 205.617 185.018 206.965C189.418 210.307 197.785 216.734 200.704 226.515C201.517 229.256 201.328 230.314 202.587 233.021C204.032 236.468 206.6 239.326 209.873 241.131C211.165 241.788 213.939 243.192 215.22 242.134C216.825 240.808 215.142 236.319 213.85 232.876C212.48 229.303 210.74 225.883 208.658 222.672C204.037 215.272 198.341 208.601 191.758 202.876L185.909 201.941C179.648 199.401 174.3 197.585 170.223 196.371C166.613 195.257 164.363 194.688 159.851 193.552C157.115 192.818 154.324 192.304 151.506 192.015C150.114 191.859 148.988 191.814 148.197 191.792Z" fill="#8766CC"/>
<path d="M316.405 138.671V136.171V135.671L319.405 137.671L327.405 142.171L333.905 144.171L332.405 144.671L325.405 145.171L320.405 143.171L314.405 139.171L316.405 138.671Z" fill="#A97FFF"/>
<path d="M219.643 47.3843C218.44 46.6268 217.114 45.9807 215.777 45.2677C214.441 44.5548 212.981 43.9644 211.466 43.4185C208.293 42.181 205 41.2775 201.64 40.7226C197.957 40.1346 194.215 39.9999 190.499 40.3216C186.452 40.692 182.433 41.3246 178.467 42.2154C174.334 43.0843 170.089 44.1092 165.722 45.1563C161.355 46.2035 156.898 47.44 152.353 48.8994C134.327 54.8258 114.686 61.9666 94.1537 69.5975C89.0512 71.5804 84.0601 73.6487 79.1805 75.8024C74.354 77.8844 69.6355 80.2082 65.0428 82.7649C60.5869 85.137 56.555 88.2313 53.1111 91.922C49.953 95.61 47.3484 99.7379 45.3794 104.176C41.4151 112.233 38.4232 120.733 36.4668 129.497C34.7371 137.123 33.6195 144.875 33.1245 152.68C32.7294 158.438 32.6439 164.213 32.8683 169.98C32.8683 168.532 32.6789 167.095 32.7123 165.669C32.7123 162.817 32.7123 160.021 32.8349 157.28C32.9574 154.54 33.0354 151.844 33.2694 149.226C33.5033 146.608 33.6259 144.024 33.8932 141.517C33.9601 140.793 34.0269 140.069 34.1049 139.356C34.6063 136.103 35.219 132.784 35.9766 129.33C37.9163 120.515 40.9086 111.965 44.8892 103.864C46.8777 99.3907 49.5046 95.2293 52.6877 91.5098C56.1715 87.7632 60.2524 84.6199 64.7643 82.2079C69.3584 79.6366 74.0808 77.3016 78.9131 75.212C83.8076 73.0509 88.8098 70.9751 93.9197 68.9848C114.474 61.365 134.116 54.202 152.164 48.3312C156.687 46.883 161.165 45.6131 165.533 44.6105C169.9 43.6079 174.156 42.5496 178.3 41.6918C182.288 40.8106 186.33 40.1892 190.399 39.8314C194.168 39.5162 197.962 39.6658 201.696 40.277C205.08 40.8521 208.396 41.7779 211.589 43.0397C213.115 43.5967 214.53 44.2874 215.922 44.9335C217.315 45.5796 218.596 46.3149 219.81 47.0724L220.145 47.2841L221.014 48.231C220.579 47.9525 220.122 47.6628 219.643 47.3843Z" fill="#3F00F9"/>
<path d="M237.524 62.9692C235.559 60.5985 233.457 58.3444 231.23 56.2183C228.341 53.4653 225.213 50.975 221.883 48.7768C221.638 48.4761 221.392 48.1753 221.147 47.8968C224.83 50.2586 228.264 52.9869 231.397 56.0401C233.616 58.1895 235.696 60.4778 237.625 62.8912V63.114L237.524 62.9692Z" fill="#3F00F9"/>
<path d="M63.4162 201.395C66.7585 201.038 70.2121 200.593 73.6323 199.947C80.6098 198.654 87.489 196.878 94.2205 194.633C97.663 193.519 101.094 192.26 104.548 190.968C106.249 190.322 107.972 189.698 109.717 189.096L110.831 189.397C108.781 190.08 106.754 190.804 104.748 191.569C101.284 192.85 97.8524 194.098 94.3987 195.223C87.6343 197.475 80.7215 199.255 73.7103 200.548C70.279 201.194 66.8476 201.662 63.4497 201.996C60.0831 202.411 56.6847 202.505 53.3004 202.275C51.03 202.062 48.8056 201.502 46.7051 200.615C45.8407 200.036 45.0248 199.388 44.2653 198.677C47.016 200.391 50.1368 201.422 53.3673 201.684C56.7185 201.91 60.0836 201.813 63.4162 201.395Z" fill="#3F00F9"/>
<path d="M137.168 181.733L128.322 184.206C128.178 184.206 127.933 183.972 127.821 184.206L127.665 184.373C123.499 185.546 119.373 186.742 115.288 187.96C114.018 188.339 112.759 188.762 111.511 189.174L110.397 188.873C111.957 188.35 113.539 187.826 115.132 187.358C122.306 185.13 129.615 183.158 137.023 181.098L142.538 179.594L143.507 179.984L137.168 181.733Z" fill="#3F00F9"/>
<path d="M231.62 69.3301C232.864 73.9633 233.794 78.6751 234.405 83.4334C235.013 88.6871 235.158 93.9841 234.839 99.2633C234.516 104.766 233.725 110.403 232.856 116.296C232.12 122.405 230.503 128.375 228.055 134.02C225.28 139.945 221.418 145.295 216.669 149.794C211.76 154.57 206.273 158.712 200.336 162.126C194.276 165.602 187.38 167.83 180.428 169.857L144.265 179.783L143.285 179.393L180.261 169.256C187.201 167.262 194.008 165.067 200.036 161.603C205.927 158.203 211.376 154.087 216.257 149.349C220.961 144.902 224.789 139.612 227.542 133.753C229.979 128.159 231.592 122.241 232.333 116.185C233.168 110.325 234.015 104.666 234.338 99.1964C234.677 93.9484 234.546 88.6805 233.948 83.4556C233.361 78.7096 232.453 74.0089 231.23 69.3858C230.266 65.2349 228.873 61.1953 227.074 57.3323C225.469 54.0366 223.439 50.9656 221.036 48.1976L221.883 48.7434C224.076 51.3169 225.947 54.1489 227.453 57.1764C229.263 61.0709 230.659 65.1444 231.62 69.3301Z" fill="#3F00F9"/>
<path d="M32.8794 169.935C32.9797 171.384 32.9685 172.854 33.1691 174.313C33.3696 175.773 33.5478 177.254 33.7261 178.769C33.9043 180.285 34.2497 181.744 34.5951 183.225C35.2638 186.236 36.3672 189.133 37.8705 191.826C38.9345 193.711 40.2921 195.414 41.8923 196.872C42.6282 197.761 43.4248 198.599 44.2764 199.378L43.931 199.178C41.2115 197.384 38.9644 194.962 37.3803 192.115C35.8516 189.368 34.726 186.415 34.038 183.348C33.9266 182.847 33.8264 182.357 33.715 181.855C33.403 178.914 33.1356 175.628 32.9462 172.019C32.9351 171.317 32.9128 170.637 32.8794 169.935Z" fill="#3F00F9"/>
<path d="M32.7346 152.613C32.9908 148.391 33.4587 143.935 34.1718 139.311C34.0938 140.024 34.0269 140.749 33.9601 141.473C33.6927 143.979 33.5256 146.552 33.3362 149.182C33.1468 151.811 33.0131 154.484 32.9017 157.236C32.7903 159.987 32.8126 162.806 32.7792 165.624C32.7792 167.05 32.8794 168.487 32.9351 169.935C32.9351 170.637 32.9908 171.317 33.0243 171.985C33.2136 175.594 33.481 178.881 33.793 181.822C33.5924 180.819 33.3919 179.828 33.2582 178.825L33.0243 176.998C32.8906 175.416 32.768 173.756 32.6677 172.007C32.2958 165.547 32.3181 159.07 32.7346 152.613Z" fill="#3F00F9"/>
<path d="M221.014 48.2307L220.145 47.284L221.125 47.8966C221.37 48.175 221.615 48.4757 221.86 48.7765L221.014 48.2307Z" fill="#3F00F9"/>
<path d="M123.966 233.834C124.089 234.258 124.2 234.659 124.301 235.049L123.844 234.96L123.532 233.968C122.217 229.806 120.685 225.716 118.942 221.714C119.276 221.937 119.599 222.149 119.911 222.371C121.487 226.109 122.841 229.937 123.966 233.834Z" fill="#3F00F9"/>
<path d="M47.0393 200.838C49.7131 202.371 52.5639 203.572 55.5286 204.414C62.3117 206.459 69.2085 208.107 76.1836 209.349C83.6145 210.686 90.7334 211.855 97.1394 213.27C100.337 213.983 103.378 214.64 106.197 215.442C108.81 216.183 111.352 217.152 113.795 218.339C115.469 219.153 117.088 220.076 118.641 221.101C118.741 221.313 118.83 221.525 118.92 221.725C117.217 220.615 115.442 219.621 113.605 218.751C111.173 217.602 108.646 216.667 106.052 215.955C103.256 215.186 100.203 214.54 97.0168 213.849C90.6109 212.468 83.5142 211.321 76.061 209.984C69.0563 208.732 62.1329 207.062 55.3281 204.982C52.3241 204.111 49.4392 202.872 46.7385 201.295C45.8558 200.718 45.0245 200.065 44.2542 199.345C45.0403 199.825 45.8593 200.25 46.7051 200.615C46.8388 200.682 46.9279 200.771 47.0393 200.838Z" fill="#3F00F9"/>
<path d="M41.8925 196.794C42.6236 197.464 43.4099 198.071 44.2432 198.609C45.0027 199.32 45.8186 199.968 46.683 200.547C45.8372 200.182 45.0182 199.758 44.232 199.278C43.3966 198.504 42.6149 197.674 41.8925 196.794Z" fill="#3F00F9"/>
<path d="M119.633 221.77C119.722 221.97 119.8 222.171 119.889 222.382C119.577 222.159 119.254 221.948 118.92 221.725C118.831 221.525 118.741 221.313 118.641 221.101C119.009 221.302 119.343 221.547 119.633 221.77Z" fill="#3F00F9"/>
<path d="M131.888 236.096C133.905 235.007 135.777 233.667 137.458 232.108C139.536 230.201 141.201 227.888 142.349 225.312C142.902 223.972 143.252 222.556 143.385 221.113C143.538 219.759 143.605 218.397 143.585 217.035C143.558 214.713 143.383 212.395 143.062 210.095C143.067 210.036 143.067 209.976 143.062 209.917L143.808 211.956C144.028 213.637 144.158 215.329 144.198 217.024C144.235 218.415 144.179 219.807 144.031 221.191C143.887 222.699 143.511 224.175 142.917 225.569C141.731 228.224 140 230.6 137.837 232.542C136.195 234.013 134.372 235.267 132.411 236.274L131.598 236.196L131.888 236.096Z" fill="#3F00F9"/>
<path d="M124.635 235.127C125.749 235.349 126.863 235.55 127.977 235.728C129.091 235.906 130.45 236.073 131.62 236.196L130.595 236.719C129.715 236.619 128.813 236.508 127.888 236.363C126.696 236.185 125.548 235.962 124.457 235.717C124.457 235.583 124.39 235.45 124.345 235.305L124.635 235.127Z" fill="#3F00F9"/>
<path d="M124.312 235.071L123.955 235.316L123.844 234.96L124.301 235.049L124.312 235.071Z" fill="#3F00F9"/>
<path d="M124.479 235.717L124.044 235.628V235.539L124.39 235.305C124.412 235.45 124.446 235.584 124.479 235.717Z" fill="#3F00F9"/>
<path d="M132.456 236.274L132.043 236.497L131.408 236.798L130.617 236.72L131.642 236.196L132.456 236.274Z" fill="#3F00F9"/>
<path d="M186.177 201.785C187.603 201.996 189.073 202.197 190.633 202.386L191.357 202.987L187.87 202.497L186.177 201.785Z" fill="#3F00F9"/>
<path d="M216.468 204.592C222.819 204.793 229.492 204.826 236.388 204.369C243.511 203.967 250.59 202.991 257.555 201.45C264.525 199.975 271.321 197.772 277.832 194.878C280.898 193.46 283.826 191.759 286.577 189.798C289.23 187.929 291.75 185.878 294.119 183.66C298.533 179.59 302.041 174.637 304.413 169.122C305.464 166.626 306.19 164.005 306.575 161.324C306.809 158.74 306.731 156.2 306.753 153.805C306.753 148.87 306.697 144.436 306.686 140.537L307.02 140.749C307.076 144.592 307.132 148.959 307.21 153.805C307.21 156.211 307.288 158.718 307.065 161.369C306.691 164.099 305.965 166.769 304.904 169.312C302.529 174.897 298.998 179.917 294.543 184.039C292.17 186.286 289.638 188.36 286.967 190.244C284.185 192.234 281.224 193.961 278.121 195.401C271.575 198.325 264.737 200.547 257.723 202.03C250.727 203.574 243.619 204.55 236.466 204.948C229.536 205.394 222.852 205.361 216.479 205.138C207.778 204.815 199.768 204.024 192.449 203.133C192.215 202.921 191.959 202.732 191.725 202.531C199.156 203.478 207.478 204.236 216.468 204.592Z" fill="#3F00F9"/>
<path d="M144.555 188.584C147.908 187.932 151.311 187.559 154.726 187.47C157.194 187.409 159.663 187.476 162.124 187.67L163.995 188.45C160.921 188.122 157.828 187.992 154.737 188.06C151.37 188.153 148.016 188.526 144.711 189.174C144.064 189.307 143.418 189.441 142.772 189.597L141.825 189.241C142.694 188.996 143.619 188.773 144.555 188.584Z" fill="#3F00F9"/>
<path d="M165.399 187.971C169.009 188.394 172.64 189.085 176.306 189.843L176.25 190.143C176.339 189.887 176.373 189.787 176.361 189.854H176.562H176.774L177.253 189.932L178.2 190.065L180.105 190.299C181.386 190.433 182.678 190.567 183.982 190.645C185.285 190.723 186.589 190.823 187.903 190.867C189.218 190.912 190.544 190.968 191.869 190.968C194.532 191.035 197.206 190.968 199.913 190.879C202.62 190.79 205.339 190.645 208.068 190.344C217.187 189.536 226.24 188.103 235.162 186.055C243.459 184.098 251.642 181.685 259.672 178.825C263.434 177.589 267.059 175.969 270.49 173.99C273.712 172.11 276.659 169.793 279.246 167.106C279.87 166.449 280.472 165.791 281.029 165.101C281.599 164.434 282.134 163.739 282.633 163.018C283.602 161.614 284.484 160.152 285.274 158.64C286.752 155.781 287.979 152.799 288.939 149.728C289.809 146.933 290.505 144.087 291.022 141.205C291.461 138.624 291.762 136.021 291.925 133.407C291.925 132.717 291.992 132.037 292.014 131.369L292.348 131.58C292.348 132.182 292.348 132.806 292.281 133.43C292.132 136.042 291.845 138.645 291.423 141.228C290.922 144.127 290.238 146.993 289.373 149.805C288.417 152.907 287.19 155.919 285.708 158.807C284.917 160.345 284.032 161.833 283.057 163.263C282.555 163.987 282.009 164.7 281.43 165.379C280.851 166.059 280.26 166.749 279.636 167.418C277.019 170.145 274.039 172.499 270.779 174.414C267.323 176.423 263.668 178.069 259.873 179.326C251.825 182.261 243.62 184.745 235.296 186.768C226.349 188.831 217.27 190.271 208.124 191.079C205.383 191.38 202.643 191.447 199.935 191.614C197.228 191.781 194.532 191.77 191.858 191.703C190.521 191.703 189.196 191.703 187.881 191.592C186.566 191.48 185.241 191.48 183.937 191.369C181.324 191.205 178.721 190.907 176.139 190.478C172.663 189.787 169.265 189.119 165.889 188.684L163.884 187.837L165.399 187.971Z" fill="#3F00F9"/>
<path d="M135.386 191.792C133.639 192.462 131.97 193.318 130.406 194.343C129.804 194.566 129.292 194.789 128.69 195.012C130.641 193.431 132.834 192.174 135.185 191.291C137.063 190.546 138.987 189.92 140.945 189.419L141.847 189.765C139.648 190.286 137.489 190.963 135.386 191.792Z" fill="#3F00F9"/>
<path d="M130.773 229.367C132.037 227.889 133.022 226.195 133.681 224.365C134.359 222.287 134.436 220.058 133.904 217.938C133.224 215.608 132.167 213.407 130.773 211.421C129.205 209.25 127.805 206.964 126.584 204.581C125.956 203.269 125.661 201.823 125.726 200.37C125.731 199.993 125.787 199.618 125.894 199.256C125.951 198.875 126.048 198.502 126.183 198.142C126.49 197.444 126.904 196.797 127.409 196.226C127.666 195.927 127.942 195.645 128.233 195.379C128.712 195.179 129.214 194.978 129.748 194.789C129.042 195.31 128.389 195.9 127.799 196.549C127.336 197.08 126.96 197.682 126.685 198.331C126.558 198.659 126.465 198.999 126.406 199.345C126.31 199.678 126.258 200.023 126.25 200.37C126.189 201.745 126.464 203.114 127.052 204.358C128.254 206.72 129.632 208.987 131.174 211.142C132.584 213.181 133.646 215.44 134.316 217.826C134.867 220.034 134.774 222.353 134.049 224.51C133.37 226.376 132.354 228.102 131.052 229.601C129.172 231.725 127.027 233.597 124.668 235.171L124.367 235.104C126.745 233.481 128.899 231.552 130.773 229.367Z" fill="#3F00F9"/>
<path d="M124.635 235.127L124.368 235.305L124.312 235.071L124.635 235.127Z" fill="#3F00F9"/>
<path d="M124.368 235.305L124.022 235.539L123.955 235.316L124.312 235.071L124.368 235.305Z" fill="#3F00F9"/>
<path d="M265.12 114.859L245.334 102.605V102.282L265.387 114.536L292.058 130.912C292.058 131.112 292.058 131.313 292.058 131.513L265.12 114.859Z" fill="#3F00F9"/>
<path d="M243.028 101.145L238.571 98.3498H238.828L243.139 100.956L244.877 102.003V102.326L243.028 101.145Z" fill="#3F00F9"/>
<path d="M305.427 139.289L303.857 138.61L303.01 138.253L292.315 131.67C292.315 131.458 292.315 131.268 292.315 131.057L306.619 139.846C306.503 139.802 306.391 139.746 306.285 139.679C305.973 139.523 305.684 139.423 305.427 139.289Z" fill="#3F00F9"/>
<path d="M306.675 140.459C306.784 140.501 306.896 140.534 307.01 140.559V140.715L306.675 140.504V140.459Z" fill="#3F00F9"/>
<path d="M292.025 130.856L292.36 131.057C292.36 131.269 292.36 131.458 292.36 131.67L292.025 131.458C292.014 131.258 292.014 131.068 292.025 130.856Z" fill="#3F00F9"/>
<path d="M129.136 196.404C129.793 195.68 130.127 195.29 130.317 195.145C131.013 194.464 131.834 193.923 132.734 193.552C133.625 193.274 134.583 193.018 135.597 192.772H135.709L136.333 192.639C139.668 191.944 143.063 191.571 146.471 191.525L147.518 191.915H146.538C143.151 191.888 139.771 192.224 136.455 192.917L135.854 193.051C134.628 193.329 133.625 193.608 132.801 193.842C132.157 194.102 131.568 194.48 131.063 194.956C130.768 195.261 130.489 195.581 130.227 195.914L130.116 196.048C129.559 196.297 129.044 196.632 128.59 197.039L129.136 196.404Z" fill="#3F00F9"/>
<path d="M163.137 194.187L164.764 194.633C172.003 196.536 179.111 198.906 186.043 201.729L186.176 201.785L183.948 201.45C177.626 198.973 171.173 196.842 164.619 195.067C159.601 193.52 154.439 192.486 149.211 191.982L148.242 191.625L148.031 191.547C152.711 191.829 157.348 192.602 161.867 193.853L163.137 194.187Z" fill="#3F00F9"/>
<path d="M161.889 193.853C157.371 192.602 152.733 191.829 148.053 191.547C152.739 191.776 157.382 192.549 161.889 193.853Z" fill="#3F00F9"/>
<path d="M136.344 192.605L135.72 192.739H135.82L136.344 192.605Z" fill="#3F00F9"/>
<path d="M132.734 193.552C133.447 193.329 134.427 193.051 135.597 192.772C134.583 193.017 133.625 193.274 132.734 193.552Z" fill="#3F00F9"/>
<path d="M185.809 202.208C185.196 201.94 184.583 201.695 183.971 201.45L186.199 201.785L187.837 202.497L185.809 202.208Z" fill="#3F00F9"/>
<path d="M129.749 194.822C129.214 195.011 128.712 195.212 128.233 195.412C128.378 195.268 128.534 195.145 128.69 195.011C129.236 194.789 129.804 194.566 130.406 194.343L129.749 194.822Z" fill="#3F00F9"/>
<path d="M248.865 76.7716C248.865 84.9261 248.754 92.0334 248.643 95.7096L248.331 95.5091C248.242 91.7883 248.208 84.7924 248.23 76.7605C248.23 74.3097 248.23 71.9703 248.23 69.7646L248.832 70.1656C248.865 72.2488 248.865 74.4656 248.865 76.7716Z" fill="#3F00F9"/>
<path d="M248.286 69.5863C248.286 67.3583 248.286 65.3086 248.353 63.4816L248.855 63.8827C248.855 65.7096 248.855 67.7594 248.855 69.9762L248.286 69.5863Z" fill="#3F00F9"/>
<path d="M248.866 70.1662L248.264 69.7647V69.5863L248.866 69.9766V70.1662Z" fill="#3F00F9"/>
<path d="M237.725 63.114C237.761 63.146 237.791 63.1837 237.814 63.2256C237.814 63.2813 237.814 63.3371 237.725 63.404V63.114Z" fill="#3F00F9"/>
<path d="M237.97 63.315C238.051 63.1615 238.14 63.0126 238.238 62.869C238.238 63.1255 238.238 63.4042 238.238 63.6719L237.97 63.315Z" fill="#3F00F9"/>
<path d="M238.427 76.0699C238.527 84.8816 238.583 92.7798 238.572 97.8597L238.204 97.9377C238.07 92.8133 237.925 84.9373 237.825 76.1033C237.769 71.7253 237.736 67.57 237.703 63.8493L237.937 63.4148L238.282 63.8381C238.315 67.57 238.371 71.6918 238.427 76.0699Z" fill="#3F00F9"/>
<path d="M238.249 63.8497L237.903 63.426L237.97 63.3145L238.249 63.6713V63.8497Z" fill="#3F00F9"/>
<path d="M237.725 63.1141V62.9134L237.881 63.103L237.814 63.2257C237.791 63.1838 237.761 63.1462 237.725 63.1141Z" fill="#3F00F9"/>
<path d="M238.572 97.8594C239.686 97.6255 241.201 97.347 242.816 97.0463L244.677 96.6342C244.677 96.8458 244.677 97.0575 244.677 97.2691C244.12 97.4027 243.563 97.5475 242.928 97.67C241.39 97.9596 239.964 98.1712 238.828 98.3271L238.538 98.1489L238.572 97.8594Z" fill="#3F00F9"/>
<path d="M238.56 98.3388V98.1493L238.85 98.3277H238.594L238.56 98.3388Z" fill="#3F00F9"/>
<path d="M238.204 97.9377L238.572 97.8596V98.1495L238.204 97.9377Z" fill="#3F00F9"/>
<path d="M238.561 98.3391L238.17 98.0937V97.9488L238.527 98.1607L238.561 98.3391Z" fill="#3F00F9"/>
<path d="M316.167 135.814L316.679 136.137C316.679 136.794 316.679 137.429 316.679 138.052L316.468 137.139C316.323 136.638 316.245 136.226 316.167 135.814Z" fill="#3F00F9"/>
<path d="M316.067 138.499V137.919L316.122 138.164C316.132 138.279 316.113 138.394 316.067 138.499Z" fill="#3F00F9"/>
<path d="M316.078 135.335C316.078 132.55 316.078 129.597 316.078 126.5C316.078 122.045 316.145 117.912 316.189 114.247L316.769 114.625C316.769 118.246 316.769 122.278 316.769 126.556C316.769 129.809 316.769 132.928 316.691 135.836L316.1 135.446L316.078 135.335Z" fill="#3F00F9"/>
<path d="M316.824 114.012L316.256 113.633C316.256 112.675 316.256 111.762 316.256 110.86L316.791 111.183L316.824 114.012Z" fill="#3F00F9"/>
<path d="M316.289 109.735C316.48 109.989 316.651 110.257 316.802 110.537V110.927L316.278 110.615C316.278 110.325 316.278 110.024 316.289 109.735Z" fill="#3F00F9"/>
<path d="M316.234 113.634L316.802 114.013V114.581L316.223 114.202C316.234 114.013 316.234 113.823 316.234 113.634Z" fill="#3F00F9"/>
<path d="M298.52 127.726L306.63 132.795V133.385L298.208 128.227L292.181 124.518C292.181 124.261 292.181 124.005 292.125 123.749L298.52 127.726Z" fill="#3F00F9"/>
<path d="M310.942 135.524L315.955 138.699C315.955 138.699 315.9 138.799 315.855 138.821C315.791 138.862 315.718 138.885 315.643 138.888L310.708 135.914L306.909 133.597C306.909 133.396 306.909 133.196 306.909 133.006L310.942 135.524Z" fill="#3F00F9"/>
<path d="M256.04 100.411L283.402 118.09L291.2 123.147L291.858 123.56C291.858 123.805 291.858 124.072 291.858 124.328L290.822 123.682L283.023 118.625L255.762 100.801C252.898 98.8957 250.492 97.3027 248.654 96.0661L248.966 95.9436L256.04 100.411Z" fill="#3F00F9"/>
<path d="M306.898 132.951C306.898 133.14 306.898 133.341 306.898 133.542L306.619 133.375V132.783L306.898 132.951Z" fill="#3F00F9"/>
<path d="M292.125 123.738C292.125 123.994 292.125 124.25 292.181 124.506L291.88 124.328C291.88 124.072 291.88 123.805 291.88 123.56L292.125 123.738Z" fill="#3F00F9"/>
<path d="M248.654 95.7433L248.342 95.8102V95.5091L248.654 95.7098V95.7433Z" fill="#3F00F9"/>
<path d="M248.698 95.732L248.999 95.9327L248.687 96.0554C248.687 95.955 248.687 95.8658 248.687 95.7654L248.698 95.732Z" fill="#3F00F9"/>
<path d="M248.643 96.0329L248.342 95.8322L248.654 95.7653C248.654 95.8433 248.643 95.9325 248.643 96.0329Z" fill="#3F00F9"/>
<path d="M242.337 60.0169C241.507 60.0177 240.701 60.2917 240.042 60.7966C239.481 61.2237 238.989 61.7346 238.583 62.3113C238.449 62.5006 238.349 62.6788 238.237 62.8681V62.4338L238.393 62.1776C238.797 61.5595 239.297 61.0104 239.875 60.5515C240.576 59.9859 241.447 59.6722 242.348 59.6605C243.167 59.6752 243.971 59.8772 244.699 60.2508C244.699 60.4067 244.699 60.5404 244.699 60.6963C243.978 60.2829 243.168 60.0498 242.337 60.0169Z" fill="#3F00F9"/>
<path d="M247.607 62.8906C246.796 62.1591 245.932 61.489 245.022 60.8859V60.4292L245.222 60.5295C246.161 61.1357 247.055 61.8095 247.896 62.5454C248.041 62.6679 248.208 62.7793 248.364 62.9018C248.52 63.0243 248.364 63.2916 248.364 63.4809C248.108 63.2805 247.84 63.1134 247.607 62.8906Z" fill="#3F00F9"/>
<path d="M316.278 109.735C316.17 109.574 316.03 109.438 315.866 109.334L315.287 109C307.99 104.544 293.484 95.2529 277.308 83.723C271.548 79.6235 265.967 75.7579 261.187 71.9257C258.692 70.1656 256.174 68.6951 253.857 67.2469C252.041 66.1329 250.359 65.0189 248.843 63.9049V63.3034C250.425 64.4953 252.186 65.6428 254.135 66.8236C256.453 68.2384 258.993 69.6977 261.533 71.469C266.357 75.29 271.905 79.111 277.687 83.2217C285.753 89.0033 293.418 94.2057 299.968 98.5726L308.814 104.443L312.446 106.827L314.028 107.863L314.763 108.331L315.109 108.554L315.287 108.654H315.365L315.309 108.777L315.387 108.654L315.955 109C316.058 109.07 316.151 109.152 316.234 109.245V109.646L316.278 109.735Z" fill="#3F00F9"/>
<path d="M248.353 63.4815C248.353 63.2921 248.353 63.0917 248.353 62.9023L248.843 63.281V63.8824L248.353 63.4815Z" fill="#3F00F9"/>
<path d="M237.725 63.4373C237.725 63.3703 237.792 63.3146 237.814 63.2589L237.959 63.4261L237.725 63.861V63.4373Z" fill="#3F00F9"/>
<path d="M237.97 63.3154C237.918 63.2587 237.87 63.1992 237.825 63.137C237.947 62.8961 238.081 62.6617 238.226 62.4345V62.8694C238.133 63.0133 238.047 63.1622 237.97 63.3154Z" fill="#3F00F9"/>
<path d="M237.903 63.4262L237.758 63.259L237.825 63.1363C237.87 63.1985 237.918 63.258 237.97 63.3147L237.903 63.4262Z" fill="#3F00F9"/>
<path d="M316.289 109.334C316.365 109.408 316.433 109.49 316.49 109.579C316.605 109.727 316.71 109.883 316.802 110.047V110.537C316.651 110.257 316.48 109.989 316.289 109.735V109.334Z" fill="#3F00F9"/>
<path d="M142.939 209.594H143.017C143.017 209.683 143.017 209.772 143.017 209.873L142.961 209.716L142.939 209.594Z" fill="#3F00F9"/>
<path d="M142.883 209.415L141.914 206.82C141.548 205.682 141.116 204.566 140.622 203.478C140.061 202.314 139.409 201.197 138.672 200.136C137.917 198.975 136.958 197.959 135.842 197.139C134.712 196.388 133.363 196.035 132.01 196.137C130.751 196.272 129.575 196.825 128.668 197.707C128.259 198.091 127.937 198.558 127.726 199.077C127.514 199.596 127.417 200.155 127.442 200.715C127.551 201.727 127.807 202.717 128.2 203.656C128.93 205.572 129.908 207.385 131.107 209.048C130.675 208.69 130.3 208.27 129.993 207.8C129.065 206.579 128.315 205.233 127.765 203.801C127.329 202.823 127.037 201.788 126.896 200.726C126.857 200.087 126.956 199.446 127.187 198.848C127.417 198.25 127.774 197.709 128.233 197.262L128.545 197.006L128.055 197.551L129.815 196.337L130.071 196.014C130.662 195.748 131.289 195.571 131.932 195.49C133.436 195.371 134.935 195.764 136.188 196.604C137.371 197.469 138.383 198.545 139.173 199.779C139.929 200.887 140.589 202.057 141.145 203.277C141.635 204.364 142.055 205.48 142.404 206.619L142.549 207.076C142.683 207.778 142.816 208.569 142.95 209.46L142.883 209.415Z" fill="#3F00F9"/>
<path d="M128.1 197.551L128.59 197.005C129.044 196.598 129.559 196.264 130.116 196.014L129.86 196.337L128.1 197.551Z" fill="#3F00F9"/>
<path d="M143.028 209.482C142.895 208.591 142.761 207.8 142.627 207.098C142.928 207.989 143.207 208.836 143.463 209.616V209.738C143.377 209.683 143.288 209.635 143.195 209.593L143.028 209.482Z" fill="#3F00F9"/>
<path d="M143.028 209.638L143.151 209.705L143.529 209.906C143.529 209.906 143.529 209.984 143.529 210.028C143.641 210.63 143.73 211.276 143.808 211.955L143.061 209.917C143.028 209.817 143.028 209.727 143.028 209.638Z" fill="#3F00F9"/>
<path d="M142.883 209.416L142.995 209.483C142.995 209.483 142.995 209.583 142.995 209.639H142.917L142.883 209.416Z" fill="#3F00F9"/>
<path d="M143.028 209.639C143.028 209.639 143.028 209.527 143.028 209.482L143.229 209.594C143.321 209.635 143.411 209.684 143.496 209.739V209.828C143.496 209.828 143.496 209.884 143.496 209.906L143.117 209.705L143.028 209.639Z" fill="#3F00F9"/>
<path d="M245.055 82.7649C245.055 87.8113 245.156 92.5013 245.223 96.5117L244.677 96.6342C244.554 92.6015 244.454 87.867 244.409 82.7649C244.354 75.446 244.409 68.8177 244.565 64.0275C244.565 62.7798 244.632 61.6769 244.665 60.6855L245.011 60.8748V64.0163C245.011 68.8288 245 75.446 245.055 82.7649Z" fill="#3F00F9"/>
<path d="M244.911 102.305V101.981L245.346 102.249V102.572L244.911 102.305Z" fill="#3F00F9"/>
<path d="M245.223 96.534C245.223 96.7459 245.223 96.9466 245.223 97.1473L244.688 97.2923C244.688 97.0804 244.688 96.8685 244.688 96.6567L245.223 96.534Z" fill="#3F00F9"/>
<path d="M245.011 60.8866L244.666 60.697C244.666 60.5409 244.666 60.4071 244.666 60.251L245 60.4294V60.8866H245.011Z" fill="#3F00F9"/>
<path d="M337.747 143.623C339.036 143.327 340.285 142.879 341.468 142.286C342.079 141.992 342.674 141.665 343.25 141.306C343.54 141.116 343.841 140.938 344.119 140.737L344.542 140.437L344.877 140.214C344.988 140.214 345.144 140.359 345.233 140.392L352.675 145.015L386.732 166.181C391.318 168.289 395.26 171.581 398.152 175.717C401.49 179.733 404.185 184.242 406.14 189.085C407.108 191.592 407.752 194.213 408.056 196.883C408.138 199.574 408.512 202.249 409.17 204.859C409.963 207.45 411.441 209.779 413.448 211.599C414.425 212.544 415.555 213.316 416.79 213.883C417.349 214.163 417.992 214.227 418.595 214.061C419.13 213.894 419.419 213.27 419.587 212.646C419.832 211.304 419.855 209.93 419.653 208.58C419.497 207.21 419.252 205.851 418.963 204.514C418.354 201.838 417.61 199.194 416.735 196.593C415.106 191.498 412.987 186.574 410.407 181.889C407.872 177.369 404.885 173.118 401.494 169.2C398.131 165.551 394.43 162.228 390.442 159.274C374.511 148.134 359.872 138.509 347.528 130.533C335.184 122.557 325.068 116.274 318.072 111.963L316.813 111.183V110.927L318.194 111.751C325.235 116.007 335.385 122.234 347.773 130.166C360.162 138.097 374.801 147.7 390.777 158.818C399.143 164.763 406.027 172.554 410.897 181.588C413.517 186.315 415.674 191.284 417.336 196.426C418.215 199.045 418.958 201.707 419.564 204.402C419.872 205.767 420.107 207.146 420.266 208.535C420.474 209.96 420.447 211.408 420.188 212.824C420.128 213.22 419.971 213.594 419.732 213.914C419.493 214.235 419.179 214.492 418.818 214.662C418.078 214.881 417.282 214.814 416.59 214.473C415.291 213.883 414.104 213.072 413.08 212.078C410.987 210.185 409.447 207.759 408.624 205.06C407.966 202.411 407.592 199.7 407.51 196.972C407.221 194.343 406.592 191.763 405.638 189.297C403.701 184.5 401.033 180.032 397.728 176.051C394.87 171.99 390.977 168.767 386.454 166.716L352.475 145.416L345.055 140.771C344.943 140.715 345.055 140.704 344.865 140.771L344.431 141.072C344.141 141.283 343.841 141.462 343.54 141.64C342.954 142.015 342.344 142.35 341.713 142.642C340.498 143.244 339.215 143.697 337.891 143.99C336.916 144.216 335.918 144.328 334.917 144.325C335.541 144.157 336.153 143.979 336.733 143.779C337.033 143.768 337.39 143.701 337.747 143.623Z" fill="#3F00F9"/>
<path d="M324.055 140.47C321.314 139.033 318.863 137.574 316.679 136.137V135.791C319.112 137.378 321.626 138.835 324.211 140.158C326.16 141.139 328.21 142.23 330.438 143.11C331.658 143.595 332.949 143.874 334.26 143.935L333.435 144.124L333.034 144.213C332.094 144.077 331.173 143.826 330.293 143.467C328.032 142.564 326.004 141.462 324.055 140.47Z" fill="#3F00F9"/>
<path d="M316.1 135.524V135.457L316.691 135.847V136.193L316.178 135.87C316.145 135.691 316.122 135.524 316.1 135.524Z" fill="#3F00F9"/>
<path d="M316.267 110.86V110.615L316.791 110.927V111.184L316.267 110.86Z" fill="#3F00F9"/>
<path d="M174.144 201.25L181.063 203.834C183.291 205.283 185.229 206.709 187.235 208.29C191.393 211.48 195.011 215.316 197.952 219.653C199.436 221.916 200.545 224.402 201.239 227.017C201.562 228.354 201.785 229.657 202.197 230.938C202.592 232.218 203.119 233.453 203.768 234.625C205.096 236.991 207.015 238.971 209.338 240.374C210.476 241.107 211.731 241.642 213.048 241.956C213.654 242.122 214.301 242.059 214.864 241.777C215.098 241.589 215.282 241.347 215.4 241.071C215.519 240.795 215.568 240.494 215.543 240.195C215.513 238.831 215.26 237.48 214.797 236.196C214.365 234.887 213.867 233.6 213.304 232.342C209.96 224.951 205.611 218.057 200.381 211.855C197.593 208.647 194.553 205.667 191.29 202.943L192.404 203.088C195.417 205.67 198.236 208.47 200.838 211.465C204.357 215.568 207.462 220.008 210.107 224.722C211.488 227.118 212.745 229.583 213.872 232.108C214.446 233.383 214.952 234.689 215.387 236.018C215.879 237.372 216.143 238.799 216.167 240.24C216.187 240.638 216.11 241.035 215.941 241.397C215.772 241.758 215.517 242.072 215.198 242.312C214.512 242.668 213.72 242.763 212.97 242.579C211.578 242.252 210.252 241.69 209.048 240.919C206.632 239.461 204.636 237.399 203.255 234.937C202.586 233.725 202.041 232.449 201.629 231.127C201.205 229.824 200.971 228.454 200.659 227.184C199.992 224.627 198.912 222.196 197.462 219.987C194.561 215.706 190.991 211.919 186.889 208.769C185.909 207.956 184.895 207.221 183.892 206.463C183.391 206.085 182.868 205.739 182.355 205.349L180.873 204.325L173.966 201.729L148.108 192.026L147.54 191.814C148.108 191.814 148.654 191.814 149.256 191.903L174.144 201.25Z" fill="#3F00F9"/>
<path d="M127.821 184.217C127.933 183.972 128.178 184.217 128.323 184.217L127.665 184.395L127.821 184.217Z" fill="#3F00F9"/>
<path d="M110.854 189.397L109.74 189.096L110.386 188.884L111.5 189.185L110.854 189.397Z" fill="#3F00F9"/>
<path d="M143.474 179.995L142.505 179.605L143.284 179.393L144.265 179.783L143.474 179.995Z" fill="#3F00F9"/>
<path d="M190.577 202.364L191.691 202.509C191.925 202.709 192.181 202.899 192.415 203.11L191.301 202.965L190.577 202.364Z" fill="#3F00F9"/>
<path d="M142.716 189.564L141.847 189.764L140.945 189.419L141.769 189.208L142.716 189.564Z" fill="#3F00F9"/>
<path d="M163.939 187.815L165.945 188.662L165.321 188.572L163.995 188.428L162.124 187.648L163.939 187.815Z" fill="#3F00F9"/>
<path d="M146.538 191.502C147.039 191.502 147.54 191.502 148.053 191.502L148.264 191.58L149.234 191.937C148.654 191.937 148.12 191.87 147.518 191.848L146.471 191.458L146.538 191.502Z" fill="#3F00F9"/>
<path d="M315.51 138.866C315.554 138.876 315.599 138.876 315.643 138.866L316.067 139.133L316.234 139.222L316.178 139.278C315.986 139.408 315.763 139.484 315.532 139.501L315.03 139.579H314.897L314.217 139.167L314.083 139.089L314.941 138.966L315.51 138.866Z" fill="#3F00F9"/>
<path d="M306.798 139.902C306.932 139.951 307.069 139.988 307.21 140.013C307.53 140.055 307.855 140.036 308.168 139.958L309.282 139.79L311.588 139.445L313.482 139.167L314.05 139.534L314.262 139.668H313.995L311.688 140.013L309.382 140.347L308.268 140.503C307.9 140.57 307.522 140.57 307.154 140.503H307.087C307.087 140.336 307.087 140.169 307.087 140.002L306.798 139.902Z" fill="#3F00F9"/>
<path d="M315.955 138.643C316.002 138.603 316.04 138.554 316.067 138.498V138.71L315.955 138.643Z" fill="#3F00F9"/>
<path d="M303.01 138.253L303.856 138.61L305.427 139.289C305.717 139.423 305.973 139.523 306.33 139.701C306.435 139.768 306.547 139.824 306.664 139.868C306.664 140.069 306.664 140.258 306.664 140.458H306.519L303.01 138.253Z" fill="#3F00F9"/>
<path d="M306.664 139.868H306.753L306.998 140.025C306.998 140.192 306.998 140.359 306.998 140.526C306.885 140.501 306.773 140.468 306.664 140.426C306.675 140.259 306.664 140.069 306.664 139.868Z" fill="#3F00F9"/>
<path d="M316.067 138.709V138.498C316.113 138.393 316.132 138.278 316.122 138.164L316.067 137.918C316.067 137.206 316.067 136.493 316.067 135.691L316.156 135.758C316.234 136.17 316.312 136.615 316.434 137.083L316.646 137.996C316.646 138.141 316.646 138.286 316.646 138.42C316.621 138.592 316.556 138.756 316.457 138.899L316.067 138.709Z" fill="#3F00F9"/>
<path d="M315.956 138.643L316.067 138.71V139.1L315.643 138.833C315.719 138.829 315.792 138.806 315.855 138.766C315.855 138.766 315.922 138.688 315.956 138.643Z" fill="#3F00F9"/>
<path d="M316.457 138.955C316.391 139.041 316.317 139.12 316.234 139.19L316.067 139.1V138.71L316.457 138.955Z" fill="#3F00F9"/>
<path d="M316.089 135.401V135.524C316.089 135.625 316.089 135.747 316.156 135.87L316.067 135.803V135.446L316.089 135.401Z" fill="#3F00F9"/>
<path d="M319.442 142.208C320.434 142.765 321.47 143.322 322.584 143.823C323.735 144.31 324.951 144.626 326.194 144.759C328.487 144.974 330.8 144.797 333.034 144.235C333.639 144.329 334.249 144.378 334.861 144.38L333.569 144.703C331.149 145.376 328.627 145.603 326.127 145.372C324.824 145.242 323.549 144.908 322.35 144.38C321.256 143.88 320.188 143.322 319.153 142.709C317.27 141.595 315.61 140.604 314.206 139.69L314.897 139.59C316.223 140.359 317.738 141.25 319.442 142.208Z" fill="#3F00F9"/>
<path d="M333.435 144.124L334.259 143.935C335.067 143.971 335.877 143.93 336.677 143.812C336.098 144.013 335.485 144.191 334.861 144.358C334.249 144.355 333.638 144.307 333.034 144.213L333.435 144.124Z" fill="#3F00F9"/>
<path d="M313.482 139.167L313.906 139.111H314.139L314.273 139.189L314.953 139.601L314.262 139.701L314.05 139.568L313.482 139.167Z" fill="#3F00F9"/>
<g filter="url(#filter0_i_1668_9822)">
<path d="M56.9037 189.828L56.3775 181.666L58.0388 181.053L58.3987 188.262L58.5697 188.199L61.8255 179.656L63.4867 179.043L59.6644 188.809L56.9037 189.828ZM62.8668 187.628L64.5148 178.664L68.2282 177.293C68.7657 177.095 69.2159 177.021 69.5788 177.07C69.9418 177.119 70.2002 177.282 70.3542 177.559C70.5081 177.837 70.5403 178.219 70.4509 178.705L70.4226 178.859C70.3237 179.397 70.1215 179.877 69.816 180.301C69.5105 180.724 69.1645 181.078 68.7779 181.364L68.7355 181.595C69.0581 181.491 69.2886 181.518 69.4269 181.674C69.5669 181.821 69.6039 182.074 69.5379 182.432L68.9988 185.365L67.3864 185.96L67.8808 183.271C67.9185 183.066 67.8961 182.919 67.8138 182.83C67.7396 182.738 67.5845 182.735 67.3483 182.823L65.1007 183.652L64.4792 187.033L62.8668 187.628ZM65.3832 182.115L67.3132 181.403C67.696 181.262 68.0128 181.046 68.2638 180.754C68.5245 180.451 68.6878 180.12 68.7537 179.761L68.7773 179.633C68.8432 179.275 68.7899 179.028 68.6174 178.893C68.4465 178.749 68.1656 178.749 67.7747 178.893L65.8447 179.605L65.3832 182.115Z" fill="#9866FF"/>
</g>
<path d="M265.418 267.159C265.418 267.743 271.182 268.298 275.924 268.318C280.857 268.318 286.515 267.773 286.515 267.199C286.515 266.624 281.267 266.13 277.14 266.04C271.562 265.915 265.418 266.549 265.418 267.159Z" fill="#E74A9F"/>
<path d="M239.894 267.159C239.894 267.743 245.657 268.298 250.4 268.318C255.332 268.318 260.991 267.773 260.991 267.199C260.991 266.624 255.743 266.13 251.615 266.04C246.037 265.915 239.894 266.549 239.894 267.159Z" fill="#FF6E61"/>
<path d="M386.612 267.159C386.612 267.738 392.376 268.298 397.118 268.313C402.051 268.313 407.709 267.768 407.714 267.199C407.719 266.629 402.461 266.125 398.334 266.04C392.756 265.92 386.612 266.549 386.612 267.159Z" fill="#0894FF"/>
<path d="M360.993 267.159C360.993 267.743 366.756 268.298 371.499 268.313C376.437 268.313 382.095 267.768 382.095 267.199C382.095 266.629 376.842 266.125 372.719 266.04C367.136 265.915 360.993 266.549 360.993 267.159Z" fill="#5463FF"/>
<path d="M318.659 264.961C319.271 264.193 320.047 263.571 320.93 263.14C321.814 262.709 322.782 262.481 323.765 262.471C324.748 262.462 325.721 262.671 326.613 263.085C327.504 263.498 328.293 264.105 328.92 264.861C329.056 265.464 329.07 266.089 328.959 266.698C328.848 267.306 328.615 267.886 328.274 268.403C327.074 270.047 324.992 270.076 324.012 270.091C323.276 270.091 320.37 270.146 319.104 268.008C318.595 267.078 318.437 265.997 318.659 264.961Z" fill="#D1C2FF"/>
<path d="M258.124 271.73C257.878 271.84 257.677 272.03 257.554 272.27C257.425 272.521 257.393 272.811 257.464 273.084C257.51 273.236 257.586 273.378 257.689 273.499C257.791 273.621 257.917 273.721 258.059 273.793L301.084 280.098C300.109 281.699 299.374 283.435 298.902 285.249C298.524 286.773 298.314 288.335 298.277 289.905C298.227 291.012 298.247 292.122 298.337 293.227C298.287 293.413 298.28 293.609 298.317 293.798C298.355 293.987 298.435 294.165 298.551 294.319C298.668 294.472 298.818 294.597 298.991 294.684C299.163 294.77 299.354 294.817 299.547 294.819C299.74 294.82 299.931 294.778 300.105 294.695C300.279 294.612 300.432 294.49 300.552 294.339C300.672 294.188 300.755 294.011 300.796 293.823C300.837 293.635 300.835 293.439 300.788 293.252C300.685 291.702 300.756 290.145 300.999 288.611C301.461 285.74 302.504 282.993 304.065 280.538L306.952 280.957C307.869 282.173 308.958 283.25 310.184 284.155C310.868 284.671 311.614 285.099 312.405 285.429C312.989 285.664 313.593 285.843 314.211 285.963C316.459 286.345 318.731 286.572 321.01 286.643C321.01 287.322 321.01 288.001 321.01 288.681C320.659 288.69 320.314 288.768 319.993 288.912C319.673 289.055 319.385 289.261 319.145 289.517C318.905 289.773 318.718 290.073 318.596 290.402C318.474 290.731 318.418 291.08 318.432 291.43C318.447 291.78 318.531 292.124 318.679 292.442C318.828 292.759 319.038 293.044 319.298 293.28C319.558 293.515 319.862 293.697 320.193 293.814C320.524 293.931 320.875 293.981 321.225 293.961C321.358 294.368 321.622 294.719 321.976 294.961C322.351 295.2 322.826 295.195 323.752 295.175C324.677 295.155 325.172 295.135 325.533 294.861C325.828 294.616 326.039 294.283 326.133 293.911C326.613 293.993 327.106 293.941 327.559 293.762C327.959 293.587 328.313 293.322 328.592 292.986C328.871 292.65 329.067 292.254 329.165 291.828C329.224 291.362 329.17 290.889 329.007 290.448C328.844 290.007 328.577 289.612 328.229 289.295C327.912 288.98 327.508 288.766 327.068 288.681H326.743H326.438L326.508 286.723C328.109 286.714 329.707 286.592 331.291 286.358C333.292 286.058 334.578 285.888 335.918 285.239C337.858 284.263 339.467 282.739 340.546 280.857L343.233 280.473C343.628 281.132 343.978 281.662 344.233 282.021C344.566 282.469 344.873 282.934 345.154 283.415C345.407 283.894 345.613 284.396 345.769 284.914C346.182 286.331 346.426 287.791 346.495 289.265C346.57 290.29 346.645 291.618 346.655 293.187C346.592 293.383 346.576 293.591 346.608 293.795C346.639 293.998 346.717 294.191 346.836 294.359C346.955 294.528 347.111 294.666 347.292 294.764C347.474 294.862 347.675 294.917 347.881 294.924C348.087 294.931 348.292 294.89 348.479 294.805C348.667 294.72 348.833 294.593 348.963 294.434C349.093 294.274 349.185 294.087 349.23 293.886C349.276 293.686 349.275 293.477 349.226 293.277C349.233 291.899 349.169 290.522 349.036 289.15C348.945 287.583 348.692 286.03 348.281 284.514C347.814 282.941 347.125 281.442 346.234 280.063L389.759 273.843C389.896 273.715 390.005 273.56 390.081 273.388C390.157 273.217 390.197 273.032 390.199 272.844C390.194 272.648 390.146 272.455 390.06 272.278C389.974 272.102 389.851 271.946 389.699 271.82H387.928L387.873 270.921H385.597C385.597 269.495 385.585 268.072 385.562 266.649C385.539 266.347 385.402 266.064 385.178 265.859C384.954 265.653 384.661 265.541 384.357 265.544C384.053 265.547 383.762 265.666 383.542 265.876C383.323 266.086 383.192 266.371 383.175 266.674L383.125 270.916H380.804V271.815L344.613 271.655C340.26 267.768 334.766 265.39 328.95 264.876C329.208 266.016 329.014 267.212 328.409 268.213C327.148 270.121 324.642 270.082 323.842 270.072C323.216 270.072 319.934 269.922 318.839 267.549C318.495 266.726 318.425 265.816 318.639 264.951C312.853 265.356 307.372 267.691 303.075 271.58L281.102 271.645L266.714 271.7L266.679 270.936L264.458 270.896C264.458 269.527 264.458 268.163 264.458 266.794C264.45 266.48 264.324 266.18 264.105 265.953C263.887 265.727 263.591 265.59 263.277 265.57C263.104 265.572 262.934 265.609 262.776 265.678C262.617 265.748 262.475 265.849 262.357 265.975C262.239 266.101 262.148 266.25 262.09 266.412C262.031 266.574 262.006 266.747 262.016 266.919V270.881H259.62V271.705L258.124 271.73Z" fill="url(#paint0_radial_1668_9822)"/>
<path d="M340.476 280.708L340.276 281.027L340.101 281.292C339.981 281.467 339.856 281.637 339.731 281.792C339.48 282.126 339.213 282.448 338.93 282.756C338.369 283.369 337.746 283.922 337.069 284.404C336.395 284.87 335.65 285.224 334.863 285.454C334.083 285.694 333.287 285.881 332.481 286.013C330.529 286.319 328.559 286.501 326.583 286.558V286.802C328.57 286.753 330.552 286.576 332.517 286.273C333.333 286.136 334.14 285.948 334.933 285.708C335.747 285.477 336.519 285.118 337.219 284.644C337.91 284.151 338.547 283.587 339.12 282.961C339.41 282.646 339.681 282.321 339.941 281.962C340.066 281.792 340.191 281.617 340.311 281.462L340.491 281.192L340.631 280.972L343.213 280.603L343.033 280.368L340.476 280.708Z" fill="#3F00F9"/>
<path d="M259.555 271.745V271.705H258.924H258.129C258.129 271.705 258.399 271.705 258.924 271.705L259.555 271.745Z" fill="#3F00F9"/>
<path d="M269.451 275.397L259.115 273.898L258.279 273.778L258.084 273.753C258.014 273.753 257.969 273.753 257.924 273.698C257.829 273.631 257.746 273.548 257.679 273.454C257.563 273.304 257.488 273.127 257.459 272.94C257.43 272.753 257.449 272.562 257.514 272.385C257.633 272.099 257.849 271.864 258.124 271.72C258.05 271.748 257.981 271.787 257.919 271.835C257.724 271.968 257.572 272.156 257.484 272.375C257.415 272.558 257.392 272.755 257.42 272.949C257.447 273.143 257.522 273.327 257.639 273.484C257.71 273.579 257.794 273.665 257.889 273.738C257.942 273.78 258.007 273.803 258.074 273.803L258.269 273.833L259.105 273.958L269.435 275.507L301.004 280.178L301.124 279.993L269.451 275.397Z" fill="#3F00F9"/>
<path d="M321.055 286.578C321.055 286.633 321.055 286.693 321.055 286.753V286.817C321.675 286.817 322.296 286.852 322.921 286.857C324.087 286.857 325.267 286.857 326.458 286.812V286.723C326.458 286.668 326.458 286.618 326.458 286.573C325.262 286.608 324.082 286.618 322.911 286.618C322.306 286.613 321.68 286.598 321.055 286.578Z" fill="#3F00F9"/>
<path d="M343.383 280.553L346.229 280.148L346.069 279.903L343.198 280.318L343.383 280.553Z" fill="#3F00F9"/>
<path d="M301.154 280.213L304 280.648L304.13 280.453L301.299 280.043L301.154 280.213Z" fill="#3F00F9"/>
<path d="M387.848 271.655H380.844V271.74C380.844 271.82 380.844 271.88 380.844 271.93H387.898C387.898 271.89 387.898 271.845 387.898 271.79L387.848 271.655Z" fill="#3F00F9"/>
<path d="M329.215 265.046H329.445L330.295 265.151C330.861 265.231 331.426 265.325 331.991 265.44C335.458 266.151 338.752 267.532 341.687 269.507C342.187 269.842 342.687 270.191 343.153 270.561C343.393 270.746 343.628 270.936 343.863 271.126L344.208 271.42L344.588 271.75L380.749 271.86C380.749 271.81 380.749 271.75 380.749 271.665V271.585L344.698 271.485L344.393 271.221L344.038 270.926C343.803 270.731 343.563 270.541 343.323 270.356C342.822 269.982 342.347 269.627 341.847 269.292C340.848 268.62 339.805 268.016 338.725 267.484C336.609 266.436 334.366 265.667 332.051 265.196C331.481 265.081 330.911 264.981 330.34 264.901L329.48 264.796L328.979 264.746L329.18 264.981C329.188 265.004 329.2 265.026 329.215 265.046Z" fill="#3F00F9"/>
<path d="M328.824 264.896V265.006L328.864 265.256C328.957 265.798 328.938 266.354 328.809 266.889C328.68 267.424 328.444 267.927 328.114 268.368C327.398 269.194 326.402 269.728 325.317 269.867C324.249 270.039 323.158 270.01 322.101 269.782C321.059 269.597 320.11 269.069 319.404 268.283C319.087 267.878 318.859 267.412 318.734 266.914C318.609 266.415 318.59 265.896 318.679 265.39C318.679 265.256 318.709 265.196 318.759 264.971C318.644 265.101 318.544 265.231 318.448 265.36C318.355 265.897 318.375 266.447 318.508 266.976C318.64 267.504 318.883 267.999 319.219 268.428C319.958 269.258 320.952 269.819 322.046 270.022C323.134 270.256 324.257 270.286 325.357 270.111C326.504 269.962 327.555 269.394 328.309 268.518C328.655 268.058 328.905 267.534 329.044 266.976C329.183 266.418 329.209 265.838 329.12 265.271L329.014 265.131C328.969 265.051 328.894 264.976 328.824 264.896Z" fill="#3F00F9"/>
<path d="M389.959 271.845C389.901 271.785 389.839 271.728 389.774 271.675C389.729 271.615 389.614 271.635 389.594 271.635H387.963V271.77C387.963 271.825 387.963 271.87 387.963 271.91H389.634C389.683 271.947 389.728 271.989 389.769 272.035C389.859 272.128 389.933 272.234 389.989 272.35C390.099 272.584 390.124 272.849 390.059 273.099C390.027 273.223 389.974 273.341 389.904 273.449L389.784 273.599C389.704 273.669 389.784 273.624 389.684 273.649L388.834 273.768L385.437 274.268L378.713 275.232L365.535 277.111L346.229 279.883L346.389 280.128L365.575 277.38L378.748 275.497L385.472 274.533L388.869 274.033L389.719 273.913H389.774C389.806 273.917 389.838 273.917 389.869 273.913L389.984 273.803C390.037 273.744 390.085 273.68 390.129 273.614C390.217 273.482 390.283 273.337 390.325 273.184C390.406 272.872 390.374 272.541 390.234 272.25C390.166 272.101 390.073 271.964 389.959 271.845Z" fill="#3F00F9"/>
<path d="M261.256 271.69H259.655V271.73H266.659V271.655L261.256 271.69Z" fill="#3F00F9"/>
<path d="M320.96 286.578C318.582 286.545 316.213 286.27 313.891 285.758C313.182 285.591 312.492 285.353 311.83 285.049C311.189 284.725 310.581 284.34 310.014 283.9C309.452 283.469 308.922 282.998 308.428 282.491C308.183 282.241 307.927 281.992 307.717 281.717L307.387 281.312L307.042 280.867L304.27 280.463L304.145 280.658L306.922 281.067L307.217 281.447L307.552 281.857C307.782 282.126 308.022 282.391 308.268 282.646C308.77 283.16 309.308 283.637 309.879 284.075C310.456 284.526 311.076 284.921 311.73 285.254C312.407 285.561 313.112 285.804 313.836 285.978C316.174 286.499 318.56 286.778 320.955 286.812V286.758C320.955 286.693 320.96 286.643 320.96 286.578Z" fill="#3F00F9"/>
<path d="M270.226 271.74L303.125 271.66L303.67 271.161L304.2 270.716C304.56 270.426 304.931 270.146 305.311 269.867C307.669 268.155 310.301 266.856 313.095 266.025C314.068 265.741 315.055 265.511 316.052 265.335C316.552 265.251 317.053 265.181 317.553 265.121L318.323 265.046H318.413C318.472 264.961 318.536 264.879 318.604 264.801H318.548H318.308L317.528 264.876C317.028 264.936 316.497 265.011 315.987 265.101C314.982 265.274 313.987 265.507 313.01 265.8C311.121 266.378 309.303 267.169 307.592 268.158C306.763 268.632 305.959 269.151 305.186 269.712C304.806 269.992 304.43 270.276 304.07 270.571L303.535 271.021L303.035 271.455L270.216 271.62L266.769 271.645V271.74H270.226Z" fill="#3F00F9"/>
<path d="M302.865 282.536C301.975 284.305 301.346 286.193 300.998 288.141C300.791 289.288 300.669 290.449 300.633 291.613C300.633 292.218 300.633 292.837 300.633 293.457C300.659 293.74 300.576 294.022 300.4 294.245C300.224 294.468 299.969 294.615 299.688 294.656C299.407 294.684 299.126 294.601 298.906 294.424C298.686 294.247 298.545 293.992 298.512 293.712C298.462 293.102 298.422 292.488 298.407 291.888C298.381 290.736 298.42 289.584 298.522 288.436C298.645 286.485 299.085 284.567 299.823 282.756C300.191 281.878 300.629 281.031 301.134 280.223H300.983C300.465 281.016 300.015 281.852 299.638 282.721C298.867 284.542 298.403 286.478 298.267 288.451C298.154 289.613 298.11 290.781 298.137 291.948C298.137 292.553 298.187 293.162 298.237 293.797C298.278 294.153 298.46 294.478 298.741 294.701C299.022 294.924 299.381 295.026 299.738 294.986C300.09 294.936 300.41 294.752 300.631 294.473C300.852 294.194 300.956 293.841 300.923 293.487C300.893 292.862 300.893 292.253 300.923 291.653C300.956 290.503 301.071 289.356 301.269 288.221C301.594 286.289 302.19 284.412 303.04 282.646C303.369 281.97 303.738 281.315 304.145 280.683L304 280.648C303.585 281.254 303.205 281.885 302.865 282.536Z" fill="#3F00F9"/>
<path d="M301.273 280.028H301.123L301.003 280.213H301.153L301.273 280.028Z" fill="#3F00F9"/>
<path d="M304.105 280.438L304 280.648L304.17 280.673L304.295 280.478L304.105 280.438Z" fill="#3F00F9"/>
<path d="M347.6 282.781C348.325 284.607 348.755 286.536 348.876 288.496C348.981 289.6 349.061 290.759 349.071 291.993C349.071 292.293 349.071 292.598 349.071 292.907C349.072 293.208 349.057 293.508 349.026 293.807C348.958 294.081 348.79 294.321 348.554 294.478C348.319 294.636 348.033 294.699 347.752 294.657C347.472 294.614 347.218 294.468 347.04 294.248C346.862 294.028 346.773 293.749 346.79 293.467C346.79 292.837 346.79 292.218 346.79 291.613C346.765 290.444 346.681 289.277 346.54 288.116C346.419 287.063 346.209 286.022 345.914 285.004C345.665 284.106 345.257 283.26 344.709 282.506L343.433 280.618L343.393 280.573L343.223 280.598L343.303 280.713L344.543 282.611C345.544 283.965 346.014 285.953 346.284 288.146C346.422 289.297 346.499 290.455 346.515 291.613C346.515 292.216 346.515 292.831 346.515 293.457C346.486 293.814 346.594 294.168 346.817 294.449C347.041 294.729 347.363 294.913 347.718 294.965C348.073 295.016 348.434 294.931 348.728 294.726C349.022 294.521 349.227 294.212 349.301 293.862C349.339 293.545 349.356 293.226 349.351 292.907V291.983C349.351 290.769 349.256 289.595 349.141 288.486C349.042 287.431 348.875 286.383 348.641 285.349C348.431 284.447 348.141 283.566 347.775 282.716C347.388 281.818 346.919 280.956 346.374 280.143H346.224C346.756 280.982 347.216 281.865 347.6 282.781Z" fill="#3F00F9"/>
<path d="M346.069 279.903L346.229 280.148H346.379L346.219 279.903H346.069Z" fill="#3F00F9"/>
<path d="M343.197 280.318H343.032L343.212 280.553L343.382 280.528L343.197 280.318Z" fill="#3F00F9"/>
<path d="M325.707 294.551C325.292 295.135 324.477 295.001 323.706 295.051C322.936 295.1 322.125 295.16 321.705 294.591C321.586 294.448 321.487 294.29 321.41 294.121H321.12C321.209 294.356 321.338 294.574 321.5 294.766C321.631 294.918 321.789 295.045 321.965 295.14C322.151 295.227 322.351 295.28 322.556 295.295C322.94 295.325 323.326 295.335 323.711 295.325C324.097 295.325 324.477 295.325 324.867 295.28C325.071 295.266 325.27 295.212 325.452 295.12C325.629 295.023 325.785 294.892 325.913 294.736C326.08 294.535 326.209 294.304 326.293 294.056H326.013C325.938 294.236 325.835 294.403 325.707 294.551Z" fill="#3F00F9"/>
<path d="M321.12 288.586C321.12 287.867 321.08 287.267 321.065 286.817H320.955C320.955 287.267 320.955 287.867 320.955 288.586H321.13H321.12Z" fill="#3F00F9"/>
<path d="M326.373 288.641H326.553C326.553 287.897 326.553 287.272 326.553 286.807H326.443C326.443 287.277 326.413 287.897 326.373 288.641Z" fill="#3F00F9"/>
<path d="M326.583 286.568H326.483C326.483 286.613 326.483 286.663 326.483 286.718V286.808H326.593V286.563L326.583 286.568Z" fill="#3F00F9"/>
<path d="M321.065 286.753C321.065 286.693 321.065 286.633 321.065 286.578H320.97C320.97 286.633 320.97 286.693 320.97 286.758V286.813H321.08L321.065 286.753Z" fill="#3F00F9"/>
<path d="M323.046 288.596H321.12V288.821H323.036L326.003 288.771H326.358V288.641H325.998L323.046 288.596Z" fill="#3F00F9"/>
<path d="M321.31 293.832C321.34 293.925 321.375 294.017 321.415 294.106H321.915H323.291L325.888 294.071H326.013C326.047 293.988 326.077 293.903 326.103 293.817H325.893L321.31 293.832Z" fill="#3F00F9"/>
<path d="M320.535 293.837C320.104 293.728 319.708 293.514 319.383 293.213C319.058 292.911 318.814 292.533 318.674 292.113C318.543 291.721 318.511 291.303 318.582 290.895C318.653 290.488 318.823 290.105 319.079 289.78C319.316 289.476 319.614 289.226 319.954 289.046C320.115 288.964 320.282 288.897 320.455 288.846L320.565 288.816H320.93V288.581H320.565C320.507 288.585 320.45 288.597 320.395 288.616C320.199 288.666 320.009 288.738 319.829 288.831C319.45 289.02 319.119 289.291 318.859 289.625C318.576 289.983 318.386 290.405 318.306 290.854C318.226 291.303 318.257 291.764 318.398 292.198C318.552 292.663 318.822 293.082 319.181 293.416C319.541 293.75 319.979 293.987 320.455 294.106C320.479 294.111 320.505 294.111 320.53 294.106H321.11C321.075 294.011 321.045 293.921 321.02 293.827L320.535 293.837Z" fill="#3F00F9"/>
<path d="M328.039 289.2C328.368 289.456 328.638 289.78 328.829 290.15C329.084 290.634 329.172 291.189 329.08 291.728C328.964 292.375 328.607 292.954 328.079 293.347C327.934 293.455 327.778 293.547 327.614 293.622C327.533 293.663 327.449 293.7 327.364 293.732C327.285 293.762 327.202 293.782 327.118 293.792H326.398C326.378 293.876 326.353 293.96 326.323 294.041H327.123C327.332 294.011 327.534 293.943 327.719 293.842C327.896 293.758 328.064 293.656 328.219 293.537C328.797 293.11 329.186 292.476 329.305 291.768C329.39 291.187 329.281 290.593 328.995 290.08C328.784 289.698 328.49 289.368 328.134 289.116C327.909 288.96 327.663 288.837 327.404 288.751C327.316 288.714 327.223 288.694 327.128 288.691C327.45 288.826 327.756 288.997 328.039 289.2Z" fill="#3F00F9"/>
<path d="M326.818 288.711C326.912 288.71 327.006 288.702 327.098 288.686C327.007 288.663 326.912 288.653 326.818 288.656H326.553V288.731L326.818 288.711Z" fill="#3F00F9"/>
<path d="M326.098 293.797C326.072 293.883 326.042 293.968 326.008 294.052H326.298C326.327 293.97 326.352 293.886 326.373 293.802L326.098 293.797Z" fill="#3F00F9"/>
<path d="M326.368 288.726H326.553V288.641H326.373L326.368 288.726Z" fill="#3F00F9"/>
<path d="M321.01 288.816H321.145V288.591H320.97V288.826L321.01 288.816Z" fill="#3F00F9"/>
<path d="M321.415 294.107C321.375 294.017 321.34 293.925 321.31 293.832H321.035C321.035 293.927 321.09 294.017 321.125 294.112H321.415V294.107Z" fill="#3F00F9"/>
<path d="M318.789 264.911C318.787 264.931 318.787 264.951 318.789 264.971C319.249 264.44 319.787 263.982 320.385 263.612C320.857 263.328 321.361 263.1 321.885 262.933C322.447 262.76 323.029 262.661 323.616 262.638C324.758 262.599 325.89 262.855 326.903 263.382C327.637 263.759 328.295 264.267 328.844 264.881V264.791V264.741H328.894H328.994H329.014C328.356 263.956 327.528 263.331 326.592 262.914C325.655 262.496 324.636 262.298 323.611 262.333C322.998 262.356 322.391 262.46 321.805 262.643C321.264 262.823 320.745 263.064 320.259 263.362C319.656 263.753 319.114 264.233 318.654 264.786C318.729 264.806 318.864 264.766 318.789 264.911Z" fill="#3F00F9"/>
<path d="M328.849 264.761H328.799V264.811V264.901C328.869 264.981 328.944 265.056 329.009 265.136L329.114 265.276C329.112 265.259 329.112 265.243 329.114 265.226L329.084 265.056H329.184C329.175 265.043 329.167 265.03 329.159 265.016L328.959 264.781H328.919L328.849 264.761Z" fill="#3F00F9"/>
<path d="M318.508 265.066C318.508 265.036 318.473 265.246 318.458 265.356C318.553 265.226 318.653 265.096 318.768 264.966C318.766 264.946 318.766 264.926 318.768 264.906C318.843 264.761 318.708 264.801 318.608 264.811C318.541 264.889 318.477 264.971 318.418 265.056C318.508 265.056 318.508 265.046 318.508 265.066Z" fill="#3F00F9"/>
<path d="M259.72 270.991H259.975H260.355H261.211H261.991C261.991 270.921 261.991 270.831 261.991 270.726H261.236L259.565 270.756C259.565 270.881 259.565 270.996 259.565 271.106V271.335C259.565 271.46 259.565 271.565 259.565 271.655H259.67C259.675 271.525 259.695 271.286 259.72 270.991Z" fill="#3F00F9"/>
<path d="M265.158 271.036H265.994H266.619L266.659 271.68H266.779V271.465V271.216C266.779 271.101 266.779 270.976 266.779 270.846L265.128 270.811H264.503C264.503 270.916 264.503 271.001 264.503 271.071L265.158 271.036Z" fill="#3F00F9"/>
<path d="M264.443 271.041C264.443 270.966 264.443 270.881 264.443 270.776H263.232H262.091C262.091 270.881 262.091 270.971 262.091 271.041H263.252H264.443Z" fill="#3F00F9"/>
<path d="M259.655 271.745V271.705H259.55V271.745H259.655Z" fill="#3F00F9"/>
<path d="M266.664 271.745H266.779V271.655H266.659L266.664 271.745Z" fill="#3F00F9"/>
<path d="M262.126 269.347C262.126 268.778 262.126 268.098 262.166 267.349C262.166 267.164 262.166 266.959 262.166 266.779C262.18 266.602 262.237 266.43 262.331 266.28C262.432 266.121 262.572 265.992 262.738 265.904C262.903 265.817 263.089 265.774 263.277 265.78C263.464 265.788 263.647 265.844 263.806 265.943C263.966 266.042 264.097 266.18 264.187 266.345C264.273 266.498 264.319 266.669 264.322 266.844C264.322 267.044 264.322 267.234 264.322 267.424C264.322 268.178 264.322 268.853 264.358 269.422C264.393 269.992 264.388 270.461 264.408 270.781H264.518C264.518 270.461 264.548 269.997 264.558 269.422C264.568 268.848 264.558 268.178 264.558 267.424V266.844C264.558 266.62 264.503 266.398 264.398 266.2C264.288 265.99 264.124 265.814 263.923 265.688C263.722 265.563 263.492 265.493 263.255 265.486C263.018 265.479 262.784 265.535 262.576 265.648C262.368 265.761 262.194 265.927 262.071 266.13C261.952 266.321 261.883 266.539 261.871 266.764C261.871 266.974 261.871 267.159 261.871 267.349C261.871 268.103 261.871 268.778 261.871 269.347C261.871 269.917 261.871 270.456 261.911 270.776H262.011C262.091 270.451 262.111 269.967 262.126 269.347Z" fill="#3F00F9"/>
<path d="M264.443 271.041H264.513C264.513 270.971 264.513 270.886 264.513 270.781H264.403C264.428 270.881 264.433 270.966 264.443 271.041Z" fill="#3F00F9"/>
<path d="M262.051 271.036C262.051 270.966 262.051 270.876 262.051 270.771H261.976C261.976 270.876 261.976 270.966 261.976 271.036H262.051Z" fill="#3F00F9"/>
<path d="M386.342 270.971H387.183H387.558H387.808C387.808 271.246 387.838 271.47 387.848 271.66H387.963V271.4V271.156C387.963 271.036 387.963 270.916 387.963 270.781L386.312 270.746H385.622C385.622 270.856 385.622 270.941 385.622 271.011L386.342 270.971Z" fill="#3F00F9"/>
<path d="M385.547 270.976C385.547 270.906 385.547 270.816 385.547 270.711H384.401H383.19C383.19 270.826 383.19 270.916 383.165 270.976H384.401H385.547Z" fill="#3F00F9"/>
<path d="M380.904 270.926H381.164H381.544H382.4H383.115C383.115 270.866 383.115 270.776 383.115 270.661H382.42L380.749 270.691V271.271V271.56H380.854C380.859 271.435 380.884 271.206 380.904 270.926Z" fill="#3F00F9"/>
<path d="M380.749 271.885H380.814C380.814 271.835 380.814 271.775 380.814 271.695V271.61H380.709V271.69C380.744 271.775 380.749 271.835 380.749 271.885Z" fill="#3F00F9"/>
<path d="M387.853 271.765C387.853 271.82 387.853 271.865 387.853 271.905H387.933C387.933 271.865 387.933 271.82 387.933 271.765V271.655H387.818L387.853 271.765Z" fill="#3F00F9"/>
<path d="M383.25 269.227C383.25 268.658 383.25 267.978 383.29 267.229C383.29 267.044 383.29 266.839 383.29 266.659C383.3 266.481 383.357 266.309 383.456 266.16C383.555 266.002 383.694 265.873 383.859 265.785C384.024 265.697 384.209 265.654 384.396 265.66C384.585 265.669 384.768 265.726 384.929 265.825C385.089 265.925 385.221 266.064 385.312 266.23C385.393 266.384 385.439 266.555 385.447 266.729C385.447 266.924 385.447 267.119 385.447 267.304C385.447 268.058 385.472 268.738 385.482 269.302C385.492 269.867 385.517 270.391 385.532 270.711H385.637C385.637 270.391 385.667 269.912 385.677 269.302C385.687 268.693 385.677 268.053 385.677 267.304C385.677 267.114 385.677 266.919 385.677 266.724C385.676 266.5 385.621 266.279 385.517 266.08C385.405 265.871 385.24 265.695 385.039 265.57C384.838 265.445 384.608 265.374 384.371 265.365C384.134 265.359 383.899 265.415 383.691 265.528C383.483 265.641 383.308 265.807 383.185 266.01C383.084 266.211 383.035 266.434 383.045 266.659C383.045 266.874 383.045 267.054 383.045 267.249C383.045 267.998 383.045 268.678 383.045 269.247C383.045 269.907 383.075 270.411 383.09 270.746H383.185C383.21 270.391 383.23 269.887 383.25 269.227Z" fill="#3F00F9"/>
<path d="M383.165 270.971C383.165 270.911 383.165 270.821 383.19 270.706H383.095C383.095 270.821 383.095 270.911 383.095 270.971H383.165Z" fill="#3F00F9"/>
<path d="M385.547 270.976H385.612C385.612 270.906 385.612 270.821 385.612 270.711H385.547C385.547 270.816 385.547 270.906 385.547 270.976Z" fill="#3F00F9"/>
<path d="M360.988 267.374C361.034 267.408 361.085 267.436 361.138 267.459C361.233 267.504 361.332 267.541 361.433 267.569C361.623 267.629 361.818 267.674 362.003 267.713C362.384 267.788 362.759 267.848 363.119 267.898C363.844 267.998 364.54 268.063 365.19 268.118C366.491 268.228 367.627 268.283 368.567 268.308C369.508 268.333 370.243 268.343 370.743 268.338H371.319H371.519C371.453 268.327 371.385 268.327 371.319 268.338H370.748L368.572 268.243C367.637 268.193 366.501 268.123 365.205 267.998C364.56 267.933 363.869 267.858 363.149 267.753C362.794 267.699 362.424 267.639 362.053 267.559C361.868 267.519 361.683 267.474 361.503 267.419C361.414 267.392 361.327 267.358 361.243 267.319C361.204 267.304 361.167 267.284 361.133 267.259C361.103 267.229 361.133 267.259 361.133 267.234C361.133 267.209 361.133 267.234 361.133 267.209L361.243 267.149C361.329 267.109 361.417 267.075 361.508 267.049C361.693 266.994 361.888 266.949 362.088 266.909C362.489 266.824 362.899 266.764 363.319 266.704C364.16 266.594 365.035 266.51 365.936 266.44C367.732 266.305 369.633 266.225 371.594 266.225C374.375 266.219 377.153 266.386 379.914 266.724C380.526 266.798 381.132 266.921 381.725 267.094L381.915 267.179L381.99 267.224C381.99 267.224 381.87 267.324 381.75 267.359C381.481 267.453 381.205 267.524 380.924 267.574C379.813 267.788 378.753 267.898 377.787 267.988C375.856 268.168 374.285 268.238 373.2 268.278L371.949 268.323C371.803 268.32 371.658 268.33 371.514 268.353C371.658 268.367 371.804 268.367 371.949 268.353C372.234 268.353 372.659 268.353 373.2 268.353C374.29 268.353 375.861 268.303 377.802 268.153C378.773 268.068 379.839 267.973 380.969 267.768C381.263 267.718 381.552 267.644 381.835 267.549C381.91 267.519 381.984 267.484 382.055 267.444C382.098 267.421 382.137 267.39 382.17 267.354C382.198 267.331 382.217 267.299 382.225 267.264C382.225 267.229 382.255 267.199 382.225 267.169L382.195 267.069C382.195 267.044 382.145 267.009 382.125 266.994C382.09 266.963 382.051 266.936 382.01 266.914C381.937 266.877 381.861 266.843 381.785 266.814C381.178 266.631 380.557 266.499 379.929 266.42C377.158 266.06 374.367 265.879 371.574 265.88C369.603 265.88 367.697 265.965 365.891 266.105C364.99 266.18 364.11 266.27 363.264 266.385C362.839 266.445 362.424 266.515 362.018 266.599C361.814 266.639 361.611 266.69 361.413 266.754C361.312 266.784 361.214 266.821 361.118 266.864L360.968 266.954C360.933 266.978 360.904 267.008 360.883 267.044C360.863 267.084 360.848 267.126 360.838 267.169C360.847 267.212 360.862 267.254 360.883 267.294C360.938 267.324 360.963 267.364 360.988 267.374Z" fill="#3F00F9"/>
<path d="M407.749 267.159L407.719 267.059C407.694 267.034 407.669 266.999 407.649 266.984C407.614 266.953 407.576 266.926 407.534 266.904C407.461 266.867 407.386 266.833 407.309 266.804C406.703 266.621 406.082 266.489 405.453 266.41C402.683 266.05 399.892 265.869 397.098 265.87C395.127 265.87 393.221 265.955 391.415 266.095C390.515 266.17 389.634 266.26 388.789 266.375C388.363 266.435 387.948 266.505 387.543 266.589C387.338 266.629 387.136 266.68 386.938 266.744C386.837 266.774 386.738 266.811 386.642 266.854L386.492 266.944C386.457 266.969 386.427 266.999 386.402 267.034C386.387 267.075 386.373 267.117 386.362 267.159C386.372 267.202 386.387 267.244 386.407 267.284C386.442 267.324 386.467 267.364 386.492 267.374C386.539 267.408 386.589 267.436 386.642 267.459C386.736 267.503 386.833 267.54 386.933 267.569C387.128 267.629 387.318 267.674 387.508 267.714C387.888 267.788 388.258 267.848 388.623 267.898C389.349 267.998 390.039 268.063 390.69 268.118C391.995 268.228 393.131 268.283 394.067 268.308C395.002 268.333 395.748 268.343 396.248 268.338H396.823H397.023C396.957 268.327 396.889 268.327 396.823 268.338H396.248L394.077 268.243C393.141 268.193 392.005 268.123 390.71 267.998C390.064 267.933 389.374 267.858 388.653 267.753C388.293 267.699 387.928 267.639 387.558 267.559C387.373 267.519 387.188 267.474 387.008 267.419C386.919 267.392 386.832 267.358 386.747 267.319C386.708 267.304 386.671 267.284 386.637 267.259C386.607 267.229 386.637 267.259 386.637 267.234C386.637 267.209 386.637 267.234 386.637 267.209L386.747 267.149C386.833 267.109 386.922 267.075 387.013 267.049C387.198 266.994 387.393 266.949 387.593 266.909C387.993 266.824 388.403 266.764 388.824 266.704C389.664 266.594 390.54 266.51 391.435 266.44C393.236 266.305 395.137 266.225 397.093 266.225C399.874 266.219 402.653 266.385 405.413 266.724C406.026 266.797 406.632 266.92 407.224 267.094C407.291 267.118 407.356 267.147 407.419 267.179L407.489 267.224C407.529 267.224 407.369 267.324 407.249 267.359C406.98 267.453 406.704 267.524 406.424 267.574C405.313 267.788 404.252 267.898 403.287 267.988C401.356 268.168 399.785 268.238 398.699 268.278L397.449 268.323C397.303 268.32 397.157 268.33 397.013 268.353C397.158 268.367 397.304 268.367 397.449 268.353C397.734 268.353 398.159 268.353 398.699 268.353C399.79 268.353 401.361 268.303 403.302 268.153C404.272 268.068 405.338 267.973 406.469 267.768C406.761 267.718 407.049 267.645 407.329 267.549C407.407 267.52 407.482 267.485 407.554 267.444C407.598 267.421 407.636 267.39 407.669 267.354C407.697 267.331 407.717 267.299 407.724 267.264C407.734 267.219 407.764 267.189 407.749 267.159Z" fill="#3F00F9"/>
<path d="M260.746 267.539C260.823 267.51 260.899 267.475 260.971 267.434C261.014 267.411 261.053 267.38 261.086 267.344C261.114 267.321 261.133 267.289 261.141 267.254C261.141 267.219 261.171 267.189 261.141 267.159L261.111 267.059C261.111 267.034 261.061 266.999 261.041 266.984C261.006 266.953 260.967 266.926 260.926 266.904C260.852 266.867 260.777 266.833 260.7 266.804C260.094 266.622 259.473 266.49 258.844 266.41C256.072 266.05 253.28 265.869 250.485 265.87C248.519 265.87 246.612 265.955 244.806 266.095C243.906 266.17 243.025 266.26 242.18 266.375C241.755 266.435 241.339 266.505 240.934 266.589C240.729 266.629 240.527 266.68 240.329 266.744C240.228 266.774 240.129 266.81 240.034 266.854L239.879 266.944C239.847 266.971 239.818 267.001 239.794 267.034C239.778 267.075 239.765 267.117 239.754 267.159C239.763 267.202 239.778 267.244 239.799 267.284C239.82 267.32 239.849 267.35 239.884 267.374C239.93 267.408 239.981 267.436 240.034 267.459C240.127 267.503 240.224 267.54 240.324 267.569C240.519 267.629 240.709 267.674 240.899 267.714C241.279 267.788 241.65 267.848 242.015 267.898C242.74 267.998 243.431 268.063 244.081 268.118C245.382 268.228 246.522 268.283 247.458 268.308C248.393 268.333 249.134 268.343 249.639 268.338H250.215H250.41C250.41 268.338 250.345 268.338 250.215 268.338H249.639L247.468 268.158C246.532 268.108 245.397 268.038 244.101 267.913C243.456 267.848 242.765 267.773 242.045 267.669C241.685 267.614 241.319 267.554 240.949 267.474C240.764 267.434 240.579 267.389 240.394 267.334C240.306 267.307 240.221 267.274 240.139 267.234C240.099 267.219 240.062 267.199 240.029 267.174C239.994 267.144 240.029 267.174 240.029 267.149C240.029 267.124 240.029 267.149 240.029 267.124L240.139 267.064C240.224 267.024 240.313 266.991 240.404 266.964C240.589 266.909 240.784 266.864 240.984 266.824C241.384 266.739 241.795 266.679 242.215 266.619C243.055 266.51 243.931 266.425 244.826 266.355C246.627 266.22 248.529 266.14 250.485 266.14C253.266 266.134 256.044 266.3 258.804 266.639C259.417 266.712 260.023 266.836 260.615 267.009C260.682 267.033 260.747 267.062 260.811 267.094L260.881 267.139C260.811 267.203 260.727 267.249 260.635 267.274C260.368 267.368 260.094 267.44 259.815 267.489C258.704 267.704 257.644 267.813 256.678 267.903C254.742 268.083 253.176 268.153 252.091 268.193L250.84 268.238C250.693 268.235 250.545 268.245 250.4 268.268C250.546 268.282 250.693 268.282 250.84 268.268C251.125 268.268 251.545 268.268 252.091 268.268C253.176 268.268 254.752 268.218 256.693 268.068C257.664 267.983 258.724 267.888 259.86 267.684C260.159 267.659 260.455 267.611 260.746 267.539Z" fill="#1D0D0B"/>
<path d="M265.403 267.374C265.45 267.408 265.5 267.436 265.553 267.459C265.646 267.504 265.744 267.541 265.843 267.569C266.038 267.629 266.229 267.674 266.419 267.713C266.799 267.788 267.169 267.848 267.534 267.898C268.26 267.998 268.95 268.063 269.601 268.118C270.901 268.228 272.042 268.283 272.977 268.308C273.913 268.333 274.653 268.343 275.159 268.338H275.734H275.929C275.929 268.338 275.864 268.338 275.734 268.338H275.159L272.982 268.158C272.047 268.108 270.916 268.038 269.621 267.913C268.97 267.848 268.285 267.773 267.564 267.669C267.204 267.614 266.839 267.554 266.469 267.474C266.284 267.434 266.094 267.389 265.913 267.334C265.824 267.307 265.738 267.273 265.653 267.234C265.616 267.218 265.581 267.198 265.548 267.174C265.513 267.144 265.548 267.174 265.548 267.149C265.548 267.124 265.548 267.149 265.548 267.124L265.658 267.064C265.744 267.024 265.833 266.991 265.923 266.964C266.109 266.909 266.304 266.864 266.504 266.824C266.899 266.739 267.314 266.679 267.734 266.619C268.575 266.51 269.445 266.425 270.346 266.355C272.147 266.22 274.043 266.14 276.004 266.14C278.785 266.134 281.564 266.301 284.324 266.639C284.937 266.712 285.543 266.836 286.135 267.009C286.2 267.032 286.264 267.061 286.325 267.094L286.4 267.139C286.33 267.203 286.246 267.249 286.155 267.274C285.888 267.368 285.614 267.44 285.335 267.489C284.219 267.704 283.158 267.813 282.198 267.903C280.262 268.083 278.696 268.153 277.605 268.193L276.359 268.238C276.212 268.235 276.065 268.245 275.919 268.268C276.066 268.282 276.213 268.282 276.359 268.268C276.645 268.268 277.065 268.268 277.61 268.268C278.696 268.268 280.272 268.218 282.213 268.068C283.183 267.983 284.244 267.888 285.38 267.684C285.672 267.633 285.959 267.559 286.24 267.464C286.316 267.435 286.39 267.4 286.46 267.359C286.505 267.336 286.546 267.305 286.58 267.269C286.594 267.258 286.606 267.245 286.615 267.229C286.623 267.214 286.628 267.197 286.63 267.179C286.63 267.144 286.665 267.114 286.63 267.084C286.624 267.05 286.616 267.017 286.605 266.984C286.58 266.959 286.555 266.924 286.535 266.909C286.499 266.879 286.461 266.852 286.42 266.829C286.347 266.792 286.272 266.758 286.195 266.729C285.588 266.547 284.968 266.415 284.339 266.335C281.567 266 278.776 265.845 275.984 265.87C274.018 265.87 272.112 265.955 270.306 266.095C269.405 266.17 268.525 266.26 267.679 266.375C267.254 266.435 266.839 266.505 266.434 266.589C266.229 266.629 266.027 266.68 265.828 266.744C265.726 266.774 265.626 266.811 265.528 266.854L265.378 266.944C265.346 266.97 265.318 267.001 265.293 267.034C265.277 267.075 265.264 267.117 265.253 267.159C265.263 267.201 265.277 267.243 265.293 267.284C265.324 267.321 265.361 267.351 265.403 267.374Z" fill="#3F00F9"/>
<defs>
<filter id="filter0_i_1668_9822" x="54.7295" y="176.311" width="16.1616" height="14.3195" filterUnits="userSpaceOnUse" color-interpolation-filters="sRGB">
<feFlood flood-opacity="0" result="BackgroundImageFix"/>
<feBlend mode="normal" in="SourceGraphic" in2="BackgroundImageFix" result="shape"/>
<feColorMatrix in="SourceAlpha" type="matrix" values="0 0 0 0 0 0 0 0 0 0 0 0 0 0 0 0 0 0 127 0" result="hardAlpha"/>
<feOffset dx="0.25" dy="0.5"/>
<feComposite in2="hardAlpha" operator="arithmetic" k2="-1" k3="1"/>
<feColorMatrix type="matrix" values="0 0 0 0 0 0 0 0 0 0 0 0 0 0 0 0 0 0 0.25 0"/>
<feBlend mode="normal" in2="shape" result="effect1_innerShadow_1668_9822"/>
</filter>
<radialGradient id="paint0_radial_1668_9822" cx="0" cy="0" r="1" gradientUnits="userSpaceOnUse" gradientTransform="translate(407.254 272.829) rotate(-179.829) scale(167.501 50.8457)">
<stop stop-color="#0894FF"/>
<stop offset="0.290475" stop-color="#6E53FF"/>
<stop offset="0.609151" stop-color="#B038EA"/>
<stop offset="0.850793" stop-color="#F95088"/>
<stop offset="1" stop-color="#FF6F62"/>
</radialGradient>
</defs>
</svg>
