<svg width="456" height="456" viewBox="0 0 456 456" fill="none" xmlns="http://www.w3.org/2000/svg">
<path d="M443.179 161.357C443.179 162.217 443.079 163.107 442.969 164.007C442.589 166.957 437.969 173.187 427.149 177.357C414.199 182.357 398.149 184.457 387.079 176.077C387.919 183.287 379.849 187.947 373.079 190.597C365.889 193.397 358.559 196.227 350.859 196.597C343.159 196.967 334.859 194.297 330.409 188.047C324.069 199.047 307.909 202.977 297.249 196.047C293.948 200.763 289.202 204.277 283.729 206.059C278.255 207.841 272.35 207.794 266.905 205.926C261.46 204.057 256.771 200.469 253.544 195.701C250.318 190.934 248.73 185.246 249.019 179.497C243.019 182.777 234.379 177.157 234.959 170.327C229.079 175.677 218.959 174.427 213.549 168.587C208.139 162.747 207.389 153.587 210.449 146.237C212.61 141.332 216.025 137.083 220.349 133.917C220.202 132.099 220.347 130.269 220.779 128.497C221.215 126.747 221.957 125.089 222.969 123.597C225.043 120.737 227.989 118.626 231.364 117.582C234.74 116.538 238.363 116.617 241.689 117.807C239.049 109.567 245.549 99.7469 254.159 98.9669C262.489 98.2069 270.389 106.117 269.889 114.407C270.299 110.617 273.399 107.717 276.529 105.477C283.859 100.247 290.049 105.017 291.479 105.587C293.589 95.4069 303.199 87.5869 317.279 88.0169C331.359 88.4469 340.279 97.7569 340.959 107.017C342.669 104.613 345.234 102.953 348.128 102.378C351.022 101.803 354.026 102.357 356.525 103.925C359.024 105.494 360.829 107.959 361.57 110.814C362.31 113.67 361.931 116.702 360.509 119.287C364.723 115.285 369.979 112.552 375.675 111.402C381.371 110.252 387.276 110.731 392.712 112.785C398.148 114.839 402.895 118.384 406.407 123.013C409.92 127.643 412.055 133.169 412.569 138.957C422.239 135.997 443.759 141.887 443.179 161.357Z" fill="#C2DBFF"/>
<path d="M210.449 146.247C212.61 141.342 216.025 137.093 220.349 133.927C226.349 129.837 231.729 130.367 236.289 132.927C222.669 138.417 224.869 153.297 224.869 153.297C228.649 142.297 234.569 138.977 239.769 137.297C245.439 135.497 251.329 136.987 254.719 140.677C257.229 143.417 257.539 147.727 256.449 151.327C265.919 141.237 275.919 140.697 280.189 143.637C277.446 144.248 274.915 145.579 272.857 147.493C270.799 149.407 269.288 151.835 268.479 154.527C292.989 142.527 306.759 154.847 306.759 154.847C306.759 154.847 305.839 142.707 289.189 142.197C290.099 133.567 296.059 124.277 306.189 123.647C318.719 122.877 329.059 131.797 328.559 145.187C333.039 144.187 337.679 149.057 336.479 153.487C339.579 151.037 342.879 148.487 346.789 147.857C350.699 147.227 355.329 149.267 356.139 153.137C358.867 153.51 361.353 154.898 363.101 157.025C364.849 159.151 365.731 161.859 365.569 164.607C369.353 161.17 374.113 158.996 379.188 158.389C384.263 157.781 389.402 158.77 393.889 161.217C389.629 148.427 373.209 141.357 360.979 147.027C361.259 138.027 370.169 130.257 379.129 131.197C388.089 132.137 395.219 141.647 393.599 150.497C400.019 148.497 407.339 155.327 405.749 161.867C408.279 153.487 417.929 151.407 423.599 152.947C415.599 155.047 412.389 164.767 413.409 171.557C416.009 165.397 423.999 152.677 443.179 161.347C443.179 162.207 443.079 163.097 442.969 163.997C442.589 166.947 437.969 173.177 427.149 177.347C414.199 182.347 398.149 184.447 387.079 176.067C387.919 183.277 379.849 187.937 373.079 190.587C365.889 193.387 358.559 196.217 350.859 196.587C343.159 196.957 334.859 194.287 330.409 188.037C324.069 199.037 307.909 202.967 297.249 196.037C293.948 200.752 289.204 204.265 283.731 206.047C278.258 207.83 272.355 207.784 266.91 205.917C261.466 204.049 256.776 200.463 253.549 195.697C250.322 190.931 248.732 185.245 249.019 179.497C243.019 182.777 234.379 177.157 234.959 170.327C229.079 175.677 218.959 174.427 213.549 168.587C208.139 162.747 207.389 153.577 210.449 146.247Z" fill="#A4CAFF"/>
<path d="M163.056 305.671C163.699 301.201 162.9 296.643 160.775 292.659L160.284 291.826C156.954 286.265 149.628 282.777 141.502 284.833C140.871 283.368 139.95 282.045 138.794 280.944C137.639 279.844 136.273 278.988 134.779 278.428C133.284 277.868 131.692 277.616 130.098 277.687C128.504 277.757 126.94 278.149 125.502 278.839C119.141 270.947 105.729 258.593 84.8086 262.88C63.8877 267.168 54.2889 288.38 54.2889 288.38C47.0544 281.67 32.0194 284.559 24.6933 291.527C16.976 298.869 17.1175 304.456 17.1175 304.456C12.0059 301.175 3.79738 304.456 2.38212 309.342C1.80131 311.185 1.88473 313.172 2.61788 314.96C3.35102 316.747 4.68749 318.221 6.3948 319.124L7.05248 319.432C13.8957 322.779 18.1082 320.939 18.1082 320.939C26.2584 338.522 41.6681 333.951 48.7111 330.363C50.9173 329.248 55.4544 327.3 55.4544 327.3C55.4544 327.3 68.1002 339.313 85.6661 339.979C96.1557 340.387 114.063 334.934 118.25 325.302C137.065 336.124 170.29 327.799 174.611 317.043C176.334 312.789 174.661 302.491 163.056 305.671Z" fill="#C2DBFF"/>
<path d="M174.619 317.043C170.299 327.866 137.073 336.124 118.259 325.302C114.096 334.934 96.1639 340.387 85.6744 339.979C68.1085 339.313 55.4627 327.3 55.4627 327.3C55.4627 327.3 50.9255 329.248 48.7194 330.363C41.6764 333.952 26.2417 338.522 18.1164 320.939C18.1164 320.939 13.904 322.804 7.06076 319.433L6.40308 319.125C7.18563 318.991 7.95154 318.833 8.69247 318.65C18.7658 316.269 32.2524 306.662 41.2019 315.653C41.1269 308.643 34.0589 303.831 27.4155 304.647C28.9689 302.56 31.1452 301.02 33.6305 300.249C36.1158 299.478 38.7817 299.517 41.2435 300.36C43.7297 301.31 45.849 303.026 47.2948 305.261C48.7406 307.495 49.4378 310.132 49.2855 312.789C54.5149 310.088 60.5144 309.268 66.277 310.467C72.5707 311.59 76.6916 315.52 79.2724 321.364C77.3576 311.016 71.8964 305.13 61.4068 305.738C61.0571 299.827 61.7148 295.806 65.2779 291.069C68.8411 286.332 75.1681 283.418 80.8791 284.983C86.5901 286.549 90.7027 293.259 88.5049 298.761C89.429 297.355 92.784 296.53 94.7487 297.871C96.2971 298.92 96.7051 301.883 96.3388 303.099C97.1381 300.796 98.661 298.813 100.68 297.447C102.699 296.08 105.106 295.404 107.541 295.518C109.976 295.632 112.309 296.531 114.191 298.081C116.073 299.63 117.404 301.747 117.984 304.114C118.816 295.34 110.491 286.923 101.692 287.598C113.846 280.846 130.247 285.316 132.078 299.136C136.782 283.66 157.57 286.782 160.775 292.659C163.122 296.822 163.772 302.574 163.056 305.671C174.661 302.491 176.334 312.789 174.619 317.043Z" fill="#A4CAFF"/>
<path d="M396.004 259.024C394.823 257.921 393.553 256.919 392.205 256.028C390.883 255.186 389.518 254.412 388.116 253.711C386.679 252.942 385.888 252.452 382.267 250.157L373.009 244.309C368.23 241.256 363.495 238.315 354.07 232.433C350.984 230.506 348.422 228.924 346.65 227.832C345.466 228.616 344.218 229.298 342.918 229.871C340.686 231.028 338.188 231.574 335.677 231.453C334.849 231.748 334 231.979 333.137 232.144C331.038 232.575 328.874 232.575 326.775 232.144C325.336 231.799 323.95 231.263 322.653 230.551C320.355 229.443 318.153 228.146 316.069 226.674C314.866 226.863 313.841 227.008 313.05 227.12C311.289 227.353 310.543 227.409 310.064 227.431C309.396 227.431 308.839 227.487 308.46 227.487C308.538 232.344 308.593 236.7 308.638 240.487C308.716 246.18 308.716 246.949 308.538 248.363C307.827 253.314 306.056 258.052 303.346 262.255C301.566 265.124 299.466 267.782 297.085 270.176C295.209 272.049 293.186 273.77 291.036 275.322C287.645 277.864 284.036 280.101 280.251 282.006C278.135 283.12 272.653 285.694 262.292 288.211C254.784 290.014 247.143 291.213 239.443 291.798C231.474 292.369 223.476 292.413 215.501 291.932C206.589 291.553 199.069 290.818 193.309 290.06C197.822 293.891 201.908 298.197 205.497 302.905C208.059 306.358 210.388 310.246 211.134 311.494C212.114 313.131 212.85 314.435 213.552 315.805C214.591 317.865 215.524 319.977 216.348 322.133C216.98 323.466 217.358 324.905 217.462 326.377C217.518 327.491 217.584 328.794 216.827 329.407C215.713 330.309 213.552 329.307 212.103 328.627C210.884 328.028 209.758 327.255 208.761 326.332C207.546 325.289 206.478 324.086 205.586 322.756C204.652 321.347 203.949 319.797 203.503 318.167C203.213 317.053 203.246 316.663 202.823 315.036C202.823 315.036 202.444 313.566 201.898 312.084C200.249 307.561 195.86 302.526 195.86 302.526C191.987 298.216 187.532 294.467 182.625 291.386C178.068 289.659 174.325 288.267 171.751 287.309C165.668 285.081 162.56 283.967 157.001 281.839C153.926 280.669 151.431 279.689 149.771 279.054C147.444 278.96 145.113 279.034 142.796 279.277C142.796 279.277 140.568 279.522 137.36 280.179C137.014 280.246 136.48 280.369 135.834 280.536C135.348 280.641 134.872 280.783 134.407 280.959C133.649 281.298 132.967 281.787 132.402 282.396C131.974 282.832 131.6 283.319 131.288 283.844C132.913 283.085 134.761 282.95 136.48 283.466C138.089 284.111 139.462 285.235 140.412 286.685C141.417 288.033 142.237 289.509 142.852 291.074C143.746 293.093 144.49 295.174 145.08 297.301C145.722 300.369 145.906 303.515 145.626 306.637C145.567 309.481 144.829 312.269 143.472 314.769C142.115 317.269 140.18 319.408 137.828 321.007C136.42 322.116 134.892 323.062 133.271 323.826L125.907 322.712C125.64 321.787 125.372 320.851 125.072 319.916C123.931 316.256 122.596 312.66 121.072 309.143L120.047 308.453C117.407 306.74 114.586 305.324 111.636 304.231C107.933 302.938 104.143 301.911 100.294 301.156C95.8382 300.164 92.4402 299.496 90.6131 299.151C80.787 297.279 80.1408 297.446 72.2197 295.876C72.2197 295.876 65.2679 294.505 58.8508 292.612C56.9235 292.032 55.7091 291.598 53.6258 290.829C52.6147 290.48 51.6284 290.063 50.6735 289.581C49.5682 289.012 48.5231 288.333 47.5541 287.554C46.5669 286.976 45.6247 286.324 44.7354 285.604C42.2554 283.541 40.2072 281.008 38.7083 278.152C37.5241 275.796 36.6586 273.294 36.1348 270.71C35.6074 268.413 35.2352 266.084 35.0207 263.737C34.5862 260.06 34.4971 257.231 34.4302 254.591C34.3411 251.405 34.4302 249.021 34.4302 247.194C34.5416 241.913 34.8647 237.948 34.9427 236.912C35.1098 234.917 35.3884 231.653 36.0568 227.398C36.7809 222.652 37.5831 219.121 38.1735 216.592C39.0499 212.399 40.1658 208.259 41.5158 204.193C42.645 200.913 43.9428 197.693 45.4039 194.546C47.1728 190.436 49.2976 186.489 51.7541 182.749C53.0394 180.801 54.4893 178.968 56.0879 177.268C58.1717 175.46 60.359 173.775 62.6387 172.222C65.7191 170.146 68.939 168.285 72.2754 166.652C76.5312 164.513 79.8846 163.098 81.8119 162.296C93.6211 157.372 103.648 153.662 106.578 152.582C107.692 152.158 112.583 150.354 122.32 146.889C125.116 145.876 134.786 142.433 146.495 138.345C150.116 137.097 152.756 136.195 156.344 135.137C160.8 133.822 164.543 132.909 167.952 132.006C170.459 131.371 172.821 130.781 176.029 130.057C180.936 128.805 185.93 127.922 190.969 127.417C196.416 126.835 201.922 127.243 207.224 128.62C209.865 129.267 212.45 130.123 214.955 131.182C217.805 132.413 220.535 133.905 223.11 135.638C228.956 139.522 234.21 144.231 238.707 149.619L239.51 150.588C239.623 150.32 239.754 150.06 239.899 149.808C240.422 148.874 241.194 148.103 242.128 147.58C242.586 147.309 243.093 147.131 243.62 147.056C244.426 147.002 245.23 147.168 245.949 147.535C249.291 149.24 287.838 177.068 296.728 182.983L304.349 187.996C310.12 191.761 314.866 194.847 318.074 196.908L318.241 198.222C319.823 199.18 322.018 200.506 324.625 202.11C324.625 202.11 328.792 204.661 333.114 207.391C348.711 217.171 364.943 227.832 364.943 227.832C392.004 245.59 398.366 250.257 403.691 256.64C407.563 261.319 410.924 266.398 413.718 271.791C415.946 276.314 417.818 281.527 417.818 281.527C418.865 284.457 419.489 286.64 420.046 288.412C420.046 288.501 420.658 290.562 421.249 293.358C421.626 295.035 421.787 296.753 421.728 298.471C421.789 298.975 421.74 299.486 421.585 299.969C421.429 300.451 421.17 300.895 420.826 301.267C420.441 301.565 419.974 301.736 419.489 301.757C418.987 301.757 418.241 301.757 416.414 300.354C415.533 299.735 414.719 299.025 413.985 298.237C412.821 297.025 411.865 295.628 411.155 294.104C410.313 292.07 409.82 289.908 409.696 287.71C409.44 285.727 409.562 285.538 409.384 283.911C409.078 281.283 408.442 278.704 407.49 276.236C406.443 273.495 405.094 270.88 403.468 268.438C402.142 266.355 401.006 264.873 399.881 263.414C398.72 261.84 397.423 260.371 396.004 259.024Z" fill="#D1C2FF"/>
<path d="M148.991 137.476C145.058 157.094 141.493 178.059 138.585 200.283C135.332 225.103 133.26 248.62 132.046 270.632C122.175 273.128 114.432 275.668 109.185 277.506C103.425 279.544 99.6484 281.115 92.8191 283.198C86.324 285.181 80.9208 286.462 77.4226 287.22C73.1592 288.061 68.8522 288.664 64.5215 289.025C55.0742 289.838 51.9882 288.958 50.6179 288.501C47.7117 287.598 45.0462 286.052 42.8193 283.978C40.7546 281.96 39.1111 279.552 37.9842 276.893C37.2706 275.287 36.7002 273.62 36.2797 271.914C35.2084 267.935 34.566 263.853 34.3635 259.737C34.2521 258.189 34.2187 257.064 34.1741 255.281C34.1741 255.281 34.0515 250.981 34.1741 246.815C34.4942 235.321 36.0404 223.893 38.7864 212.727C40.2791 206.763 42.3191 200.949 44.8804 195.359C47.7213 189.255 50.7293 182.782 56.7342 176.778C61.0456 172.467 65.6468 170.161 74.7042 165.538C83.4274 161.082 90.4461 158.486 101.442 154.398C102.935 153.841 107.948 152.047 117.975 148.46C128.436 144.717 134.686 142.534 137.226 141.62L148.991 137.476Z" fill="#C8ADFF"/>
<path d="M308.393 227.598L293.754 218.564C293.629 221.992 293.305 225.411 292.784 228.802C292.137 232.646 291.126 236.421 289.765 240.075C288.239 243.629 285.922 249.99 280.986 254.68C276.931 258.744 272.141 262.003 266.871 264.283C262.415 266.065 253.569 269.329 248.522 270.688C243.475 272.047 231.633 275.021 224.67 276.124C217.707 277.227 203.937 278.542 199.046 278.609C194.155 278.675 182.056 278.397 178.781 277.617C172.773 276.25 166.662 275.382 160.51 275.021C154.784 274.91 147.598 275.445 142.618 276.982C137.638 278.519 133.148 280.168 130.976 282.062C128.804 283.956 127.3 285.85 127.634 288.456C127.968 291.063 128.87 293.013 130.976 296.121C133.082 299.229 134.864 301.947 135.432 304.03C136 306.113 136.546 309.154 135.622 311.549C134.872 313.351 133.903 315.054 132.736 316.618C131.696 317.804 130.58 318.92 129.394 319.96C127.99 321.074 126.052 322.545 126.052 322.545L133.126 323.893C133.126 323.893 140.568 320.384 143.075 315.215C145.582 310.046 145.593 308.82 145.593 303.228C145.504 299.05 144.603 294.93 142.941 291.096C142.317 289.793 139.098 284.412 137.271 283.766C135.443 283.12 133.293 282.563 131.466 283.677C131.92 282.88 132.539 282.188 133.282 281.65C134.555 280.933 135.948 280.454 137.393 280.235C138.908 279.856 140.056 279.656 140.568 279.567C140.568 279.567 141.927 279.355 143.353 279.221C146.57 278.977 149.801 279.007 153.012 279.31C157.684 279.893 162.295 280.884 166.794 282.274C167.986 282.597 171.417 283.544 176.007 285.047C180.887 286.652 184.92 288.2 188.095 289.503C191.181 289.96 195.436 290.551 200.539 291.063C210.634 292.203 220.798 292.631 230.953 292.344C238.647 292.192 246.318 291.465 253.903 290.172C259.124 289.299 264.276 288.059 269.322 286.462C273.481 285.24 277.52 283.64 281.388 281.683C286.609 279.006 291.416 275.588 295.659 271.535C298.563 268.769 301.125 265.665 303.29 262.288C305.084 259.496 306.497 256.476 307.49 253.31C307.945 251.785 308.288 250.228 308.515 248.653C308.582 245.367 308.627 242.025 308.627 238.627C308.567 234.862 308.489 231.186 308.393 227.598Z" fill="#A97FFF"/>
<path d="M246.439 148.003L246.55 184.153L240.044 185.467L239.654 150.321C239.654 150.321 241.013 147.725 242.595 147.391C244.177 147.057 245.715 147.224 246.439 148.003Z" fill="#A97FFF"/>
<path d="M131.455 283.509C132.018 282.607 132.78 281.845 133.683 281.282C135.305 280.579 137.02 280.114 138.775 279.901C137.842 280.408 136.856 280.807 135.833 281.093C135.447 281.19 135.073 281.332 134.719 281.516C134.407 281.694 133.861 281.984 133.906 282.206C133.951 282.429 134.964 282.295 135.978 282.685C136.738 283.012 137.38 283.564 137.816 284.267L137.616 284.133C136.715 283.6 135.714 283.259 134.675 283.131C133.587 283.02 132.488 283.149 131.455 283.509Z" fill="#C8ADFF"/>
<path d="M154.082 135.816L163.808 133.065L171.696 131.06C167.93 154.576 164.755 179.864 162.572 206.734C160.99 226.251 160.054 244.988 159.63 262.857L141.281 268.126C141.95 250.503 143.053 232.188 144.702 213.228C147.064 185.957 150.294 160.113 154.082 135.816Z" fill="#C8ADFF"/>
<path d="M149.793 279.121L182.424 291.375C183.349 291.954 184.853 292.946 186.613 294.294C191.014 297.636 199.381 304.064 202.299 313.844C203.113 316.585 202.923 317.643 204.182 320.35C205.628 323.797 208.195 326.655 211.468 328.46C212.761 329.117 215.535 330.521 216.816 329.463C218.42 328.137 216.738 323.648 215.446 320.205C214.075 316.632 212.335 313.212 210.254 310.001C205.633 302.601 199.937 295.93 193.353 290.205L187.504 289.27C181.243 286.73 175.896 284.914 171.818 283.7C168.209 282.586 165.958 282.017 161.446 280.881C158.71 280.147 155.92 279.633 153.102 279.344C151.709 279.188 150.584 279.143 149.793 279.121Z" fill="#978CB8"/>
<path d="M318 226V223.5V223L321 225L329 229.5L335.5 231.5L334 232L327 232.5L322 230.5L316 226.5L318 226Z" fill="#A97FFF"/>
<path d="M221.239 134.713C220.035 133.956 218.71 133.31 217.373 132.597C216.036 131.884 214.576 131.293 213.061 130.748C209.888 129.51 206.595 128.607 203.235 128.052C199.552 127.464 195.81 127.329 192.094 127.651C188.047 128.021 184.028 128.654 180.062 129.544C175.929 130.413 171.684 131.438 167.317 132.485C162.95 133.533 158.494 134.769 153.948 136.228C135.923 142.155 116.281 149.296 95.749 156.927C90.6465 158.909 85.6555 160.978 80.7758 163.131C75.9493 165.213 71.2308 167.537 66.6382 170.094C62.1822 172.466 58.1503 175.56 54.7064 179.251C51.5483 182.939 48.9438 187.067 46.9747 191.505C43.0104 199.562 40.0185 208.062 38.0621 216.826C36.3324 224.452 35.2148 232.204 34.7199 240.009C34.3247 245.767 34.2392 251.542 34.4636 257.309C34.4636 255.861 34.2742 254.424 34.3077 252.998C34.3077 250.146 34.3077 247.35 34.4302 244.609C34.5528 241.869 34.6307 239.173 34.8647 236.555C35.0987 233.937 35.2212 231.353 35.4886 228.846C35.5554 228.122 35.6223 227.398 35.7003 226.685C36.2016 223.432 36.8143 220.113 37.5719 216.659C39.5116 207.844 42.504 199.294 46.4845 191.193C48.4731 186.72 51.0999 182.558 54.2831 178.839C57.7668 175.092 61.8477 171.949 66.3597 169.537C70.9537 166.966 75.6761 164.631 80.5084 162.541C85.4029 160.38 90.4052 158.304 95.5151 156.314C116.07 148.694 135.711 141.531 153.759 135.66C158.282 134.212 162.761 132.942 167.128 131.94C171.495 130.937 175.751 129.879 179.895 129.021C183.884 128.14 187.925 127.518 191.994 127.16C195.764 126.845 199.558 126.995 203.291 127.606C206.675 128.181 209.991 129.107 213.184 130.369C214.71 130.926 216.125 131.616 217.518 132.263C218.91 132.909 220.191 133.644 221.406 134.401L221.74 134.613L222.609 135.56C222.174 135.282 221.718 134.992 221.239 134.713Z" fill="#3F00F9"/>
<path d="M239.12 150.298C237.154 147.927 235.053 145.673 232.825 143.547C229.936 140.794 226.808 138.304 223.478 136.106C223.233 135.805 222.988 135.504 222.743 135.226C226.425 137.587 229.859 140.316 232.992 143.369C235.211 145.518 237.291 147.807 239.22 150.22V150.443L239.12 150.298Z" fill="#3F00F9"/>
<path d="M65.0118 288.724C68.3541 288.367 71.8077 287.922 75.2279 287.276C82.2053 285.983 89.0846 284.207 95.8161 281.962C99.2585 280.848 102.69 279.589 106.144 278.297C107.844 277.651 109.567 277.027 111.313 276.425L112.427 276.726C110.377 277.409 108.349 278.133 106.344 278.898C102.879 280.179 99.4479 281.427 95.9943 282.552C89.2299 284.804 82.3171 286.584 75.3059 287.877C71.8745 288.523 68.4432 288.991 65.0452 289.325C61.6787 289.74 58.2803 289.834 54.896 289.604C52.6256 289.391 50.4012 288.832 48.3007 287.944C47.4363 287.365 46.6203 286.717 45.8608 286.006C48.6115 287.72 51.7324 288.751 54.9628 289.014C58.314 289.239 61.6792 289.142 65.0118 288.724Z" fill="#3F00F9"/>
<path d="M138.764 269.062L129.918 271.535C129.773 271.535 129.528 271.301 129.417 271.535L129.261 271.702C125.094 272.875 120.968 274.071 116.883 275.289C115.613 275.668 114.354 276.091 113.107 276.503L111.992 276.202C113.552 275.679 115.134 275.155 116.727 274.687C123.902 272.459 131.21 270.488 138.619 268.427L144.134 266.923L145.103 267.313L138.764 269.062Z" fill="#3F00F9"/>
<path d="M233.215 156.659C234.459 161.292 235.39 166.004 236 170.762C236.608 176.016 236.754 181.313 236.435 186.592C236.112 192.095 235.321 197.732 234.452 203.625C233.715 209.734 232.098 215.704 229.65 221.349C226.876 227.273 223.014 232.624 218.264 237.123C213.355 241.898 207.869 246.041 201.932 249.455C195.871 252.931 188.975 255.159 182.023 257.186L145.86 267.112L144.88 266.722L181.856 256.585C188.797 254.591 195.604 252.396 201.631 248.932C207.523 245.532 212.971 241.416 217.852 236.678C222.557 232.231 226.385 226.941 229.138 221.082C231.574 215.488 233.188 209.57 233.928 203.514C234.764 197.654 235.61 191.995 235.933 186.525C236.272 181.277 236.141 176.009 235.543 170.784C234.957 166.038 234.049 161.338 232.825 156.715C231.861 152.564 230.469 148.524 228.67 144.661C227.065 141.365 225.035 138.294 222.631 135.526L223.478 136.072C225.672 138.646 227.542 141.478 229.048 144.505C230.858 148.4 232.255 152.473 233.215 156.659Z" fill="#3F00F9"/>
<path d="M34.4749 257.265C34.5751 258.713 34.564 260.183 34.7645 261.643C34.965 263.102 35.1433 264.584 35.3216 266.099C35.4998 267.614 35.8452 269.073 36.1905 270.555C36.8593 273.565 37.9627 276.462 39.4659 279.155C40.5299 281.04 41.8876 282.743 43.4877 284.201C44.2237 285.091 45.0203 285.928 45.8719 286.708L45.5265 286.507C42.8069 284.714 40.5598 282.291 38.9757 279.444C37.447 276.697 36.3214 273.745 35.6335 270.677C35.5221 270.176 35.4218 269.686 35.3104 269.184C34.9985 266.243 34.7311 262.957 34.5417 259.348C34.5306 258.646 34.5083 257.966 34.4749 257.265Z" fill="#3F00F9"/>
<path d="M34.33 239.942C34.5863 235.72 35.0542 231.264 35.7672 226.641C35.6892 227.354 35.6224 228.078 35.5555 228.802C35.2882 231.308 35.121 233.882 34.9317 236.511C34.7423 239.14 34.6086 241.813 34.4972 244.565C34.3858 247.316 34.408 250.135 34.3746 252.953C34.3746 254.379 34.4749 255.816 34.5306 257.264C34.5306 257.966 34.5863 258.646 34.6197 259.314C34.8091 262.924 35.0765 266.21 35.3884 269.151C35.1879 268.148 34.9874 267.157 34.8537 266.154L34.6197 264.327C34.486 262.745 34.3635 261.085 34.2632 259.337C33.8912 252.876 33.9135 246.399 34.33 239.942Z" fill="#3F00F9"/>
<path d="M222.609 135.56L221.74 134.613L222.721 135.226C222.966 135.504 223.211 135.805 223.456 136.106L222.609 135.56Z" fill="#3F00F9"/>
<path d="M125.562 321.163C125.684 321.587 125.796 321.988 125.896 322.378L125.439 322.288L125.127 321.297C123.813 317.135 122.281 313.045 120.537 309.043C120.872 309.266 121.195 309.477 121.507 309.7C123.082 313.438 124.436 317.266 125.562 321.163Z" fill="#3F00F9"/>
<path d="M48.6348 288.167C51.3085 289.7 54.1594 290.901 57.1241 291.743C63.9072 293.788 70.8039 295.436 77.7791 296.678C85.2099 298.015 92.3289 299.185 98.7348 300.599C101.932 301.312 104.974 301.97 107.792 302.772C110.405 303.512 112.948 304.481 115.39 305.668C117.064 306.482 118.683 307.405 120.237 308.431C120.337 308.642 120.426 308.854 120.515 309.055C118.813 307.944 117.037 306.951 115.201 306.08C112.769 304.931 110.241 303.996 107.647 303.284C104.851 302.515 101.799 301.869 98.6123 301.179C92.2063 299.797 85.1097 298.65 77.6565 297.313C70.6518 296.061 63.7284 294.391 56.9235 292.311C53.9196 291.44 51.0346 290.202 48.334 288.624C47.4512 288.047 46.62 287.395 45.8496 286.674C46.6357 287.155 47.4548 287.579 48.3006 287.944C48.4343 288.011 48.5234 288.1 48.6348 288.167Z" fill="#3F00F9"/>
<path d="M43.4878 284.123C44.2189 284.793 45.0053 285.4 45.8385 285.938C46.598 286.649 47.4139 287.297 48.2783 287.876C47.4325 287.511 46.6135 287.087 45.8274 286.607C44.9919 285.833 44.2102 285.003 43.4878 284.123Z" fill="#3F00F9"/>
<path d="M121.228 309.098C121.317 309.299 121.395 309.499 121.484 309.711C121.172 309.488 120.849 309.277 120.515 309.054C120.426 308.853 120.337 308.642 120.237 308.43C120.604 308.631 120.938 308.876 121.228 309.098Z" fill="#3F00F9"/>
<path d="M133.483 323.425C135.501 322.336 137.373 320.996 139.053 319.437C141.132 317.531 142.796 315.218 143.944 312.642C144.498 311.301 144.847 309.886 144.98 308.442C145.134 307.088 145.201 305.727 145.181 304.365C145.154 302.042 144.979 299.724 144.657 297.424C144.662 297.365 144.662 297.305 144.657 297.246L145.404 299.285C145.624 300.966 145.754 302.658 145.794 304.353C145.83 305.744 145.774 307.136 145.626 308.52C145.483 310.028 145.107 311.504 144.512 312.898C143.327 315.553 141.596 317.929 139.432 319.871C137.791 321.342 135.967 322.596 134.007 323.603L133.193 323.525L133.483 323.425Z" fill="#3F00F9"/>
<path d="M126.23 322.456C127.344 322.678 128.458 322.879 129.573 323.057C130.687 323.235 132.046 323.402 133.216 323.525L132.191 324.048C131.311 323.948 130.408 323.837 129.483 323.692C128.291 323.514 127.144 323.291 126.052 323.046C126.052 322.912 125.985 322.779 125.941 322.634L126.23 322.456Z" fill="#3F00F9"/>
<path d="M125.908 322.4L125.551 322.645L125.439 322.289L125.896 322.378L125.908 322.4Z" fill="#3F00F9"/>
<path d="M126.075 323.046L125.64 322.957V322.868L125.986 322.634C126.008 322.779 126.041 322.913 126.075 323.046Z" fill="#3F00F9"/>
<path d="M134.051 323.603L133.639 323.826L133.004 324.127L132.213 324.049L133.238 323.525L134.051 323.603Z" fill="#3F00F9"/>
<path d="M187.772 289.114C189.198 289.325 190.669 289.526 192.228 289.715L192.952 290.317L189.465 289.827L187.772 289.114Z" fill="#3F00F9"/>
<path d="M218.064 291.921C224.414 292.122 231.087 292.155 237.983 291.698C245.106 291.296 252.185 290.32 259.151 288.78C266.121 287.304 272.917 285.101 279.427 282.207C282.494 280.789 285.422 279.089 288.173 277.127C290.826 275.258 293.346 273.207 295.715 270.989C300.129 266.92 303.636 261.966 306.009 256.451C307.059 253.955 307.786 251.334 308.17 248.653C308.404 246.069 308.326 243.529 308.348 241.134C308.348 236.199 308.293 231.765 308.282 227.866L308.616 228.078C308.672 231.921 308.727 236.288 308.805 241.134C308.805 243.54 308.883 246.047 308.66 248.698C308.287 251.428 307.56 254.098 306.499 256.641C304.125 262.227 300.594 267.246 296.138 271.368C293.765 273.615 291.233 275.689 288.563 277.573C285.781 279.563 282.819 281.29 279.717 282.731C273.17 285.655 266.333 287.876 259.318 289.359C252.323 290.903 245.214 291.879 238.061 292.278C231.132 292.723 224.447 292.69 218.075 292.467C209.374 292.144 201.364 291.353 194.044 290.462C193.81 290.25 193.554 290.061 193.32 289.86C200.751 290.807 209.073 291.565 218.064 291.921Z" fill="#3F00F9"/>
<path d="M146.15 275.913C149.504 275.261 152.906 274.888 156.321 274.799C158.789 274.738 161.258 274.805 163.719 274.999L165.591 275.779C162.516 275.451 159.424 275.321 156.333 275.389C152.965 275.482 149.611 275.855 146.306 276.503C145.66 276.636 145.014 276.77 144.367 276.926L143.42 276.57C144.289 276.325 145.214 276.102 146.15 275.913Z" fill="#3F00F9"/>
<path d="M166.994 275.3C170.604 275.723 174.236 276.414 177.901 277.172L177.846 277.472C177.935 277.216 177.968 277.116 177.957 277.183H178.157H178.369L178.848 277.261L179.795 277.394L181.7 277.628C182.981 277.762 184.274 277.896 185.577 277.974C186.881 278.052 188.184 278.152 189.499 278.196C190.813 278.241 192.139 278.297 193.465 278.297C196.127 278.364 198.801 278.297 201.508 278.208C204.216 278.118 206.934 277.974 209.664 277.673C218.783 276.865 227.835 275.432 236.758 273.384C245.055 271.427 253.237 269.014 261.268 266.154C265.03 264.918 268.655 263.298 272.085 261.319C275.307 259.439 278.254 257.122 280.842 254.435C281.466 253.778 282.067 253.12 282.624 252.43C283.194 251.763 283.73 251.068 284.229 250.346C285.198 248.943 286.08 247.481 286.869 245.968C288.348 243.11 289.574 240.128 290.534 237.056C291.405 234.262 292.101 231.416 292.618 228.534C293.057 225.953 293.358 223.35 293.52 220.736C293.52 220.046 293.587 219.366 293.609 218.698L293.943 218.909C293.943 219.511 293.943 220.135 293.877 220.759C293.727 223.371 293.441 225.974 293.019 228.557C292.518 231.456 291.833 234.321 290.969 237.134C290.012 240.236 288.786 243.248 287.304 246.136C286.513 247.674 285.627 249.162 284.652 250.592C284.151 251.316 283.605 252.029 283.026 252.708C282.446 253.388 281.856 254.078 281.232 254.747C278.614 257.474 275.634 259.828 272.375 261.743C268.918 263.752 265.263 265.398 261.468 266.655C253.42 269.59 245.215 272.074 236.892 274.097C227.945 276.16 218.865 277.6 209.719 278.408C206.979 278.709 204.238 278.776 201.531 278.943C198.824 279.11 196.128 279.099 193.454 279.032C192.117 279.032 190.791 279.032 189.476 278.921C188.162 278.809 186.836 278.809 185.533 278.698C182.92 278.534 180.317 278.236 177.734 277.807C174.258 277.116 170.86 276.447 167.485 276.013L165.479 275.166L166.994 275.3Z" fill="#3F00F9"/>
<path d="M136.981 279.121C135.235 279.792 133.566 280.647 132.001 281.672C131.4 281.895 130.887 282.118 130.286 282.341C132.237 280.76 134.43 279.504 136.781 278.62C138.659 277.875 140.583 277.25 142.54 276.749L143.443 277.094C141.243 277.615 139.084 278.293 136.981 279.121Z" fill="#3F00F9"/>
<path d="M132.369 316.696C133.632 315.218 134.617 313.524 135.277 311.694C135.955 309.616 136.032 307.387 135.499 305.267C134.82 302.937 133.762 300.736 132.369 298.75C130.801 296.579 129.4 294.293 128.18 291.91C127.551 290.598 127.257 289.152 127.322 287.699C127.327 287.322 127.383 286.947 127.489 286.585C127.546 286.204 127.643 285.831 127.779 285.471C128.086 284.773 128.499 284.126 129.004 283.555C129.262 283.256 129.537 282.974 129.829 282.708C130.308 282.508 130.809 282.307 131.344 282.118C130.638 282.639 129.985 283.229 129.394 283.878C128.931 284.409 128.555 285.011 128.28 285.66C128.154 285.988 128.06 286.328 128.002 286.674C127.906 287.007 127.853 287.352 127.846 287.699C127.784 289.074 128.06 290.443 128.648 291.687C129.85 294.049 131.228 296.316 132.77 298.471C134.18 300.51 135.241 302.769 135.912 305.155C136.462 307.363 136.37 309.682 135.644 311.839C134.965 313.705 133.949 315.431 132.647 316.93C130.768 319.054 128.622 320.926 126.264 322.5L125.963 322.433C128.341 320.81 130.494 318.881 132.369 316.696Z" fill="#3F00F9"/>
<path d="M126.231 322.456L125.963 322.634L125.907 322.4L126.231 322.456Z" fill="#3F00F9"/>
<path d="M125.963 322.634L125.618 322.868L125.551 322.645L125.908 322.4L125.963 322.634Z" fill="#3F00F9"/>
<path d="M266.715 202.188L246.929 189.934V189.611L266.983 201.865L293.654 218.241C293.654 218.442 293.654 218.642 293.654 218.843L266.715 202.188Z" fill="#3F00F9"/>
<path d="M244.623 188.474L240.167 185.679H240.423L244.734 188.285L246.472 189.332V189.655L244.623 188.474Z" fill="#3F00F9"/>
<path d="M307.023 226.618L305.452 225.939L304.605 225.582L293.91 218.998C293.91 218.787 293.91 218.597 293.91 218.386L308.215 227.175C308.098 227.131 307.986 227.075 307.881 227.008C307.569 226.852 307.279 226.752 307.023 226.618Z" fill="#3F00F9"/>
<path d="M308.271 227.788C308.379 227.83 308.491 227.863 308.605 227.888V228.045L308.271 227.833V227.788Z" fill="#3F00F9"/>
<path d="M293.62 218.186L293.955 218.386C293.955 218.598 293.955 218.788 293.955 219L293.62 218.788C293.609 218.587 293.609 218.397 293.62 218.186Z" fill="#3F00F9"/>
<path d="M130.731 283.733C131.388 283.009 131.722 282.619 131.912 282.475C132.608 281.793 133.429 281.253 134.329 280.881C135.221 280.603 136.179 280.347 137.193 280.102H137.304L137.928 279.968C141.264 279.273 144.659 278.9 148.066 278.854L149.113 279.244H148.133C144.746 279.217 141.366 279.554 138.05 280.247L137.449 280.38C136.223 280.659 135.221 280.937 134.396 281.171C133.753 281.431 133.163 281.809 132.658 282.285C132.364 282.59 132.085 282.91 131.823 283.243L131.711 283.377C131.154 283.626 130.64 283.961 130.185 284.368L130.731 283.733Z" fill="#3F00F9"/>
<path d="M164.733 281.516L166.359 281.962C173.598 283.864 180.706 286.235 187.638 289.058L187.772 289.114L185.544 288.779C179.222 286.302 172.769 284.171 166.215 282.396C161.196 280.849 156.034 279.815 150.807 279.31L149.838 278.954L149.626 278.876C154.306 279.158 158.944 279.931 163.463 281.182L164.733 281.516Z" fill="#3F00F9"/>
<path d="M163.485 281.181C158.966 279.931 154.328 279.158 149.648 278.876C154.334 279.104 158.978 279.878 163.485 281.181Z" fill="#3F00F9"/>
<path d="M137.94 279.935L137.315 280.068H137.416L137.94 279.935Z" fill="#3F00F9"/>
<path d="M134.33 280.881C135.043 280.658 136.023 280.38 137.193 280.102C136.179 280.347 135.221 280.603 134.33 280.881Z" fill="#3F00F9"/>
<path d="M187.404 289.537C186.792 289.269 186.179 289.024 185.566 288.779L187.794 289.113L189.432 289.826L187.404 289.537Z" fill="#3F00F9"/>
<path d="M131.344 282.151C130.809 282.341 130.308 282.541 129.829 282.742C129.974 282.597 130.13 282.474 130.286 282.341C130.832 282.118 131.4 281.895 132.001 281.672L131.344 282.151Z" fill="#3F00F9"/>
<path d="M250.461 164.101C250.461 172.255 250.35 179.363 250.238 183.039L249.926 182.838C249.837 179.118 249.804 172.122 249.826 164.09C249.826 161.639 249.826 159.299 249.826 157.094L250.428 157.495C250.461 159.578 250.461 161.795 250.461 164.101Z" fill="#3F00F9"/>
<path d="M249.882 156.915C249.882 154.687 249.882 152.638 249.949 150.811L250.45 151.212C250.45 153.039 250.45 155.088 250.45 157.305L249.882 156.915Z" fill="#3F00F9"/>
<path d="M250.462 157.495L249.859 157.094V156.916L250.462 157.306V157.495Z" fill="#3F00F9"/>
<path d="M239.32 150.443C239.356 150.475 239.386 150.513 239.41 150.554C239.41 150.61 239.41 150.666 239.32 150.733V150.443Z" fill="#3F00F9"/>
<path d="M239.565 150.644C239.646 150.491 239.736 150.342 239.833 150.198C239.833 150.455 239.833 150.733 239.833 151.001L239.565 150.644Z" fill="#3F00F9"/>
<path d="M240.022 163.399C240.123 172.21 240.178 180.109 240.167 185.189L239.799 185.266C239.666 180.142 239.521 172.266 239.421 163.432C239.365 159.054 239.332 154.899 239.298 151.178L239.532 150.744L239.877 151.167C239.911 154.899 239.967 159.021 240.022 163.399Z" fill="#3F00F9"/>
<path d="M239.844 151.179L239.499 150.755L239.565 150.644L239.844 151V151.179Z" fill="#3F00F9"/>
<path d="M239.32 150.443V150.243L239.476 150.432L239.41 150.555C239.386 150.513 239.356 150.475 239.32 150.443Z" fill="#3F00F9"/>
<path d="M240.167 185.189C241.281 184.955 242.796 184.676 244.412 184.375L246.272 183.963C246.272 184.175 246.272 184.387 246.272 184.598C245.715 184.732 245.158 184.877 244.523 184.999C242.986 185.289 241.56 185.5 240.423 185.656L240.134 185.478L240.167 185.189Z" fill="#3F00F9"/>
<path d="M240.156 185.668V185.479L240.446 185.657H240.189L240.156 185.668Z" fill="#3F00F9"/>
<path d="M239.799 185.267L240.167 185.188V185.478L239.799 185.267Z" fill="#3F00F9"/>
<path d="M240.156 185.668L239.766 185.423V185.278L240.123 185.49L240.156 185.668Z" fill="#3F00F9"/>
<path d="M317.762 223.143L318.275 223.466C318.275 224.123 318.275 224.758 318.275 225.381L318.063 224.468C317.918 223.967 317.84 223.555 317.762 223.143Z" fill="#3F00F9"/>
<path d="M317.662 225.828V225.248L317.718 225.493C317.728 225.608 317.709 225.723 317.662 225.828Z" fill="#3F00F9"/>
<path d="M317.673 222.664C317.673 219.879 317.673 216.927 317.673 213.83C317.673 209.374 317.74 205.241 317.785 201.576L318.364 201.954C318.364 205.575 318.364 209.608 318.364 213.885C318.364 217.138 318.364 220.257 318.286 223.165L317.696 222.775L317.673 222.664Z" fill="#3F00F9"/>
<path d="M318.42 201.341L317.851 200.962C317.851 200.004 317.851 199.091 317.851 198.189L318.386 198.512L318.42 201.341Z" fill="#3F00F9"/>
<path d="M317.885 197.064C318.075 197.318 318.246 197.586 318.397 197.866V198.256L317.874 197.944C317.874 197.654 317.874 197.354 317.885 197.064Z" fill="#3F00F9"/>
<path d="M317.829 200.963L318.397 201.342V201.91L317.818 201.531C317.829 201.342 317.829 201.152 317.829 200.963Z" fill="#3F00F9"/>
<path d="M300.116 215.055L308.226 220.124V220.714L299.804 215.556L293.776 211.847C293.776 211.591 293.776 211.334 293.721 211.078L300.116 215.055Z" fill="#3F00F9"/>
<path d="M312.537 222.853L317.551 226.028C317.551 226.028 317.495 226.128 317.45 226.151C317.387 226.191 317.314 226.214 317.239 226.217L312.303 223.243L308.504 220.926C308.504 220.725 308.504 220.525 308.504 220.335L312.537 222.853Z" fill="#3F00F9"/>
<path d="M257.636 187.74L284.997 205.419L292.796 210.476L293.453 210.888C293.453 211.134 293.453 211.401 293.453 211.657L292.417 211.011L284.619 205.953L257.357 188.129C254.494 186.225 252.087 184.632 250.249 183.395L250.561 183.272L257.636 187.74Z" fill="#3F00F9"/>
<path d="M308.494 220.28C308.494 220.469 308.494 220.67 308.494 220.871L308.215 220.703V220.112L308.494 220.28Z" fill="#3F00F9"/>
<path d="M293.721 211.067C293.721 211.323 293.721 211.579 293.776 211.835L293.476 211.657C293.476 211.401 293.476 211.134 293.476 210.889L293.721 211.067Z" fill="#3F00F9"/>
<path d="M250.249 183.073L249.937 183.139V182.838L250.249 183.039V183.073Z" fill="#3F00F9"/>
<path d="M250.294 183.061L250.595 183.262L250.283 183.384C250.283 183.284 250.283 183.195 250.283 183.094L250.294 183.061Z" fill="#3F00F9"/>
<path d="M250.238 183.362L249.937 183.161L250.249 183.094C250.249 183.172 250.238 183.262 250.238 183.362Z" fill="#3F00F9"/>
<path d="M243.933 147.346C243.103 147.347 242.296 147.621 241.638 148.126C241.076 148.553 240.584 149.064 240.178 149.64C240.044 149.83 239.944 150.008 239.833 150.197V149.763L239.989 149.507C240.392 148.889 240.892 148.34 241.47 147.881C242.172 147.315 243.043 147.001 243.944 146.99C244.762 147.004 245.566 147.206 246.294 147.58C246.294 147.736 246.294 147.87 246.294 148.026C245.573 147.612 244.763 147.379 243.933 147.346Z" fill="#3F00F9"/>
<path d="M249.202 150.22C248.391 149.488 247.527 148.818 246.617 148.215V147.758L246.818 147.859C247.757 148.465 248.65 149.139 249.492 149.874C249.636 149.997 249.803 150.108 249.959 150.231C250.115 150.353 249.959 150.621 249.959 150.81C249.703 150.61 249.436 150.442 249.202 150.22Z" fill="#3F00F9"/>
<path d="M317.874 197.064C317.766 196.903 317.625 196.767 317.462 196.663L316.882 196.329C309.585 191.873 295.08 182.582 278.904 171.052C273.144 166.952 267.562 163.087 262.783 159.255C260.287 157.495 257.77 156.024 255.452 154.576C253.636 153.462 251.954 152.348 250.439 151.234V150.632C252.021 151.824 253.781 152.972 255.731 154.153C258.048 155.567 260.588 157.027 263.128 158.798C267.952 162.619 273.5 166.44 279.282 170.551C287.348 176.332 295.013 181.535 301.564 185.902L310.41 191.772L314.042 194.156L315.624 195.192L316.359 195.66L316.704 195.883L316.882 195.983H316.96L316.905 196.106L316.983 195.983L317.551 196.329C317.653 196.399 317.747 196.481 317.829 196.574V196.975L317.874 197.064Z" fill="#3F00F9"/>
<path d="M249.948 150.811C249.948 150.621 249.948 150.421 249.948 150.231L250.438 150.61V151.212L249.948 150.811Z" fill="#3F00F9"/>
<path d="M239.32 150.766C239.32 150.699 239.387 150.644 239.41 150.588L239.554 150.755L239.32 151.19V150.766Z" fill="#3F00F9"/>
<path d="M239.565 150.645C239.514 150.588 239.465 150.528 239.42 150.466C239.542 150.225 239.676 149.991 239.822 149.764V150.199C239.728 150.342 239.643 150.491 239.565 150.645Z" fill="#3F00F9"/>
<path d="M239.498 150.755L239.354 150.588L239.42 150.465C239.465 150.527 239.514 150.587 239.565 150.644L239.498 150.755Z" fill="#3F00F9"/>
<path d="M317.885 196.663C317.961 196.737 318.028 196.819 318.085 196.908C318.201 197.056 318.305 197.212 318.397 197.376V197.866C318.246 197.586 318.075 197.318 317.885 197.064V196.663Z" fill="#3F00F9"/>
<path d="M144.535 296.923H144.613C144.613 297.012 144.613 297.101 144.613 297.202L144.557 297.046L144.535 296.923Z" fill="#3F00F9"/>
<path d="M144.479 296.744L143.51 294.149C143.143 293.011 142.712 291.895 142.217 290.807C141.656 289.643 141.005 288.526 140.268 287.465C139.513 286.304 138.554 285.288 137.438 284.468C136.308 283.716 134.959 283.364 133.605 283.465C132.347 283.601 131.17 284.154 130.263 285.036C129.854 285.42 129.533 285.887 129.321 286.406C129.11 286.925 129.013 287.484 129.038 288.044C129.147 289.056 129.402 290.046 129.795 290.985C130.526 292.901 131.503 294.714 132.703 296.377C132.271 296.019 131.895 295.599 131.589 295.129C130.661 293.908 129.911 292.561 129.361 291.13C128.925 290.152 128.632 289.116 128.492 288.055C128.452 287.416 128.551 286.775 128.782 286.177C129.013 285.579 129.37 285.038 129.829 284.591L130.141 284.334L129.65 284.88L131.411 283.666L131.667 283.343C132.258 283.077 132.885 282.9 133.527 282.819C135.031 282.7 136.531 283.093 137.783 283.933C138.967 284.798 139.979 285.874 140.769 287.108C141.525 288.216 142.184 289.386 142.741 290.606C143.23 291.693 143.651 292.809 144 293.948L144.145 294.405C144.278 295.107 144.412 295.898 144.546 296.789L144.479 296.744Z" fill="#3F00F9"/>
<path d="M129.695 284.88L130.185 284.335C130.64 283.927 131.155 283.593 131.712 283.343L131.455 283.666L129.695 284.88Z" fill="#3F00F9"/>
<path d="M144.624 296.811C144.49 295.92 144.356 295.129 144.223 294.428C144.523 295.319 144.802 296.165 145.058 296.945V297.067C144.973 297.012 144.883 296.964 144.791 296.923L144.624 296.811Z" fill="#3F00F9"/>
<path d="M144.624 296.967L144.746 297.034L145.125 297.235C145.125 297.235 145.125 297.313 145.125 297.357C145.236 297.959 145.325 298.604 145.403 299.284L144.657 297.246C144.624 297.145 144.624 297.056 144.624 296.967Z" fill="#3F00F9"/>
<path d="M144.479 296.745L144.591 296.812C144.591 296.812 144.591 296.912 144.591 296.968H144.512L144.479 296.745Z" fill="#3F00F9"/>
<path d="M144.624 296.968C144.624 296.968 144.624 296.856 144.624 296.812L144.824 296.923C144.917 296.965 145.006 297.013 145.092 297.068V297.157C145.092 297.157 145.092 297.213 145.092 297.235L144.713 297.035L144.624 296.968Z" fill="#3F00F9"/>
<path d="M246.651 170.094C246.651 175.141 246.751 179.83 246.818 183.841L246.272 183.963C246.15 179.931 246.049 175.196 246.005 170.094C245.949 162.775 246.005 156.147 246.161 151.357C246.161 150.109 246.228 149.006 246.261 148.015L246.606 148.204V151.345C246.606 156.158 246.595 162.775 246.651 170.094Z" fill="#3F00F9"/>
<path d="M246.506 189.634V189.311L246.941 189.578V189.902L246.506 189.634Z" fill="#3F00F9"/>
<path d="M246.818 183.863C246.818 184.075 246.818 184.275 246.818 184.476L246.283 184.621C246.283 184.409 246.283 184.197 246.283 183.985L246.818 183.863Z" fill="#3F00F9"/>
<path d="M246.607 148.216L246.261 148.026C246.261 147.87 246.261 147.736 246.261 147.58L246.596 147.759V148.216H246.607Z" fill="#3F00F9"/>
<path d="M339.342 230.952C340.631 230.656 341.881 230.208 343.063 229.615C343.675 229.321 344.27 228.994 344.846 228.635C345.135 228.445 345.436 228.267 345.714 228.066L346.138 227.766L346.472 227.543C346.583 227.543 346.739 227.688 346.829 227.721L354.271 232.344L388.328 253.51C392.914 255.619 396.855 258.91 399.747 263.046C403.086 267.062 405.781 271.571 407.735 276.414C408.704 278.921 409.348 281.542 409.651 284.212C409.734 286.903 410.107 289.578 410.765 292.188C411.558 294.779 413.036 297.108 415.043 298.928C416.02 299.873 417.15 300.645 418.386 301.212C418.945 301.492 419.588 301.556 420.191 301.39C420.725 301.223 421.015 300.599 421.182 299.975C421.428 298.633 421.45 297.259 421.249 295.909C421.093 294.539 420.848 293.18 420.558 291.843C419.949 289.167 419.206 286.523 418.33 283.922C416.702 278.827 414.583 273.903 412.002 269.218C409.467 264.698 406.481 260.447 403.089 256.529C399.726 252.88 396.026 249.557 392.038 246.603C376.106 235.463 361.468 225.838 349.124 217.862C336.78 209.886 326.664 203.603 319.667 199.292L318.408 198.512V198.256L319.79 199.08C326.831 203.336 336.98 209.563 349.369 217.495C361.757 225.426 376.396 235.029 392.372 246.147C400.738 252.092 407.623 259.883 412.492 268.917C415.112 273.644 417.269 278.613 418.932 283.755C419.81 286.374 420.554 289.036 421.16 291.732C421.468 293.096 421.702 294.475 421.862 295.864C422.069 297.289 422.043 298.738 421.784 300.153C421.723 300.549 421.567 300.923 421.328 301.243C421.089 301.564 420.775 301.821 420.413 301.991C419.673 302.21 418.878 302.143 418.185 301.802C416.886 301.212 415.699 300.401 414.676 299.407C412.583 297.514 411.043 295.088 410.22 292.389C409.561 289.74 409.188 287.029 409.105 284.301C408.816 281.673 408.187 279.092 407.234 276.626C405.296 271.829 402.628 267.361 399.324 263.38C396.465 259.319 392.573 256.096 388.049 254.045L354.07 232.745L346.65 228.1C346.539 228.044 346.65 228.033 346.461 228.1L346.026 228.401C345.737 228.612 345.436 228.791 345.135 228.969C344.55 229.344 343.939 229.679 343.308 229.971C342.093 230.573 340.81 231.026 339.487 231.319C338.512 231.545 337.513 231.657 336.512 231.654C337.136 231.486 337.749 231.308 338.328 231.108C338.629 231.097 338.985 231.03 339.342 230.952Z" fill="#3F00F9"/>
<path d="M325.65 227.799C322.909 226.362 320.458 224.903 318.275 223.466V223.121C320.707 224.707 323.221 226.165 325.806 227.487C327.756 228.468 329.806 229.56 332.034 230.44C333.253 230.924 334.544 231.203 335.855 231.264L335.031 231.453L334.63 231.542C333.689 231.406 332.769 231.155 331.889 230.796C329.627 229.894 327.6 228.791 325.65 227.799Z" fill="#3F00F9"/>
<path d="M317.696 222.853V222.786L318.287 223.176V223.522L317.774 223.199C317.74 223.02 317.718 222.853 317.696 222.853Z" fill="#3F00F9"/>
<path d="M317.863 198.189V197.944L318.387 198.256V198.513L317.863 198.189Z" fill="#3F00F9"/>
<path d="M175.74 288.579L182.658 291.164C184.886 292.612 186.825 294.038 188.83 295.62C192.988 298.809 196.607 302.645 199.548 306.982C201.031 309.245 202.141 311.731 202.834 314.346C203.157 315.683 203.38 316.986 203.792 318.267C204.188 319.547 204.714 320.783 205.363 321.955C206.692 324.32 208.611 326.301 210.934 327.703C212.072 328.436 213.326 328.971 214.643 329.285C215.25 329.451 215.897 329.388 216.459 329.106C216.693 328.918 216.877 328.676 216.996 328.4C217.114 328.124 217.163 327.824 217.139 327.525C217.108 326.16 216.856 324.809 216.393 323.525C215.961 322.216 215.463 320.929 214.9 319.671C211.555 312.28 207.206 305.386 201.976 299.184C199.188 295.976 196.148 292.996 192.886 290.272L194 290.417C197.013 292.999 199.831 295.799 202.433 298.795C205.953 302.897 209.057 307.337 211.702 312.051C213.083 314.447 214.34 316.912 215.468 319.437C216.042 320.713 216.548 322.018 216.983 323.347C217.475 324.702 217.739 326.128 217.763 327.569C217.783 327.967 217.705 328.365 217.536 328.726C217.367 329.087 217.112 329.401 216.794 329.641C216.108 329.997 215.316 330.093 214.565 329.909C213.174 329.581 211.848 329.019 210.644 328.249C208.227 326.79 206.231 324.728 204.851 322.266C204.181 321.055 203.637 319.778 203.224 318.457C202.801 317.153 202.567 315.783 202.255 314.513C201.588 311.956 200.508 309.526 199.058 307.317C196.157 303.035 192.587 299.248 188.485 296.099C187.505 295.285 186.491 294.55 185.488 293.793C184.987 293.414 184.463 293.069 183.951 292.679L182.469 291.654L175.562 289.058L149.704 279.355L149.136 279.144C149.704 279.144 150.25 279.144 150.851 279.233L175.74 288.579Z" fill="#3F00F9"/>
<path d="M129.417 271.546C129.528 271.301 129.774 271.546 129.919 271.546L129.261 271.724L129.417 271.546Z" fill="#3F00F9"/>
<path d="M112.449 276.726L111.335 276.425L111.981 276.213L113.095 276.514L112.449 276.726Z" fill="#3F00F9"/>
<path d="M145.069 267.324L144.1 266.934L144.88 266.722L145.86 267.112L145.069 267.324Z" fill="#3F00F9"/>
<path d="M192.172 289.693L193.286 289.838C193.52 290.038 193.777 290.227 194.011 290.439L192.897 290.294L192.172 289.693Z" fill="#3F00F9"/>
<path d="M144.312 276.893L143.443 277.093L142.541 276.748L143.365 276.537L144.312 276.893Z" fill="#3F00F9"/>
<path d="M165.535 275.144L167.54 275.991L166.916 275.901L165.591 275.757L163.719 274.977L165.535 275.144Z" fill="#3F00F9"/>
<path d="M148.133 278.832C148.634 278.832 149.136 278.832 149.648 278.832L149.86 278.91L150.829 279.266C150.25 279.266 149.715 279.199 149.113 279.177L148.066 278.787L148.133 278.832Z" fill="#3F00F9"/>
<path d="M317.105 226.195C317.149 226.204 317.195 226.204 317.239 226.195L317.662 226.462L317.829 226.551L317.773 226.607C317.581 226.736 317.358 226.813 317.127 226.83L316.626 226.908H316.492L315.813 226.496L315.679 226.418L316.537 226.295L317.105 226.195Z" fill="#3F00F9"/>
<path d="M308.393 227.231C308.527 227.28 308.665 227.317 308.805 227.342C309.125 227.384 309.45 227.365 309.763 227.286L310.877 227.119L313.184 226.774L315.078 226.496L315.646 226.863L315.857 226.997H315.59L313.284 227.342L310.978 227.676L309.864 227.832C309.495 227.899 309.118 227.899 308.75 227.832H308.683C308.683 227.665 308.683 227.498 308.683 227.331L308.393 227.231Z" fill="#3F00F9"/>
<path d="M317.551 225.972C317.597 225.932 317.635 225.882 317.662 225.827V226.039L317.551 225.972Z" fill="#3F00F9"/>
<path d="M304.605 225.583L305.452 225.939L307.023 226.618C307.312 226.752 307.568 226.852 307.925 227.03C308.03 227.097 308.142 227.153 308.259 227.197C308.259 227.398 308.259 227.587 308.259 227.788H308.114L304.605 225.583Z" fill="#3F00F9"/>
<path d="M308.259 227.197H308.348L308.594 227.353C308.594 227.521 308.594 227.688 308.594 227.855C308.48 227.83 308.368 227.796 308.259 227.755C308.27 227.588 308.259 227.398 308.259 227.197Z" fill="#3F00F9"/>
<path d="M317.662 226.038V225.827C317.709 225.722 317.728 225.607 317.718 225.493L317.662 225.248C317.662 224.535 317.662 223.822 317.662 223.02L317.751 223.087C317.829 223.499 317.907 223.944 318.03 224.412L318.241 225.325C318.241 225.47 318.241 225.615 318.241 225.749C318.217 225.921 318.152 226.085 318.052 226.228L317.662 226.038Z" fill="#3F00F9"/>
<path d="M317.551 225.972L317.663 226.039V226.429L317.239 226.162C317.314 226.158 317.387 226.135 317.451 226.095C317.451 226.095 317.518 226.017 317.551 225.972Z" fill="#3F00F9"/>
<path d="M318.052 226.284C317.987 226.37 317.912 226.449 317.829 226.519L317.662 226.429V226.039L318.052 226.284Z" fill="#3F00F9"/>
<path d="M317.684 222.73V222.853C317.684 222.953 317.684 223.076 317.751 223.199L317.662 223.132V222.775L317.684 222.73Z" fill="#3F00F9"/>
<path d="M321.038 229.537C322.029 230.094 323.066 230.651 324.18 231.152C325.33 231.639 326.547 231.955 327.789 232.088C330.083 232.303 332.396 232.126 334.63 231.564C335.234 231.658 335.845 231.707 336.457 231.709L335.164 232.032C332.745 232.705 330.223 232.932 327.722 232.701C326.419 232.571 325.144 232.237 323.946 231.709C322.851 231.209 321.784 230.651 320.748 230.038C318.865 228.924 317.205 227.933 315.802 227.019L316.492 226.919C317.818 227.688 319.333 228.579 321.038 229.537Z" fill="#3F00F9"/>
<path d="M335.03 231.453L335.855 231.264C336.663 231.3 337.472 231.259 338.272 231.141C337.693 231.342 337.08 231.52 336.456 231.687C335.845 231.684 335.234 231.636 334.629 231.542L335.03 231.453Z" fill="#3F00F9"/>
<path d="M315.078 226.496L315.501 226.44H315.735L315.869 226.518L316.548 226.93L315.858 227.03L315.646 226.897L315.078 226.496Z" fill="#3F00F9"/>
<g filter="url(#filter0_i_1108_3049)">
<path d="M58.4992 277.157L57.973 268.995L59.6342 268.382L59.9941 275.591L60.1651 275.528L63.4209 266.985L65.0822 266.372L61.2598 276.138L58.4992 277.157ZM64.4622 274.957L66.1103 265.993L69.8237 264.622C70.3612 264.424 70.8114 264.349 71.1743 264.398C71.5372 264.448 71.7957 264.611 71.9496 264.888C72.1036 265.166 72.1358 265.548 72.0463 266.034L72.0181 266.188C71.9192 266.726 71.717 267.206 71.4115 267.629C71.106 268.053 70.7599 268.407 70.3734 268.693L70.331 268.923C70.6536 268.82 70.8841 268.847 71.0224 269.002C71.1623 269.15 71.1993 269.403 71.1334 269.761L70.5942 272.694L68.9818 273.289L69.4763 270.6C69.5139 270.395 69.4916 270.248 69.4093 270.159C69.3351 270.067 69.1799 270.064 68.9438 270.151L66.6962 270.981L66.0746 274.362L64.4622 274.957ZM66.9787 269.444L68.9087 268.732C69.2914 268.591 69.6083 268.374 69.8593 268.083C70.12 267.78 70.2833 267.449 70.3492 267.09L70.3727 266.962C70.4386 266.604 70.3854 266.357 70.2129 266.221C70.0419 266.078 69.761 266.078 69.3702 266.222L67.4402 266.934L66.9787 269.444Z" fill="#9866FF"/>
</g>
<path d="M259.052 333.352C259.12 333.932 264.909 333.813 269.622 333.281C274.521 332.707 280.078 331.508 280.011 330.938C279.944 330.367 274.674 330.486 270.564 330.877C265.01 331.402 258.982 332.746 259.052 333.352Z" fill="#E74A9F"/>
<path d="M233.701 336.321C233.769 336.901 239.558 336.782 244.271 336.25C249.17 335.676 254.726 334.477 254.66 333.906C254.593 333.336 249.323 333.455 245.213 333.846C239.658 334.371 233.63 335.715 233.701 336.321Z" fill="#FF6E61"/>
<path d="M379.424 319.256C379.491 319.832 385.281 319.717 389.993 319.18C394.892 318.607 400.449 317.408 400.387 316.841C400.326 316.275 395.045 316.386 390.936 316.781C385.382 317.311 379.353 318.651 379.424 319.256Z" fill="#0894FF"/>
<path d="M353.978 322.236C354.046 322.816 359.835 322.697 364.547 322.16C369.451 321.586 375.008 320.387 374.942 319.821C374.875 319.255 369.599 319.365 365.495 319.76C359.935 320.286 353.907 321.63 353.978 322.236Z" fill="#5463FF"/>
<path d="M311.676 324.976C312.194 324.142 312.893 323.434 313.72 322.904C314.548 322.373 315.483 322.033 316.458 321.91C317.433 321.786 318.424 321.881 319.358 322.188C320.291 322.495 321.145 323.006 321.855 323.684C322.061 324.267 322.147 324.886 322.108 325.503C322.068 326.121 321.905 326.724 321.626 327.277C320.625 329.049 318.561 329.321 317.589 329.45C316.859 329.535 313.978 329.928 312.472 327.951C311.859 327.087 311.576 326.031 311.676 324.976Z" fill="#A97FFF"/>
<path d="M252.339 338.741C252.108 338.878 251.93 339.091 251.836 339.343C251.736 339.607 251.738 339.899 251.841 340.162C251.904 340.308 251.997 340.44 252.113 340.549C252.229 340.658 252.365 340.743 252.515 340.798L295.981 342.055C295.198 343.759 294.67 345.568 294.413 347.425C294.214 348.983 294.188 350.558 294.334 352.122C294.412 353.228 294.561 354.328 294.78 355.415C294.752 355.605 294.768 355.8 294.827 355.984C294.885 356.167 294.986 356.335 295.119 356.474C295.253 356.613 295.417 356.719 295.599 356.785C295.78 356.851 295.974 356.875 296.166 356.855C296.358 356.834 296.543 356.77 296.706 356.667C296.87 356.564 297.007 356.426 297.109 356.262C297.21 356.097 297.273 355.912 297.292 355.72C297.31 355.529 297.285 355.335 297.217 355.154C296.935 353.627 296.824 352.072 296.886 350.52C297.011 347.615 297.728 344.765 298.993 342.145L301.909 342.226C302.962 343.327 304.168 344.27 305.491 345.026C306.23 345.459 307.021 345.798 307.845 346.033C308.452 346.199 309.074 346.306 309.701 346.354C311.978 346.472 314.261 346.433 316.533 346.238C316.612 346.913 316.691 347.587 316.77 348.262C316.422 348.312 316.088 348.43 315.787 348.61C315.486 348.789 315.223 349.027 315.015 349.309C314.806 349.591 314.656 349.912 314.573 350.252C314.489 350.593 314.475 350.947 314.53 351.293C314.585 351.639 314.708 351.971 314.892 352.269C315.077 352.567 315.319 352.825 315.605 353.029C315.89 353.233 316.213 353.378 316.556 353.455C316.898 353.533 317.252 353.542 317.598 353.482C317.777 353.87 318.08 354.189 318.459 354.387C318.86 354.582 319.331 354.521 320.248 354.394C321.165 354.266 321.655 354.189 321.981 353.874C322.246 353.597 322.416 353.242 322.466 352.861C322.953 352.887 323.437 352.778 323.865 352.547C324.243 352.327 324.563 352.022 324.801 351.656C325.039 351.29 325.188 350.873 325.235 350.44C325.24 349.97 325.131 349.506 324.918 349.087C324.705 348.668 324.394 348.306 324.012 348.033C323.66 347.756 323.234 347.591 322.787 347.558L322.464 347.595L322.161 347.631L322.003 345.678C323.592 345.483 325.165 345.176 326.711 344.759C328.664 344.229 329.921 343.91 331.177 343.109C332.989 341.914 334.41 340.214 335.264 338.22L337.887 337.525C338.356 338.134 338.766 338.619 339.061 338.947C339.443 339.352 339.803 339.779 340.137 340.224C340.444 340.67 340.708 341.145 340.923 341.641C341.498 343 341.91 344.423 342.149 345.879C342.343 346.887 342.572 348.198 342.765 349.755C342.726 349.957 342.734 350.166 342.789 350.364C342.844 350.562 342.944 350.745 343.081 350.898C343.219 351.052 343.39 351.171 343.581 351.247C343.773 351.323 343.979 351.354 344.185 351.337C344.39 351.32 344.589 351.256 344.765 351.15C344.942 351.044 345.091 350.898 345.202 350.725C345.313 350.551 345.382 350.355 345.404 350.15C345.426 349.945 345.4 349.738 345.329 349.545C345.176 348.176 344.952 346.815 344.66 345.469C344.388 343.923 343.956 342.409 343.371 340.952C342.725 339.444 341.866 338.035 340.821 336.769L383.327 325.529C383.448 325.386 383.538 325.219 383.593 325.04C383.649 324.861 383.667 324.672 383.648 324.486C383.619 324.291 383.55 324.105 383.443 323.94C383.337 323.774 383.197 323.634 383.032 323.527L381.273 323.733L381.114 322.846L378.853 323.111C378.687 321.695 378.51 320.282 378.321 318.872C378.264 318.574 378.094 318.309 377.848 318.132C377.602 317.954 377.297 317.876 376.996 317.915C376.694 317.953 376.419 318.105 376.225 318.339C376.032 318.573 375.935 318.872 375.954 319.175L376.398 323.393L374.092 323.663L374.197 324.556L338.233 328.607C333.457 325.253 327.724 323.53 321.887 323.695C322.276 324.798 322.223 326.008 321.738 327.073C320.708 329.115 318.214 329.367 317.418 329.45C316.797 329.523 313.52 329.755 312.156 327.526C311.719 326.749 311.543 325.853 311.655 324.969C305.956 326.044 300.783 329.001 296.967 333.364L275.152 335.984L260.867 337.712L260.744 336.957L258.533 337.175C258.374 335.816 258.215 334.461 258.056 333.102C258.011 332.79 257.851 332.507 257.608 332.307C257.365 332.108 257.055 332.007 256.741 332.023C256.569 332.045 256.404 332.102 256.255 332.189C256.106 332.277 255.977 332.393 255.874 332.532C255.772 332.671 255.699 332.83 255.659 332.998C255.62 333.166 255.615 333.34 255.646 333.51L256.106 337.445L253.726 337.723L253.822 338.542L252.339 338.741Z" fill="url(#paint0_radial_1108_3049)"/>
<path d="M335.177 338.079L335.015 338.42L334.872 338.703C334.773 338.891 334.668 339.074 334.562 339.242C334.353 339.604 334.125 339.955 333.879 340.293C333.394 340.967 332.838 341.589 332.223 342.147C331.607 342.688 330.908 343.126 330.153 343.446C329.407 343.775 328.638 344.054 327.853 344.278C325.95 344.81 324.014 345.219 322.058 345.505L322.087 345.748C324.055 345.468 326.002 345.062 327.918 344.532C328.714 344.302 329.493 344.02 330.253 343.691C331.034 343.366 331.759 342.92 332.4 342.368C333.029 341.797 333.596 341.163 334.092 340.474C334.344 340.128 334.574 339.774 334.791 339.387C334.895 339.203 334.999 339.015 335.1 338.847L335.248 338.558L335.361 338.324L337.882 337.656L337.676 337.444L335.177 338.079Z" fill="#3F00F9"/>
<path d="M253.762 338.589L253.757 338.549L253.131 338.623L252.341 338.715C252.341 338.715 252.61 338.684 253.131 338.623L253.762 338.589Z" fill="#3F00F9"/>
<path d="M264.015 341.065L253.575 340.779L252.731 340.757L252.535 340.755C252.465 340.763 252.421 340.768 252.369 340.719C252.267 340.663 252.175 340.591 252.097 340.504C251.965 340.369 251.87 340.202 251.819 340.02C251.769 339.838 251.765 339.646 251.809 339.462C251.895 339.164 252.082 338.905 252.338 338.731C252.268 338.767 252.204 338.814 252.148 338.869C251.969 339.024 251.841 339.228 251.778 339.455C251.731 339.645 251.732 339.844 251.781 340.033C251.831 340.222 251.927 340.396 252.061 340.539C252.143 340.625 252.237 340.701 252.339 340.763C252.396 340.798 252.464 340.813 252.531 340.806L252.728 340.813L253.572 340.84L264.013 341.176L295.91 342.144L296.008 341.946L264.015 341.065Z" fill="#3F00F9"/>
<path d="M316.57 346.168C316.576 346.223 316.583 346.282 316.59 346.342L316.598 346.406C317.214 346.334 317.834 346.297 318.456 346.229C319.614 346.093 320.786 345.956 321.964 345.773L321.953 345.684C321.947 345.629 321.941 345.579 321.936 345.535C320.752 345.708 319.581 345.856 318.418 345.992C317.816 346.057 317.193 346.115 316.57 346.168Z" fill="#3F00F9"/>
<path d="M338.046 337.587L340.826 336.854L340.638 336.629L337.834 337.375L338.046 337.587Z" fill="#3F00F9"/>
<path d="M296.063 342.161L298.941 342.262L299.048 342.053L296.188 341.976L296.063 342.161Z" fill="#3F00F9"/>
<path d="M381.174 323.578L374.218 324.393L374.228 324.477C374.237 324.556 374.244 324.616 374.25 324.665L381.256 323.845C381.251 323.805 381.246 323.761 381.24 323.706L381.174 323.578Z" fill="#3F00F9"/>
<path d="M322.17 323.833L322.399 323.806L323.256 323.811C323.826 323.825 324.399 323.854 324.974 323.902C328.499 324.204 331.932 325.193 335.076 326.813C335.612 327.087 336.15 327.377 336.655 327.69C336.915 327.845 337.17 328.007 337.426 328.168L337.803 328.42L338.219 328.704L374.147 324.607C374.141 324.557 374.134 324.498 374.125 324.413L374.115 324.334L338.298 328.428L337.964 328.2L337.577 327.949C337.321 327.783 337.06 327.622 336.8 327.466C336.26 327.152 335.746 326.855 335.21 326.581C334.14 326.03 333.034 325.551 331.899 325.148C329.676 324.354 327.358 323.851 325.005 323.652C324.425 323.604 323.847 323.571 323.271 323.558L322.404 323.554L321.902 323.562L322.128 323.772C322.139 323.794 322.153 323.815 322.17 323.833Z" fill="#3F00F9"/>
<path d="M321.765 323.73L321.778 323.839L321.846 324.082C322.002 324.61 322.048 325.164 321.982 325.711C321.916 326.257 321.739 326.785 321.463 327.261C320.848 328.165 319.921 328.81 318.86 329.075C317.819 329.37 316.732 329.468 315.655 329.365C314.599 329.302 313.595 328.888 312.802 328.19C312.44 327.825 312.159 327.388 311.977 326.908C311.795 326.427 311.716 325.914 311.745 325.401C311.73 325.267 311.753 325.204 311.776 324.975C311.677 325.117 311.593 325.258 311.513 325.398C311.483 325.942 311.567 326.486 311.76 326.996C311.953 327.505 312.252 327.968 312.635 328.355C313.466 329.094 314.519 329.535 315.628 329.609C316.737 329.715 317.856 329.615 318.928 329.313C320.05 329.031 321.028 328.345 321.674 327.387C321.964 326.89 322.152 326.341 322.225 325.77C322.298 325.2 322.256 324.621 322.102 324.068L321.981 323.941C321.927 323.867 321.844 323.801 321.765 323.73Z" fill="#3F00F9"/>
<path d="M383.293 323.521C383.228 323.468 383.16 323.419 383.09 323.374C383.038 323.319 382.926 323.353 382.906 323.355L381.286 323.545L381.302 323.679C381.308 323.733 381.313 323.778 381.318 323.818L382.978 323.623C383.031 323.655 383.08 323.691 383.126 323.731C383.226 323.813 383.312 323.91 383.382 324.018C383.518 324.238 383.574 324.498 383.538 324.755C383.52 324.882 383.482 325.005 383.425 325.12L383.323 325.283C383.252 325.362 383.326 325.308 383.23 325.344L382.399 325.562L379.083 326.453L372.517 328.193L359.647 331.591L340.795 336.591L340.982 336.815L359.719 331.855L372.583 328.452L379.149 326.712L382.464 325.821L383.295 325.603L383.35 325.597C383.382 325.597 383.413 325.593 383.444 325.586L383.546 325.463C383.591 325.397 383.632 325.329 383.668 325.258C383.74 325.117 383.788 324.965 383.812 324.808C383.856 324.489 383.786 324.164 383.613 323.891C383.528 323.751 383.419 323.626 383.293 323.521Z" fill="#3F00F9"/>
<path d="M255.445 338.337L253.855 338.523L253.86 338.563L260.816 337.748L260.808 337.674L255.445 338.337Z" fill="#3F00F9"/>
<path d="M316.475 346.179C314.11 346.423 311.725 346.426 309.359 346.188C308.635 346.103 307.922 345.948 307.229 345.723C306.555 345.475 305.907 345.164 305.292 344.793C304.684 344.43 304.103 344.024 303.553 343.578C303.28 343.358 302.998 343.14 302.757 342.891L302.382 342.528L301.988 342.127L299.188 342.047L299.086 342.255L301.892 342.339L302.229 342.682L302.61 343.05C302.87 343.291 303.139 343.526 303.412 343.75C303.971 344.202 304.561 344.614 305.178 344.982C305.804 345.363 306.466 345.683 307.154 345.938C307.863 346.164 308.591 346.323 309.33 346.412C311.713 346.657 314.115 346.658 316.498 346.413L316.491 346.358C316.484 346.294 316.483 346.244 316.475 346.179Z" fill="#3F00F9"/>
<path d="M264.36 337.343L297.026 333.437L297.51 332.878L297.985 332.374C298.309 332.045 298.644 331.724 298.989 331.402C301.132 329.427 303.596 327.831 306.274 326.68C307.207 326.285 308.16 325.942 309.13 325.652C309.617 325.509 310.106 325.382 310.596 325.264L311.353 325.1L311.442 325.089C311.491 324.998 311.544 324.91 311.602 324.824L311.548 324.831L311.309 324.858L310.543 325.024C310.053 325.141 309.535 325.278 309.039 325.426C308.06 325.715 307.1 326.062 306.163 326.467C304.354 327.261 302.64 328.258 301.056 329.439C300.287 330.007 299.55 330.615 298.847 331.262C298.502 331.584 298.162 331.911 297.839 332.245L297.36 332.754L296.913 333.244L264.336 337.225L260.916 337.651L260.927 337.745L264.36 337.343Z" fill="#3F00F9"/>
<path d="M298.033 344.27C297.355 346.13 296.95 348.078 296.831 350.054C296.759 351.217 296.773 352.384 296.873 353.545C296.943 354.145 297.015 354.761 297.087 355.376C297.146 355.654 297.096 355.943 296.947 356.185C296.798 356.427 296.562 356.603 296.287 356.677C296.012 356.737 295.723 356.687 295.484 356.537C295.245 356.387 295.075 356.15 295.01 355.876C294.889 355.276 294.778 354.67 294.693 354.077C294.534 352.936 294.438 351.786 294.406 350.635C294.302 348.682 294.515 346.726 295.037 344.842C295.301 343.927 295.638 343.035 296.045 342.174L295.896 342.191C295.473 343.039 295.123 343.922 294.849 344.828C294.295 346.727 294.061 348.704 294.154 350.679C294.177 351.847 294.27 353.011 294.432 354.168C294.502 354.768 294.623 355.368 294.746 355.992C294.829 356.341 295.047 356.643 295.352 356.832C295.658 357.02 296.026 357.08 296.375 356.998C296.72 356.908 297.016 356.688 297.203 356.386C297.39 356.083 297.453 355.72 297.379 355.372C297.276 354.755 297.205 354.15 297.165 353.551C297.064 352.404 297.045 351.251 297.109 350.102C297.207 348.145 297.581 346.211 298.22 344.358C298.468 343.649 298.759 342.955 299.089 342.28L298.941 342.262C298.599 342.913 298.296 343.583 298.033 344.27Z" fill="#3F00F9"/>
<path d="M296.161 341.964L296.012 341.981L295.914 342.179L296.063 342.161L296.161 341.964Z" fill="#3F00F9"/>
<path d="M299.021 342.041L298.941 342.262L299.113 342.267L299.214 342.059L299.021 342.041Z" fill="#3F00F9"/>
<path d="M342.493 339.309C343.426 341.039 344.078 342.904 344.425 344.837C344.658 345.922 344.872 347.064 345.026 348.288C345.061 348.586 345.096 348.889 345.132 349.196C345.168 349.494 345.188 349.794 345.192 350.095C345.157 350.375 345.017 350.633 344.802 350.817C344.586 351 344.309 351.097 344.026 351.087C343.743 351.077 343.473 350.962 343.271 350.764C343.068 350.566 342.947 350.3 342.931 350.017C342.858 349.392 342.786 348.777 342.716 348.176C342.555 347.018 342.337 345.869 342.061 344.732C341.818 343.7 341.489 342.691 341.078 341.714C340.726 340.851 340.222 340.058 339.589 339.373L338.103 337.646L338.058 337.606L337.892 337.65L337.985 337.755L339.438 339.496C340.589 340.725 341.287 342.645 341.811 344.792C342.081 345.919 342.292 347.059 342.443 348.208C342.513 348.807 342.584 349.417 342.657 350.039C342.67 350.397 342.819 350.737 343.073 350.989C343.328 351.241 343.669 351.387 344.027 351.397C344.386 351.407 344.735 351.28 345.003 351.042C345.271 350.805 345.439 350.474 345.472 350.117C345.473 349.798 345.452 349.48 345.41 349.164L345.303 348.246C345.162 347.04 344.931 345.885 344.687 344.797C344.466 343.76 344.178 342.739 343.826 341.739C343.512 340.868 343.122 340.027 342.66 339.225C342.17 338.377 341.604 337.577 340.969 336.832L340.82 336.85C341.446 337.621 342.005 338.444 342.493 339.309Z" fill="#3F00F9"/>
<path d="M340.638 336.629L340.826 336.854L340.975 336.837L340.787 336.612L340.638 336.629Z" fill="#3F00F9"/>
<path d="M337.834 337.375L337.67 337.395L337.876 337.607L338.042 337.562L337.834 337.375Z" fill="#3F00F9"/>
<path d="M322.118 353.546C321.774 354.175 320.948 354.136 320.189 354.275C319.43 354.414 318.632 354.568 318.148 354.051C318.013 353.923 317.896 353.778 317.8 353.619L317.512 353.653C317.628 353.876 317.781 354.077 317.965 354.249C318.112 354.385 318.284 354.493 318.47 354.567C318.665 354.631 318.87 354.66 319.075 354.652C319.46 354.637 319.844 354.602 320.226 354.547C320.608 354.502 320.986 354.458 321.368 354.368C321.569 354.33 321.76 354.253 321.931 354.141C322.095 354.024 322.235 353.876 322.344 353.706C322.487 353.486 322.588 353.243 322.642 352.987L322.364 353.019C322.311 353.207 322.228 353.385 322.118 353.546Z" fill="#3F00F9"/>
<path d="M316.868 348.155C316.785 347.44 316.675 346.85 316.608 346.405L316.499 346.417C316.551 346.864 316.621 347.459 316.704 348.174L316.878 348.154L316.868 348.155Z" fill="#3F00F9"/>
<path d="M322.092 347.598L322.271 347.577C322.184 346.838 322.112 346.218 322.058 345.756L321.948 345.769C322.003 346.236 322.045 346.854 322.092 347.598Z" fill="#3F00F9"/>
<path d="M322.059 345.515L321.96 345.526C321.965 345.571 321.971 345.621 321.978 345.675L321.988 345.765L322.097 345.752L322.069 345.509L322.059 345.515Z" fill="#3F00F9"/>
<path d="M316.6 346.341C316.593 346.281 316.586 346.221 316.58 346.167L316.486 346.178C316.492 346.232 316.499 346.292 316.507 346.357L316.513 346.411L316.622 346.398L316.6 346.341Z" fill="#3F00F9"/>
<path d="M318.782 347.941L316.869 348.165L316.895 348.388L318.798 348.165L321.739 347.771L322.092 347.729L322.077 347.6L321.719 347.642L318.782 347.941Z" fill="#3F00F9"/>
<path d="M317.667 353.343C317.707 353.432 317.753 353.519 317.803 353.604L318.3 353.546L319.667 353.385L322.241 353.049L322.366 353.034C322.39 352.947 322.41 352.86 322.425 352.771L322.217 352.795L317.667 353.343Z" fill="#3F00F9"/>
<path d="M316.898 353.438C316.458 353.381 316.04 353.214 315.681 352.952C315.323 352.691 315.037 352.344 314.849 351.943C314.673 351.569 314.593 351.157 314.616 350.744C314.639 350.331 314.764 349.931 314.98 349.578C315.18 349.249 315.447 348.966 315.764 348.747C315.914 348.647 316.072 348.561 316.238 348.49L316.343 348.448L316.706 348.405L316.679 348.172L316.316 348.215C316.259 348.226 316.204 348.244 316.151 348.269C315.962 348.342 315.783 348.435 315.615 348.548C315.26 348.78 314.963 349.088 314.743 349.45C314.504 349.839 314.365 350.28 314.337 350.735C314.31 351.19 314.395 351.645 314.585 352.059C314.792 352.503 315.108 352.888 315.504 353.178C315.9 353.467 316.363 353.652 316.849 353.715C316.875 353.717 316.9 353.714 316.924 353.707L317.5 353.639C317.455 353.549 317.414 353.463 317.378 353.372L316.898 353.438Z" fill="#3F00F9"/>
<path d="M323.812 347.96C324.169 348.176 324.474 348.466 324.707 348.811C325.016 349.263 325.168 349.804 325.139 350.35C325.1 351.006 324.812 351.623 324.334 352.074C324.202 352.198 324.058 352.308 323.904 352.401C323.828 352.452 323.749 352.498 323.668 352.539C323.593 352.579 323.514 352.608 323.431 352.627L322.716 352.711C322.705 352.798 322.69 352.883 322.67 352.968L323.465 352.875C323.669 352.82 323.862 352.729 324.033 352.607C324.2 352.504 324.355 352.383 324.495 352.246C325.019 351.755 325.332 351.08 325.367 350.364C325.385 349.776 325.207 349.199 324.863 348.722C324.61 348.368 324.279 348.074 323.896 347.865C323.655 347.736 323.396 347.643 323.128 347.588C323.037 347.561 322.942 347.552 322.848 347.56C323.183 347.657 323.507 347.791 323.812 347.96Z" fill="#3F00F9"/>
<path d="M322.542 347.617C322.635 347.605 322.727 347.586 322.817 347.559C322.724 347.547 322.629 347.548 322.536 347.562L322.273 347.593L322.281 347.667L322.542 347.617Z" fill="#3F00F9"/>
<path d="M322.418 352.751C322.403 352.84 322.383 352.928 322.359 353.015L322.647 352.981C322.666 352.896 322.682 352.811 322.692 352.724L322.418 352.751Z" fill="#3F00F9"/>
<path d="M322.097 347.684L322.281 347.662L322.271 347.578L322.092 347.599L322.097 347.684Z" fill="#3F00F9"/>
<path d="M316.786 348.396L316.92 348.38L316.894 348.157L316.72 348.177L316.747 348.411L316.786 348.396Z" fill="#3F00F9"/>
<path d="M317.803 353.604C317.753 353.52 317.707 353.432 317.667 353.343L317.394 353.375C317.405 353.469 317.47 353.552 317.516 353.643L317.804 353.609L317.803 353.604Z" fill="#3F00F9"/>
<path d="M311.799 324.912C311.799 324.932 311.802 324.952 311.806 324.971C312.202 324.391 312.683 323.873 313.233 323.436C313.669 323.099 314.143 322.814 314.645 322.587C315.182 322.35 315.749 322.184 316.33 322.093C317.459 321.921 318.613 322.044 319.681 322.45C320.453 322.738 321.166 323.167 321.783 323.713L321.773 323.623L321.767 323.574L321.816 323.568L321.916 323.556L321.936 323.554C321.191 322.851 320.295 322.326 319.317 322.021C318.338 321.715 317.303 321.636 316.289 321.791C315.683 321.885 315.092 322.059 314.531 322.308C314.015 322.55 313.528 322.85 313.08 323.203C312.525 323.661 312.043 324.201 311.65 324.804C311.727 324.815 311.857 324.759 311.799 324.912Z" fill="#3F00F9"/>
<path d="M321.774 323.593L321.724 323.599L321.73 323.648L321.741 323.738C321.819 323.809 321.903 323.875 321.977 323.947L322.097 324.073C322.093 324.057 322.091 324.041 322.091 324.024L322.042 323.858L322.141 323.847C322.13 323.835 322.12 323.823 322.112 323.81L321.886 323.6L321.846 323.605L321.774 323.593Z" fill="#3F00F9"/>
<path d="M311.539 325.098C311.535 325.068 311.525 325.281 311.523 325.392C311.602 325.252 311.686 325.111 311.785 324.969C311.781 324.949 311.779 324.929 311.778 324.909C311.836 324.756 311.707 324.812 311.608 324.833C311.55 324.919 311.497 325.007 311.448 325.099C311.538 325.088 311.536 325.078 311.539 325.098Z" fill="#3F00F9"/>
<path d="M253.838 337.821L254.092 337.791L254.469 337.747L255.319 337.647L256.094 337.556C256.086 337.487 256.076 337.398 256.063 337.293L255.313 337.381L253.657 337.605C253.672 337.73 253.685 337.844 253.698 337.953L253.724 338.181C253.739 338.305 253.751 338.409 253.762 338.499L253.866 338.486C253.856 338.357 253.848 338.116 253.838 337.821Z" fill="#3F00F9"/>
<path d="M259.245 337.233L260.075 337.136L260.696 337.063L260.81 337.699L260.93 337.685L260.905 337.471L260.876 337.223C260.862 337.109 260.848 336.985 260.833 336.856L259.189 337.013L258.568 337.086C258.58 337.19 258.59 337.274 258.598 337.344L259.245 337.233Z" fill="#3F00F9"/>
<path d="M258.535 337.321C258.526 337.247 258.516 337.162 258.504 337.058L257.301 337.199L256.168 337.332C256.181 337.436 256.191 337.525 256.199 337.595L257.352 337.46L258.535 337.321Z" fill="#3F00F9"/>
<path d="M253.861 338.577L253.857 338.538L253.752 338.55L253.757 338.59L253.861 338.577Z" fill="#3F00F9"/>
<path d="M260.823 337.762L260.937 337.749L260.927 337.659L260.807 337.673L260.823 337.762Z" fill="#3F00F9"/>
<path d="M256.037 335.908C255.971 335.343 255.892 334.668 255.845 333.919C255.823 333.735 255.799 333.532 255.778 333.353C255.771 333.175 255.808 332.999 255.884 332.838C255.965 332.669 256.089 332.524 256.244 332.418C256.399 332.311 256.578 332.247 256.765 332.232C256.952 332.218 257.14 332.252 257.31 332.332C257.48 332.412 257.626 332.534 257.735 332.686C257.838 332.828 257.904 332.993 257.928 333.167C257.951 333.365 257.973 333.554 257.995 333.742C258.083 334.492 258.161 335.162 258.262 335.723C258.363 336.285 258.413 336.752 258.47 337.067L258.579 337.054C258.542 336.737 258.518 336.272 258.461 335.7C258.404 335.128 258.316 334.464 258.228 333.715L258.161 333.14C258.135 332.916 258.055 332.703 257.927 332.518C257.793 332.323 257.61 332.167 257.396 332.065C257.182 331.964 256.945 331.922 256.709 331.942C256.473 331.963 256.247 332.045 256.053 332.182C255.86 332.318 255.706 332.504 255.608 332.719C255.512 332.923 255.469 333.148 255.483 333.373C255.508 333.581 255.529 333.765 255.551 333.953C255.639 334.702 255.718 335.372 255.784 335.938C255.85 336.504 255.913 337.039 255.99 337.352L256.089 337.341C256.131 337.009 256.094 336.525 256.037 335.908Z" fill="#3F00F9"/>
<path d="M258.535 337.321L258.604 337.313C258.596 337.243 258.586 337.159 258.574 337.055L258.465 337.067C258.501 337.164 258.516 337.248 258.535 337.321Z" fill="#3F00F9"/>
<path d="M256.159 337.594C256.151 337.525 256.14 337.435 256.128 337.331L256.054 337.34C256.066 337.444 256.076 337.534 256.085 337.603L256.159 337.594Z" fill="#3F00F9"/>
<path d="M379.599 323.074L380.434 322.976L380.806 322.932L381.055 322.903C381.087 323.176 381.143 323.396 381.175 323.583L381.289 323.57L381.259 323.312L381.23 323.069C381.216 322.95 381.202 322.83 381.187 322.696L379.543 322.854L378.857 322.934C378.87 323.043 378.88 323.128 378.888 323.197L379.599 323.074Z" fill="#3F00F9"/>
<path d="M378.809 323.171C378.801 323.102 378.791 323.012 378.779 322.908L377.641 323.041L376.438 323.182C376.452 323.296 376.462 323.386 376.444 323.448L377.671 323.304L378.809 323.171Z" fill="#3F00F9"/>
<path d="M374.192 323.661L374.451 323.631L374.828 323.586L375.678 323.487L376.389 323.404C376.382 323.344 376.371 323.255 376.358 323.141L375.667 323.222L374.011 323.446L374.078 324.021L374.112 324.309L374.217 324.297C374.207 324.172 374.205 323.941 374.192 323.661Z" fill="#3F00F9"/>
<path d="M374.15 324.632L374.215 324.625C374.209 324.575 374.202 324.515 374.193 324.436L374.183 324.352L374.078 324.364L374.088 324.443C374.132 324.524 374.144 324.583 374.15 324.632Z" fill="#3F00F9"/>
<path d="M381.192 323.687C381.198 323.741 381.203 323.786 381.208 323.826L381.288 323.816C381.283 323.777 381.278 323.732 381.271 323.677L381.258 323.568L381.144 323.582L381.192 323.687Z" fill="#3F00F9"/>
<path d="M376.325 321.701C376.259 321.136 376.18 320.461 376.133 319.712C376.111 319.528 376.087 319.325 376.066 319.146C376.055 318.968 376.092 318.79 376.172 318.631C376.253 318.462 376.376 318.318 376.53 318.211C376.683 318.105 376.862 318.041 377.048 318.025C377.237 318.012 377.426 318.047 377.596 318.127C377.767 318.208 377.914 318.331 378.024 318.484C378.123 318.628 378.189 318.792 378.216 318.965C378.239 319.158 378.262 319.352 378.283 319.535C378.371 320.285 378.475 320.957 378.55 321.516C378.626 322.076 378.712 322.594 378.764 322.91L378.868 322.897C378.831 322.58 378.805 322.1 378.744 321.493C378.683 320.887 378.599 320.253 378.512 319.509C378.49 319.32 378.467 319.127 378.444 318.933C378.417 318.71 378.337 318.497 378.21 318.312C378.075 318.117 377.891 317.962 377.677 317.861C377.463 317.76 377.225 317.716 376.989 317.735C376.753 317.756 376.526 317.839 376.333 317.976C376.139 318.112 375.985 318.298 375.887 318.513C375.809 318.725 375.787 318.952 375.823 319.175C375.848 319.388 375.869 319.567 375.892 319.76C375.979 320.504 376.058 321.179 376.124 321.745C376.201 322.4 376.289 322.898 376.343 323.228L376.437 323.217C376.421 322.862 376.382 322.359 376.325 321.701Z" fill="#3F00F9"/>
<path d="M376.444 323.443C376.437 323.383 376.426 323.294 376.438 323.177L376.343 323.188C376.357 323.302 376.367 323.392 376.374 323.451L376.444 323.443Z" fill="#3F00F9"/>
<path d="M378.809 323.171L378.874 323.163C378.866 323.094 378.856 323.009 378.843 322.9L378.779 322.908C378.791 323.012 378.801 323.101 378.809 323.171Z" fill="#3F00F9"/>
<path d="M353.998 322.45C354.048 322.478 354.102 322.5 354.157 322.516C354.257 322.55 354.359 322.575 354.463 322.591C354.659 322.629 354.858 322.651 355.046 322.669C355.433 322.699 355.812 322.715 356.176 322.723C356.908 322.738 357.606 322.721 358.259 322.7C359.563 322.658 360.698 322.58 361.635 322.496C362.572 322.411 363.303 322.336 363.8 322.273L364.371 322.206L364.57 322.182C364.503 322.179 364.435 322.187 364.371 322.206L363.805 322.272L361.632 322.431C360.697 322.49 359.561 322.553 358.26 322.579C357.611 322.59 356.917 322.596 356.189 322.575C355.83 322.562 355.455 322.546 355.078 322.509C354.889 322.491 354.7 322.468 354.515 322.434C354.424 322.418 354.333 322.395 354.245 322.365C354.204 322.355 354.165 322.339 354.129 322.319C354.096 322.292 354.129 322.319 354.126 322.294C354.123 322.269 354.126 322.294 354.123 322.269L354.225 322.197C354.306 322.147 354.39 322.103 354.477 322.067C354.655 321.99 354.843 321.923 355.037 321.86C355.425 321.729 355.825 321.622 356.236 321.513C357.058 321.307 357.917 321.12 358.804 320.946C360.572 320.603 362.451 320.303 364.399 320.075C367.16 319.745 369.939 319.588 372.72 319.603C373.337 319.605 373.953 319.657 374.562 319.76L374.76 319.822L374.84 319.858C374.84 319.858 374.732 319.971 374.617 320.02C374.361 320.144 374.095 320.248 373.822 320.329C372.744 320.672 371.704 320.904 370.755 321.106C368.858 321.509 367.306 321.761 366.232 321.927L364.995 322.117C364.85 322.131 364.707 322.158 364.567 322.198C364.712 322.195 364.857 322.178 364.999 322.147C365.282 322.114 365.704 322.065 366.241 322.002C367.324 321.875 368.879 321.643 370.789 321.268C371.743 321.071 372.791 320.852 373.89 320.517C374.176 320.433 374.454 320.326 374.724 320.199C374.796 320.16 374.865 320.117 374.93 320.069C374.971 320.041 375.006 320.006 375.034 319.966C375.059 319.94 375.075 319.906 375.078 319.87C375.074 319.836 375.101 319.802 375.067 319.776L375.026 319.68C375.023 319.655 374.969 319.627 374.948 319.614C374.909 319.587 374.868 319.565 374.824 319.548C374.747 319.519 374.668 319.495 374.589 319.475C373.965 319.363 373.333 319.304 372.699 319.299C369.906 319.264 367.113 319.409 364.339 319.735C362.381 319.964 360.498 320.27 358.72 320.619C357.834 320.798 356.97 320.99 356.144 321.202C355.729 321.311 355.324 321.429 354.932 321.561C354.733 321.623 354.538 321.698 354.348 321.785C354.252 321.826 354.158 321.874 354.068 321.928L353.929 322.035C353.898 322.063 353.873 322.096 353.855 322.134C353.841 322.176 353.831 322.22 353.825 322.264C353.84 322.305 353.86 322.345 353.884 322.382C353.943 322.406 353.972 322.443 353.998 322.45Z" fill="#3F00F9"/>
<path d="M400.417 316.798L400.376 316.702C400.348 316.68 400.319 316.648 400.298 316.635C400.259 316.609 400.218 316.587 400.174 316.569C400.097 316.541 400.019 316.516 399.939 316.496C399.315 316.385 398.683 316.326 398.049 316.32C395.256 316.285 392.463 316.431 389.689 316.756C387.731 316.985 385.848 317.291 384.07 317.64C383.184 317.82 382.32 318.011 381.494 318.224C381.079 318.333 380.674 318.451 380.282 318.582C380.083 318.645 379.888 318.72 379.698 318.806C379.602 318.848 379.508 318.896 379.418 318.95L379.28 319.057C379.248 319.085 379.221 319.119 379.201 319.156C379.19 319.199 379.181 319.242 379.175 319.285C379.19 319.327 379.21 319.367 379.235 319.404C379.274 319.439 379.303 319.476 379.329 319.483C379.38 319.512 379.433 319.534 379.488 319.55C379.587 319.583 379.687 319.609 379.789 319.626C379.99 319.662 380.184 319.685 380.378 319.703C380.764 319.733 381.139 319.749 381.507 319.756C382.239 319.771 382.933 319.755 383.585 319.734C384.895 319.692 386.029 319.614 386.961 319.53C387.893 319.446 388.635 319.369 389.131 319.306L389.702 319.239L389.901 319.216C389.834 319.212 389.767 319.22 389.702 319.239L389.131 319.306L386.963 319.465C386.028 319.524 384.892 319.586 383.591 319.613C382.942 319.624 382.248 319.629 381.52 319.609C381.156 319.596 380.786 319.579 380.409 319.543C380.221 319.525 380.032 319.502 379.847 319.468C379.755 319.451 379.665 319.428 379.576 319.399C379.536 319.389 379.497 319.373 379.46 319.352C379.427 319.326 379.46 319.352 379.457 319.327C379.454 319.303 379.457 319.327 379.454 319.303L379.557 319.23C379.637 319.181 379.721 319.137 379.808 319.1C379.986 319.024 380.174 318.957 380.369 318.894C380.756 318.763 381.157 318.656 381.567 318.547C382.389 318.34 383.249 318.154 384.13 317.981C385.903 317.637 387.782 317.337 389.725 317.109C392.486 316.779 395.265 316.622 398.046 316.638C398.664 316.638 399.28 316.691 399.888 316.794C399.957 316.811 400.025 316.831 400.092 316.856L400.167 316.892C400.206 316.888 400.059 317.005 399.944 317.054C399.688 317.179 399.422 317.282 399.149 317.364C398.071 317.706 397.03 317.939 396.082 318.14C394.184 318.543 392.632 318.796 391.559 318.962L390.322 319.152C390.177 319.166 390.033 319.193 389.893 319.232C390.038 319.229 390.183 319.212 390.325 319.181C390.608 319.148 391.031 319.099 391.567 319.036C392.651 318.909 394.205 318.677 396.116 318.302C397.07 318.105 398.117 317.887 399.216 317.552C399.501 317.468 399.778 317.361 400.045 317.233C400.119 317.196 400.19 317.152 400.257 317.103C400.297 317.075 400.332 317.04 400.361 317C400.386 316.974 400.401 316.941 400.405 316.905C400.409 316.859 400.436 316.826 400.417 316.798Z" fill="#3F00F9"/>
<path d="M254.455 334.273C254.529 334.235 254.6 334.192 254.667 334.142C254.707 334.114 254.742 334.08 254.771 334.04C254.796 334.014 254.811 333.98 254.815 333.944C254.811 333.909 254.837 333.876 254.804 333.85L254.762 333.754C254.759 333.729 254.706 333.7 254.684 333.688C254.646 333.661 254.604 333.639 254.561 333.622C254.484 333.593 254.405 333.569 254.325 333.549C253.702 333.438 253.07 333.379 252.436 333.373C249.641 333.338 246.846 333.483 244.07 333.809C242.117 334.038 240.234 334.344 238.457 334.693C237.571 334.872 236.707 335.064 235.88 335.276C235.465 335.385 235.061 335.503 234.668 335.634C234.469 335.697 234.275 335.772 234.085 335.859C233.988 335.899 233.894 335.947 233.805 336.002L233.661 336.109C233.632 336.139 233.607 336.173 233.587 336.209C233.576 336.251 233.568 336.294 233.562 336.337C233.576 336.379 233.596 336.419 233.621 336.456C233.647 336.489 233.679 336.516 233.716 336.536C233.766 336.564 233.82 336.586 233.875 336.602C233.973 336.636 234.074 336.661 234.176 336.678C234.377 336.715 234.571 336.737 234.764 336.755C235.151 336.785 235.525 336.802 235.894 336.809C236.626 336.824 237.319 336.808 237.971 336.787C239.276 336.745 240.415 336.666 241.348 336.582C242.28 336.498 243.016 336.422 243.517 336.359L244.089 336.292L244.283 336.269C244.283 336.269 244.218 336.276 244.089 336.292L243.517 336.359L241.34 336.432C240.405 336.492 239.269 336.554 237.967 336.581C237.319 336.591 236.625 336.597 235.897 336.577C235.533 336.564 235.163 336.547 234.786 336.511C234.597 336.493 234.408 336.47 234.218 336.436C234.128 336.42 234.039 336.397 233.953 336.367C233.912 336.357 233.873 336.341 233.837 336.32C233.799 336.294 233.837 336.32 233.834 336.295C233.831 336.271 233.834 336.295 233.831 336.271L233.933 336.198C234.014 336.148 234.098 336.105 234.185 336.068C234.363 335.992 234.551 335.925 234.745 335.862C235.133 335.731 235.533 335.624 235.944 335.515C236.766 335.308 237.625 335.122 238.507 334.948C240.28 334.605 242.159 334.304 244.102 334.077C246.863 333.747 249.642 333.59 252.423 333.605C253.04 333.606 253.656 333.659 254.265 333.762C254.334 333.778 254.402 333.799 254.468 333.824L254.543 333.86C254.481 333.932 254.403 333.987 254.315 334.023C254.061 334.147 253.797 334.251 253.525 334.331C252.447 334.674 251.407 334.906 250.458 335.108C248.556 335.512 247.009 335.764 245.935 335.929L244.698 336.12C244.552 336.134 244.407 336.161 244.265 336.201C244.412 336.197 244.558 336.18 244.702 336.149C244.985 336.116 245.402 336.067 245.944 336.004C247.022 335.878 248.582 335.645 250.492 335.27C251.446 335.073 252.489 334.855 253.593 334.52C253.887 334.461 254.175 334.378 254.455 334.273Z" fill="#1D0D0B"/>
<path d="M259.062 333.567C259.113 333.595 259.166 333.618 259.221 333.634C259.319 333.668 259.42 333.693 259.522 333.709C259.723 333.746 259.917 333.769 260.111 333.786C260.497 333.817 260.872 333.833 261.24 333.84C261.972 333.855 262.665 333.839 263.318 333.818C264.622 333.776 265.762 333.698 266.694 333.614C267.626 333.53 268.363 333.454 268.864 333.39L269.435 333.323L269.629 333.3C269.629 333.3 269.564 333.308 269.435 333.323L268.864 333.39L266.681 333.465C265.746 333.524 264.615 333.586 263.314 333.612C262.66 333.624 261.971 333.629 261.243 333.608C260.879 333.596 260.509 333.579 260.132 333.542C259.944 333.524 259.75 333.502 259.564 333.468C259.473 333.451 259.383 333.428 259.294 333.399C259.256 333.388 259.218 333.372 259.183 333.352C259.145 333.326 259.183 333.352 259.18 333.327C259.177 333.302 259.18 333.327 259.177 333.302L259.28 333.23C259.36 333.18 259.444 333.136 259.531 333.1C259.709 333.024 259.897 332.956 260.092 332.893C260.474 332.763 260.88 332.655 261.29 332.547C262.112 332.34 262.967 332.154 263.853 331.98C265.626 331.637 267.5 331.337 269.448 331.108C272.209 330.779 274.988 330.622 277.769 330.637C278.387 330.638 279.003 330.69 279.611 330.794C279.679 330.809 279.745 330.83 279.81 330.856L279.889 330.892C279.828 330.963 279.75 331.019 279.662 331.054C279.407 331.179 279.143 331.282 278.872 331.363C277.789 331.706 276.748 331.939 275.805 332.14C273.902 332.543 272.355 332.795 271.277 332.962L270.045 333.151C269.898 333.165 269.753 333.192 269.611 333.232C269.758 333.229 269.904 333.212 270.048 333.181C270.331 333.148 270.749 333.099 271.29 333.035C272.369 332.909 273.928 332.676 275.839 332.302C276.793 332.104 277.835 331.887 278.939 331.551C279.223 331.467 279.501 331.36 279.768 331.233C279.841 331.195 279.91 331.152 279.975 331.103C280.017 331.075 280.053 331.04 280.083 331C280.096 330.987 280.106 330.973 280.113 330.956C280.12 330.94 280.123 330.922 280.123 330.905C280.119 330.87 280.15 330.836 280.112 330.81C280.102 330.777 280.09 330.745 280.075 330.714C280.047 330.692 280.019 330.66 279.997 330.648C279.958 330.622 279.916 330.6 279.873 330.582C279.796 330.553 279.718 330.529 279.638 330.509C279.014 330.398 278.382 330.339 277.749 330.333C274.957 330.323 272.167 330.493 269.397 330.843C267.444 331.072 265.561 331.378 263.783 331.727C262.897 331.906 262.033 332.097 261.207 332.31C260.792 332.419 260.387 332.537 259.995 332.668C259.796 332.731 259.601 332.806 259.411 332.892C259.313 332.934 259.218 332.982 259.126 333.036L258.987 333.143C258.959 333.173 258.934 333.206 258.913 333.242C258.903 333.285 258.894 333.328 258.888 333.371C258.903 333.412 258.922 333.452 258.943 333.491C258.977 333.523 259.018 333.549 259.062 333.567Z" fill="#3F00F9"/>
<defs>
<filter id="filter0_i_1108_3049" x="56.325" y="263.64" width="16.1616" height="14.3193" filterUnits="userSpaceOnUse" color-interpolation-filters="sRGB">
<feFlood flood-opacity="0" result="BackgroundImageFix"/>
<feBlend mode="normal" in="SourceGraphic" in2="BackgroundImageFix" result="shape"/>
<feColorMatrix in="SourceAlpha" type="matrix" values="0 0 0 0 0 0 0 0 0 0 0 0 0 0 0 0 0 0 127 0" result="hardAlpha"/>
<feOffset dx="0.25" dy="0.5"/>
<feComposite in2="hardAlpha" operator="arithmetic" k2="-1" k3="1"/>
<feColorMatrix type="matrix" values="0 0 0 0 0 0 0 0 0 0 0 0 0 0 0 0 0 0 0.25 0"/>
<feBlend mode="normal" in2="shape" result="effect1_innerShadow_1108_3049"/>
</filter>
<radialGradient id="paint0_radial_1108_3049" cx="0" cy="0" r="1" gradientUnits="userSpaceOnUse" gradientTransform="translate(400.584 322.487) rotate(173.492) scale(167.501 50.8457)">
<stop stop-color="#0894FF"/>
<stop offset="0.290475" stop-color="#6E53FF"/>
<stop offset="0.609151" stop-color="#B038EA"/>
<stop offset="0.850793" stop-color="#F95088"/>
<stop offset="1" stop-color="#FF6F62"/>
</radialGradient>
</defs>
</svg>
